<svg width="24" height="24" viewBox="0 0 24 24" fill="none" xmlns="http://www.w3.org/2000/svg">
<path fill-rule="evenodd" clip-rule="evenodd" d="M19.5 17.3249V6.58496C18.6685 6.15707 17.4266 5.69061 16.1438 5.54556C14.7879 5.39223 13.4677 5.60378 12.5 6.49662V17.46C12.5378 17.4458 12.5807 17.4288 12.6287 17.4098C12.846 17.3239 13.1682 17.1965 13.5926 17.0955C14.6391 16.8465 16.3477 16.7321 19.5 17.3249ZM12 18.4734C12.1043 18.5044 12.2117 18.5192 12.3235 18.5166C12.5087 18.5123 12.6755 18.4602 12.8108 18.4112C12.886 18.384 12.9591 18.3552 13.0345 18.3254C13.2467 18.2418 13.4771 18.151 13.8241 18.0684C14.7408 17.8502 16.4389 17.7142 19.8997 18.4225L20.5 18.5454V5.99373L20.2451 5.85037C19.3379 5.34008 17.8387 4.73084 16.2562 4.55189C14.8184 4.3893 13.2378 4.57665 12 5.60541C10.7622 4.57665 9.18165 4.3893 7.74382 4.55189C6.16134 4.73084 4.66211 5.34008 3.75488 5.85037L3.5 5.99373V18.5454L4.10025 18.4225C7.56114 17.7142 9.25919 17.8502 10.1759 18.0684C10.5229 18.151 10.7533 18.2418 10.9655 18.3254C11.0409 18.3552 11.114 18.384 11.1892 18.4112C11.3245 18.4602 11.4913 18.5123 11.6765 18.5166C11.7883 18.5192 11.8957 18.5044 12 18.4734ZM11.5 17.46C11.4623 17.4458 11.4193 17.4288 11.3713 17.4098L11.3713 17.4098C11.154 17.3239 10.8318 17.1965 10.4074 17.0955C9.36095 16.8465 7.65227 16.7321 4.5 17.3249V6.58496C5.3315 6.15707 6.57345 5.69061 7.85618 5.54556C9.21205 5.39223 10.5323 5.60378 11.5 6.49662V17.46Z" fill="#296EBB"/>
</svg>
