<?xml version="1.0" encoding="utf-8"?>
<!-- Generator: Adobe Illustrator 25.2.0, SVG Export Plug-In . SVG Version: 6.00 Build 0)  -->
<svg version="1.1" id="Layer_1" xmlns="http://www.w3.org/2000/svg" xmlns:xlink="http://www.w3.org/1999/xlink" x="0px" y="0px"
	 viewBox="0 0 467.8 84.8" style="enable-background:new 0 0 467.8 84.8;" xml:space="preserve">
<style type="text/css">
	.st0{fill:url(#SVGID_1_);}
	.st1{fill:url(#SVGID_2_);}
	.st2{fill:url(#SVGID_3_);}
	.st3{fill:url(#SVGID_4_);}
	.st4{fill:url(#SVGID_5_);}
	.st5{fill:url(#SVGID_6_);}
	.st6{fill:url(#SVGID_7_);}
	.st7{fill:url(#SVGID_8_);}
	.st8{fill:url(#SVGID_9_);}
	.st9{fill:url(#SVGID_10_);}
	.st10{fill:url(#SVGID_11_);}
	.st11{fill:url(#SVGID_12_);}
	.st12{fill:#0F7D3F;}
</style>
<g>
	<g>
		
			<linearGradient id="SVGID_1_" gradientUnits="userSpaceOnUse" x1="18.0452" y1="180.0696" x2="42.4184" y2="161.703" gradientTransform="matrix(0.6595 0 0 -0.6595 8.6042 186.9113)">
			<stop  offset="0" style="stop-color:#44A875"/>
			<stop  offset="0.398" style="stop-color:#138443"/>
			<stop  offset="0.81" style="stop-color:#173C24"/>
		</linearGradient>
		<path class="st0" d="M8.8,83.6c0,0,8.6-10.9,12.1-11.3c6.3-0.9,10.1,2.4,18.2-2.3c3.9-2.2,7.1-4.6,8.4-5.6
			c0.2-0.1,0.4,0.1,0.3,0.3C46.2,68.1,37.7,82.4,8.8,83.6z"/>
		
			<linearGradient id="SVGID_2_" gradientUnits="userSpaceOnUse" x1="19.64" y1="188.0764" x2="63.4683" y2="188.0764" gradientTransform="matrix(0.6595 0 0 -0.6595 8.6042 186.9113)">
			<stop  offset="0" style="stop-color:#44A875"/>
			<stop  offset="0.398" style="stop-color:#138443"/>
			<stop  offset="0.7347" style="stop-color:#173C24"/>
		</linearGradient>
		<path class="st1" d="M21.6,68.6l3.2-4.6c0,0,13.8,3.9,25.7-7.3C50.5,56.7,43.4,72,21.6,68.6z"/>
		
			<linearGradient id="SVGID_3_" gradientUnits="userSpaceOnUse" x1="26.5969" y1="196.9391" x2="64.8596" y2="196.9391" gradientTransform="matrix(0.6595 0 0 -0.6595 8.6042 186.9113)">
			<stop  offset="0" style="stop-color:#44A875"/>
			<stop  offset="0.398" style="stop-color:#138443"/>
			<stop  offset="0.7347" style="stop-color:#173C24"/>
		</linearGradient>
		<path class="st2" d="M26.1,61.7l3-3.9c0,0,12,4.3,22.2-6C51.4,51.8,45,64.8,26.1,61.7z"/>
		
			<linearGradient id="SVGID_4_" gradientUnits="userSpaceOnUse" x1="32.4605" y1="203.7673" x2="65.7541" y2="203.7673" gradientTransform="matrix(0.6595 0 0 -0.6595 8.6042 186.9113)">
			<stop  offset="0" style="stop-color:#44A875"/>
			<stop  offset="0.398" style="stop-color:#138443"/>
			<stop  offset="0.7347" style="stop-color:#173C24"/>
		</linearGradient>
		<path class="st3" d="M33.1,51.9L30,56.1c0,0,14,3.2,22-7.6C52,48.5,41.2,55.7,33.1,51.9z"/>
		
			<linearGradient id="SVGID_5_" gradientUnits="userSpaceOnUse" x1="38.4235" y1="212.5083" x2="67.7289" y2="212.5083" gradientTransform="matrix(0.6595 0 0 -0.6595 8.6042 186.9113)">
			<stop  offset="0" style="stop-color:#44A875"/>
			<stop  offset="0.398" style="stop-color:#138443"/>
			<stop  offset="0.7347" style="stop-color:#173C24"/>
		</linearGradient>
		<path class="st4" d="M33.9,50.4l2.3-3.3c0,0,10.2,3,17-4.7C53.3,42.4,48.5,54.1,33.9,50.4z"/>
		
			<linearGradient id="SVGID_6_" gradientUnits="userSpaceOnUse" x1="44.8145" y1="221.3812" x2="70.2191" y2="221.3812" gradientTransform="matrix(0.6595 0 0 -0.6595 8.6042 186.9113)">
			<stop  offset="0" style="stop-color:#44A875"/>
			<stop  offset="0.398" style="stop-color:#138443"/>
			<stop  offset="0.7347" style="stop-color:#173C24"/>
		</linearGradient>
		<path class="st5" d="M38.1,44.4l2.3-3.4c0,0,8.3,3.2,14.5-4.3C54.9,36.8,51.2,47.7,38.1,44.4z"/>
		
			<linearGradient id="SVGID_7_" gradientUnits="userSpaceOnUse" x1="50.5155" y1="228.0619" x2="70.2196" y2="228.0619" gradientTransform="matrix(0.6595 0 0 -0.6595 8.6042 186.9113)">
			<stop  offset="0" style="stop-color:#44A875"/>
			<stop  offset="0.398" style="stop-color:#138443"/>
			<stop  offset="0.7347" style="stop-color:#173C24"/>
		</linearGradient>
		<path class="st6" d="M41.9,38.7l1.9-2.6c0,0,5.9,3,11.1-2.6C54.9,33.6,51.6,41.7,41.9,38.7z"/>
		
			<linearGradient id="SVGID_8_" gradientUnits="userSpaceOnUse" x1="54.7225" y1="235.4646" x2="72.214" y2="235.4646" gradientTransform="matrix(0.6595 0 0 -0.6595 8.6042 186.9113)">
			<stop  offset="0" style="stop-color:#44A875"/>
			<stop  offset="0.398" style="stop-color:#138443"/>
			<stop  offset="0.7347" style="stop-color:#173C24"/>
		</linearGradient>
		<path class="st7" d="M44.7,34.6l2.2-3c0.3-0.4,0.9-0.5,1.3-0.3c1.2,0.6,4.1,1.6,8.1-2.9C56.2,28.4,52.8,36.4,44.7,34.6z"/>
		
			<linearGradient id="SVGID_9_" gradientUnits="userSpaceOnUse" x1="73.4123" y1="261.1178" x2="81.9271" y2="256.2018" gradientTransform="matrix(0.6595 0 0 -0.6595 8.6042 186.9113)">
			<stop  offset="0" style="stop-color:#44A875"/>
			<stop  offset="0.398" style="stop-color:#138443"/>
			<stop  offset="0.7347" style="stop-color:#173C24"/>
		</linearGradient>
		<path class="st8" d="M48.9,28.8c0,0,12-21.2,22.1-25.2c0,0-7.6,6.9-11.5,17.2c-0.4,1-0.9,2.1-1.6,3.1c-2.6,4.1-5.6,5.7-9,5.3
			C48.9,29.2,48.8,29.1,48.9,28.8z"/>
		
			<linearGradient id="SVGID_10_" gradientUnits="userSpaceOnUse" x1="-13.0465" y1="186.8624" x2="2.0864" y2="186.8624" gradientTransform="matrix(0.6595 0 0 -0.6595 8.6042 186.9113)">
			<stop  offset="0.1531" style="stop-color:#E4823E"/>
			<stop  offset="0.4694" style="stop-color:#E7CC1D"/>
			<stop  offset="0.6927" style="stop-color:#DBBB27"/>
			<stop  offset="1" style="stop-color:#E4823E"/>
		</linearGradient>
		<path class="st9" d="M2.3,84.8c0,0-7.7-28.6,5.2-42.3c0,0-4.6,13.8-1,19.2C10.1,67.2,13.6,69.1,2.3,84.8z"/>
		
			<linearGradient id="SVGID_11_" gradientUnits="userSpaceOnUse" x1="5.215750e-02" y1="201.019" x2="18.0502" y2="201.019" gradientTransform="matrix(0.6595 0 0 -0.6595 8.6042 186.9113)">
			<stop  offset="0.1531" style="stop-color:#E4823E"/>
			<stop  offset="0.4694" style="stop-color:#E7CC1D"/>
			<stop  offset="0.6927" style="stop-color:#DBBB27"/>
			<stop  offset="1" style="stop-color:#E4823E"/>
		</linearGradient>
		<path class="st10" d="M12.2,70.8c0,0,5.7-10.6,0.6-18.8c-0.3-0.5-0.7-1-1-1.4c-3.5-3.7-5-9.6,0.7-12.3c1.9-0.9,4.2-0.4,5.6,1.2
			c0.8,1,1.6,2.4,2.2,4.6C22,51.6,16.7,67.2,12.2,70.8z"/>
		
			<linearGradient id="SVGID_12_" gradientUnits="userSpaceOnUse" x1="20.2018" y1="242.716" x2="101.1347" y2="242.716" gradientTransform="matrix(0.6595 0 0 -0.6595 8.6042 186.9113)">
			<stop  offset="0" style="stop-color:#E4823E"/>
			<stop  offset="0.2959" style="stop-color:#E6B623"/>
			<stop  offset="0.7296" style="stop-color:#E7CC1D"/>
			<stop  offset="1" style="stop-color:#DBBB27"/>
		</linearGradient>
		<path class="st11" d="M75.3,0c0,0-22.5,6.2-26.1,17s-6.4,22.4-18.7,20.8c0,0,0.8,15.5-5.2,15.9h-0.1c-1.4-0.2-4-6.8-3-14.2
			c1-7.5,2.6-10.4,5-10.2c1.2,0.2,2.8,1.6,3.3,2.9c0.2,0.5,0.5,0.9,0.8,1.3c1.2,1.4,3.7,2.8,8.3-1.3c5.6-4.9,4.7-9.9,9.7-19.1
			S75.3,0,75.3,0z"/>
	</g>
	<g>
		<path class="st12" d="M109.6,61.3c0,3.5-1.7,6.2-5.1,8.1c-1.7,0.9-3.8,1.4-6.4,1.4c-0.8,0-1.5,0-2.1,0l-5-0.1
			c-1.8,0-3.2,0-4.1,0.1l-0.2-0.2V70l0.1-0.3c1-0.7,1.6-1.1,1.7-1.2c0.1-0.3,0.2-1.2,0.2-2.8l0.1-4.7V50.5c0-3.3-0.1-5.5-0.3-6.5
			c-0.1-0.4-0.3-0.7-0.7-0.8c-0.2-0.1-1-0.1-2.4-0.2l-0.2-0.2v-1.4l0.2-0.2c1.2,0.1,3.4,0.1,6.4,0.1c1.9,0,3.7,0,5.2-0.1
			c1.2-0.1,2.3-0.1,3.1-0.1c3.9,0,6.4,0.9,7.6,2.6c0.6,0.9,1,2,1,3.2c0,2-0.8,3.6-2.3,4.9c-0.7,0.6-1.5,1.1-2.3,1.4
			c-0.9,0.3-1.9,0.6-3,0.9C106.8,54.5,109.6,56.9,109.6,61.3z M102.4,48.1c0-3.1-1.6-4.6-4.8-4.6c-1.1,0-2,0.1-2.7,0.2
			c-0.1,1.5-0.1,2.8-0.1,4v5.8c0.3,0,1,0,1.9,0c2.5,0,4.2-0.8,5-2.4C102.1,50.1,102.4,49.1,102.4,48.1z M103.3,61.9
			c0-4.2-2.2-6.3-6.6-6.3c-0.6,0-1.2,0-1.9,0.1v9.7c0,1,0,2.1,0.1,3.1c0.6,0.1,1.4,0.1,2.4,0.1c1.9,0,3.4-0.6,4.5-1.8
			C102.8,65.6,103.3,64,103.3,61.9z"/>
		<path class="st12" d="M137.1,70.6l-0.2,0.2c-2.1-0.1-3.4-0.1-3.9-0.1s-1.1,0-2,0.1c-0.9,0-1.6,0.1-2,0.1l-0.2-0.2
			c0.1-1.1,0.2-2.2,0.2-3.3c-0.7,0.5-2,1.7-3.8,3.5c-0.9,0.3-1.9,0.5-2.9,0.5c-1.9,0-3.4-0.5-4.4-1.5c-1.1-1-1.6-2.5-1.6-4.4
			c0-0.2,0-0.7,0-1.5s0-1.5,0-2.2v-2.7c0-2.8-0.1-4.4-0.3-4.8c-0.1-0.3-0.4-0.5-0.9-0.5c-0.2,0-0.8-0.1-1.8-0.1l-0.2-0.2v-1.2
			l0.2-0.2c2.7-0.2,5.3-0.8,8.1-1.7l0.5,0.3c-0.2,2.3-0.3,4.4-0.3,6.4v4.1c0,1.9,0.1,3.2,0.2,3.9c0.1,0.8,0.5,1.5,1,1.9
			s1.2,0.6,2.1,0.6c1.1,0,2-0.3,2.9-1c0.8-0.7,1.2-1.5,1.2-2.4c0-0.7,0-1.1,0-1.3v-3.7c0-2.7-0.1-4.3-0.3-4.8
			c-0.1-0.3-0.4-0.5-0.9-0.5c-0.2,0-0.8-0.1-1.8-0.1l-0.2-0.2v-1.2l0.2-0.2c2.6-0.2,5.3-0.8,8.1-1.7l0.4,0.3
			c-0.2,2.1-0.3,4.2-0.3,6.4v6.5c0,2.9,0.1,4.6,0.3,5c0.1,0.2,0.2,0.3,0.4,0.4c0.3,0.1,1.1,0.2,2.2,0.3l0.2,0.2L137.1,70.6
			L137.1,70.6z"/>
		<path class="st12" d="M175.2,70.6l-0.2,0.2c-0.8-0.1-2.2-0.1-4.3-0.1c-1.7,0-2.9,0-3.7,0.1l-0.3-0.4c0.2-3.5,0.3-6,0.3-7.6v-1.9
			c0-2-0.1-3.4-0.2-4.1c-0.2-0.8-0.5-1.5-1-2s-1.3-0.8-2.2-0.8c-1,0-1.9,0.3-2.6,0.9c-0.7,0.6-1,1.3-1,2.2v6.2l0.1,3.3
			c0,0.9,0.1,1.5,0.2,1.8c0.1,0.2,0.3,0.3,0.6,0.4s0.9,0.2,2,0.3l0.2,0.2v1.3l-0.3,0.2c-1.7-0.1-3.4-0.1-5.1-0.1c-2.1,0-4,0-5.5,0.1
			l-0.2-0.2v-1.2l0.2-0.3c0.9-0.1,1.5-0.2,1.8-0.2c0.3-0.1,0.4-0.3,0.5-0.6c0.1-0.3,0.1-1,0.1-2.3v-6.7c0-1.6-0.1-2.7-0.4-3.3
			c-0.2-0.5-0.6-1-1.1-1.3s-1.1-0.5-1.9-0.5c-1.3,0-2.2,0.4-3,1.3c-0.3,0.4-0.6,0.7-0.6,0.9c-0.1,0.2-0.1,0.8-0.1,1.6v4.5
			c0,0.9,0,2,0.1,3.5s0.1,2.3,0.2,2.5c0.1,0.3,0.3,0.5,0.7,0.6s1,0.2,1.7,0.2l0.2,0.2v1.1l-0.2,0.2c-1.2-0.1-2.9-0.1-5.3-0.1
			c-2.5,0-4.4,0-5.7,0.1l-0.2-0.2v-1.3l0.2-0.2c1.3,0,2.2-0.1,2.5-0.3c0.3-0.1,0.4-0.5,0.5-1c0.1-1.8,0.1-3.7,0.1-5.8v-3
			c0-2.8-0.1-4.4-0.3-4.8c-0.1-0.3-0.4-0.5-0.9-0.5c-0.2,0-0.8-0.1-1.8-0.1l-0.2-0.2v-1.2l0.2-0.2c2.5-0.2,5.1-0.8,7.9-1.7l0.5,0.3
			v3.3l3.7-3c0.7-0.3,1.5-0.5,2.4-0.5c1.6,0,2.8,0.3,3.7,0.8s1.6,1.4,2.1,2.7l3.8-3.1c0.7-0.3,1.5-0.5,2.5-0.5c2.7,0,4.5,1,5.6,2.9
			c0.5,0.9,0.7,2.2,0.7,4c0,0.7,0,1.3,0,1.6v0.8c0,0.7,0,1.1,0,1.3v2.7c0,2.1,0,3.4,0.1,4c0.1,0.6,0.2,0.9,0.5,1.1s1,0.2,2.1,0.3
			l0.2,0.2L175.2,70.6L175.2,70.6L175.2,70.6z"/>
		<path class="st12" d="M189.2,70.6l-0.2,0.2c-1.3-0.1-3.2-0.1-5.7-0.1s-4.4,0-5.7,0.1l-0.2-0.2v-1.3l0.2-0.2c1.3,0,2.2-0.1,2.5-0.3
			c0.3-0.1,0.4-0.5,0.5-1c0.1-1.8,0.1-3.7,0.1-5.8v-3c0-2.7-0.1-4.3-0.3-4.8c-0.1-0.3-0.4-0.5-0.9-0.5c-0.2,0-0.8-0.1-1.8-0.1
			l-0.2-0.2v-1.2l0.2-0.2c2.7-0.2,5.4-0.8,8.1-1.7l0.4,0.3c-0.2,2.5-0.3,4.7-0.3,6.4v6.6c0,1,0,2.4,0.1,4.2c0,0.5,0.2,0.9,0.5,1
			c0.3,0.2,1.1,0.3,2.5,0.3l0.2,0.2L189.2,70.6L189.2,70.6z M186.3,43.4c0,0.9-0.3,1.7-0.9,2.3c-0.6,0.6-1.4,0.9-2.3,0.9
			c-0.9,0-1.6-0.3-2.3-0.9c-0.6-0.6-0.9-1.4-0.9-2.3c0-0.9,0.3-1.7,0.9-2.3c0.6-0.6,1.4-0.9,2.3-0.9c0.9,0,1.6,0.3,2.2,0.9
			C186,41.7,186.3,42.5,186.3,43.4z"/>
		<path class="st12" d="M204.3,68c-0.1,0.1-0.4,0.4-0.9,0.9c-0.8,0.8-1.5,1.5-2.1,2.1c-0.7,0.2-1.4,0.3-2.1,0.3
			c-1.9,0-3.3-0.6-4.2-1.7c-0.4-0.5-0.6-1-0.8-1.7c-0.1-0.8-0.2-1.8-0.2-3l0.1-5v-5.2h-0.6h-1.1h-0.9l-0.2-0.2V54l0.2-0.3
			c0.3-0.2,0.6-0.4,1.2-0.8c0.6-0.4,1.1-0.7,1.4-1v-2.8c0-1.2-0.1-2.4-0.2-3.8c1-0.3,1.9-0.6,2.5-0.9c0.6-0.3,1.6-0.7,2.7-1.3
			l0.5,0.4c-0.2,1.7-0.3,3.3-0.4,4.6l-0.2,3.6h0.7c1.5,0,2.8,0,3.9-0.1l0.2,0.2l-0.3,2.4l-0.2,0.2H199v7.1c0,2.3,0,3.6,0.1,4
			c0.1,0.6,0.3,1.1,0.7,1.4c0.4,0.4,1,0.5,1.7,0.5c0.6,0,1.3-0.2,2.1-0.5L204.3,68z"/>
		<path class="st12" d="M225,70.6l-0.2,0.2c-1.2-0.1-2.5-0.1-4-0.1c-1.2,0-2.3,0-3.4,0.1l-0.2-0.2l0.2-2.8l-4,3.1
			c-0.3,0.2-0.8,0.4-1.4,0.4c-0.2,0-0.5,0-0.8,0c-1.5,0-2.7-0.5-3.6-1.4c-0.8-0.9-1.2-2.2-1.2-3.9c0-2.2,0.7-3.7,2.1-4.6
			c1.5-1,4.5-1.9,9-2.7c0-2.2-0.6-3.7-1.8-4.4c-0.7-0.5-1.6-0.7-2.5-0.7c-1.1,0-1.9,0.2-2.6,0.7l-0.8,1.9l-0.3,0.1l-1.1-0.3
			l-0.1-0.3l0.1-2.5c2.3-1.7,4-2.7,5.2-2.9c0.5-0.1,1.1-0.1,1.9-0.1c2.7,0,4.7,0.7,5.9,2.1c0.8,1,1.3,2.6,1.3,4.8
			c0,0.5,0,1.4-0.1,2.5c-0.1,1.9-0.1,3.2-0.1,3.9c0,2.1,0,3.4,0.1,4s0.2,0.9,0.5,1.1s0.9,0.2,1.8,0.3l0.2,0.2L225,70.6L225,70.6z
			 M217.3,65.7v-5.1c-2.3,0.5-3.8,1-4.6,1.6s-1.2,1.5-1.2,2.6c0,1.9,0.8,2.8,2.5,2.8C215.4,67.7,216.5,67,217.3,65.7z"/>
		<path class="st12" d="M263,70.6l-0.2,0.2c-0.8-0.1-2.2-0.1-4.3-0.1c-1.7,0-2.9,0-3.7,0.1l-0.3-0.4c0.2-3.5,0.3-6,0.3-7.6v-1.9
			c0-2-0.1-3.4-0.2-4.1c-0.2-0.8-0.5-1.5-1-2s-1.3-0.8-2.2-0.8c-1,0-1.9,0.3-2.6,0.9c-0.7,0.6-1,1.3-1,2.2v6.2l0.1,3.3
			c0,0.9,0.1,1.5,0.2,1.8c0.1,0.2,0.3,0.3,0.6,0.4c0.3,0.1,0.9,0.2,2,0.3l0.2,0.2v1.3l-0.3,0.2c-1.7-0.1-3.4-0.1-5.1-0.1
			c-2.1,0-4,0-5.5,0.1l-0.2-0.2v-1.2l0.2-0.3c0.9-0.1,1.5-0.2,1.8-0.2c0.3-0.1,0.4-0.3,0.5-0.6c0.1-0.3,0.1-1,0.1-2.3v-6.7
			c0-1.6-0.1-2.7-0.4-3.3c-0.2-0.5-0.6-1-1.1-1.3s-1.1-0.5-1.9-0.5c-1.3,0-2.2,0.4-3,1.3c-0.3,0.4-0.6,0.7-0.6,0.9
			c-0.1,0.2-0.1,0.8-0.1,1.6v4.5c0,0.9,0,2,0.1,3.5s0.1,2.3,0.2,2.5c0.1,0.3,0.3,0.5,0.7,0.6c0.4,0.1,1,0.2,1.7,0.2l0.2,0.2v1.1
			l-0.2,0.2c-1.2-0.1-2.9-0.1-5.3-0.1c-2.5,0-4.4,0-5.7,0.1l0-0.2v-1.3l0.2-0.2c1.3,0,2.2-0.1,2.5-0.3c0.3-0.1,0.4-0.5,0.5-1
			c0.1-1.8,0.1-3.7,0.1-5.8v-3c0-2.8-0.1-4.4-0.3-4.8c-0.1-0.3-0.4-0.5-0.9-0.5c-0.2,0-0.8-0.1-1.8-0.1l-0.2-0.2v-1.2l0.2-0.2
			c2.5-0.2,5.1-0.8,7.9-1.7l0.5,0.3v3.3l3.7-3c0.7-0.3,1.5-0.5,2.4-0.5c1.6,0,2.8,0.3,3.7,0.8c0.9,0.5,1.6,1.4,2.1,2.7l3.8-3.1
			c0.7-0.3,1.5-0.5,2.5-0.5c2.7,0,4.5,1,5.6,2.9c0.5,0.9,0.7,2.2,0.7,4c0,0.7,0,1.3,0,1.6v0.8c0,0.7,0,1.1,0,1.3v2.7
			c0,2.1,0,3.4,0.1,4c0.1,0.6,0.2,0.9,0.5,1.1s1,0.2,2.1,0.3l0.2,0.2L263,70.6L263,70.6L263,70.6z"/>
		<path class="st12" d="M284.3,70.6l-0.2,0.2c-1.2-0.1-2.5-0.1-4-0.1c-1.2,0-2.3,0-3.4,0.1l-0.2-0.2l0.2-2.8l-4,3.1
			c-0.3,0.2-0.8,0.4-1.4,0.4c-0.2,0-0.5,0-0.8,0c-1.5,0-2.7-0.5-3.6-1.4c-0.8-0.9-1.2-2.2-1.2-3.9c0-2.2,0.7-3.7,2.1-4.6
			c1.5-1,4.5-1.9,9-2.7c0-2.2-0.6-3.7-1.8-4.4c-0.7-0.5-1.6-0.7-2.5-0.7c-1.1,0-1.9,0.2-2.6,0.7l-0.8,1.9l-0.3,0.1l-1.1-0.3
			l-0.1-0.3l0.1-2.5c2.3-1.7,4-2.7,5.2-2.9c0.5-0.1,1.1-0.1,1.9-0.1c2.7,0,4.7,0.7,5.9,2.1c0.8,1,1.3,2.6,1.3,4.8
			c0,0.5,0,1.4-0.1,2.5c-0.1,1.9-0.1,3.2-0.1,3.9c0,2.1,0,3.4,0.1,4s0.2,0.9,0.5,1.1s0.9,0.2,1.8,0.3l0.2,0.2v1.5H284.3z
			 M276.7,65.7v-5.1c-2.3,0.5-3.8,1-4.6,1.6c-0.8,0.6-1.2,1.5-1.2,2.6c0,1.9,0.8,2.8,2.5,2.8C274.7,67.7,275.8,67,276.7,65.7z"/>
		<path class="st12" d="M326.7,70.6l-0.2,0.2c-3.1-0.1-5-0.1-5.6-0.1c-2.6,0-4.9,0-7.1,0.1l-0.2-0.2v-1.3l0.2-0.2l1.8-0.1
			c0.8,0,1.1-0.3,1.1-0.8c0-0.3-0.2-0.9-0.6-2l-1.7-4.4c-1.9,0-3.9,0-5.9,0c-1.1,0-2.7,0-4.8,0l-0.9,2.5c-0.7,1.9-1,3.1-1,3.6
			s0.3,0.8,1,0.9c0.4,0.1,1.1,0.1,2.1,0.2l0.2,0.2v1.4l-0.2,0.2c-2.6-0.1-4.2-0.1-5-0.1c-0.6,0-2,0-4.2,0.1l-0.2-0.2v-1.4l0.2-0.2
			c1.4-0.1,2.3-0.4,2.6-0.9c0.3-0.5,1.6-3.4,3.7-8.7l5.4-13.6c0.4-1.1,1-2.6,1.8-4.8h3l11.1,26c0.4,1,0.8,1.5,1.2,1.7
			c0.5,0.2,1.1,0.3,2,0.3l0.2,0.2V70.6L326.7,70.6z M313.4,59.4L309,48.5l-4.3,10.9c1.1,0,2.6,0.1,4.4,0.1
			C310.9,59.4,312.3,59.4,313.4,59.4z"/>
		<path class="st12" d="M351,72.1c0,3-1.1,5.5-3.4,7.3s-5.2,2.7-8.9,2.7c-2.9,0-5.2-0.5-6.8-1.6c-1.7-1.1-2.5-2.5-2.5-4.3
			c0-1.2,0.3-2.1,0.8-2.8c0.1-0.1,0.8-0.5,2.2-1.4c0.7-0.4,1.2-0.7,1.5-0.9c-1.9-0.3-2.9-1.3-2.9-2.8c0-0.8,0.3-1.6,0.8-2.5
			c0-0.1,0.4-0.3,1.1-0.8c0.3-0.2,0.9-0.7,1.8-1.3c-3-1.1-4.5-3.1-4.5-6c0-2.3,0.8-4.1,2.5-5.5s4-2.1,6.8-2.1c2.7,0,4.9,0.6,6.4,1.8
			c0.9,0,1.4,0.1,1.7,0c0.7,0,1.7-0.1,3.1-0.1L351,52l-0.2,2.1l-0.2,0.2h-3.1c0.2,0.7,0.3,1.3,0.3,2c0,3.3-1.6,5.6-4.8,6.8
			c-1.4,0.5-2.9,0.8-4.3,0.8c-0.5,0-1.1,0-1.8-0.1c-0.9,0.5-1.3,1.1-1.3,1.9c0,0.7,0.5,1.1,1.5,1.2c0.6,0.1,1.6,0.1,2.9,0.1
			c0.4,0,1.2,0,2.3-0.1c1.1,0,1.9-0.1,2.4-0.1c3.1,0,5.1,0.7,5.9,2.1C350.8,70,351,70.9,351,72.1z M346.2,74.5
			c0-1.5-0.5-2.5-1.6-2.9c-0.4-0.2-1.3-0.3-2.7-0.3h-4c-0.4,0-1.1,0-1.8,0c-1.9,1.2-2.9,2.5-2.9,4.1c0,1.4,0.6,2.5,1.7,3.3
			s2.6,1.2,4.5,1.2c2,0,3.7-0.5,4.9-1.5C345.6,77.5,346.2,76.2,346.2,74.5z M342.4,57.5c0-3.5-1.2-5.3-3.5-5.3s-3.5,1.5-3.5,4.5
			c0,3.6,1.2,5.4,3.6,5.4C341.3,62.2,342.4,60.7,342.4,57.5z"/>
		<path class="st12" d="M368,50.5l-0.1,3.7c0,0.6,0,1.3-0.1,2.1l-0.9,0.3c-0.7-0.9-1.6-1.4-2.7-1.4c-1,0-1.9,0.4-2.6,1.3
			c-0.4,0.5-0.6,1.3-0.6,2.3v4.8c0,1,0,2.4,0.1,4.2c0,0.5,0.2,0.8,0.4,1c0.3,0.2,1.2,0.3,2.9,0.3l0.2,0.2v1.3l-0.2,0.2
			c-2-0.1-4.1-0.1-6.1-0.1c-2.5,0-4.4,0-5.7,0.1l-0.2-0.2v-1.3l0.2-0.2c1.3,0,2.2-0.1,2.5-0.3c0.3-0.1,0.4-0.5,0.5-1
			c0.1-1.8,0.1-3.7,0.1-5.8v-3c0-2.8-0.1-4.4-0.3-4.8c-0.1-0.3-0.4-0.5-0.9-0.5c-0.2,0-0.8-0.1-1.8-0.1l-0.2-0.2v-1.2l0.2-0.2
			c2.5-0.2,5.1-0.8,7.9-1.7l0.5,0.3v4.1c0.9-1,1.9-2.2,3.1-3.5c0.6-0.6,1.3-0.8,2.3-0.8C367.1,50.3,367.6,50.4,368,50.5z"/>
		<path class="st12" d="M381.1,70.6l-0.2,0.2c-1.3-0.1-3.2-0.1-5.7-0.1s-4.4,0-5.7,0.1l-0.2-0.2v-1.3l0.2-0.2c1.3,0,2.2-0.1,2.5-0.3
			c0.3-0.1,0.4-0.5,0.5-1c0.1-1.8,0.1-3.7,0.1-5.8v-3c0-2.7-0.1-4.3-0.3-4.8c-0.1-0.3-0.4-0.5-0.9-0.5c-0.2,0-0.8-0.1-1.8-0.1
			l-0.2-0.2v-1.2l0.2-0.2c2.7-0.2,5.4-0.8,8.1-1.7l0.4,0.3c-0.2,2.5-0.3,4.7-0.3,6.4v6.6c0,1,0,2.4,0.1,4.2c0,0.5,0.2,0.9,0.5,1
			c0.3,0.2,1.1,0.3,2.5,0.3l0.2,0.2L381.1,70.6L381.1,70.6z M378.2,43.4c0,0.9-0.3,1.7-0.9,2.3s-1.4,0.9-2.3,0.9s-1.6-0.3-2.3-0.9
			c-0.6-0.6-0.9-1.4-0.9-2.3c0-0.9,0.3-1.7,0.9-2.3s1.4-0.9,2.3-0.9s1.6,0.3,2.2,0.9C377.9,41.7,378.2,42.5,378.2,43.4z"/>
		<path class="st12" d="M417.2,63.7c-0.3,2-0.5,4.3-0.5,6.9l-0.2,0.2l-15.2-0.1c-2.5,0-4.3,0-5.4,0.1l-0.2-0.2V70l0.1-0.3
			c1-0.7,1.6-1.1,1.7-1.2c0.1-0.3,0.2-1.2,0.2-2.8l0.1-4.7V50.5c0-3.3-0.1-5.5-0.3-6.5c-0.1-0.4-0.3-0.7-0.7-0.8
			c-0.2-0.1-1-0.1-2.4-0.2l-0.2-0.2v-1.4l0.2-0.2c1.4,0.1,3.5,0.1,6.3,0.1c2.9,0,5,0,6.5-0.1l0.2,0.2v1.4l-0.2,0.2
			c-1.4,0.1-2.2,0.2-2.4,0.2c-0.4,0.1-0.6,0.4-0.7,0.8c-0.2,1-0.3,3.2-0.3,6.5V63c0,1.8,0,3.6,0.1,5.3h2.8c4.1,0,6.6-0.2,7.5-0.5
			c0.2-0.1,0.3-0.1,0.3-0.2c0.1-0.2,0.3-0.6,0.4-1.3l0.5-2.6l0.2-0.2h1.3L417.2,63.7z"/>
		<path class="st12" d="M432.7,68c-0.1,0.1-0.4,0.4-0.9,0.9c-0.8,0.8-1.5,1.5-2.1,2.1c-0.7,0.2-1.4,0.3-2.1,0.3
			c-1.9,0-3.3-0.6-4.2-1.7c-0.4-0.5-0.6-1-0.8-1.7c-0.1-0.8-0.2-1.8-0.2-3l0.1-5v-5.2H422h-1.1H420l-0.2-0.2V54l0.2-0.3
			c0.3-0.2,0.6-0.4,1.2-0.8c0.6-0.4,1.1-0.7,1.4-1v-2.8c0-1.2-0.1-2.4-0.2-3.8c1-0.3,1.9-0.6,2.5-0.9c0.6-0.3,1.6-0.7,2.7-1.3
			l0.5,0.4c-0.2,1.7-0.3,3.3-0.4,4.6l-0.2,3.6h0.7c1.5,0,2.8,0,3.9-0.1l0.2,0.2l-0.3,2.4l0,0.4h-4.3v7.1c0,2.3,0,3.6,0.1,4
			c0.1,0.6,0.3,1.1,0.7,1.4c0.4,0.4,1,0.5,1.7,0.5c0.6,0,1.3-0.2,2.1-0.5L432.7,68z"/>
		<path class="st12" d="M458.1,70.6l-0.2,0.2c-1.4-0.1-2.6-0.1-3.7-0.1c-1,0-2.5,0-4.2,0.1l-0.2-0.1c0.1-0.7,0.1-1.8,0.1-3.4
			c-0.5,0.4-1.2,1.1-2.1,1.9c-1.2,1.1-1.9,1.7-2.3,1.9c-0.4,0.2-1.2,0.3-2.2,0.3c-2.4,0-4.3-0.9-5.8-2.7c-1.5-1.8-2.2-4.1-2.2-7
			c0-2.8,0.6-4.9,1.7-6.5c0.3-0.4,1.2-1.1,2.6-2.1c1.7-1.2,2.9-2,3.7-2.3c0.7-0.3,1.5-0.4,2.5-0.4c1.4,0,2.8,0.3,4,0.9v-1.2
			c0-3.7-0.1-5.8-0.3-6.5c-0.1-0.4-0.4-0.6-0.9-0.7c-0.2,0-0.9-0.1-1.9-0.1l-0.2-0.2v-1l0.2-0.2c2.7-0.3,5.4-0.9,8.1-1.7l0.5,0.3
			c0,0.1,0,0.7-0.1,2.1c-0.1,3-0.2,7.5-0.2,13.5v6.7c0,3.9,0.1,6.1,0.3,6.4c0.1,0.2,0.3,0.4,0.5,0.4c0.3,0.1,1,0.2,2.1,0.3l0.2,0.2
			V70.6L458.1,70.6z M449.9,59.7v-3.9c-1-1.2-2-2-2.9-2.3c-0.6-0.2-1.3-0.3-2-0.3c-1.9,0-3.2,1-3.7,3c-0.3,1.1-0.5,2.3-0.5,3.7
			c0,2.9,0.7,5,2,6.4c0.7,0.7,1.7,1.1,2.9,1.1c1,0,1.9-0.3,2.8-0.9c0.8-0.6,1.2-1.2,1.4-1.8C449.8,64.4,449.9,62.8,449.9,59.7z"/>
		<path class="st12" d="M464.5,64.7c0.9,0,1.7,0.3,2.3,0.9c0.6,0.6,1,1.4,1,2.4c0,0.9-0.3,1.7-1,2.3c-0.6,0.6-1.4,1-2.3,1
			s-1.7-0.3-2.3-1c-0.6-0.6-1-1.4-1-2.3s0.3-1.7,1-2.3C462.8,65,463.6,64.7,464.5,64.7z"/>
	</g>
</g>
</svg>
