<svg width="28" height="28" viewBox="0 0 28 28" fill="none" xmlns="http://www.w3.org/2000/svg">
<path d="M0.0673828 28L2.03555 20.8098C0.82105 18.7052 0.182883 16.3193 0.18405 13.8728C0.18755 6.22417 6.41172 0 14.0592 0C17.7704 0.00116667 21.2541 1.44667 23.8744 4.06933C26.4936 6.692 27.9356 10.178 27.9344 13.8857C27.9309 21.5355 21.7067 27.7597 14.0592 27.7597C11.7376 27.7585 9.44972 27.1763 7.42322 26.0703L0.0673828 28ZM7.76388 23.5585C9.71922 24.7193 11.5859 25.4147 14.0546 25.4158C20.4106 25.4158 25.5882 20.2428 25.5917 13.8833C25.5941 7.511 20.4409 2.345 14.0639 2.34267C7.70322 2.34267 2.52905 7.51567 2.52672 13.874C2.52555 16.4698 3.28622 18.4135 4.56372 20.447L3.39822 24.703L7.76388 23.5585ZM21.0487 17.1838C20.9624 17.0392 20.7314 16.9528 20.3837 16.779C20.0372 16.6052 18.3327 15.7663 18.0142 15.6508C17.6969 15.5353 17.4659 15.477 17.2337 15.8247C17.0027 16.1712 16.3377 16.9528 16.1359 17.1838C15.9341 17.4148 15.7311 17.444 15.3846 17.2702C15.0381 17.0963 13.9204 16.7312 12.5962 15.5493C11.5661 14.63 10.8696 13.4948 10.6677 13.1472C10.4659 12.8007 10.6467 12.6128 10.8194 12.4402C10.9757 12.285 11.1659 12.0353 11.3397 11.8323C11.5159 11.6317 11.5731 11.487 11.6897 11.2548C11.8052 11.0238 11.7481 10.8208 11.6606 10.647C11.5731 10.4743 10.8801 8.7675 10.5919 8.07333C10.3096 7.39783 10.0237 7.48883 9.81139 7.47833L9.14639 7.46667C8.91539 7.46667 8.53972 7.553 8.22238 7.90067C7.90505 8.24833 7.00905 9.086 7.00905 10.7928C7.00905 12.4997 8.25155 14.1482 8.42422 14.3792C8.59805 14.6102 10.8684 18.1125 14.3462 19.614C15.1734 19.971 15.8197 20.1845 16.3226 20.3443C17.1532 20.608 17.9092 20.5707 18.5066 20.482C19.1727 20.3828 20.5576 19.6432 20.8469 18.8335C21.1362 18.0227 21.1362 17.3285 21.0487 17.1838Z" fill="white"/>
</svg>
