<svg width="28" height="28" viewBox="0 0 28 28" fill="none" xmlns="http://www.w3.org/2000/svg">
<circle cx="14" cy="14" r="13.5" stroke="#4A8B90"/>
<path d="M6.03796 22L7.16263 17.8913C6.46863 16.6887 6.10396 15.3253 6.10463 13.9273C6.10663 9.55667 9.6633 6 14.0333 6C16.154 6.00067 18.1446 6.82667 19.642 8.32533C21.1386 9.824 21.9626 11.816 21.962 13.9347C21.96 18.306 18.4033 21.8627 14.0333 21.8627C12.7066 21.862 11.3993 21.5293 10.2413 20.8973L6.03796 22ZM10.436 19.462C11.5533 20.1253 12.62 20.5227 14.0306 20.5233C17.6626 20.5233 20.6213 17.5673 20.6233 13.9333C20.6246 10.292 17.68 7.34 14.036 7.33867C10.4013 7.33867 7.44463 10.2947 7.4433 13.928C7.44263 15.4113 7.8773 16.522 8.6073 17.684L7.9413 20.116L10.436 19.462ZM18.0273 15.8193C17.978 15.7367 17.846 15.6873 17.6473 15.588C17.4493 15.4887 16.4753 15.0093 16.2933 14.9433C16.112 14.8773 15.98 14.844 15.8473 15.0427C15.7153 15.2407 15.3353 15.6873 15.22 15.8193C15.1046 15.9513 14.9886 15.968 14.7906 15.8687C14.5926 15.7693 13.954 15.5607 13.1973 14.8853C12.6086 14.36 12.2106 13.7113 12.0953 13.5127C11.98 13.3147 12.0833 13.2073 12.182 13.1087C12.2713 13.02 12.38 12.8773 12.4793 12.7613C12.58 12.6467 12.6126 12.564 12.6793 12.4313C12.7453 12.2993 12.7126 12.1833 12.6626 12.084C12.6126 11.9853 12.2166 11.01 12.052 10.6133C11.8906 10.2273 11.7273 10.2793 11.606 10.2733L11.226 10.2667C11.094 10.2667 10.8793 10.316 10.698 10.5147C10.5166 10.7133 10.0046 11.192 10.0046 12.1673C10.0046 13.1427 10.7146 14.0847 10.8133 14.2167C10.9126 14.3487 12.21 16.35 14.1973 17.208C14.67 17.412 15.0393 17.534 15.3266 17.6253C15.8013 17.776 16.2333 17.7547 16.5746 17.704C16.9553 17.6473 17.7466 17.2247 17.912 16.762C18.0773 16.2987 18.0773 15.902 18.0273 15.8193Z" fill="#4A8B90"/>
</svg>
