<svg width="29" height="28" viewBox="0 0 29 28" fill="none" xmlns="http://www.w3.org/2000/svg">
<g clip-path="url(#clip0)">
<path d="M16.6276 8.7368C16.8998 8.46364 17.2232 8.2469 17.5794 8.09901C17.9355 7.95113 18.3174 7.875 18.703 7.875C19.0887 7.875 19.4705 7.95113 19.8267 8.09901C20.1828 8.2469 20.5063 8.46364 20.7785 8.7368C21.3285 9.28489 21.6385 10.0289 21.6403 10.8054C21.6421 11.5818 21.3357 12.3273 20.7883 12.878L16.8815 16.7847C16.6079 17.0586 16.2828 17.2756 15.9249 17.4231C15.567 17.5707 15.1834 17.6458 14.7963 17.6442C14.0198 17.6487 13.2734 17.3448 12.7208 16.7994C12.4476 16.5271 12.2309 16.2037 12.083 15.8475C11.9351 15.4914 11.859 15.1095 11.859 14.7239C11.859 14.3383 11.9351 13.9564 12.083 13.6003C12.2309 13.2441 12.4476 12.9206 12.7208 12.6484L13.4143 11.955" stroke="#4A8B90"/>
<path d="M14.8602 15.4073L15.8954 14.372C16.4465 13.8209 16.7561 13.0734 16.7561 12.2941C16.7561 11.5147 16.4465 10.7673 15.8954 10.2162C15.3444 9.66507 14.5969 9.35547 13.8175 9.35547C13.0382 9.35547 12.2907 9.66507 11.7396 10.2162L7.83288 14.1229C7.55898 14.3952 7.34162 14.719 7.1933 15.0756C7.04498 15.4322 6.96863 15.8146 6.96863 16.2008C6.96863 16.587 7.04498 16.9695 7.1933 17.3261C7.34162 17.6827 7.55898 18.0064 7.83288 18.2787C8.38902 18.8201 9.1372 19.1186 9.91323 19.1089C10.6961 19.1097 11.4475 18.8007 12.0033 18.2494" stroke="#4A8B90"/>
</g>
<circle cx="14.1171" cy="14" r="13.5" stroke="#4A8B90"/>
<defs>
<clipPath id="clip0">
<rect width="16.3333" height="16.3333" fill="white" transform="translate(5.9491 5.83301)"/>
</clipPath>
</defs>
</svg>
