<svg width="29" height="28" viewBox="0 0 29 28" fill="none" xmlns="http://www.w3.org/2000/svg">
<path d="M27.6171 14.0546C27.6171 20.7887 22.7043 26.3665 16.2687 27.4236V17.4896H19.151H19.5906L19.6469 17.0537L20.1542 13.126L20.227 12.5619H19.6583H16.2687V10.5552C16.2687 10.0079 16.3507 9.68724 16.5123 9.49505C16.6575 9.32232 16.9646 9.1439 17.7131 9.1439H17.7133L19.7927 9.14289L20.2925 9.14265V8.64289V5.13046V4.69193L19.8577 4.63473C19.4751 4.5844 18.2192 4.47634 16.7644 4.47634C15.1638 4.47634 13.7642 4.96685 12.7633 5.95641C11.7609 6.94748 11.2139 8.38431 11.2139 10.1678V12.564H8.32257H7.82257V13.064V16.9916V17.4916H8.32257H11.2139V27.3019C5.09329 25.9951 0.5 20.5682 0.5 14.0586C0.5 6.57048 6.57048 0.5 14.0586 0.5C21.5467 0.5 27.6171 6.57057 27.6171 14.0546Z" stroke="#4A8B90"/>
</svg>
