<svg width="67" height="19" viewBox="0 0 67 19" fill="none" xmlns="http://www.w3.org/2000/svg">
<g clip-path="url(#clip0)">
<path d="M0.0693271 13.0335C0.0693271 12.0914 0.0525314 11.3028 0 10.597H1.83288L1.91972 11.8079H1.97046C2.38535 11.1688 3.14581 10.4115 4.5638 10.4115C5.67089 10.4115 6.53462 11.0177 6.89769 11.9243H6.93307C7.22717 11.471 7.57202 11.134 7.9694 10.8999C8.43646 10.5796 8.97393 10.4111 9.66434 10.4111C11.0652 10.4111 12.4817 11.3352 12.4817 13.9585V18.7804H10.4073V14.26C10.4073 12.8997 9.92307 12.0917 8.90317 12.0917C8.17738 12.0917 7.64063 12.5975 7.41657 13.1856C7.35439 13.41 7.31937 13.641 7.31258 13.8734V18.7822H5.23777V14.0409C5.23777 12.9004 4.77142 12.0924 3.78512 12.0924C2.99143 12.0924 2.45575 12.6986 2.26314 13.2686C2.17773 13.4708 2.14235 13.707 2.14235 13.9405V18.7818H0.0693271V13.0335ZM20.5655 16.816C20.5655 17.5545 20.6002 18.2767 20.6856 18.7818H18.7666L18.629 17.8748H18.5764C18.0576 18.514 17.1753 18.9659 16.0885 18.9659C14.3936 18.9659 13.443 17.7741 13.443 16.5294C13.443 14.4605 15.3259 13.4204 18.4396 13.4368V13.3027C18.4396 12.7639 18.2141 11.8736 16.7268 11.8736C15.8959 11.8736 15.0325 12.1265 14.4618 12.4784L14.047 11.1337C14.6698 10.7634 15.7591 10.4108 17.0891 10.4108C19.7872 10.4108 20.5662 12.0765 20.5662 13.8561L20.5655 16.816ZM18.49 14.7828C16.9851 14.7485 15.5511 15.068 15.5511 16.3116C15.5511 17.1182 16.0885 17.4889 16.7618 17.4889C17.608 17.4889 18.2312 16.9494 18.4214 16.362C18.4678 16.2151 18.4914 16.0622 18.4907 15.9087V14.7832H18.49V14.7828ZM22.0342 13.0335C22.0342 12.0914 22.0164 11.3028 21.9663 10.597H23.8314L23.9346 11.8256H23.9868C24.3495 11.1858 25.2662 10.4115 26.6666 10.4115C28.1368 10.4115 29.6573 11.3355 29.6573 13.9255V18.7811H27.5311V14.1604C27.5311 12.9841 27.0808 12.0907 25.923 12.0907C25.0771 12.0907 24.4875 12.6795 24.2634 13.3023C24.1941 13.4864 24.1773 13.7393 24.1773 13.9728V18.7804H22.0335L22.0342 13.0335ZM38.8779 7.30908V16.4794C38.8779 17.3197 38.9132 18.2288 38.9472 18.7818H37.0468L36.9599 17.4889H36.9245C36.4242 18.3959 35.4026 18.9666 34.1765 18.9666C32.1703 18.9666 30.5808 17.303 30.5808 14.7839C30.5625 12.0438 32.325 10.4125 34.3498 10.4125C35.5076 10.4125 36.3374 10.8832 36.7176 11.4908H36.7537V7.30978H38.8789V7.30908H38.8779ZM36.7523 14.0085C36.7523 13.8415 36.7355 13.6396 36.7001 13.4705C36.51 12.6652 35.8371 12.0091 34.868 12.0091C33.5025 12.0091 32.7403 13.186 32.7403 14.7148C32.7403 16.2092 33.5014 17.3024 34.8508 17.3024C35.7138 17.3024 36.475 16.7299 36.6823 15.8396C36.7348 15.6554 36.753 15.4526 36.753 15.2348V14.0085H36.7523ZM40.382 18.7818V10.597H42.5275V18.7818H40.382ZM44.0299 13.2363C44.0299 12.1272 44.0138 11.3365 43.962 10.598H45.8116L45.8795 12.1595H45.9496C46.3645 11.0003 47.349 10.598 48.2506 10.598C48.4579 10.598 48.5779 10.5636 48.7502 10.598V12.4141C48.5461 12.3703 48.3378 12.3477 48.1291 12.3467C47.1067 12.3467 46.4156 12.9859 46.2262 13.9085C46.1844 14.1197 46.1615 14.334 46.1576 14.5491V18.7825H44.0299V13.2363ZM49.7372 18.7818V10.597H51.8795V18.7818H49.7372Z" fill="white"/>
<path d="M65.2243 1.94124C64.1629 0.764334 63.034 1.29686 62.1374 1.73003C61.7604 1.91136 59.0374 3.41133 59.0374 3.41133C57.5454 4.00916 56.384 3.35679 55.9284 2.80759C55.8848 2.75548 55.8455 2.70025 55.8105 2.64224L55.7043 2.46334C55.5249 2.16147 55.3255 1.87107 55.1072 1.59456C54.9746 1.42678 54.8313 1.26768 54.6776 1.11796C53.657 0.116133 52.0257 -0.585217 49.2991 0.688259C48.0083 1.41566 43.8029 3.75106 43.8029 3.75106C42.2223 4.38328 41.0138 3.6135 40.6214 3.04832C40.6035 3.02713 40.5882 3.0042 40.5753 2.98024L40.5238 2.89478L40.2576 2.47133C40.1375 2.28583 40.0085 2.10589 39.8709 1.93186C39.7373 1.76512 39.5936 1.60637 39.4407 1.45596C38.4269 0.460034 36.8041 -0.239579 34.1014 1.00993C32.4672 1.91727 28.6657 4.02965 28.6657 4.02965L28.6642 4.03104L25.8822 5.57617L27.3217 7.29428C27.9274 7.85564 29.0659 8.77583 30.8273 7.9998C30.8273 7.9998 35.6884 5.26353 35.7077 5.25519C39.8638 3.03825 41.9143 5.15654 42.8213 6.56827C42.8527 6.61238 42.8781 6.66032 42.9067 6.70305L42.9081 6.70513C42.9195 6.7225 42.9267 6.73813 42.9367 6.75446L43.0389 6.91738C43.4806 7.56836 44.1774 7.98903 45.0079 7.96958C45.4661 7.96055 45.777 7.81534 46.2297 7.57079L50.9329 4.91893L50.9429 4.91442C55.1515 2.67038 57.2367 4.92727 58.1272 6.33935C58.1965 6.46128 58.2751 6.57799 58.3559 6.68638C58.7969 7.26788 59.4051 7.6486 60.1777 7.62984C60.688 7.62012 61.2601 7.32242 61.3455 7.26753L66.9843 4.10399C66.9864 4.10608 66.4107 3.25953 65.2243 1.94124Z" fill="white"/>
</g>
<defs>
<clipPath id="clip0">
<rect width="67" height="19" fill="white"/>
</clipPath>
</defs>
</svg>
