<svg width="115" height="20" viewBox="0 0 115 20" fill="none" xmlns="http://www.w3.org/2000/svg">
<path d="M31.6579 16.1972V15.875H31.7895V15.8083H31.4563V15.875H31.5879V16.1972H31.6579ZM32.3047 16.1972V15.8083H32.2039L32.0863 16.075L31.9687 15.8083H31.8679V16.1972H31.9407V15.9056L32.0499 16.1583H32.1255L32.2347 15.9056V16.2H32.3047V16.1972ZM49.9621 13.3694V9.19444C49.9621 7.62222 48.9513 6.56389 47.3244 6.55C46.4676 6.53611 45.5856 6.8 44.9696 7.73333C44.5075 6.99722 43.7767 6.55 42.7547 6.55C42.0407 6.55 41.3378 6.75833 40.7918 7.53889V6.71667H39.333V13.3667H40.8058V9.68056C40.8058 8.525 41.4498 7.91389 42.4467 7.91389C43.4155 7.91389 43.9055 8.53889 43.9055 9.66667V13.3667H45.3784V9.68056C45.3784 8.525 46.0504 7.91389 47.0192 7.91389C48.0161 7.91389 48.4921 8.53889 48.4921 9.66667V13.3667H49.9621V13.3694ZM71.7553 6.71667H69.3724V4.7H67.8996V6.71667H66.5387V8.03889H67.8996V11.0722C67.8996 12.6167 68.5016 13.5361 70.2264 13.5361C70.8565 13.5361 71.5873 13.3417 72.0493 13.0222L71.6293 11.7833C71.1953 12.0333 70.7165 12.1583 70.3384 12.1583C69.6104 12.1583 69.3696 11.7139 69.3696 11.0444V8.03889H71.7525V6.71667H71.7553ZM84.1961 6.55C83.3533 6.55 82.8073 6.93889 82.4293 7.525V6.71667H80.9844V13.3667H82.4433V9.63889C82.4433 8.53889 82.9193 7.92778 83.8741 7.92778C84.1681 7.92778 84.4761 7.96944 84.7869 8.09444L85.235 6.73056C84.9129 6.60556 84.4901 6.55 84.1961 6.55ZM65.3879 7.24722C64.6879 6.78889 63.719 6.55278 62.6522 6.55278C60.9553 6.55278 59.8605 7.35833 59.8605 8.68056C59.8605 9.76667 60.6725 10.4333 62.1734 10.6417L62.8594 10.7389C63.6574 10.85 64.0382 11.0583 64.0382 11.4333C64.0382 11.9472 63.5062 12.2389 62.5094 12.2389C61.4985 12.2389 60.7705 11.9194 60.2805 11.5444L59.5945 12.6722C60.3925 13.2556 61.4033 13.5361 62.4982 13.5361C64.433 13.5361 65.5559 12.6306 65.5559 11.3667C65.5559 10.1972 64.671 9.58611 63.215 9.37778L62.529 9.28056C61.8989 9.19722 61.3921 9.07222 61.3921 8.62778C61.3921 8.14167 61.8681 7.85 62.669 7.85C63.5258 7.85 64.3518 8.16945 64.7579 8.41945L65.3879 7.24722ZM104.463 6.55C103.62 6.55 103.074 6.93889 102.696 7.525V6.71667H101.252V13.3667H102.71V9.63889C102.71 8.53889 103.186 7.92778 104.141 7.92778C104.435 7.92778 104.743 7.96944 105.054 8.09444L105.502 6.73056C105.177 6.60556 104.757 6.55 104.463 6.55ZM85.669 10.0444C85.669 12.0611 87.0858 13.5361 89.2447 13.5361C90.2555 13.5361 90.9276 13.3139 91.6556 12.7417L90.9556 11.5722C90.4095 11.9611 89.8327 12.1694 89.2027 12.1694C88.0379 12.1556 87.1838 11.3194 87.1838 10.0417C87.1838 8.76111 88.0407 7.92778 89.2027 7.91389C89.8327 7.91389 90.4095 8.12222 90.9556 8.51111L91.6556 7.34167C90.9276 6.77222 90.2527 6.54722 89.2447 6.54722C87.0858 6.55 85.669 8.025 85.669 10.0444ZM99.3279 10.0444V6.71667H97.869V7.525C97.407 6.92778 96.7042 6.55 95.7521 6.55C93.8733 6.55 92.4004 8.01111 92.4004 10.0417C92.4004 12.0722 93.8733 13.5333 95.7521 13.5333C96.707 13.5333 97.407 13.1583 97.869 12.5583V13.3639H99.3279V10.0444ZM93.9013 10.0444C93.9013 8.875 94.6713 7.91667 95.9341 7.91667C97.141 7.91667 97.953 8.83611 97.953 10.0444C97.953 11.2528 97.141 12.1722 95.9341 12.1722C94.6741 12.1722 93.9013 11.2111 93.9013 10.0444ZM76.2999 6.55C74.337 6.55 72.9621 7.96945 72.9621 10.0417C72.9621 12.1556 74.393 13.5333 76.3979 13.5333C77.4087 13.5333 78.3327 13.2833 79.1476 12.6L78.4335 11.5278C77.8735 11.9722 77.1567 12.2222 76.4846 12.2222C75.5438 12.2222 74.6898 11.7917 74.4798 10.5944H79.4584C79.4724 10.4139 79.4864 10.2333 79.4864 10.0389C79.4696 7.96944 78.1787 6.55 76.2999 6.55ZM76.2719 7.84444C77.2127 7.84444 77.8147 8.42778 77.9687 9.45833H74.491C74.645 8.5 75.2358 7.84444 76.2719 7.84444ZM112.864 10.0444V4.04722H111.405V7.525C110.943 6.92778 110.24 6.55 109.288 6.55C107.409 6.55 105.936 8.01111 105.936 10.0417C105.936 12.0722 107.409 13.5333 109.288 13.5333C110.243 13.5333 110.943 13.1583 111.405 12.5583V13.3639H112.864V10.0444ZM114.569 12.7556C114.628 12.7556 114.684 12.7667 114.737 12.7889C114.79 12.8111 114.835 12.8417 114.874 12.8806C114.913 12.9194 114.944 12.9639 114.966 13.0139C114.989 13.0639 115 13.1194 115 13.1778C115 13.2361 114.989 13.2889 114.966 13.3417C114.944 13.3917 114.913 13.4361 114.874 13.475C114.835 13.5139 114.79 13.5444 114.737 13.5667C114.684 13.5889 114.628 13.6 114.569 13.6C114.507 13.6 114.451 13.5889 114.398 13.5667C114.345 13.5444 114.3 13.5139 114.261 13.475C114.222 13.4361 114.191 13.3917 114.168 13.3417C114.146 13.2917 114.135 13.2361 114.135 13.1778C114.135 13.1194 114.146 13.0639 114.168 13.0139C114.191 12.9611 114.222 12.9167 114.261 12.8806C114.3 12.8417 114.345 12.8111 114.398 12.7889C114.451 12.7667 114.507 12.7556 114.569 12.7556ZM114.569 13.5056C114.614 13.5056 114.658 13.4972 114.698 13.4806C114.737 13.4639 114.773 13.4389 114.801 13.4111C114.832 13.3806 114.854 13.3472 114.871 13.3056C114.888 13.2667 114.896 13.2222 114.896 13.1778C114.896 13.1333 114.888 13.0889 114.871 13.05C114.854 13.0111 114.832 12.975 114.801 12.9444C114.77 12.9139 114.737 12.8917 114.698 12.875C114.658 12.8583 114.616 12.85 114.569 12.85C114.521 12.85 114.479 12.8583 114.437 12.875C114.398 12.8917 114.362 12.9139 114.331 12.9444C114.3 12.975 114.278 13.0083 114.261 13.05C114.244 13.0889 114.236 13.1333 114.236 13.1778C114.236 13.2222 114.244 13.2667 114.261 13.3056C114.278 13.3444 114.3 13.3806 114.331 13.4111C114.362 13.4417 114.395 13.4639 114.437 13.4806C114.476 13.4972 114.521 13.5056 114.569 13.5056ZM114.594 12.9806C114.644 12.9806 114.684 12.9917 114.712 13.0139C114.74 13.0361 114.754 13.0667 114.754 13.1056C114.754 13.1389 114.742 13.1639 114.72 13.1861C114.698 13.2083 114.667 13.2194 114.628 13.225L114.756 13.3722H114.656L114.535 13.225H114.496V13.3722H114.412V12.9806H114.594ZM114.496 13.0528V13.1583H114.594C114.616 13.1583 114.633 13.1528 114.647 13.1444C114.661 13.1361 114.667 13.1222 114.667 13.1056C114.667 13.0889 114.661 13.075 114.647 13.0667C114.633 13.0583 114.616 13.0528 114.594 13.0528H114.496ZM107.437 10.0444C107.437 8.875 108.207 7.91667 109.47 7.91667C110.677 7.91667 111.489 8.83611 111.489 10.0444C111.489 11.2528 110.677 12.1722 109.47 12.1722C108.207 12.1722 107.437 11.2111 107.437 10.0444ZM58.1804 10.0444V6.71667H56.7216V7.525C56.2596 6.92778 55.5567 6.55 54.6047 6.55C52.7258 6.55 51.253 8.01111 51.253 10.0417C51.253 12.0722 52.7258 13.5333 54.6047 13.5333C55.5595 13.5333 56.2596 13.1583 56.7216 12.5583V13.3639H58.1804V10.0444ZM52.7538 10.0444C52.7538 8.875 53.5239 7.91667 54.7867 7.91667C55.9935 7.91667 56.8056 8.83611 56.8056 10.0444C56.8056 11.2528 55.9935 12.1722 54.7867 12.1722C53.5239 12.1722 52.7538 11.2111 52.7538 10.0444ZM15.4173 18.1278C15.4957 18.1944 15.5797 18.2611 15.6609 18.3278C14.0621 19.3833 12.144 20 10.0803 20C4.51376 20 0 15.5222 0 10C0 4.47778 4.51376 0 10.0803 0C12.144 0 14.0621 0.616667 15.6609 1.67222C15.5797 1.73889 15.4957 1.80278 15.4173 1.87222C13.0429 3.92222 11.6792 6.88333 11.6792 10C11.6792 13.1167 13.0429 16.0778 15.4173 18.1278ZM22.5408 0C20.4771 0 18.559 0.616667 16.9602 1.67222C17.0414 1.73889 17.1254 1.80278 17.2038 1.87222C19.5783 3.92222 20.9391 6.88333 20.9391 10C20.9391 13.1167 19.5783 16.0778 17.2038 18.1278C17.1254 18.1944 17.0414 18.2611 16.9602 18.3278C18.559 19.3833 20.4771 20 22.5408 20C28.1074 20 32.6211 15.5222 32.6211 10C32.6211 4.47778 28.1074 0 22.5408 0ZM16.3106 2.14167C16.1818 2.24444 16.053 2.34722 15.9298 2.45556C13.8045 4.28889 12.4604 6.98889 12.4604 10C12.4604 13.0111 13.8045 15.7111 15.9298 17.5444C16.053 17.6528 16.1818 17.7556 16.3106 17.8583C16.4394 17.7556 16.5682 17.6528 16.6914 17.5444C18.8167 15.7111 20.1607 13.0111 20.1607 10C20.1607 6.98889 18.8167 4.28889 16.6914 2.45556C16.5682 2.34722 16.4394 2.24444 16.3106 2.14167Z" fill="white"/>
</svg>
