<svg width="59" height="27" viewBox="0 0 59 27" fill="none" xmlns="http://www.w3.org/2000/svg">
<g clip-path="url(#clip0)">
<path fill-rule="evenodd" clip-rule="evenodd" d="M2.85346 4.32772H21.8733C23.1379 4.32772 24.1727 5.40475 24.1727 6.72111V20.575C24.1727 21.8913 23.1379 22.9684 21.8733 22.9684H2.29942C1.03474 22.9684 0 21.8913 0 20.575V3.46217C0 2.83906 0.493583 2.40887 1.08727 2.33047L18.6263 0C19.224 0 19.7136 0.509629 19.7136 1.13171V3.06809H1.75727C1.75727 3.88102 1.99019 4.32772 2.85346 4.32772ZM13.52 19.5083C15.0107 19.208 16.2159 17.7019 15.9711 16.0822C15.6648 14.0715 13.7945 13.1008 12.1096 12.5695C10.8836 12.1826 9.13029 11.3202 10.3018 9.71802C11.1254 8.5956 13.2841 8.44704 14.1979 9.53748C14.6866 10.1214 15.5023 9.26823 15.0146 8.68948C13.8838 7.33906 11.508 7.30296 10.1323 8.24484C8.81214 9.14855 8.27891 11.185 9.40285 12.4807C10.7924 14.086 13.4952 13.5134 14.5914 15.5561C15.3833 17.0313 14.1414 18.3528 12.7469 18.3838C11.6527 18.4106 10.3117 18.0165 9.55945 17.1726C9.05199 16.6032 8.23629 17.4563 8.74276 18.0206C9.86373 19.272 11.9203 19.827 13.52 19.5083Z" fill="white"/>
<path d="M46.2789 3.47679C45.5989 3.47679 44.9874 3.77699 44.5682 4.25361V3.70168C44.5682 3.20237 43.7971 3.20031 43.7971 3.70168V10.2381C43.7971 10.7395 44.5682 10.7405 44.5682 10.2381V7.32686C44.9894 7.80347 45.5989 8.10161 46.2789 8.10161C47.5416 8.10161 48.5674 7.06482 48.5674 5.78869C48.5674 4.51461 47.5406 3.47679 46.2789 3.47679ZM46.2789 7.26702C45.4711 7.26702 44.816 6.60368 44.816 5.78972C44.816 5.05622 45.3472 4.44549 46.044 4.33201C46.0469 4.33201 46.0519 4.33098 46.0559 4.33098C46.1282 4.31963 46.2025 4.31345 46.2779 4.31345C46.8745 4.31345 47.3889 4.67555 47.6159 5.19549C47.6159 5.19653 47.6179 5.19962 47.6179 5.20168C47.6962 5.38222 47.7398 5.58133 47.7398 5.78972C47.7398 6.60368 47.0846 7.26702 46.2789 7.26702ZM40.5937 8.10265C39.331 8.10265 38.3032 7.06482 38.3032 5.78972C38.3032 4.51461 39.331 3.47679 40.5937 3.47679C41.8564 3.47679 42.8842 4.51461 42.8842 5.78972C42.8842 7.06482 41.8574 8.10265 40.5937 8.10265ZM40.5937 4.31345C39.787 4.31345 39.1308 4.97576 39.1308 5.78972C39.1308 6.60368 39.787 7.26702 40.5937 7.26702C41.4005 7.26702 42.0566 6.60471 42.0566 5.78972C42.0566 4.97576 41.4005 4.31345 40.5937 4.31345ZM58.999 5.74433C58.9802 4.68174 58.441 3.72129 57.325 3.50774C56.3626 3.32411 55.2397 3.8358 54.8293 4.74467C54.4041 5.68965 54.5825 6.98538 55.421 7.64357C56.3289 8.35437 57.7452 8.13566 58.6759 7.60952C59.109 7.36503 58.7205 6.6924 58.2864 6.9369C57.6957 7.27115 56.9256 7.43518 56.2645 7.21234C55.7699 7.04625 55.4924 6.61503 55.4092 6.13222H58.6135C58.8186 6.13325 59.002 5.95478 58.999 5.74433ZM55.4369 5.3554C55.4429 5.32548 55.4508 5.29763 55.4587 5.26977C55.6441 4.63635 56.2744 4.26908 56.9127 4.25155C57.6461 4.23091 58.0575 4.74157 58.1853 5.3554H55.4369ZM53.8699 5.75052C53.8511 4.68793 53.3119 3.72748 52.1959 3.51393C51.2345 3.3303 50.1106 3.84199 49.7002 4.75086C49.275 5.69584 49.4534 6.99157 50.2919 7.65079C51.1998 8.36159 52.6161 8.14288 53.5468 7.61675C53.9799 7.37225 53.5914 6.70065 53.1573 6.94412C52.5666 7.27837 51.7965 7.4424 51.1354 7.21957C50.6408 7.05347 50.3633 6.62225 50.2801 6.13944H53.4844C53.6895 6.13944 53.8729 5.96097 53.8699 5.75052ZM50.3078 5.36159C50.3137 5.33167 50.3217 5.30382 50.3296 5.27596C50.5149 4.64254 51.1453 4.27527 51.7826 4.25774C52.516 4.23814 52.9274 4.74776 53.0552 5.36159H50.3078ZM37.4003 5.00155V7.7034C37.4003 8.21303 36.6302 8.21303 36.6302 7.7034V5.05416C36.6044 4.53009 36.1743 4.28972 36.1604 4.28353C35.6113 4.03593 34.6162 4.14942 34.0225 4.93243V7.7034C34.0225 8.21303 33.2524 8.21303 33.2524 7.7034V0.762552C33.2524 0.252923 34.0225 0.254986 34.0225 0.762552V3.88016C34.9671 3.22404 36.1693 3.29728 36.7343 3.69962C36.7333 3.69962 37.4122 4.08545 37.4003 5.00155ZM31.9877 1.08236C31.2315 0.215784 29.6467 0.192057 28.7269 0.797627C27.8468 1.37741 27.49 2.68552 28.2393 3.51702C29.168 4.54763 30.9728 4.18036 31.7043 5.49054C32.2335 6.43759 31.404 7.28559 30.4733 7.30622C29.7428 7.32273 28.8469 7.06895 28.3444 6.52734C28.0064 6.16317 27.4622 6.70891 27.7992 7.07307C28.5456 7.87672 29.9202 8.23366 30.9867 8.02734C31.9828 7.83442 32.7876 6.86675 32.6231 5.82789C32.4199 4.53731 31.1711 3.9142 30.0451 3.57376C29.2255 3.32617 28.0549 2.77115 28.8389 1.74364C29.389 1.02252 30.8301 0.926582 31.4406 1.62809C31.7687 2.00155 32.3118 1.45478 31.9877 1.08236Z" fill="white"/>
<path fill-rule="evenodd" clip-rule="evenodd" d="M52.0809 27.0001H49.6338L52.2534 21.8481L47.9539 13.3928H50.6091L53.5815 19.2381L56.5529 13.3928H59L52.0809 27.0001ZM27.6932 22.9685H29.7458V19.0668L32.5111 19.0679C35.3794 19.0679 37.7056 16.9737 37.7056 14.3894C37.7056 11.8062 35.3794 9.71094 32.5111 9.71094H27.6932V22.9685ZM29.7458 16.9293V11.8464H32.5111C34.0701 11.8464 35.3328 12.9843 35.3328 14.3884C35.3328 15.7914 34.0691 16.9303 32.5111 16.9303H29.7458V16.9293ZM45.3878 13.4743H47.1897V22.886H45.3878V21.8285C44.585 22.5393 43.5453 22.9685 42.4085 22.9685C39.8682 22.9685 37.8087 20.8248 37.8087 18.1807C37.8087 15.5366 39.8682 13.3928 42.4085 13.3928C43.5453 13.3928 44.585 13.822 45.3878 14.5328V13.4743ZM42.4085 15.4097C40.9386 15.4097 39.7463 16.6497 39.7463 18.1796C39.7463 19.7096 40.9377 20.9506 42.4085 20.9506C43.8783 20.9506 45.0697 19.7106 45.0697 18.1796C45.0707 16.6497 43.8783 15.4097 42.4085 15.4097Z" fill="white"/>
</g>
<defs>
<clipPath id="clip0">
<rect width="59" height="27" fill="white"/>
</clipPath>
</defs>
</svg>
