<svg width="18" height="18" viewBox="0 0 18 18" fill="none" xmlns="http://www.w3.org/2000/svg">
<path d="M0.0439453 18L1.3092 13.3778C0.528445 12.0247 0.118195 10.491 0.118945 8.91825C0.121195 4.00125 4.12245 0 9.0387 0C11.4245 0.00075 13.664 0.93 15.3485 2.616C17.0322 4.302 17.9592 6.543 17.9585 8.9265C17.9562 13.8443 13.955 17.8455 9.0387 17.8455C7.5462 17.8447 6.07545 17.4705 4.7727 16.7595L0.0439453 18ZM4.9917 15.1447C6.2487 15.891 7.4487 16.338 9.0357 16.3387C13.1217 16.3387 16.4502 13.0132 16.4525 8.925C16.454 4.8285 13.1412 1.5075 9.0417 1.506C4.9527 1.506 1.62645 4.8315 1.62495 8.919C1.6242 10.5878 2.1132 11.8372 2.93445 13.1445L2.1852 15.8805L4.9917 15.1447ZM13.532 11.0468C13.4765 10.9537 13.328 10.8983 13.1045 10.7865C12.8817 10.6748 11.786 10.1355 11.5812 10.0612C11.3772 9.987 11.2287 9.9495 11.0795 10.173C10.931 10.3958 10.5035 10.8982 10.3737 11.0468C10.2439 11.1952 10.1135 11.214 9.8907 11.1023C9.66795 10.9905 8.94945 10.7558 8.0982 9.996C7.43595 9.405 6.9882 8.67525 6.85845 8.45175C6.7287 8.229 6.84495 8.10825 6.95595 7.99725C7.05645 7.8975 7.1787 7.737 7.29045 7.6065C7.4037 7.4775 7.44045 7.3845 7.51545 7.23525C7.5897 7.08675 7.55295 6.95625 7.4967 6.8445C7.44045 6.7335 6.99495 5.63625 6.8097 5.19C6.6282 4.75575 6.44445 4.81425 6.30795 4.8075L5.88045 4.8C5.73195 4.8 5.49045 4.8555 5.28645 5.079C5.08245 5.3025 4.50645 5.841 4.50645 6.93825C4.50645 8.0355 5.3052 9.09525 5.4162 9.24375C5.52795 9.39225 6.98745 11.6437 9.2232 12.609C9.75495 12.8385 10.1705 12.9757 10.4937 13.0785C11.0277 13.248 11.5137 13.224 11.8977 13.167C12.326 13.1032 13.2162 12.6278 13.4022 12.1073C13.5882 11.586 13.5882 11.1397 13.532 11.0468Z" fill="white"/>
</svg>
