<svg width="54" height="54" viewBox="0 0 54 54" fill="none" xmlns="http://www.w3.org/2000/svg">
<path fill-rule="evenodd" clip-rule="evenodd" d="M27 52C40.8071 52 52 40.8071 52 27C52 13.1929 40.8071 2 27 2C13.1929 2 2 13.1929 2 27C2 40.8071 13.1929 52 27 52Z" fill="white" stroke="#B2DCFC" stroke-width="2.5"/>
<path fill-rule="evenodd" clip-rule="evenodd" d="M36.8262 17.001H16.6539C14.8654 17.001 13.4287 18.3875 13.4287 20.1136V22.4906V34.1488C13.4287 35.8749 14.8654 37.2615 16.6539 37.2615H36.8262C38.6148 37.2615 40.0515 35.8749 40.0515 34.1488V22.4906V20.1136C40.0515 18.4158 38.6148 17.001 36.8262 17.001ZM38.8784 34.1487C38.8784 35.2522 37.9695 36.1294 36.826 36.1294H16.6537C15.5102 36.1294 14.6013 35.2522 14.6013 34.1487V22.4904H38.8784V34.1487ZM14.6013 21.3571H38.8784V20.112C38.8784 19.0084 37.9695 18.1312 36.826 18.1312H16.6537C15.5102 18.1312 14.6013 19.0084 14.6013 20.112V21.3571Z" fill="#008DF5"/>
<path d="M14.6013 22.4904V22.2904H14.4013V22.4904H14.6013ZM38.8784 22.4904H39.0784V22.2904H38.8784V22.4904ZM38.8784 21.3571V21.5571H39.0784V21.3571H38.8784ZM14.6013 21.3571H14.4013V21.5571H14.6013V21.3571ZM16.6539 17.201H36.8262V16.801H16.6539V17.201ZM13.6287 20.1136C13.6287 18.5046 14.9691 17.201 16.6539 17.201V16.801C14.7617 16.801 13.2287 18.2704 13.2287 20.1136H13.6287ZM13.6287 22.4906V20.1136H13.2287V22.4906H13.6287ZM13.6287 34.1488V22.4906H13.2287V34.1488H13.6287ZM16.6539 37.0615C14.9691 37.0615 13.6287 35.7578 13.6287 34.1488H13.2287C13.2287 35.992 14.7617 37.4615 16.6539 37.4615V37.0615ZM36.8262 37.0615H16.6539V37.4615H36.8262V37.0615ZM39.8515 34.1488C39.8515 35.7578 38.5111 37.0615 36.8262 37.0615V37.4615C38.7185 37.4615 40.2515 35.992 40.2515 34.1488H39.8515ZM39.8515 22.4906V34.1488H40.2515V22.4906H39.8515ZM39.8515 20.1136V22.4906H40.2515V20.1136H39.8515ZM36.8262 17.201C38.5099 17.201 39.8515 18.5317 39.8515 20.1136H40.2515C40.2515 18.2999 38.7197 16.801 36.8262 16.801V17.201ZM36.826 36.3294C38.0732 36.3294 39.0784 35.3693 39.0784 34.1487H38.6784C38.6784 35.1351 37.8658 35.9294 36.826 35.9294V36.3294ZM16.6537 36.3294H36.826V35.9294H16.6537V36.3294ZM14.4013 34.1487C14.4013 35.3693 15.4065 36.3294 16.6537 36.3294V35.9294C15.6139 35.9294 14.8013 35.1351 14.8013 34.1487H14.4013ZM14.4013 22.4904V34.1487H14.8013V22.4904H14.4013ZM38.8784 22.2904H14.6013V22.6904H38.8784V22.2904ZM39.0784 34.1487V22.4904H38.6784V34.1487H39.0784ZM38.8784 21.1571H14.6013V21.5571H38.8784V21.1571ZM38.6784 20.112V21.3571H39.0784V20.112H38.6784ZM36.826 18.3312C37.8658 18.3312 38.6784 19.1255 38.6784 20.112H39.0784C39.0784 18.8913 38.0732 17.9312 36.826 17.9312V18.3312ZM16.6537 18.3312H36.826V17.9312H16.6537V18.3312ZM14.8013 20.112C14.8013 19.1255 15.6139 18.3312 16.6537 18.3312V17.9312C15.4065 17.9312 14.4013 18.8913 14.4013 20.112H14.8013ZM14.8013 21.3571V20.112H14.4013V21.3571H14.8013Z" fill="#008DF5"/>
<path fill-rule="evenodd" clip-rule="evenodd" d="M31.6428 33.2632C31.7515 33.3764 31.8873 33.433 32.0232 33.433C32.1591 33.433 32.295 33.3764 32.4036 33.2632L35.8819 29.6412C36.0993 29.4148 36.0993 29.0753 35.8819 28.8489L32.4036 25.1986C32.1863 24.9722 31.8602 24.9722 31.6428 25.1986C31.4254 25.425 31.4254 25.7645 31.6428 25.9909L34.7406 29.2167L31.6428 32.4426C31.4254 32.6689 31.4254 33.0368 31.6428 33.2632Z" fill="#008DF5" stroke="#008DF5" stroke-width="0.4"/>
<path fill-rule="evenodd" clip-rule="evenodd" d="M21.4172 33.2349C21.5259 33.3481 21.6617 33.4047 21.7976 33.4047C21.9335 33.4047 22.0694 33.3481 22.1781 33.2349C22.3954 33.0085 22.3954 32.6689 22.1781 32.4426L19.0802 29.1884L22.1781 25.9909C22.3954 25.7645 22.3954 25.425 22.1781 25.1986C21.9607 24.9722 21.6346 24.9722 21.4172 25.1986L17.9389 28.7923C17.7215 29.0187 17.7215 29.3582 17.9389 29.5846L21.4172 33.2349Z" fill="#008DF5" stroke="#008DF5" stroke-width="0.4"/>
<path fill-rule="evenodd" clip-rule="evenodd" d="M24.6309 33.3587C24.7124 33.4153 24.794 33.4153 24.8755 33.4153C25.0657 33.4153 25.2559 33.3021 25.3646 33.104L29.1146 25.86C29.2505 25.5771 29.169 25.2375 28.8972 25.096C28.6255 24.9545 28.2994 25.0394 28.1635 25.3224L24.4135 32.5947C24.2505 32.8776 24.3592 33.2172 24.6309 33.3587Z" fill="#008DF5" stroke="#008DF5" stroke-width="0.4"/>
</svg>
