<svg width="54" height="54" viewBox="0 0 54 54" fill="none" xmlns="http://www.w3.org/2000/svg">
<path fill-rule="evenodd" clip-rule="evenodd" d="M27 52C40.8071 52 52 40.8071 52 27C52 13.1929 40.8071 2 27 2C13.1929 2 2 13.1929 2 27C2 40.8071 13.1929 52 27 52Z" fill="white" stroke="#B2DCFC" stroke-width="2.5"/>
<path fill-rule="evenodd" clip-rule="evenodd" d="M39.3839 32.8494C39.1292 31.9262 38.5258 31.1414 37.7041 30.6646L37.6062 30.5916C37.734 29.9284 37.7996 29.2545 37.802 28.5789C37.8045 23.9362 34.9136 19.7967 30.5882 18.2491C30.5908 18.2162 30.5908 18.183 30.5882 18.1501C30.5882 16.1342 28.9734 14.5 26.9813 14.5C24.9893 14.5 23.3744 16.1342 23.3744 18.1501C23.3719 18.183 23.3719 18.2162 23.3744 18.2491C19.0471 19.7949 16.1538 23.9349 16.1555 28.5789C16.1542 29.2559 16.2163 29.9316 16.341 30.5968L16.2534 30.6646C15.019 31.413 14.3422 32.8322 14.5314 34.2758C14.7207 35.7193 15.7397 36.911 17.1242 37.3078C17.4279 37.394 17.7414 37.4396 18.0568 37.4433C18.6896 37.4331 19.3084 37.2532 19.85 36.9219L19.9376 36.8645C23.9895 40.3785 29.968 40.3785 34.02 36.8645L34.1075 36.9219C34.6527 37.2409 35.2709 37.4099 35.9007 37.412C36.2173 37.4118 36.5326 37.3697 36.8385 37.2869C38.7445 36.7625 39.8792 34.7844 39.3839 32.8494ZM26.9812 15.5418C28.3237 15.537 29.4448 16.5763 29.5576 17.93V18.1386C29.5583 18.4206 29.5131 18.7007 29.4236 18.9677C29.0622 20.014 28.0867 20.7147 26.9915 20.7147C25.8963 20.7147 24.9208 20.014 24.5594 18.9677C24.4676 18.7046 24.4188 18.4281 24.4152 18.149V17.9405C24.5225 16.5866 25.639 15.5429 26.9812 15.5418ZM19.1595 36.1341L19.3347 36.0402C19.5755 35.8981 19.7914 35.7166 19.9737 35.5031C20.6861 34.6631 20.7967 33.4594 20.2495 32.5008C19.7023 31.5423 18.6166 31.038 17.5416 31.243C17.2658 31.2967 17.001 31.3972 16.7584 31.5402L16.5832 31.6549C15.5279 32.4457 15.2293 33.9132 15.8898 35.0617C16.5504 36.2101 17.9588 36.672 19.1595 36.1341ZM26.9814 38.4865C24.7009 38.4862 22.4922 37.6803 20.7363 36.2079C21.1129 35.7876 21.3834 35.2813 21.5246 34.7322C21.777 33.8017 21.6488 32.8076 21.1691 31.9738C20.5226 30.8363 19.3226 30.1375 18.0259 30.1435C17.7834 30.1435 17.5416 30.1697 17.3045 30.2217C17.2189 29.6786 17.1793 29.1291 17.186 28.5792C17.1838 24.4369 19.7283 20.7304 23.5651 19.2871C24.0611 20.7691 25.4353 21.7662 26.9814 21.7662C28.5275 21.7662 29.9016 20.7691 30.3976 19.2871C34.2324 20.7321 36.7746 24.4382 36.7715 28.5792C36.7724 29.1332 36.7258 29.6863 36.6324 30.2322C35.1199 29.9328 33.5865 30.639 32.816 31.9898C32.0456 33.3406 32.2085 35.0375 33.2213 36.2131C31.4682 37.6863 29.2601 38.4909 26.9814 38.4865ZM36.5756 36.3028C37.2278 36.1206 37.7831 35.6861 38.1214 35.093C38.4748 34.4999 38.5804 33.7889 38.4151 33.1168C38.2584 32.5181 37.8922 31.9974 37.3845 31.6515L37.2093 31.5368C36.9671 31.393 36.7021 31.2925 36.4261 31.2396C36.2568 31.2027 36.084 31.1852 35.9108 31.1875C35.6814 31.1954 35.4542 31.2358 35.2358 31.3074C34.5836 31.4896 34.0283 31.9241 33.69 32.5171C33.1457 33.4786 33.2615 34.6832 33.9786 35.5206C34.1651 35.7295 34.3844 35.9057 34.6278 36.0421L34.8082 36.1359C35.3584 36.4043 35.9857 36.4636 36.5756 36.3028Z" fill="#008DF5"/>
<path d="M37.7041 30.6646L37.4053 31.0655L37.4283 31.0826L37.4532 31.0971L37.7041 30.6646ZM39.3839 32.8494L39.8684 32.7254L39.8659 32.7165L39.3839 32.8494ZM37.6062 30.5916L37.1153 30.497L37.0559 30.805L37.3074 30.9925L37.6062 30.5916ZM37.802 28.5789L38.302 28.5807V28.5791L37.802 28.5789ZM30.5882 18.2491L30.0897 18.2104L30.0601 18.5912L30.4198 18.7199L30.5882 18.2491ZM30.5882 18.1501H30.0882V18.1695L30.0897 18.1889L30.5882 18.1501ZM23.3744 18.1501L23.8729 18.1886L23.8744 18.1693V18.1501H23.3744ZM23.3744 18.2491L23.5426 18.72L23.9023 18.5915L23.8729 18.2107L23.3744 18.2491ZM16.1555 28.5789L16.6555 28.5798L16.6555 28.5787L16.1555 28.5789ZM16.341 30.5968L16.647 30.9923L16.8887 30.8052L16.8324 30.5047L16.341 30.5968ZM16.2534 30.6646L16.5126 31.0922L16.5369 31.0774L16.5594 31.06L16.2534 30.6646ZM14.5314 34.2758L14.0357 34.3408L14.5314 34.2758ZM17.1242 37.3078L16.9864 37.7884L16.9876 37.7887L17.1242 37.3078ZM18.0568 37.4433L18.0509 37.9435L18.0649 37.9433L18.0568 37.4433ZM19.85 36.9219L20.1109 37.3484L20.1174 37.3444L20.1239 37.3402L19.85 36.9219ZM19.9376 36.8645L20.2651 36.4868L19.9797 36.2393L19.6637 36.4462L19.9376 36.8645ZM34.02 36.8645L34.2939 36.4462L33.9778 36.2393L33.6924 36.4868L34.02 36.8645ZM34.1075 36.9219L33.8336 37.3402L33.8442 37.3471L33.855 37.3534L34.1075 36.9219ZM35.9007 37.412L35.899 37.912L35.9011 37.912L35.9007 37.412ZM36.8385 37.2869L36.9692 37.7695L36.9711 37.769L36.8385 37.2869ZM29.5576 17.93H30.0576V17.9093L30.0559 17.8885L29.5576 17.93ZM26.9812 15.5418L26.9816 16.0419L26.983 16.0418L26.9812 15.5418ZM29.5576 18.1386H29.0576L29.0576 18.14L29.5576 18.1386ZM29.4236 18.9677L29.8962 19.1309L29.8977 19.1266L29.4236 18.9677ZM24.5594 18.9677L25.032 18.8045L25.0315 18.8029L24.5594 18.9677ZM24.4152 18.149H23.9151L23.9152 18.1556L24.4152 18.149ZM24.4152 17.9405L23.9167 17.9009L23.9152 17.9207V17.9405H24.4152ZM19.3347 36.0402L19.5708 36.4809L19.5799 36.4761L19.5888 36.4708L19.3347 36.0402ZM19.1595 36.1341L19.364 36.5903L19.3801 36.5831L19.3957 36.5748L19.1595 36.1341ZM19.9737 35.5031L20.354 35.8277L20.355 35.8265L19.9737 35.5031ZM20.2495 32.5008L20.6837 32.2529V32.2529L20.2495 32.5008ZM17.5416 31.243L17.4479 30.7518L17.4459 30.7522L17.5416 31.243ZM16.7584 31.5402L16.5045 31.1094L16.4943 31.1154L16.4845 31.1219L16.7584 31.5402ZM16.5832 31.6549L16.3093 31.2366L16.296 31.2453L16.2833 31.2548L16.5832 31.6549ZM15.8898 35.0617L16.3233 34.8124L15.8898 35.0617ZM20.7363 36.2079L20.3639 35.8742L20.0191 36.259L20.415 36.591L20.7363 36.2079ZM26.9814 38.4865L26.9823 37.9865H26.9814L26.9814 38.4865ZM21.5246 34.7322L21.042 34.6013L21.0404 34.6076L21.5246 34.7322ZM21.1691 31.9738L20.7344 32.2208L20.7357 32.2231L21.1691 31.9738ZM18.0259 30.1435L18.0259 30.6435L18.0282 30.6435L18.0259 30.1435ZM17.3045 30.2217L16.8106 30.2996L16.8933 30.8239L17.4118 30.7101L17.3045 30.2217ZM17.186 28.5792L17.686 28.5853L17.686 28.5789L17.186 28.5792ZM23.5651 19.2871L24.0393 19.1284L23.8746 18.6365L23.3891 18.8192L23.5651 19.2871ZM30.3976 19.2871L30.5739 18.8193L30.0882 18.6362L29.9235 19.1284L30.3976 19.2871ZM36.7715 28.5792L36.2715 28.5788L36.2715 28.58L36.7715 28.5792ZM36.6324 30.2322L36.5353 30.7226L37.0387 30.8223L37.1252 30.3165L36.6324 30.2322ZM32.816 31.9898L32.3817 31.7421V31.7421L32.816 31.9898ZM33.2213 36.2131L33.543 36.5958L33.9305 36.2702L33.6001 35.8867L33.2213 36.2131ZM38.1214 35.093L37.6918 34.8371L37.6871 34.8453L38.1214 35.093ZM36.5756 36.3028L36.7071 36.7852L36.7101 36.7843L36.5756 36.3028ZM38.4151 33.1168L38.9006 32.9973L38.8988 32.9902L38.4151 33.1168ZM37.3845 31.6515L37.6661 31.2383L37.6584 31.2332L37.3845 31.6515ZM37.2093 31.5368L37.4832 31.1185L37.474 31.1125L37.4646 31.1069L37.2093 31.5368ZM36.4261 31.2396L36.3195 31.7283L36.3321 31.7307L36.4261 31.2396ZM35.9108 31.1875L35.9043 30.6874L35.8935 30.6878L35.9108 31.1875ZM35.2358 31.3074L35.3703 31.789L35.3811 31.786L35.3916 31.7825L35.2358 31.3074ZM33.69 32.5171L33.2557 32.2694L33.2549 32.2708L33.69 32.5171ZM33.9786 35.5206L33.5987 35.8459L33.6056 35.8536L33.9786 35.5206ZM34.6278 36.0421L34.3834 36.4783L34.3902 36.482L34.397 36.4856L34.6278 36.0421ZM34.8082 36.1359L34.5773 36.5796L34.589 36.5853L34.8082 36.1359ZM37.4532 31.0971C38.1606 31.5076 38.6817 32.1843 38.9019 32.9824L39.8659 32.7165C39.5767 31.6682 38.8911 30.7753 37.9551 30.2322L37.4532 31.0971ZM37.3074 30.9925L37.4053 31.0655L38.003 30.2638L37.9051 30.1908L37.3074 30.9925ZM37.3021 28.5771C37.2997 29.2216 37.2372 29.8644 37.1153 30.497L38.0972 30.6862C38.2309 29.9925 38.2995 29.2875 38.302 28.5807L37.3021 28.5771ZM30.4198 18.7199C34.5433 20.1953 37.3043 24.1442 37.302 28.5786L38.302 28.5791C38.3046 23.7282 35.2838 19.3981 30.7567 17.7784L30.4198 18.7199ZM30.0897 18.1889C30.0903 18.196 30.0903 18.2032 30.0897 18.2104L31.0867 18.2879C31.0913 18.2291 31.0913 18.1701 31.0867 18.1113L30.0897 18.1889ZM26.9813 15C28.6916 15 30.0882 16.4047 30.0882 18.1501H31.0882C31.0882 15.8637 29.2551 14 26.9813 14V15ZM23.8744 18.1501C23.8744 16.4047 25.271 15 26.9813 15V14C24.7076 14 22.8744 15.8637 22.8744 18.1501H23.8744ZM23.8729 18.2107C23.8724 18.2033 23.8724 18.1959 23.8729 18.1886L22.8759 18.1116C22.8714 18.1702 22.8714 18.229 22.8759 18.2876L23.8729 18.2107ZM16.6555 28.5787C16.6539 24.143 19.4171 20.1937 23.5426 18.72L23.2062 17.7783C18.677 19.3962 15.6538 23.7267 15.6555 28.579L16.6555 28.5787ZM16.8324 30.5047C16.7135 29.8702 16.6542 29.2257 16.6555 28.5798L15.6555 28.5779C15.6541 29.2862 15.7191 29.993 15.8495 30.6889L16.8324 30.5047ZM16.5594 31.06L16.647 30.9923L16.035 30.2014L15.9474 30.2692L16.5594 31.06ZM15.0272 34.2108C14.8634 32.9616 15.4496 31.7366 16.5126 31.0922L15.9942 30.2371C14.5883 31.0893 13.821 32.7029 14.0357 34.3408L15.0272 34.2108ZM17.2619 36.8271C16.0716 36.486 15.1909 35.4597 15.0272 34.2108L14.0357 34.3408C14.2504 35.979 15.4077 37.336 16.9864 37.7884L17.2619 36.8271ZM18.0627 36.9434C17.7916 36.9402 17.522 36.901 17.2608 36.8268L16.9876 37.7887C17.3337 37.8871 17.6912 37.939 18.0509 37.9433L18.0627 36.9434ZM19.589 36.4954C19.1234 36.7802 18.5919 36.9347 18.0488 36.9434L18.0649 37.9433C18.7873 37.9316 19.4933 37.7262 20.1109 37.3484L19.589 36.4954ZM19.6637 36.4462L19.5761 36.5036L20.1239 37.3402L20.2115 37.2828L19.6637 36.4462ZM33.6924 36.4868C29.8284 39.8377 24.1291 39.8377 20.2651 36.4868L19.61 37.2423C23.8499 40.9192 30.1076 40.9192 34.3475 37.2423L33.6924 36.4868ZM34.3814 36.5036L34.2939 36.4462L33.746 37.2828L33.8336 37.3402L34.3814 36.5036ZM35.9024 36.912C35.3611 36.9102 34.8294 36.7649 34.3601 36.4903L33.855 37.3534C34.4761 37.7168 35.1808 37.9096 35.899 37.912L35.9024 36.912ZM36.7078 36.8043C36.4444 36.8756 36.1729 36.9118 35.9003 36.912L35.9011 37.912C36.2618 37.9118 36.6209 37.8638 36.9692 37.7695L36.7078 36.8043ZM38.8995 32.9734C39.3284 34.6488 38.3444 36.354 36.7059 36.8048L36.9711 37.769C39.1445 37.171 40.43 34.9199 39.8683 32.7255L38.8995 32.9734ZM30.0559 17.8885C29.9219 16.2799 28.5876 15.0361 26.9794 15.0419L26.983 16.0418C28.0598 16.038 28.9678 16.8727 29.0593 17.9715L30.0559 17.8885ZM30.0576 18.1386V17.93H29.0576V18.1386H30.0576ZM29.8977 19.1266C30.0045 18.8078 30.0585 18.4736 30.0576 18.1373L29.0576 18.14C29.0582 18.3675 29.0217 18.5935 28.9495 18.8089L29.8977 19.1266ZM26.9915 21.2147C28.3031 21.2147 29.4663 20.3758 29.8962 19.1309L28.951 18.8045C28.6582 19.6521 27.8704 20.2147 26.9915 20.2147V21.2147ZM24.0868 19.1309C24.5168 20.3758 25.68 21.2147 26.9915 21.2147V20.2147C26.1126 20.2147 25.3248 19.6521 25.032 18.8045L24.0868 19.1309ZM23.9152 18.1556C23.9196 18.4885 23.9777 18.8185 24.0874 19.1325L25.0315 18.8029C24.9574 18.5907 24.9181 18.3676 24.9151 18.1424L23.9152 18.1556ZM23.9152 17.9405V18.149H24.9152V17.9405H23.9152ZM26.9808 15.0418C25.373 15.0431 24.0443 16.2922 23.9167 17.9009L24.9136 17.98C25.0008 16.881 25.905 16.0427 26.9816 16.0418L26.9808 15.0418ZM19.0986 35.5995L18.9234 35.6933L19.3957 36.5748L19.5708 36.4809L19.0986 35.5995ZM19.5933 35.1785C19.4469 35.3501 19.2736 35.4957 19.0806 35.6096L19.5888 36.4708C19.8775 36.3005 20.136 36.0831 20.354 35.8277L19.5933 35.1785ZM19.8153 32.7487C20.2585 33.5252 20.1684 34.5005 19.5923 35.1797L20.355 35.8265C21.2038 34.8257 21.3349 33.3936 20.6837 32.2529L19.8153 32.7487ZM17.6352 31.7341C18.4979 31.5696 19.3727 31.9736 19.8153 32.7487L20.6837 32.2529C20.0318 31.111 18.7352 30.5063 17.4479 30.7518L17.6352 31.7341ZM17.0122 31.971C17.2061 31.8567 17.4174 31.7766 17.6372 31.7337L17.4459 30.7522C17.1143 30.8168 16.796 30.9376 16.5045 31.1094L17.0122 31.971ZM16.8571 32.0732L17.0323 31.9585L16.4845 31.1219L16.3093 31.2366L16.8571 32.0732ZM16.3233 34.8124C15.7878 33.8814 16.0315 32.6932 16.883 32.055L16.2833 31.2548C15.0243 32.1983 14.6707 33.945 15.4564 35.311L16.3233 34.8124ZM18.9551 35.6778C17.9912 36.1097 16.8573 35.7408 16.3233 34.8124L15.4564 35.311C16.2436 36.6795 17.9265 37.2344 19.364 36.5903L18.9551 35.6778ZM20.415 36.591C22.2604 38.1385 24.5828 38.9862 26.9813 38.9865L26.9814 37.9865C24.8191 37.9862 22.7239 37.2221 21.0575 35.8247L20.415 36.591ZM21.0404 34.6076C20.919 35.0794 20.6868 35.5139 20.3639 35.8742L21.1086 36.5415C21.539 36.0613 21.8478 35.4831 22.0089 34.8567L21.0404 34.6076ZM20.7357 32.2231C21.149 32.9415 21.2597 33.7988 21.0421 34.6013L22.0072 34.863C22.2942 33.8046 22.1486 32.6737 21.6025 31.7244L20.7357 32.2231ZM18.0282 30.6435C19.1422 30.6384 20.1762 31.2387 20.7344 32.2208L21.6038 31.7267C20.8691 30.4339 19.503 29.6367 18.0236 29.6435L18.0282 30.6435ZM17.4118 30.7101C17.6136 30.6658 17.8194 30.6435 18.0259 30.6435L18.026 29.6435C17.7474 29.6435 17.4696 29.6736 17.1973 29.7334L17.4118 30.7101ZM16.6861 28.5731C16.679 29.1511 16.7206 29.7287 16.8106 30.2996L17.7984 30.1439C17.7172 29.6286 17.6796 29.1072 17.686 28.5853L16.6861 28.5731ZM23.3891 18.8192C19.3545 20.3368 16.6836 24.2318 16.686 28.5795L17.686 28.5789C17.6839 24.642 20.1021 21.124 23.7411 19.7551L23.3891 18.8192ZM26.9814 21.2662C25.6534 21.2662 24.468 20.4095 24.0393 19.1284L23.091 19.4459C23.6542 21.1286 25.2171 22.2662 26.9814 22.2662V21.2662ZM29.9235 19.1284C29.4947 20.4095 28.3093 21.2662 26.9814 21.2662V22.2662C28.7456 22.2662 30.3085 21.1286 30.8718 19.4459L29.9235 19.1284ZM37.2715 28.5796C37.2748 24.2333 34.6063 20.3387 30.5739 18.8193L30.2213 19.755C33.8585 21.1256 36.2745 24.6432 36.2715 28.5788L37.2715 28.5796ZM37.1252 30.3165C37.2235 29.7425 37.2724 29.161 37.2715 28.5784L36.2715 28.58C36.2723 29.1055 36.2282 29.6301 36.1396 30.1478L37.1252 30.3165ZM33.2504 32.2375C33.9155 31.0712 35.2362 30.4655 36.5353 30.7226L36.7295 29.7417C35.0036 29.4 33.2574 30.2067 32.3817 31.7421L33.2504 32.2375ZM33.6001 35.8867C32.7258 34.8719 32.5845 33.405 33.2504 32.2375L32.3817 31.7421C31.5068 33.2761 31.6911 35.2031 32.8425 36.5394L33.6001 35.8867ZM26.9804 38.9865C29.3778 38.9911 31.7001 38.1446 33.543 36.5958L32.8996 35.8303C31.2364 37.2281 29.1424 37.9906 26.9823 37.9865L26.9804 38.9865ZM37.6871 34.8453C37.4134 35.325 36.9653 35.6748 36.441 35.8212L36.7101 36.7843C37.4903 36.5664 38.1527 36.0471 38.5557 35.3408L37.6871 34.8453ZM37.9296 33.2363C38.0636 33.7811 37.9778 34.3572 37.6918 34.8371L38.5509 35.349C38.9718 34.6426 39.0973 33.7967 38.9006 32.9973L37.9296 33.2363ZM37.103 32.0647C37.51 32.3421 37.805 32.7606 37.9314 33.2434L38.8988 32.9902C38.7118 32.2757 38.2743 31.6528 37.6661 31.2383L37.103 32.0647ZM36.9354 31.9551L37.1106 32.0698L37.6584 31.2332L37.4832 31.1185L36.9354 31.9551ZM36.3321 31.7307C36.551 31.7726 36.7615 31.8524 36.9541 31.9668L37.4646 31.1069C37.1726 30.9336 36.8532 30.8123 36.5202 30.7485L36.3321 31.7307ZM35.9174 31.6874C36.0525 31.6856 36.1874 31.6993 36.3196 31.7281L36.5327 30.7511C36.3263 30.7061 36.1155 30.6847 35.9043 30.6875L35.9174 31.6874ZM35.3916 31.7825C35.5653 31.7255 35.7459 31.6935 35.9282 31.6872L35.8935 30.6878C35.617 30.6973 35.3431 30.746 35.08 30.8323L35.3916 31.7825ZM34.1243 32.7649C34.398 32.2852 34.8461 31.9354 35.3703 31.789L35.1013 30.8258C34.3211 31.0437 33.6587 31.563 33.2557 32.2694L34.1243 32.7649ZM34.3583 35.1954C33.7785 34.5183 33.6842 33.5423 34.1251 32.7634L33.2549 32.2708C32.6072 33.4149 32.7444 34.8481 33.5988 35.8458L34.3583 35.1954ZM34.8722 35.6059C34.6773 35.4967 34.5013 35.3554 34.3516 35.1876L33.6056 35.8536C33.8288 36.1036 34.0916 36.3148 34.3834 36.4783L34.8722 35.6059ZM35.039 35.6924L34.8587 35.5985L34.397 36.4856L34.5773 36.5794L35.039 35.6924ZM36.444 35.8204C35.9714 35.9492 35.4688 35.9019 35.0274 35.6865L34.589 36.5853C35.2481 36.9068 36 36.9779 36.7071 36.7852L36.444 35.8204Z" fill="#008DF5"/>
</svg>
