<?xml version="1.0" encoding="utf-8"?>
<!-- Generator: Adobe Illustrator 22.1.0, SVG Export Plug-In . SVG Version: 6.00 Build 0)  -->
<svg version="1.1" id="Layer_1" xmlns="http://www.w3.org/2000/svg" xmlns:xlink="http://www.w3.org/1999/xlink" x="0px" y="0px"
	 viewBox="0 0 686.7 178.4" style="enable-background:new 0 0 686.7 178.4;" xml:space="preserve">
<style type="text/css">
	.st0{fill:url(#SVGID_1_);}
	.st1{fill:url(#SVGID_2_);}
	.st2{fill:#4FC3CB;}
	.st3{fill:url(#SVGID_3_);}
	.st4{fill:url(#SVGID_4_);}
	.st5{opacity:0.3;}
	.st6{opacity:0.3;fill:#4FC3CB;}
	.st7{fill:url(#SVGID_5_);}
	.st8{fill:url(#SVGID_6_);}
	.st9{opacity:0.3;fill:url(#SVGID_7_);}
	.st10{opacity:0.3;fill:url(#SVGID_8_);}
	.st11{fill:url(#SVGID_9_);}
	.st12{fill:url(#SVGID_10_);}
	.st13{fill:url(#SVGID_11_);}
	.st14{fill:url(#SVGID_12_);}
	.st15{fill:url(#SVGID_13_);}
	.st16{opacity:0.3;fill:url(#SVGID_14_);}
	.st17{opacity:0.3;fill:url(#SVGID_15_);}
	.st18{fill:url(#SVGID_16_);}
	.st19{fill:url(#SVGID_17_);}
	.st20{fill:url(#SVGID_18_);}
	.st21{fill:url(#SVGID_19_);}
	.st22{fill:#51C3CA;}
	.st23{fill:url(#SVGID_20_);}
	.st24{fill:url(#SVGID_21_);}
	.st25{opacity:0.3;fill:#51C3CA;}
	.st26{fill:url(#SVGID_22_);}
	.st27{fill:url(#SVGID_23_);}
	.st28{opacity:0.3;fill:url(#SVGID_24_);}
	.st29{fill:#117BBF;}
</style>
<g id="logo_1_">
	<g>
		<linearGradient id="SVGID_1_" gradientUnits="userSpaceOnUse" x1="117.2721" y1="58.9953" x2="131.5618" y2="58.9953">
			<stop  offset="6.200000e-07" style="stop-color:#1EACBC"/>
			<stop  offset="0.9965" style="stop-color:#8FD5E1"/>
		</linearGradient>
		<path class="st0" d="M131.5,62.8c-0.2,2.8-1.9,4.7-4.5,4.7c-3.5,0-7.4-3.4-9-7.7l0,0c-0.1-0.3-0.2-0.5-0.3-0.8
			c-0.3-0.9-0.4-1.8-0.5-2.7c-0.2-3.4,1.6-5.8,4.5-5.8c3.1,0,6.5,2.7,8.4,6.3c0,0,0,0,0,0c0.4,0.7,0.6,1.4,0.9,2.1
			c0.3,0.9,0.4,1.7,0.5,2.5C131.6,61.9,131.6,62.4,131.5,62.8z"/>
		<linearGradient id="SVGID_2_" gradientUnits="userSpaceOnUse" x1="52.8663" y1="29.4956" x2="131.0761" y2="29.4956">
			<stop  offset="1.250000e-06" style="stop-color:#01B3CE"/>
			<stop  offset="0.9965" style="stop-color:#5CC5CA"/>
		</linearGradient>
		<path class="st1" d="M131.1,59c-2.1-10.1-7.2-17-13.6-21.9c-12.9-9.9-31.4-11.8-43.2-14.6c-0.6-0.2-1.3-0.3-1.9-0.5
			C56.4,16.9,52.9,0,52.9,0s0,0,0,0c4.6,4.4,14.4,6.2,27.9,9.5c6.7,1.6,14.3,3.6,22.7,6.5c10.8,3.8,17.5,12.3,21.5,20.7
			c0.5,1.1,1,2.1,1.4,3.2c0.8,2,1.5,4,2.1,5.8c0.6,2.1,1.1,4.2,1.5,5.9c0.2,0.7,0.3,1.4,0.4,2.1c0,0.1,0.1,0.3,0.1,0.4
			c0.2,0.8,0.3,1.6,0.4,2.3c0,0,0,0,0,0.1C131,58.1,131.1,59,131.1,59z"/>
		<g>
			<path class="st2" d="M80.6,10.9c6.8,1.6,14.5,3.7,23,6.6c11,3.8,17.7,12.4,21.8,21c0.5,1.1,1,2.2,1.4,3.2c0.8,2,1.5,4,2.1,5.9
				c0.2,0.8,0.4,1.5,0.6,2.2c-0.3-1.3-0.7-2.7-1.1-4.2c-0.6-1.9-1.2-3.8-2.1-5.8c-0.4-1.1-0.9-2.1-1.4-3.2c-4-8.5-10.7-17-21.5-20.7
				c-8.3-2.9-16-4.9-22.7-6.5C67.3,6.2,57.5,4.5,52.9,0c0,0,0,0,0,0s0.2,0.9,0.7,2.4C58.6,6.2,68,7.9,80.6,10.9z"/>
			<linearGradient id="SVGID_3_" gradientUnits="userSpaceOnUse" x1="130.9785" y1="58.7829" x2="131.0761" y2="58.7829">
				<stop  offset="6.200000e-07" style="stop-color:#1EACBC"/>
				<stop  offset="0.9965" style="stop-color:#8FD5E1"/>
			</linearGradient>
			<path class="st3" d="M131,58.6c0,0.1,0.1,0.3,0.1,0.4c0,0,0,0,0-0.1C131,58.8,131,58.7,131,58.6z"/>
		</g>
		<linearGradient id="SVGID_4_" gradientUnits="userSpaceOnUse" x1="72.4481" y1="40.4657" x2="131.0754" y2="40.4657">
			<stop  offset="1.250000e-06" style="stop-color:#01B3CE"/>
			<stop  offset="0.9965" style="stop-color:#5CC5CA"/>
		</linearGradient>
		<path class="st4" d="M131.1,59c-2.6-9.6-4.3-11.5-32.3-14.5c-2.1-0.2-4-0.5-5.8-0.9c-21.9-4.8-20.6-21.7-20.6-21.7
			c0.6,0.2,1.2,0.4,1.9,0.5c11.8,2.8,30.3,4.7,43.2,14.6C123.9,42,128.9,48.9,131.1,59z"/>
		<g class="st5">
			<path class="st6" d="M74.4,25.1c12,2.9,31,4.8,44.2,15c4.5,3.4,8.3,7.8,11,13.5c-2.6-7.3-6.9-12.6-12.1-16.6
				c-12.9-9.9-31.4-11.8-43.2-14.6c-0.6-0.2-1.3-0.3-1.9-0.5c0,0-0.1,1.1,0.1,2.7C73.2,24.8,73.8,25,74.4,25.1z"/>
			<linearGradient id="SVGID_5_" gradientUnits="userSpaceOnUse" x1="130.473" y1="57.9251" x2="131.0754" y2="57.9251">
				<stop  offset="6.200000e-07" style="stop-color:#1EACBC"/>
				<stop  offset="0.9965" style="stop-color:#8FD5E1"/>
			</linearGradient>
			<path class="st7" d="M130.5,56.9c0.2,0.7,0.4,1.4,0.6,2.1c-0.1-0.6-0.3-1.2-0.4-1.8C130.6,57.1,130.5,57,130.5,56.9z"/>
		</g>
		<linearGradient id="SVGID_6_" gradientUnits="userSpaceOnUse" x1="93.0483" y1="51.2966" x2="131.0761" y2="51.2966">
			<stop  offset="6.200000e-07" style="stop-color:#1EACBC"/>
			<stop  offset="0.9965" style="stop-color:#8FD5E1"/>
		</linearGradient>
		<path class="st8" d="M131.1,59c-1.4-4.7-5.6-8.5-9.2-8.5c-4.9-0.2-7.8,3.5-18.6,3.5c-6.9,0-9.1-4.3-9.9-7.4
			c-0.1-0.5-0.2-1-0.3-1.4c-0.1-1-0.1-1.7-0.1-1.7c1.8,0.4,3.7,0.7,5.8,0.9c18.4,2,25.5,3.4,28.9,7c0.1,0.1,0.1,0.1,0.2,0.2
			C129.5,53.5,130.2,55.8,131.1,59z"/>
		<linearGradient id="SVGID_7_" gradientUnits="userSpaceOnUse" x1="128.3904" y1="57.5681" x2="115.0673" y2="50.7086">
			<stop  offset="6.200000e-07" style="stop-color:#1EACBC"/>
			<stop  offset="0.9965" style="stop-color:#8FD5E1"/>
		</linearGradient>
		<path class="st9" d="M130.2,56.8c-0.3-0.3-7.9-5.9-12.6-0.8c-0.1,0.1-0.2,0.2-0.3,0.3c-0.2-3.4,1.6-5.8,4.5-5.8
			C124.9,50.5,128.3,53.2,130.2,56.8z"/>
		<linearGradient id="SVGID_8_" gradientUnits="userSpaceOnUse" x1="93.0483" y1="47.5565" x2="127.6598" y2="47.5565">
			<stop  offset="6.200000e-07" style="stop-color:#1EACBC"/>
			<stop  offset="0.9965" style="stop-color:#8FD5E1"/>
		</linearGradient>
		<path class="st10" d="M127.7,51.5c-1.9-1.7-6.5-3.8-16.3-4.2c-8.1-0.3-15.4-0.5-17.9-0.6c-0.1-0.5-0.2-1-0.3-1.4
			c-0.1-1-0.1-1.7-0.1-1.7c1.8,0.4,3.7,0.7,5.8,0.9C117.2,46.5,124.3,48,127.7,51.5z"/>
	</g>
	<linearGradient id="SVGID_9_" gradientUnits="userSpaceOnUse" x1="163.6537" y1="72.8154" x2="117.2031" y2="102.0792">
		<stop  offset="1.050000e-06" style="stop-color:#117BBF"/>
		<stop  offset="1" style="stop-color:#0DB7DC"/>
	</linearGradient>
	<polygon class="st11" points="121.9,65.8 151.3,31.1 166,96.7 143.4,135.1 	"/>
	<linearGradient id="SVGID_10_" gradientUnits="userSpaceOnUse" x1="76.0394" y1="47.6597" x2="132.0125" y2="51.1435">
		<stop  offset="1.050000e-06" style="stop-color:#117BBF"/>
		<stop  offset="1" style="stop-color:#0DB7DC"/>
	</linearGradient>
	<polygon class="st12" points="151.3,31.1 121.9,65.8 45.9,67 77,48 90.1,40 133.1,33.7 	"/>
	<g>
		<linearGradient id="SVGID_11_" gradientUnits="userSpaceOnUse" x1="108.0314" y1="91.505" x2="45.6714" y2="136.0976">
			<stop  offset="1.050000e-06" style="stop-color:#117BBF"/>
			<stop  offset="1" style="stop-color:#0DB7DC"/>
		</linearGradient>
		<polygon class="st13" points="143.4,135.1 67.7,123 63.9,113.3 66.6,112.8 63.4,112 41.4,106.4 61.6,107.4 58.5,99.6 63.9,98.6 
			57.8,97.8 57.8,97.7 21.4,92.5 55.8,92.5 55.8,92.4 53.4,86.2 52.7,84.6 37.7,82.4 51.6,81.5 45.9,67 77.5,66.5 87.5,66.4 
			121.9,65.8 		"/>
		<linearGradient id="SVGID_12_" gradientUnits="userSpaceOnUse" x1="28.9631" y1="89.1859" x2="41.7021" y2="89.1859">
			<stop  offset="1.050000e-06" style="stop-color:#117BBF"/>
			<stop  offset="1" style="stop-color:#0DB7DC"/>
		</linearGradient>
		<path class="st14" d="M29,88.7l9.4-0.3c0,0,3.6,1,3.4,1c-0.2,0-3,0.4-3,0.4L29,88.7z"/>
		<linearGradient id="SVGID_13_" gradientUnits="userSpaceOnUse" x1="29.1422" y1="79.8035" x2="37.9558" y2="79.8035">
			<stop  offset="1.050000e-06" style="stop-color:#117BBF"/>
			<stop  offset="1" style="stop-color:#0DB7DC"/>
		</linearGradient>
		<polygon class="st15" points="38,79.8 36,79.4 29.1,79.5 36.2,80.2 		"/>
	</g>
	<linearGradient id="SVGID_14_" gradientUnits="userSpaceOnUse" x1="53.386" y1="85.3113" x2="93.893" y2="85.3113">
		<stop  offset="8.400000e-07" style="stop-color:#315DA1"/>
		<stop  offset="1" style="stop-color:#4E2E8A"/>
	</linearGradient>
	<path class="st16" d="M93.8,98.7c0,0-6.5,5.6-6.5,5.6c0,0-12.2,0.4-15-11.7c0,0-7,5.7-16.5-0.1l-2.4-6.2L73.8,69l3.7-2.5l10-0.2
		C88.7,69.5,94.6,85.2,93.8,98.7z"/>
	<linearGradient id="SVGID_15_" gradientUnits="userSpaceOnUse" x1="77.0206" y1="41.5381" x2="124.1123" y2="41.5381">
		<stop  offset="8.400000e-07" style="stop-color:#315DA1"/>
		<stop  offset="1" style="stop-color:#4E2E8A"/>
	</linearGradient>
	<path class="st17" d="M124.1,35.1c-1.5,1.7-11.3,11-41.9,12.9c0,0,0,0,0,0c-2,0-3.8,0-5.2,0l0.6-0.4L90.1,40l32.5-4.7L124.1,35.1z"
		/>
	<linearGradient id="SVGID_16_" gradientUnits="userSpaceOnUse" x1="92.9092" y1="90.6788" x2="93.1987" y2="90.6788">
		<stop  offset="2.100000e-07" style="stop-color:#F16622"/>
		<stop  offset="1" style="stop-color:#F58939"/>
	</linearGradient>
	<path class="st18" d="M93.2,91.3l-0.3-1.2C93.1,90.6,93.2,91,93.2,91.3z"/>
	<linearGradient id="SVGID_17_" gradientUnits="userSpaceOnUse" x1="91.8858" y1="88.2894" x2="92.8995" y2="88.2894">
		<stop  offset="2.100000e-07" style="stop-color:#F16622"/>
		<stop  offset="1" style="stop-color:#F58939"/>
	</linearGradient>
	<path class="st19" d="M92.9,91.1c-0.3-1.5-0.7-3.4-1-5.6c0.2,0.9,0.3,1.7,0.5,2.5c0,0.2,0.1,0.3,0.1,0.5
		C92.6,89.4,92.8,90.3,92.9,91.1z"/>
	<g>
		<linearGradient id="SVGID_18_" gradientUnits="userSpaceOnUse" x1="76.8049" y1="94.1977" x2="93.8456" y2="94.1977">
			<stop  offset="1.040000e-06" style="stop-color:#3BC0CE"/>
			<stop  offset="0.9965" style="stop-color:#5CC5CA"/>
		</linearGradient>
		<path class="st20" d="M93.8,98.7c-0.3,3.4-2.3,5.7-5.4,5.7c-4.1,0-8.8-4-10.7-9.2l0,0c-0.1-0.3-0.2-0.6-0.3-0.9
			C77,93.1,76.9,92,76.8,91c-0.2-4,1.9-7,5.4-7c3.7,0,7.8,3.2,10,7.6c0,0,0,0,0,0c0.4,0.8,0.8,1.7,1,2.6c0.3,1,0.5,2,0.6,3
			C93.9,97.7,93.9,98.2,93.8,98.7z"/>
		<linearGradient id="SVGID_19_" gradientUnits="userSpaceOnUse" x1="4.607" y1="36.2239" x2="91.1794" y2="74.8941">
			<stop  offset="1.250000e-06" style="stop-color:#01B3CE"/>
			<stop  offset="0.9965" style="stop-color:#5CC5CA"/>
		</linearGradient>
		<path class="st21" d="M93.3,94.2c-2.5-12-8.5-20.3-16.2-26.1C61.7,56.2,39.6,54,25.6,50.6c-0.8-0.2-1.5-0.4-2.2-0.6
			C4.3,44,0,23.8,0,23.8s0,0,0,0c5.5,5.3,17.2,7.4,33.3,11.3c8,1.9,17.1,4.3,27.1,7.8c12.9,4.5,20.8,14.6,25.6,24.7
			c0.6,1.3,1.2,2.5,1.7,3.8c1,2.4,1.8,4.7,2.5,7c0.8,2.6,1.4,5,1.8,7.1c0.2,0.9,0.3,1.7,0.5,2.5c0,0.2,0.1,0.3,0.1,0.5
			c0.2,1,0.3,1.9,0.4,2.7c0,0,0,0.1,0,0.1C93.2,93.1,93.3,94.2,93.3,94.2z"/>
		<g>
			<path class="st22" d="M33.1,36.9c8.1,2,17.3,4.4,27.4,7.9c13.1,4.5,21.1,14.8,26,25.1c0.6,1.3,1.2,2.6,1.7,3.9
				c1,2.4,1.8,4.8,2.5,7c0.3,0.9,0.5,1.8,0.8,2.7c-0.4-1.6-0.8-3.3-1.4-5c-0.7-2.2-1.5-4.6-2.5-7c-0.5-1.3-1.1-2.5-1.7-3.8
				c-4.8-10.1-12.7-20.3-25.6-24.7c-10-3.5-19-5.8-27.1-7.8C17.2,31.2,5.5,29.2,0,23.9c0,0,0,0,0,0s0.2,1.1,0.8,2.8
				C6.8,31.2,18.1,33.3,33.1,36.9z"/>
			<linearGradient id="SVGID_20_" gradientUnits="userSpaceOnUse" x1="93.15" y1="93.9443" x2="93.2663" y2="93.9443">
				<stop  offset="6.200000e-07" style="stop-color:#1EACBC"/>
				<stop  offset="0.9965" style="stop-color:#8FD5E1"/>
			</linearGradient>
			<path class="st23" d="M93.1,93.7c0,0.2,0.1,0.3,0.1,0.5c0,0,0,0,0-0.1C93.2,93.9,93.2,93.8,93.1,93.7z"/>
		</g>
		<linearGradient id="SVGID_21_" gradientUnits="userSpaceOnUse" x1="23.3516" y1="72.1009" x2="93.2655" y2="72.1009">
			<stop  offset="1.250000e-06" style="stop-color:#01B3CE"/>
			<stop  offset="0.9965" style="stop-color:#5CC5CA"/>
		</linearGradient>
		<path class="st24" d="M93.3,94.2c-3-11.5-5.2-13.7-38.5-17.3c-2.5-0.3-4.8-0.6-6.9-1.1C21.7,70.1,23.4,50,23.4,50
			c0.7,0.2,1.4,0.4,2.2,0.6c14,3.4,36.1,5.6,51.5,17.4C84.7,73.9,90.7,82.2,93.3,94.2z"/>
		<g class="st5">
			<path class="st25" d="M25.6,53.8c14.4,3.5,37,5.7,52.8,17.8c5.4,4.1,9.9,9.3,13.1,16.2c-3.1-8.7-8.2-15-14.4-19.8
				C61.7,56.2,39.6,54,25.6,50.6c-0.8-0.2-1.5-0.4-2.2-0.6c0,0-0.1,1.3,0.2,3.2C24.2,53.5,24.9,53.7,25.6,53.8z"/>
			<linearGradient id="SVGID_22_" gradientUnits="userSpaceOnUse" x1="92.5471" y1="92.9214" x2="93.2655" y2="92.9214">
				<stop  offset="6.200000e-07" style="stop-color:#1EACBC"/>
				<stop  offset="0.9965" style="stop-color:#8FD5E1"/>
			</linearGradient>
			<path class="st26" d="M92.5,91.7c0.2,0.8,0.5,1.6,0.7,2.5c-0.2-0.7-0.3-1.4-0.5-2.2C92.7,91.9,92.6,91.8,92.5,91.7z"/>
		</g>
		<linearGradient id="SVGID_23_" gradientUnits="userSpaceOnUse" x1="47.9176" y1="85.0168" x2="93.2663" y2="85.0168">
			<stop  offset="1.250000e-06" style="stop-color:#01B3CE"/>
			<stop  offset="0.9965" style="stop-color:#5CC5CA"/>
		</linearGradient>
		<path class="st27" d="M93.3,94.2c-1.7-5.6-6.6-10.1-11-10.1c-5.9-0.2-9.4,4.2-22.1,4.2c-8.2,0-10.9-5.1-11.8-8.8
			c-0.1-0.6-0.2-1.1-0.3-1.6c-0.2-1.2-0.1-2-0.1-2c2.1,0.5,4.4,0.8,6.9,1.1c22,2.3,30.4,4.1,34.4,8.3c0.1,0.1,0.1,0.1,0.2,0.2
			C91.4,87.6,92.3,90.4,93.3,94.2z"/>
		<linearGradient id="SVGID_24_" gradientUnits="userSpaceOnUse" x1="90.0636" y1="92.4956" x2="74.1757" y2="84.3157">
			<stop  offset="6.200000e-07" style="stop-color:#1EACBC"/>
			<stop  offset="0.9965" style="stop-color:#8FD5E1"/>
		</linearGradient>
		<path class="st28" d="M92.2,91.6c-0.4-0.3-9.4-7-15.1-0.9c-0.1,0.1-0.2,0.2-0.3,0.3c-0.2-4,1.9-7,5.4-7
			C85.9,84.1,90,87.3,92.2,91.6z"/>
		<path class="st25" d="M89.2,85.3c-2.2-2-7.8-4.6-19.5-5c-9.6-0.4-18.4-0.6-21.4-0.8c-0.1-0.6-0.2-1.1-0.3-1.6
			c-0.2-1.2-0.1-2-0.1-2c2.1,0.5,4.4,0.8,6.9,1.1C76.7,79.3,85.2,81,89.2,85.3z"/>
	</g>
</g>
<g>
	<path class="st29" d="M247.8,90.8l28.3,8.6c-1.9,7.9-4.9,14.6-9,19.9c-4.1,5.3-9.2,9.3-15.2,12c-6.1,2.7-13.8,4.1-23.1,4.1
		c-11.4,0-20.6-1.7-27.8-5c-7.2-3.3-13.4-9.1-18.6-17.4c-5.2-8.3-7.8-19-7.8-31.9c0-17.3,4.6-30.6,13.8-39.9
		c9.2-9.3,22.2-13.9,39-13.9c13.2,0,23.5,2.7,31.1,8c7.5,5.3,13.1,13.5,16.8,24.5l-28.5,6.3c-1-3.2-2-5.5-3.1-7
		c-1.8-2.5-4-4.4-6.6-5.7c-2.6-1.3-5.5-2-8.8-2c-7.3,0-12.9,2.9-16.8,8.8c-2.9,4.4-4.4,11.2-4.4,20.6c0,11.6,1.8,19.5,5.3,23.8
		c3.5,4.3,8.5,6.4,14.8,6.4c6.2,0,10.8-1.7,14-5.2C244,102.5,246.3,97.4,247.8,90.8z"/>
	<path class="st29" d="M316.3,82.4l-27.7-2.9c1-4.8,2.6-8.7,4.5-11.4s4.8-5.2,8.5-7.2c2.7-1.5,6.3-2.6,11-3.4
		c4.7-0.8,9.7-1.2,15.1-1.2c8.7,0,15.7,0.5,21,1.5c5.3,1,9.7,3,13.2,6.1c2.5,2.1,4.4,5.2,5.8,9.1c1.4,3.9,2.1,7.7,2.1,11.2v33.4
		c0,3.6,0.2,6.4,0.7,8.4c0.5,2,1.4,4.6,3,7.7h-27.2c-1.1-1.9-1.8-3.4-2.1-4.5c-0.3-1-0.7-2.6-1-4.8c-3.8,3.7-7.6,6.3-11.3,7.8
		c-5.1,2.1-11.1,3.1-17.9,3.1c-9,0-15.9-2.1-20.6-6.3c-4.7-4.2-7-9.3-7-15.5c0-5.8,1.7-10.5,5.1-14.2c3.4-3.7,9.6-6.5,18.7-8.3
		c10.9-2.2,17.9-3.7,21.2-4.6c3.2-0.9,6.7-2,10.3-3.5c0-3.6-0.7-6.1-2.2-7.5c-1.5-1.4-4.1-2.1-7.8-2.1c-4.8,0-8.3,0.8-10.7,2.3
		C318.9,76.9,317.4,79.1,316.3,82.4z M341.5,97.7c-4,1.4-8.2,2.7-12.5,3.8c-5.9,1.6-9.6,3.1-11.2,4.6c-1.6,1.6-2.4,3.4-2.4,5.3
		c0,2.3,0.8,4.1,2.4,5.6c1.6,1.5,3.9,2.2,7,2.2c3.2,0,6.2-0.8,9-2.4c2.8-1.6,4.8-3.5,5.9-5.7c1.2-2.3,1.7-5.2,1.7-8.8V97.7z"/>
	<path class="st29" d="M387.5,57.9h27.2v12.4c2.6-5.4,5.3-9.1,8.1-11.1c2.8-2,6.2-3,10.3-3c4.3,0,9,1.3,14,4l-9,20.7
		c-3.4-1.4-6.1-2.1-8.1-2.1c-3.8,0-6.8,1.6-8.8,4.7c-3,4.4-4.5,12.7-4.5,24.8v25.4h-29.2V57.9z"/>
	<path class="st29" d="M452.2,29.1h29.3v36.2c2.9-3,6.2-5.3,9.9-6.8c3.7-1.5,7.8-2.3,12.2-2.3c9.2,0,16.8,3.3,22.9,9.9
		c6,6.6,9.1,16.1,9.1,28.6c0,8.3-1.4,15.6-4.1,21.9c-2.8,6.3-6.6,11-11.4,14.1c-4.9,3.1-10.3,4.7-16.2,4.7c-5.1,0-9.7-1.1-14-3.3
		c-3.2-1.7-6.7-4.9-10.4-9.6v11.2h-27.2V29.1z M481.3,95.5c0,6.5,1.2,11.2,3.7,14.2c2.4,2.9,5.5,4.4,9.3,4.4c3.5,0,6.4-1.4,8.7-4.3
		s3.5-7.7,3.5-14.5c0-6-1.2-10.4-3.5-13.2c-2.3-2.8-5.1-4.2-8.4-4.2c-3.9,0-7.2,1.5-9.7,4.4C482.5,85.2,481.3,89.6,481.3,95.5z"/>
	<path class="st29" d="M550.5,29.1h29v19.8h-29V29.1z M550.5,57.9h29v75.7h-29V57.9z"/>
	<path class="st29" d="M598.1,57.9h27v12.3c4-5,8.1-8.6,12.3-10.8c4.1-2.2,9.2-3.2,15.1-3.2c8,0,14.3,2.4,18.9,7.2
		c4.5,4.8,6.8,12.2,6.8,22.1v48.1H649V92c0-4.8-0.9-8.1-2.6-10.1c-1.8-2-4.2-3-7.4-3c-3.5,0-6.4,1.3-8.6,4
		c-2.2,2.7-3.3,7.4-3.3,14.3v36.4h-29V57.9z"/>
</g>
</svg>
