<svg width="54" height="54" viewBox="0 0 54 54" fill="none" xmlns="http://www.w3.org/2000/svg">
<path fill-rule="evenodd" clip-rule="evenodd" d="M27 52C40.8071 52 52 40.8071 52 27C52 13.1929 40.8071 2 27 2C13.1929 2 2 13.1929 2 27C2 40.8071 13.1929 52 27 52Z" fill="white" stroke="#B2DCFC" stroke-width="2.5"/>
<path fill-rule="evenodd" clip-rule="evenodd" d="M37.4167 24.9177C37.4167 25.1262 37.4132 25.3107 37.4064 25.4936C38.6506 26.2165 39.5 27.5494 39.5 29.084V30.1248C39.5 32.0268 38.2011 33.623 36.4528 34.1186C35.2769 36.6922 32.633 39.5 27 39.5C24.7082 39.5 23.8759 37.6253 23.8759 36.3744C23.8759 35.1251 24.7082 33.2504 27 33.2504C29.2918 33.2504 30.1241 35.1251 30.1241 36.3744C30.1241 36.5828 30.1241 36.7913 30.0199 36.9998C31.7324 36.5333 33.0364 35.6019 33.9336 34.2912H33.25C32.6245 34.2912 32.2092 33.8742 32.2092 33.2504V25.9584C32.2092 25.3329 32.6245 24.9177 33.25 24.9177H35.3333C35.3333 20.3343 31.5837 16.5849 27 16.5849C22.4163 16.5849 18.6667 20.3343 18.6667 24.9177H20.75C21.3755 24.9177 21.7908 25.3329 21.7908 25.9584V33.2504C21.7908 33.8742 21.3755 34.2912 20.75 34.2912H18.6667C16.3748 34.2912 14.5 32.4165 14.5 30.1248V29.084C14.5 27.546 15.3528 26.2113 16.6004 25.4902C16.5868 25.3107 16.5833 25.1227 16.5833 24.9177C16.5833 19.1893 21.2713 14.5 27 14.5C32.7287 14.5 37.4167 19.1893 37.4167 24.9177ZM19.7091 32.2086H18.6665C17.5198 32.2086 16.5832 31.2704 16.5832 30.1254V29.0847C16.5832 27.938 17.5198 27.0015 18.6665 27.0015H19.7091V32.2086ZM35.7659 32.1625C36.7059 31.9608 37.4169 31.1234 37.4169 30.1254V29.0847C37.4169 27.938 36.4803 27.0015 35.3335 27.0015H34.291V32.2086H35.3335C35.3619 32.2086 35.3884 32.205 35.4153 32.2014C35.4338 32.1989 35.4525 32.1963 35.472 32.1949C35.5694 32.1693 35.6651 32.1573 35.7659 32.1625ZM25.9575 36.3754C25.9575 36.7924 26.166 37.4179 27 37.4179C27.834 37.4179 28.0425 36.7924 28.0425 36.3754C28.0425 35.9601 27.834 35.3347 27 35.3347C26.166 35.3347 25.9575 35.9601 25.9575 36.3754Z" fill="#008DF5"/>
<path d="M37.4064 25.4936L37.1566 25.4842L37.151 25.6343L37.2808 25.7097L37.4064 25.4936ZM36.4528 34.1186L36.3846 33.878L36.2734 33.9096L36.2254 34.0147L36.4528 34.1186ZM30.0199 36.9998L29.7963 36.888L29.5463 37.388L30.0856 37.241L30.0199 36.9998ZM33.9336 34.2912L34.1399 34.4324L34.4077 34.0412H33.9336V34.2912ZM35.3333 24.9177V25.1677H35.5833V24.9177H35.3333ZM18.6667 24.9177H18.4167V25.1677H18.6667V24.9177ZM16.6004 25.4902L16.7255 25.7066L16.8616 25.6279L16.8497 25.4712L16.6004 25.4902ZM19.7091 32.2086V32.4586H19.9591V32.2086H19.7091ZM19.7091 27.0015H19.9591V26.7515H19.7091V27.0015ZM35.7659 32.1625L35.7532 32.4122L35.7862 32.4138L35.8184 32.4069L35.7659 32.1625ZM34.291 27.0015V26.7515H34.041V27.0015H34.291ZM34.291 32.2086H34.041V32.4586H34.291V32.2086ZM35.4153 32.2014L35.3818 31.9536L35.3817 31.9536L35.4153 32.2014ZM35.472 32.1949L35.4898 32.4443L35.513 32.4426L35.5356 32.4367L35.472 32.1949ZM37.6562 25.5029C37.6632 25.3167 37.6667 25.129 37.6667 24.9177H37.1667C37.1667 25.1233 37.1633 25.3047 37.1566 25.4842L37.6562 25.5029ZM39.75 29.084C39.75 27.4541 38.8476 26.0418 37.532 25.2774L37.2808 25.7097C38.4536 26.3911 39.25 27.6448 39.25 29.084H39.75ZM39.75 30.1248V29.084H39.25V30.1248H39.75ZM36.5209 34.3591C38.3714 33.8346 39.75 32.1443 39.75 30.1248H39.25C39.25 31.9094 38.0309 33.4114 36.3846 33.878L36.5209 34.3591ZM27 39.75C29.8599 39.75 31.9794 39.0366 33.538 37.9814C35.0952 36.9272 36.0771 35.5423 36.6802 34.2225L36.2254 34.0147C35.6526 35.2684 34.7246 36.5743 33.2577 37.5674C31.7921 38.5595 29.7731 39.25 27 39.25V39.75ZM23.6259 36.3744C23.6259 37.0483 23.8484 37.8864 24.3824 38.5614C24.9237 39.2454 25.7765 39.75 27 39.75V39.25C25.9317 39.25 25.2224 38.8172 24.7745 38.2512C24.3195 37.6761 24.1259 36.9514 24.1259 36.3744H23.6259ZM27 33.0004C25.7765 33.0004 24.9237 33.505 24.3825 34.1888C23.8484 34.8635 23.6259 35.7012 23.6259 36.3744H24.1259C24.1259 35.7982 24.3195 35.074 24.7745 34.4991C25.2224 33.9332 25.9317 33.5004 27 33.5004V33.0004ZM30.3741 36.3744C30.3741 35.7012 30.1516 34.8635 29.6175 34.1888C29.0763 33.505 28.2235 33.0004 27 33.0004V33.5004C28.0683 33.5004 28.7776 33.9332 29.2255 34.4991C29.6805 35.074 29.8741 35.7982 29.8741 36.3744H30.3741ZM30.2435 37.1116C30.3778 36.8431 30.3741 36.5766 30.3741 36.3744H29.8741C29.8741 36.5891 29.8705 36.7396 29.7963 36.888L30.2435 37.1116ZM33.7273 34.15C32.8654 35.4091 31.6126 36.3068 29.9542 36.7586L30.0856 37.241C31.8522 36.7598 33.2073 35.7947 34.1399 34.4324L33.7273 34.15ZM33.25 34.5412H33.9336V34.0412H33.25V34.5412ZM31.9592 33.2504C31.9592 33.619 32.083 33.9459 32.3182 34.1814C32.5534 34.4169 32.8804 34.5412 33.25 34.5412V34.0412C32.9941 34.0412 32.8007 33.957 32.6719 33.828C32.5431 33.699 32.4592 33.5056 32.4592 33.2504H31.9592ZM31.9592 25.9584V33.2504H32.4592V25.9584H31.9592ZM33.25 24.6677C32.8807 24.6677 32.5536 24.7913 32.3183 25.0267C32.0829 25.2621 31.9592 25.5891 31.9592 25.9584H32.4592C32.4592 25.7022 32.5431 25.5089 32.6718 25.3803C32.8005 25.2516 32.9938 25.1677 33.25 25.1677V24.6677ZM35.3333 24.6677H33.25V25.1677H35.3333V24.6677ZM27 16.8349C31.4456 16.8349 35.0833 20.4724 35.0833 24.9177H35.5833C35.5833 20.1962 31.7217 16.3349 27 16.3349V16.8349ZM18.9167 24.9177C18.9167 20.4724 22.5544 16.8349 27 16.8349V16.3349C22.2783 16.3349 18.4167 20.1962 18.4167 24.9177H18.9167ZM20.75 24.6677H18.6667V25.1677H20.75V24.6677ZM22.0408 25.9584C22.0408 25.5891 21.9171 25.2621 21.6817 25.0267C21.4464 24.7913 21.1193 24.6677 20.75 24.6677V25.1677C21.0062 25.1677 21.1995 25.2516 21.3282 25.3803C21.4569 25.5089 21.5408 25.7022 21.5408 25.9584H22.0408ZM22.0408 33.2504V25.9584H21.5408V33.2504H22.0408ZM20.75 34.5412C21.1196 34.5412 21.4466 34.4169 21.6818 34.1814C21.917 33.9459 22.0408 33.619 22.0408 33.2504H21.5408C21.5408 33.5056 21.4569 33.699 21.3281 33.828C21.1993 33.957 21.0059 34.0412 20.75 34.0412V34.5412ZM18.6667 34.5412H20.75V34.0412H18.6667V34.5412ZM14.25 30.1248C14.25 32.5546 16.2368 34.5412 18.6667 34.5412V34.0412C16.5129 34.0412 14.75 32.2784 14.75 30.1248H14.25ZM14.25 29.084V30.1248H14.75V29.084H14.25ZM16.4753 25.2737C15.156 26.0363 14.25 27.4505 14.25 29.084H14.75C14.75 27.6415 15.5496 26.3863 16.7255 25.7066L16.4753 25.2737ZM16.3333 24.9177C16.3333 25.1248 16.3368 25.3202 16.3511 25.5092L16.8497 25.4712C16.8368 25.3012 16.8333 25.1206 16.8333 24.9177H16.3333ZM27 14.25C21.1332 14.25 16.3333 19.0513 16.3333 24.9177H16.8333C16.8333 19.3274 21.4094 14.75 27 14.75V14.25ZM37.6667 24.9177C37.6667 19.0513 32.8668 14.25 27 14.25V14.75C32.5906 14.75 37.1667 19.3274 37.1667 24.9177H37.6667ZM18.6665 32.4586H19.7091V31.9586H18.6665V32.4586ZM16.3332 30.1254C16.3332 31.4084 17.3816 32.4586 18.6665 32.4586V31.9586C17.6579 31.9586 16.8332 31.1325 16.8332 30.1254H16.3332ZM16.3332 29.0847V30.1254H16.8332V29.0847H16.3332ZM18.6665 26.7515C17.3817 26.7515 16.3332 27.7999 16.3332 29.0847H16.8332C16.8332 28.0761 17.6578 27.2515 18.6665 27.2515V26.7515ZM19.7091 26.7515H18.6665V27.2515H19.7091V26.7515ZM19.9591 32.2086V27.0015H19.4591V32.2086H19.9591ZM37.1669 30.1254C37.1669 31.0021 36.5416 31.7404 35.7135 31.918L35.8184 32.4069C36.8702 32.1813 37.6669 31.2448 37.6669 30.1254H37.1669ZM37.1669 29.0847V30.1254H37.6669V29.0847H37.1669ZM35.3335 27.2515C36.3423 27.2515 37.1669 28.0761 37.1669 29.0847H37.6669C37.6669 27.7999 36.6184 26.7515 35.3335 26.7515V27.2515ZM34.291 27.2515H35.3335V26.7515H34.291V27.2515ZM34.541 32.2086V27.0015H34.041V32.2086H34.541ZM35.3335 31.9586H34.291V32.4586H35.3335V31.9586ZM35.3817 31.9536C35.3527 31.9576 35.3424 31.9586 35.3335 31.9586V32.4586C35.3813 32.4586 35.4242 32.4525 35.4489 32.4491L35.3817 31.9536ZM35.4542 31.9456C35.4255 31.9476 35.3992 31.9513 35.3818 31.9536L35.4489 32.4491C35.4685 32.4465 35.4794 32.445 35.4898 32.4443L35.4542 31.9456ZM35.7786 31.9128C35.6488 31.9062 35.5272 31.9219 35.4084 31.9532L35.5356 32.4367C35.6116 32.4167 35.6814 32.4085 35.7532 32.4122L35.7786 31.9128ZM27 37.1679C26.6543 37.1679 26.4709 37.0429 26.366 36.903C26.2519 36.751 26.2075 36.549 26.2075 36.3754H25.7075C25.7075 36.6188 25.7672 36.938 25.966 37.203C26.1738 37.4801 26.5116 37.6679 27 37.6679V37.1679ZM27.7925 36.3754C27.7925 36.549 27.748 36.751 27.634 36.903C27.529 37.0429 27.3456 37.1679 27 37.1679V37.6679C27.4884 37.6679 27.8262 37.4801 28.034 37.203C28.2327 36.938 28.2925 36.6188 28.2925 36.3754H27.7925ZM27 35.5847C27.3456 35.5847 27.5291 35.7096 27.6341 35.8494C27.7481 36.0013 27.7925 36.2028 27.7925 36.3754H28.2925C28.2925 36.1327 28.2326 35.8139 28.0339 35.5492C27.8261 35.2724 27.4884 35.0847 27 35.0847V35.5847ZM26.2075 36.3754C26.2075 36.2028 26.2519 36.0013 26.3659 35.8494C26.4708 35.7096 26.6543 35.5847 27 35.5847V35.0847C26.5116 35.0847 26.1738 35.2724 25.966 35.5492C25.7673 35.8139 25.7075 36.1327 25.7075 36.3754H26.2075Z" fill="white"/>
</svg>
