<svg width="54" height="54" viewBox="0 0 54 54" fill="none" xmlns="http://www.w3.org/2000/svg">
<path fill-rule="evenodd" clip-rule="evenodd" d="M27 52C40.8071 52 52 40.8071 52 27C52 13.1929 40.8071 2 27 2C13.1929 2 2 13.1929 2 27C2 40.8071 13.1929 52 27 52Z" fill="white" stroke="#B2DCFC" stroke-width="2.5"/>
<path fill-rule="evenodd" clip-rule="evenodd" d="M33.2791 26.7201C34.4182 24.8707 35.6944 22.7988 34.7209 21.8253L32.6196 19.724L25.651 12.7554C25.4894 12.5938 25.2392 12.5925 25.0971 12.7346L21.6319 16.1998L18.8597 18.972L16.0875 21.7442L12.6223 25.2094C12.4624 25.3693 12.4637 25.6194 12.6254 25.7811L19.5939 32.7496L21.6953 34.851C22.6648 35.8205 24.7411 34.5414 26.5854 33.4052C26.6201 33.3838 26.6548 33.3624 26.6894 33.3411L26.7198 33.3222C27.7584 32.6742 28.7052 32.0834 29.0944 32.0855L29.1122 32.0677C29.7196 32.071 30.5116 33.1828 31.3397 34.3663C31.8437 35.0835 32.3477 35.8008 32.8865 36.3396C33.3355 36.7886 33.962 37.0242 34.5695 37.0274C35.1591 37.0484 35.7652 36.8015 36.2272 36.3395C36.6715 35.8952 36.9184 35.2892 36.9151 34.6817C36.9119 34.0743 36.6586 33.4656 36.2096 33.0166C35.6708 32.4778 34.9535 31.9737 34.2362 31.4697C33.0527 30.6416 31.9409 29.8497 31.9555 29.2245C31.9534 28.8315 32.5557 27.87 33.2289 26.8017C33.2456 26.7745 33.2623 26.7473 33.2791 26.7201ZM31.7829 19.9867L25.3711 13.5749L22.4568 16.4893L24.7018 18.7343C24.8635 18.8959 24.8648 19.146 24.7226 19.2882C24.5627 19.4481 24.3126 19.4468 24.1509 19.2852L21.9059 17.0401L19.6846 19.2614L21.0855 20.6623C21.2472 20.824 21.2485 21.0741 21.1063 21.2162C20.9464 21.3762 20.6963 21.3748 20.5346 21.2132L19.1337 19.8123L16.9124 22.0336L20.0016 25.1228C20.1453 25.2664 20.1466 25.5166 20.0045 25.6587C19.8445 25.8187 19.5944 25.8173 19.4507 25.6736L16.3616 22.5845L13.4472 25.4988L19.859 31.9106L31.7829 19.9867ZM20.4157 32.4674L22.2476 34.2994C22.7773 34.829 24.5758 33.708 26.176 32.7107L26.2585 32.6592C27.4158 31.9329 28.4664 31.2775 29.0917 31.2987C30.1226 31.2686 31.0367 32.5646 31.9679 33.8847L31.9818 33.9045C32.4679 34.6038 32.9539 35.3031 33.4389 35.788C33.7442 36.0933 34.156 36.2563 34.5668 36.2406C34.9598 36.2427 35.3698 36.0841 35.6719 35.782C35.974 35.4799 36.1149 35.0876 36.1305 34.6768C36.1285 34.2838 35.9655 33.872 35.6602 33.5667C35.1752 33.0818 34.4759 32.5957 33.7766 32.1097L33.7569 32.0957C32.4367 31.1645 31.1408 30.2504 31.1709 29.2196C31.1498 28.5983 31.814 27.5399 32.5348 26.3914L32.5492 26.3685L32.6241 26.2476C33.5986 24.674 34.6968 22.9008 34.1715 22.3755L32.3396 20.5435L20.4157 32.4674Z" fill="#008DF5"/>
<path d="M34.7209 21.8253L35.0636 21.4609L34.7209 21.8253ZM33.2791 26.7201L32.8635 26.448L32.8635 26.448L33.2791 26.7201ZM32.6196 19.724L32.2769 20.0884L32.6196 19.724ZM25.651 12.7554L25.3083 13.1198L25.3083 13.1198L25.651 12.7554ZM25.0971 12.7346L25.4398 13.099L25.0971 12.7346ZM21.6319 16.1998L21.9746 16.5642L21.6319 16.1998ZM18.8597 18.972L18.517 18.6076L18.8597 18.972ZM16.0875 21.7442L15.7448 21.3798L16.0875 21.7442ZM12.6223 25.2094L12.965 25.5738L12.6223 25.2094ZM12.6254 25.7811L12.9681 25.4167L12.6254 25.7811ZM19.5939 32.7496L19.9366 32.3852L19.5939 32.7496ZM21.6953 34.851L21.3526 35.2154L21.6953 34.851ZM26.5854 33.4052L26.8379 33.8409L26.8379 33.8409L26.5854 33.4052ZM26.6894 33.3411L26.9418 33.777L26.9442 33.7754L26.6894 33.3411ZM26.7198 33.3222L26.9746 33.7565L26.9746 33.7565L26.7198 33.3222ZM29.0944 32.0855L29.0919 32.5931L29.2929 32.5942L29.4371 32.4499L29.0944 32.0855ZM29.1122 32.0677L29.1148 31.5601L28.9138 31.5591L28.7695 31.7033L29.1122 32.0677ZM31.3397 34.3663L30.9404 34.6633L30.941 34.6641L31.3397 34.3663ZM34.5695 37.0274L34.5865 36.5201L34.5792 36.5199L34.572 36.5198L34.5695 37.0274ZM36.2272 36.3395L35.8845 35.9751L36.2272 36.3395ZM36.2096 33.0166L35.8669 33.381L36.2096 33.0166ZM34.2362 31.4697L34.5134 31.0502L34.5126 31.0497L34.2362 31.4697ZM31.9555 29.2245L32.4476 29.2367L32.4478 29.2292L32.4477 29.2217L31.9555 29.2245ZM33.2289 26.8017L33.6417 27.0782L33.6444 27.0737L33.2289 26.8017ZM25.3711 13.5749L25.7138 13.2105L25.3711 12.8678L25.0284 13.2105L25.3711 13.5749ZM31.7829 19.9867L32.1256 20.3511L32.49 19.9867L32.1256 19.6223L31.7829 19.9867ZM22.4568 16.4893L22.1141 16.1249L21.7497 16.4893L22.1141 16.8536L22.4568 16.4893ZM24.7018 18.7343L24.3591 19.0987L24.7018 18.7343ZM24.7226 19.2882L24.3799 18.9238L24.3799 18.9238L24.7226 19.2882ZM24.1509 19.2852L24.4937 18.9208L24.1509 19.2852ZM21.9059 17.0401L22.2486 16.6757L21.9059 16.333L21.5632 16.6757L21.9059 17.0401ZM19.6846 19.2614L19.3419 18.897L18.9775 19.2614L19.3419 19.6258L19.6846 19.2614ZM21.0855 20.6623L21.4282 20.2979L21.0855 20.6623ZM21.1063 21.2162L21.449 21.5806L21.1063 21.2162ZM20.5346 21.2132L20.8773 20.8488L20.5346 21.2132ZM19.1337 19.8123L19.4765 19.4479L19.1337 19.1052L18.791 19.4479L19.1337 19.8123ZM16.9124 22.0336L16.5697 21.6692L16.2053 22.0336L16.5697 22.398L16.9124 22.0336ZM20.0016 25.1228L20.3443 24.7584L20.3443 24.7584L20.0016 25.1228ZM20.0045 25.6587L19.6617 25.2943L19.6617 25.2943L20.0045 25.6587ZM19.4507 25.6736L19.108 26.038L19.108 26.038L19.4507 25.6736ZM16.3616 22.5845L16.7043 22.2201L16.3616 21.8774L16.0189 22.2201L16.3616 22.5845ZM13.4472 25.4988L13.1045 25.1344L12.7401 25.4988L13.1045 25.8632L13.4472 25.4988ZM19.859 31.9106L19.5163 32.275L19.859 32.6177L20.2017 32.275L19.859 31.9106ZM22.2476 34.2994L21.9049 34.6637L22.2476 34.2994ZM20.4157 32.4674L20.073 32.103L19.7086 32.4674L20.073 32.8318L20.4157 32.4674ZM26.176 32.7107L25.9213 32.2762L25.9213 32.2763L26.176 32.7107ZM26.2585 32.6592L26.5131 33.0937L26.5144 33.0929L26.2585 32.6592ZM29.0917 31.2987L29.0756 31.806L29.0906 31.8066L29.1057 31.8061L29.0917 31.2987ZM31.9679 33.8847L31.5698 34.1833L31.5698 34.1833L31.9679 33.8847ZM31.9818 33.9045L32.3819 33.6088L32.3799 33.6059L31.9818 33.9045ZM33.4389 35.788L33.7816 35.4236L33.4389 35.788ZM34.5668 36.2406L34.5693 35.733L34.5589 35.733L34.5485 35.7334L34.5668 36.2406ZM36.1305 34.6768L36.6224 34.6968L36.6229 34.6854L36.6228 34.6741L36.1305 34.6768ZM35.6602 33.5667L36.0029 33.2023L36.0029 33.2023L35.6602 33.5667ZM33.7766 32.1097L33.4987 32.5286L33.5015 32.5306L33.7766 32.1097ZM33.7569 32.0957L34.0348 31.6768L34.0348 31.6768L33.7569 32.0957ZM31.1709 29.2196L31.6629 29.2348L31.6634 29.2184L31.6628 29.2019L31.1709 29.2196ZM32.5348 26.3914L32.9481 26.6672L32.9481 26.6672L32.5348 26.3914ZM32.5492 26.3685L32.9625 26.6443L32.9641 26.6417L32.5492 26.3685ZM32.6241 26.2476L32.2092 25.9744L32.2092 25.9744L32.6241 26.2476ZM34.1715 22.3755L34.5142 22.0111L34.1715 22.3755ZM32.3396 20.5435L32.6823 20.1791L32.3396 19.8364L31.9969 20.1791L32.3396 20.5435ZM34.3782 22.1897C34.6213 22.4328 34.6721 22.8922 34.3355 23.7548C34.0162 24.5733 33.4407 25.511 32.8635 26.448L33.6946 26.9923C34.2566 26.0799 34.8887 25.0569 35.2489 24.1337C35.5919 23.2546 35.794 22.1913 35.0636 21.4609L34.3782 22.1897ZM32.2769 20.0884L34.3782 22.1897L35.0636 21.4609L32.9623 19.3596L32.2769 20.0884ZM25.3083 13.1198L32.2769 20.0884L32.9623 19.3596L25.9937 12.391L25.3083 13.1198ZM25.4398 13.099C25.4053 13.1335 25.3703 13.139 25.3536 13.1385C25.3352 13.138 25.3192 13.1308 25.3083 13.1198L25.9937 12.391C25.6589 12.0562 25.1048 12.0198 24.7544 12.3702L25.4398 13.099ZM21.9746 16.5642L25.4398 13.099L24.7544 12.3702L21.2892 15.8354L21.9746 16.5642ZM19.2024 19.3364L21.9746 16.5642L21.2892 15.8354L18.517 18.6076L19.2024 19.3364ZM16.4302 22.1086L19.2024 19.3364L18.517 18.6076L15.7448 21.3798L16.4302 22.1086ZM12.965 25.5738L16.4302 22.1086L15.7448 21.3798L12.2796 24.845L12.965 25.5738ZM12.9681 25.4167C12.9801 25.4287 12.9953 25.4552 12.9955 25.4918C12.9957 25.5287 12.9804 25.5584 12.965 25.5738L12.2796 24.845C11.9166 25.208 11.9253 25.7881 12.2826 26.1455L12.9681 25.4167ZM19.9366 32.3852L12.9681 25.4167L12.2826 26.1455L19.2512 33.114L19.9366 32.3852ZM22.038 34.4866L19.9366 32.3852L19.2512 33.114L21.3526 35.2154L22.038 34.4866ZM26.3329 32.9694C25.3994 33.5445 24.4594 34.1217 23.6377 34.4431C22.7713 34.782 22.2895 34.7381 22.038 34.4866L21.3526 35.2154C22.0706 35.9334 23.1117 35.7347 23.9869 35.3923C24.9067 35.0325 25.9271 34.4021 26.8379 33.8409L26.3329 32.9694ZM26.437 32.9053C26.4024 32.9266 26.3676 32.948 26.3329 32.9694L26.8379 33.8409C26.8726 33.8195 26.9072 33.7982 26.9418 33.7769L26.437 32.9053ZM26.4649 32.8879L26.4345 32.9068L26.9442 33.7754L26.9746 33.7565L26.4649 32.8879ZM29.097 31.5779C28.9007 31.5769 28.6951 31.6449 28.524 31.7148C28.3396 31.7901 28.1338 31.894 27.9189 32.0122C27.4895 32.2485 26.9805 32.5662 26.4649 32.8879L26.9746 33.7565C27.4977 33.4301 27.9814 33.1285 28.3824 32.9079C28.5827 32.7977 28.7515 32.7138 28.8865 32.6587C29.0348 32.5981 29.0936 32.5931 29.0919 32.5931L29.097 31.5779ZM28.7695 31.7033L28.7518 31.7211L29.4371 32.4499L29.4549 32.4322L28.7695 31.7033ZM31.7389 34.0693C31.3289 33.4834 30.9069 32.8842 30.5067 32.4322C30.3062 32.2057 30.0959 31.9984 29.8802 31.8444C29.6697 31.6942 29.4082 31.5617 29.1148 31.5601L29.1097 32.5753C29.1199 32.5754 29.1853 32.5831 29.3199 32.6792C29.4494 32.7716 29.6028 32.9169 29.7796 33.1167C30.1343 33.5173 30.5223 34.0657 30.9404 34.6633L31.7389 34.0693ZM33.2292 35.9752C32.7273 35.4733 32.2491 34.7953 31.7383 34.0684L30.941 34.6641C31.4383 35.3717 31.9681 36.1283 32.5438 36.704L33.2292 35.9752ZM34.572 36.5198C34.0788 36.5172 33.5782 36.3242 33.2292 35.9752L32.5438 36.704C33.0928 37.253 33.8452 37.5312 34.5669 37.535L34.572 36.5198ZM35.8845 35.9751C35.5117 36.3479 35.0331 36.536 34.5865 36.5201L34.5525 37.5347C35.2851 37.5608 36.0187 37.2552 36.5699 36.7039L35.8845 35.9751ZM36.4229 34.6845C36.4254 35.1501 36.235 35.6246 35.8845 35.9751L36.5699 36.7039C37.1079 36.1659 37.4114 35.4283 37.4074 34.679L36.4229 34.6845ZM35.8669 33.381C36.2246 33.7387 36.4204 34.2186 36.4229 34.6845L37.4074 34.679C37.4034 33.93 37.0926 33.1925 36.5523 32.6522L35.8669 33.381ZM33.959 31.8892C34.686 32.4 35.3646 32.8787 35.8669 33.381L36.5523 32.6522C35.9769 32.0768 35.221 31.5474 34.5134 31.0502L33.959 31.8892ZM31.4633 29.2123C31.4561 29.5248 31.5886 29.7999 31.738 30.0167C31.891 30.2386 32.0982 30.4523 32.3239 30.6543C32.7743 31.0576 33.3743 31.4801 33.9598 31.8898L34.5126 31.0497C33.9147 30.6313 33.367 30.2437 32.9693 29.8877C32.7709 29.7101 32.6289 29.5568 32.5405 29.4286C32.4972 29.3657 32.4726 29.3172 32.4596 29.2826C32.4469 29.2489 32.4476 29.2352 32.4476 29.2367L31.4633 29.2123ZM32.8161 26.5251C32.4817 27.0557 32.1544 27.5763 31.9115 28.0144C31.7901 28.2336 31.6833 28.4436 31.6057 28.6321C31.5344 28.8055 31.4621 29.0197 31.4632 29.2273L32.4477 29.2217C32.4478 29.2328 32.45 29.1794 32.5121 29.0286C32.5679 28.8929 32.6533 28.7221 32.7663 28.5182C32.9924 28.1103 33.3028 27.6159 33.6416 27.0782L32.8161 26.5251ZM32.8635 26.448C32.8468 26.4752 32.83 26.5024 32.8133 26.5296L33.6444 27.0737C33.6611 27.0466 33.6778 27.0195 33.6946 26.9923L32.8635 26.448ZM25.0284 13.9393L31.4402 20.3511L32.1256 19.6223L25.7138 13.2105L25.0284 13.9393ZM22.7995 16.8536L25.7138 13.9393L25.0284 13.2105L22.1141 16.1249L22.7995 16.8536ZM25.0445 18.3699L22.7995 16.1249L22.1141 16.8536L24.3591 19.0987L25.0445 18.3699ZM25.0653 19.6526C25.4259 19.2921 25.3861 18.7115 25.0445 18.3699L24.3591 19.0987C24.3408 19.0804 24.3037 19 24.3799 18.9238L25.0653 19.6526ZM23.8082 19.6496C24.1574 19.9988 24.7111 20.0069 25.0653 19.6526L24.3799 18.9238C24.3947 18.909 24.4171 18.8995 24.44 18.8997C24.4627 18.8998 24.4821 18.9092 24.4937 18.9208L23.8082 19.6496ZM21.5632 17.4045L23.8082 19.6496L24.4937 18.9208L22.2486 16.6757L21.5632 17.4045ZM20.0273 19.6258L22.2486 17.4045L21.5632 16.6757L19.3419 18.897L20.0273 19.6258ZM21.4282 20.2979L20.0273 18.897L19.3419 19.6258L20.7428 21.0267L21.4282 20.2979ZM21.449 21.5806C21.8096 21.2201 21.7698 20.6395 21.4282 20.2979L20.7428 21.0267C20.7245 21.0084 20.6874 20.928 20.7636 20.8518L21.449 21.5806ZM20.1919 21.5776C20.5411 21.9268 21.0948 21.9349 21.449 21.5806L20.7636 20.8518C20.7784 20.837 20.8008 20.8276 20.8237 20.8277C20.8464 20.8278 20.8658 20.8372 20.8773 20.8488L20.1919 21.5776ZM18.791 20.1767L20.1919 21.5776L20.8773 20.8488L19.4765 19.4479L18.791 20.1767ZM17.2552 22.398L19.4765 20.1767L18.791 19.4479L16.5697 21.6692L17.2552 22.398ZM20.3443 24.7584L17.2552 21.6692L16.5697 22.398L19.6589 25.4872L20.3443 24.7584ZM20.3472 26.0231C20.6924 25.6778 20.6837 25.0977 20.3443 24.7584L19.6589 25.4872C19.6275 25.4558 19.6181 25.4198 19.618 25.3941C19.6178 25.3684 19.627 25.3291 19.6617 25.2943L20.3472 26.0231ZM19.108 26.038C19.4533 26.3833 20.0071 26.3631 20.3472 26.0231L19.6617 25.2943C19.6759 25.2802 19.6948 25.2728 19.7134 25.2725C19.7303 25.2722 19.7623 25.2781 19.7934 25.3092L19.108 26.038ZM16.0189 22.9489L19.108 26.038L19.7934 25.3092L16.7043 22.2201L16.0189 22.9489ZM13.7899 25.8632L16.7043 22.9489L16.0189 22.2201L13.1045 25.1344L13.7899 25.8632ZM20.2017 31.5462L13.7899 25.1344L13.1045 25.8632L19.5163 32.275L20.2017 31.5462ZM31.4402 19.6223L19.5163 31.5462L20.2017 32.275L32.1256 20.3511L31.4402 19.6223ZM22.5903 33.935L20.7584 32.103L20.073 32.8318L21.9049 34.6637L22.5903 33.935ZM25.9213 32.2763C25.1135 32.7797 24.2901 33.2922 23.6051 33.6163C23.2606 33.7793 22.9827 33.879 22.7787 33.9142C22.5555 33.9526 22.5495 33.8941 22.5903 33.935L21.9049 34.6637C22.2106 34.9694 22.628 34.9694 22.941 34.9155C23.2732 34.8583 23.6443 34.7147 24.0157 34.539C24.7624 34.1857 25.6383 33.639 26.4306 33.1451L25.9213 32.2763ZM26.0038 32.2248L25.9213 32.2762L26.4306 33.1451L26.5131 33.0937L26.0038 32.2248ZM29.1079 30.7914C28.6574 30.7761 28.1375 30.9939 27.6533 31.2453C27.1466 31.5083 26.5766 31.8654 26.0025 32.2256L26.5144 33.0929C27.0977 32.7268 27.6317 32.3931 28.0959 32.1521C28.5826 31.8995 28.9007 31.8001 29.0756 31.806L29.1079 30.7914ZM32.366 33.5862C31.9071 32.9356 31.4216 32.245 30.9141 31.7252C30.4154 31.2144 29.8027 30.7702 29.0778 30.7913L29.1057 31.8061C29.4116 31.7972 29.7714 31.9858 30.2203 32.4455C30.6604 32.8963 31.0975 33.5137 31.5698 34.1833L32.366 33.5862ZM32.3799 33.6059L32.366 33.5862L31.5698 34.1833L31.5837 34.2031L32.3799 33.6059ZM33.7816 35.4236C33.3351 34.9771 32.8763 34.3201 32.3819 33.6088L31.5817 34.2002C32.0594 34.8875 32.5728 35.629 33.0962 36.1524L33.7816 35.4236ZM34.5485 35.7334C34.2743 35.7438 33.9923 35.6343 33.7816 35.4236L33.0962 36.1524C33.4961 36.5524 34.0376 36.7688 34.585 36.7479L34.5485 35.7334ZM35.3292 35.4176C35.1228 35.6241 34.838 35.7344 34.5693 35.733L34.5642 36.7482C35.0816 36.751 35.6169 36.5441 36.0146 36.1464L35.3292 35.4176ZM35.6387 34.6569C35.6271 34.9589 35.5266 35.2203 35.3292 35.4176L36.0146 36.1464C36.4215 35.7395 36.6026 35.2164 36.6224 34.6968L35.6387 34.6569ZM35.3175 33.9311C35.529 34.1427 35.6369 34.4246 35.6383 34.6796L36.6228 34.6741C36.62 34.143 36.402 33.6014 36.0029 33.2023L35.3175 33.9311ZM33.5015 32.5306C34.2128 33.025 34.8706 33.4843 35.3175 33.9311L36.0029 33.2023C35.4799 32.6793 34.7391 32.1665 34.0518 31.6887L33.5015 32.5306ZM33.4789 32.5147L33.4987 32.5286L34.0546 31.6907L34.0348 31.6768L33.4789 32.5147ZM30.6788 29.2043C30.6571 29.9487 31.1122 30.5688 31.6191 31.0636C32.1385 31.5708 32.8284 32.0558 33.479 32.5147L34.0348 31.6768C33.3652 31.2044 32.7471 30.7669 32.296 30.3264C31.8323 29.8737 31.6546 29.5213 31.6629 29.2348L30.6788 29.2043ZM32.1215 26.1156C31.7644 26.6846 31.4061 27.2551 31.1412 27.7627C31.0081 28.0176 30.8921 28.269 30.81 28.5069C30.7295 28.7401 30.6706 28.9915 30.6789 29.2373L31.6628 29.2019C31.6606 29.1371 31.6769 29.0231 31.7375 28.8473C31.7966 28.6761 31.8877 28.4747 32.0082 28.2438C32.2503 27.7797 32.5844 27.2467 32.9481 26.6672L32.1215 26.1156ZM32.1359 26.0928L32.1215 26.1156L32.9481 26.6672L32.9625 26.6443L32.1359 26.0928ZM32.2092 25.9744L32.1343 26.0954L32.9641 26.6417L33.039 26.5207L32.2092 25.9744ZM33.8288 22.7399C33.7823 22.6934 33.8385 22.684 33.8033 22.8945C33.7707 23.0892 33.6757 23.3588 33.517 23.6975C33.2017 24.3704 32.7016 25.1793 32.2092 25.9744L33.039 26.5208C33.5211 25.7422 34.0574 24.8777 34.4035 24.1393C34.5754 23.7723 34.7175 23.4018 34.7735 23.0671C34.8269 22.7482 34.8234 22.3202 34.5142 22.0111L33.8288 22.7399ZM31.9969 20.9079L33.8288 22.7399L34.5142 22.0111L32.6823 20.1791L31.9969 20.9079ZM20.7584 32.8318L32.6823 20.9079L31.9969 20.1791L20.073 32.103L20.7584 32.8318Z" fill="#008DF5"/>
</svg>
