<svg width="25" height="25" viewBox="0 0 25 25" fill="none" xmlns="http://www.w3.org/2000/svg">
<g clip-path="url(#clip0_670:208)">
<path d="M14.4443 1.82342C12.7774 0.564248 10.7018 -0.0797542 8.59889 0.00823232C6.49158 0.0969582 4.48975 0.917673 2.96072 2.31954C-0.301656 5.31108 -0.948526 10.1696 1.42284 13.8709C2.60373 15.7142 4.23897 16.9697 6.28211 17.6011C9.08054 18.4662 11.6983 18.0521 14.285 16.3345L14.5867 16.1342L23.4238 25.0001L24.9993 23.4289L24.9956 23.4252L16.1459 14.5563L16.3569 14.2517C17.7524 12.2391 18.2813 9.81688 17.8461 7.43163C17.4375 5.19204 16.1976 3.14839 14.4443 1.82342ZM8.99793 15.7556C8.99645 15.7556 8.99498 15.7556 8.99424 15.7556C7.18861 15.7549 5.49436 15.051 4.22422 13.7741C2.95408 12.4971 2.25632 10.7973 2.26001 8.9873C2.26738 5.28151 5.29004 2.26483 8.99866 2.26261C8.9994 2.26261 9.00088 2.26261 9.00161 2.26261C10.8065 2.26261 12.5022 2.96946 13.7783 4.25377C15.0506 5.53438 15.7469 7.23126 15.7388 9.03092C15.7218 12.7404 12.6984 15.7556 8.99793 15.7556Z" fill="#134F2B"/>
</g>
<defs>
<clipPath id="clip0_670:208">
<rect width="25" height="25" fill="white"/>
</clipPath>
</defs>
</svg>
