<svg width="21" height="21" viewBox="0 0 21 21" fill="none" xmlns="http://www.w3.org/2000/svg">
<path d="M20.625 1.86397V19.136C20.625 19.5309 20.4681 19.9097 20.1889 20.1889C19.9097 20.4681 19.5309 20.625 19.136 20.625H1.86397C1.46907 20.625 1.09035 20.4681 0.811109 20.1889C0.531873 19.9097 0.375 19.5309 0.375 19.136L0.375 1.86397C0.375 1.46907 0.531873 1.09035 0.811109 0.811109C1.09035 0.531873 1.46907 0.375 1.86397 0.375L19.136 0.375C19.5309 0.375 19.9097 0.531873 20.1889 0.811109C20.4681 1.09035 20.625 1.46907 20.625 1.86397ZM6.33088 8.11765H3.35294V17.6471H6.33088V8.11765ZM6.5989 4.84191C6.60047 4.61665 6.55765 4.39329 6.4729 4.18458C6.38814 3.97587 6.26311 3.7859 6.10493 3.62551C5.94676 3.46513 5.75854 3.33747 5.55103 3.24982C5.34352 3.16218 5.12077 3.11626 4.89551 3.11471H4.84191C4.38383 3.11471 3.94451 3.29668 3.62059 3.62059C3.29668 3.94451 3.11471 4.38383 3.11471 4.84191C3.11471 5.29999 3.29668 5.73932 3.62059 6.06323C3.94451 6.38714 4.38383 6.56912 4.84191 6.56912C5.06718 6.57466 5.29134 6.53576 5.50157 6.45464C5.71181 6.37352 5.904 6.25177 6.06716 6.09635C6.23033 5.94093 6.36127 5.75488 6.45251 5.54884C6.54374 5.34279 6.59349 5.12079 6.5989 4.89551V4.84191ZM17.6471 11.8579C17.6471 8.99316 15.8246 7.87941 14.014 7.87941C13.4211 7.84973 12.8309 7.97599 12.3021 8.24562C11.7733 8.51524 11.3245 8.91879 11.0003 9.41603H10.9169V8.11765H8.11765V17.6471H11.0956V12.5786C11.0525 12.0595 11.2161 11.5444 11.5506 11.1452C11.8852 10.7459 12.3637 10.4948 12.8824 10.4464H12.9955C13.9425 10.4464 14.6453 11.042 14.6453 12.5429V17.6471H17.6232L17.6471 11.8579Z" fill="#0A2540"/>
</svg>
