<svg xmlns="http://www.w3.org/2000/svg" width="29.826" height="31" viewBox="0 0 29.826 31">
  <g id="icon_cart" transform="translate(-9.698 0)">
    <g id="Group_102" data-name="Group 102" transform="translate(9.698 0)">
      <g id="Group_101" data-name="Group 101" transform="translate(0 0)">
        <path id="Path_66" data-name="Path 66" d="M133.858,382.711a3.914,3.914,0,1,0,3.914,3.914A3.918,3.918,0,0,0,133.858,382.711Zm0,5.48a1.566,1.566,0,1,1,1.566-1.566A1.567,1.567,0,0,1,133.858,388.191Z" transform="translate(-122.664 -359.539)"/>
        <path id="Path_67" data-name="Path 67" d="M325.209,382.711a3.914,3.914,0,1,0,3.914,3.914A3.918,3.918,0,0,0,325.209,382.711Zm0,5.48a1.566,1.566,0,1,1,1.566-1.566A1.567,1.567,0,0,1,325.209,388.191Z" transform="translate(-302.429 -359.539)"/>
        <path id="Path_68" data-name="Path 68" d="M39.269,7.645a1.175,1.175,0,0,0-.919-.443H17.789L16.722,1.807a1.174,1.174,0,0,0-.94-.927l-4.7-.861a1.174,1.174,0,1,0-.423,2.31l3.912.717,3.446,17.417a1.174,1.174,0,0,0,1.152.946H35.61a1.174,1.174,0,0,0,1.144-.91l2.74-11.86A1.173,1.173,0,0,0,39.269,7.645ZM34.676,19.062H20.135L18.253,9.551H36.873Z" transform="translate(-9.698 0)"/>
      </g>
    </g>
  </g>
</svg>
