<svg xmlns="http://www.w3.org/2000/svg" width="33.201" height="33.432" viewBox="0 0 33.201 33.432">
  <g id="icon_user_wishlist" transform="translate(-1.776)">
    <path id="Path_59" data-name="Path 59" d="M21.183,282.453l-.027-.027a6.083,6.083,0,0,1,3.352-10.309,28.088,28.088,0,0,0-8.013-1.235h-.434q-.207,0-.414.006l-.067,0-.334.01-.105,0-.311.014-.1,0q-.4.022-.806.055l-.087.008-.313.029-.112.011-.306.033-.1.011q-.4.047-.8.1l-.1.015-.3.046-.116.019-.3.052-.092.016q-.2.036-.4.074l-.019,0-.37.075-.11.023-.287.063-.118.027-.306.072-.085.02q-.2.048-.392.1l-.056.015-.33.089-.116.032-.278.079-.118.034-.311.094-.074.022q-.193.06-.385.123l-.077.025-.3.1-.118.041-.273.1-.115.041-.323.12-.054.02q-.19.072-.379.147l-.088.035-.288.117-.117.049-.27.115-.108.047q-.174.076-.348.154l-.021.009q-.187.085-.372.172l-.093.044-.277.134-.113.055-.271.136-.1.049q-.183.094-.364.19a2.463,2.463,0,0,0-1.307,2.175h0V281.8h0a2.6,2.6,0,0,0,2.6,2.6h18.75Z" transform="translate(0 -253.193)" fill-rule="evenodd"/>
    <path id="Path_60" data-name="Path 60" d="M306.814,312.785h0a4.6,4.6,0,0,0-5.712-.632,4.557,4.557,0,0,0-.935-.453,4.61,4.61,0,0,0-.443-.131l-.086-.02a4.59,4.59,0,0,0-.5-.083l-.038,0a4.6,4.6,0,0,0-3.708,7.823l.022.022,4.9,4.9a1.115,1.115,0,0,0,.788.326h0a1.115,1.115,0,0,0,.788-.326l4.924-4.924A4.6,4.6,0,0,0,306.814,312.785Z" transform="translate(-273.184 -291.102)" fill-rule="evenodd"/>
    <path id="Path_61" data-name="Path 61" d="M115.527,15.6a7.8,7.8,0,1,0,0-15.6h0a7.8,7.8,0,0,0,0,15.6Z" transform="translate(-99.032 0)" fill-rule="evenodd"/>
  </g>
</svg>
