<svg id="time-is-money" xmlns="http://www.w3.org/2000/svg" width="36" height="36" viewBox="0 0 36 36">
  <g id="Group_151" data-name="Group 151">
    <g id="Group_150" data-name="Group 150">
      <path id="Path_81" data-name="Path 81" d="M18,33A15,15,0,0,1,18,3c6.938,0,13.269,4.589,15.057,10.908a1.5,1.5,0,0,0,2.886-.816C33.8,5.5,26.252,0,18,0a18,18,0,0,0,0,36,1.5,1.5,0,0,0,0-3Z"/>
      <path id="Path_82" data-name="Path 82" d="M176.667,128a1.5,1.5,0,0,0-1.5,1.5v6h-3a1.5,1.5,0,0,0,0,3h4.5a1.5,1.5,0,0,0,1.5-1.5v-7.5A1.5,1.5,0,0,0,176.667,128Z" transform="translate(-158.667 -119)"/>
      <path id="Path_83" data-name="Path 83" d="M309.167,222.334h-1.5v-3h3a1.5,1.5,0,1,0,0-3h-3v-1.5a1.5,1.5,0,1,0-3,0v1.5h-1.5a4.5,4.5,0,0,0,0,9h1.5v3h-3a1.5,1.5,0,0,0,0,3h3v1.5a1.5,1.5,0,1,0,3,0v-1.5h1.5a4.5,4.5,0,0,0,0-9Zm-4.5,0h-1.5a1.5,1.5,0,1,1,0-3h1.5Zm4.5,6h-1.5v-3h1.5a1.5,1.5,0,0,1,0,3Z" transform="translate(-277.667 -198.334)"/>
    </g>
  </g>
</svg>
