<svg xmlns="http://www.w3.org/2000/svg" width="66.101" height="66.254" viewBox="0 0 66.101 66.254">
  <g id="customer-service" transform="translate(-0.572)">
    <g id="Group_136" data-name="Group 136" transform="translate(0.573 10.686)">
      <g id="Group_135" data-name="Group 135" transform="translate(0)">
        <path id="Path_72" data-name="Path 72" d="M54.27,127.019,51.8,119.6a7.48,7.48,0,0,0-5.759-4.994L38.9,113.3v-.554a10.755,10.755,0,0,0,3.186-2.829h2.158a3.21,3.21,0,0,0,3.206-3.206V93.892a13.892,13.892,0,0,0-27.784,0v7.48a4.281,4.281,0,0,0,3.408,4.186,10.706,10.706,0,0,0,5.141,7.192v.554l-7.143,1.3A7.479,7.479,0,0,0,15.31,119.6l-.427,1.283-3.64-3.64a1.071,1.071,0,0,1,0-1.512l4.221-4.22-7.923-7.923-4.77,4.77a7.48,7.48,0,0,0,0,10.578l14.442,14.442a7.477,7.477,0,0,0,10.545.032l5.205-4.769-1.623-1.62Zm-8.962-20.3a1.07,1.07,0,0,1-1.069,1.069h-.9a10.614,10.614,0,0,0,.7-2.226,4.233,4.233,0,0,0,1.271-.505Zm-1.069-3.5v-3.68a2.119,2.119,0,0,1,0,3.68Zm-21.372,0a2.119,2.119,0,0,1,0-3.68Zm0-7.183v1.22a4.238,4.238,0,0,0-1.069.442v-3.8a11.755,11.755,0,0,1,23.51,0v3.8a4.2,4.2,0,0,0-1.069-.442v-1.22H43.171A11.757,11.757,0,0,1,34.8,92.564l-1.251-1.251L32.3,92.564a11.757,11.757,0,0,1-8.366,3.465ZM25,103.51V98.126a13.854,13.854,0,0,0,8.549-3.8,13.849,13.849,0,0,0,8.549,3.8v5.384a8.485,8.485,0,0,1-1.156,4.274H33.553v2.137h5.636A8.535,8.535,0,0,1,25,103.51ZM36.759,113.7v.05l-3.206,3.206-3.206-3.206v-.05a10.677,10.677,0,0,0,6.412,0Zm-19.423,6.569a5.345,5.345,0,0,1,4.113-3.568l7.47-1.357,4.635,4.635,4.634-4.634,7.469,1.357a5.343,5.343,0,0,1,4.113,3.568l1.538,4.609H29.2l-4.162-4.162L20.416,124.9a1.091,1.091,0,0,1-1.511,0l-2.334-2.334Zm-9.8-13.664,4.9,4.9-1.161,1.161-4.9-4.9Zm18.738,25.26a5.344,5.344,0,0,1-7.556,0L4.28,117.424a5.344,5.344,0,0,1,0-7.556l.588-.588,4.9,4.9-.038.038a3.211,3.211,0,0,0,0,4.534l7.663,7.663a3.189,3.189,0,0,0,2.268.939,3.146,3.146,0,0,0,2.228-.9l.08-.072,4.923,4.923Zm2.191-2.009-4.912-4.912,1.412-1.276,4.9,4.9Z" transform="translate(-0.58 -80)" fill="#fff"/>
      </g>
    </g>
    <g id="Group_138" data-name="Group 138" transform="translate(45.301)">
      <g id="Group_137" data-name="Group 137">
        <path id="Path_73" data-name="Path 73" d="M353.594,0H338.634a3.21,3.21,0,0,0-3.206,3.206v8.549a3.21,3.21,0,0,0,3.206,3.206h2.854l-1.1,6.445L350.7,14.961h2.9a3.21,3.21,0,0,0,3.206-3.206V3.206A3.21,3.21,0,0,0,353.594,0Zm1.069,11.755a1.07,1.07,0,0,1-1.069,1.069h-3.513L343.3,17.065l.728-4.241h-5.389a1.07,1.07,0,0,1-1.069-1.069V3.206a1.07,1.07,0,0,1,1.069-1.069h14.961a1.07,1.07,0,0,1,1.069,1.069Z" transform="translate(-335.428)" fill="#fff"/>
      </g>
    </g>
    <g id="Group_140" data-name="Group 140" transform="translate(49.575 4.274)">
      <g id="Group_139" data-name="Group 139">
        <rect id="Rectangle_93" data-name="Rectangle 93" width="12.823" height="2.137" fill="#fff"/>
      </g>
    </g>
    <g id="Group_142" data-name="Group 142" transform="translate(49.575 8.549)">
      <g id="Group_141" data-name="Group 141">
        <rect id="Rectangle_94" data-name="Rectangle 94" width="8.549" height="2.137" fill="#fff"/>
      </g>
    </g>
    <g id="Group_144" data-name="Group 144" transform="translate(60.262 8.549)">
      <g id="Group_143" data-name="Group 143">
        <rect id="Rectangle_95" data-name="Rectangle 95" width="2.137" height="2.137" fill="#fff"/>
      </g>
    </g>
    <g id="Group_146" data-name="Group 146" transform="translate(0.572 3.206)">
      <g id="Group_145" data-name="Group 145" transform="translate(0)">
        <path id="Path_74" data-name="Path 74" d="M33.546,24A29.9,29.9,0,0,0,4.43,47.13L2.4,43.754l-1.833,1.1,3.756,6.259,6.259-3.756-1.1-1.833-2.9,1.738A27.791,27.791,0,0,1,41.779,27.377l.633-2.041A29.9,29.9,0,0,0,33.546,24Z" transform="translate(-0.572 -24)" fill="#fff"/>
      </g>
    </g>
    <g id="Group_148" data-name="Group 148" transform="translate(55.133 19.905)">
      <g id="Group_147" data-name="Group 147">
        <path id="Path_75" data-name="Path 75" d="M420.057,152.772l-6.259-3.756-3.755,6.26,1.833,1.1,1.87-3.117a27.808,27.808,0,0,1-4.709,26.473l1.66,1.346a29.925,29.925,0,0,0,5.121-28.357l3.141,1.884Z" transform="translate(-409.036 -149.016)" fill="#fff"/>
      </g>
    </g>
  </g>
</svg>
