<svg xmlns="http://www.w3.org/2000/svg" width="52.806" height="36" viewBox="0 0 52.806 36">
  <path id="Path_71" data-name="Path 71" d="M43.172,104.473a4.876,4.876,0,0,0-3.441,1.419,4.778,4.778,0,0,0,0,6.839,4.895,4.895,0,0,0,3.441,1.419,4.839,4.839,0,0,0,0-9.677Zm0,7.527a2.689,2.689,0,1,1,0-5.376,2.689,2.689,0,0,1,0,5.376Zm.874-23.5a.777.777,0,0,0-.536-.208H39.4a.8.8,0,0,0-.8.8v6.565a.8.8,0,0,0,.8.8H45.92a.8.8,0,0,0,.8-.8v-4.4a.8.8,0,0,0-.264-.592ZM16.914,104.473a4.876,4.876,0,0,0-3.441,1.419,4.778,4.778,0,0,0,0,6.839,4.895,4.895,0,0,0,3.441,1.419,4.839,4.839,0,0,0,0-9.677Zm0,7.527a2.689,2.689,0,1,1,0-5.376,2.689,2.689,0,0,1,0,5.376Zm-7.172-6.2H7.581v-2.86a1.075,1.075,0,0,0-2.151,0v3.935a1.078,1.078,0,0,0,1.075,1.075H9.742a1.075,1.075,0,1,0,0-2.151Zm5.452-5.86a1.078,1.078,0,0,0-1.075-1.075H1.075a1.075,1.075,0,0,0,0,2.151H14.118A1.072,1.072,0,0,0,15.194,99.935ZM3.258,96.053l13.043.075a1.086,1.086,0,0,0,1.086-1.065,1.065,1.065,0,0,0-1.065-1.086L3.28,93.9H3.269a1.075,1.075,0,0,0-.011,2.151Zm2.194-4.882H18.495a1.075,1.075,0,1,0,0-2.151H5.452a1.075,1.075,0,1,0,0,2.151ZM52.409,89.72h0l-7.7-6.376a1.059,1.059,0,0,0-.688-.247H34.968V79.225a1.078,1.078,0,0,0-1.075-1.075H6.505A1.078,1.078,0,0,0,5.43,79.225V87.1a1.075,1.075,0,1,0,2.151,0V80.3H32.828V105.8H24.011a1.075,1.075,0,1,0,0,2.151H37.14a1.075,1.075,0,1,0,0-2.151H34.978V85.247h8.667l7.011,5.806-.075,14.72H49.462a1.075,1.075,0,1,0,0,2.151h2.183a1.069,1.069,0,0,0,1.075-1.065l.086-16.3A1.136,1.136,0,0,0,52.409,89.72Z" transform="translate(0 -78.15)"/>
</svg>
