<svg id="icon_search" xmlns="http://www.w3.org/2000/svg" width="33.59" height="33.432" viewBox="0 0 33.59 33.432">
  <path id="Path_37" data-name="Path 37" d="M24.813,12.406A12.406,12.406,0,1,0,12.406,24.813,12.42,12.42,0,0,0,24.813,12.406ZM12.406,2.363A10.043,10.043,0,1,1,2.363,12.406,10.058,10.058,0,0,1,12.406,2.363Z" fill="#fff"/>
  <path id="Path_38" data-name="Path 38" d="M7.187,19.467a1.183,1.183,0,0,0,1.022.591A1.152,1.152,0,0,0,8.8,19.9a1.191,1.191,0,0,0,.549-.715,1.163,1.163,0,0,0-.118-.9A6.5,6.5,0,0,1,13.208,8.75a1.165,1.165,0,0,0,.721-.549A1.183,1.183,0,0,0,12.6,6.464h0a8.864,8.864,0,0,0-5.417,13Z" transform="translate(-2.455 -2.63)" fill="#fff"/>
  <path id="Path_39" data-name="Path 39" d="M47.1,42.246l-6.782-6.782a2.412,2.412,0,0,0-3.344,0l-1.252,1.252a2.368,2.368,0,0,0,0,3.344L42.5,46.842a3.016,3.016,0,0,0,2.1.827,2.832,2.832,0,0,0,1.128-.23l.2-.089,1.672-1.672.089-.2A3.04,3.04,0,0,0,47.1,42.246Zm-2.924,2.918-6.782-6.776,1.252-1.252,6.782,6.782a.738.738,0,0,1,.136.461l-.928.928A.681.681,0,0,1,44.175,45.164Z" transform="translate(-14.335 -14.237)" fill="#fff"/>
</svg>
