<svg id="Group_149" data-name="Group 149" xmlns="http://www.w3.org/2000/svg" width="36" height="36" viewBox="0 0 36 36">
  <path id="Path_76" data-name="Path 76" d="M92.593,290.25H86.458a1.125,1.125,0,0,1,0-2.25h6.135a1.125,1.125,0,0,1,0,2.25Z" transform="translate(-79.333 -267.75)"/>
  <path id="Path_77" data-name="Path 77" d="M91.708,354.25h-5.25a1.125,1.125,0,0,1,0-2.25h5.25a1.125,1.125,0,0,1,0,2.25Z" transform="translate(-79.333 -327.25)"/>
  <path id="Path_78" data-name="Path 78" d="M12.375,31.5H4.125A4.128,4.128,0,0,1,0,27.375V4.125A4.128,4.128,0,0,1,4.125,0h17.25A4.128,4.128,0,0,1,25.5,4.125v8.34a1.125,1.125,0,1,1-2.25,0V4.125A1.878,1.878,0,0,0,21.375,2.25H4.125A1.878,1.878,0,0,0,2.25,4.125v23.25A1.878,1.878,0,0,0,4.125,29.25h8.25a1.125,1.125,0,0,1,0,2.25Z"/>
  <circle id="Ellipse_14" data-name="Ellipse 14" cx="3" cy="3" r="3" transform="translate(9.75 4.5)"/>
  <path id="Path_79" data-name="Path 79" d="M106.875,176.667h-9.75A1.125,1.125,0,0,1,96,175.542v-.75a4.128,4.128,0,0,1,4.125-4.125h3.75A4.128,4.128,0,0,1,108,174.792v.75A1.125,1.125,0,0,1,106.875,176.667Z" transform="translate(-89.25 -158.667)"/>
  <path id="Path_80" data-name="Path 80" d="M244.417,234.667a9.75,9.75,0,1,0,9.75,9.75A9.761,9.761,0,0,0,244.417,234.667Zm4.878,7.363-5.25,6a1.5,1.5,0,0,1-2.189.072l-3-3a1.5,1.5,0,0,1,2.121-2.121l1.866,1.866,4.194-4.794a1.5,1.5,0,1,1,2.257,1.977Z" transform="translate(-218.167 -218.167)"/>
</svg>
