<svg xmlns="http://www.w3.org/2000/svg" width="28.644" height="32" viewBox="0 0 28.644 32">
  <g id="icon_user" transform="translate(-24.165)">
    <g id="Group_105" data-name="Group 105" transform="translate(30.18)">
      <g id="Group_104" data-name="Group 104" transform="translate(0)">
        <path id="Path_69" data-name="Path 69" d="M119.1,0a8.308,8.308,0,1,0,8.308,8.308A8.33,8.33,0,0,0,119.1,0Z" transform="translate(-110.791)"/>
      </g>
    </g>
    <g id="Group_107" data-name="Group 107" transform="translate(24.165 17.211)">
      <g id="Group_106" data-name="Group 106" transform="translate(0)">
        <path id="Path_70" data-name="Path 70" d="M52.748,253.886a7.754,7.754,0,0,0-.834-1.524,10.328,10.328,0,0,0-7.147-4.5,1.53,1.53,0,0,0-1.052.254,8.856,8.856,0,0,1-10.449,0,1.362,1.362,0,0,0-1.052-.254,10.253,10.253,0,0,0-7.147,4.5,8.934,8.934,0,0,0-.834,1.524.772.772,0,0,0,.036.689,14.431,14.431,0,0,0,.98,1.451,13.792,13.792,0,0,0,1.669,1.887,21.768,21.768,0,0,0,1.669,1.451,16.545,16.545,0,0,0,19.737,0,15.961,15.961,0,0,0,1.669-1.451,16.748,16.748,0,0,0,1.669-1.887,12.707,12.707,0,0,0,.98-1.451A.619.619,0,0,0,52.748,253.886Z" transform="translate(-24.165 -247.841)"/>
      </g>
    </g>
  </g>
</svg>
