<svg xmlns="http://www.w3.org/2000/svg" width="12.976" height="12.435" viewBox="0 0 12.976 12.435">
  <path id="Path_56" data-name="Path 56" d="M-1283.951,26.311a.689.689,0,0,0-.594-.474l-3.745-.34-1.481-3.467a.69.69,0,0,0-.634-.418.69.69,0,0,0-.634.419l-1.481,3.466-3.746.34a.687.687,0,0,0-.593.474.69.69,0,0,0,.2.733l2.831,2.483-.835,3.677a.69.69,0,0,0,.269.712.679.679,0,0,0,.4.132.686.686,0,0,0,.354-.1l3.23-1.931,3.229,1.931a.688.688,0,0,0,.758-.033.691.691,0,0,0,.269-.712l-.835-3.677,2.831-2.483A.69.69,0,0,0-1283.951,26.311Z" transform="translate(1296.892 -21.612)" fill="#d6d6d6"/>
</svg>
