<svg xmlns="http://www.w3.org/2000/svg" width="46" height="46" viewBox="0 0 46 46">
  <g id="Group_76" data-name="Group 76" transform="translate(-2013 -1299)">
    <circle id="Ellipse_11" data-name="Ellipse 11" cx="23" cy="23" r="23" transform="translate(2013 1299)" fill="#c70000"/>
    <g id="Group_71" data-name="Group 71" transform="translate(2024.224 1312)">
      <path id="Path_59" data-name="Path 59" d="M13.386,277.8l-.016-.016a3.639,3.639,0,0,1,2-6.167,16.8,16.8,0,0,0-4.793-.739h-.259l-.247,0h-.04l-.2.006-.063,0-.186.008-.057,0q-.241.013-.482.033l-.052,0-.187.017-.067.007-.183.02-.057.006q-.239.028-.477.062l-.06.009-.179.028-.069.011-.182.031-.055.01-.238.044-.011,0-.222.045-.066.014-.172.038L6.7,271.3l-.183.043-.051.012-.234.059-.033.009-.2.053-.069.019-.166.047-.071.021-.186.056-.044.013-.23.073-.046.015L5,271.785l-.07.024-.163.058-.069.025-.193.072-.032.012-.226.088-.053.021-.172.07-.07.029-.162.069-.064.028-.208.092-.013.006-.223.1-.055.026-.166.08L3,272.621l-.162.081-.058.03-.218.114a1.473,1.473,0,0,0-.782,1.3h0v3.264h0a1.556,1.556,0,0,0,1.556,1.556H14.548Z" transform="translate(0 -260.3)" fill="#fff" fill-rule="evenodd"/>
      <path id="Path_60" data-name="Path 60" d="M301.684,312.244h0a6.024,6.024,0,0,1-3.976-.649,2.752,2.752,0,0,0-.265-.078l-.051-.012a2.744,2.744,0,0,0-.3-.05l-.023,0a2.749,2.749,0,0,0-2.218,4.68l.013.013,2.932,2.932a.667.667,0,0,0,.471.2h0a.667.667,0,0,0,.471-.2l2.945-2.946A2.749,2.749,0,0,0,301.684,312.244Z" transform="translate(-280.852 -299.273)" fill="#febe2c" fill-rule="evenodd"/>
      <path id="Path_61" data-name="Path 61" d="M112.393,9.333a4.667,4.667,0,1,0,0-9.333h0a4.667,4.667,0,0,0,0,9.333Z" transform="translate(-101.811 0)" fill="#fff" fill-rule="evenodd"/>
    </g>
  </g>
</svg>
