<svg width="59" height="60" viewBox="0 0 59 60" fill="none" xmlns="http://www.w3.org/2000/svg">
<g clip-path="url(#clip0_74_508)">
<path d="M46.868 48.6618C46.0602 48.1839 45.7122 47.6917 45.7313 46.7096C45.8004 43.2304 45.7099 39.7463 45.7837 36.267C45.8099 35.052 45.3572 34.5526 44.2252 34.3317C41.8946 33.8755 39.583 33.3184 37.1761 32.7829C37.1761 30.5499 37.1713 28.3552 37.1761 26.1606C37.1785 25.1137 36.7376 24.2372 35.7153 24.134C34.6691 24.0283 34.1019 23.3992 33.4609 22.7677C32.5815 21.9009 31.7069 21.0269 30.8276 20.1577C29.6766 19.0195 29.424 19.0147 28.3063 20.1217C27.203 21.2166 26.1139 22.3259 24.9915 23.3992C24.7222 23.6562 24.3647 23.9011 24.012 23.9779C22.3224 24.3453 21.9221 24.8087 21.9197 26.588C21.9149 28.6554 21.9197 30.7228 21.9197 32.7925C19.4604 33.3424 17.1464 33.9019 14.8134 34.3605C13.7243 34.5742 13.2954 35.0592 13.3168 36.2166C13.3812 39.7367 13.3216 43.2592 13.3573 46.7793C13.3645 47.4708 13.1262 47.8214 12.5471 48.1839C10.929 49.1924 9.31326 50.2201 7.80954 51.3871C5.2263 53.3944 3.02434 55.7836 1.14648 58.5737C1.70412 58.9579 2.17597 59.2869 2.65497 59.6182C3.46044 58.6169 4.17536 57.7237 4.90697 56.8161C6.24148 57.498 7.4926 58.1031 8.70796 58.7706C9.43003 59.1668 10.0139 59.1188 10.6668 58.6001C11.775 57.7189 12.9427 56.9097 14.108 56.0525C14.4869 56.5375 14.8086 56.8929 15.066 57.2915C15.6713 58.2304 16.3934 58.3888 17.237 57.6493C18.6001 56.4535 20.1562 56.0645 21.9531 56.1918C23.5759 56.307 23.8428 55.7956 23.2304 54.23C22.811 53.1591 22.3915 52.0882 21.9102 50.8588C24.2074 50.4146 25.1559 48.8731 25.3585 46.7336C25.4204 46.0757 25.766 45.7852 26.4618 45.7972C28.3635 45.8332 30.27 45.7468 32.1693 45.8308C33.387 45.886 34.5952 46.1574 35.8082 46.3326C35.8344 46.4455 35.8606 46.5584 35.8845 46.6688C33.5371 47.3387 31.9715 48.8635 30.849 50.9501C30.4249 51.7376 30.4582 52.2539 31.1326 52.8086C32.3909 53.8483 33.5848 54.9744 34.886 55.9541C35.3721 56.3214 36.1514 56.6576 36.6876 56.5327C39.3661 55.9036 41.58 56.6048 43.4745 58.5425C44.0465 59.1284 44.6828 59.1404 45.4406 58.8739C47.6854 58.0815 49.966 57.3948 52.2013 56.5784C52.9877 56.2902 53.4429 56.4583 53.9076 57.0898C54.6321 58.0719 55.4137 59.0083 56.2001 60.0048C56.7411 59.6254 57.2129 59.2941 57.6776 58.9675C55.2588 55.0969 51.2672 51.267 46.868 48.6666V48.6618ZM29.5098 21.7304C30.2175 22.4532 30.8967 23.1495 31.6283 23.8963H27.4961C28.1824 23.1567 28.8425 22.446 29.5074 21.7304H29.5098ZM15.3091 36.2718C15.7404 36.1614 16.0812 36.0605 16.4291 35.9837C18.2021 35.5875 19.9775 35.1985 21.841 34.7879V44.4597C19.6891 45.1657 17.5253 45.8764 15.3091 46.6064V36.2718ZM21.7553 48.9139C19.4723 49.9224 19.5056 49.9896 20.4303 52.3307C20.6614 52.9166 20.8711 53.5145 21.169 54.3189C19.2316 53.9155 17.828 54.7751 16.4505 55.9036C15.9978 55.3154 15.6117 54.8207 15.2328 54.3189C14.7324 53.6538 14.1819 53.5601 13.5051 54.0788C12.497 54.8543 11.4247 55.5507 10.4524 56.3695C9.7994 56.9217 9.2513 56.9674 8.54353 56.5231C7.87865 56.1029 7.15182 55.7812 6.29391 55.3346C11.1601 50.5083 16.7699 47.55 23.371 46.2126C23.371 47.5764 22.9492 48.3856 21.7553 48.9139ZM31.3781 43.749H27.6891V41.2926H31.3781V43.749ZM35.2077 44.2196C34.6 44.1452 34.059 44.078 33.3656 43.9939C33.3656 42.8366 33.3417 41.732 33.3727 40.6299C33.4013 39.6622 32.9795 39.2492 32.0215 39.2661C30.3557 39.2949 28.69 39.2877 27.0242 39.2685C26.1282 39.2589 25.7112 39.655 25.7302 40.5651C25.754 41.6408 25.735 42.7165 25.735 43.8811C25.1106 43.9795 24.5411 44.0684 23.9 44.1692V25.9829H35.2053V44.222L35.2077 44.2196ZM37.1809 34.7591C39.4734 35.2729 41.5967 35.7484 43.7772 36.2358V46.8009C41.7111 46.1237 39.6831 45.4754 37.6742 44.7791C37.4597 44.7047 37.2047 44.3397 37.2023 44.1068C37.1713 41.0357 37.1809 37.9646 37.1809 34.7591ZM44.9997 56.9481C44.7757 57.0202 44.3706 56.8377 44.1823 56.6432C42.1543 54.5662 39.7617 53.8915 36.9568 54.5974C36.6637 54.6719 36.2205 54.559 35.9798 54.3669C34.8979 53.5049 33.8636 52.5828 32.7984 51.6704C33.3775 50.4602 34.0304 49.4541 35.2982 49.0195C35.558 48.9307 35.8297 48.8202 36.0418 48.6522C38.1579 46.9954 40.2407 47.3051 42.5094 48.4625C45.7742 50.1289 48.8531 52.009 51.6508 54.7367C49.3202 55.5219 47.1683 56.2638 44.9973 56.9505L44.9997 56.9481Z" fill="black"/>
<path d="M7.60214 31.6376C11.7749 31.6448 15.2041 28.252 15.2542 24.0691C15.3042 19.8071 11.9179 16.3062 7.71414 16.2702C3.48419 16.2366 0.0263631 19.6534 0.000149397 23.8987C-0.0260643 28.1415 3.40079 31.6328 7.60214 31.64V31.6376ZM9.43233 29.3997C9.07726 29.4934 8.7746 29.599 8.46242 29.6518C6.10319 30.0552 5.11898 28.9915 5.77432 26.6936C5.86488 26.3815 6.27238 26.1509 6.55597 25.9108C6.62984 25.8484 6.78713 25.8868 6.90628 25.8796C9.5634 25.6851 9.80886 26.0165 9.42995 29.4021L9.43233 29.3997ZM7.59022 22.1098C7.95483 22.1002 8.33374 22.5516 8.98431 22.991C8.3528 23.4424 7.9596 23.9323 7.67839 23.8747C7.30425 23.7954 6.85147 23.3344 6.75615 22.955C6.70134 22.7365 7.2828 22.1194 7.59022 22.1098ZM3.17916 20.3378C5.31439 17.6893 9.20832 17.4588 11.62 19.8383C13.9292 22.1146 13.9196 25.8772 11.8083 27.7405C11.3316 26.6936 10.8383 25.6635 10.4022 24.607C10.2974 24.3525 10.3379 24.0067 10.3927 23.7186C10.6453 22.41 10.2211 21.255 9.17734 20.5851C8.13594 19.92 7.07548 19.9296 6.04361 20.6091C5.00936 21.291 4.61377 22.4148 4.87829 23.757C4.92833 24.0139 4.99506 24.3237 4.89974 24.5446C4.44219 25.6275 3.93221 26.6888 3.46036 27.7117C1.55153 26.3695 1.28462 22.6837 3.17916 20.3378Z" fill="#EE3124"/>
<path d="M49.7582 31.5896C51.7052 30.9557 53.7165 30.4226 55.5348 29.5078C57.6867 28.4224 58.9878 26.4223 58.9997 23.9947C59.0093 22.0378 58.4898 20.0736 58.1442 18.1239C58.0084 17.3627 57.3959 17.0578 56.6929 17.2811C54.8532 17.867 52.9348 18.328 51.2286 19.1972C48.5976 20.5395 47.3894 22.9046 47.2012 25.9396C47.5777 27.522 47.9447 29.1044 48.3379 30.6843C48.5214 31.4191 49.0385 31.8225 49.7606 31.5872L49.7582 31.5896ZM51.2953 28.9699L56.5571 20.5587C57.9321 25.2049 56.1782 28.0142 51.2953 28.9699ZM54.7197 19.8359C53.0016 22.5924 51.331 25.2745 49.6772 27.923C48.2283 23.4617 51.0594 20.5875 54.7197 19.8359Z" fill="#EE3124"/>
<path d="M23.1607 7.85899C22.5387 9.30688 22.9105 10.6947 23.6659 11.9746C24.9552 14.1572 26.8783 15.6939 28.9873 17.0026C29.259 17.1707 29.8095 17.1947 30.0716 17.029C32.4046 15.5499 34.5804 13.8835 35.7791 11.2686C36.575 9.53019 36.3153 7.83017 35.1738 6.72084C33.9989 5.58029 32.0138 5.33778 30.4172 6.25742C29.7952 6.61519 29.371 6.68002 28.7252 6.29343C28.1032 5.92126 27.3287 5.8108 26.9355 5.68594C25.0314 5.76998 23.7994 6.37748 23.1631 7.86139L23.1607 7.85899ZM25.508 7.92862C26.4184 7.32353 27.648 7.61167 28.5679 8.64416C29.3805 9.559 29.6379 9.45815 30.5816 8.66337C31.1893 8.15193 32.0662 7.75814 32.8455 7.71012C33.7749 7.65489 34.292 8.40405 34.3349 9.68626C34.149 10.0921 33.9822 10.8532 33.5318 11.3527C32.4452 12.5556 31.2417 13.653 30.0406 14.7431C29.8595 14.9064 29.2995 14.9376 29.1422 14.7863C27.8244 13.5377 26.4327 12.3347 25.3198 10.9133C24.3999 9.73909 24.6406 8.5073 25.508 7.92862Z" fill="#EE3124"/>
<path d="M30.4177 0H28.6494V2.74452H30.4177V0Z" fill="black"/>
<path d="M20.8877 8.63934H18.1758V10.4594H20.8877V8.63934Z" fill="black"/>
<path d="M38.2148 10.4546H40.9268V8.63455H38.2148V10.4546Z" fill="black"/>
<path d="M23.9381 3.92828C23.2971 3.12149 22.7371 2.41555 22.239 1.78885C21.6838 2.24267 21.262 2.58843 20.833 2.939C21.5813 3.67135 22.2176 4.29565 22.9253 4.98718C23.29 4.6054 23.6689 4.20921 23.9381 3.92828Z" fill="black"/>
<path d="M38.2718 3.00864C37.8095 2.52841 37.4545 2.15863 37.0851 1.77444C36.3606 2.54281 35.7506 3.18872 35.2549 3.71217C35.5647 4.12037 35.9126 4.58139 36.2987 5.08804C37.0231 4.32447 37.6356 3.67856 38.2718 3.00624V3.00864Z" fill="black"/>
<path d="M33.306 27.8654H25.8184V29.6687H33.306V27.8654Z" fill="black"/>
<path d="M33.2896 31.7192H25.79V33.4961H33.2896V31.7192Z" fill="black"/>
<path d="M25.792 37.3379H33.2867V35.5659H25.792V37.3379Z" fill="black"/>
<path d="M42.8789 37.4724H38.2129V39.2324H42.8789V37.4724Z" fill="black"/>
<path d="M42.8191 41.3262H38.1816V43.0983H42.8191V41.3262Z" fill="black"/>
<path d="M16.2529 39.242H20.9214V37.4628H16.2529V39.242Z" fill="black"/>
<path d="M16.2812 43.1199H20.9187V41.307H16.2812V43.1199Z" fill="black"/>
</g>
<defs>
<clipPath id="clip0_74_508">
<rect width="59" height="60" fill="white"/>
</clipPath>
</defs>
</svg>
