<svg width="12" height="31" viewBox="0 0 12 31" fill="none" xmlns="http://www.w3.org/2000/svg">
<path d="M4.41763 0.810663C4.03692 0.647468 3.59599 0.8238 3.4328 1.20451L0.773396 7.40855C0.610201 7.78926 0.786533 8.23018 1.16724 8.39337C1.54795 8.55657 1.98888 8.38024 2.15207 7.99953L4.51599 2.48483L10.0307 4.84874C10.4114 5.01194 10.8523 4.8356 11.0155 4.45489C11.1787 4.07418 11.0024 3.63326 10.6217 3.47007L4.41763 0.810663ZM4.7713 30.1252C2.95227 26.9721 2.37429 24.4483 2.41071 22.2546C2.44741 20.0448 3.10648 18.1038 3.88417 16.0817C4.65167 14.0861 5.55072 11.9793 5.91767 9.59043C6.28969 7.16857 6.11788 4.47061 4.81851 1.22151L3.42576 1.77849C4.62587 4.77939 4.76629 7.20642 4.43506 9.36269C4.09876 11.552 3.27908 13.4764 2.48414 15.5433C1.6994 17.5837 0.95232 19.7365 0.910921 22.2297C0.869253 24.7392 1.54123 27.5279 3.472 30.8748L4.7713 30.1252Z" fill="black"/>
</svg>
