<svg width="28" height="28" viewBox="0 0 28 28" fill="none" xmlns="http://www.w3.org/2000/svg">
<path fill-rule="evenodd" clip-rule="evenodd" d="M22.3125 14C22.3131 15.8041 21.6943 17.5537 20.5594 18.9562C19.4246 20.3587 17.8427 21.3291 16.0781 21.7049C14.3136 22.0808 12.4735 21.8394 10.8657 21.0211C9.25781 20.2028 7.97966 18.8573 7.245 17.2095L4.81075 18.1983C5.77574 20.4093 7.47256 22.2207 9.61593 23.3279C11.7593 24.4351 14.2185 24.7706 16.5802 24.278C18.9418 23.7854 21.0618 22.4947 22.5838 20.6229C24.1058 18.7512 24.9369 16.4125 24.9375 14C24.9376 11.8085 24.252 9.67195 22.9768 7.8897C21.7016 6.10744 19.9008 4.76884 17.8266 4.0615C15.7524 3.35416 13.5089 3.31353 11.4105 3.9453C9.31205 4.57708 7.46388 5.84959 6.125 7.5845V4.375H3.5V11.375L4.8125 12.6875H10.9375V10.0625H7.616C8.48244 8.56043 9.82042 7.38633 11.4223 6.7224C13.0243 6.05847 14.8005 5.94184 16.4755 6.3906C18.1505 6.83936 19.6305 7.82842 20.6859 9.2043C21.7413 10.5802 22.3131 12.266 22.3125 14Z" fill="#222222"/>
</svg>
