<svg width="137" height="30" viewBox="0 0 137 30" fill="none" xmlns="http://www.w3.org/2000/svg">
<path d="M117.266 14.673C118.429 13.7225 119.559 12.8009 120.725 11.8487C121.807 12.6407 122.08 13.79 122.197 15.0885C123.525 13.9955 124.807 12.9394 126.127 11.8523C127.074 12.9496 128.34 13.7398 128.97 15.179C130.323 14.0652 131.647 12.9736 133.02 11.842C133.728 12.5918 134.462 13.283 135.091 14.0568C135.83 14.9668 136.148 16.0496 136.145 17.2256C136.137 19.7781 136.113 22.3307 136.153 24.8829C136.177 26.3713 135.602 27.5451 134.488 28.4942C133.745 29.1281 132.92 29.6324 131.919 30C131.919 29.7558 131.919 29.5827 131.919 29.4096C131.919 25.3645 131.915 21.3195 131.923 17.2744C131.923 16.7053 131.846 16.1863 131.273 15.9071C130.636 15.5968 130.005 15.71 129.407 16.0296C129.321 16.0758 129.259 16.2449 129.259 16.3577C129.251 19.4026 129.25 22.4475 129.256 25.4928C129.257 26.0815 129.53 26.552 130.028 26.9551C128.985 27.8261 127.963 28.6789 126.905 29.5618C126.741 29.414 126.577 29.2888 126.44 29.1388C125.534 28.1431 125.074 26.9755 125.071 25.6331C125.066 22.887 125.053 20.1408 125.052 17.3942C125.052 16.7723 125.01 16.1783 124.337 15.884C123.617 15.5688 122.945 15.7584 122.317 16.1468C122.23 16.2005 122.174 16.3679 122.174 16.4829C122.166 19.5575 122.149 22.633 122.192 25.7072C122.198 26.1183 122.522 26.5254 122.736 27.0213C121.777 27.8008 120.709 28.6678 119.569 29.5947C119.254 29.2271 118.92 28.9053 118.669 28.5302C118.078 27.6494 117.816 26.6586 117.814 25.606C117.807 22.546 117.803 19.486 117.813 16.4265C117.814 15.7943 117.713 15.2101 117.266 14.673Z" fill="url(#paint0_linear_85_671)"/>
<path d="M48.9928 11.842C49.8545 12.4498 50.1647 13.1596 50.4508 15.1749C51.121 14.6077 51.7631 14.0648 52.4044 13.5211C53.0522 12.972 53.6986 12.4216 54.3727 11.8487C55.5688 13.0836 56.9529 14.1584 57.3068 15.9946C57.3876 16.4134 57.4308 16.8469 57.4326 17.2737C57.4442 19.7812 57.4049 22.2895 57.4507 24.7961C57.4784 26.3242 56.9278 27.5305 55.8143 28.5055C55.0931 29.1371 54.2893 29.6239 53.3447 30C53.3447 29.7802 53.3447 29.6085 53.3447 29.4372C53.3447 25.4013 53.3447 21.3657 53.3447 17.3297C53.3447 16.0184 52.5332 15.423 51.3008 15.8321C51.1634 15.8776 51.0333 15.9456 50.8985 15.999C50.5182 16.1495 50.3812 16.4037 50.3847 16.8438C50.4076 19.5887 50.4063 22.3337 50.3894 25.0786C50.3851 25.7901 50.4318 26.4509 51.1085 26.8936C50.0208 27.8028 48.9781 28.6741 47.9203 29.5582C46.8378 28.6534 46.2998 27.4762 46.2173 26.1106C46.1387 24.8094 46.1663 23.5011 46.1616 22.1955C46.1542 20.2667 46.1503 18.3378 46.1655 16.409C46.1706 15.7818 46.0834 15.1992 45.6465 14.6558C46.773 13.7086 47.8866 12.772 48.9928 11.842Z" fill="#333333"/>
<path d="M114.901 20.5314C114.901 21.6221 114.888 22.7132 114.904 23.8038C114.926 25.3736 114.297 26.6438 113.1 27.6584C110.614 29.766 106.445 29.7211 104.009 27.5611C102.886 26.566 102.304 25.3358 102.313 23.8385C102.324 21.7465 102.315 19.6546 102.315 17.5626C102.315 15.0275 103.54 13.2142 105.983 12.3538C108.746 11.3805 111.304 11.7627 113.484 13.7835C114.445 14.6742 114.9 15.8191 114.901 17.1239C114.902 18.2604 114.901 19.3959 114.901 20.5314ZM106.601 20.6861C106.574 20.6861 106.547 20.6861 106.52 20.6861C106.52 21.807 106.499 22.9283 106.526 24.0483C106.55 25.0509 106.644 26.0505 107.118 26.9673C107.428 27.5678 107.899 27.9664 108.623 27.9607C109.325 27.9553 109.841 27.5869 110.076 26.978C110.332 26.3162 110.589 25.6096 110.611 24.9158C110.692 22.3483 110.696 19.7777 110.686 17.2079C110.682 16.2364 110.535 15.2684 110.071 14.384C109.763 13.7978 109.338 13.3462 108.596 13.352C107.877 13.3573 107.412 13.7795 107.171 14.3729C106.915 15.0035 106.663 15.6764 106.625 16.3426C106.544 17.7866 106.601 19.2377 106.601 20.6861Z" fill="url(#paint1_linear_85_671)"/>
<path d="M100.693 25.1178C100.776 25.629 100.803 26.0736 100.256 26.4335C99.5935 26.8697 98.9717 27.3716 98.3771 27.8921C96.2243 29.7753 91.8421 29.7735 89.4922 27.0223C87.9703 25.2407 87.401 23.1694 87.3619 20.9179C87.3297 19.0591 87.5998 17.258 88.5226 15.594C90.5406 11.9549 94.3213 11.3275 97.1116 12.1803C99.4269 12.8881 100.761 14.8609 100.497 17.0756C100.364 18.1911 99.5383 19.0023 98.4692 19.0737C97.6357 19.1296 96.9233 18.9038 96.4755 18.1889C95.9951 17.4217 96.0291 16.6114 96.4682 15.8456C96.6813 15.4737 97.0108 15.1622 97.2979 14.8316C97.7108 14.3559 97.6643 14.0396 97.118 13.6983C95.8059 12.8788 93.9982 13.2817 93.1841 14.5849C92.6875 15.3805 92.4813 16.2702 92.3741 17.1772C92.1035 19.4567 92.0791 21.7339 92.6051 23.9863C92.7257 24.5037 92.9241 25.0184 93.1749 25.4906C93.8344 26.7312 94.9739 27.2256 96.4783 27.0072C97.9091 26.8 99.1494 26.1939 100.288 25.3632C100.398 25.2825 100.51 25.2035 100.623 25.1249C100.632 25.1183 100.65 25.1218 100.693 25.1178Z" fill="url(#paint2_linear_85_671)"/>
<path d="M38.5227 11.842C39.7322 13.6167 41.3546 13.6118 43.1841 13.1326C42.2867 13.9628 41.4199 14.83 40.4811 15.6086C39.9064 16.0853 39.1802 16.1831 38.4382 15.9975C37.7642 15.8291 37.3075 15.4076 37.0367 14.767C36.1842 15.434 36.2382 16.613 37.2165 17.2704C38.1139 17.8735 39.094 18.3488 40.0261 18.9004C40.6666 19.2796 41.3376 19.6314 41.9058 20.1049C42.7335 20.7949 43.2729 21.7147 43.2856 22.8275C43.2921 23.4046 43.2041 24.0289 42.9821 24.5549C42.0059 26.8657 40.3422 28.4348 37.9001 29.0609C36.0631 29.5314 34.5475 28.8832 33.5408 27.2457C32.8516 26.1245 32.8512 26.1241 33.8247 25.3018C34.7543 24.5166 35.6856 23.7335 36.6448 22.9254C36.7302 23.4183 36.7754 23.8707 36.89 24.3041C37.2191 25.5505 38.1139 26.2758 39.2006 26.2145C40.2251 26.1567 40.7716 25.1704 40.2447 24.2741C40.0793 23.9923 39.8267 23.7229 39.5503 23.5558C38.5967 22.9809 37.6236 22.4382 36.6426 21.9122C35.5881 21.3465 34.6655 20.645 34.0747 19.567C33.1468 17.874 33.4673 16.1509 34.9302 14.9081C36.1189 13.8997 37.3018 12.8848 38.5227 11.842Z" fill="#333333"/>
<path d="M78.4743 13.0451C77.7454 13.8075 77.0504 14.5875 76.2968 15.304C75.7899 15.7857 75.1625 16.0805 74.4362 16.0686C73.5087 16.0536 72.8184 15.6552 72.4342 14.7721C71.8419 15.219 71.6633 15.8765 72.0189 16.5379C72.1871 16.8508 72.439 17.1668 72.7321 17.351C73.6093 17.9018 74.509 18.4214 75.4309 18.8898C76.2864 19.3248 77.1063 19.7915 77.7264 20.5486C78.666 21.6965 78.9873 22.9855 78.4227 24.3988C77.4441 26.8485 75.7105 28.4737 73.1562 29.0885C71.3255 29.5287 69.7888 28.7628 68.8371 27.0354C68.3094 26.0778 68.3089 26.0773 69.118 25.3921C69.9913 24.6522 70.8646 23.9131 71.7396 23.1754C71.8354 23.0948 71.9425 23.0278 72.0436 22.9551C72.1494 23.4914 72.204 24.0074 72.3558 24.4918C72.7165 25.6459 73.5785 26.2747 74.6183 26.2042C75.5839 26.1386 76.1251 25.2308 75.6746 24.3595C75.5128 24.0467 75.2466 23.7386 74.9517 23.5575C73.9809 22.9617 72.9828 22.4104 71.9807 21.8693C70.6487 21.1496 69.5625 20.2004 69.1267 18.6752C68.7235 17.2642 69.0691 16.0325 70.1656 15.0643C71.3966 13.9776 72.6545 12.9226 73.9146 11.842C75.1057 13.5955 76.713 13.6281 78.4743 13.0451Z" fill="#333333"/>
<path d="M65.3094 11.8421C65.3094 12.1386 65.3094 12.3101 65.3094 12.4821C65.3094 16.5776 65.313 20.6731 65.3059 24.769C65.3045 25.4937 65.4269 26.1549 66.1087 26.6402C65.0491 27.5054 64.0219 28.3446 62.9614 29.2106C61.7705 28.1817 61.1466 26.9198 61.1426 25.3822C61.1354 22.6955 61.1368 20.0084 61.143 17.3218C61.1443 16.7366 61.0237 16.1986 60.5996 15.6978C62.1408 14.4359 63.6761 13.1792 65.3094 11.8421Z" fill="#333333"/>
<path d="M63.3539 5.52637C64.2546 6.43028 65.2057 7.38519 66.1087 8.2917C65.2148 9.18697 64.2637 10.1397 63.352 11.0527C62.4605 10.1579 61.5031 9.19648 60.5996 8.28997C61.4935 7.39296 62.4456 6.43806 63.3539 5.52637Z" fill="#333333"/>
<path d="M29.9192 11.8421C29.9192 12.1068 29.9192 12.2597 29.9192 12.413C29.9174 16.637 29.9174 20.8606 29.9112 25.0846C29.9103 25.706 30.1298 26.2173 30.6947 26.6426C29.6397 27.5036 28.6056 28.347 27.5475 29.2106C26.3723 28.2045 25.7349 26.9652 25.7219 25.4642C25.6984 22.7355 25.7086 20.0065 25.7175 17.2778C25.7193 16.7044 25.5946 16.1862 25.1855 15.7069C26.7382 14.4395 28.2855 13.176 29.9192 11.8421Z" fill="#333333"/>
<path d="M30.6947 8.28543C29.7822 9.2044 28.8323 10.1605 27.9459 11.0527C27.0537 10.1584 26.0927 9.19489 25.1855 8.28586C26.0936 7.37813 27.057 6.41466 27.9454 5.52637C28.8347 6.41898 29.7861 7.37381 30.6947 8.28543Z" fill="#333333"/>
<path d="M81.7988 27.3366C81.8015 26.2358 82.6648 25.3751 83.7655 25.3755C84.8952 25.3759 85.7422 26.2362 85.7339 27.3743C85.7255 28.4743 84.8533 29.3324 83.7531 29.3228C82.671 29.3131 81.7962 28.4244 81.7988 27.3366Z" fill="#333333"/>
<path d="M7.43508 23.6532C8.38906 22.6558 8.57492 21.4237 8.5839 20.1707C8.61083 16.3094 8.59826 12.4476 8.58883 8.58578C8.58524 7.19213 9.0445 6.01481 10.1152 5.08542C11.3192 4.0403 12.5201 2.99161 13.7111 1.93269C16.1565 -0.241678 19.5432 0.817243 20.3033 3.994C20.7603 5.90442 20.3401 7.67196 19.4346 9.35938C18.6175 10.883 17.4431 12.0919 16.0321 13.0854C15.9612 13.1353 15.893 13.1891 15.7807 13.2732C16.5439 13.377 17.2541 13.4477 17.9531 13.5781C18.424 13.6663 18.8918 13.8052 19.3381 13.9801C21.7228 14.9162 22.9363 16.937 22.8155 19.5021C22.6296 23.4485 20.4775 26.0346 17.0804 27.7233C15.0974 28.7088 12.9771 29.3177 10.7168 29.1949C10.2423 29.1691 9.73181 29.1001 9.31206 28.8984C6.86449 27.7233 4.45237 28.0113 2.03757 28.9737C1.91232 29.0235 1.78572 29.0694 1.65912 29.1148C1.64835 29.1188 1.63173 29.1063 1.57427 29.0858C2.31052 28.0478 3.15361 27.1273 4.13588 26.3346C5.60837 25.1466 7.24922 24.3494 9.17649 24.2221C10.6759 24.1233 12.0775 24.4825 13.4261 25.0981C13.5877 25.172 13.7462 25.2525 13.9778 25.3647C13.9778 25.1381 13.9778 24.9672 13.9778 24.7963C13.9778 19.5128 13.9747 14.2289 13.9819 8.94543C13.9828 8.32361 14.0609 7.69288 13.2914 7.3724C13.6496 7.02788 13.9477 6.74079 14.2355 6.46348C14.5246 6.74925 14.8097 7.03056 15.1105 7.32789C15.1123 7.31676 15.1177 7.35771 15.1015 7.36884C14.5197 7.77567 14.4227 8.34186 14.4478 9.01086C14.4936 10.2367 14.4609 11.4652 14.4609 12.6924C14.4609 12.8517 14.4609 13.0111 14.4609 13.1704C14.512 13.198 14.5628 13.2256 14.6139 13.2537C14.9538 12.8531 15.3444 12.4841 15.6231 12.0456C16.4052 10.8176 16.5946 9.42125 16.6624 8.00669C16.715 6.9077 16.6023 5.82163 16.2274 4.78052C16.0977 4.41953 15.9203 4.05721 15.6873 3.75364C14.9412 2.78197 13.6128 2.8198 13.0126 3.8854C12.7177 4.40929 12.5417 5.07028 12.5349 5.67163C12.4918 9.54766 12.469 13.4255 12.5228 17.3011C12.5596 19.9308 11.1338 22.1608 8.52733 23.2531C8.17088 23.4022 7.79961 23.5206 7.43508 23.6532ZM14.5098 14.0949C14.4887 14.1902 14.4658 14.2463 14.4658 14.3023C14.4636 17.9954 14.4604 21.689 14.4654 25.3821C14.4658 25.8063 14.9511 26.0724 15.326 25.861C16.2139 25.3611 16.8905 24.6472 17.3897 23.7725C18.2633 22.2414 18.5345 20.5753 18.4348 18.8434C18.3675 17.6736 18.0371 16.576 17.3125 15.6297C16.613 14.7172 15.6757 14.216 14.5098 14.0949Z" fill="#333333"/>
<path d="M7.86958 7.10532C7.53574 8.11492 7.50673 9.13484 7.50807 10.1608C7.51298 13.1784 7.46969 16.1969 7.52146 19.2137C7.57011 22.023 6.13702 23.8308 3.58416 24.9551C3.32575 25.069 3.05752 25.1613 2.79242 25.2606C2.76921 25.2692 2.73663 25.2554 2.65942 25.2464C3.62924 24.3966 3.6636 23.2878 3.66405 22.1699C3.66494 20.7839 3.66405 19.3976 3.66405 18.0116C3.66405 17.8544 3.66405 17.6976 3.66405 17.5481C2.692 17.3766 2.17786 17.8527 1.48564 19.5836C0.886251 17.8823 0.427897 16.2575 1.17323 14.5695C1.57981 13.6484 2.27381 13.233 3.66405 13.0036C3.66405 12.6633 3.66896 12.3089 3.66316 11.9544C3.65021 11.1863 3.89033 10.4903 4.40313 9.91416C5.39527 8.80016 6.59404 7.91343 7.86958 7.10532Z" fill="#333333"/>
<path d="M0 4.39821C0.801155 2.36431 1.75958 0.509395 4.0916 0.0547313C4.8249 -0.0884552 5.50878 0.0579852 6.15447 0.392707C6.6384 0.643748 7.13356 0.904552 7.55009 1.25508C8.79293 2.30062 10.0861 2.25832 11.4417 1.56098C11.5491 1.50566 11.6565 1.45033 11.7828 1.38525C11.7913 1.44383 11.8156 1.4945 11.8003 1.521C11.1007 2.72321 10.2766 3.81431 9.1506 4.62508C7.48583 5.82357 6.03899 5.82449 4.36928 4.64135C4.29469 4.58835 4.22145 4.53303 4.14911 4.47678C2.72518 3.37033 1.73217 3.32152 0.193661 4.28245C0.129856 4.32197 0.0647035 4.35962 0 4.39821Z" fill="#333333"/>
<path d="M81.7988 27.3375C81.8015 26.2361 82.6645 25.3751 83.7649 25.3755C84.8943 25.3759 85.7411 26.2366 85.7327 27.3752C85.7243 28.4757 84.8524 29.3341 83.7525 29.3245C82.6707 29.3148 81.7962 28.4257 81.7988 27.3375Z" fill="url(#paint3_linear_85_671)"/>
<defs>
<linearGradient id="paint0_linear_85_671" x1="117.348" y1="11.769" x2="129.004" y2="33.8273" gradientUnits="userSpaceOnUse">
<stop stop-color="#C2570F"/>
<stop offset="0.515625" stop-color="#FFB546"/>
<stop offset="1" stop-color="#DE611A"/>
</linearGradient>
<linearGradient id="paint1_linear_85_671" x1="102.367" y1="11.7721" x2="115.361" y2="28.9112" gradientUnits="userSpaceOnUse">
<stop stop-color="#C2570F"/>
<stop offset="0.515625" stop-color="#FFAB2D"/>
<stop offset="1" stop-color="#DE611A"/>
</linearGradient>
<linearGradient id="paint2_linear_85_671" x1="87.4175" y1="11.7721" x2="100.179" y2="29.6566" gradientUnits="userSpaceOnUse">
<stop stop-color="#C2570F"/>
<stop offset="0.515625" stop-color="#FFAB2D"/>
<stop offset="1" stop-color="#DE611A"/>
</linearGradient>
<linearGradient id="paint3_linear_85_671" x1="81.8159" y1="25.3596" x2="84.4118" y2="30.0641" gradientUnits="userSpaceOnUse">
<stop stop-color="#C2570F"/>
<stop offset="0.515625" stop-color="#FFB546"/>
<stop offset="1" stop-color="#DE611A"/>
</linearGradient>
</defs>
</svg>
