<svg width="90" height="85" viewBox="0 0 90 85" fill="none" xmlns="http://www.w3.org/2000/svg">
<path d="M53.6547 70.1898C55.6842 66.4233 56.8269 62.1626 56.8269 57.6292C56.8269 42.5293 44.1039 30.2755 28.4305 30.2755C24.7637 30.2755 21.2504 30.9572 18.0441 32.1843C18.3681 34.9111 18.965 37.638 19.8348 40.3137C21.9667 39.4786 24.3032 39.0185 26.7762 39.0185C36.8727 39.0185 45.059 46.807 45.059 56.4362C45.059 60.1175 43.8481 63.526 41.8015 66.3551C45.4513 68.1276 49.5103 69.4229 53.6547 70.1898Z" fill="white"/>
<path d="M26.7762 39.0185C24.3032 39.0185 21.9667 39.4786 19.8348 40.3137C22.7001 49.2271 28.5158 57.5611 36.6168 63.3045C38.22 64.4464 39.9596 65.4519 41.8015 66.3551C43.8481 63.526 45.059 60.1004 45.059 56.4362C45.059 46.8241 36.8727 39.0185 26.7762 39.0185Z" fill="#EE3124"/>
<path d="M68.6971 48.5113C75.4167 43.3644 92.3522 32.2695 89.7257 27.7531C87.6109 24.123 78.3502 28.5201 67.8785 34.1953C59.658 38.6776 61.4317 33.275 66.6505 25.3672C71.2553 18.4307 78.1625 9.04012 74.3252 6.50074C69.8398 3.55233 56.0765 19.8964 52.8531 23.1175C49.6297 26.3386 46.6963 28.077 48.2995 19.0954C50.4654 7.14837 50.8918 0.910696 48.1971 0.143769C44.4451 -0.912887 42.0915 3.77389 36.4634 16.8969C32.4213 26.3216 28.908 27.9747 28.4817 19.5385C27.9188 4.35335 24.0645 7.83008 22.5636 10.1649C18.5046 16.5731 17.1061 24.3446 18.027 32.1502C21.2334 30.9231 24.7296 30.2414 28.4135 30.2414C44.1039 30.2414 56.8098 42.4952 56.8098 57.5951C56.8098 62.1285 55.6671 66.3892 53.6376 70.1557C62.5914 71.7918 72.0228 71.0079 79.1347 67.48C80.3285 66.8835 83.1937 65.1281 81.4029 62.708C77.8385 57.8508 71.3918 60.3902 64.5016 58.3962C58.4642 56.6407 63.8535 52.1755 68.6971 48.4772V48.5113Z" fill="#EE3124"/>
<path d="M41.8015 66.3551C38.4929 70.8885 33.0012 73.854 26.7762 73.854C16.6797 73.854 8.49332 66.0484 8.49332 56.4362C8.49332 49.1589 13.1834 42.9213 19.8348 40.3137C18.965 37.638 18.3681 34.9111 18.0441 32.1843C7.48711 36.1723 0 46.0401 0 57.6292C0 72.7462 12.7229 85 28.4134 85C39.3968 85 48.9134 78.9839 53.6376 70.1898C49.4933 69.4229 45.4513 68.1446 41.7845 66.3551H41.8015Z" fill="#6D6E71"/>
</svg>
