<svg width="313" height="239" viewBox="0 0 313 239" fill="none" xmlns="http://www.w3.org/2000/svg">
<g opacity="0.3">
<path d="M176.683 225.039C176.453 224.62 176.212 224.186 175.988 223.728C175.971 223.697 175.956 223.663 175.94 223.63C175.719 223.191 175.5 222.731 175.283 222.261C175.236 222.161 175.191 222.064 175.146 221.962C174.924 221.472 174.705 220.967 174.491 220.446C174.449 220.343 174.409 220.236 174.366 220.133C174.147 219.583 173.93 219.023 173.725 218.443C172.893 216.112 172.288 213.706 171.917 211.258C171.899 211.143 171.882 211.028 171.866 210.914C171.789 210.343 171.725 209.769 171.678 209.189C171.678 209.11 171.669 209.033 171.663 208.951C171.624 208.414 171.601 207.876 171.594 207.337C171.594 207.246 171.594 207.153 171.594 207.061C171.594 206.485 171.611 205.911 171.647 205.337C171.647 205.216 171.664 205.096 171.673 204.975C171.719 204.384 171.778 203.792 171.869 203.204L170.526 203.293C168.955 203.372 167.381 203.298 165.824 203.072C164.017 202.795 162.244 202.326 160.536 201.672C158.737 200.987 157.005 200.136 155.364 199.13C153.027 197.63 150.776 195.999 148.624 194.245C147.392 193.284 146.076 192.256 144.392 191.011C142.267 189.434 139.847 187.748 137.339 186.248V186.238C134.997 184.797 132.506 183.611 129.911 182.701C127.672 181.979 125.342 181.573 122.991 181.494C120.735 181.431 118.478 181.502 116.231 181.707L115.459 181.765C111.212 182.35 106.896 182.191 102.705 181.295C100.483 180.647 98.358 179.703 96.3871 178.489C94.528 177.36 92.7383 176.119 91.0292 174.773C89.3427 173.468 87.8102 172.197 86.6676 171.134C85.6866 170.328 84.8762 169.335 84.2837 168.212C84.0561 167.697 83.9749 167.129 84.0487 166.571L83.6737 166.85C81.2315 168.653 78.4442 169.933 75.4856 170.612C72.6836 171.271 69.7631 171.235 66.9784 170.505C64.5735 169.835 62.3725 168.579 60.5727 166.849C58.7228 165.069 57.2996 162.894 56.411 160.485C55.5949 158.286 55.2225 155.947 55.3143 153.603C55.3505 151.426 55.9837 149.301 57.1449 147.459C58.2727 145.871 59.8814 144.688 61.7337 144.086C62.1381 143.939 62.5446 143.81 62.9521 143.697C63.0963 143.656 63.2418 143.625 63.3876 143.589C63.6524 143.522 63.9186 143.451 64.185 143.393C64.3621 143.356 64.5414 143.321 64.7169 143.287C64.9583 143.24 65.198 143.189 65.4394 143.144L66.0838 143.031L66.7649 142.913C67.0564 142.846 67.359 142.839 67.6534 142.893C67.9478 142.947 68.2279 143.06 68.4769 143.226C68.7258 143.392 68.9387 143.607 69.1014 143.858C69.2641 144.109 69.373 144.391 69.4228 144.686C69.4726 144.981 69.462 145.284 69.3907 145.574C69.3194 145.865 69.1895 146.138 69.0088 146.376C68.8281 146.615 68.6004 146.814 68.3399 146.961C68.0794 147.109 67.7918 147.201 67.4942 147.233C67.1478 147.291 66.8012 147.351 66.458 147.412L66.1098 147.476C65.8747 147.52 65.6398 147.564 65.4126 147.609C65.2746 147.637 65.1418 147.667 65.007 147.697C64.8048 147.741 64.6036 147.788 64.4092 147.837C64.276 147.871 64.146 147.907 64.0159 147.942C63.9328 147.965 63.8448 147.985 63.7633 148.009L63.8261 148.001C63.6223 148.062 63.4142 148.12 63.2261 148.188C62.9585 148.285 62.6969 148.398 62.4424 148.526C62.3625 148.565 62.2857 148.616 62.2136 148.658C62.0517 148.746 61.8951 148.843 61.7437 148.948C61.7154 148.967 61.6838 148.981 61.6572 149.001L61.7008 148.982C61.3353 149.239 61.0177 149.557 60.761 149.923C60.0618 151.091 59.6908 152.426 59.6873 153.788C59.6202 155.55 59.9012 157.307 60.5146 158.96C61.1738 160.747 62.2285 162.363 63.6003 163.684C64.8757 164.919 66.4381 165.818 68.1463 166.302C70.2438 166.838 72.4406 166.854 74.5458 166.349C76.9161 165.804 79.1489 164.776 81.1053 163.331C83.5019 161.555 85.507 159.304 86.9967 156.719C88.4562 154.24 89.3617 151.474 89.6516 148.612C89.9158 145.388 89.4397 142.145 88.2587 139.133C87.4093 136.913 86.2074 134.845 84.6992 133.008L84.5248 132.801C84.0208 132.206 83.4831 131.641 82.9138 131.108C80.3949 128.808 77.381 127.117 74.105 126.166C70.3814 125.077 66.4884 124.688 62.623 125.02C56.2997 125.8 50.0717 127.222 44.0366 129.263C41.2686 130.088 38.5311 130.904 35.8477 131.594C31.6096 132.72 27.284 133.486 22.917 133.884C19.5084 134.23 16.0666 134.057 12.71 133.37C9.89393 132.65 7.21669 131.467 4.78826 129.87C4.00948 129.327 3.16274 128.888 2.26962 128.566L2.17548 128.556C2.09555 128.556 1.97839 128.682 1.83262 128.909C1.38366 129.753 1.12631 130.685 1.07879 131.639C1.00154 132.423 0.981018 133.212 1.01756 133.998C1.17847 136.982 1.76256 139.928 2.75253 142.747C3.60876 145.345 4.87886 147.787 6.51404 149.979C9.76005 154.155 14.7426 156.658 19.9728 159.285L21.3259 159.965C24.4163 161.486 27.4272 163.163 30.3474 164.99C33.324 166.844 36.0562 169.065 38.4804 171.599C41.5805 175.185 44.2656 179.109 46.4848 183.297C47.5726 185.177 48.6791 187.082 49.9487 189.057C51.9935 192.298 54.337 195.341 56.9474 198.147C59.0567 200.428 61.4644 202.414 64.1054 204.05C66.8596 205.663 69.855 206.824 72.9769 207.489C76.3489 208.201 79.7751 208.623 83.2191 208.751C85.4213 208.862 87.8444 208.907 90.2723 208.956C95.4762 208.922 100.676 209.276 105.827 210.015C109.326 210.63 112.749 211.622 116.035 212.971C119.025 214.203 121.912 215.671 124.669 217.36C128.197 219.501 131.235 221.76 134.351 224.076C135.702 225.081 137.076 226.1 138.814 227.336C141.215 229.076 143.717 230.674 146.305 232.12C148.831 233.542 151.522 234.647 154.318 235.411C156.98 236.083 159.727 236.353 162.468 236.214C165.389 236.068 168.276 235.528 171.053 234.609C173.093 233.929 175.081 233.1 176.999 232.128C178.129 231.562 179.27 230.943 180.418 230.289C179.243 229.106 178.233 227.77 177.413 226.318C177.173 225.918 176.929 225.49 176.683 225.039Z" stroke="#296EBB" stroke-width="0.8" stroke-miterlimit="10"/>
<path d="M220.729 234.404C224.01 232.858 227.111 230.957 229.977 228.736C232.873 226.541 235.635 224.084 238.189 221.717L240.55 219.509C244.768 215.54 248.503 212.025 252.932 209.655C255.594 208.263 258.43 207.234 261.365 206.594C264.231 205.966 267.14 205.547 270.067 205.34C271.663 205.211 273.388 205.12 275.115 205.026C279.005 204.915 282.882 204.518 286.714 203.837C292.492 202.658 297.96 200.285 302.766 196.87C305.149 195.165 307.376 193.252 309.419 191.152C310.345 190.219 311.207 189.224 312 188.174H311.013C309.861 188.174 308.519 188.174 307.066 188.066C304.05 187.818 301.08 187.169 298.236 186.133C295.433 185.125 292.781 183.737 290.356 182.007C285.893 178.467 281.875 174.399 278.391 169.892L276.065 167.154C273.957 164.659 271.716 162.279 269.352 160.024C267.119 157.897 264.666 156.014 262.034 154.407C259.499 152.914 256.808 151.701 254.011 150.789C250.903 149.772 247.71 149.038 244.47 148.595C242.069 148.258 239.708 148.068 237.396 147.885C233.584 147.694 229.796 147.17 226.074 146.318C223.019 145.516 220.101 144.259 217.419 142.589C214.313 140.625 211.416 138.348 208.775 135.791C206.488 133.638 204.037 131.089 201.482 128.425C197.563 124.199 193.425 120.182 189.085 116.39C185.844 113.634 182.298 111.257 178.517 109.307C175.24 107.623 171.732 106.433 168.107 105.776C164.674 105.197 161.175 105.128 157.723 105.571C153.886 106.071 150.124 107.041 146.524 108.458C139.61 111.406 132.973 114.965 126.692 119.094L125.391 119.893C121.927 122.019 118.547 124.063 115.236 125.85C112.011 127.63 108.646 129.146 105.176 130.382C102.082 131.422 98.9016 132.185 95.6726 132.661C93.8153 132.95 92.0191 133.163 90.2511 133.338C91.7399 135.806 92.8184 138.499 93.444 141.312C93.5538 141.797 93.65 142.285 93.7326 142.775C93.7529 142.893 93.7765 143.009 93.7938 143.126C93.8836 143.721 93.9528 144.316 94.002 144.91C94.0129 145.051 94.0178 145.192 94.0272 145.333C94.0586 145.804 94.0723 146.274 94.0754 146.744C94.0754 146.91 94.0754 147.078 94.0754 147.244C94.066 147.835 94.0423 148.424 93.9874 149.006C93.7926 151.033 93.3353 153.027 92.6259 154.937C92.3924 155.573 92.1366 156.19 91.8545 156.808C91.8184 156.89 91.7766 156.965 91.7374 157.053C91.4365 157.679 91.1102 158.307 90.7685 158.91C90.4002 159.549 89.9954 160.164 89.5769 160.763C89.4468 160.949 89.3091 161.128 89.1744 161.31C88.8703 161.722 88.5582 162.124 88.2338 162.516C87.5753 163.317 86.8709 164.079 86.123 164.797C86.9193 164.664 87.7279 164.627 88.533 164.686C89.2869 164.701 90.2245 164.723 91.1978 164.686H91.2843C91.5116 164.678 91.7639 164.659 92.0052 164.645C92.2043 164.634 92.3907 164.628 92.5991 164.612C92.8907 164.592 93.2027 164.562 93.5083 164.534C93.7058 164.516 93.8923 164.502 94.0961 164.482C94.4425 164.447 94.8077 164.402 95.1729 164.358C95.3547 164.336 95.5266 164.32 95.7147 164.295C96.2696 164.225 96.8465 164.139 97.439 164.056C99.6333 163.722 102.054 163.251 104.577 162.645C107.336 161.979 110.059 161.174 112.735 160.231C115.298 159.332 117.81 158.291 120.258 157.115C122.42 156.071 124.582 154.882 126.764 153.681C129.83 151.996 132.938 150.285 136.299 148.822C139.249 147.551 142.288 146.492 145.39 145.655C148.497 144.805 151.662 144.176 154.858 143.774C157.792 143.4 160.751 143.273 163.706 143.395H163.898C166.67 143.523 169.42 143.943 172.104 144.649C174.726 145.348 177.259 146.344 179.657 147.615C182.116 148.93 184.45 150.465 186.632 152.202C188.287 153.502 189.977 154.988 191.723 156.524C194.534 159.097 197.503 161.492 200.614 163.694C203.256 165.48 206.042 167.043 208.943 168.369C211.652 169.631 214.474 170.637 217.371 171.372C219.886 171.942 222.442 172.313 225.016 172.483C227.123 172.62 229.218 172.903 231.285 173.331C233.308 173.818 235.279 174.5 237.169 175.369C239.336 176.355 241.431 177.492 243.439 178.772C244.47 179.412 245.465 180.109 246.417 180.861C246.968 181.291 247.469 181.78 247.913 182.32L248.07 182.514C248.433 182.938 248.659 183.463 248.716 184.018C248.774 184.573 248.661 185.133 248.393 185.622L248.312 185.765L248.124 186.038C247.194 187.184 245.542 187.312 243.329 187.486C242.401 187.56 241.337 187.643 240.23 187.8C238.585 188.04 236.965 188.43 235.391 188.966C233.803 189.506 232.267 190.188 230.801 191.003C229.381 191.787 227.98 192.727 226.602 193.635C225.976 194.053 225.348 194.463 224.721 194.865C223.376 195.765 221.961 196.555 220.49 197.229C218.012 198.269 215.339 198.761 212.653 198.674C212.646 200.381 212.371 202.077 211.837 203.699C211.2 205.653 210.066 207.408 208.545 208.791C207.02 210.151 205.139 211.047 203.122 211.374C202.852 211.42 202.577 211.456 202.301 211.484C202.202 211.493 202.096 211.496 201.998 211.503C201.817 211.517 201.638 211.531 201.451 211.537C201.335 211.537 201.216 211.537 201.097 211.537C200.926 211.537 200.754 211.537 200.578 211.537C200.457 211.537 200.331 211.52 200.209 211.512C200.035 211.501 199.858 211.493 199.681 211.475C198.426 211.343 197.191 211.069 195.998 210.658C195.867 210.613 195.739 210.555 195.619 210.486C195.58 210.464 195.545 210.437 195.507 210.412C195.431 210.364 195.358 210.311 195.288 210.255C195.251 210.222 195.212 210.185 195.176 210.15C195.14 210.116 195.064 210.034 195.012 209.971C194.96 209.909 194.946 209.888 194.915 209.844C194.648 209.468 194.508 209.017 194.514 208.556C194.519 208.095 194.671 207.648 194.947 207.279C195.223 206.91 195.608 206.637 196.049 206.501C196.489 206.364 196.961 206.371 197.397 206.52C197.822 206.664 198.236 206.777 198.642 206.871C198.767 206.901 198.888 206.921 199.012 206.946C199.294 207.003 199.57 207.051 199.843 207.084C199.974 207.1 200.104 207.114 200.233 207.127C200.506 207.15 200.771 207.16 201.031 207.16C201.136 207.16 201.242 207.16 201.344 207.16C201.382 207.16 201.424 207.16 201.463 207.16L201.423 207.152C201.747 207.14 202.07 207.11 202.391 207.059C203.594 206.871 204.719 206.344 205.633 205.539C206.587 204.657 207.295 203.542 207.687 202.304C208.345 200.142 208.46 197.85 208.021 195.633C207.771 194.041 207.058 192.558 205.971 191.369C204.884 190.179 203.472 189.336 201.909 188.944C199.083 188.039 196.08 187.83 193.156 188.335C192.35 188.466 191.557 188.666 190.785 188.931C174.111 194.818 174.608 207.81 177.851 216.996C178.72 219.453 179.828 221.818 181.16 224.057C183.885 227.946 187.363 231.247 191.39 233.764C194.239 235.43 197.361 236.579 200.611 237.159C203.932 237.739 207.324 237.795 210.663 237.325C214.143 236.846 217.534 235.862 220.729 234.404V234.404Z" stroke="#296EBB" stroke-width="0.8" stroke-miterlimit="10"/>
<path d="M98.6102 174.751C100.242 175.758 102.001 176.541 103.84 177.08C107.552 177.827 111.363 177.943 115.113 177.422L115.884 177.364C118.304 177.143 120.734 177.067 123.163 177.134C125.917 177.229 128.643 177.708 131.265 178.557C134.161 179.571 136.942 180.892 139.559 182.495C142.209 184.075 144.755 185.85 146.992 187.511C148.421 188.571 149.912 189.734 151.302 190.818C153.323 192.465 155.434 193.998 157.626 195.409C159.036 196.271 160.523 196.999 162.068 197.586C163.485 198.131 164.956 198.523 166.457 198.757C167.736 198.939 169.03 198.997 170.32 198.929C171.279 198.885 172.182 198.801 173.068 198.702C173.617 197.302 174.325 195.97 175.176 194.73C175.239 194.639 175.305 194.55 175.369 194.459C175.518 194.25 175.672 194.041 175.83 193.832C175.905 193.735 175.986 193.638 176.057 193.541C176.237 193.313 176.427 193.088 176.621 192.864C176.674 192.802 176.724 192.74 176.778 192.68C177.026 192.4 177.288 192.124 177.561 191.853C177.635 191.778 177.718 191.704 177.789 191.629C177.996 191.426 178.207 191.224 178.426 191.025L178.719 190.762C178.933 190.574 179.154 190.387 179.38 190.204C179.536 190.076 179.692 189.949 179.85 189.823C180.043 189.672 180.24 189.524 180.441 189.378C180.608 189.254 180.778 189.132 180.95 189.011C181.16 188.865 181.375 188.721 181.591 188.577C181.769 188.461 181.949 188.343 182.132 188.227C182.361 188.085 182.602 187.944 182.834 187.804C183.02 187.695 183.206 187.585 183.397 187.477C183.648 187.336 183.911 187.198 184.171 187.06C184.298 186.994 184.423 186.926 184.552 186.861L184.928 186.673C185.156 186.56 185.386 186.45 185.619 186.342L185.893 186.212L186.27 186.041L186.346 186.006C186.632 185.879 186.927 185.757 187.221 185.633L187.378 185.568L187.585 185.483L187.824 185.386C188.318 185.19 188.823 184.997 189.347 184.814C190.35 184.465 191.382 184.203 192.431 184.03C192.829 183.963 193.24 183.906 193.654 183.861C193.792 183.845 193.934 183.837 194.075 183.823C194.357 183.796 194.638 183.771 194.925 183.756C195.096 183.746 195.269 183.743 195.441 183.737C195.703 183.727 195.965 183.72 196.225 183.718C196.413 183.718 196.602 183.718 196.791 183.727C199.015 183.755 201.22 184.125 203.33 184.825C203.774 184.981 204.207 185.152 204.633 185.339C204.739 185.386 204.845 185.436 204.947 185.486C205.02 185.521 205.09 185.56 205.164 185.594C205.426 185.72 205.685 185.848 205.938 185.988C206.022 186.035 206.105 186.078 206.188 186.126C206.489 186.3 206.783 186.485 207.069 186.68C207.15 186.737 207.236 186.787 207.318 186.837C207.676 187.092 208.021 187.365 208.351 187.655C208.435 187.729 208.507 187.812 208.595 187.886C208.841 188.113 209.078 188.356 209.305 188.596C209.405 188.705 209.503 188.818 209.6 188.931C209.81 189.177 210.007 189.436 210.198 189.701C210.277 189.809 210.356 189.914 210.434 190.027C210.991 190.861 211.442 191.761 211.776 192.707C211.959 193.229 212.11 193.762 212.227 194.303C214.453 194.416 216.677 194.048 218.747 193.222C220.642 192.301 222.459 191.225 224.178 190.005C225.663 189.02 227.173 188.017 228.673 187.184C230.371 186.242 232.151 185.455 233.991 184.833C235.814 184.213 237.691 183.762 239.596 183.484C240.515 183.351 241.403 183.268 242.217 183.201L241.088 182.466C239.256 181.295 237.345 180.255 235.369 179.351C233.738 178.603 232.039 178.014 230.295 177.594C228.426 177.211 226.533 176.957 224.629 176.834C221.833 176.65 219.055 176.246 216.322 175.626C213.158 174.818 210.075 173.716 207.116 172.334C203.989 170.907 200.986 169.223 198.138 167.3C194.879 164.998 191.769 162.494 188.825 159.802C187.169 158.346 185.568 156.938 183.917 155.639C181.944 154.064 179.831 152.672 177.605 151.479C175.497 150.358 173.268 149.481 170.961 148.863C168.575 148.242 166.13 147.875 163.666 147.766L163.483 147.749C160.779 147.64 158.07 147.759 155.385 148.103C152.392 148.478 149.429 149.066 146.52 149.86C143.622 150.645 140.783 151.635 138.026 152.824C134.826 154.211 131.822 155.865 128.858 157.493C126.637 158.714 124.44 159.924 122.146 161.032C119.551 162.282 116.888 163.388 114.171 164.344C111.353 165.336 108.487 166.183 105.582 166.883C103.016 167.51 100.463 167.994 98.0928 168.355C95.8608 168.708 93.611 168.935 91.3535 169.035L90.9004 169.048C91.7217 169.75 92.6727 170.516 93.693 171.304C95.2619 172.55 96.9041 173.701 98.6102 174.751V174.751Z" stroke="#296EBB" stroke-width="0.8" stroke-miterlimit="10"/>
<path d="M150.755 12.0324C150.843 12.0636 150.928 12.0997 151.012 12.1405L151.064 12.1688C151.103 12.1907 151.14 12.2142 151.176 12.2377C151.251 12.2851 151.322 12.3374 151.39 12.3944C151.432 12.4304 151.473 12.4681 151.512 12.5057C151.571 12.5634 151.627 12.6247 151.678 12.6892C151.711 12.73 151.742 12.7707 151.772 12.813V12.8224C151.818 12.8902 151.86 12.9603 151.898 13.0324C151.915 13.0669 151.933 13.1013 151.949 13.1358C151.965 13.1702 151.962 13.1624 151.97 13.1765C152.003 13.2583 152.032 13.3421 152.055 13.4273C152.068 13.4665 152.084 13.5041 152.094 13.5433C152.123 13.667 152.142 13.7927 152.153 13.9194C152.153 13.9524 152.153 13.9837 152.153 14.0166C152.158 14.1142 152.158 14.2121 152.153 14.3097C152.153 14.338 152.153 14.3646 152.153 14.3928C152.153 14.421 152.145 14.454 152.14 14.4854C152.129 14.5638 152.117 14.642 152.101 14.7173V14.7454C152.089 14.7956 152.073 14.8443 152.059 14.8929C152.035 14.9682 152.01 15.0496 151.98 15.1139C151.951 15.1782 151.934 15.2189 151.91 15.2706C151.887 15.3223 151.836 15.4053 151.795 15.4711C151.754 15.5369 151.736 15.5621 151.705 15.6045V15.6138C151.656 15.6757 151.603 15.7348 151.548 15.791C151.51 15.8302 151.476 15.8724 151.435 15.9085C151.367 15.9655 151.296 16.0179 151.22 16.0652C151.184 16.0903 151.149 16.1217 151.109 16.1452C150.689 16.388 150.202 16.4891 149.72 16.4335C145.581 16.0605 144.021 22.3441 149.668 24.9709C158.817 29.2248 164.508 18.2657 163.018 12.5072C161.712 7.46974 157.151 2.05608 150.965 1.18462C145.335 0.393106 137.258 2.25207 132.194 4.74888C119.763 10.8741 118.599 27.2719 97.8269 27.1418C87.7754 27.0791 78.9572 23.8879 70.3414 30.0884C68.4988 31.3321 66.9335 32.9437 65.7441 34.8219C69.7676 36.1682 76.2171 36.3892 81.5869 40.7496C88.2545 46.1648 90.4582 59.3746 100.395 64.1363C110.212 68.8383 119.888 63.6659 130.347 70.0514C140.317 76.1421 148.313 85.8176 163.809 83.7032C187.177 80.5152 195.94 56.1647 218.896 50.8372C222.226 50.0629 235.246 49.0221 235.325 48.4986C235.608 46.6319 230.213 41.8562 228.239 40.4362C213.309 29.7108 201.614 35.107 193.876 32.6227C182.842 29.0727 183.49 19.5416 167.436 18.341C166.809 20.7244 165.72 22.9612 164.229 24.9239C164.056 25.1506 163.877 25.3718 163.694 25.587L163.537 25.7719C163.38 25.9505 163.223 26.1245 163.058 26.2938C163.003 26.3518 162.949 26.4114 162.891 26.4694C162.689 26.6784 162.484 26.8763 162.275 27.0633L162.23 27.1041C161.999 27.3125 161.759 27.5132 161.518 27.706L161.372 27.8173C161.179 27.9668 160.982 28.111 160.782 28.2499L160.577 28.3879C160.378 28.5211 160.175 28.6496 159.968 28.7719C159.912 28.8048 159.858 28.8393 159.802 28.8706C159.534 29.0273 159.264 29.17 158.985 29.3032H158.972C158.707 29.4317 158.436 29.5477 158.162 29.6558L157.949 29.7358C157.733 29.8173 157.512 29.8926 157.289 29.9631L157.059 30.0335C156.8 30.1098 156.539 30.1767 156.275 30.2342L156.181 30.256C155.877 30.3203 155.565 30.3722 155.253 30.4129C155.196 30.4129 155.14 30.4239 155.085 30.4301C154.831 30.4583 154.576 30.4786 154.319 30.4927L154.059 30.5023C153.811 30.5096 153.562 30.5096 153.31 30.5023C153.235 30.5023 153.161 30.5023 153.086 30.5023C152.415 30.4661 151.749 30.3786 151.092 30.2405L150.841 30.1841C150.581 30.1245 150.319 30.0566 150.057 29.9803C149.272 29.7539 148.506 29.4673 147.766 29.123C146.485 28.5447 145.306 27.7604 144.278 26.8016C139.062 31.8281 134.627 37.4159 137.092 45.1069C140.108 54.5205 153.849 61.6002 162.385 55.0204C170.878 48.472 163.249 38.6321 157.388 42.9862C154.724 44.9595 157.001 47.9845 156.488 49.8058C156.453 49.936 156.4 50.061 156.331 50.1773L156.31 50.2102C156.235 50.3311 156.144 50.4413 156.04 50.5378L156.012 50.5613C155.887 50.6711 155.748 50.7653 155.6 50.8418L155.573 50.8544C155.385 50.9484 155.189 51.0246 154.987 51.0817C154.636 51.1851 154.265 51.1916 153.911 51.1009C153.557 51.0101 153.234 50.8252 152.976 50.5659C152.827 50.4291 152.692 50.2785 152.571 50.1161C152.551 50.091 152.533 50.063 152.515 50.0363C152.385 49.8567 152.271 49.6675 152.17 49.4704L152.158 49.4485C152.05 49.2302 151.957 49.005 151.879 48.7745C151.863 48.7306 151.848 48.6883 151.833 48.6444C151.755 48.4013 151.687 48.1544 151.634 47.9045C151.634 47.8653 151.622 47.8247 151.612 47.7855C151.564 47.5363 151.524 47.2808 151.501 47.0175C151.501 46.9877 151.493 46.9595 151.49 46.9297C151.466 46.6539 151.457 46.3686 151.46 46.0817C151.46 46.0222 151.46 45.9626 151.46 45.9015C151.468 45.6131 151.488 45.3216 151.526 45.0285C151.526 44.9862 151.539 44.9439 151.545 44.9016C151.584 44.6258 151.636 44.3488 151.702 44.0709C151.713 44.0254 151.722 43.98 151.733 43.9329C151.807 43.6398 151.899 43.3483 152.004 43.0584C152.028 42.9941 152.053 42.9314 152.076 42.8703C152.189 42.5748 152.319 42.286 152.465 42.0051C152.482 41.9722 152.503 41.9408 152.522 41.9079C152.664 41.6382 152.82 41.3766 152.991 41.1242C153.024 41.0772 153.054 41.0302 153.087 40.9848L153.098 40.9706C153.282 40.719 153.481 40.4783 153.692 40.2497C153.761 40.1729 153.836 40.0929 153.91 40.0239C154.105 39.8273 154.31 39.6412 154.524 39.466C154.59 39.4111 154.653 39.3546 154.72 39.3091C154.999 39.0954 155.292 38.8991 155.595 38.7213L155.694 38.6618C155.753 38.6274 155.819 38.596 155.878 38.5631C156.149 38.4158 156.434 38.2795 156.735 38.1525C156.843 38.1071 156.949 38.0615 157.062 38.0192C157.468 37.862 157.883 37.7297 158.305 37.6227C168.222 35.1651 176.789 49.6758 165.165 58.6348C164.864 58.8668 164.557 59.0814 164.247 59.2899L164.01 59.4466C163.726 59.63 163.438 59.8055 163.148 59.9685L163.061 60.0204C162.735 60.2006 162.405 60.3682 162.071 60.5249L161.881 60.6112C161.568 60.7523 161.255 60.8839 160.941 61.0046L160.855 61.0375C160.498 61.1723 160.138 61.2946 159.775 61.4043L159.696 61.4263C159.344 61.5313 158.985 61.6237 158.628 61.7052L158.582 61.7161C157.818 61.8868 157.044 62.0072 156.264 62.0766C152.479 62.2676 148.703 61.5555 145.247 59.9988C141.792 58.4421 138.757 56.0856 136.392 53.124C135.56 52.1007 134.822 51.0049 134.186 49.8498C134.175 49.831 134.166 49.8121 134.155 49.7933C133.75 49.0493 133.392 48.2808 133.083 47.4924C133.068 47.4532 133.052 47.4156 133.037 47.3765C132.881 46.9846 132.747 46.5927 132.623 46.1868C132.501 45.7934 132.394 45.3953 132.299 44.994C132.289 44.9517 132.277 44.911 132.267 44.8687C132.177 44.4737 132.098 44.0755 132.034 43.6727C132.034 43.6194 132.021 43.5662 132.011 43.516C131.953 43.1258 131.904 42.7323 131.871 42.3357C131.871 42.3153 131.871 42.2951 131.871 42.2747C131.838 41.8703 131.824 41.4643 131.82 41.0536C131.82 40.9768 131.82 40.8969 131.82 40.8248C131.82 40.4157 131.832 40.0036 131.863 39.5898C131.863 39.571 131.863 39.5506 131.863 39.5318C131.893 39.1368 131.94 38.7387 131.998 38.3406C132.011 38.2591 132.022 38.1838 132.034 38.0961C132.099 37.6907 132.179 37.2831 132.273 36.8735C132.289 36.8014 132.308 36.7277 132.327 36.6556C132.417 36.2815 132.522 35.907 132.641 35.5319C132.661 35.4676 132.677 35.4048 132.699 35.3406C132.829 34.9299 132.981 34.5193 133.145 34.1071C133.181 34.0162 133.219 33.9254 133.257 33.8329C133.433 33.4113 133.617 32.988 133.827 32.5648C135.89 28.8839 138.584 25.5947 141.786 22.8472C141.697 22.5476 141.625 22.243 141.571 21.935C141.554 21.8378 141.551 21.736 141.537 21.6372C141.506 21.4225 141.475 21.2062 141.462 20.9867C141.454 20.8676 141.462 20.7469 141.462 20.6278C141.462 20.424 141.446 20.2203 141.462 20.0134C141.462 19.8912 141.485 19.7672 141.495 19.6434C141.511 19.4397 141.525 19.2361 141.552 19.0323C141.57 18.9085 141.6 18.7861 141.622 18.6623C141.66 18.4601 141.693 18.2579 141.743 18.0573C141.773 17.9366 141.813 17.8207 141.849 17.7016C141.907 17.501 141.96 17.3002 142.032 17.1028C142.074 16.9868 142.13 16.8739 142.175 16.7595C142.254 16.5667 142.332 16.3725 142.421 16.1844C142.476 16.07 142.545 15.9618 142.606 15.8505C142.705 15.6703 142.799 15.4901 142.908 15.3177C143.659 14.1122 144.74 13.1476 146.022 12.5388C147.305 11.93 148.735 11.7025 150.144 11.8835C150.303 11.8992 150.46 11.9291 150.614 11.9729L150.703 12.0025L150.755 12.0324Z" stroke="#296EBB" stroke-width="0.8" stroke-miterlimit="10"/>
</g>
</svg>
