<svg width="101" height="99" viewBox="0 0 101 99" fill="none" xmlns="http://www.w3.org/2000/svg">
<g opacity="0.3">
<path d="M4.04297 3.25977V16.1714C4.04297 32.8099 17.3763 46.1842 33.9344 46.1842H46.807V33.2725C46.807 16.6472 33.4869 3.25977 16.9156 3.25977H4.04297Z" stroke="#4F4F4F" stroke-miterlimit="10"/>
<path d="M81.6883 3.25977C65.1302 3.25977 51.7969 16.6472 51.7969 33.2725V46.1842H64.6695C81.2276 46.1842 94.561 32.7967 94.561 16.1714V3.25977H81.6883Z" stroke="#4F4F4F" stroke-miterlimit="10"/>
<path d="M33.9344 51.2061C17.3763 51.2061 4.04297 64.5935 4.04297 81.232V94.1437H16.9156C33.4869 94.1437 46.807 80.7562 46.807 64.131V51.2193H33.9344V51.2061Z" stroke="#4F4F4F" stroke-miterlimit="10"/>
<path d="M51.7969 51.2061V64.1177C51.7969 80.7562 65.1302 94.1304 81.6883 94.1304H94.561V81.2188C94.561 64.5803 81.2276 51.2061 64.6695 51.2061H51.7969V51.2061Z" stroke="#4F4F4F" stroke-miterlimit="10"/>
<path d="M16.8514 12.3521C15.8379 12.3521 14.8639 12.7617 14.1663 13.4886C13.495 14.189 13.1133 15.1273 13.1133 16.1053C13.1133 18.1801 14.7849 19.8453 16.8514 19.8453C18.9178 19.8453 20.5763 18.1669 20.5763 16.1053C20.5763 14.0304 18.9047 12.3521 16.8514 12.3521Z" stroke="#4F4F4F" stroke-miterlimit="10"/>
<path d="M81.781 12.3521C79.7146 12.3521 78.043 14.0304 78.043 16.1053C78.043 18.1801 79.7146 19.8453 81.781 19.8453C83.8475 19.8453 85.506 18.1669 85.506 16.1053C85.506 15.1273 85.1374 14.189 84.453 13.4886C83.7422 12.7485 82.7814 12.3521 81.781 12.3521Z" stroke="#4F4F4F" stroke-miterlimit="10"/>
<path d="M34.0115 29.585C32.998 29.585 32.024 29.9946 31.3264 30.7215C30.6551 31.4219 30.2734 32.3602 30.2734 33.3382C30.2734 35.4131 31.945 37.0782 34.0115 37.0782C36.078 37.0782 37.7364 35.3998 37.7496 33.3382C37.7496 31.2766 36.078 29.585 34.0115 29.585Z" stroke="#4F4F4F" stroke-miterlimit="10"/>
<path d="M64.6014 29.585C62.5349 29.585 60.8633 31.2633 60.8633 33.3382C60.8633 35.4131 62.5349 37.0782 64.6014 37.0782C66.6678 37.0782 68.3263 35.3998 68.3263 33.3382C68.3263 32.3602 67.9577 31.4219 67.2733 30.7215C66.5757 29.9946 65.6017 29.585 64.6014 29.585Z" stroke="#4F4F4F" stroke-miterlimit="10"/>
<path d="M34.0115 60.2983C31.945 60.2983 30.2734 61.9767 30.2734 64.0516C30.2734 66.1264 31.945 67.7916 34.0115 67.7916C36.078 67.7916 37.7364 66.1132 37.7364 64.0516C37.7364 63.0736 37.3679 62.1353 36.6834 61.4349C35.9858 60.708 35.025 60.2983 34.0115 60.2983Z" stroke="#4F4F4F" stroke-miterlimit="10"/>
<path d="M64.6014 60.2983C63.5879 60.2983 62.6139 60.708 61.9163 61.4349C61.245 62.1353 60.8633 63.0736 60.8633 64.0516C60.8764 66.1264 62.5349 67.7916 64.6014 67.7916C66.6678 67.7916 68.3263 66.1132 68.3263 64.0516C68.3263 61.9767 66.6678 60.2983 64.6014 60.2983Z" stroke="#4F4F4F" stroke-miterlimit="10"/>
<path d="M16.8382 77.5449C14.7717 77.5449 13.1133 79.2233 13.1133 81.2982C13.1133 83.373 14.7849 85.0382 16.8382 85.0382C18.9178 85.0382 20.5763 83.3598 20.5763 81.2982C20.5763 80.3202 20.2077 79.3819 19.5101 78.6815C18.8125 77.9546 17.8517 77.5449 16.8382 77.5449Z" stroke="#4F4F4F" stroke-miterlimit="10"/>
<path d="M81.781 77.5449C80.7675 77.5449 79.7935 77.9546 79.0959 78.6947C78.4247 79.3819 78.043 80.3334 78.043 81.3114C78.043 83.3862 79.7146 85.0514 81.781 85.0514C83.8475 85.0514 85.5059 83.373 85.5191 81.3114C85.5191 79.2233 83.8475 77.5449 81.781 77.5449Z" stroke="#4F4F4F" stroke-miterlimit="10"/>
</g>
</svg>
