<svg width="24" height="24" viewBox="0 0 24 24" fill="none" xmlns="http://www.w3.org/2000/svg">
<path d="M23.6 11.9966C23.6 17.7689 19.381 22.5481 13.8598 23.4396V14.9019H16.3468H16.6985L16.7435 14.5531L17.1765 11.2006L17.2348 10.7493H16.7798H13.8598V9.00968C13.8598 8.54133 13.9295 8.25923 14.074 8.08749C14.2053 7.93132 14.477 7.77821 15.1194 7.77821H15.1196L16.8945 7.77735L17.2943 7.77715V7.37735V4.37923V4.0284L16.9465 3.98264C16.6213 3.93986 15.5504 3.84767 14.3096 3.84767C12.9489 3.84767 11.7615 4.26461 10.9133 5.10329C10.0638 5.94317 9.5987 7.16217 9.5987 8.67901V10.7511H7.10393H6.70393V11.1511V14.5036V14.9036H7.10393H9.5987V23.3372C4.34604 22.2315 0.4 17.5809 0.4 12.0001C0.4 5.5936 5.5936 0.4 12.0001 0.4C18.4065 0.4 23.6 5.59367 23.6 11.9966Z" stroke="#296EBB" stroke-width="0.8"/>
</svg>
