<svg width="115" height="115" viewBox="0 0 115 115" fill="none" xmlns="http://www.w3.org/2000/svg">
<g clip-path="url(#clip0)">
<path d="M46.898 52.2176L25.3767 52.5592L0.292847 27.4754L21.8386 27.1338L46.898 52.2176Z" stroke="#333333" stroke-miterlimit="10"/>
<path d="M52.2172 46.8981L52.5588 25.3524L27.475 0.292969L27.1334 21.8387L52.2172 46.8981Z" stroke="#333333" stroke-miterlimit="10"/>
<path d="M68.1021 62.8074L89.6478 62.4414L114.707 87.5252L93.1859 87.8912L68.1021 62.8074Z" stroke="#333333" stroke-miterlimit="10"/>
<path d="M62.807 68.1025L62.441 89.6483L87.5248 114.732L87.8665 93.1864L62.807 68.1025Z" stroke="#333333" stroke-miterlimit="10"/>
<path d="M52.2172 68.1025L52.5588 89.6483L27.475 114.732L27.1334 93.1864L52.2172 68.1025Z" stroke="#333333" stroke-miterlimit="10"/>
<path d="M46.898 62.8074L25.3767 62.4414L0.292847 87.5252L21.8386 87.8668L46.898 62.8074Z" stroke="#333333" stroke-miterlimit="10"/>
<path d="M62.807 46.8981L62.441 25.3768L87.5248 0.292969L87.8665 21.8387L62.807 46.8981Z" stroke="#333333" stroke-miterlimit="10"/>
<path d="M68.1021 52.2176L89.6478 52.5592L114.732 27.4754L93.1859 27.1338L68.1021 52.2176Z" stroke="#333333" stroke-miterlimit="10"/>
<path d="M61.4895 61.4897H53.5105V53.5107H61.4895V61.4897Z" stroke="#333333" stroke-miterlimit="10"/>
</g>
<defs>
<clipPath id="clip0">
<rect width="115" height="115" fill="white"/>
</clipPath>
</defs>
</svg>
