<svg width="13" height="10" viewBox="0 0 13 10" fill="none" xmlns="http://www.w3.org/2000/svg">
<path d="M7.50029 4.99981C8.82634 4.99995 10.098 5.5268 11.0357 6.46451C11.9733 7.40223 12.5 8.67394 12.5 10" stroke="#333333" stroke-miterlimit="10"/>
<path d="M7.50029 4.99976C8.82629 4.99976 10.098 4.47295 11.0356 3.53532C11.9733 2.59769 12.5 1.32597 12.5 -3.19946e-05" stroke="#333333" stroke-miterlimit="10"/>
<path d="M0.000286354 4.99981C1.32634 4.99995 2.59804 5.5268 3.53566 6.46451C4.47327 7.40223 5 8.67394 5 10" stroke="#333333" stroke-miterlimit="10"/>
<path d="M0.000286791 4.99976C1.32629 4.99976 2.59799 4.47295 3.53562 3.53532C4.47325 2.59769 5 1.32597 5 -3.19946e-05" stroke="#333333" stroke-miterlimit="10"/>
</svg>
