<?xml version="1.0" encoding="utf-8"?>
<!-- Generator: Adobe Illustrator 19.0.0, SVG Export Plug-In . SVG Version: 6.00 Build 0)  -->
<svg version="1.1" id="Layer_1" xmlns="http://www.w3.org/2000/svg" xmlns:xlink="http://www.w3.org/1999/xlink" x="0px" y="0px"
	 width="16px" height="16px" viewBox="-297 389 16 16" style="enable-background:new -297 389 16 16;" xml:space="preserve">
<style type="text/css">
	.st0{fill:#FFFFFF;}
</style>
<path class="st0" d="M-289,393.4c-2,0-3.6,1.6-3.6,3.6s1.6,3.6,3.6,3.6s3.6-1.6,3.6-3.6S-287,393.4-289,393.4z M-289,399.3
	c-1.3,0-2.3-1.1-2.3-2.3c0-1.3,1.1-2.3,2.3-2.3c1.3,0,2.3,1.1,2.3,2.3C-286.7,398.3-287.7,399.3-289,399.3z M-285.2,392.4
	c-0.5,0-0.8,0.4-0.8,0.8s0.4,0.8,0.8,0.8c0.5,0,0.8-0.4,0.8-0.8c0-0.1,0-0.2-0.1-0.3c0-0.1-0.1-0.2-0.2-0.3
	c-0.1-0.1-0.2-0.1-0.3-0.2C-285,392.4-285.1,392.4-285.2,392.4z M-282,397c0-1,0-1.9,0-2.9c-0.1-1.1-0.3-2.1-1.1-2.9
	c-0.8-0.8-1.8-1.1-2.9-1.1c-1-0.1-1.9,0-2.9,0c-1,0-1.9,0-2.9,0c-1.1,0.1-2.1,0.3-2.9,1.1c-0.8,0.8-1.1,1.8-1.1,2.9
	c-0.1,1,0,1.9,0,2.9s0,1.9,0,2.9c0.1,1.1,0.3,2.1,1.1,2.9c0.8,0.8,1.8,1.1,2.9,1.1c1,0.1,1.9,0,2.9,0c1,0,1.9,0,2.9,0
	c1.1-0.1,2.1-0.3,2.9-1.1c0.8-0.8,1.1-1.8,1.1-2.9C-282,398.9-282,398-282,397z M-283.5,401.1c-0.1,0.3-0.3,0.6-0.5,0.8
	c-0.2,0.2-0.5,0.4-0.8,0.5c-0.9,0.4-3.1,0.3-4.1,0.3s-3.2,0.1-4.1-0.3c-0.3-0.1-0.6-0.3-0.8-0.5c-0.2-0.2-0.4-0.5-0.5-0.8
	c-0.4-0.9-0.3-3.1-0.3-4.1s-0.1-3.2,0.3-4.1c0.1-0.3,0.3-0.6,0.5-0.8c0.2-0.2,0.5-0.4,0.8-0.5c0.9-0.4,3.1-0.3,4.1-0.3
	s3.2-0.1,4.1,0.3c0.3,0.1,0.6,0.3,0.8,0.5c0.2,0.2,0.4,0.5,0.5,0.8c0.4,0.9,0.3,3.1,0.3,4.1S-283.2,400.2-283.5,401.1z"/>
</svg>
