<?xml version="1.0" encoding="utf-8"?>
<!-- Generator: Adobe Illustrator 19.0.0, SVG Export Plug-In . SVG Version: 6.00 Build 0)  -->
<svg version="1.1" id="Layer_1" xmlns="http://www.w3.org/2000/svg" xmlns:xlink="http://www.w3.org/1999/xlink" x="0px" y="0px"
	 width="22.3px" height="22.3px" viewBox="-288.2 385.8 22.3 22.3" style="enable-background:new -288.2 385.8 22.3 22.3;"
	 xml:space="preserve">
<style type="text/css">
	.st0{fill:none;stroke:#FFFFFF;stroke-linecap:round;stroke-linejoin:round;}
	.st1{fill:#FFFFFF;}
</style>
<path class="st0" d="M-285,386.3h16c0.7,0,1.4,0.3,1.9,0.8c0.5,0.5,0.8,1.2,0.8,1.9v16c0,0.7-0.3,1.4-0.8,1.9
	c-0.5,0.5-1.2,0.8-1.9,0.8h-16c-0.7,0-1.4-0.3-1.9-0.8c-0.5-0.5-0.8-1.2-0.8-1.9v-16c0-0.7,0.3-1.4,0.8-1.9
	C-286.4,386.6-285.7,386.3-285,386.3L-285,386.3z"/>
<path class="st0" d="M-287.7,391.7h21.3"/>
<path class="st1" d="M-277,398.3c0.7,0,1.3-0.6,1.3-1.3c0-0.7-0.6-1.3-1.3-1.3c-0.7,0-1.3,0.6-1.3,1.3
	C-278.3,397.7-277.7,398.3-277,398.3z"/>
<path class="st1" d="M-282.3,398.3c0.7,0,1.3-0.6,1.3-1.3c0-0.7-0.6-1.3-1.3-1.3c-0.7,0-1.3,0.6-1.3,1.3
	C-283.7,397.7-283.1,398.3-282.3,398.3z"/>
<path class="st1" d="M-271.7,398.3c0.7,0,1.3-0.6,1.3-1.3c0-0.7-0.6-1.3-1.3-1.3c-0.7,0-1.3,0.6-1.3,1.3
	C-273,397.7-272.4,398.3-271.7,398.3z"/>
<path class="st1" d="M-277,403.7c0.7,0,1.3-0.6,1.3-1.3c0-0.7-0.6-1.3-1.3-1.3c-0.7,0-1.3,0.6-1.3,1.3
	C-278.3,403.1-277.7,403.7-277,403.7z"/>
<path class="st1" d="M-282.3,403.7c0.7,0,1.3-0.6,1.3-1.3c0-0.7-0.6-1.3-1.3-1.3c-0.7,0-1.3,0.6-1.3,1.3
	C-283.7,403.1-283.1,403.7-282.3,403.7z"/>
<path class="st1" d="M-271.7,403.7c0.7,0,1.3-0.6,1.3-1.3c0-0.7-0.6-1.3-1.3-1.3c-0.7,0-1.3,0.6-1.3,1.3
	C-273,403.1-272.4,403.7-271.7,403.7z"/>
<path class="st1" d="M-285,386h16c1.7,0,3,1.3,3,3l0,0c0,1.7-1.3,3-3,3h-16c-1.7,0-3-1.3-3-3l0,0C-288,387.3-286.7,386-285,386z"/>
</svg>
