<svg width="18" height="16" viewBox="0 0 18 16" fill="none" xmlns="http://www.w3.org/2000/svg">
<path d="M8.6423 6.28582C7.34049 6.28582 6.28516 5.23049 6.28516 3.92868C6.28516 2.62686 7.34049 1.57153 8.6423 1.57153" stroke="#296EBB"/>
<path d="M8.643 7.85718C7.07157 7.85718 3.92871 8.32861 3.92871 10.2143C3.92871 11.3457 3.92871 12.2572 3.92871 12.5715H8.643" stroke="#296EBB"/>
<path d="M8.64383 6.28582C9.94565 6.28582 11.001 5.23049 11.001 3.92868C11.001 2.62686 9.94565 1.57153 8.64383 1.57153" stroke="#296EBB"/>
<path d="M8.64314 7.85718C10.2146 7.85718 13.3574 8.32861 13.3574 10.2143C13.3574 11.3457 13.3574 12.2572 13.3574 12.5715H8.64314" stroke="#296EBB"/>
</svg>
