<svg width="24" height="24" viewBox="0 0 24 24" fill="none" xmlns="http://www.w3.org/2000/svg">
<path d="M14.1537 7.48868C14.3871 7.25455 14.6643 7.06877 14.9696 6.94201C15.2749 6.81525 15.6022 6.75 15.9327 6.75C16.2633 6.75 16.5905 6.81525 16.8958 6.94201C17.2011 7.06877 17.4783 7.25455 17.7117 7.48868C18.1831 7.95848 18.4488 8.59619 18.4504 9.26173C18.4519 9.92728 18.1893 10.5662 17.72 11.0382L14.3714 14.3869C14.1369 14.6217 13.8582 14.8077 13.5515 14.9341C13.2447 15.0606 12.9159 15.125 12.5841 15.1236C11.9185 15.1275 11.2787 14.867 10.8051 14.3995C10.571 14.1661 10.3852 13.8889 10.2584 13.5836C10.1317 13.2783 10.0664 12.951 10.0664 12.6205C10.0664 12.2899 10.1317 11.9626 10.2584 11.6574C10.3852 11.3521 10.571 11.0748 10.8051 10.8415L11.3995 10.2471" stroke="#296EBB" stroke-width="0.8"/>
<path d="M12.6392 13.206L13.5266 12.3186C13.9989 11.8463 14.2643 11.2056 14.2643 10.5376C14.2643 9.86954 13.9989 9.22888 13.5266 8.75651C13.0542 8.28414 12.4135 8.01877 11.7455 8.01877C11.0775 8.01877 10.4368 8.28414 9.96443 8.75651L6.61579 12.1052C6.38102 12.3386 6.19471 12.6161 6.06758 12.9217C5.94045 13.2274 5.875 13.5552 5.875 13.8862C5.875 14.2173 5.94045 14.545 6.06758 14.8507C6.19471 15.1564 6.38102 15.4339 6.61579 15.6673C7.09247 16.1313 7.73377 16.3872 8.39894 16.3789C9.06997 16.3795 9.714 16.1147 10.1905 15.6422" stroke="#296EBB" stroke-width="0.8"/>
<circle cx="12" cy="12" r="11.6" stroke="#296EBB" stroke-width="0.8"/>
</svg>
