<svg width="730" height="647" viewBox="0 0 730 647" fill="none" xmlns="http://www.w3.org/2000/svg">
<g opacity="0.3" clip-path="url(#clip0)">
<path d="M50.1406 64.7158V91.9057C50.1406 126.944 78.2762 155.108 113.217 155.108H140.38V127.918C140.38 92.9076 112.272 64.7158 77.3041 64.7158H50.1406Z" stroke="#4F4F4F" stroke-miterlimit="10"/>
<path d="M213.982 64.7158C179.042 64.7158 150.906 92.9076 150.906 127.918V155.108H178.07C213.01 155.108 241.146 126.916 241.146 91.9057V64.7158H213.982Z" stroke="#4F4F4F" stroke-miterlimit="10"/>
<path d="M113.217 165.683C78.2762 165.683 50.1406 193.875 50.1406 228.913V256.103H77.3041C112.272 256.103 140.38 227.911 140.38 192.901V165.711H113.217V165.683Z" stroke="#4F4F4F" stroke-miterlimit="10"/>
<path d="M150.906 165.683V192.873C150.906 227.911 179.042 256.075 213.982 256.075H241.146V228.885C241.146 193.847 213.01 165.683 178.07 165.683H150.906V165.683Z" stroke="#4F4F4F" stroke-miterlimit="10"/>
<path d="M77.1653 83.8633C75.0267 83.8633 72.9714 84.726 71.4993 86.2567C70.0828 87.7316 69.2773 89.7076 69.2773 91.767C69.2773 96.1363 72.8047 99.6429 77.1653 99.6429C81.5259 99.6429 85.0255 96.1085 85.0255 91.767C85.0255 87.3977 81.4981 83.8633 77.1653 83.8633Z" stroke="#4F4F4F" stroke-miterlimit="10"/>
<path d="M214.177 83.8628C209.816 83.8628 206.289 87.3972 206.289 91.7665C206.289 96.1358 209.816 99.6424 214.177 99.6424C218.538 99.6424 222.037 96.108 222.037 91.7665C222.037 89.7071 221.26 87.7312 219.815 86.2562C218.315 84.6977 216.288 83.8628 214.177 83.8628Z" stroke="#4F4F4F" stroke-miterlimit="10"/>
<path d="M113.38 120.153C111.242 120.153 109.186 121.016 107.714 122.546C106.298 124.021 105.492 125.997 105.492 128.057C105.492 132.426 109.02 135.932 113.38 135.932C117.741 135.932 121.24 132.398 121.268 128.057C121.268 123.715 117.741 120.153 113.38 120.153Z" stroke="#4F4F4F" stroke-miterlimit="10"/>
<path d="M177.931 120.153C173.57 120.153 170.043 123.688 170.043 128.057C170.043 132.426 173.57 135.933 177.931 135.933C182.292 135.933 185.791 132.399 185.791 128.057C185.791 125.998 185.013 124.022 183.569 122.547C182.097 121.016 180.042 120.153 177.931 120.153Z" stroke="#4F4F4F" stroke-miterlimit="10"/>
<path d="M113.38 184.83C109.02 184.83 105.492 188.364 105.492 192.734C105.492 197.103 109.02 200.61 113.38 200.61C117.741 200.61 121.24 197.075 121.24 192.734C121.24 190.674 120.463 188.698 119.018 187.223C117.546 185.693 115.519 184.83 113.38 184.83Z" stroke="#4F4F4F" stroke-miterlimit="10"/>
<path d="M177.931 184.83C175.792 184.83 173.737 185.693 172.265 187.223C170.848 188.698 170.043 190.674 170.043 192.734C170.071 197.103 173.57 200.61 177.931 200.61C182.292 200.61 185.791 197.075 185.791 192.734C185.791 188.364 182.292 184.83 177.931 184.83Z" stroke="#4F4F4F" stroke-miterlimit="10"/>
<path d="M77.1375 221.148C72.7769 221.148 69.2773 224.683 69.2773 229.052C69.2773 233.421 72.8047 236.928 77.1375 236.928C81.5259 236.928 85.0255 233.394 85.0255 229.052C85.0255 226.993 84.2478 225.017 82.7758 223.542C81.3037 222.011 79.2762 221.148 77.1375 221.148Z" stroke="#4F4F4F" stroke-miterlimit="10"/>
<path d="M214.177 221.148C212.038 221.148 209.983 222.011 208.511 223.57C207.095 225.017 206.289 227.021 206.289 229.08C206.289 233.449 209.816 236.956 214.177 236.956C218.538 236.956 222.037 233.421 222.065 229.08C222.065 224.683 218.538 221.148 214.177 221.148Z" stroke="#4F4F4F" stroke-miterlimit="10"/>
</g>
<g opacity="0.3">
<path d="M552.523 470.084V494.716C552.523 526.459 578.018 551.974 609.678 551.974H634.292V527.341C634.292 495.624 608.823 470.084 577.137 470.084H552.523Z" stroke="#4F4F4F" stroke-miterlimit="10"/>
<path d="M700.987 470.084C669.326 470.084 643.832 495.624 643.832 527.341V551.974H668.446C700.106 551.974 725.6 526.433 725.6 494.716V470.084H700.987Z" stroke="#4F4F4F" stroke-miterlimit="10"/>
<path d="M609.678 561.555C578.018 561.555 552.523 587.095 552.523 618.837V643.469H577.137C608.823 643.469 634.292 617.929 634.292 586.212V561.58H609.678V561.555Z" stroke="#4F4F4F" stroke-miterlimit="10"/>
<path d="M643.832 561.555V586.187C643.832 617.929 669.326 643.444 700.987 643.444H725.6V618.812C725.6 587.07 700.106 561.555 668.446 561.555H643.832V561.555Z" stroke="#4F4F4F" stroke-miterlimit="10"/>
<path d="M577.015 487.431C575.077 487.431 573.214 488.212 571.881 489.599C570.597 490.935 569.867 492.725 569.867 494.591C569.867 498.549 573.063 501.726 577.015 501.726C580.966 501.726 584.137 498.524 584.137 494.591C584.137 490.633 580.941 487.431 577.015 487.431Z" stroke="#4F4F4F" stroke-miterlimit="10"/>
<path d="M701.167 487.43C697.216 487.43 694.02 490.632 694.02 494.59C694.02 498.549 697.216 501.726 701.167 501.726C705.118 501.726 708.289 498.524 708.289 494.59C708.289 492.725 707.585 490.935 706.276 489.598C704.917 488.187 703.08 487.43 701.167 487.43Z" stroke="#4F4F4F" stroke-miterlimit="10"/>
<path d="M609.827 520.307C607.889 520.307 606.027 521.088 604.693 522.475C603.41 523.811 602.68 525.601 602.68 527.467C602.68 531.425 605.876 534.602 609.827 534.602C613.778 534.602 616.95 531.4 616.975 527.467C616.975 523.534 613.778 520.307 609.827 520.307Z" stroke="#4F4F4F" stroke-miterlimit="10"/>
<path d="M668.319 520.307C664.368 520.307 661.172 523.509 661.172 527.467C661.172 531.426 664.368 534.603 668.319 534.603C672.271 534.603 675.442 531.401 675.442 527.467C675.442 525.602 674.737 523.812 673.428 522.475C672.094 521.089 670.232 520.307 668.319 520.307Z" stroke="#4F4F4F" stroke-miterlimit="10"/>
<path d="M609.827 578.901C605.876 578.901 602.68 582.103 602.68 586.061C602.68 590.019 605.876 593.196 609.827 593.196C613.778 593.196 616.95 589.994 616.95 586.061C616.95 584.195 616.245 582.405 614.936 581.069C613.602 579.682 611.765 578.901 609.827 578.901Z" stroke="#4F4F4F" stroke-miterlimit="10"/>
<path d="M668.319 578.901C666.382 578.901 664.519 579.682 663.185 581.069C661.902 582.405 661.172 584.195 661.172 586.061C661.197 590.019 664.368 593.196 668.319 593.196C672.271 593.196 675.442 589.994 675.442 586.061C675.442 582.103 672.271 578.901 668.319 578.901Z" stroke="#4F4F4F" stroke-miterlimit="10"/>
<path d="M576.99 611.803C573.038 611.803 569.867 615.005 569.867 618.963C569.867 622.921 573.063 626.098 576.99 626.098C580.966 626.098 584.137 622.896 584.137 618.963C584.137 617.097 583.432 615.307 582.098 613.971C580.765 612.584 578.927 611.803 576.99 611.803Z" stroke="#4F4F4F" stroke-miterlimit="10"/>
<path d="M701.167 611.803C699.229 611.803 697.367 612.584 696.033 613.996C694.749 615.307 694.02 617.123 694.02 618.988C694.02 622.947 697.216 626.123 701.167 626.123C705.118 626.123 708.289 622.921 708.315 618.988C708.315 615.005 705.118 611.803 701.167 611.803Z" stroke="#4F4F4F" stroke-miterlimit="10"/>
</g>
<g opacity="0.3">
<path d="M300.082 4.08301V20.2552C300.082 41.0953 316.848 57.8469 337.668 57.8469H353.855V41.6747C353.855 20.8511 337.106 4.08301 316.268 4.08301H300.082Z" stroke="#4F4F4F" stroke-miterlimit="10"/>
<path d="M397.715 4.08301C376.895 4.08301 360.129 20.8511 360.129 41.6747V57.8469H376.315C397.136 57.8469 413.902 41.0788 413.902 20.2552V4.08301H397.715Z" stroke="#4F4F4F" stroke-miterlimit="10"/>
<path d="M337.668 64.1367C316.848 64.1367 300.082 80.9048 300.082 101.745V117.917H316.268C337.106 117.917 353.855 101.149 353.855 80.3255V64.1533H337.668V64.1367Z" stroke="#4F4F4F" stroke-miterlimit="10"/>
<path d="M360.129 64.1367V80.3089C360.129 101.149 376.895 117.901 397.715 117.901H413.902V101.728C413.902 80.8883 397.136 64.1367 376.315 64.1367H360.129V64.1367Z" stroke="#4F4F4F" stroke-miterlimit="10"/>
<path d="M316.189 15.4712C314.914 15.4712 313.689 15.9843 312.812 16.8947C311.968 17.772 311.488 18.9473 311.488 20.1722C311.488 22.771 313.59 24.8567 316.189 24.8567C318.787 24.8567 320.872 22.7545 320.872 20.1722C320.872 17.5734 318.771 15.4712 316.189 15.4712Z" stroke="#4F4F4F" stroke-miterlimit="10"/>
<path d="M397.833 15.4712C395.235 15.4712 393.133 17.5734 393.133 20.1722C393.133 22.771 395.235 24.8567 397.833 24.8567C400.432 24.8567 402.517 22.7545 402.517 20.1722C402.517 18.9473 402.054 17.772 401.193 16.8947C400.299 15.9678 399.091 15.4712 397.833 15.4712Z" stroke="#4F4F4F" stroke-miterlimit="10"/>
<path d="M337.767 37.0562C336.492 37.0562 335.268 37.5693 334.39 38.4797C333.546 39.357 333.066 40.5323 333.066 41.7572C333.066 44.356 335.168 46.4417 337.767 46.4417C340.365 46.4417 342.451 44.3394 342.467 41.7572C342.467 39.1749 340.365 37.0562 337.767 37.0562Z" stroke="#4F4F4F" stroke-miterlimit="10"/>
<path d="M376.232 37.0562C373.633 37.0562 371.531 39.1584 371.531 41.7572C371.531 44.356 373.633 46.4417 376.232 46.4417C378.83 46.4417 380.915 44.3394 380.915 41.7572C380.915 40.5323 380.452 39.357 379.591 38.4797C378.714 37.5693 377.489 37.0562 376.232 37.0562Z" stroke="#4F4F4F" stroke-miterlimit="10"/>
<path d="M337.767 75.5254C335.168 75.5254 333.066 77.6276 333.066 80.2264C333.066 82.8252 335.168 84.9109 337.767 84.9109C340.365 84.9109 342.451 82.8087 342.451 80.2264C342.451 79.0015 341.987 77.8262 341.127 76.9489C340.249 76.0385 339.041 75.5254 337.767 75.5254Z" stroke="#4F4F4F" stroke-miterlimit="10"/>
<path d="M376.232 75.5254C374.957 75.5254 373.732 76.0385 372.855 76.9489C372.011 77.8262 371.531 79.0015 371.531 80.2264C371.548 82.8252 373.633 84.9109 376.232 84.9109C378.83 84.9109 380.915 82.8087 380.915 80.2264C380.915 77.6276 378.83 75.5254 376.232 75.5254Z" stroke="#4F4F4F" stroke-miterlimit="10"/>
<path d="M316.172 97.127C313.574 97.127 311.488 99.2292 311.488 101.828C311.488 104.427 313.59 106.512 316.172 106.512C318.787 106.512 320.872 104.41 320.872 101.828C320.872 100.603 320.409 99.4278 319.532 98.5505C318.655 97.6401 317.446 97.127 316.172 97.127Z" stroke="#4F4F4F" stroke-miterlimit="10"/>
<path d="M397.833 97.127C396.559 97.127 395.334 97.6401 394.457 98.5671C393.613 99.4278 393.133 100.62 393.133 101.845C393.133 104.443 395.235 106.529 397.833 106.529C400.432 106.529 402.517 104.427 402.534 101.845C402.534 99.2292 400.432 97.127 397.833 97.127Z" stroke="#4F4F4F" stroke-miterlimit="10"/>
</g>
<g opacity="0.3">
<path d="M5.08203 461.083V477.255C5.08203 498.095 21.8477 514.847 42.6683 514.847H58.8547V498.675C58.8547 477.851 42.1055 461.083 21.2684 461.083H5.08203Z" stroke="#4F4F4F" stroke-miterlimit="10"/>
<path d="M102.715 461.083C81.8946 461.083 65.1289 477.851 65.1289 498.675V514.847H81.3153C102.136 514.847 118.902 498.079 118.902 477.255V461.083H102.715Z" stroke="#4F4F4F" stroke-miterlimit="10"/>
<path d="M42.6683 521.137C21.8477 521.137 5.08203 537.905 5.08203 558.745V574.917H21.2684C42.1055 574.917 58.8547 558.149 58.8547 537.325V521.153H42.6683V521.137Z" stroke="#4F4F4F" stroke-miterlimit="10"/>
<path d="M65.1289 521.137V537.309C65.1289 558.149 81.8946 574.901 102.715 574.901H118.902V558.728C118.902 537.888 102.136 521.137 81.3153 521.137H65.1289V521.137Z" stroke="#4F4F4F" stroke-miterlimit="10"/>
<path d="M21.1886 472.471C19.9142 472.471 18.6895 472.984 17.8123 473.895C16.9682 474.772 16.4883 475.947 16.4883 477.172C16.4883 479.771 18.5902 481.857 21.1886 481.857C23.7871 481.857 25.8724 479.754 25.8724 477.172C25.8724 474.573 23.7705 472.471 21.1886 472.471Z" stroke="#4F4F4F" stroke-miterlimit="10"/>
<path d="M102.833 472.471C100.235 472.471 98.1328 474.573 98.1328 477.172C98.1328 479.771 100.235 481.857 102.833 481.857C105.432 481.857 107.517 479.754 107.517 477.172C107.517 475.947 107.054 474.772 106.193 473.895C105.299 472.968 104.091 472.471 102.833 472.471Z" stroke="#4F4F4F" stroke-miterlimit="10"/>
<path d="M42.7668 494.056C41.4924 494.056 40.2676 494.569 39.3904 495.48C38.5464 496.357 38.0664 497.532 38.0664 498.757C38.0664 501.356 40.1683 503.442 42.7668 503.442C45.3652 503.442 47.4506 501.339 47.4671 498.757C47.4671 496.175 45.3652 494.056 42.7668 494.056Z" stroke="#4F4F4F" stroke-miterlimit="10"/>
<path d="M81.2316 494.056C78.6332 494.056 76.5312 496.158 76.5312 498.757C76.5312 501.356 78.6332 503.442 81.2316 503.442C83.83 503.442 85.9154 501.339 85.9154 498.757C85.9154 497.532 85.452 496.357 84.5914 495.48C83.7142 494.569 82.4894 494.056 81.2316 494.056Z" stroke="#4F4F4F" stroke-miterlimit="10"/>
<path d="M42.7667 532.525C40.1683 532.525 38.0664 534.628 38.0664 537.226C38.0664 539.825 40.1683 541.911 42.7667 541.911C45.3652 541.911 47.4505 539.809 47.4505 537.226C47.4505 536.001 46.9871 534.826 46.1265 533.949C45.2493 533.039 44.0411 532.525 42.7667 532.525Z" stroke="#4F4F4F" stroke-miterlimit="10"/>
<path d="M81.2316 532.525C79.9572 532.525 78.7325 533.039 77.8553 533.949C77.0112 534.826 76.5312 536.001 76.5312 537.226C76.5478 539.825 78.6332 541.911 81.2316 541.911C83.83 541.911 85.9154 539.809 85.9154 537.226C85.9154 534.628 83.83 532.525 81.2316 532.525Z" stroke="#4F4F4F" stroke-miterlimit="10"/>
<path d="M21.1721 554.127C18.5736 554.127 16.4883 556.229 16.4883 558.828C16.4883 561.427 18.5902 563.512 21.1721 563.512C23.7871 563.512 25.8724 561.41 25.8724 558.828C25.8724 557.603 25.409 556.428 24.5318 555.551C23.6547 554.64 22.4465 554.127 21.1721 554.127Z" stroke="#4F4F4F" stroke-miterlimit="10"/>
<path d="M102.833 554.127C101.559 554.127 100.334 554.64 99.4569 555.567C98.6128 556.428 98.1328 557.62 98.1328 558.845C98.1328 561.443 100.235 563.529 102.833 563.529C105.432 563.529 107.517 561.427 107.534 558.845C107.534 556.229 105.432 554.127 102.833 554.127Z" stroke="#4F4F4F" stroke-miterlimit="10"/>
</g>
<g opacity="0.3">
<path d="M437.062 343.062V355.263C437.062 370.984 449.71 383.621 465.417 383.621H477.628V371.421C477.628 355.712 464.993 343.062 449.273 343.062H437.062Z" stroke="#4F4F4F" stroke-miterlimit="10"/>
<path d="M510.714 343.062C495.007 343.062 482.359 355.712 482.359 371.421V383.621H494.57C510.277 383.621 522.925 370.972 522.925 355.263V343.062H510.714Z" stroke="#4F4F4F" stroke-miterlimit="10"/>
<path d="M465.417 388.366C449.71 388.366 437.062 401.016 437.062 416.737V428.937H449.273C464.993 428.937 477.628 416.288 477.628 400.579V388.379H465.417V388.366Z" stroke="#4F4F4F" stroke-miterlimit="10"/>
<path d="M482.359 388.366V400.566C482.359 416.288 495.007 428.925 510.714 428.925H522.925V416.725C522.925 401.003 510.277 388.366 494.57 388.366H482.359V388.366Z" stroke="#4F4F4F" stroke-miterlimit="10"/>
<path d="M449.214 351.654C448.252 351.654 447.329 352.041 446.667 352.728C446.03 353.39 445.668 354.276 445.668 355.2C445.668 357.161 447.254 358.734 449.214 358.734C451.174 358.734 452.747 357.148 452.747 355.2C452.747 353.24 451.162 351.654 449.214 351.654Z" stroke="#4F4F4F" stroke-miterlimit="10"/>
<path d="M510.804 351.654C508.843 351.654 507.258 353.24 507.258 355.2C507.258 357.161 508.843 358.734 510.804 358.734C512.764 358.734 514.337 357.148 514.337 355.2C514.337 354.276 513.987 353.39 513.338 352.728C512.664 352.028 511.753 351.654 510.804 351.654Z" stroke="#4F4F4F" stroke-miterlimit="10"/>
<path d="M465.491 367.937C464.53 367.937 463.606 368.324 462.944 369.011C462.307 369.673 461.945 370.559 461.945 371.483C461.945 373.444 463.531 375.017 465.491 375.017C467.451 375.017 469.025 373.431 469.037 371.483C469.037 369.535 467.451 367.937 465.491 367.937Z" stroke="#4F4F4F" stroke-miterlimit="10"/>
<path d="M494.507 367.937C492.547 367.937 490.961 369.523 490.961 371.483C490.961 373.444 492.547 375.017 494.507 375.017C496.467 375.017 498.04 373.431 498.04 371.483C498.04 370.559 497.691 369.673 497.041 369.011C496.38 368.324 495.456 367.937 494.507 367.937Z" stroke="#4F4F4F" stroke-miterlimit="10"/>
<path d="M465.491 396.958C463.531 396.958 461.945 398.544 461.945 400.504C461.945 402.465 463.531 404.038 465.491 404.038C467.451 404.038 469.025 402.452 469.025 400.504C469.025 399.58 468.675 398.694 468.026 398.032C467.364 397.345 466.453 396.958 465.491 396.958Z" stroke="#4F4F4F" stroke-miterlimit="10"/>
<path d="M494.507 396.958C493.545 396.958 492.622 397.345 491.96 398.032C491.323 398.694 490.961 399.58 490.961 400.504C490.973 402.465 492.547 404.038 494.507 404.038C496.467 404.038 498.04 402.452 498.04 400.504C498.04 398.544 496.467 396.958 494.507 396.958Z" stroke="#4F4F4F" stroke-miterlimit="10"/>
<path d="M449.201 413.254C447.241 413.254 445.668 414.84 445.668 416.8C445.668 418.761 447.254 420.334 449.201 420.334C451.174 420.334 452.747 418.748 452.747 416.8C452.747 415.876 452.398 414.99 451.736 414.328C451.074 413.641 450.163 413.254 449.201 413.254Z" stroke="#4F4F4F" stroke-miterlimit="10"/>
<path d="M510.804 413.254C509.842 413.254 508.918 413.641 508.257 414.34C507.62 414.99 507.258 415.889 507.258 416.813C507.258 418.773 508.843 420.347 510.804 420.347C512.764 420.347 514.337 418.761 514.35 416.813C514.35 414.84 512.764 413.254 510.804 413.254Z" stroke="#4F4F4F" stroke-miterlimit="10"/>
</g>
<defs>
<clipPath id="clip0">
<rect width="196" height="202" fill="white" transform="translate(50 58)"/>
</clipPath>
</defs>
</svg>
