<svg width="18" height="18" viewBox="0 0 18 18" fill="none" xmlns="http://www.w3.org/2000/svg">
<path d="M11.2498 14.0624C10.6001 14.063 9.96031 13.9025 9.38774 13.5954C8.81517 13.2883 8.32764 12.844 7.96875 12.3024L8.90588 11.6797C9.16241 12.0665 9.51071 12.3839 9.91969 12.6034C10.3287 12.8229 10.7856 12.9378 11.2498 12.9378C11.714 12.9378 12.1709 12.8229 12.5799 12.6034C12.9889 12.3839 13.3372 12.0665 13.5938 11.6797L14.5309 12.3024C14.172 12.844 13.6845 13.2883 13.1119 13.5954C12.5393 13.9025 11.8996 14.063 11.2498 14.0624Z" fill="#D0542D"/>
<path d="M13.5 7.87506C13.2775 7.87506 13.06 7.94104 12.875 8.06465C12.69 8.18827 12.5458 8.36397 12.4606 8.56954C12.3755 8.77511 12.3532 9.00131 12.3966 9.21953C12.44 9.43776 12.5472 9.63822 12.7045 9.79555C12.8618 9.95289 13.0623 10.06 13.2805 10.1034C13.4988 10.1469 13.725 10.1246 13.9305 10.0394C14.1361 9.95427 14.3118 9.81008 14.4354 9.62507C14.559 9.44007 14.625 9.22256 14.625 9.00006C14.6265 8.8519 14.5984 8.70494 14.5424 8.56777C14.4864 8.43059 14.4036 8.30598 14.2988 8.20121C14.1941 8.09644 14.0695 8.01363 13.9323 7.95763C13.7951 7.90162 13.6482 7.87355 13.5 7.87506Z" fill="#D0542D"/>
<path d="M9 7.87506C8.7775 7.87506 8.55999 7.94104 8.37498 8.06465C8.18998 8.18827 8.04578 8.36397 7.96064 8.56954C7.87549 8.77511 7.85321 9.00131 7.89662 9.21953C7.94003 9.43776 8.04717 9.63822 8.20451 9.79555C8.36184 9.95289 8.5623 10.06 8.78052 10.1034C8.99875 10.1469 9.22495 10.1246 9.43052 10.0394C9.63609 9.95427 9.81179 9.81008 9.9354 9.62507C10.059 9.44007 10.125 9.22256 10.125 9.00006C10.1265 8.8519 10.0984 8.70494 10.0424 8.56777C9.98643 8.43059 9.90361 8.30598 9.79885 8.20121C9.69408 8.09644 9.56946 8.01363 9.43229 7.95763C9.29512 7.90162 9.14816 7.87355 9 7.87506Z" fill="#D0542D"/>
<path d="M15.75 4.5H12.375V2.25C12.3747 1.95172 12.2561 1.66575 12.0452 1.45483C11.8343 1.24392 11.5483 1.1253 11.25 1.125H2.25C1.95172 1.1253 1.66575 1.24392 1.45483 1.45483C1.24392 1.66575 1.1253 1.95172 1.125 2.25V7.875C1.12719 9.24921 1.63187 10.5752 2.54394 11.6031C3.45601 12.631 4.7125 13.2899 6.07669 13.4556C6.58504 14.648 7.48967 15.6282 8.63755 16.2304C9.78543 16.8326 11.1061 17.0199 12.3761 16.7605C13.6462 16.5011 14.7876 15.8109 15.6074 14.8068C16.4272 13.8027 16.875 12.5463 16.875 11.25V5.625C16.8747 5.32672 16.7561 5.04075 16.5452 4.82983C16.3343 4.61892 16.0483 4.5003 15.75 4.5ZM2.25 7.875V2.25H11.25V4.5H6.75C6.45172 4.5003 6.16575 4.61892 5.95483 4.82983C5.74392 5.04075 5.6253 5.32672 5.625 5.625V11.25C5.62643 11.5859 5.65806 11.921 5.7195 12.2513C4.73322 12.0184 3.85428 11.4598 3.22471 10.6657C2.59514 9.87158 2.25174 8.88839 2.25 7.875ZM15.75 11.25C15.75 12.4435 15.2759 13.5881 14.432 14.432C13.5881 15.2759 12.4435 15.75 11.25 15.75C10.0565 15.75 8.91193 15.2759 8.06802 14.432C7.22411 13.5881 6.75 12.4435 6.75 11.25V5.625H15.75V11.25Z" fill="#D0542D"/>
</svg>
