<svg width="22" height="21" viewBox="0 0 22 21" fill="none" xmlns="http://www.w3.org/2000/svg">
<path fill-rule="evenodd" clip-rule="evenodd" d="M5.2168 2.49991H17.2168C17.7472 2.49991 18.2559 2.71062 18.631 3.08569C19.0061 3.46077 19.2168 3.96948 19.2168 4.49991V16.4999C19.2168 17.0303 19.0061 17.539 18.631 17.9141C18.2559 18.2892 17.7472 18.4999 17.2168 18.4999H5.2168C4.68636 18.4999 4.17766 18.2892 3.80258 17.9141C3.42751 17.539 3.2168 17.0303 3.2168 16.4999V4.49991C3.2168 3.96948 3.42751 3.46077 3.80258 3.08569C4.17766 2.71062 4.68636 2.49991 5.2168 2.49991V2.49991Z" stroke="#333333" stroke-linecap="round" stroke-linejoin="round"/>
<path d="M3.2168 6.49983H19.2168" stroke="#333333" stroke-linecap="round" stroke-linejoin="round"/>
<path d="M11.2168 11.4998C11.7691 11.4998 12.2168 11.0521 12.2168 10.4998C12.2168 9.94753 11.7691 9.49982 11.2168 9.49982C10.6645 9.49982 10.2168 9.94753 10.2168 10.4998C10.2168 11.0521 10.6645 11.4998 11.2168 11.4998Z" fill="#333333"/>
<path d="M7.2168 11.4998C7.76908 11.4998 8.2168 11.0521 8.2168 10.4998C8.2168 9.94753 7.76908 9.49982 7.2168 9.49982C6.66451 9.49982 6.2168 9.94753 6.2168 10.4998C6.2168 11.0521 6.66451 11.4998 7.2168 11.4998Z" fill="#333333"/>
<path d="M15.2168 11.4998C15.7691 11.4998 16.2168 11.0521 16.2168 10.4998C16.2168 9.94753 15.7691 9.49982 15.2168 9.49982C14.6645 9.49982 14.2168 9.94753 14.2168 10.4998C14.2168 11.0521 14.6645 11.4998 15.2168 11.4998Z" fill="#333333"/>
<path d="M11.2168 15.4997C11.7691 15.4997 12.2168 15.052 12.2168 14.4997C12.2168 13.9475 11.7691 13.4997 11.2168 13.4997C10.6645 13.4997 10.2168 13.9475 10.2168 14.4997C10.2168 15.052 10.6645 15.4997 11.2168 15.4997Z" fill="#333333"/>
<path d="M7.2168 15.4997C7.76908 15.4997 8.2168 15.052 8.2168 14.4997C8.2168 13.9475 7.76908 13.4997 7.2168 13.4997C6.66451 13.4997 6.2168 13.9475 6.2168 14.4997C6.2168 15.052 6.66451 15.4997 7.2168 15.4997Z" fill="#333333"/>
<path d="M15.2168 15.4997C15.7691 15.4997 16.2168 15.052 16.2168 14.4997C16.2168 13.9475 15.7691 13.4997 15.2168 13.4997C14.6645 13.4997 14.2168 13.9475 14.2168 14.4997C14.2168 15.052 14.6645 15.4997 15.2168 15.4997Z" fill="#333333"/>
<rect x="2.9668" y="2.25002" width="16.5" height="4.5" rx="2.25" fill="#333333"/>
</svg>
