<?xml version="1.0" encoding="utf-8"?>
<!-- Generator: Adobe Illustrator 19.0.0, SVG Export Plug-In . SVG Version: 6.00 Build 0)  -->
<svg version="1.1" id="Layer_1" xmlns="http://www.w3.org/2000/svg" xmlns:xlink="http://www.w3.org/1999/xlink" x="0px" y="0px"
	 width="20px" height="20px" viewBox="-145.4 382.2 20 20" style="enable-background:new -145.4 382.2 20 20;" xml:space="preserve"
	>
<style type="text/css">
	.st0{fill:#FFFFFF;}
</style>
<path class="st0" d="M-125.8,382.2l0.4,0.4l0,0.2l-0.4-0.1c0.4,0.1,0.4,0.1,0.4,0.1l0,0l0,0l0,0l0,0c0,0,0,0,0,0.1
	c0,0,0,0.1-0.1,0.2c0,0.2-0.1,0.4-0.2,0.8c-0.2,0.6-0.6,1.5-1.3,2.5c-1.3,2-3.7,4.3-7.9,6l-0.2,0.1l-0.6-0.4l0.1-0.3
	c1.7-4.2,4.1-6.6,6-7.9c1-0.7,1.9-1.1,2.5-1.3c0.3-0.1,0.6-0.2,0.8-0.2c0.1,0,0.2,0,0.2-0.1c0,0,0,0,0.1,0l0,0l0,0l0,0
	c0,0,0,0,0.1,0.4l-0.1-0.4L-125.8,382.2z M-126.3,383.1c-0.1,0-0.3,0.1-0.5,0.2c-0.6,0.2-1.4,0.6-2.3,1.2c-1.7,1.2-3.9,3.3-5.5,6.9
	c3.7-1.6,5.8-3.8,7-5.5c0.6-0.9,1-1.7,1.2-2.3C-126.4,383.4-126.3,383.2-126.3,383.1z"/>
<path class="st0" d="M-135.5,391.8l-0.3,0.1c-4.2,1.7-6.6,4.1-7.9,6.1c-0.7,1-1.1,1.9-1.3,2.5c-0.1,0.3-0.2,0.6-0.2,0.8
	c0,0.1,0,0.2-0.1,0.2c0,0,0,0,0,0.1l0,0l0,0l0,0l0,0l0.4,0.1c-0.4-0.1-0.4-0.1-0.4-0.1l0,0.2l0.4,0.4l0.2,0l-0.1-0.4
	c0.1,0.4,0.1,0.4,0.1,0.4l0,0l0,0l0,0c0,0,0,0,0.1,0c0,0,0.1,0,0.2-0.1c0.2,0,0.4-0.1,0.8-0.2c0.6-0.2,1.5-0.6,2.5-1.3
	c2-1.3,4.3-3.7,6-7.9l0.1-0.2L-135.5,391.8z M-141.6,399.9c-0.9,0.6-1.7,1-2.3,1.2c-0.2,0.1-0.4,0.1-0.5,0.2c0-0.1,0.1-0.3,0.2-0.5
	c0.2-0.6,0.6-1.4,1.2-2.3c1.2-1.8,3.3-3.9,6.9-5.5C-137.8,396.6-139.9,398.7-141.6,399.9z"/>
<path class="st0" d="M-125.4,401.5l-0.4,0.1C-125.4,401.5-125.4,401.5-125.4,401.5L-125.4,401.5L-125.4,401.5L-125.4,401.5
	C-125.4,401.5-125.4,401.5-125.4,401.5c0-0.1,0-0.2-0.1-0.3c0-0.2-0.1-0.4-0.2-0.8c-0.2-0.6-0.6-1.5-1.3-2.5c-1.3-2-3.7-4.4-7.9-6.1
	l-0.3-0.1l-0.4,0.6l0.1,0.2c1.7,4.2,4.1,6.6,6,7.9c1,0.7,1.9,1.1,2.5,1.3c0.3,0.1,0.6,0.2,0.8,0.2c0.1,0,0.2,0,0.2,0.1
	c0,0,0,0,0.1,0l0,0l0,0l0,0l0,0l0.1-0.4c-0.1,0.4-0.1,0.4-0.1,0.4l0.2,0l0.4-0.4L-125.4,401.5z M-126.8,401.1
	c-0.6-0.2-1.4-0.6-2.3-1.2c-1.7-1.2-3.9-3.3-5.5-7c3.7,1.6,5.8,3.8,6.9,5.5c0.6,0.9,1,1.7,1.2,2.3c0.1,0.2,0.1,0.4,0.2,0.5
	C-126.4,401.2-126.6,401.2-126.8,401.1z"/>
<path class="st0" d="M-144.7,382.2l-0.1,0.4C-144.7,382.2-144.7,382.2-144.7,382.2L-144.7,382.2L-144.7,382.2L-144.7,382.2
	L-144.7,382.2C-144.7,382.2-144.7,382.2-144.7,382.2c0.1,0,0.2,0,0.3,0.1c0.2,0,0.4,0.1,0.8,0.2c0.6,0.2,1.5,0.6,2.5,1.3
	c2,1.3,4.3,3.7,6,7.9l0.1,0.3l-0.6,0.4l-0.2-0.1c-4.2-1.7-6.6-4.1-7.9-6c-0.7-1-1.1-1.9-1.3-2.5c-0.1-0.3-0.2-0.6-0.2-0.8
	c0-0.1,0-0.2-0.1-0.2c0,0,0,0,0-0.1l0,0l0,0l0,0c0,0,0,0,0.4-0.1l-0.4,0.1l0-0.2l0.4-0.4L-144.7,382.2z M-144.8,383
	C-144.8,383-144.8,383-144.8,383z M-144.4,383.1c0,0.1,0.1,0.3,0.2,0.5c0.2,0.6,0.6,1.4,1.2,2.3c1.2,1.7,3.3,3.9,7,5.5
	c-1.6-3.7-3.7-5.8-5.5-6.9c-0.9-0.6-1.7-1-2.3-1.2C-144.1,383.2-144.3,383.1-144.4,383.1z"/>
</svg>
