<svg width="108" height="108" viewBox="0 0 108 108" fill="none" xmlns="http://www.w3.org/2000/svg">
<g clip-path="url(#clip0)">
<path d="M0.0783691 0.078125V15.3992C0.0783691 35.1425 15.9616 51.0123 35.6864 51.0123H51.0209V35.6913C51.0209 15.9637 35.1533 0.078125 15.4129 0.078125H0.0783691Z" stroke="#333333" stroke-miterlimit="10"/>
<path d="M92.5714 0.078125C72.8467 0.078125 56.9634 15.9637 56.9634 35.6913V51.0123H72.2979C92.0226 51.0123 107.906 35.1268 107.906 15.3992V0.078125H92.5714Z" stroke="#333333" stroke-miterlimit="10"/>
<path d="M35.6864 56.9717C15.9616 56.9717 0.0783691 72.8573 0.0783691 92.6005V107.922H15.4129C35.1533 107.922 51.0209 92.036 51.0209 72.3084V56.9874H35.6864V56.9717Z" stroke="#333333" stroke-miterlimit="10"/>
<path d="M56.9634 56.9717V72.2927C56.9634 92.036 72.8467 107.906 92.5714 107.906H107.906V92.5849C107.906 72.8416 92.0226 56.9717 72.2979 56.9717H56.9634V56.9717Z" stroke="#333333" stroke-miterlimit="10"/>
<path d="M15.3346 10.8682C14.1272 10.8682 12.967 11.3543 12.1359 12.2168C11.3363 13.0479 10.8816 14.1613 10.8816 15.3218C10.8816 17.7838 12.8729 19.7597 15.3346 19.7597C17.7962 19.7597 19.7718 17.7681 19.7718 15.3218C19.7718 12.8597 17.7805 10.8682 15.3346 10.8682Z" stroke="#333333" stroke-miterlimit="10"/>
<path d="M92.6812 10.8682C90.2196 10.8682 88.2283 12.8597 88.2283 15.3218C88.2283 17.7838 90.2196 19.7597 92.6812 19.7597C95.1429 19.7597 97.1185 17.7681 97.1185 15.3218C97.1185 14.1613 96.6795 13.0479 95.8642 12.2168C95.0175 11.3386 93.8729 10.8682 92.6812 10.8682Z" stroke="#333333" stroke-miterlimit="10"/>
<path d="M35.7806 31.3164C34.5733 31.3164 33.413 31.8025 32.582 32.665C31.7823 33.4962 31.3276 34.6096 31.3276 35.77C31.3276 38.232 33.3189 40.2079 35.7806 40.2079C38.2423 40.2079 40.2179 38.2164 40.2336 35.77C40.2336 33.3237 38.2423 31.3164 35.7806 31.3164Z" stroke="#333333" stroke-miterlimit="10"/>
<path d="M72.2196 31.3164C69.7579 31.3164 67.7666 33.308 67.7666 35.77C67.7666 38.232 69.7579 40.2079 72.2196 40.2079C74.6812 40.2079 76.6569 38.2164 76.6569 35.77C76.6569 34.6096 76.2178 33.4962 75.4025 32.665C74.5715 31.8025 73.4112 31.3164 72.2196 31.3164Z" stroke="#333333" stroke-miterlimit="10"/>
<path d="M35.7806 67.7607C33.3189 67.7607 31.3276 69.7523 31.3276 72.2143C31.3276 74.6764 33.3189 76.6523 35.7806 76.6523C38.2423 76.6523 40.2179 74.6607 40.2179 72.2143C40.2179 71.0539 39.7789 69.9405 38.9635 69.1094C38.1325 68.2469 36.9879 67.7607 35.7806 67.7607Z" stroke="#333333" stroke-miterlimit="10"/>
<path d="M72.2196 67.7607C71.0122 67.7607 69.852 68.2469 69.021 69.1094C68.2213 69.9405 67.7666 71.0539 67.7666 72.2143C67.7823 74.6764 69.7579 76.6523 72.2196 76.6523C74.6812 76.6523 76.6569 74.6607 76.6569 72.2143C76.6569 69.7523 74.6812 67.7607 72.2196 67.7607Z" stroke="#333333" stroke-miterlimit="10"/>
<path d="M15.3189 88.2256C12.8572 88.2256 10.8816 90.2172 10.8816 92.6792C10.8816 95.1412 12.8729 97.1171 15.3189 97.1171C17.7962 97.1171 19.7718 95.1255 19.7718 92.6792C19.7718 91.5187 19.3328 90.4053 18.5018 89.5742C17.6708 88.7117 16.5262 88.2256 15.3189 88.2256Z" stroke="#333333" stroke-miterlimit="10"/>
<path d="M92.6812 88.2256C91.4739 88.2256 90.3136 88.7117 89.4826 89.5899C88.683 90.4053 88.2283 91.5344 88.2283 92.6949C88.2283 95.1569 90.2196 97.1328 92.6812 97.1328C95.1429 97.1328 97.1185 95.1412 97.1342 92.6949C97.1342 90.2172 95.1429 88.2256 92.6812 88.2256Z" stroke="#333333" stroke-miterlimit="10"/>
</g>
<defs>
<clipPath id="clip0">
<rect width="108" height="108" fill="white"/>
</clipPath>
</defs>
</svg>
