<svg width="16" height="15" viewBox="0 0 16 15" fill="none" xmlns="http://www.w3.org/2000/svg">
<path d="M7.85756 11.7857H2.78613C2.23385 11.7857 1.78613 11.338 1.78613 10.7857V4.21425C1.78613 3.66197 2.23385 3.21425 2.78613 3.21425H4.22906C4.49428 3.21425 4.74863 3.10889 4.93617 2.92136L5.42181 2.43572C5.60935 2.24818 5.8637 2.14282 6.12892 2.14282H7.50042H7.85756" stroke="#296EBB"/>
<path d="M7.85672 9.28571C6.67326 9.28571 5.71387 8.32632 5.71387 7.14286C5.71387 5.95939 6.67326 5 7.85672 5" stroke="#296EBB"/>
<path d="M7.85631 11.7857H12.9277C13.48 11.7857 13.9277 11.338 13.9277 10.7857V4.21425C13.9277 3.66197 13.48 3.21425 12.9277 3.21425H11.4848C11.2196 3.21425 10.9652 3.10889 10.7777 2.92136L10.2921 2.43572C10.1045 2.24818 9.85017 2.14282 9.58495 2.14282H8.21345H7.85631" stroke="#296EBB"/>
<path d="M7.85714 9.28571C9.04061 9.28571 10 8.32632 10 7.14286C10 5.95939 9.04061 5 7.85714 5" stroke="#296EBB"/>
</svg>
