<svg width="24" height="24" viewBox="0 0 24 24" fill="none" xmlns="http://www.w3.org/2000/svg">
<path d="M11.846 9.762C11.846 9.83557 11.8482 9.90918 11.8529 9.98263C9.76675 9.74736 7.93137 8.69278 6.67006 7.14528L6.30363 6.69573L6.01361 7.19797C5.73401 7.68215 5.57 8.24879 5.57 8.85C5.57 9.4334 5.72201 9.98305 5.98945 10.4595L5.552 10.2172V10.896V10.8961V10.8961V10.8962V10.8963V10.8964V10.8964V10.8965V10.8966V10.8966V10.8967V10.8968V10.8968V10.8969V10.897V10.8971V10.8971V10.8972V10.8973V10.8973V10.8974V10.8975V10.8975V10.8976V10.8977V10.8978V10.8978V10.8979V10.898V10.898V10.8981V10.8982V10.8982V10.8983V10.8984V10.8985V10.8985V10.8986V10.8987V10.8987V10.8988V10.8989V10.899V10.899V10.8991V10.8992V10.8992V10.8993V10.8994V10.8994V10.8995V10.8996V10.8997V10.8997V10.8998V10.8999V10.8999V10.9V10.9001V10.9001V10.9002V10.9003V10.9004V10.9004V10.9005V10.9006V10.9006V10.9007V10.9008V10.9009V10.9009V10.901V10.9011V10.9011V10.9012V10.9013V10.9013V10.9014V10.9015V10.9016V10.9016V10.9017V10.9018V10.9018V10.9019V10.902V10.902V10.9021V10.9022V10.9023V10.9023V10.9024V10.9025V10.9025V10.9026V10.9027V10.9028V10.9028V10.9029V10.903V10.903V10.9031V10.9032V10.9032V10.9033V10.9034V10.9035V10.9035V10.9036V10.9037V10.9037V10.9038V10.9039V10.9039V10.904V10.9041V10.9042V10.9042V10.9043V10.9044V10.9044V10.9045V10.9046V10.9046V10.9047V10.9048V10.9049V10.9049V10.905V10.9051V10.9051V10.9052V10.9053V10.9054V10.9054V10.9055V10.9056V10.9056V10.9057V10.9058V10.9058V10.9059V10.906V10.9061V10.9061V10.9062V10.9063V10.9063V10.9064V10.9065V10.9065V10.9066V10.9067V10.9068V10.9068V10.9069V10.907V10.907V10.9071V10.9072V10.9072V10.9073V10.9074V10.9075V10.9075V10.9076V10.9077V10.9077V10.9078V10.9079V10.908V10.908V10.9081V10.9082V10.9082V10.9083V10.9084V10.9084V10.9085V10.9086V10.9087V10.9087V10.9088V10.9089V10.9089V10.909V10.9091V10.9091V10.9092V10.9093V10.9094V10.9094V10.9095V10.9096V10.9096V10.9097V10.9098V10.9099V10.9099V10.91V10.9101V10.9101V10.9102V10.9103V10.9103V10.9104V10.9105V10.9106V10.9106V10.9107V10.9108V10.9108V10.9109V10.911V10.911V10.9111V10.9112V10.9113V10.9113V10.9114V10.9115V10.9115V10.9116V10.9117V10.9117V10.9118V10.9119V10.912V10.912V10.9121V10.9122V10.9122V10.9123V10.9124V10.9125V10.9125V10.9126V10.9127V10.9127V10.9128V10.9129V10.9129V10.913V10.9131V10.9132V10.9132V10.9133V10.9134V10.9134V10.9135V10.9136V10.9136V10.9137V10.9138V10.9139V10.9139V10.914V10.9141V10.9141V10.9142V10.9143V10.9144V10.9144V10.9145V10.9146V10.9146V10.9147V10.9148V10.9148V10.9149V10.915V10.9151V10.9151V10.9152V10.9153V10.9153V10.9154V10.9155V10.9155V10.9156V10.9157V10.9158V10.9158V10.9159V10.916V10.916V10.9161V10.9162V10.9162V10.9163V10.9164V10.9165V10.9165V10.9166V10.9167V10.9167V10.9168V10.9169V10.917V10.917V10.9171V10.9172V10.9172V10.9173V10.9174V10.9174V10.9175V10.9176V10.9177V10.9177V10.9178V10.9179V10.9179V10.918V10.9181V10.9181V10.9182V10.9183V10.9184V10.9184V10.9185V10.9186V10.9186V10.9187V10.9188V10.9189V10.9189V10.919V10.9191V10.9191V10.9192V10.9193V10.9193V10.9194V10.9195V10.9196V10.9196V10.9197V10.9198V10.9198V10.9199V10.92V10.92V10.9201V10.9202V10.9203V10.9203V10.9204V10.9205V10.9205V10.9206V10.9207V10.9207V10.9208V10.9209V10.921V10.921V10.9211V10.9212V10.9212V10.9213V10.9214V10.9215V10.9215V10.9216V10.9217V10.9217V10.9218V10.9219V10.9219V10.922V10.9221V10.9222V10.9222V10.9223V10.9224V10.9224V10.9225V10.9226V10.9226V10.9227V10.9228V10.9229V10.9229V10.923V10.9231V10.9231V10.9232V10.9233V10.9234V10.9234V10.9235V10.9236V10.9236V10.9237V10.9238V10.9238V10.9239V10.924V10.9241V10.9241V10.9242V10.9243V10.9243V10.9244V10.9245V10.9245V10.9246V10.9247V10.9248V10.9248V10.9249V10.925V10.925V10.9251V10.9252V10.9252V10.9253V10.9254V10.9255V10.9255V10.9256V10.9257V10.9257V10.9258V10.9259V10.926V10.926V10.9261V10.9262V10.9262V10.9263V10.9264V10.9264V10.9265V10.9266V10.9267V10.9267V10.9268V10.9269V10.9269V10.927V10.9271V10.9271V10.9272V10.9273V10.9274V10.9274V10.9275V10.9276V10.9276V10.9277V10.9278V10.9279V10.9279V10.928V10.9281V10.9281V10.9282V10.9283V10.9283V10.9284V10.9285V10.9286V10.9286V10.9287V10.9288V10.9288V10.9289V10.929V10.929V10.9291V10.9292V10.9293V10.9293V10.9294V10.9295V10.9295V10.9296V10.9297V10.9297V10.9298V10.9299V10.93V10.93V10.9301V10.9302V10.9302V10.9303V10.9304V10.9305V10.9305V10.9306V10.9307V10.9307V10.9308V10.9309V10.9309V10.931V10.9311V10.9312V10.9312V10.9313V10.9314V10.9314V10.9315V10.9316V10.9316V10.9317V10.9318V10.9319V10.9319V10.932C5.552 11.8824 5.9528 12.7355 6.59441 13.3358L6.37942 13.2928L6.58478 13.9391C6.89546 14.917 7.65003 15.6935 8.61089 16.0369C7.85347 16.4372 6.98956 16.664 6.072 16.664C5.85171 16.664 5.64153 16.6527 5.43418 16.6254L5.16306 17.3568C6.49297 18.2266 8.09284 18.73 9.804 18.73C15.3929 18.73 18.436 14.0919 18.436 10.098V10.0931C18.436 10.0379 18.436 9.98035 18.4354 9.92189C18.9665 9.50926 19.4319 9.01037 19.8083 8.44867L20.5763 7.30249L19.3143 7.86013C19.2523 7.88752 19.1897 7.9138 19.1264 7.93894C19.2685 7.71085 19.3836 7.46368 19.4671 7.20142L19.7857 6.20149L18.8824 6.7357C18.421 7.00854 17.9155 7.21544 17.3771 7.34457C16.7892 6.79943 16.0023 6.47 15.138 6.47C13.3211 6.47 11.846 7.94509 11.846 9.762ZM23.6 12C23.6 18.4091 18.4091 23.6 12 23.6C5.59091 23.6 0.4 18.4091 0.4 12C0.4 5.59091 5.59091 0.4 12 0.4C18.4091 0.4 23.6 5.59091 23.6 12Z" stroke-width="0.8"/>
</svg>
