<svg width="31" height="25" viewBox="0 0 31 25" fill="none" xmlns="http://www.w3.org/2000/svg">
<path d="M25.2594 5.2L25.9889 5.88394L26.0041 5.86769L26.0186 5.85079L25.2594 5.2ZM27.2594 3.2L26.6191 2.43171L26.6086 2.44074L27.2594 3.2ZM22.1594 4.09999L21.4523 3.39289L21.4523 3.39289L22.1594 4.09999ZM9.25938 5.2L9.98891 5.88394L10.0041 5.86769L10.0186 5.85079L9.25938 5.2ZM11.2594 3.2L10.6191 2.43171L10.6086 2.44074L11.2594 3.2ZM6.15938 4.09999L5.45227 3.39289L5.45227 3.39289L6.15938 4.09999ZM30.4594 17.8C30.4594 16.2908 29.8169 15.0789 28.7935 14.2667C27.7944 13.4737 26.4862 13.1 25.1594 13.1V15.1C26.1325 15.1 26.9744 15.3763 27.5502 15.8333C28.1019 16.2711 28.4594 16.9092 28.4594 17.8H30.4594ZM25.1594 13.1H24.0594V15.1H25.1594V13.1ZM24.0594 13.1C23.7548 13.1 23.5752 13.0107 23.4775 12.9167C23.3885 12.8311 23.2594 12.6389 23.2594 12.2H21.2594C21.2594 13.0611 21.5302 13.8189 22.0913 14.3583C22.6435 14.8893 23.364 15.1 24.0594 15.1V13.1ZM23.2594 12.2C23.2594 9.54535 24.5881 7.37811 25.9889 5.88394L24.5298 4.51606C22.9306 6.22188 21.2594 8.85464 21.2594 12.2H23.2594ZM26.0186 5.85079C26.5853 5.18967 27.249 4.52593 27.9102 3.95926L26.6086 2.44074C25.8697 3.07406 25.1334 3.81032 24.5001 4.54921L26.0186 5.85079ZM27.8996 3.96822C28.2094 3.71005 28.4974 3.45345 28.7154 3.21981C28.8233 3.10423 28.9374 2.96968 29.0304 2.82397C29.1045 2.70786 29.2594 2.44407 29.2594 2.1H27.2594C27.2594 1.96346 27.2922 1.86496 27.3093 1.82089C27.3277 1.77388 27.3442 1.74846 27.3446 1.7479C27.346 1.74562 27.3406 1.75434 27.3238 1.77501C27.3076 1.79507 27.2846 1.82168 27.2533 1.85518C27.1214 1.99654 26.9094 2.18994 26.6192 2.43178L27.8996 3.96822ZM29.2594 2.1C29.2594 1.64907 29.1482 1.12544 28.798 0.694405C28.422 0.231699 27.871 -1.90735e-06 27.2594 -1.90735e-06V2C27.3145 2 27.3232 2.00949 27.3048 2.00131C27.2963 1.99753 27.2852 1.99131 27.2734 1.98224C27.2617 1.97324 27.2524 1.9638 27.2458 1.95559C27.2324 1.93915 27.2358 1.93585 27.2431 1.96025C27.2506 1.98546 27.2594 2.03146 27.2594 2.1H29.2594ZM27.2594 -1.90735e-06C26.6631 -1.90735e-06 26.0465 0.218189 25.5172 0.46666C24.966 0.725435 24.402 1.06936 23.8826 1.42443C22.8479 2.13166 21.8994 2.94575 21.4523 3.39289L22.8665 4.8071C23.2193 4.45425 24.0708 3.71834 25.0112 3.07556C25.4792 2.75564 25.9465 2.47456 26.3671 2.27709C26.8097 2.06931 27.1056 2 27.2594 2V-1.90735e-06ZM21.4523 3.39289C17.9687 6.87646 16.1594 11.1292 16.1594 16.1H18.1594C18.1594 11.6708 19.7501 7.92353 22.8665 4.8071L21.4523 3.39289ZM16.1594 16.1C16.1594 18.1787 16.7585 20.269 17.9275 21.8657C19.1114 23.4828 20.8938 24.6 23.1594 24.6V22.6C21.6249 22.6 20.4073 21.8672 19.5412 20.6843C18.6603 19.481 18.1594 17.8213 18.1594 16.1H16.1594ZM23.1594 24.6C24.9781 24.6 26.7834 23.8436 28.1343 22.6491C29.4882 21.452 30.4594 19.7452 30.4594 17.8H28.4594C28.4594 19.0548 27.8305 20.248 26.8095 21.1508C25.7854 22.0564 24.4406 22.6 23.1594 22.6V24.6ZM14.4594 17.8C14.4594 16.2908 13.8169 15.0789 12.7935 14.2667C11.7944 13.4737 10.4862 13.1 9.15938 13.1V15.1C10.1325 15.1 10.9744 15.3763 11.5502 15.8333C12.1019 16.2711 12.4594 16.9092 12.4594 17.8H14.4594ZM9.15938 13.1H8.05938V15.1H9.15938V13.1ZM8.05938 13.1C7.75476 13.1 7.57523 13.0107 7.47748 12.9167C7.38852 12.8311 7.25938 12.6389 7.25938 12.2H5.25938C5.25938 13.0611 5.53023 13.8189 6.09127 14.3583C6.64352 14.8893 7.36399 15.1 8.05938 15.1V13.1ZM7.25938 12.2C7.25938 9.54535 8.58812 7.37811 9.98891 5.88394L8.52984 4.51606C6.93063 6.22188 5.25938 8.85464 5.25938 12.2H7.25938ZM10.0186 5.85079C10.5853 5.18966 11.249 4.52593 11.9102 3.95926L10.6086 2.44074C9.86971 3.07406 9.13344 3.81032 8.50012 4.54921L10.0186 5.85079ZM11.8996 3.96822C12.2094 3.71005 12.4974 3.45345 12.7154 3.21982C12.8233 3.10424 12.9374 2.96968 13.0304 2.82397C13.1045 2.70786 13.2594 2.44407 13.2594 2.1H11.2594C11.2594 1.96346 11.2922 1.86496 11.3093 1.82088C11.3277 1.77388 11.3442 1.74846 11.3446 1.7479C11.346 1.74562 11.3406 1.75434 11.3238 1.77501C11.3076 1.79507 11.2846 1.82168 11.2533 1.85518C11.1214 1.99654 10.9094 2.18994 10.6192 2.43178L11.8996 3.96822ZM13.2594 2.1C13.2594 1.64907 13.1482 1.12544 12.798 0.694405C12.422 0.231699 11.871 -1.90735e-06 11.2594 -1.90735e-06V2C11.3145 2 11.3232 2.00949 11.3048 2.00131C11.2963 1.99753 11.2852 1.99131 11.2734 1.98224C11.2617 1.97324 11.2524 1.9638 11.2458 1.95559C11.2324 1.93915 11.2358 1.93585 11.2431 1.96025C11.2506 1.98546 11.2594 2.03146 11.2594 2.1H13.2594ZM11.2594 -1.90735e-06C10.6631 -1.90735e-06 10.0465 0.218189 9.51723 0.46666C8.966 0.725435 8.40204 1.06936 7.88257 1.42443C6.84793 2.13166 5.89941 2.94575 5.45227 3.39289L6.86648 4.8071C7.21934 4.45425 8.07083 3.71834 9.01118 3.07556C9.47922 2.75564 9.9465 2.47456 10.3671 2.27709C10.8097 2.06931 11.1056 2 11.2594 2V-1.90735e-06ZM5.45227 3.39289C1.9687 6.87646 0.159375 11.1292 0.159375 16.1H2.15938C2.15938 11.6708 3.75005 7.92353 6.86648 4.8071L5.45227 3.39289ZM0.159375 16.1C0.159375 18.1787 0.758458 20.269 1.92751 21.8657C3.11142 23.4828 4.89382 24.6 7.15938 24.6V22.6C5.62493 22.6 4.40733 21.8672 3.54124 20.6843C2.66029 19.481 2.15938 17.8213 2.15938 16.1H0.159375ZM7.15938 24.6C8.97812 24.6 10.7834 23.8436 12.1343 22.6491C13.4882 21.452 14.4594 19.7452 14.4594 17.8H12.4594C12.4594 19.0548 11.8305 20.248 10.8095 21.1508C9.78536 22.0564 8.44063 22.6 7.15938 22.6V24.6Z" fill="#296EBB"/>
</svg>
