<svg width="425" height="152" viewBox="0 0 425 152" fill="none" xmlns="http://www.w3.org/2000/svg">
<path fill-rule="evenodd" clip-rule="evenodd" d="M331.004 1.00107V14.2162C330.995 18.2526 331.783 22.2512 333.323 25.9823C334.863 29.7133 337.126 33.1033 339.98 35.9576C342.834 38.812 346.223 41.0745 349.954 42.6151C353.685 44.1557 357.684 44.9441 361.72 44.9352H374.948V31.7201C374.958 27.6832 374.17 23.6843 372.63 19.9527C371.09 16.2212 368.828 12.8307 365.973 9.97617C363.118 7.12165 359.728 4.85917 355.997 3.31894C352.265 1.77872 348.266 0.991046 344.229 1.00107H331.004Z" stroke="#828282" stroke-miterlimit="10"/>
<path fill-rule="evenodd" clip-rule="evenodd" d="M410.786 1.00098C406.75 0.99201 402.751 1.78065 399.021 3.32129C395.29 4.86192 391.9 7.12417 389.046 9.97852C386.192 12.8329 383.93 16.2231 382.389 19.9541C380.849 23.6851 380.061 27.6835 380.07 31.72V44.9341H393.295C397.332 44.943 401.331 44.1546 405.062 42.614C408.793 41.0734 412.183 38.8109 415.037 35.9565C417.891 33.1022 420.154 29.7122 421.694 25.9812C423.235 22.2502 424.023 18.2517 424.014 14.2151V1L410.786 1.00098Z" stroke="#828282" stroke-miterlimit="10"/>
<path fill-rule="evenodd" clip-rule="evenodd" d="M361.716 50.0694C357.68 50.0606 353.681 50.849 349.951 52.3897C346.22 53.9304 342.83 56.1926 339.976 59.0469C337.122 61.9013 334.86 65.2916 333.319 69.0225C331.779 72.7535 330.991 76.7517 331 80.7882V94.003H344.225C348.262 94.013 352.261 93.2254 355.993 91.6851C359.724 90.1449 363.115 87.8829 365.969 85.0284C368.824 82.1739 371.086 78.7834 372.626 75.0518C374.166 71.3203 374.954 67.3211 374.944 63.2843V50.0694H361.716Z" stroke="#828282" stroke-miterlimit="10"/>
<path fill-rule="evenodd" clip-rule="evenodd" d="M380.07 50.0693V63.2852C380.061 67.3216 380.849 71.3198 382.39 75.0508C383.93 78.7818 386.192 82.172 389.046 85.0264C391.9 87.8807 395.29 90.1429 399.021 91.6836C402.752 93.2243 406.75 94.0127 410.786 94.0039H424.014V80.7891C424.023 76.7525 423.235 72.754 421.694 69.0229C420.154 65.2919 417.891 61.9017 415.037 59.0474C412.183 56.1931 408.793 53.9307 405.062 52.3901C401.331 50.8495 397.332 50.0613 393.295 50.0703L380.07 50.0693Z" stroke="#828282" stroke-miterlimit="10"/>
<path fill-rule="evenodd" clip-rule="evenodd" d="M344.155 10.2998C343.395 10.2986 342.652 10.5227 342.02 10.9436C341.388 11.3646 340.895 11.9636 340.603 12.6648C340.311 13.366 340.234 14.1379 340.381 14.8831C340.528 15.6282 340.893 16.313 341.429 16.8508C341.965 17.3887 342.649 17.7555 343.393 17.9048C344.138 18.0541 344.91 17.9792 345.612 17.6897C346.315 17.4002 346.915 16.9089 347.338 16.2781C347.761 15.6473 347.987 14.9052 347.989 14.1458C347.991 13.6411 347.893 13.1411 347.701 12.6743C347.51 12.2075 347.227 11.7832 346.871 11.4258C346.515 11.0684 346.091 10.785 345.625 10.5918C345.159 10.3986 344.659 10.2993 344.155 10.2998V10.2998Z" stroke="#828282" stroke-miterlimit="10"/>
<path fill-rule="evenodd" clip-rule="evenodd" d="M410.871 10.2998C409.989 10.3013 409.134 10.6076 408.451 11.1672C407.769 11.7268 407.301 12.5052 407.126 13.3704C406.952 14.2355 407.082 15.1345 407.494 15.9148C407.906 16.6951 408.576 17.309 409.389 17.6523C410.202 17.9957 411.109 18.0474 411.956 17.7988C412.803 17.5503 413.537 17.0167 414.036 16.2883C414.534 15.56 414.766 14.6817 414.691 13.8022C414.616 12.9228 414.24 12.0965 413.625 11.4629C413.267 11.0951 412.839 10.8025 412.366 10.6028C411.893 10.403 411.385 10.3001 410.871 10.2998V10.2998Z" stroke="#828282" stroke-miterlimit="10"/>
<path fill-rule="evenodd" clip-rule="evenodd" d="M361.803 27.9483C361.044 27.9495 360.302 28.1755 359.672 28.5979C359.041 29.0203 358.55 29.6202 358.26 30.3216C357.97 31.023 357.894 31.7945 358.043 32.5389C358.191 33.2832 358.557 33.9668 359.094 34.5035C359.63 35.0401 360.314 35.4056 361.058 35.554C361.802 35.7024 362.574 35.6269 363.275 35.337C363.977 35.0471 364.577 34.5559 364.999 33.9253C365.421 33.2948 365.648 32.5532 365.649 31.7942C365.651 31.2885 365.553 30.7873 365.361 30.3196C365.168 29.8519 364.885 29.427 364.528 29.0694C364.17 28.7118 363.745 28.4286 363.277 28.2361C362.81 28.0437 362.309 27.9459 361.803 27.9483Z" stroke="#828282" stroke-miterlimit="10"/>
<path fill-rule="evenodd" clip-rule="evenodd" d="M393.223 27.9482C392.337 27.9466 391.478 28.2512 390.79 28.8108C390.103 29.3704 389.631 30.1506 389.453 31.0188C389.275 31.887 389.403 32.7898 389.815 33.5745C390.227 34.3591 390.898 34.9772 391.713 35.324C392.529 35.6707 393.439 35.7248 394.29 35.4771C395.141 35.2293 395.88 34.6949 396.382 33.9646C396.883 33.2343 397.117 32.3528 397.044 31.4697C396.97 30.5866 396.593 29.7562 395.977 29.1191C395.62 28.7499 395.192 28.456 394.719 28.2549C394.246 28.0538 393.737 27.9496 393.223 27.9482Z" stroke="#828282" stroke-miterlimit="10"/>
<path fill-rule="evenodd" clip-rule="evenodd" d="M361.8 59.3721C360.917 59.3737 360.063 59.6803 359.38 60.2397C358.698 60.7992 358.23 61.5775 358.056 62.4424C357.882 63.3073 358.012 64.2058 358.424 64.9858C358.836 65.7659 359.505 66.3794 360.318 66.7227C361.131 67.0659 362.037 67.1176 362.884 66.8691C363.73 66.6207 364.465 66.0875 364.964 65.3594C365.462 64.6313 365.693 63.7532 365.619 62.874C365.544 61.9949 365.168 61.1687 364.553 60.5352C364.195 60.1674 363.767 59.875 363.294 59.6753C362.821 59.4756 362.313 59.3725 361.8 59.3721Z" stroke="#828282" stroke-miterlimit="10"/>
<path fill-rule="evenodd" clip-rule="evenodd" d="M393.222 59.3721C392.708 59.3708 392.199 59.473 391.725 59.6729C391.252 59.8727 390.823 60.1661 390.465 60.5352C389.848 61.1702 389.469 61.999 389.393 62.8814C389.317 63.7637 389.549 64.6457 390.048 65.377C390.548 66.1083 391.285 66.6441 392.134 66.8941C392.984 67.144 393.894 67.0928 394.71 66.7485C395.526 66.4043 396.198 65.7884 396.612 65.0054C397.026 64.2224 397.156 63.3203 396.981 62.4522C396.806 61.584 396.336 60.803 395.651 60.2417C394.966 59.6804 394.108 59.3731 393.222 59.3721Z" stroke="#828282" stroke-miterlimit="10"/>
<path fill-rule="evenodd" clip-rule="evenodd" d="M344.142 77.0186C343.383 77.0197 342.642 77.2461 342.011 77.6685C341.381 78.0909 340.89 78.6907 340.6 79.3921C340.31 80.0935 340.234 80.865 340.383 81.6094C340.531 82.3537 340.897 83.0375 341.433 83.5742C341.97 84.1109 342.653 84.4762 343.398 84.6245C344.142 84.7729 344.914 84.6976 345.615 84.4077C346.317 84.1178 346.917 83.6267 347.339 82.9961C347.761 82.3655 347.987 81.6237 347.989 80.8647C347.984 79.8461 347.577 78.8707 346.857 78.1504C346.137 77.4301 345.161 77.023 344.142 77.0186V77.0186Z" stroke="#828282" stroke-miterlimit="10"/>
<path fill-rule="evenodd" clip-rule="evenodd" d="M410.872 77.0186C410.357 77.0168 409.847 77.12 409.373 77.3213C408.899 77.5226 408.471 77.8182 408.115 78.19C407.499 78.8269 407.122 79.6571 407.048 80.5401C406.975 81.423 407.208 82.3044 407.71 83.0347C408.212 83.765 408.951 84.2994 409.801 84.5474C410.652 84.7953 411.562 84.7414 412.378 84.395C413.193 84.0487 413.864 83.4308 414.276 82.6465C414.688 81.8622 414.817 80.9595 414.639 80.0913C414.462 79.2232 413.99 78.4433 413.304 77.8833C412.617 77.3233 411.758 77.0176 410.872 77.0186V77.0186Z" stroke="#828282" stroke-miterlimit="10"/>
<path fill-rule="evenodd" clip-rule="evenodd" d="M111.004 1.00107V14.2162C110.995 18.2526 111.783 22.2512 113.323 25.9823C114.863 29.7133 117.126 33.1033 119.98 35.9576C122.834 38.812 126.223 41.0745 129.954 42.6151C133.685 44.1557 137.684 44.9441 141.72 44.9352H154.948V31.7201C154.958 27.6832 154.17 23.6843 152.63 19.9527C151.09 16.2212 148.828 12.8307 145.973 9.97617C143.118 7.12165 139.728 4.85917 135.997 3.31894C132.265 1.77872 128.266 0.991046 124.229 1.00107H111.004Z" stroke="#828282" stroke-miterlimit="10"/>
<path fill-rule="evenodd" clip-rule="evenodd" d="M190.786 1.00098C186.75 0.99201 182.751 1.78065 179.021 3.32129C175.29 4.86192 171.9 7.12417 169.046 9.97852C166.192 12.8329 163.93 16.2231 162.389 19.9541C160.849 23.6851 160.061 27.6835 160.07 31.72V44.9341H173.295C177.332 44.943 181.331 44.1546 185.062 42.614C188.793 41.0734 192.183 38.8109 195.037 35.9565C197.891 33.1022 200.154 29.7122 201.694 25.9812C203.235 22.2502 204.023 18.2517 204.014 14.2151V1L190.786 1.00098Z" stroke="#828282" stroke-miterlimit="10"/>
<path fill-rule="evenodd" clip-rule="evenodd" d="M141.716 50.0694C137.68 50.0606 133.681 50.849 129.951 52.3897C126.22 53.9304 122.83 56.1926 119.976 59.0469C117.122 61.9013 114.86 65.2916 113.319 69.0225C111.779 72.7535 110.991 76.7517 111 80.7882V94.003H124.225C128.262 94.013 132.261 93.2254 135.993 91.6851C139.724 90.1449 143.115 87.8829 145.969 85.0284C148.824 82.1739 151.086 78.7834 152.626 75.0518C154.166 71.3203 154.954 67.3211 154.944 63.2843V50.0694H141.716Z" stroke="#828282" stroke-miterlimit="10"/>
<path fill-rule="evenodd" clip-rule="evenodd" d="M160.07 50.0693V63.2852C160.061 67.3216 160.849 71.3198 162.39 75.0508C163.93 78.7818 166.192 82.172 169.046 85.0264C171.9 87.8807 175.29 90.1429 179.021 91.6836C182.752 93.2243 186.75 94.0127 190.786 94.0039H204.014V80.7891C204.023 76.7525 203.235 72.754 201.694 69.0229C200.154 65.2919 197.891 61.9017 195.037 59.0474C192.183 56.1931 188.793 53.9307 185.062 52.3901C181.331 50.8495 177.332 50.0613 173.295 50.0703L160.07 50.0693Z" stroke="#828282" stroke-miterlimit="10"/>
<path fill-rule="evenodd" clip-rule="evenodd" d="M124.155 10.2998C123.395 10.2986 122.652 10.5227 122.02 10.9436C121.388 11.3646 120.895 11.9636 120.603 12.6648C120.311 13.366 120.234 14.1379 120.381 14.8831C120.528 15.6282 120.893 16.313 121.429 16.8508C121.965 17.3887 122.649 17.7555 123.393 17.9048C124.138 18.0541 124.91 17.9792 125.612 17.6897C126.315 17.4002 126.915 16.9089 127.338 16.2781C127.761 15.6473 127.987 14.9052 127.989 14.1458C127.991 13.6411 127.893 13.1411 127.701 12.6743C127.51 12.2075 127.227 11.7832 126.871 11.4258C126.515 11.0684 126.091 10.785 125.625 10.5918C125.159 10.3986 124.659 10.2993 124.155 10.2998V10.2998Z" stroke="#828282" stroke-miterlimit="10"/>
<path fill-rule="evenodd" clip-rule="evenodd" d="M190.871 10.2998C189.989 10.3013 189.134 10.6076 188.451 11.1672C187.769 11.7268 187.301 12.5052 187.126 13.3704C186.952 14.2355 187.082 15.1345 187.494 15.9148C187.906 16.6951 188.576 17.309 189.389 17.6523C190.202 17.9957 191.109 18.0474 191.956 17.7988C192.803 17.5503 193.537 17.0167 194.036 16.2883C194.534 15.56 194.766 14.6817 194.691 13.8022C194.616 12.9228 194.24 12.0965 193.625 11.4629C193.267 11.0951 192.839 10.8025 192.366 10.6028C191.893 10.403 191.385 10.3001 190.871 10.2998V10.2998Z" stroke="#828282" stroke-miterlimit="10"/>
<path fill-rule="evenodd" clip-rule="evenodd" d="M141.803 27.9483C141.044 27.9495 140.302 28.1755 139.672 28.5979C139.041 29.0203 138.55 29.6202 138.26 30.3216C137.97 31.023 137.894 31.7945 138.043 32.5389C138.191 33.2832 138.557 33.9668 139.094 34.5035C139.63 35.0401 140.314 35.4056 141.058 35.554C141.802 35.7024 142.574 35.6269 143.275 35.337C143.977 35.0471 144.577 34.5559 144.999 33.9253C145.421 33.2948 145.648 32.5532 145.649 31.7942C145.651 31.2885 145.553 30.7873 145.361 30.3196C145.168 29.8519 144.885 29.427 144.528 29.0694C144.17 28.7118 143.745 28.4286 143.277 28.2361C142.81 28.0437 142.309 27.9459 141.803 27.9483Z" stroke="#828282" stroke-miterlimit="10"/>
<path fill-rule="evenodd" clip-rule="evenodd" d="M173.223 27.9482C172.337 27.9466 171.478 28.2512 170.79 28.8108C170.103 29.3704 169.631 30.1506 169.453 31.0188C169.275 31.887 169.403 32.7898 169.815 33.5745C170.227 34.3591 170.898 34.9772 171.713 35.324C172.529 35.6707 173.439 35.7248 174.29 35.4771C175.141 35.2293 175.88 34.6949 176.382 33.9646C176.883 33.2343 177.117 32.3528 177.044 31.4697C176.97 30.5866 176.593 29.7562 175.977 29.1191C175.62 28.7499 175.192 28.456 174.719 28.2549C174.246 28.0538 173.737 27.9496 173.223 27.9482Z" stroke="#828282" stroke-miterlimit="10"/>
<path fill-rule="evenodd" clip-rule="evenodd" d="M141.8 59.3721C140.917 59.3737 140.063 59.6803 139.38 60.2397C138.698 60.7992 138.23 61.5775 138.056 62.4424C137.882 63.3073 138.012 64.2058 138.424 64.9858C138.836 65.7659 139.505 66.3794 140.318 66.7227C141.131 67.0659 142.037 67.1176 142.884 66.8691C143.73 66.6207 144.465 66.0875 144.964 65.3594C145.462 64.6313 145.693 63.7532 145.619 62.874C145.544 61.9949 145.168 61.1687 144.553 60.5352C144.195 60.1674 143.767 59.875 143.294 59.6753C142.821 59.4756 142.313 59.3725 141.8 59.3721Z" stroke="#828282" stroke-miterlimit="10"/>
<path fill-rule="evenodd" clip-rule="evenodd" d="M173.222 59.3721C172.708 59.3708 172.199 59.473 171.725 59.6729C171.252 59.8727 170.823 60.1661 170.465 60.5352C169.848 61.1702 169.469 61.999 169.393 62.8814C169.317 63.7637 169.549 64.6457 170.048 65.377C170.548 66.1083 171.285 66.6441 172.134 66.8941C172.984 67.144 173.894 67.0928 174.71 66.7485C175.526 66.4043 176.198 65.7884 176.612 65.0054C177.026 64.2224 177.156 63.3203 176.981 62.4522C176.806 61.584 176.336 60.803 175.651 60.2417C174.966 59.6804 174.108 59.3731 173.222 59.3721Z" stroke="#828282" stroke-miterlimit="10"/>
<path fill-rule="evenodd" clip-rule="evenodd" d="M124.142 77.0186C123.383 77.0197 122.642 77.2461 122.011 77.6685C121.381 78.0909 120.89 78.6907 120.6 79.3921C120.31 80.0935 120.234 80.865 120.383 81.6094C120.531 82.3537 120.897 83.0375 121.433 83.5742C121.97 84.1109 122.653 84.4762 123.398 84.6245C124.142 84.7729 124.914 84.6976 125.615 84.4077C126.317 84.1178 126.917 83.6267 127.339 82.9961C127.761 82.3655 127.987 81.6237 127.989 80.8647C127.984 79.8461 127.577 78.8707 126.857 78.1504C126.137 77.4301 125.161 77.023 124.142 77.0186V77.0186Z" stroke="#828282" stroke-miterlimit="10"/>
<path fill-rule="evenodd" clip-rule="evenodd" d="M190.872 77.0186C190.357 77.0168 189.847 77.12 189.373 77.3213C188.899 77.5226 188.471 77.8182 188.115 78.19C187.499 78.8269 187.122 79.6571 187.048 80.5401C186.975 81.423 187.208 82.3044 187.71 83.0347C188.212 83.765 188.951 84.2994 189.801 84.5474C190.652 84.7953 191.562 84.7414 192.378 84.395C193.193 84.0487 193.864 83.4308 194.276 82.6465C194.688 81.8622 194.817 80.9595 194.639 80.0913C194.462 79.2232 193.99 78.4433 193.304 77.8833C192.617 77.3233 191.758 77.0176 190.872 77.0186V77.0186Z" stroke="#828282" stroke-miterlimit="10"/>
<path fill-rule="evenodd" clip-rule="evenodd" d="M221.004 58.0011V71.2162C220.995 75.2526 221.783 79.2512 223.323 82.9823C224.863 86.7133 227.126 90.1033 229.98 92.9576C232.834 95.812 236.223 98.0745 239.954 99.6151C243.685 101.156 247.684 101.944 251.72 101.935H264.948V88.7201C264.958 84.6832 264.17 80.6843 262.63 76.9527C261.09 73.2212 258.828 69.8307 255.973 66.9762C253.118 64.1216 249.728 61.8592 245.997 60.3189C242.265 58.7787 238.266 57.991 234.229 58.0011H221.004Z" stroke="#828282" stroke-miterlimit="10"/>
<path fill-rule="evenodd" clip-rule="evenodd" d="M300.786 58.001C296.75 57.992 292.751 58.7807 289.021 60.3213C285.29 61.8619 281.9 64.1242 279.046 66.9785C276.192 69.8329 273.93 73.2231 272.389 76.9541C270.849 80.6851 270.061 84.6835 270.07 88.72V101.934H283.295C287.332 101.943 291.331 101.155 295.062 99.614C298.793 98.0734 302.183 95.8109 305.037 92.9565C307.891 90.1022 310.154 86.7122 311.694 82.9812C313.235 79.2502 314.023 75.2517 314.014 71.2151V58L300.786 58.001Z" stroke="#828282" stroke-miterlimit="10"/>
<path fill-rule="evenodd" clip-rule="evenodd" d="M251.716 107.069C247.68 107.061 243.681 107.849 239.951 109.39C236.22 110.93 232.83 113.193 229.976 116.047C227.122 118.901 224.86 122.292 223.319 126.023C221.779 129.754 220.991 133.752 221 137.788V151.003H234.225C238.262 151.013 242.261 150.225 245.993 148.685C249.724 147.145 253.115 144.883 255.969 142.028C258.824 139.174 261.086 135.783 262.626 132.052C264.166 128.32 264.954 124.321 264.944 120.284V107.069H251.716Z" stroke="#828282" stroke-miterlimit="10"/>
<path fill-rule="evenodd" clip-rule="evenodd" d="M270.07 107.069V120.285C270.061 124.322 270.849 128.32 272.39 132.051C273.93 135.782 276.192 139.172 279.046 142.026C281.9 144.881 285.29 147.143 289.021 148.684C292.752 150.224 296.75 151.013 300.786 151.004H314.014V137.789C314.023 133.752 313.235 129.754 311.694 126.023C310.154 122.292 307.891 118.902 305.037 116.047C302.183 113.193 298.793 110.931 295.062 109.39C291.331 107.85 287.332 107.061 283.295 107.07L270.07 107.069Z" stroke="#828282" stroke-miterlimit="10"/>
<path fill-rule="evenodd" clip-rule="evenodd" d="M234.155 67.2998C233.395 67.2986 232.652 67.5227 232.02 67.9436C231.388 68.3646 230.895 68.9636 230.603 69.6648C230.311 70.366 230.234 71.1379 230.381 71.8831C230.528 72.6282 230.893 73.313 231.429 73.8508C231.965 74.3887 232.649 74.7555 233.393 74.9048C234.138 75.0541 234.91 74.9792 235.612 74.6897C236.315 74.4002 236.915 73.9089 237.338 73.2781C237.761 72.6473 237.987 71.9052 237.989 71.1458C237.991 70.6411 237.893 70.1411 237.701 69.6743C237.51 69.2075 237.227 68.7832 236.871 68.4258C236.515 68.0684 236.091 67.785 235.625 67.5918C235.159 67.3986 234.659 67.2993 234.155 67.2998V67.2998Z" stroke="#828282" stroke-miterlimit="10"/>
<path fill-rule="evenodd" clip-rule="evenodd" d="M300.871 67.2998C299.989 67.3013 299.134 67.6076 298.451 68.1672C297.769 68.7268 297.301 69.5052 297.126 70.3704C296.952 71.2355 297.082 72.1345 297.494 72.9148C297.906 73.6951 298.576 74.309 299.389 74.6523C300.202 74.9957 301.109 75.0474 301.956 74.7988C302.803 74.5503 303.537 74.0167 304.036 73.2883C304.534 72.56 304.766 71.6817 304.691 70.8022C304.616 69.9228 304.24 69.0965 303.625 68.4629C303.267 68.0951 302.839 67.8025 302.366 67.6028C301.893 67.403 301.385 67.3001 300.871 67.2998V67.2998Z" stroke="#828282" stroke-miterlimit="10"/>
<path fill-rule="evenodd" clip-rule="evenodd" d="M251.803 84.9483C251.044 84.9495 250.302 85.1755 249.672 85.5979C249.041 86.0203 248.55 86.6202 248.26 87.3216C247.97 88.023 247.894 88.7945 248.043 89.5389C248.191 90.2832 248.557 90.9668 249.094 91.5035C249.63 92.0401 250.314 92.4056 251.058 92.554C251.802 92.7024 252.574 92.6269 253.275 92.337C253.977 92.0471 254.577 91.5559 254.999 90.9253C255.421 90.2948 255.648 89.5532 255.649 88.7942C255.651 88.2885 255.553 87.7873 255.361 87.3196C255.168 86.8519 254.885 86.427 254.528 86.0694C254.17 85.7118 253.745 85.4286 253.277 85.2361C252.81 85.0437 252.309 84.9459 251.803 84.9483Z" stroke="#828282" stroke-miterlimit="10"/>
<path fill-rule="evenodd" clip-rule="evenodd" d="M283.223 84.9482C282.337 84.9466 281.478 85.2512 280.79 85.8108C280.103 86.3704 279.631 87.1506 279.453 88.0188C279.275 88.887 279.403 89.7898 279.815 90.5745C280.227 91.3591 280.898 91.9772 281.713 92.324C282.529 92.6707 283.439 92.7248 284.29 92.4771C285.141 92.2293 285.88 91.6949 286.382 90.9646C286.883 90.2343 287.117 89.3528 287.044 88.4697C286.97 87.5866 286.593 86.7562 285.977 86.1191C285.62 85.7499 285.192 85.456 284.719 85.2549C284.246 85.0538 283.737 84.9496 283.223 84.9482Z" stroke="#828282" stroke-miterlimit="10"/>
<path fill-rule="evenodd" clip-rule="evenodd" d="M251.8 116.372C250.917 116.374 250.063 116.68 249.38 117.24C248.698 117.799 248.23 118.577 248.056 119.442C247.882 120.307 248.012 121.206 248.424 121.986C248.836 122.766 249.505 123.379 250.318 123.723C251.131 124.066 252.037 124.118 252.884 123.869C253.73 123.621 254.465 123.087 254.964 122.359C255.462 121.631 255.693 120.753 255.619 119.874C255.544 118.995 255.168 118.169 254.553 117.535C254.195 117.167 253.767 116.875 253.294 116.675C252.821 116.476 252.313 116.372 251.8 116.372Z" stroke="#828282" stroke-miterlimit="10"/>
<path fill-rule="evenodd" clip-rule="evenodd" d="M283.222 116.372C282.708 116.371 282.199 116.473 281.725 116.673C281.252 116.873 280.823 117.166 280.465 117.535C279.848 118.17 279.469 118.999 279.393 119.881C279.317 120.764 279.549 121.646 280.048 122.377C280.548 123.108 281.285 123.644 282.134 123.894C282.984 124.144 283.894 124.093 284.71 123.749C285.526 123.404 286.198 122.788 286.612 122.005C287.026 121.222 287.156 120.32 286.981 119.452C286.806 118.584 286.336 117.803 285.651 117.242C284.966 116.68 284.108 116.373 283.222 116.372Z" stroke="#828282" stroke-miterlimit="10"/>
<path fill-rule="evenodd" clip-rule="evenodd" d="M234.142 134.019C233.383 134.02 232.642 134.246 232.011 134.668C231.381 135.091 230.89 135.691 230.6 136.392C230.31 137.094 230.234 137.865 230.383 138.609C230.531 139.354 230.897 140.038 231.433 140.574C231.97 141.111 232.653 141.476 233.398 141.625C234.142 141.773 234.914 141.698 235.615 141.408C236.317 141.118 236.917 140.627 237.339 139.996C237.761 139.366 237.987 138.624 237.989 137.865C237.984 136.846 237.577 135.871 236.857 135.15C236.137 134.43 235.161 134.023 234.142 134.019V134.019Z" stroke="#828282" stroke-miterlimit="10"/>
<path fill-rule="evenodd" clip-rule="evenodd" d="M300.872 134.019C300.357 134.017 299.847 134.12 299.373 134.321C298.899 134.523 298.471 134.818 298.115 135.19C297.499 135.827 297.122 136.657 297.048 137.54C296.975 138.423 297.208 139.304 297.71 140.035C298.212 140.765 298.951 141.299 299.801 141.547C300.652 141.795 301.562 141.741 302.378 141.395C303.193 141.049 303.864 140.431 304.276 139.647C304.688 138.862 304.817 137.959 304.639 137.091C304.462 136.223 303.99 135.443 303.304 134.883C302.617 134.323 301.758 134.018 300.872 134.019V134.019Z" stroke="#828282" stroke-miterlimit="10"/>
<path fill-rule="evenodd" clip-rule="evenodd" d="M1.00399 58.0011V71.2162C0.994628 75.2526 1.78281 79.2512 3.32308 82.9823C4.86335 86.7133 7.1255 90.1033 9.97957 92.9576C12.8336 95.812 16.2233 98.0745 19.9542 99.6151C23.6851 101.156 27.6836 101.944 31.7201 101.935H44.9481V88.7201C44.9581 84.6832 44.1704 80.6843 42.6302 76.9527C41.09 73.2212 38.8275 69.8307 35.973 66.9762C33.1185 64.1216 29.7282 61.8592 25.9967 60.3189C22.2651 58.7787 18.266 57.991 14.2291 58.0011H1.00399Z" stroke="#828282" stroke-miterlimit="10"/>
<path fill-rule="evenodd" clip-rule="evenodd" d="M80.7865 58.001C76.75 57.992 72.7515 58.7807 69.0206 60.3213C65.2897 61.8619 61.9001 64.1242 59.046 66.9785C56.1919 69.8329 53.9298 73.2231 52.3895 76.9541C50.8492 80.6851 50.061 84.6835 50.0704 88.72V101.934H63.2955C67.3321 101.943 71.3306 101.155 75.0616 99.614C78.7927 98.0734 82.1826 95.8109 85.0369 92.9565C87.8913 90.1022 90.1538 86.7122 91.6944 82.9812C93.235 79.2502 94.0235 75.2517 94.0145 71.2151V58L80.7865 58.001Z" stroke="#828282" stroke-miterlimit="10"/>
<path fill-rule="evenodd" clip-rule="evenodd" d="M31.7161 107.069C27.6797 107.061 23.6813 107.849 19.9505 109.39C16.2197 110.93 12.83 113.193 9.97591 116.047C7.12187 118.901 4.85973 122.292 3.31942 126.023C1.7791 129.754 0.990852 133.752 1.00008 137.788V151.003H14.2252C18.2621 151.013 22.261 150.225 25.9925 148.685C29.724 147.145 33.1146 144.883 35.9691 142.028C38.8236 139.174 41.0858 135.783 42.6261 132.052C44.1663 128.32 44.9542 124.321 44.9442 120.284V107.069H31.7161Z" stroke="#828282" stroke-miterlimit="10"/>
<path fill-rule="evenodd" clip-rule="evenodd" d="M50.0704 107.069V120.285C50.0612 124.322 50.8494 128.32 52.3897 132.051C53.93 135.782 56.1922 139.172 59.0462 142.026C61.9003 144.881 65.29 147.143 69.0208 148.684C72.7517 150.224 76.75 151.013 80.7865 151.004H94.0145V137.789C94.0234 133.752 93.235 129.754 91.6944 126.023C90.1538 122.292 87.8913 118.902 85.0369 116.047C82.1826 113.193 78.7927 110.931 75.0616 109.39C71.3306 107.85 67.3321 107.061 63.2955 107.07L50.0704 107.069Z" stroke="#828282" stroke-miterlimit="10"/>
<path fill-rule="evenodd" clip-rule="evenodd" d="M14.1547 67.2998C13.3952 67.2986 12.6523 67.5227 12.0201 67.9436C11.388 68.3646 10.8949 68.9636 10.6032 69.6648C10.3114 70.366 10.2342 71.1379 10.3812 71.8831C10.5282 72.6282 10.8929 73.313 11.4291 73.8508C11.9653 74.3887 12.6488 74.7555 13.3934 74.9048C14.1381 75.0541 14.9103 74.9792 15.6124 74.6897C16.3146 74.4002 16.9151 73.9089 17.338 73.2781C17.7609 72.6473 17.9875 71.9052 17.9887 71.1458C17.9908 70.6411 17.8931 70.1411 17.7013 69.6743C17.5095 69.2075 17.2273 68.7832 16.871 68.4258C16.5147 68.0684 16.0913 67.785 15.6251 67.5918C15.1589 67.3986 14.6593 67.2993 14.1547 67.2998V67.2998Z" stroke="#828282" stroke-miterlimit="10"/>
<path fill-rule="evenodd" clip-rule="evenodd" d="M80.8712 67.2998C79.9886 67.3013 79.1338 67.6076 78.4513 68.1672C77.7688 68.7268 77.3007 69.5052 77.1263 70.3704C76.9519 71.2355 77.0816 72.1345 77.494 72.9148C77.9063 73.6951 78.576 74.309 79.389 74.6523C80.2021 74.9957 81.1088 75.0474 81.9557 74.7988C82.8025 74.5503 83.5372 74.0167 84.0357 73.2883C84.5342 72.56 84.7658 71.6817 84.691 70.8022C84.6162 69.9228 84.2397 69.0965 83.6253 68.4629C83.2671 68.0951 82.8388 67.8025 82.3658 67.6028C81.8928 67.403 81.3846 67.3001 80.8712 67.2998V67.2998Z" stroke="#828282" stroke-miterlimit="10"/>
<path fill-rule="evenodd" clip-rule="evenodd" d="M31.8028 84.9483C31.0438 84.9495 30.3022 85.1755 29.6717 85.5979C29.0411 86.0203 28.55 86.6202 28.2601 87.3216C27.9702 88.023 27.8944 88.7945 28.0428 89.5389C28.1911 90.2832 28.5569 90.9668 29.0936 91.5035C29.6302 92.0401 30.3138 92.4056 31.0582 92.554C31.8025 92.7024 32.574 92.6269 33.2754 92.337C33.9769 92.0471 34.5767 91.5559 34.9991 90.9253C35.4215 90.2948 35.6475 89.5532 35.6487 88.7942C35.6511 88.2885 35.5533 87.7873 35.3609 87.3196C35.1685 86.8519 34.8852 86.427 34.5276 86.0694C34.17 85.7118 33.7451 85.4286 33.2774 85.2361C32.8097 85.0437 32.3085 84.9459 31.8028 84.9483Z" stroke="#828282" stroke-miterlimit="10"/>
<path fill-rule="evenodd" clip-rule="evenodd" d="M63.2231 84.9482C62.3369 84.9466 61.4776 85.2512 60.7905 85.8108C60.1033 86.3704 59.6308 87.1506 59.4531 88.0188C59.2753 88.887 59.4032 89.7898 59.8151 90.5745C60.227 91.3591 60.8976 91.9772 61.7131 92.324C62.5286 92.6707 63.4389 92.7248 64.2897 92.4771C65.1406 92.2293 65.8796 91.6949 66.3815 90.9646C66.8835 90.2343 67.1173 89.3528 67.0436 88.4697C66.97 87.5866 66.5932 86.7562 65.9772 86.1191C65.6197 85.7499 65.1917 85.456 64.7187 85.2549C64.2457 85.0538 63.7371 84.9496 63.2231 84.9482Z" stroke="#828282" stroke-miterlimit="10"/>
<path fill-rule="evenodd" clip-rule="evenodd" d="M31.7995 116.372C30.9172 116.374 30.0626 116.68 29.3804 117.24C28.6981 117.799 28.2302 118.577 28.0559 119.442C27.8816 120.307 28.0116 121.206 28.4238 121.986C28.8361 122.766 29.5053 123.379 30.3181 123.723C31.1309 124.066 32.0372 124.118 32.8838 123.869C33.7304 123.621 34.4652 123.087 34.9636 122.359C35.462 121.631 35.6934 120.753 35.6186 119.874C35.5439 118.995 35.1676 118.169 34.5535 117.535C34.1952 117.167 33.7671 116.875 33.2942 116.675C32.8212 116.476 32.313 116.372 31.7995 116.372Z" stroke="#828282" stroke-miterlimit="10"/>
<path fill-rule="evenodd" clip-rule="evenodd" d="M63.2222 116.372C62.7081 116.371 62.199 116.473 61.7254 116.673C61.2517 116.873 60.8232 117.166 60.4654 117.535C59.848 118.17 59.4691 118.999 59.3931 119.881C59.317 120.764 59.5485 121.646 60.0481 122.377C60.5477 123.108 61.2846 123.644 62.1343 123.894C62.9839 124.144 63.894 124.093 64.71 123.749C65.526 123.404 66.1979 122.788 66.6118 122.005C67.0257 121.222 67.1563 120.32 66.9812 119.452C66.8061 118.584 66.3362 117.803 65.6511 117.242C64.9661 116.68 64.1078 116.373 63.2222 116.372Z" stroke="#828282" stroke-miterlimit="10"/>
<path fill-rule="evenodd" clip-rule="evenodd" d="M14.1424 134.019C13.3835 134.02 12.6419 134.246 12.0113 134.668C11.3808 135.091 10.8896 135.691 10.5997 136.392C10.3098 137.094 10.2343 137.865 10.3827 138.609C10.531 139.354 10.8965 140.038 11.4332 140.574C11.9699 141.111 12.6535 141.476 13.3978 141.625C14.1421 141.773 14.9139 141.698 15.6153 141.408C16.3168 141.118 16.9166 140.627 17.339 139.996C17.7614 139.366 17.9875 138.624 17.9886 137.865C17.9842 136.846 17.5773 135.871 16.857 135.15C16.1367 134.43 15.1611 134.023 14.1424 134.019V134.019Z" stroke="#828282" stroke-miterlimit="10"/>
<path fill-rule="evenodd" clip-rule="evenodd" d="M80.8717 134.019C80.3568 134.017 79.8469 134.12 79.373 134.321C78.899 134.523 78.4711 134.818 78.1149 135.19C77.499 135.827 77.1223 136.657 77.0485 137.54C76.9747 138.423 77.2084 139.304 77.7101 140.035C78.2118 140.765 78.9505 141.299 79.8012 141.547C80.6518 141.795 81.5621 141.741 82.3776 141.395C83.1931 141.049 83.8638 140.431 84.276 139.647C84.6882 138.862 84.8165 137.959 84.6393 137.091C84.4621 136.223 83.9903 135.443 83.3036 134.883C82.617 134.323 81.7578 134.018 80.8717 134.019V134.019Z" stroke="#828282" stroke-miterlimit="10"/>
</svg>
