<svg width="59" height="62" viewBox="0 0 59 62" fill="none" xmlns="http://www.w3.org/2000/svg">
<g opacity="0.2" clip-path="url(#clip0)">
<path d="M2.22656 2.25601V10.4232C2.22656 20.9477 10.5822 29.4075 20.9586 29.4075H29.0255V21.2403C29.0255 10.7241 20.6782 2.25601 10.2935 2.25601H2.22656Z" stroke="white" stroke-miterlimit="10"/>
<path d="M50.8844 2.25601C40.508 2.25601 32.1523 10.7241 32.1523 21.2403V29.4075H40.2193C50.5957 29.4075 58.9513 20.9393 58.9513 10.4232V2.25601H50.8844Z" stroke="white" stroke-miterlimit="10"/>
<path d="M20.9586 32.5842C10.5822 32.5842 2.22656 41.0523 2.22656 51.5769V59.744H10.2935C20.6782 59.744 29.0255 51.2759 29.0255 40.7598V32.5926H20.9586V32.5842Z" stroke="white" stroke-miterlimit="10"/>
<path d="M32.1523 32.5842V40.7514C32.1523 51.2759 40.508 59.7357 50.8844 59.7357H58.9513V51.5685C58.9513 41.044 50.5957 32.5842 40.2193 32.5842H32.1523V32.5842Z" stroke="white" stroke-miterlimit="10"/>
<path d="M10.2527 8.00751C9.61757 8.00751 9.00719 8.26665 8.57003 8.72642C8.14936 9.16947 7.91016 9.76299 7.91016 10.3816C7.91016 11.694 8.9577 12.7473 10.2527 12.7473C11.5477 12.7473 12.587 11.6857 12.587 10.3816C12.587 9.06916 11.5394 8.00751 10.2527 8.00751Z" stroke="white" stroke-miterlimit="10"/>
<path d="M50.9421 8.00751C49.6471 8.00751 48.5996 9.06916 48.5996 10.3816C48.5996 11.694 49.6471 12.7473 50.9421 12.7473C52.2371 12.7473 53.2764 11.6857 53.2764 10.3816C53.2764 9.76299 53.0455 9.16947 52.6166 8.72642C52.1712 8.25829 51.569 8.00751 50.9421 8.00751Z" stroke="white" stroke-miterlimit="10"/>
<path d="M21.0086 18.9081C20.3734 18.9081 19.7631 19.1672 19.3259 19.627C18.9052 20.07 18.666 20.6635 18.666 21.2821C18.666 22.5946 19.7136 23.6478 21.0086 23.6478C22.3036 23.6478 23.3429 22.5862 23.3511 21.2821C23.3511 19.9781 22.3036 18.9081 21.0086 18.9081Z" stroke="white" stroke-miterlimit="10"/>
<path d="M40.1785 18.9081C38.8835 18.9081 37.8359 19.9697 37.8359 21.2821C37.8359 22.5946 38.8835 23.6478 40.1785 23.6478C41.4735 23.6478 42.5128 22.5862 42.5128 21.2821C42.5128 20.6635 42.2818 20.07 41.8529 19.627C41.4157 19.1672 40.8054 18.9081 40.1785 18.9081Z" stroke="white" stroke-miterlimit="10"/>
<path d="M21.0086 38.3355C19.7136 38.3355 18.666 39.3971 18.666 40.7096C18.666 42.022 19.7136 43.0753 21.0086 43.0753C22.3035 43.0753 23.3428 42.0136 23.3428 40.7096C23.3428 40.091 23.1119 39.4974 22.683 39.0544C22.2458 38.5946 21.6437 38.3355 21.0086 38.3355Z" stroke="white" stroke-miterlimit="10"/>
<path d="M40.1785 38.3355C39.5434 38.3355 38.933 38.5946 38.4958 39.0544C38.0751 39.4974 37.8359 40.091 37.8359 40.7096C37.8442 42.022 38.8835 43.0753 40.1785 43.0753C41.4735 43.0753 42.5128 42.0136 42.5128 40.7096C42.5128 39.3971 41.4735 38.3355 40.1785 38.3355Z" stroke="white" stroke-miterlimit="10"/>
<path d="M10.2444 49.2446C8.94945 49.2446 7.91016 50.3063 7.91016 51.6187C7.91016 52.9311 8.9577 53.9844 10.2444 53.9844C11.5477 53.9844 12.587 52.9228 12.587 51.6187C12.587 51.0001 12.356 50.4066 11.9189 49.9635C11.4817 49.5038 10.8796 49.2446 10.2444 49.2446Z" stroke="white" stroke-miterlimit="10"/>
<path d="M50.9421 49.2446C50.307 49.2446 49.6966 49.5038 49.2595 49.9719C48.8388 50.4066 48.5996 51.0085 48.5996 51.6271C48.5996 52.9395 49.6471 53.9928 50.9421 53.9928C52.2371 53.9928 53.2764 52.9311 53.2847 51.6271C53.2847 50.3063 52.2371 49.2446 50.9421 49.2446Z" stroke="white" stroke-miterlimit="10"/>
</g>
<defs>
<clipPath id="clip0">
<rect width="59" height="62" fill="white"/>
</clipPath>
</defs>
</svg>
