<svg width="60" height="59" viewBox="0 0 60 59" fill="none" xmlns="http://www.w3.org/2000/svg">
<g opacity="0.2">
<path d="M1.04102 1.04131V9.12741C1.04102 19.5475 9.42386 27.9233 19.8341 27.9233H27.9273V19.8372C27.9273 9.42536 19.5528 1.04131 9.13422 1.04131H1.04102Z" stroke="white" stroke-miterlimit="10"/>
<path d="M49.8576 1.04131C39.4473 1.04131 31.0645 9.42536 31.0645 19.8372V27.9233H39.1577C49.5679 27.9233 57.9508 19.5392 57.9508 9.12741V1.04131H49.8576Z" stroke="white" stroke-miterlimit="10"/>
<path d="M19.8341 31.0685C9.42386 31.0685 1.04102 39.4526 1.04102 49.8727V57.9588H9.13422C19.5528 57.9588 27.9273 49.5747 27.9273 39.1629V31.0768H19.8341V31.0685Z" stroke="white" stroke-miterlimit="10"/>
<path d="M31.0645 31.0685V39.1546C31.0645 49.5747 39.4473 57.9505 49.8576 57.9505H57.9508V49.8644C57.9508 39.4443 49.5679 31.0685 39.1577 31.0685H31.0645V31.0685Z" stroke="white" stroke-miterlimit="10"/>
<path d="M9.09432 6.73572C8.45712 6.73572 7.84475 6.99229 7.40616 7.44749C6.98412 7.88615 6.74414 8.47377 6.74414 9.08623C6.74414 10.3856 7.7951 11.4285 9.09432 11.4285C10.3935 11.4285 11.4362 10.3774 11.4362 9.08623C11.4362 7.78683 10.3853 6.73572 9.09432 6.73572Z" stroke="white" stroke-miterlimit="10"/>
<path d="M49.9146 6.73572C48.6154 6.73572 47.5645 7.78683 47.5645 9.08623C47.5645 10.3856 48.6154 11.4285 49.9146 11.4285C51.2138 11.4285 52.2565 10.3774 52.2565 9.08623C52.2565 8.47377 52.0248 7.88615 51.5945 7.44749C51.1476 6.98401 50.5435 6.73572 49.9146 6.73572Z" stroke="white" stroke-miterlimit="10"/>
<path d="M19.8834 17.5281C19.2462 17.5281 18.6338 17.7846 18.1952 18.2399C17.7732 18.6785 17.5332 19.2661 17.5332 19.8786C17.5332 21.178 18.5842 22.2208 19.8834 22.2208C21.1826 22.2208 22.2253 21.1697 22.2336 19.8786C22.2336 18.5875 21.1826 17.5281 19.8834 17.5281Z" stroke="white" stroke-miterlimit="10"/>
<path d="M39.1158 17.5281C37.8166 17.5281 36.7656 18.5792 36.7656 19.8786C36.7656 21.178 37.8166 22.2208 39.1158 22.2208C40.415 22.2208 41.4577 21.1697 41.4577 19.8786C41.4577 19.2661 41.226 18.6785 40.7957 18.2399C40.3571 17.7846 39.7447 17.5281 39.1158 17.5281Z" stroke="white" stroke-miterlimit="10"/>
<path d="M19.8834 36.7627C18.5842 36.7627 17.5332 37.8138 17.5332 39.1132C17.5332 40.4126 18.5842 41.4554 19.8834 41.4554C21.1826 41.4554 22.2253 40.4043 22.2253 39.1132C22.2253 38.5007 21.9936 37.9131 21.5633 37.4744C21.1247 37.0192 20.5206 36.7627 19.8834 36.7627Z" stroke="white" stroke-miterlimit="10"/>
<path d="M39.1158 36.7627C38.4786 36.7627 37.8662 37.0192 37.4276 37.4744C37.0056 37.9131 36.7656 38.5007 36.7656 39.1132C36.7739 40.4126 37.8166 41.4554 39.1158 41.4554C40.415 41.4554 41.4577 40.4043 41.4577 39.1132C41.4577 37.8138 40.415 36.7627 39.1158 36.7627Z" stroke="white" stroke-miterlimit="10"/>
<path d="M9.08604 47.5635C7.78682 47.5635 6.74414 48.6147 6.74414 49.9141C6.74414 51.2135 7.7951 52.2563 9.08604 52.2563C10.3935 52.2563 11.4362 51.2052 11.4362 49.9141C11.4362 49.3016 11.2045 48.714 10.7659 48.2753C10.3273 47.8201 9.72323 47.5635 9.08604 47.5635Z" stroke="white" stroke-miterlimit="10"/>
<path d="M49.9146 47.5635C49.2774 47.5635 48.6651 47.8201 48.2265 48.2836C47.8044 48.714 47.5645 49.3099 47.5645 49.9223C47.5645 51.2217 48.6154 52.2646 49.9146 52.2646C51.2138 52.2646 52.2565 51.2135 52.2648 49.9223C52.2648 48.6146 51.2138 47.5635 49.9146 47.5635Z" stroke="white" stroke-miterlimit="10"/>
</g>
</svg>
