<svg width="198" height="193" viewBox="0 0 198 193" fill="none" xmlns="http://www.w3.org/2000/svg">
<g opacity="0.2">
<path d="M3.43359 3.40625V29.8574C3.43359 63.9434 31.097 91.3421 65.4509 91.3421H92.1585V64.891C92.1585 30.8321 64.5224 3.40625 30.1412 3.40625H3.43359Z" stroke="#4F4F4F" stroke-miterlimit="10"/>
<path d="M164.525 3.40625C130.171 3.40625 102.508 30.8321 102.508 64.891V91.3421H129.215C163.569 91.3421 191.233 63.9163 191.233 29.8574V3.40625H164.525Z" stroke="#4F4F4F" stroke-miterlimit="10"/>
<path d="M65.4509 101.631C31.097 101.631 3.43359 129.057 3.43359 163.143V189.594H30.1412C64.5224 189.594 92.1585 162.168 92.1585 128.109V101.658H65.4509V101.631Z" stroke="#4F4F4F" stroke-miterlimit="10"/>
<path d="M102.508 101.631V128.082C102.508 162.168 130.171 189.567 164.525 189.567H191.233V163.116C191.233 129.03 163.569 101.631 129.215 101.631H102.508V101.631Z" stroke="#4F4F4F" stroke-miterlimit="10"/>
<path d="M30.0056 22.0337C27.9028 22.0337 25.882 22.873 24.4347 24.362C23.0419 25.797 22.25 27.7192 22.25 29.7227C22.25 33.9733 25.7182 37.3846 30.0056 37.3846C34.293 37.3846 37.7338 33.9462 37.7338 29.7227C37.7338 25.4721 34.2657 22.0337 30.0056 22.0337Z" stroke="#4F4F4F" stroke-miterlimit="10"/>
<path d="M164.716 22.0337C160.429 22.0337 156.961 25.4721 156.961 29.7227C156.961 33.9733 160.429 37.3846 164.716 37.3846C169.004 37.3846 172.445 33.9462 172.445 29.7227C172.445 27.7192 171.68 25.797 170.26 24.362C168.785 22.8459 166.792 22.0337 164.716 22.0337Z" stroke="#4F4F4F" stroke-miterlimit="10"/>
<path d="M65.611 57.3376C63.5083 57.3376 61.4875 58.1769 60.0401 59.666C58.6474 61.1009 57.8555 63.0232 57.8555 65.0266C57.8555 69.2772 61.3236 72.6885 65.611 72.6885C69.8985 72.6885 73.3393 69.2501 73.3666 65.0266C73.3666 60.8031 69.8985 57.3376 65.611 57.3376Z" stroke="#4F4F4F" stroke-miterlimit="10"/>
<path d="M129.084 57.3376C124.796 57.3376 121.328 60.776 121.328 65.0266C121.328 69.2772 124.796 72.6885 129.084 72.6885C133.371 72.6885 136.812 69.2501 136.812 65.0266C136.812 63.0232 136.047 61.1009 134.627 59.666C133.18 58.1769 131.159 57.3376 129.084 57.3376Z" stroke="#4F4F4F" stroke-miterlimit="10"/>
<path d="M65.611 120.258C61.3236 120.258 57.8555 123.696 57.8555 127.947C57.8555 132.197 61.3236 135.609 65.611 135.609C69.8984 135.609 73.3393 132.17 73.3393 127.947C73.3393 125.943 72.5747 124.021 71.1546 122.586C69.7073 121.097 67.7138 120.258 65.611 120.258Z" stroke="#4F4F4F" stroke-miterlimit="10"/>
<path d="M129.084 120.258C126.981 120.258 124.96 121.097 123.513 122.586C122.12 124.021 121.328 125.943 121.328 127.947C121.355 132.197 124.796 135.609 129.084 135.609C133.371 135.609 136.812 132.17 136.812 127.947C136.812 123.696 133.371 120.258 129.084 120.258Z" stroke="#4F4F4F" stroke-miterlimit="10"/>
<path d="M29.9783 155.589C25.6909 155.589 22.25 159.027 22.25 163.278C22.25 167.528 25.7182 170.94 29.9783 170.94C34.293 170.94 37.7338 167.501 37.7338 163.278C37.7338 161.274 36.9692 159.352 35.5219 157.917C34.0745 156.428 32.081 155.589 29.9783 155.589Z" stroke="#4F4F4F" stroke-miterlimit="10"/>
<path d="M164.716 155.589C162.614 155.589 160.593 156.428 159.146 157.944C157.753 159.352 156.961 161.301 156.961 163.305C156.961 167.556 160.429 170.967 164.716 170.967C169.004 170.967 172.445 167.528 172.472 163.305C172.472 159.027 169.004 155.589 164.716 155.589Z" stroke="#4F4F4F" stroke-miterlimit="10"/>
</g>
</svg>
