<svg width="22" height="20" viewBox="0 0 22 20" fill="none" xmlns="http://www.w3.org/2000/svg">
<path d="M11 16.5H3.5C2.94772 16.5 2.5 16.0523 2.5 15.5V5.5C2.5 4.94772 2.94772 4.5 3.5 4.5H6.08579C6.351 4.5 6.60536 4.39464 6.79289 4.20711L7.70711 3.29289C7.89464 3.10536 8.149 3 8.41421 3H10.5H11" stroke="#D0542D"/>
<path d="M11 13C9.34315 13 8 11.6569 8 10C8 8.34315 9.34315 7 11 7" stroke="#D0542D"/>
<path d="M11 16.5H18.5C19.0523 16.5 19.5 16.0523 19.5 15.5V5.5C19.5 4.94772 19.0523 4.5 18.5 4.5H15.9142C15.649 4.5 15.3946 4.39464 15.2071 4.20711L14.2929 3.29289C14.1054 3.10536 13.851 3 13.5858 3H11.5H11" stroke="#D0542D"/>
<path d="M11 13C12.6569 13 14 11.6569 14 10C14 8.34315 12.6569 7 11 7" stroke="#D0542D"/>
</svg>
