<svg width="9" height="12" viewBox="0 0 9 12" fill="none" xmlns="http://www.w3.org/2000/svg">
<path d="M4.49402 1C1.81802 1 1 3.0841 1 4.8291C1 7.3561 3.82502 11 4.49402 11C5.20502 11 7.98901 7.3291 7.98901 4.8291C7.98901 3.0841 7.17102 1 4.49402 1ZM4.49402 6.00732C4.18465 6.00752 3.88215 5.91587 3.62482 5.74414C3.36749 5.57241 3.16687 5.32825 3.04834 5.04248C2.92981 4.75671 2.89869 4.44212 2.95892 4.13867C3.01916 3.83522 3.16803 3.55623 3.38672 3.3374C3.60541 3.11857 3.88409 2.96961 4.1875 2.90918C4.49091 2.84875 4.80541 2.8797 5.09125 2.99805C5.37709 3.11639 5.62144 3.317 5.79333 3.57422C5.96523 3.83144 6.05701 4.13399 6.05701 4.44336C6.05701 4.85781 5.89248 5.25509 5.59961 5.54834C5.30673 5.84159 4.90847 6.00679 4.49402 6.00732Z" stroke="#79318C" stroke-miterlimit="10"/>
</svg>
