<?xml version="1.0" encoding="utf-8"?>
<!-- Generator: Adobe Illustrator 19.0.0, SVG Export Plug-In . SVG Version: 6.00 Build 0)  -->
<svg version="1.1" id="Layer_1" xmlns="http://www.w3.org/2000/svg" xmlns:xlink="http://www.w3.org/1999/xlink" x="0px" y="0px"
	 width="13px" height="13px" viewBox="-299 390 13 13" style="enable-background:new -299 390 13 13;" xml:space="preserve">
<style type="text/css">
	.st0{fill:none;stroke:#D0542D;stroke-width:0.8;}
</style>
<path class="st0" d="M-288.5,394.9c0,0.7-0.5,1.2-1.2,1.2c-0.7,0-1.2-0.5-1.2-1.2s0.5-1.2,1.2-1.2
	C-289,393.8-288.5,394.3-288.5,394.9z M-292.9,394c0,0.8-0.7,1.5-1.5,1.5c-0.8,0-1.5-0.7-1.5-1.5s0.7-1.5,1.5-1.5
	C-293.5,392.5-292.9,393.2-292.9,394z M-292.7,399.5c0-0.1,0.1-0.3,0.3-0.5c0.2-0.2,0.5-0.3,0.8-0.5c0.7-0.3,1.5-0.4,2-0.4
	s1.3,0.1,2,0.4c0.3,0.1,0.6,0.3,0.8,0.5c0.2,0.2,0.3,0.3,0.3,0.5v1h-6.1V399.5z M-298.4,399.3c0-0.2,0.1-0.5,0.4-0.7
	c0.3-0.2,0.6-0.4,1-0.6c0.9-0.3,1.9-0.5,2.6-0.5c0.2,0,0.3,0,0.5,0c-0.7,0.7-0.9,1.4-0.9,1.9v1h-3.6V399.3z"/>
</svg>
