<svg width="16" height="16" viewBox="0 0 16 16" fill="none" xmlns="http://www.w3.org/2000/svg">
<path d="M8.00131 4.39486C6.00619 4.39486 4.39603 6.00501 4.39603 8.00013C4.39603 9.99524 6.00619 11.6054 8.00131 11.6054C9.99642 11.6054 11.6066 9.99524 11.6066 8.00013C11.6066 6.00501 9.99642 4.39486 8.00131 4.39486ZM8.00131 10.3433C6.71107 10.3433 5.65814 9.29036 5.65814 8.00013C5.65814 6.7099 6.71107 5.65697 8.00131 5.65697C9.29154 5.65697 10.3445 6.7099 10.3445 8.00013C10.3445 9.29036 9.29154 10.3433 8.00131 10.3433ZM11.7542 3.40697C11.2884 3.40697 10.9122 3.78314 10.9122 4.24896C10.9122 4.71478 11.2884 5.09095 11.7542 5.09095C12.2201 5.09095 12.5962 4.71654 12.5962 4.24896C12.5964 4.13835 12.5747 4.0288 12.5324 3.92658C12.4902 3.82436 12.4281 3.73148 12.3499 3.65327C12.2717 3.57506 12.1788 3.51304 12.0766 3.47078C11.9744 3.42851 11.8649 3.40683 11.7542 3.40697ZM15.029 8.00013C15.029 7.02982 15.0378 6.06829 14.9833 5.09974C14.9288 3.97474 14.6722 2.9763 13.8496 2.15365C13.0251 1.32923 12.0285 1.07435 10.9035 1.01986C9.93314 0.965367 8.97162 0.974156 8.00306 0.974156C7.03275 0.974156 6.07123 0.965367 5.10267 1.01986C3.97767 1.07435 2.97923 1.33099 2.15658 2.15365C1.33216 2.97806 1.07728 3.97474 1.02279 5.09974C0.968296 6.07005 0.977085 7.03157 0.977085 8.00013C0.977085 8.96868 0.968296 9.93196 1.02279 10.9005C1.07728 12.0255 1.33392 13.024 2.15658 13.8466C2.98099 14.671 3.97767 14.9259 5.10267 14.9804C6.07299 15.0349 7.03451 15.0261 8.00306 15.0261C8.97338 15.0261 9.9349 15.0349 10.9035 14.9804C12.0285 14.9259 13.0269 14.6693 13.8496 13.8466C14.674 13.0222 14.9288 12.0255 14.9833 10.9005C15.0396 9.93196 15.029 8.97044 15.029 8.00013ZM13.4822 12.145C13.3538 12.465 13.1992 12.704 12.9513 12.9501C12.7035 13.198 12.4662 13.3527 12.1462 13.481C11.2216 13.8484 9.02611 13.7658 8.00131 13.7658C6.9765 13.7658 4.77924 13.8484 3.85463 13.4827C3.5347 13.3544 3.29564 13.1997 3.04955 12.9519C2.8017 12.704 2.64701 12.4667 2.51869 12.1468C2.15306 11.2204 2.23568 9.02493 2.23568 8.00013C2.23568 6.97532 2.15306 4.77806 2.51869 3.85345C2.64701 3.53353 2.8017 3.29447 3.04955 3.04837C3.2974 2.80228 3.5347 2.64583 3.85463 2.51751C4.77924 2.15189 6.9765 2.23451 8.00131 2.23451C9.02611 2.23451 11.2234 2.15189 12.148 2.51751C12.4679 2.64583 12.707 2.80052 12.9531 3.04837C13.2009 3.29623 13.3556 3.53353 13.4839 3.85345C13.8496 4.77806 13.7669 6.97532 13.7669 8.00013C13.7669 9.02493 13.8496 11.2204 13.4822 12.145Z" fill="#D0542D"/>
</svg>
