<svg width="8" height="13" viewBox="0 0 8 13" fill="none" xmlns="http://www.w3.org/2000/svg">
<path d="M1.07173 12.1939H6.78764C7.3786 12.1939 7.85938 11.7132 7.85938 11.1222V4.16435C7.85938 3.68724 7.67358 3.23868 7.3362 2.9013C7.3353 2.90037 4.68605 0.308302 4.68605 0.308302C4.48644 0.109483 4.21791 0 3.92969 0H1.78622C0.801299 0 0 0.801299 0 1.78622C0 2.24218 0.171954 2.65861 0.454153 2.97458C0.160665 3.30232 0 3.72094 0 4.16435V11.1222C0 11.7132 0.480779 12.1939 1.07173 12.1939ZM6.83223 3.40775C7.03385 3.61003 7.14489 3.87867 7.14489 4.16435V11.1222C7.14489 11.3192 6.98463 11.4795 6.78764 11.4795H1.07173C0.874748 11.4795 0.714489 11.3192 0.714489 11.1222V4.16435C0.714489 3.87867 0.82552 3.61005 1.02715 3.40775L1.0307 3.40428C1.26033 3.51193 1.51629 3.57244 1.78622 3.57221H2.9194C2.87975 3.68426 2.85795 3.80446 2.85795 3.92969C2.85795 4.52064 3.33873 5.00142 3.92969 5.00142C4.52064 5.00142 5.00142 4.52064 5.00142 3.92969C5.00142 3.33873 4.52064 2.85795 3.92969 2.85795H1.78622C1.72444 2.85795 1.664 2.85241 1.60505 2.84233C1.60505 2.84233 3.67616 0.815898 3.67707 0.81497C3.76014 0.731922 3.86029 0.714489 3.92969 0.714489C3.99909 0.714489 4.09924 0.731922 4.18228 0.81497C4.18321 0.815898 6.83223 3.40775 6.83223 3.40775ZM4.28693 3.92969C4.28693 4.12667 4.12667 4.28693 3.92969 4.28693C3.7327 4.28693 3.57244 4.12667 3.57244 3.92969C3.57244 3.7327 3.7327 3.57244 3.92969 3.57244C4.12667 3.57244 4.28693 3.7327 4.28693 3.92969ZM1.78622 0.714489H2.75819L0.962702 2.47123C0.807825 2.28534 0.714489 2.04651 0.714489 1.78622C0.714489 1.19527 1.19527 0.714489 1.78622 0.714489Z" fill="#79318D"/>
</svg>
