<svg width="13" height="13" viewBox="0 0 13 13" fill="none" xmlns="http://www.w3.org/2000/svg">
<path fill-rule="evenodd" clip-rule="evenodd" d="M3.10013 1.9668H9.90013C10.2007 1.9668 10.489 2.0862 10.7015 2.29874C10.9141 2.51128 11.0335 2.79955 11.0335 3.10013V9.90013C11.0335 10.2007 10.9141 10.489 10.7015 10.7015C10.489 10.9141 10.2007 11.0335 9.90013 11.0335H3.10013C2.79955 11.0335 2.51128 10.9141 2.29874 10.7015C2.0862 10.489 1.9668 10.2007 1.9668 9.90013V3.10013C1.9668 2.79955 2.0862 2.51128 2.29874 2.29874C2.51128 2.0862 2.79955 1.9668 3.10013 1.9668V1.9668Z" stroke="#D0542D" stroke-linecap="round" stroke-linejoin="round"/>
<path d="M1.9668 4.2334H11.0335" stroke="#D0542D" stroke-linecap="round" stroke-linejoin="round"/>
<path d="M6.50026 7.06693C6.81322 7.06693 7.06693 6.81322 7.06693 6.50026C7.06693 6.1873 6.81322 5.93359 6.50026 5.93359C6.1873 5.93359 5.93359 6.1873 5.93359 6.50026C5.93359 6.81322 6.1873 7.06693 6.50026 7.06693Z" fill="#D0542D"/>
<path d="M4.23366 7.06693C4.54662 7.06693 4.80033 6.81322 4.80033 6.50026C4.80033 6.1873 4.54662 5.93359 4.23366 5.93359C3.9207 5.93359 3.66699 6.1873 3.66699 6.50026C3.66699 6.81322 3.9207 7.06693 4.23366 7.06693Z" fill="#D0542D"/>
<path d="M8.76686 7.06693C9.07982 7.06693 9.33353 6.81322 9.33353 6.50026C9.33353 6.1873 9.07982 5.93359 8.76686 5.93359C8.4539 5.93359 8.2002 6.1873 8.2002 6.50026C8.2002 6.81322 8.4539 7.06693 8.76686 7.06693Z" fill="#D0542D"/>
<path d="M6.50026 9.33353C6.81322 9.33353 7.06693 9.07982 7.06693 8.76686C7.06693 8.4539 6.81322 8.2002 6.50026 8.2002C6.1873 8.2002 5.93359 8.4539 5.93359 8.76686C5.93359 9.07982 6.1873 9.33353 6.50026 9.33353Z" fill="#D0542D"/>
<path d="M4.23366 9.33353C4.54662 9.33353 4.80033 9.07982 4.80033 8.76686C4.80033 8.4539 4.54662 8.2002 4.23366 8.2002C3.9207 8.2002 3.66699 8.4539 3.66699 8.76686C3.66699 9.07982 3.9207 9.33353 4.23366 9.33353Z" fill="#D0542D"/>
<path d="M8.76686 9.33353C9.07982 9.33353 9.33353 9.07982 9.33353 8.76686C9.33353 8.4539 9.07982 8.2002 8.76686 8.2002C8.4539 8.2002 8.2002 8.4539 8.2002 8.76686C8.2002 9.07982 8.4539 9.33353 8.76686 9.33353Z" fill="#D0542D"/>
</svg>
