<?xml version="1.0" encoding="utf-8"?>
<!-- Generator: Adobe Illustrator 19.0.0, SVG Export Plug-In . SVG Version: 6.00 Build 0)  -->
<svg version="1.1" id="Layer_1" xmlns="http://www.w3.org/2000/svg" xmlns:xlink="http://www.w3.org/1999/xlink" x="0px" y="0px"
	 width="13px" height="13px" viewBox="-299 390 13 13" style="enable-background:new -299 390 13 13;" xml:space="preserve">
<style type="text/css">
	.st0{fill:#D0542D;}
</style>
<path class="st0" d="M-295.4,402.6h5.7c0.6,0,1.1-0.5,1.1-1.1v-7c0-0.5-0.2-0.9-0.5-1.3c0,0-2.7-2.6-2.7-2.6
	c-0.2-0.2-0.5-0.3-0.8-0.3h-2.1c-1,0-1.8,0.8-1.8,1.8c0,0.5,0.2,0.9,0.5,1.2c-0.3,0.3-0.5,0.7-0.5,1.2v7
	C-296.4,402.1-295.9,402.6-295.4,402.6z M-289.6,393.8c0.2,0.2,0.3,0.5,0.3,0.8v7c0,0.2-0.2,0.4-0.4,0.4h-5.7
	c-0.2,0-0.4-0.2-0.4-0.4v-7c0-0.3,0.1-0.6,0.3-0.8l0,0c0.2,0.1,0.5,0.2,0.8,0.2h1.1c0,0.1-0.1,0.2-0.1,0.4c0,0.6,0.5,1.1,1.1,1.1
	c0.6,0,1.1-0.5,1.1-1.1s-0.5-1.1-1.1-1.1h-2.1c-0.1,0-0.1,0-0.2,0c0,0,2.1-2,2.1-2c0.1-0.1,0.2-0.1,0.3-0.1s0.2,0,0.3,0.1
	C-292.2,391.2-289.6,393.8-289.6,393.8z M-292.1,394.3c0,0.2-0.2,0.4-0.4,0.4s-0.4-0.2-0.4-0.4s0.2-0.4,0.4-0.4
	S-292.1,394.1-292.1,394.3z M-294.6,391.1h1l-1.8,1.8c-0.2-0.2-0.2-0.4-0.2-0.7C-295.7,391.6-295.2,391.1-294.6,391.1z"/>
</svg>
