<?xml version="1.0" encoding="utf-8"?>
<!-- Generator: Adobe Illustrator 19.0.0, SVG Export Plug-In . SVG Version: 6.00 Build 0)  -->
<svg version="1.1" id="Layer_1" xmlns="http://www.w3.org/2000/svg" xmlns:xlink="http://www.w3.org/1999/xlink" x="0px" y="0px"
	 width="11.2px" height="12.2px" viewBox="-298.6 390.9 11.2 12.2" style="enable-background:new -298.6 390.9 11.2 12.2;"
	 xml:space="preserve">
<style type="text/css">
	.st0{fill:none;stroke:#D0542D;}
</style>
<path class="st0" d="M-295.6,399.2c2.7,3.2,4.9,3.6,5.8,3.3c0.1,0,0.2-0.1,0.3-0.2l1.2-1c0.5-0.4,0.5-1.1,0-1.5l-0.9-0.7
	c-0.3-0.3-0.8-0.3-1.1-0.1l-0.6,0.3c-0.3,0.2-0.7,0.2-1-0.1c-0.6-0.4-1.3-1-1.8-1.6"/>
<path class="st0" d="M-295.6,399.2c-2.7-3.2-2.7-5.4-2.3-6.3c0-0.1,0.1-0.2,0.2-0.3l1.2-1c0.5-0.4,1.2-0.3,1.5,0.3l0.6,1
	c0.2,0.4,0.2,0.8-0.1,1.1l-0.4,0.6c-0.2,0.3-0.3,0.7-0.1,1c0.3,0.6,0.8,1.5,1.3,2"/>
</svg>
