<svg width="186" height="43" viewBox="0 0 186 43" fill="none" xmlns="http://www.w3.org/2000/svg">
<path d="M3.38376 22.6772L3.41651 22.6414C3.39128 22.8608 3.41489 23.083 3.48564 23.2922C3.55638 23.5013 3.6725 23.6921 3.82563 23.8508C4.09824 23.8415 4.37116 23.8527 4.6421 23.8842C4.66831 23.8853 4.69404 23.8916 4.71779 23.9028C4.74155 23.9139 4.76284 23.9297 4.78042 23.9493C4.798 23.9688 4.81152 23.9916 4.82019 24.0165C4.82885 24.0413 4.83249 24.0676 4.83088 24.0939C4.83088 24.2133 4.76061 24.2676 4.62364 24.2676C4.35328 24.2676 3.95308 24.2605 3.41115 24.2426C2.86922 24.2246 2.46427 24.2169 2.19747 24.2169C1.69684 24.2169 1.08146 24.2338 0.351343 24.2676H0.316213C0.290319 24.2718 0.263805 24.2699 0.23881 24.2619C0.213814 24.2539 0.191031 24.2402 0.172311 24.2217C0.153591 24.2033 0.139455 24.1807 0.131038 24.1558C0.12262 24.1309 0.120163 24.1044 0.123859 24.0783C0.123859 23.9356 0.369208 23.8502 0.856943 23.8132C1.05034 23.5871 1.19517 23.3234 1.28237 23.0387C1.36957 22.7539 1.39727 22.4542 1.36374 22.1582V10.6408C1.37139 10.4851 1.34232 10.3298 1.27889 10.1876C1.21546 10.0453 1.11945 9.92003 0.998682 9.82195C0.709442 9.8055 0.422462 9.76109 0.141724 9.68937C0.102414 9.67736 0.0678122 9.65336 0.0427306 9.62072C0.017649 9.58807 0.00333352 9.5484 0.00177556 9.50722C-0.00204322 9.48095 0.000316855 9.45414 0.00867259 9.42895C0.0170283 9.40375 0.0311417 9.38087 0.0498912 9.36213C0.0686407 9.34338 0.0915058 9.32929 0.116653 9.32099C0.141801 9.31269 0.168533 9.3104 0.19472 9.31431C0.367518 9.36383 0.545722 9.39191 0.725336 9.39793C1.17911 9.46135 1.6369 9.4915 2.09504 9.48811C2.92123 9.48155 3.74479 9.39394 4.55397 9.22652H4.5885C4.6146 9.22253 4.64127 9.22471 4.66637 9.2329C4.69147 9.2411 4.71432 9.25507 4.73307 9.2737C4.75182 9.29233 4.76597 9.31511 4.77437 9.34021C4.78277 9.3653 4.7852 9.39202 4.78146 9.41823C4.78146 9.512 4.7219 9.57709 4.60935 9.6195C4.27001 9.69886 3.92555 9.75434 3.5785 9.78553C3.40456 10.2546 3.33919 10.7572 3.38733 11.2553V22.6772H3.38376ZM3.07051 22.6414V11.2559C3.04803 10.774 3.09415 10.2914 3.20748 9.82255L2.89364 9.85719C2.65637 10.3087 2.54778 10.817 2.5798 11.3264V22.3308C2.5482 22.6005 2.57372 22.8737 2.65469 23.1328C2.73566 23.3918 2.87026 23.6308 3.04967 23.8341H3.38316C3.1691 23.4742 3.06073 23.061 3.07051 22.642V22.6414Z" fill="white"/>
<path d="M9.42248 11.7809C8.39023 10.5924 7.46439 9.93942 6.64495 9.82196C6.39006 9.91573 6.2668 9.96112 6.28109 9.96112C6.25492 9.96492 6.22822 9.9625 6.20316 9.95404C6.1781 9.94558 6.15538 9.93133 6.13682 9.91243C6.11827 9.89354 6.10441 9.87053 6.09637 9.84527C6.08832 9.82001 6.08632 9.7932 6.09052 9.76702C6.09052 9.58188 6.42579 9.43019 7.10291 9.31492C8.02568 9.14811 8.97076 9.14811 9.89354 9.31492C9.95024 9.3327 9.99919 9.36936 10.0323 9.41884L20.6374 21.5586V15.9172C20.6374 14.9505 20.5846 13.8526 20.479 12.6236C20.4456 12.1834 20.3599 11.533 20.2182 10.6802C20.1662 10.2795 19.9599 9.91505 19.6435 9.66489C19.3666 9.6416 19.061 9.61831 18.7377 9.59323C18.6868 9.58102 18.6415 9.55199 18.6091 9.51082C18.5767 9.46965 18.5591 9.41874 18.559 9.36628C18.559 9.25102 18.6287 9.1907 18.768 9.1907C18.9912 9.23962 19.2186 9.26702 19.4469 9.27252C20.0425 9.31134 20.5784 9.33224 21.0513 9.33224C21.3122 9.32354 21.5723 9.29921 21.8302 9.25938C22.0813 9.22072 22.3345 9.19719 22.5883 9.18891C22.6144 9.18535 22.641 9.1879 22.6659 9.19633C22.6909 9.20477 22.7136 9.21888 22.7322 9.23755C22.7508 9.25623 22.7649 9.27896 22.7733 9.30398C22.7817 9.32901 22.7842 9.35564 22.7807 9.38181C22.7807 9.5562 22.4651 9.66728 21.838 9.71446C21.6509 9.87927 21.5023 10.0834 21.4029 10.3124C21.3034 10.5413 21.2556 10.7895 21.2627 11.0391C21.2266 11.8207 21.1692 12.9861 21.0906 14.5353C21.0486 14.842 21.0243 15.1509 21.0179 15.4604V22.0143C21.2014 22.2087 21.4032 22.3847 21.6206 22.5399C21.8143 22.7099 22.036 22.8449 22.2757 22.9388C22.2911 22.9279 22.3098 22.9224 22.3287 22.9233C22.4216 22.9233 22.4674 23.0111 22.4674 23.1885C22.4709 23.2145 22.4682 23.2409 22.4597 23.2657C22.4512 23.2906 22.4371 23.313 22.4184 23.3314C22.3998 23.3499 22.3771 23.3637 22.3523 23.3718C22.3274 23.38 22.301 23.3822 22.2751 23.3784C21.6309 23.5257 21.0359 23.838 20.5481 24.285C20.5115 24.2804 20.4766 24.2672 20.4462 24.2464C20.4157 24.2257 20.3906 24.1979 20.373 24.1655C20.0927 23.8534 19.673 23.3875 19.114 22.768L9.80302 12.2144V19.1357C9.80302 19.6481 9.84054 20.3039 9.92212 21.0976C9.9523 21.7285 10.0638 22.3528 10.2538 22.955C10.3738 23.2468 10.5458 23.5143 10.7612 23.7445C10.9601 23.766 11.2484 23.8209 11.6331 23.9027C11.6745 23.914 11.7109 23.9392 11.7362 23.974C11.7614 24.0089 11.774 24.0514 11.7718 24.0945C11.7752 24.1204 11.7726 24.1467 11.7641 24.1714C11.7557 24.1961 11.7416 24.2185 11.7231 24.2369C11.7046 24.2553 11.6822 24.2691 11.6574 24.2774C11.6327 24.2856 11.6065 24.288 11.5807 24.2844C11.4421 24.2715 11.3046 24.2491 11.1691 24.2175C10.9429 24.1709 10.8029 24.1428 10.7428 24.1315C10.3718 24.0906 9.99873 24.0719 9.62555 24.0753C9.25172 24.0857 8.87903 24.1218 8.51013 24.1834C8.18687 24.2349 7.86102 24.2684 7.53407 24.2838C7.50819 24.2876 7.48178 24.2854 7.45691 24.2772C7.43204 24.2691 7.40939 24.2553 7.39075 24.2368C7.3721 24.2184 7.35797 24.1959 7.34946 24.1711C7.34096 24.1463 7.3383 24.1199 7.34171 24.0939C7.34082 24.0497 7.35505 24.0066 7.38204 23.9717C7.40903 23.9368 7.44714 23.9123 7.49 23.9022C7.83147 23.8296 8.17782 23.7825 8.52622 23.7612C8.86236 23.3862 9.07092 22.9137 9.12174 22.4121C9.24202 21.6548 9.31125 20.8902 9.32898 20.1235C9.37623 18.7121 9.4062 17.9428 9.41891 17.8158V11.7809H9.42248ZM7.55313 9.62667L7.27501 9.6643C8.07386 9.9953 8.77558 10.5247 9.3141 11.2027C12.0932 14.3987 15.8238 18.6171 20.5058 23.858L20.7964 23.6L9.73155 11.0146C9.1633 10.3389 8.40185 9.85439 7.55015 9.62667H7.55313Z" fill="white"/>
<path d="M29.6519 24.2032C29.4661 24.2032 29.1921 24.1996 28.8318 24.1948C28.4715 24.19 28.197 24.187 28.0118 24.187C27.8486 24.187 27.605 24.1906 27.2793 24.2032C26.9535 24.2157 26.71 24.2205 26.5462 24.2205C26.3096 24.1923 26.0699 24.2337 25.8564 24.3397C25.6429 24.4458 25.4648 24.6119 25.3438 24.8177C25.3063 24.9317 25.2593 25.0424 25.2033 25.1486C25.1801 25.1838 25.1217 25.2035 25.0312 25.2035C24.9258 25.2035 24.8716 25.133 24.8716 24.9927C24.8854 24.8299 24.9389 24.6729 25.0274 24.5357C25.1159 24.3984 25.2366 24.2851 25.379 24.2056C25.6368 24.0066 25.9429 23.8802 26.2657 23.8395C26.4808 23.6002 26.5937 23.2858 26.5801 22.9639V10.2591C26.5838 10.0578 26.5602 9.85688 26.5099 9.66192C26.0893 9.65931 25.6702 9.61287 25.2593 9.52336C25.1527 9.47678 25.1021 9.41168 25.1021 9.33345C25.1021 9.20265 25.1616 9.13815 25.2926 9.13815H25.3272C26.3735 9.24207 26.9857 9.29463 27.1572 9.29463C27.3672 9.29463 27.6876 9.27711 28.1184 9.24207C28.5491 9.20703 28.8685 9.18951 29.0766 9.18951C30.7364 9.18209 32.3654 9.63829 33.7812 10.507C35.08 11.2215 36.1062 12.3474 36.6993 13.7087C37.1058 14.737 37.3128 15.8336 37.3091 16.9397C37.3018 17.7282 37.197 18.5128 36.9971 19.2755C36.8332 20.053 36.4924 20.782 36.0013 21.4058C35.096 22.4065 33.9761 23.1881 32.726 23.6919C31.7418 24.0523 30.6993 24.2256 29.6519 24.2032ZM28.465 23.8V9.558C28.325 9.56935 28.1166 9.58727 27.8373 9.61235V23.7971L28.465 23.8ZM28.7806 23.8H29.793C30.4214 23.8167 31.049 23.7464 31.6582 23.591C32.5329 23.3247 33.3237 22.8348 33.9527 22.1696C34.5871 21.5287 35.0412 20.7309 35.2688 19.8572C35.5408 18.8316 35.6881 17.7768 35.7077 16.7158C35.6855 15.2249 35.237 13.7719 34.4155 12.5292C33.9602 11.7594 33.3553 11.0891 32.6366 10.5584C31.8919 10.0763 31.0525 9.76036 30.1753 9.63206C29.9347 9.58706 29.6905 9.56408 29.4458 9.56338C29.2916 9.56338 29.073 9.57472 28.7818 9.59861L28.7806 23.8Z" fill="white"/>
<path d="M46.293 24.6373C45.5731 24.6454 44.8543 24.5757 44.1492 24.4295C42.9227 24.1799 41.7671 23.6596 40.766 22.9066C39.7588 22.1605 38.994 21.1324 38.5679 19.9515C38.2294 19.0014 38.0522 18.0011 38.0438 16.9923C38.0104 16.1134 38.1732 15.2381 38.5204 14.4305C38.8677 13.6228 39.3905 12.9033 40.0508 12.3243C41.3957 11.1674 43.1257 10.5606 44.8965 10.6246C45.4773 10.608 46.0563 10.6966 46.6057 10.8862C47.0951 11.0817 47.5507 11.3534 47.9558 11.6913C48.3614 11.9975 48.6925 12.392 48.9241 12.8451C48.9362 12.879 48.9422 12.9148 48.9419 12.9508C48.9456 12.977 48.943 13.0037 48.9346 13.0287C48.9261 13.0538 48.912 13.0765 48.8933 13.0951C48.8745 13.1137 48.8518 13.1277 48.8267 13.1359C48.8017 13.1441 48.7751 13.1464 48.749 13.1425C48.7221 13.1437 48.6954 13.1379 48.6714 13.1256C48.6474 13.1134 48.6269 13.0951 48.612 13.0727C48.0994 12.4965 47.4737 12.0327 46.7739 11.7105C46.0742 11.3883 45.3156 11.2147 44.5458 11.2004C43.6008 11.1507 42.6604 11.3622 41.8272 11.8119C40.5218 12.6401 39.8707 14.1132 39.8739 16.2314C39.8948 17.5706 40.2996 18.8755 41.0399 19.9903C41.7422 21.1252 42.7208 22.0624 43.8836 22.7137C44.972 23.3931 46.215 23.7835 47.4954 23.8484C47.8806 23.8525 48.2638 23.7932 48.6299 23.6728C49.1512 23.532 49.6416 23.2946 50.0758 22.9729C50.7936 22.4217 51.3682 21.705 51.7509 20.8837C52.1337 20.0624 52.3133 19.1606 52.2745 18.2548C52.3357 16.1197 51.6017 14.0382 50.2158 12.4163C49.5273 11.6133 48.6692 10.974 47.7037 10.545C46.7382 10.116 45.6896 9.90796 44.6339 9.93604C44.2195 9.94514 43.8061 9.98125 43.3964 10.0441C42.9856 10.073 42.5828 10.1722 42.2054 10.3374C41.7257 10.6359 41.2819 10.9888 40.8827 11.3891C40.8395 11.4303 40.7837 11.4555 40.7243 11.4608C40.6983 11.4646 40.6718 11.4622 40.6469 11.454C40.6219 11.4457 40.5993 11.4317 40.5807 11.413C40.5621 11.3944 40.5482 11.3717 40.5399 11.3467C40.5317 11.3217 40.5293 11.2951 40.5331 11.269C40.5347 11.226 40.5461 11.1839 40.5665 11.146C40.7527 10.946 40.9575 10.7642 41.1781 10.6031C42.6523 9.44031 44.484 8.828 46.3591 8.87119C47.4036 8.87242 48.4372 9.0838 49.3988 9.4928C50.3603 9.90181 51.2302 10.5001 51.9571 11.2523C52.2185 11.5191 52.4522 11.8118 52.6544 12.1261C53.5693 13.4269 54.0626 14.9788 54.067 16.5706C54.0673 17.4794 53.9016 18.3806 53.5781 19.2295C53.0421 20.7667 52.0732 22.1152 50.7887 23.1114C49.5041 24.113 47.9201 24.6507 46.293 24.6373ZM39.5601 16.2386C39.4683 14.7549 39.9554 13.2937 40.9184 12.1637C40.8438 12.2022 40.7737 12.2488 40.7094 12.3028C40.186 12.8253 39.7763 13.451 39.5063 14.1404C39.2363 14.8297 39.1119 15.5678 39.1408 16.3078C39.17 17.2084 39.31 18.1018 39.5577 18.9679C39.6674 19.3063 39.8194 19.6294 40.0103 19.9294C40.9136 21.4082 42.1958 22.617 43.7234 23.4298C44.543 23.8911 45.4675 24.1326 46.4074 24.1309C46.5366 24.1309 46.6706 24.1237 46.8112 24.11C44.8694 23.8527 43.0824 22.9103 41.7706 21.4517C41.0786 20.7711 40.5271 19.9604 40.1478 19.0659C39.7685 18.1713 39.5688 17.2106 39.5601 16.2386ZM45.1246 9.36569C44.5913 9.38889 44.0655 9.50132 43.5691 9.69835C43.9219 9.65076 44.2774 9.62662 44.6333 9.62608C46.2984 9.61931 47.9208 10.1543 49.257 11.1508C51.4763 12.7832 52.5879 15.1216 52.5919 18.1658C52.6182 19.5036 52.2469 20.819 51.5253 21.9445C52.0387 21.3819 52.4356 20.7226 52.6929 20.0049C52.9503 19.2873 53.0629 18.5255 53.0243 17.7639C53.0189 16.9992 52.9256 16.2377 52.7462 15.4944C52.3223 13.6293 51.19 12.0034 49.5899 10.9621C48.299 9.9851 46.7407 9.42818 45.1246 9.36629V9.36569Z" fill="white"/>
<path d="M57.2096 11.7809C56.18 10.5924 55.2569 9.93784 54.4327 9.82198C54.1808 9.91574 54.0581 9.96113 54.07 9.96113C54.0439 9.96478 54.0172 9.96225 53.9922 9.95374C53.9672 9.94524 53.9445 9.931 53.9259 9.91215C53.9074 9.8933 53.8934 9.87037 53.8853 9.84518C53.8771 9.81998 53.8749 9.79323 53.8789 9.76703C53.8789 9.58189 54.2159 9.4302 54.8913 9.31493C55.3041 9.23954 55.7223 9.1982 56.1419 9.19131C56.6566 9.1814 57.1711 9.22282 57.6777 9.31493C57.7355 9.33247 57.7857 9.36909 57.8201 9.41885L68.4275 21.5587V15.9173C68.4275 14.9506 68.3741 13.8527 68.2673 12.6236C68.2322 12.1834 68.1482 11.533 68.0095 10.6802C67.9543 10.2797 67.7472 9.91602 67.4312 9.66491C67.1525 9.64162 66.85 9.61832 66.5242 9.59324C66.4745 9.57983 66.4305 9.55031 66.3992 9.50928C66.3678 9.46824 66.3509 9.41798 66.3509 9.3663C66.3509 9.25103 66.4206 9.19071 66.5576 9.19071C66.7821 9.23893 67.0106 9.26632 67.2401 9.27253C67.832 9.31135 68.3716 9.33225 68.848 9.33225C69.1073 9.32342 69.3658 9.29909 69.6222 9.25939C69.8732 9.22077 70.1264 9.19724 70.3803 9.18892C70.4064 9.18539 70.4329 9.18794 70.4579 9.19638C70.4829 9.20482 70.5056 9.21891 70.5243 9.23757C70.5429 9.25623 70.557 9.27895 70.5655 9.30396C70.574 9.32898 70.5767 9.35562 70.5732 9.38182C70.5732 9.55621 70.259 9.6671 69.6305 9.71448C69.4428 9.87882 69.2937 10.0829 69.194 10.3119C69.0943 10.541 69.0465 10.7893 69.054 11.0391C69.0183 11.8209 68.9629 12.9873 68.8807 14.5353C68.8406 14.8422 68.8168 15.151 68.8093 15.4604V22.0143C68.9934 22.2084 69.1956 22.3844 69.4131 22.5399C69.6062 22.7108 69.828 22.8459 70.0682 22.9388C70.0831 22.9282 70.1011 22.9227 70.1194 22.9233C70.2135 22.9233 70.2594 23.0111 70.2594 23.1885C70.2627 23.2144 70.2601 23.2407 70.2517 23.2654C70.2432 23.2901 70.2292 23.3125 70.2107 23.3309C70.1922 23.3493 70.1697 23.3632 70.145 23.3714C70.1203 23.3796 70.094 23.382 70.0682 23.3784C69.424 23.5257 68.829 23.838 68.3412 24.285C68.304 24.2811 68.2683 24.2682 68.2371 24.2474C68.206 24.2266 68.1804 24.1985 68.1625 24.1655C67.8832 23.8532 67.467 23.3892 66.9072 22.768L57.5937 12.2145V19.1357C57.5937 19.6481 57.636 20.3039 57.7129 21.0976C57.7423 21.7284 57.8532 22.3528 58.0428 22.955C58.1639 23.2464 58.3359 23.5137 58.5508 23.7445C58.7479 23.766 59.0385 23.8209 59.4214 23.9028C59.4632 23.9137 59.5 23.9387 59.5256 23.9736C59.5512 24.0085 59.564 24.0512 59.562 24.0945C59.5653 24.1205 59.5625 24.147 59.5539 24.1718C59.5454 24.1966 59.5312 24.2191 59.5125 24.2375C59.4938 24.2558 59.4711 24.2697 59.4462 24.2778C59.4213 24.2859 59.3949 24.2882 59.369 24.2844C59.2311 24.2712 59.0942 24.2488 58.9593 24.2175C58.7336 24.1709 58.5913 24.1428 58.5347 24.1315C58.1633 24.0908 57.7899 24.072 57.4163 24.0754C57.0424 24.0856 56.6698 24.1217 56.3009 24.1835C55.9774 24.235 55.6514 24.2685 55.3242 24.2838C55.2984 24.2877 55.272 24.2854 55.2472 24.2773C55.2223 24.2692 55.1997 24.2553 55.1812 24.2369C55.1626 24.2184 55.1486 24.1959 55.1402 24.1711C55.1319 24.1463 55.1294 24.1198 55.133 24.0939C55.1319 24.05 55.1458 24.0071 55.1723 23.9722C55.1988 23.9374 55.2365 23.9126 55.2789 23.9022C55.6214 23.8297 55.9688 23.7826 56.3181 23.7612C56.6556 23.3871 56.8643 22.9142 56.9137 22.4121C57.0342 21.6548 57.1045 20.8902 57.1239 20.1235C57.1691 18.7123 57.2001 17.9425 57.2102 17.8158V11.7809H57.2096ZM55.3451 9.62669L55.0646 9.66431C55.8636 9.99464 56.5653 10.5242 57.103 11.2028C59.8822 14.3987 63.6119 18.6171 68.2924 23.858L68.5901 23.6L57.5199 11.0146C56.9548 10.3384 56.1952 9.85369 55.3451 9.62669Z" fill="white"/>
<path d="M81.0885 25.3349C80.9598 25.3349 80.8973 25.2752 80.8973 25.151C80.9817 24.8902 81.1052 24.6439 81.2635 24.4206C81.2076 24.3172 81.0819 24.2683 80.8973 24.2683H72.3813C72.2544 24.2683 72.1919 24.2085 72.1919 24.0945C72.1874 24.0437 72.2031 23.9932 72.2356 23.9539C72.268 23.9147 72.3146 23.8898 72.3652 23.8848C72.389 23.8848 72.6207 23.8789 73.0649 23.8651C73.4143 23.4342 73.5834 22.8842 73.5366 22.3309V10.7847C73.5591 10.5915 73.5205 10.3961 73.4261 10.2262C73.3317 10.0563 73.1864 9.92054 73.0108 9.8381C72.872 9.8381 72.7392 9.83212 72.6106 9.82257C72.4248 9.79868 72.3313 9.72701 72.3313 9.61294C72.3313 9.48334 72.3998 9.41944 72.5421 9.41944C72.9589 9.41944 73.5813 9.43676 74.4073 9.46184C75.2333 9.48693 75.8556 9.50843 76.273 9.50843H79.1357C80.2607 9.50843 80.8193 9.41526 80.808 9.23669V9.18533C80.808 9.03662 80.8723 8.96436 81.0009 8.96436C81.0345 8.96482 81.0676 8.97284 81.0977 8.98783C81.1278 9.00282 81.1541 9.02439 81.1748 9.05095C81.3606 9.33583 81.6209 9.72761 81.9597 10.2454C82.1348 10.4998 82.4075 10.8665 82.778 11.3455C82.8115 11.3854 82.8306 11.4355 82.8321 11.4876C82.8355 11.5137 82.8329 11.5403 82.8243 11.5652C82.8158 11.5901 82.8016 11.6127 82.7829 11.6312C82.7642 11.6497 82.7416 11.6636 82.7166 11.6719C82.6917 11.6801 82.6652 11.6825 82.6392 11.6787C82.6099 11.6784 82.581 11.672 82.5543 11.66C82.5275 11.6479 82.5035 11.6306 82.4838 11.6089C82.3116 11.4294 82.1243 11.2651 81.924 11.1179C80.7389 10.2906 79.0009 9.87632 76.7102 9.87513C76.5684 9.87513 76.379 9.88229 76.1337 9.89483C75.8556 9.90439 75.6626 9.91036 75.5566 9.91036V15.98C76.6143 15.968 77.5743 15.9603 78.4467 15.9603C79.26 15.991 80.0661 15.7977 80.7776 15.4013C81.1242 14.9342 81.3267 14.7013 81.3874 14.7013C81.4131 14.698 81.4392 14.7007 81.4636 14.7092C81.4881 14.7177 81.5103 14.7317 81.5285 14.7502C81.5466 14.7687 81.5603 14.7912 81.5683 14.8158C81.5764 14.8405 81.5787 14.8667 81.575 14.8924C81.575 14.9422 80.9596 15.7942 79.7289 17.4485C79.7104 17.4718 79.6865 17.4903 79.6593 17.5022C79.6321 17.5142 79.6025 17.5193 79.5728 17.5172C79.4448 17.5172 79.3817 17.4575 79.3817 17.3416C79.4995 17.0885 79.6525 16.8535 79.8361 16.6435C79.1381 16.4189 78.4037 16.3301 77.6725 16.3819H75.5596V23.8848C76.257 23.895 76.6393 23.9028 76.7096 23.9028C77.7549 23.9061 78.7981 23.8102 79.8253 23.6161C81.2052 23.3521 82.1276 22.9633 82.591 22.4419C82.6505 22.3577 82.719 22.2628 82.7922 22.1433C82.8655 22.0239 82.9399 21.9749 83.009 21.9749C83.0375 21.9709 83.0665 21.9736 83.0938 21.9828C83.1211 21.992 83.1458 22.0074 83.1661 22.0279C83.1864 22.0483 83.2017 22.0733 83.2107 22.1007C83.2197 22.1281 83.2222 22.1572 83.2181 22.1857C83.1456 22.3676 83.0393 22.534 82.9048 22.6761C82.2805 23.4686 81.7312 24.3177 81.2641 25.2125C81.2519 25.2492 81.2283 25.2809 81.1966 25.303C81.1649 25.325 81.127 25.3362 81.0885 25.3349ZM75.107 9.87214C74.8064 10.3357 74.6704 10.8874 74.7211 11.4381V15.9973L75.2469 15.98V9.87214H75.107ZM74.7211 16.3819V22.826C74.6996 23.2102 74.8114 23.59 75.0373 23.901H75.2464V16.3813L74.7211 16.3819Z" fill="white"/>
<path d="M91.5184 12.6373C91.4923 12.6412 91.4657 12.6389 91.4407 12.6307C91.4157 12.6224 91.3929 12.6085 91.3742 12.5898C91.3556 12.5712 91.3415 12.5485 91.3331 12.5234C91.3247 12.4984 91.3223 12.4717 91.326 12.4456C91.326 12.3638 91.4761 12.1912 91.7804 11.9212C91.8264 11.7255 91.8498 11.5251 91.8501 11.324C91.8661 10.9998 91.7918 10.6776 91.6355 10.3935C91.4792 10.1093 91.2471 9.87438 90.9651 9.71506C90.5694 9.44553 90.1057 9.29377 89.6276 9.2773C89.2682 9.2841 88.9181 9.39325 88.6182 9.59203C88.2957 9.79126 88.0271 10.0672 87.8363 10.3953C87.6355 10.7971 87.5398 11.2434 87.5581 11.6925C87.5277 12.1658 87.6047 12.6398 87.7834 13.0789C87.962 13.5181 88.2377 13.9108 88.5896 14.2277C89.4829 14.973 90.2386 15.6425 90.8561 16.223C91.1539 16.4924 91.5815 16.9152 92.1306 17.4993C92.8425 18.328 93.2703 19.3641 93.3508 20.455C93.3288 21.3786 93.0058 22.2697 92.4313 22.992C92.0434 23.5229 91.5316 23.9504 90.9408 24.237C90.3499 24.5236 89.6981 24.6607 89.0422 24.6361C88.6389 24.6445 88.2373 24.5796 87.8571 24.4444C87.1665 24.166 86.5466 23.7365 86.0425 23.1873C85.5101 22.6557 85.0874 22.0242 84.7985 21.3287C84.6319 21.3877 84.4565 21.418 84.2798 21.4183C84.1517 21.4183 84.0886 21.3484 84.0886 21.2069C84.0886 21.0803 84.175 21.014 84.3483 21.014C84.8553 20.9147 85.3142 20.6469 85.6507 20.2537C86.195 19.7479 86.5999 19.4928 86.865 19.4928C86.9918 19.4928 87.0525 19.5657 87.0525 19.7037C87.0525 19.7855 86.9983 19.847 86.8941 19.8894C86.7138 19.9623 86.538 20.0461 86.3677 20.1402C86.2437 20.3652 86.1797 20.6184 86.1819 20.8754C86.1967 21.2815 86.3098 21.6779 86.5112 22.0304C87.2727 23.4399 88.133 24.1454 89.0922 24.147C89.4321 24.1644 89.7715 24.1059 90.0861 23.9757C90.4006 23.8454 90.6823 23.6467 90.9109 23.3939C91.3373 22.8536 91.553 22.1762 91.5178 21.4882C91.5308 20.7099 91.2922 19.9482 90.8377 19.3173C90.3674 18.7252 89.8163 18.2024 89.2006 17.7645C86.9185 16.0265 85.7785 14.3702 85.7805 12.7956C85.7929 12.146 85.9663 11.5098 86.2849 10.9442C86.5775 10.3634 87.0161 9.86934 87.5575 9.51081C88.2056 9.10432 88.9581 8.89673 89.7223 8.91359C90.3769 8.89456 91.0254 9.04556 91.6047 9.35195C91.9873 9.58608 92.3292 9.8812 92.6171 10.2257C92.7838 10.452 92.9989 10.6381 93.2466 10.7704C93.3363 10.6746 93.452 10.6074 93.5795 10.5769C93.6944 10.5769 93.7546 10.6467 93.7546 10.7877C93.7484 10.8466 93.7234 10.902 93.6831 10.9453C93.533 11.0493 93.3258 11.2069 93.056 11.4148C92.5678 11.7637 92.1073 12.1501 91.6786 12.5704C91.6359 12.6127 91.5784 12.6367 91.5184 12.6373ZM86.3028 12.2001V11.7821C86.2226 12.1082 86.1826 12.4429 86.1837 12.7788C86.1837 14.2365 87.2651 15.793 89.4281 17.4485C90.0964 17.9235 90.6903 18.4957 91.1902 19.1464C91.667 19.8334 91.9169 20.6531 91.9049 21.49C91.9215 22.1019 91.7899 22.7087 91.5214 23.2583C91.768 22.9561 91.9432 22.6019 92.0341 22.2222C92.159 21.8436 92.2267 21.4485 92.2348 21.0498C92.2055 20.4618 92.0442 19.8879 91.7631 19.371C91.5137 18.8216 91.1648 18.3235 90.7341 17.9018C90.5554 17.7734 90.3089 17.5698 89.9831 17.2897C89.2415 16.6602 88.4977 16.0072 87.7517 15.3308C87.2969 14.9467 86.9314 14.4674 86.6811 13.9265C86.4308 13.3857 86.3017 12.7964 86.3028 12.2001Z" fill="white"/>
<path d="M99.0548 22.6772L99.0875 22.6414C99.0616 22.8609 99.0849 23.0834 99.1558 23.2926C99.2267 23.5019 99.3434 23.6926 99.4972 23.8508C99.7699 23.8416 100.043 23.8527 100.314 23.8842C100.34 23.8854 100.366 23.8918 100.389 23.9031C100.413 23.9143 100.434 23.9301 100.452 23.9496C100.469 23.969 100.483 23.9918 100.492 24.0166C100.501 24.0413 100.504 24.0676 100.503 24.0939C100.503 24.2133 100.431 24.2676 100.292 24.2676C100.025 24.2676 99.6205 24.2605 99.0798 24.2426C98.539 24.2246 98.1347 24.2169 97.8679 24.2169C97.3688 24.2169 96.7535 24.2338 96.0218 24.2676H95.986C95.9602 24.2716 95.9339 24.2695 95.909 24.2614C95.8842 24.2534 95.8616 24.2396 95.843 24.2212C95.8244 24.2028 95.8104 24.1803 95.802 24.1555C95.7937 24.1307 95.7912 24.1042 95.7949 24.0783C95.7949 23.9356 96.0402 23.8502 96.5292 23.8132C96.7216 23.5865 96.8656 23.3228 96.9524 23.0381C97.0391 22.7535 97.0668 22.454 97.0336 22.1582V10.6407C97.0416 10.4849 97.0126 10.3294 96.9489 10.1871C96.8852 10.0447 96.7887 9.91954 96.6673 9.82195C96.3791 9.80531 96.0931 9.76091 95.8133 9.68937C95.7741 9.67746 95.7395 9.65346 95.7146 9.62077C95.6897 9.58807 95.6757 9.54834 95.6746 9.50721C95.6708 9.48117 95.6732 9.45461 95.6814 9.42962C95.6896 9.40464 95.7035 9.38191 95.722 9.36321C95.7405 9.34452 95.763 9.33038 95.7878 9.32189C95.8127 9.31341 95.8391 9.31081 95.8651 9.31431C96.0399 9.36331 96.2198 9.39138 96.4011 9.39792C96.8549 9.46142 97.3127 9.49156 97.7708 9.4881C98.5972 9.48158 99.421 9.39396 100.23 9.22652H100.265C100.291 9.22262 100.318 9.22491 100.343 9.23319C100.368 9.24148 100.39 9.25553 100.409 9.2742C100.427 9.29288 100.441 9.31565 100.449 9.34067C100.457 9.3657 100.459 9.39227 100.455 9.41823C100.455 9.51199 100.395 9.57709 100.283 9.61949C99.9441 9.69918 99.6002 9.75466 99.2537 9.78552C99.0797 10.2546 99.0144 10.7572 99.0625 11.2553V22.6772H99.0548ZM98.7409 22.6414V11.2559C98.7182 10.7738 98.7653 10.291 98.8809 9.82255L98.5653 9.85719C98.3267 10.3083 98.2172 10.8168 98.249 11.3264V22.3308C98.2179 22.6007 98.244 22.8741 98.3256 23.1332C98.4072 23.3922 98.5424 23.6311 98.7225 23.8341H99.0554C98.8411 23.4742 98.7321 23.0611 98.7409 22.642V22.6414Z" fill="white"/>
<path d="M118.537 23.9726C118.165 23.9837 117.795 24.0236 117.43 24.0921C117.076 24.1604 116.718 24.2015 116.358 24.2151C116.332 24.2188 116.305 24.2163 116.28 24.2079C116.255 24.1994 116.232 24.1853 116.213 24.1665C116.194 24.1478 116.18 24.1249 116.172 24.0998C116.164 24.0746 116.161 24.0479 116.165 24.0216C116.163 23.9786 116.176 23.9363 116.201 23.9018C116.227 23.8672 116.263 23.8424 116.305 23.8317C116.574 23.7585 116.848 23.7056 117.125 23.6734C117.185 23.6406 117.211 23.5677 117.211 23.462C117.186 23.2209 117.107 22.9886 116.981 22.7817C116.62 22.1264 115.718 20.493 114.273 17.8815H107.342C106.48 19.4343 105.967 20.362 105.804 20.6646C105.093 22.0872 104.744 23.0794 104.757 23.6412V23.7427C104.942 23.7666 105.205 23.8126 105.543 23.883C105.588 23.8887 105.63 23.9117 105.659 23.9473C105.688 23.9829 105.702 24.0283 105.699 24.0741C105.703 24.1004 105.701 24.1273 105.692 24.1526C105.684 24.1778 105.67 24.2008 105.651 24.2195C105.632 24.2383 105.61 24.2524 105.584 24.2606C105.559 24.2689 105.532 24.2711 105.506 24.267L105.475 24.2509C104.334 24.1339 103.729 24.0741 103.66 24.0718C103.463 24.0718 102.914 24.1207 102.019 24.2139H101.964C101.938 24.2173 101.912 24.2146 101.887 24.206C101.862 24.1975 101.84 24.1833 101.821 24.1645C101.803 24.1458 101.789 24.123 101.781 24.098C101.773 24.073 101.77 24.0465 101.774 24.0204C101.774 23.9284 101.833 23.8568 101.957 23.8108C102.316 23.7345 102.681 23.6933 103.048 23.6877C103.817 23.0724 104.454 22.3058 104.917 21.435L110.373 11.6596C110.382 11.622 110.455 11.4518 110.577 11.1454L110.413 10.8856C109.948 9.98937 109.377 9.54185 108.702 9.54305C108.583 9.5551 108.468 9.58742 108.36 9.6386C108.258 9.68748 108.149 9.71992 108.036 9.73476C108.011 9.73826 107.984 9.7357 107.96 9.72728C107.935 9.71886 107.913 9.7048 107.894 9.68621C107.876 9.66763 107.862 9.64503 107.854 9.62018C107.846 9.59534 107.843 9.56894 107.847 9.54305C107.847 9.39195 108.091 9.27071 108.578 9.17337C108.888 9.10998 109.204 9.07599 109.521 9.07184C110.601 9.05582 111.653 9.41283 112.502 10.0829C112.53 10.0987 112.553 10.122 112.569 10.1503C112.585 10.1785 112.592 10.2106 112.591 10.243L119.023 22.4336C119.257 22.8999 119.558 23.3296 119.916 23.7092C120.088 23.7451 120.258 23.7851 120.422 23.8347C120.485 23.899 120.522 23.9838 120.527 24.0735C120.527 24.1691 120.467 24.2157 120.348 24.2157C120.049 24.2012 119.752 24.1601 119.46 24.0927C119.156 24.0245 118.847 23.9844 118.537 23.9726ZM110.901 11.7892C110.168 13.0103 109.081 14.8605 107.64 17.3398H113.963L110.901 11.7892ZM109.502 9.46959C110.018 9.7569 110.433 10.1973 110.689 10.7303C110.909 11.1364 111.234 11.7408 111.664 12.5495C112.201 13.505 113.093 15.1014 114.338 17.3386H114.934L111.737 11.4303C111.492 10.9625 111.198 10.5221 110.86 10.1164C110.69 9.92127 110.482 9.76333 110.248 9.65237C110.014 9.54142 109.76 9.47981 109.502 9.47138V9.46959ZM115.224 17.8821L114.637 17.8785C115.23 18.9304 116.1 20.5119 117.247 22.6229C117.446 22.9153 117.538 23.2675 117.508 23.6203C117.741 23.597 117.975 23.5844 118.206 23.5844C117.965 22.9555 117.674 22.3475 117.334 21.7665L115.224 17.8821Z" fill="white"/>
<path d="M149.648 2.04848C149.303 2.18346 148.984 2.34112 148.64 2.50178C148.103 2.6934 147.646 3.05831 147.339 3.53916C146.193 5.69608 145.174 7.91815 144.286 10.194C143.364 12.5896 142.283 14.9202 141.05 17.1702C140.513 18.0375 139.88 18.8413 139.163 19.5663C138.336 20.56 137.37 21.4288 136.296 22.1457C134.964 22.9949 133.415 23.4399 131.837 23.4274C129.623 23.4116 127.504 22.528 125.931 20.9656C124.359 19.4031 123.458 17.2858 123.422 15.0662C123.448 12.8976 124.154 10.7922 125.439 9.04797C126.952 6.81116 128.863 5.58645 131.174 5.37384L132.42 5.50821C131.824 5.8084 131.212 6.07479 130.587 6.3061C128.968 6.73431 127.587 7.98371 126.418 10.0591C125.484 11.6236 124.964 13.402 124.908 15.2251C124.888 16.9095 125.494 18.5409 126.607 19.8028C127.15 20.4847 127.841 21.0335 128.628 21.4075C129.414 21.7815 130.275 21.9708 131.146 21.9612C133.137 21.9612 135.101 21.0283 137.038 19.193C138.959 17.3437 140.447 15.0889 141.392 12.5919C141.761 11.6332 142.132 10.7278 142.505 9.87572C143.338 7.555 144.367 5.31017 145.582 3.16589C145.561 3.14696 145.536 3.1325 145.509 3.12338C145.482 3.11425 145.453 3.11063 145.425 3.11274C145.13 3.11274 143.725 3.40657 141.207 3.96498C138.467 4.57833 137.117 5.00475 137.117 5.24304C137.117 5.43057 137.381 5.80204 137.886 6.35926V6.67937C137.187 6.39995 136.567 5.95219 136.081 5.37563C135.725 4.97947 135.51 4.47485 135.473 3.94229C135.473 3.83479 135.551 3.59589 135.551 3.40896C137.702 3.00882 140.595 2.42414 144.233 1.70627C145.205 1.54913 146.163 1.31773 147.099 1.01409C147.309 0.884239 147.497 0.723131 147.658 0.536309C147.897 0.297419 148.054 0.16364 148.188 0.16364C148.56 0.223989 148.904 0.40134 149.169 0.670087C149.619 0.991991 149.836 1.25656 149.836 1.46977C149.846 1.57398 149.834 1.67913 149.802 1.77869C149.77 1.87824 149.717 1.97008 149.648 2.04848ZM151.962 23.1049C152.896 23.11 153.797 22.7593 154.483 22.1236C154.564 22.0705 155.07 21.4822 156.049 20.3397C156.063 21.0075 156.329 21.645 156.794 22.1236C156.995 22.4045 157.252 22.6398 157.55 22.814C157.847 22.9883 158.178 23.0975 158.521 23.1347C158.918 23.1578 159.74 22.7051 160.989 21.7766C162.343 20.7613 163.14 19.8595 163.43 19.0891C163.459 18.9565 163.43 18.8759 163.325 18.8502C160.724 20.8736 159.131 21.8585 158.573 21.8035C157.963 21.7253 157.696 21.2188 157.778 20.2866C157.974 18.6832 158.365 17.1099 158.943 15.6019C159.346 14.5389 159.712 13.4728 160.087 12.4366C160.192 12.1177 159.637 11.4763 159.105 11.5838C158.68 11.6889 158.309 12.6743 157.963 13.5027C157.947 13.5207 157.926 13.5347 157.903 13.5436C157.88 13.5525 157.855 13.556 157.831 13.554C157.636 13.4262 157.419 13.3359 157.192 13.2877C156.996 13.2033 156.792 13.1408 156.584 13.1013C155.228 13.1013 153.795 14.1387 152.231 16.2445C150.769 18.1873 150.052 19.7055 150.052 20.8223C150.06 21.3478 150.227 21.8586 150.529 22.2879C150.675 22.5379 150.885 22.745 151.136 22.8884C151.388 23.0317 151.672 23.1064 151.962 23.1049ZM157.539 14.641C156.964 16.423 156.023 18.0644 154.776 19.4594C153.501 20.9758 152.573 21.696 151.962 21.5885C151.903 21.4546 151.875 21.3089 151.882 21.1627C151.882 20.1265 152.44 18.7959 153.582 17.1428C154.829 15.3588 155.942 14.4552 156.977 14.4552C157.176 14.4704 157.369 14.534 157.539 14.6404V14.641ZM184.956 26.779C184.956 25.8485 182.673 25.0773 178.108 24.4653C175.523 24.0764 172.916 23.854 170.303 23.7994C169.416 23.8043 168.531 23.8573 167.65 23.9583C167.966 22.8672 168.233 21.9074 168.473 21.1382C169.188 19.0055 169.717 17.5148 170.038 16.6901C170.424 15.7631 170.859 14.8571 171.339 13.9757C171.798 13.1194 172.111 12.1926 172.267 11.2332C172.374 10.4067 172.111 10.2484 171.261 10.0388C170.701 9.92947 170.091 10.8886 169.429 12.8863C168.977 14.4033 168.499 15.894 168.02 17.3852C167.645 18.1323 167.131 18.8011 166.507 19.3561C165.763 20.0727 165.208 20.4448 164.84 20.4179C164.706 20.3104 164.625 20.2053 164.625 20.1265C164.517 19.6408 164.544 19.1345 164.704 18.6633C165.208 17.0138 165.605 15.71 165.895 14.7521C165.827 14.5661 165.705 14.4053 165.544 14.2913C165.383 14.1773 165.191 14.1155 164.994 14.1142C164.595 14.1363 164.171 14.8841 163.666 16.3479C163.283 17.3375 163.05 18.3791 162.976 19.4379C162.998 19.9979 163.124 20.5489 163.348 21.0623C163.694 21.834 164.122 22.2568 164.648 22.2861C165.1 22.3217 165.548 22.1775 165.895 21.8847C166.185 21.6248 166.451 21.3403 166.692 21.0343L165.842 24.1996C162.401 24.7648 159.041 25.7487 155.837 27.1296C153.87 27.9648 152.119 29.2382 150.716 30.8533C149.148 32.6384 148.377 34.4223 148.377 36.1793C148.377 36.3394 148.406 36.687 148.431 37.2448C148.423 37.5684 148.468 37.8912 148.564 38.2003C148.593 38.3347 148.617 38.4942 148.645 38.6524C148.694 38.9172 148.792 39.1704 148.935 39.399C149.813 41.6607 151.591 42.8599 154.246 42.9913C155.57 43.0719 157.056 42.5929 158.731 41.5806C160.934 40.2769 162.766 38.014 164.2 34.8194C165.411 31.7936 166.422 28.6909 167.225 25.5314C168.516 25.3235 169.821 25.2083 171.129 25.1868C172.165 25.1732 173.201 25.2165 174.233 25.3164C176.492 25.5229 178.724 25.9603 180.895 26.6219C180.975 26.6488 181.481 26.8363 182.462 27.2353C182.807 27.3905 183.174 27.4889 183.55 27.5267C183.803 27.5194 184.054 27.4739 184.293 27.3917C184.743 27.2604 184.956 27.0722 184.956 26.779ZM165.419 25.796C163.936 31.2785 162.554 35.0589 161.251 37.1104C159.471 39.9054 157.029 41.3423 153.976 41.371C153.262 41.4344 152.544 41.2834 151.915 40.937C151.287 40.5907 150.774 40.0647 150.444 39.4258C149.906 38.3005 149.686 37.0482 149.809 35.8061C149.841 35.274 149.967 34.7518 150.179 34.2634C151.056 32.3714 152.834 30.5851 155.516 28.9386C156.941 28.134 158.456 27.4996 160.028 27.0483C161.282 26.6452 162.558 26.3163 163.851 26.0635C164.358 25.9817 164.889 25.8742 165.419 25.796ZM174.525 23.1049C175.459 23.109 176.36 22.7584 177.046 22.1236C177.126 22.0705 177.632 21.4822 178.611 20.3397C178.625 21.0068 178.89 21.6441 179.352 22.1236C179.554 22.4039 179.811 22.6387 180.109 22.8128C180.406 22.987 180.737 23.0967 181.079 23.1347C181.478 23.158 182.299 22.7065 183.548 21.7766C184.901 20.7613 185.698 19.8595 185.99 19.0891C186.017 18.9565 185.99 18.8759 185.885 18.8502C183.282 20.8736 181.688 21.8585 181.133 21.8035C180.523 21.7239 180.257 21.2182 180.334 20.2866C180.53 18.6824 180.923 17.1088 181.506 15.6019C181.902 14.5389 182.272 13.4728 182.644 12.4366C182.751 12.1177 182.192 11.4763 181.663 11.5838C181.239 11.6889 180.866 12.6743 180.523 13.5027C180.506 13.521 180.485 13.5351 180.461 13.544C180.438 13.5529 180.412 13.5563 180.387 13.554C180.194 13.4269 179.978 13.3366 179.752 13.2877C179.556 13.2026 179.351 13.1401 179.141 13.1013C177.785 13.1013 176.354 14.1387 174.788 16.2445C173.329 18.1873 172.613 19.7055 172.613 20.8223C172.62 21.3479 172.786 21.8588 173.089 22.2879C173.236 22.5384 173.446 22.7458 173.698 22.8892C173.95 23.0326 174.235 23.107 174.525 23.1049ZM180.101 14.6404C179.525 16.4226 178.584 18.064 177.337 19.4588C176.065 20.9752 175.134 21.6954 174.525 21.5879C174.465 21.4543 174.437 21.3084 174.445 21.1621C174.445 20.1259 175.002 18.7953 176.145 17.1422C177.39 15.3582 178.505 14.4546 179.539 14.4546C179.739 14.4706 179.931 14.5343 180.101 14.6404ZM153.197 28.0929C152.006 27.931 150.359 28.1013 148.457 26.6918C147.112 25.2891 145.995 23.6841 145.145 21.9349C144.031 19.7217 143.442 17.2803 143.423 14.801V11.8197C143.954 11.5808 144.669 11.2338 145.6 10.7524L152.449 6.20279C154.917 4.5049 157.087 2.40897 158.873 0L159.667 0.398349C159.81 0.453498 159.935 0.547324 160.029 0.669469C160.123 0.791615 160.181 0.937331 160.197 1.09053C160.078 1.66549 159.78 2.18796 159.347 2.5836C157.325 4.81518 155.055 6.80734 152.581 8.52121C151.731 9.10888 149.287 10.6772 145.225 13.259C145.128 13.6331 145.084 14.0192 145.096 14.4057C145.106 15.1829 145.186 15.9576 145.334 16.7205C145.388 17.6319 145.548 18.5339 145.811 19.408C145.965 20.1149 146.197 20.8025 146.502 21.4583C147.461 23.4356 148.816 25.1935 150.482 26.6225C151.295 27.2675 152.214 27.7651 153.197 28.0929Z" fill="white"/>
</svg>
