<svg width="35" height="84" viewBox="0 0 35 84" fill="none" xmlns="http://www.w3.org/2000/svg">
<g opacity="0.4">
<path d="M24.4791 14.1043C21.7662 13.2329 18.7407 13.9336 18.4913 13.992L14.8519 42.0098C14.8522 42.0315 14.5891 51.5699 13.7643 56.5459C13.2085 59.9504 10.9994 62.0422 9.32825 63.7338C8.49257 64.5742 7.80785 65.3251 7.49275 66.0484C7.18853 66.7715 7.22111 67.4567 7.86663 68.3607C9.1796 70.1794 11.4083 70.7102 13.3466 70.7775C15.1325 70.8364 16.4989 70.521 16.7267 70.4739L20.3659 42.4452C20.3656 42.4234 20.6287 32.8851 21.4535 27.9091C22.0202 24.5044 24.2184 22.4127 25.8896 20.7211C26.7252 19.8808 27.41 19.1299 27.7142 18.4068C28.0184 17.6836 27.9858 16.9985 27.3294 16.0946C26.6058 15.072 25.5839 14.4569 24.4791 14.1043Z" stroke="#D0542D" stroke-miterlimit="10"/>
<path d="M16.9211 14.4956C15.893 14.871 10.3573 17.2004 8.68851 24.5624C8.25067 26.4739 7.62099 31.4033 7.62099 31.4033L5.39839 48.5041C6.42642 48.1288 11.9622 45.7994 13.6311 38.4483C14.0688 36.5258 14.6985 31.5964 14.6985 31.5964L16.9211 14.4956Z" stroke="#D0542D" stroke-miterlimit="10"/>
<path d="M29.9084 36.0691C28.8803 36.4445 23.3446 38.7739 21.6758 46.1359C21.2379 48.0475 20.6083 52.9769 20.6083 52.9769L18.3857 70.0777C19.4137 69.7023 24.9494 67.3729 26.6184 60.0218C27.0562 58.1102 27.6859 53.1808 27.6859 53.1808L29.9084 36.0691Z" stroke="#D0542D" stroke-miterlimit="10"/>
<path d="M30.493 33.807C32.3856 32.3514 33.5057 30.2222 33.4709 28.0134C33.4671 27.774 33.4524 27.5348 33.4162 27.3068C33.0596 24.7112 30.8756 22.8736 28.5407 23.1935C26.1948 23.5134 24.5885 25.8679 24.9342 28.4637C24.9713 28.7461 25.0302 29.0281 25.1219 29.3205C25.6747 31.2491 27.0932 32.8593 29.0027 33.8523L29.8695 34.2957L30.493 33.807Z" stroke="#D0542D" stroke-miterlimit="10"/>
<path d="M4.84446 50.6461C2.95188 52.1017 1.83179 54.2308 1.86663 56.4397C1.87041 56.6791 1.88507 56.9183 1.92132 57.1463C2.27789 59.7419 4.46187 61.5794 6.79683 61.2596C9.14268 60.9396 10.749 58.5852 10.4033 55.9894C10.3662 55.707 10.3073 55.425 10.2156 55.1325C9.66278 53.204 8.24426 51.5938 6.33482 50.6008L5.468 50.1574L4.84446 50.6461Z" stroke="#D0542D" stroke-miterlimit="10"/>
<path d="M19.0024 11.8942C20.895 10.4386 22.015 8.30947 21.9802 6.10061C21.9764 5.86123 21.9618 5.62202 21.9255 5.39403C21.5798 2.79827 19.3958 0.960713 17.05 1.2807C14.7042 1.60068 13.0979 3.95515 13.4435 6.55092C13.4807 6.83331 13.5395 7.11536 13.6312 7.40777C14.1841 9.33636 15.6026 10.9465 17.512 11.9395L18.3788 12.3829L19.0024 11.8942Z" stroke="#D0542D" stroke-miterlimit="10"/>
<path d="M17.8585 72.5348C15.9659 73.9905 14.8458 76.1196 14.8806 78.3284C14.8844 78.5678 14.8991 78.807 14.9353 79.035C15.2919 81.6306 17.4759 83.4682 19.8108 83.1484C22.1567 82.8284 23.763 80.4739 23.4173 77.8781C23.3802 77.5957 23.3213 77.3137 23.2296 77.0213C22.6768 75.0927 21.2583 73.4825 19.3488 72.4896L18.482 72.0461L17.8585 72.5348Z" stroke="#D0542D" stroke-miterlimit="10"/>
</g>
</svg>
