<svg width="116" height="68" viewBox="0 0 116 68" fill="none" xmlns="http://www.w3.org/2000/svg">
<g opacity="0.2">
<g clip-path="url(#clip0)">
<path d="M67.133 66.9451C68.1302 66.4826 69.0696 65.8756 69.9512 65.2108C70.8329 64.5459 71.6856 63.7944 72.4516 63.0717L73.1742 62.3925C74.4605 61.1784 75.6022 60.1089 76.9608 59.3863C77.7702 58.9527 78.6373 58.6637 79.5334 58.4469C80.415 58.2445 81.3111 58.1289 82.1927 58.0567C82.6841 58.0133 83.2044 57.9844 83.7391 57.9555C84.9242 57.8977 86.1094 57.8254 87.28 57.5942C88.1327 57.4207 88.9855 57.1606 89.8382 56.7848C90.6331 56.438 91.428 56.0044 92.1795 55.4696C92.931 54.9349 93.6537 54.299 94.2029 53.7208C94.5353 53.374 94.8099 53.056 94.9978 52.8103H94.6943C94.3474 52.8103 93.9283 52.8103 93.4947 52.7814C92.6709 52.7236 91.7459 52.5357 90.8065 52.1889C89.9971 51.8998 89.1733 51.4807 88.4073 50.9315C87.0488 49.9631 85.907 48.5901 84.7508 47.2316L84.0426 46.3933C83.3778 45.6129 82.6985 44.8758 81.9903 44.211C81.2966 43.5606 80.5595 42.968 79.7502 42.4911C78.9986 42.0431 78.1604 41.6673 77.3077 41.3927C76.3538 41.0747 75.371 40.8579 74.4027 40.7279C73.6656 40.6267 72.9429 40.5689 72.2492 40.5111C71.0641 40.4099 69.9079 40.3232 68.795 40.0341C67.8845 39.8029 67.0173 39.4271 66.1502 38.8924C65.2975 38.3721 64.4448 37.6928 63.5198 36.8112C62.826 36.1608 62.0745 35.3804 61.2941 34.571C60.0945 33.3136 58.8082 31.984 57.5074 30.9C56.4524 30.0184 55.3684 29.2813 54.2845 28.7321C53.2439 28.2118 52.1744 27.836 51.1049 27.6482C50.0499 27.4603 48.9948 27.4603 47.9398 27.5903C46.798 27.7349 45.6418 28.0384 44.5289 28.472C42.4622 29.2669 40.4243 30.5242 38.4732 31.7238L38.083 31.9695C37.028 32.6199 35.9874 33.2414 34.9901 33.7906C33.964 34.3398 32.9378 34.8167 31.9262 35.178C30.9578 35.5104 29.9895 35.7272 29.0212 35.8717C28.4575 35.9585 27.9083 36.0307 27.3735 36.0741C27.6192 36.4932 27.836 36.9268 28.0095 37.3604C28.154 37.7361 28.2696 38.1119 28.3563 38.5021C28.3852 38.6467 28.4141 38.8056 28.443 38.9502C28.443 38.9791 28.4575 39.0224 28.4575 39.0513C28.4864 39.2392 28.5009 39.4127 28.5153 39.6005C28.5153 39.6439 28.5153 39.6873 28.5298 39.7306C28.5442 39.8751 28.5442 40.0197 28.5442 40.1642C28.5442 40.222 28.5442 40.2654 28.5442 40.3232C28.5442 40.4966 28.5298 40.6845 28.5153 40.8579C28.4575 41.4939 28.313 42.0864 28.0962 42.6645C28.0239 42.8524 27.9517 43.0547 27.8649 43.2282C27.8505 43.2571 27.836 43.2715 27.836 43.3004C27.7493 43.4883 27.6482 43.6907 27.547 43.8641C27.4314 44.052 27.3157 44.2399 27.1857 44.4278C27.1423 44.4856 27.0989 44.5434 27.07 44.6012C26.9833 44.7313 26.8822 44.8469 26.781 44.9625C26.5786 45.2082 26.3619 45.4394 26.1306 45.6562C26.3185 45.6129 26.5497 45.6129 26.8677 45.6273C27.0989 45.6273 27.388 45.6418 27.6771 45.6273C27.6915 45.6273 27.6915 45.6273 27.706 45.6273C27.7782 45.6273 27.8505 45.6129 27.9228 45.6129C27.9806 45.6129 28.0384 45.6129 28.1106 45.5984C28.1974 45.5984 28.2985 45.584 28.3852 45.5695C28.443 45.5695 28.5009 45.5551 28.5587 45.5551C28.6598 45.5406 28.7755 45.5262 28.8911 45.5117C28.9489 45.5117 28.9923 45.4973 29.0501 45.4973C29.2235 45.4828 29.3969 45.4539 29.5704 45.425C30.2352 45.3238 30.9723 45.1793 31.7527 44.9914C32.5621 44.7891 33.4003 44.5434 34.2386 44.2543C35.019 43.9797 35.785 43.6618 36.5366 43.3004C37.2014 42.9825 37.8518 42.6212 38.5166 42.2598C39.456 41.7395 40.3954 41.2193 41.4216 40.7857C42.3032 40.3954 43.2426 40.0775 44.1965 39.8173C45.1648 39.5572 46.1476 39.3549 47.087 39.2392C48.012 39.1236 48.9225 39.0803 49.7897 39.1236H49.8475C50.7147 39.167 51.5529 39.297 52.3478 39.4994C53.1572 39.7162 53.9232 40.0197 54.6458 40.4099C55.3829 40.8001 56.0766 41.2626 56.7704 41.8118C57.2762 42.202 57.7965 42.6645 58.3168 43.127C59.1551 43.8641 60.0367 44.6301 61.0339 45.3094C61.8288 45.8441 62.7104 46.3355 63.5776 46.7402C64.4592 47.1449 65.3408 47.4628 66.1502 47.6507C67.0029 47.853 67.7689 47.9253 68.4771 47.9831C69.1419 48.0409 69.7634 48.0987 70.3848 48.2433C70.9918 48.3878 71.6133 48.6046 72.1769 48.8647C72.8996 49.1971 73.5644 49.5729 74.0847 49.9053C74.446 50.1366 74.7495 50.3389 74.9952 50.5413C75.1831 50.7002 75.3421 50.8448 75.4577 50.9893L75.5011 51.0471C75.7323 51.3651 75.7757 51.683 75.6022 52.001L75.5733 52.0443L75.5155 52.131C75.2265 52.4779 74.7206 52.5213 74.0558 52.5791C73.7668 52.608 73.4488 52.6224 73.1164 52.6802C72.6539 52.7525 72.148 52.8681 71.6422 53.0416C71.1797 53.2005 70.7172 53.4029 70.2403 53.663C69.8067 53.9087 69.3731 54.1833 68.954 54.4724C68.7661 54.6025 68.5638 54.7325 68.3759 54.8482C67.9423 55.1228 67.5087 55.3829 67.0896 55.5708C66.2224 55.9466 65.4564 56.0188 64.7049 56.0188C64.7049 56.5825 64.6182 57.0883 64.4592 57.5508C64.2424 58.1723 63.91 58.707 63.462 59.1117C62.9995 59.5164 62.4503 59.791 61.7999 59.9066C61.7132 59.9211 61.6409 59.9355 61.5542 59.9355C61.5253 59.9355 61.4964 59.9355 61.4675 59.9355C61.4097 59.9355 61.3519 59.95 61.2941 59.95C61.2652 59.95 61.2218 59.95 61.1929 59.95C61.1351 59.95 61.0917 59.95 61.0339 59.95C60.9906 59.95 60.9616 59.95 60.9183 59.9355C60.8605 59.9355 60.8171 59.9355 60.7593 59.9211C60.398 59.8922 60.0222 59.8054 59.632 59.6754C59.5886 59.6609 59.5597 59.6465 59.5164 59.6176C59.5019 59.6176 59.4875 59.6031 59.4875 59.5886C59.4586 59.5742 59.4441 59.5597 59.4152 59.5453C59.4008 59.5308 59.3863 59.5308 59.3863 59.5164C59.3718 59.5019 59.3574 59.4875 59.3285 59.4586C59.314 59.4441 59.314 59.4297 59.2996 59.4152C59.184 59.2418 59.1406 59.025 59.2129 58.8227C59.3285 58.4758 59.7043 58.2879 60.0656 58.4035C60.1957 58.4469 60.3257 58.4758 60.4414 58.5047C60.4847 58.5191 60.5136 58.5191 60.557 58.5336C60.6437 58.5481 60.7304 58.5625 60.8171 58.577C60.8605 58.577 60.9038 58.5914 60.9327 58.5914C61.0195 58.5914 61.0917 58.6059 61.1784 58.6059C61.2073 58.6059 61.2362 58.6059 61.2796 58.6059C61.2941 58.6059 61.3085 58.6059 61.323 58.6059H61.3085C61.4097 58.6059 61.5109 58.5914 61.5976 58.577C61.9878 58.5047 62.3202 58.3457 62.5804 58.1145C62.855 57.8688 63.0717 57.5364 63.2018 57.1317C63.3897 56.568 63.4331 55.8888 63.303 55.0939C63.2741 54.9349 63.2307 54.7759 63.1874 54.6458C62.8983 53.8365 62.2335 53.3306 61.4386 53.056C60.5859 52.767 59.5886 52.7381 58.7648 52.8681C58.5047 52.9115 58.259 52.9693 58.0422 53.056C52.9548 54.8482 53.0994 58.8227 54.0966 61.6265C54.4001 62.4792 54.7759 63.2307 55.1083 63.7799C55.7298 64.8205 57.2762 66.1791 58.2301 66.7427C59.0972 67.2486 60.0511 67.5954 61.0484 67.7833C62.0456 67.9568 63.0717 67.9712 64.1123 67.8411C65.1096 67.6966 66.1502 67.3931 67.133 66.9451Z" stroke="#296EBB" stroke-miterlimit="10"/>
<path d="M53.6917 64.0833C53.6195 63.9533 53.5472 63.8232 53.475 63.6787C53.475 63.6642 53.4605 63.6642 53.4605 63.6497C53.3882 63.5197 53.3304 63.3751 53.2582 63.2306C53.2437 63.2017 53.2293 63.1728 53.2148 63.1439C53.1425 62.9994 53.0847 62.8404 53.0125 62.6814C52.998 62.6525 52.9836 62.6236 52.9691 62.5802C52.8968 62.4068 52.839 62.2478 52.7668 62.0599C52.5211 61.3807 52.3332 60.6291 52.2176 59.8631C52.2176 59.8342 52.2031 59.7909 52.2031 59.762C52.1742 59.5885 52.1598 59.4151 52.1453 59.2417C52.1453 59.2128 52.1453 59.1983 52.1453 59.1694C52.1308 59.0104 52.1309 58.837 52.1309 58.678C52.1309 58.6491 52.1309 58.6202 52.1309 58.5913C52.1309 58.4179 52.1308 58.2444 52.1453 58.071C52.1453 58.0276 52.1453 57.9987 52.1598 57.9554C52.1742 57.7819 52.1887 57.5941 52.2176 57.4206L51.8129 57.4495C51.3649 57.464 50.8879 57.464 50.3821 57.3773C49.8618 57.305 49.3126 57.1605 48.7634 56.9437C48.2431 56.7414 47.7083 56.4957 47.188 56.1632C46.5232 55.7586 45.8728 55.2527 45.1357 54.6746C44.76 54.3856 44.3553 54.0676 43.8494 53.6918C43.1991 53.2149 42.462 52.6946 41.696 52.2321C40.9445 51.7841 40.1785 51.3938 39.4269 51.1482C38.7043 50.9025 37.9961 50.8157 37.3168 50.7868C36.6086 50.7579 35.9149 50.8013 35.2501 50.8446L35.0188 50.8591C33.6603 50.9603 32.3884 51.0614 31.1311 50.7146C30.4662 50.5267 29.8159 50.2232 29.2089 49.8619C28.6018 49.5005 28.0671 49.1103 27.5757 48.7346C27.0554 48.3299 26.5929 47.9541 26.246 47.6217C25.8703 47.2748 25.6101 46.9569 25.5234 46.7256C25.4511 46.5377 25.4222 46.3643 25.4511 46.2198L25.3355 46.3065C24.5406 46.8846 23.6879 47.2604 22.8352 47.4483C21.9247 47.6506 21.0286 47.6361 20.2337 47.4194C19.4677 47.2026 18.8174 46.8123 18.2826 46.3065C17.7189 45.7573 17.2854 45.0925 17.0108 44.3698C16.7506 43.6761 16.6494 42.939 16.6784 42.2742C16.7073 41.5516 16.8951 40.8867 17.242 40.3953C17.6033 39.875 18.0803 39.5715 18.6439 39.3692C18.774 39.3258 18.8896 39.2825 19.0197 39.2536C19.063 39.2391 19.1064 39.2391 19.1498 39.2247C19.2365 39.2102 19.3087 39.1813 19.3955 39.1669C19.4533 39.1524 19.4966 39.1379 19.5544 39.1379C19.6267 39.1235 19.699 39.109 19.7712 39.0946C19.8435 39.0801 19.9013 39.0657 19.9736 39.0657C20.0458 39.0512 20.1181 39.0368 20.1759 39.0368C20.5372 38.979 20.8841 39.2247 20.9419 39.586C20.9997 39.9473 20.754 40.2942 20.3927 40.352C20.2915 40.3664 20.1759 40.3809 20.0747 40.4098C20.0458 40.4098 20.0025 40.4242 19.9736 40.4242C19.9013 40.4387 19.829 40.4531 19.7568 40.4676C19.7134 40.4821 19.6701 40.4821 19.6267 40.4965C19.5689 40.511 19.5111 40.5254 19.4388 40.5399C19.3955 40.5543 19.3521 40.5543 19.3232 40.5688C19.2943 40.5688 19.2654 40.5832 19.2509 40.5832H19.2654C19.2076 40.5977 19.1353 40.6121 19.0775 40.641C18.9908 40.6699 18.9185 40.6988 18.8318 40.7422C18.8029 40.7567 18.7884 40.7711 18.7595 40.7856C18.7162 40.8145 18.6584 40.8434 18.615 40.8723C18.6006 40.8723 18.6006 40.8867 18.5861 40.8867H18.6006C18.4849 40.9734 18.3838 41.0602 18.3115 41.1758C18.1236 41.4648 18.008 41.884 17.9791 42.3609C17.9502 42.8668 18.0369 43.416 18.2248 43.9362C18.4271 44.471 18.7451 44.9768 19.1642 45.3815C19.5544 45.7428 20.0169 46.0319 20.5517 46.1764C21.1298 46.3354 21.8091 46.3499 22.5028 46.1909C23.1821 46.0463 23.8613 45.7284 24.5117 45.2659C25.2055 44.7601 25.8414 44.0663 26.3039 43.2425C26.7374 42.491 27.0265 41.6527 27.1132 40.7711C27.1999 39.8172 27.0554 38.82 26.6941 37.8806C26.4339 37.2157 26.0726 36.5654 25.6101 36.0162L25.5523 35.9584C25.3933 35.7705 25.2344 35.597 25.0609 35.4381C24.3238 34.7588 23.4133 34.2529 22.3727 33.935C21.3032 33.617 20.1181 33.4869 18.8752 33.5881C17.083 33.7182 15.1175 34.3107 13.2097 34.8889C12.3714 35.1345 11.5332 35.3947 10.7094 35.597C9.30747 35.9584 7.96337 36.2041 6.76379 36.2908C5.59312 36.3775 4.53808 36.3341 3.64201 36.1318C2.58696 35.8861 1.82097 35.4236 1.22841 35.0623C0.881541 34.8599 0.606939 34.6865 0.462412 34.6576H0.433507C0.404601 34.6576 0.375696 34.701 0.332338 34.7588C0.216716 34.9322 0.144453 35.2213 0.101094 35.597C0.072189 35.8138 0.0721891 36.0595 0.0866418 36.3197C0.115547 37.0857 0.28898 38.0395 0.621392 38.9934C0.895993 39.7883 1.27176 40.5688 1.77761 41.2047C2.77485 42.4765 4.29238 43.2425 5.88218 44.0519L6.30131 44.2542C7.22628 44.7167 8.16571 45.2225 9.06177 45.7862C9.95784 46.3643 10.8106 47.0147 11.5476 47.8096C12.5304 48.8646 13.2386 50.0931 13.9901 51.3794C14.3226 51.9575 14.655 52.5356 15.0452 53.1426C15.6667 54.111 16.3893 55.0793 17.1842 55.9175C17.8635 56.6257 18.5861 57.2472 19.3666 57.7241C20.2048 58.23 21.1153 58.5624 22.0692 58.7792C23.052 58.996 24.107 59.1116 25.191 59.1694C25.8703 59.1983 26.6074 59.2128 27.3445 59.2272C28.9632 59.2561 30.5819 59.285 32.0849 59.5452C33.1978 59.7331 34.2384 60.051 35.2067 60.4412C36.1606 60.8315 37.0422 61.294 37.8371 61.7709C38.9211 62.4213 39.846 63.115 40.7855 63.8232C41.2046 64.1267 41.6237 64.4446 42.144 64.8204C42.8667 65.3263 43.6327 65.8466 44.4276 66.2801C45.2225 66.7137 46.0318 67.075 46.8701 67.2774C47.6794 67.4797 48.5177 67.5664 49.3559 67.5231C50.2375 67.4797 51.1192 67.3063 51.9719 67.0317C52.5933 66.8293 53.2004 66.5692 53.7929 66.2801C54.1398 66.1067 54.4866 65.9188 54.8335 65.7165C54.6023 65.5141 54.2699 65.0806 53.923 64.5025C53.8363 64.3579 53.764 64.2279 53.6917 64.0833Z" stroke="#296EBB" stroke-miterlimit="10"/>
<path d="M29.8594 48.7346C30.3653 49.0381 30.9 49.2982 31.4492 49.4427C32.4898 49.7318 33.6605 49.6451 34.8889 49.5439L35.1202 49.5295C35.8428 49.4716 36.5799 49.4283 37.3459 49.4572C38.1408 49.4861 38.9646 49.6162 39.8173 49.8908C40.6556 50.1654 41.5227 50.599 42.3465 51.0904C43.1559 51.5673 43.9363 52.1165 44.6156 52.6223C45.0492 52.9403 45.5117 53.3016 45.9308 53.634C46.639 54.1832 47.246 54.6602 47.8675 55.0359C48.3155 55.3105 48.778 55.5273 49.226 55.7008C49.6885 55.8742 50.1366 55.9898 50.5701 56.0621C50.9748 56.1199 51.365 56.1343 51.7553 56.1199C52.0443 56.1054 52.3189 56.0765 52.5935 56.0476C52.7525 55.6285 52.9693 55.2238 53.2439 54.8336C53.2583 54.8047 53.2872 54.7758 53.3017 54.7469C53.3451 54.6891 53.3884 54.6168 53.4462 54.559C53.4751 54.5301 53.4896 54.5012 53.5185 54.4723C53.5763 54.4 53.6341 54.3278 53.6919 54.2699C53.7064 54.2555 53.7208 54.2266 53.7353 54.2121C53.8075 54.1254 53.8943 54.0387 53.9665 53.9664C53.9954 53.9375 54.0099 53.9231 54.0388 53.8942C54.0966 53.8364 54.1689 53.7641 54.2267 53.7063C54.2556 53.6774 54.2845 53.6485 54.3134 53.6196C54.3712 53.5618 54.4435 53.504 54.5157 53.4461C54.5591 53.4028 54.6169 53.3739 54.6603 53.3305C54.7181 53.2872 54.7759 53.2438 54.8337 53.2004C54.8915 53.1571 54.9349 53.1282 54.9927 53.0848C55.0505 53.0415 55.1227 52.9981 55.195 52.9547C55.2528 52.9258 55.3106 52.8825 55.354 52.8536C55.4262 52.8102 55.4985 52.7669 55.5708 52.7235C55.6286 52.6946 55.6864 52.6512 55.7442 52.6223C55.8165 52.579 55.9032 52.5356 55.9754 52.4923C56.0188 52.4778 56.0477 52.4489 56.0911 52.4345C56.1344 52.42 56.1633 52.3911 56.2067 52.3766C56.279 52.3477 56.3512 52.3044 56.4235 52.2755C56.4524 52.261 56.4813 52.2466 56.5102 52.2321C56.5536 52.2177 56.5825 52.2032 56.6258 52.1743C56.6403 52.1743 56.6403 52.1743 56.6547 52.1599C56.7414 52.1165 56.8282 52.0876 56.9149 52.0442C56.9293 52.0442 56.9438 52.0298 56.9582 52.0298C56.9727 52.0153 57.0016 52.0153 57.016 52.0009C57.0449 51.9864 57.0594 51.9864 57.0883 51.972C57.2328 51.9142 57.3918 51.8563 57.5508 51.7985C57.8398 51.6974 58.1578 51.6107 58.4902 51.5528C58.6058 51.5384 58.7359 51.5095 58.866 51.495C58.9093 51.495 58.9527 51.495 58.9961 51.4806C59.0828 51.4661 59.1695 51.4661 59.2562 51.4661C59.314 51.4661 59.3574 51.4661 59.4152 51.4661C59.5019 51.4661 59.5742 51.4661 59.6609 51.4661C59.7187 51.4661 59.7765 51.4661 59.8343 51.4661C60.4991 51.4806 61.1929 51.5817 61.8288 51.7985C61.9589 51.8419 62.0889 51.8997 62.219 51.9575C62.2479 51.972 62.2768 51.9864 62.3202 52.0009C62.3491 52.0153 62.3635 52.0298 62.3925 52.0298C62.4792 52.0731 62.5514 52.102 62.6237 52.1454C62.6526 52.1598 62.6815 52.1743 62.696 52.1888C62.7827 52.2466 62.8838 52.3044 62.9706 52.3622C62.9995 52.3766 63.0284 52.3911 63.0428 52.4055C63.1584 52.4778 63.2596 52.5645 63.3608 52.6512C63.3897 52.6801 63.4041 52.6946 63.433 52.7235C63.5053 52.7958 63.5776 52.868 63.6498 52.9403C63.6787 52.9692 63.7076 53.0126 63.7366 53.0415C63.7944 53.1137 63.8666 53.2004 63.9244 53.2727C63.9533 53.3016 63.9678 53.345 63.9967 53.3739C64.1557 53.6196 64.3002 53.8942 64.4014 54.1977C64.4592 54.3567 64.5025 54.5156 64.5459 54.6891C65.1963 54.6891 65.8611 54.6457 66.5404 54.3567C67.0462 54.1399 67.6243 53.7641 68.2024 53.3739C68.6505 53.0704 69.113 52.7669 69.5754 52.5067C70.1102 52.2032 70.6594 51.972 71.1942 51.7841C71.7867 51.5817 72.3648 51.4517 72.8996 51.3794C73.1742 51.336 73.4488 51.3071 73.6945 51.2927L73.3476 51.0614C72.8562 50.7435 72.2492 50.3966 71.5988 50.1076C71.1074 49.8908 70.5727 49.6884 70.0524 49.5728C69.4887 49.4427 68.9251 49.3994 68.3181 49.3416C67.5376 49.2693 66.7138 49.197 65.7888 48.9658C64.9217 48.749 63.9533 48.4021 62.985 47.9686C62.0456 47.535 61.0917 47.0147 60.239 46.4366C59.1695 45.7139 58.259 44.9046 57.3918 44.153C56.886 43.705 56.3946 43.2859 55.8887 42.8812C55.2528 42.3754 54.6169 41.9562 53.9665 41.6094C53.3161 41.2625 52.6513 41.0024 51.9431 40.8145C51.2494 40.6266 50.4979 40.5254 49.7174 40.4821H49.6596C48.8792 40.4532 48.0409 40.4821 47.1882 40.5832C46.3066 40.6988 45.3816 40.8723 44.4855 41.118C43.6039 41.3637 42.7223 41.6672 41.8985 42.0285C40.9157 42.4476 40.0052 42.9535 39.0947 43.4593C38.4154 43.8351 37.7506 44.1964 37.0424 44.5433C36.233 44.9335 35.4237 45.2659 34.6143 45.555C33.7327 45.8585 32.8511 46.1186 31.9984 46.3354C31.218 46.5233 30.4375 46.6678 29.7149 46.7834C28.9344 46.8991 28.2262 46.9713 27.6626 46.9858H27.5181C27.7638 47.2026 28.0528 47.4338 28.3708 47.6795C28.8333 48.0553 29.3536 48.4311 29.8594 48.7346Z" stroke="#296EBB" stroke-miterlimit="10"/>
<path d="M62.1322 1.99452C62.1755 2.05233 62.2189 2.09568 62.2767 2.1535C62.3201 2.19685 62.349 2.24021 62.3923 2.28357C62.4357 2.34138 62.479 2.38474 62.5224 2.44255C62.5513 2.48591 62.5947 2.52927 62.6236 2.58708C62.6669 2.64489 62.6958 2.7027 62.7392 2.74606C62.7681 2.78941 62.797 2.84723 62.8259 2.89058C62.8548 2.94839 62.8982 3.00621 62.9271 3.06402C62.956 3.10737 62.9849 3.16519 62.9993 3.20854C63.0282 3.26635 63.0572 3.32416 63.0861 3.38198C63.115 3.42533 63.1294 3.48314 63.1583 3.5265C63.1872 3.58431 63.2161 3.64212 63.2306 3.69994C63.245 3.74329 63.2739 3.8011 63.2884 3.84446C63.3028 3.90227 63.3318 3.94563 63.3462 4.00344C63.3607 4.03235 63.3607 4.06125 63.3751 4.09016C63.3896 4.11906 63.3896 4.13352 63.404 4.16242C63.4185 4.19133 63.4185 4.22023 63.4329 4.24914C63.4618 4.37921 63.5052 4.49483 63.5196 4.62491V4.63936C63.5196 4.66827 63.5341 4.69717 63.5341 4.72608C63.563 4.85615 63.5775 4.98623 63.5919 5.1163C63.5919 5.14521 63.5919 5.17411 63.6064 5.21747C63.6064 5.23192 63.6064 5.24638 63.6064 5.26083C63.6208 5.37645 63.6208 5.49207 63.6208 5.60769C63.6208 5.6366 63.6208 5.67996 63.6208 5.72331V5.73777C63.6208 5.86784 63.6208 5.99792 63.6064 6.11354C63.6064 6.1569 63.6064 6.1858 63.5919 6.22916C63.5919 6.22916 63.5919 6.22916 63.5919 6.24361C63.5775 6.37369 63.563 6.48931 63.5485 6.61938C63.5485 6.66274 63.5341 6.7061 63.5196 6.735C63.4907 6.85063 63.4618 6.9807 63.4329 7.09632C63.4185 7.12523 63.4185 7.16859 63.404 7.19749C63.3607 7.32757 63.3173 7.45764 63.2739 7.58771C63.2595 7.63107 63.245 7.65998 63.2306 7.68888C63.1872 7.8045 63.1439 7.90567 63.0861 8.0213C63.0716 8.0502 63.0572 8.07911 63.0427 8.09356L63.0282 8.12246C62.9704 8.25254 62.8982 8.36816 62.8259 8.49823C62.8115 8.52714 62.797 8.55605 62.7826 8.5705C62.7103 8.67167 62.6525 8.77284 62.5658 8.88846C62.5369 8.91736 62.5224 8.96072 62.4935 8.98963C62.4068 9.10525 62.3201 9.20642 62.2333 9.30759L62.2189 9.32204C62.2044 9.35094 62.1755 9.3654 62.1611 9.37985C62.0744 9.48102 61.9732 9.56774 61.872 9.6689C61.8431 9.69781 61.8142 9.72671 61.7853 9.75562C61.6986 9.84234 61.5974 9.9146 61.4963 10.0013C61.4818 10.0158 61.4674 10.0302 61.4529 10.0447C61.4385 10.0591 61.4095 10.0736 61.3951 10.088C61.2795 10.1747 61.1638 10.247 61.0482 10.3337C61.0338 10.3482 61.0193 10.3482 61.0049 10.3626C60.9904 10.3771 60.9615 10.3915 60.9471 10.3915C60.8314 10.4638 60.7158 10.5216 60.6002 10.5939C60.5568 10.6083 60.5279 10.6372 60.4846 10.6517C60.4846 10.6517 60.4846 10.6517 60.4701 10.6517C60.3256 10.724 60.1666 10.7962 60.0076 10.854C56.6691 12.1837 53.5328 9.77007 54.5011 6.61938C54.5301 6.50376 54.5734 6.38814 54.6168 6.28697C54.6312 6.25806 54.6457 6.22916 54.6601 6.20025C54.689 6.12799 54.7324 6.04127 54.7757 5.96901C55.5417 4.58155 57.1894 3.93118 58.8514 5.04404C58.9092 5.07294 58.9381 5.1163 58.9815 5.15966C58.9959 5.17411 58.9959 5.18856 59.0104 5.20302C59.0393 5.23192 59.0538 5.26083 59.0682 5.28973C59.0827 5.30419 59.0827 5.31864 59.0971 5.33309C59.1116 5.362 59.126 5.40535 59.126 5.43426C59.126 5.44871 59.126 5.46317 59.1405 5.46317C59.1549 5.50652 59.1549 5.56433 59.1549 5.60769C59.1549 5.62215 59.1549 5.62215 59.1549 5.6366C59.1549 5.67996 59.1405 5.70886 59.1405 5.75222C59.1405 5.76667 59.126 5.78113 59.126 5.79558C59.1116 5.82448 59.0971 5.86784 59.0827 5.89675C59.0827 5.9112 59.0682 5.92565 59.0682 5.9401C59.0248 6.02682 58.9526 6.09908 58.8803 6.1569C58.6924 6.30142 58.4178 6.34478 58.1288 6.17135C58.071 6.12799 57.9987 6.09908 57.9409 6.07018C57.9264 6.07018 57.912 6.05573 57.912 6.05573C57.8542 6.02682 57.7964 5.99792 57.7386 5.96901C57.2038 5.73777 56.7558 5.75222 56.2644 6.24361C55.3105 7.19749 55.3683 9.59664 57.7675 9.87124C60.7158 10.2181 64.0255 6.47486 61.3373 3.12183C59.603 0.968373 56.5534 0.852751 54.2121 2.26912C51.6106 3.84446 50.1509 6.64829 47.1736 7.2264C45.1069 7.63107 44.2397 7.18304 41.5949 8.62831C38.8055 10.1458 38.3719 11.4899 36.6954 12.6895C35.3947 13.6145 33.9205 14.0047 32.4174 13.9903C32.3596 13.9903 31.8393 13.311 32.3162 14.5684C33.2123 16.9242 35.8716 18.2394 38.3864 18.4706C42.9534 18.8897 44.4854 16.6351 51.4661 19.9448C55.6574 21.9393 59.0537 22.6619 63.3462 20.335C64.3579 19.7858 65.0661 19.2221 65.8321 18.4995C65.5719 18.1526 65.3407 17.748 65.1528 17.3144C65.1239 17.2566 65.1094 17.1988 65.0805 17.141C65.0661 17.0976 65.0372 17.0398 65.0227 16.9964C64.9938 16.9386 64.9794 16.8808 64.9649 16.8085C64.9505 16.7507 64.936 16.7074 64.9216 16.6496C64.9071 16.5918 64.8782 16.5195 64.8637 16.4617C64.8493 16.4039 64.8348 16.3605 64.8204 16.3027C64.8059 16.2449 64.7915 16.1726 64.777 16.1148C64.7626 16.057 64.7481 15.9992 64.7481 15.9558C64.7337 15.898 64.7192 15.8258 64.7192 15.7679C64.7192 15.739 64.7192 15.7246 64.7048 15.6957C64.7048 15.6523 64.6903 15.6234 64.6903 15.5801C64.6759 15.5367 64.6759 15.4789 64.6759 15.4355C64.6759 15.3922 64.6614 15.3488 64.6614 15.291C64.6614 15.2621 64.6614 15.2332 64.6469 15.2043C64.6469 15.1754 64.6325 15.132 64.6325 15.1031C64.6325 15.0598 64.618 15.002 64.618 14.9586C64.618 14.9152 64.618 14.8863 64.618 14.843C64.618 14.8141 64.618 14.7707 64.618 14.7418C64.618 14.7129 64.618 14.684 64.618 14.6551C64.618 14.5106 64.618 14.3516 64.618 14.2071C64.618 14.1781 64.618 14.1348 64.618 14.1059C64.618 13.9614 64.6325 13.8168 64.6469 13.6723C64.6469 13.6289 64.6614 13.6 64.6614 13.5567C64.6759 13.4122 64.6903 13.2821 64.7192 13.1376V13.1231C64.7192 13.0942 64.7337 13.0653 64.7337 13.0364C64.7626 12.8919 64.7915 12.7473 64.8204 12.6028C64.8204 12.5739 64.8348 12.545 64.8348 12.5161C64.8637 12.3716 64.9071 12.227 64.9505 12.097C64.9649 12.0536 64.9794 12.0102 64.9938 11.9813C65.0372 11.8513 65.0805 11.7356 65.1383 11.6056C65.1528 11.5767 65.1672 11.5333 65.1817 11.5044C65.2395 11.3599 65.3118 11.2298 65.3696 11.0853C65.384 11.0564 65.3985 11.0275 65.4129 10.9841C65.4852 10.854 65.5575 10.7384 65.6297 10.6228C65.6586 10.5794 65.6731 10.5505 65.702 10.5072C65.7743 10.406 65.8465 10.3048 65.9188 10.2037C65.9332 10.1747 65.9477 10.1603 65.9766 10.1314C65.9911 10.1169 66.0055 10.1025 66.02 10.088C66.1067 9.97241 66.2078 9.85679 66.309 9.75562C66.3235 9.74117 66.3379 9.72671 66.3524 9.69781L66.3668 9.68336C66.468 9.58219 66.5836 9.48102 66.6992 9.37985C66.7426 9.35094 66.7715 9.32204 66.8149 9.27868C66.916 9.20642 67.0172 9.1197 67.1184 9.04744C67.1617 9.01853 67.2051 8.98963 67.234 8.96072C67.3641 8.87401 67.4941 8.80174 67.6387 8.72948C67.682 8.71503 67.7109 8.68612 67.7543 8.67167C67.8988 8.5994 68.0289 8.54159 68.1879 8.46933C68.2457 8.45488 68.289 8.42597 68.3468 8.41152C68.4769 8.36816 68.607 8.3248 68.7371 8.28144C68.7804 8.26699 68.8238 8.25254 68.8816 8.23809C68.896 8.23809 68.9105 8.23809 68.9105 8.22363C69.0984 8.18028 69.2863 8.12246 69.4886 8.09356C69.6187 8.06465 69.7488 8.0502 69.8788 8.03575C69.9222 8.03575 69.9655 8.03575 70.0089 8.0213C70.0956 8.0213 70.1823 8.00684 70.2691 8.00684C70.3124 8.00684 70.3702 8.00684 70.4136 8.00684C70.4858 8.00684 70.5726 8.00684 70.6448 8.00684C70.6882 8.00684 70.7315 8.00684 70.7894 8.00684C70.8616 8.00684 70.9483 8.0213 71.0206 8.0213C71.064 8.0213 71.1073 8.03575 71.1507 8.03575C71.2374 8.0502 71.3241 8.06465 71.4108 8.07911C71.4397 8.07911 71.4686 8.09356 71.4975 8.09356C71.6132 8.12246 71.7143 8.13692 71.83 8.18027C71.8589 8.19473 71.8878 8.19473 71.9167 8.20918C71.9889 8.23809 72.0756 8.25254 72.1479 8.28144C72.1913 8.2959 72.2202 8.31035 72.2635 8.3248C72.3213 8.35371 72.3936 8.38261 72.4514 8.41152C72.4948 8.42597 72.5237 8.44042 72.567 8.46933C72.6249 8.49823 72.6827 8.52714 72.7405 8.55605C72.7694 8.5705 72.8127 8.5994 72.8416 8.61386C72.8995 8.64276 72.9573 8.68612 73.0151 8.72948C73.044 8.74393 73.0729 8.75838 73.1018 8.78729C73.1885 8.8451 73.2752 8.90291 73.3475 8.96072L73.3619 8.97517C73.4342 9.03298 73.5065 9.0908 73.5787 9.16306C73.6076 9.19196 73.6221 9.20642 73.651 9.23532C73.6944 9.27868 73.7522 9.32204 73.7955 9.37985C73.8244 9.40876 73.8533 9.43766 73.8822 9.46657C73.9256 9.50992 73.969 9.55328 73.9979 9.61109C74.0268 9.64 74.0557 9.6689 74.0701 9.69781C74.1135 9.74117 74.1424 9.79898 74.1857 9.84234C74.2146 9.87124 74.2291 9.90015 74.258 9.92905C74.3014 9.98686 74.3447 10.0447 74.3736 10.1025C74.3881 10.1314 74.4025 10.1458 74.417 10.1747C74.4603 10.2615 74.5182 10.3482 74.5615 10.4204C74.576 10.4494 74.5904 10.4783 74.6049 10.5072C74.6338 10.565 74.6627 10.6228 74.6916 10.695C74.706 10.724 74.7205 10.7673 74.7349 10.7962C74.7638 10.854 74.7783 10.8974 74.7928 10.9552C74.8072 10.9986 74.8217 11.0275 74.8361 11.0708C74.8506 11.1286 74.865 11.172 74.8795 11.2298C74.8939 11.2732 74.9084 11.3021 74.9084 11.3454C74.9228 11.4032 74.9373 11.461 74.9517 11.5189C74.9662 11.5478 74.9662 11.5911 74.9806 11.62C74.9951 11.7067 75.0095 11.779 75.024 11.8657C75.024 11.8946 75.024 11.9235 75.0385 11.9524C75.0529 12.0247 75.0529 12.097 75.0529 12.1692C75.0529 12.2126 75.0529 12.2415 75.0529 12.2848C75.0529 12.3427 75.0529 12.4005 75.0529 12.4583C75.0529 12.5016 75.0529 12.545 75.0529 12.5739C75.0529 12.6317 75.0385 12.6751 75.0385 12.7329C75.0385 12.7762 75.024 12.8196 75.024 12.8485C75.024 12.9063 75.0096 12.9497 74.9951 13.0075C74.9951 13.0508 74.9806 13.0797 74.9662 13.1231C74.9517 13.1809 74.9373 13.2387 74.9228 13.2965C74.9084 13.3254 74.9084 13.3543 74.8939 13.3833C74.7494 13.8602 74.5037 14.3082 74.1424 14.684C74.0557 14.7707 73.9834 14.843 73.8967 14.9152C73.8678 14.9441 73.8389 14.9586 73.81 14.9875C73.7522 15.0309 73.6943 15.0742 73.6365 15.1176C73.1596 15.45 72.6538 15.609 72.1335 15.7824C71.2952 16.057 70.8905 14.7852 71.7288 14.5106C71.8299 14.4817 71.9167 14.4383 72.0178 14.4094C72.0323 14.4094 72.0467 14.3949 72.0612 14.3949C73.0873 14.0047 73.8678 13.3833 73.7088 12.0391C73.3908 9.53883 70.4425 8.49823 68 10.0591C65.6586 11.5478 65.1239 16.1582 67.5809 18.355C69.532 20.0893 73.2463 20.7975 75.631 19.6702C78.218 18.4417 79.0563 16.0136 81.4988 15.1898C84.4905 14.1781 88.176 15.0309 90.763 11.7935C91.3845 11.013 91.4134 10.6083 91.5723 10.406C90.8353 10.5505 90.6618 10.7095 89.3466 10.724C85.9213 10.7818 83.3488 9.26423 81.3832 6.59048C78.8973 3.223 79.2586 2.35583 73.8533 3.17964C70.8038 3.64212 69.9655 3.29526 67.5086 1.45977C66.02 0.346907 64.7337 -0.303465 62.7681 0.361359C62.2044 0.549244 61.7564 0.867204 61.3373 1.21407C61.583 1.44531 61.872 1.71991 62.1322 1.99452Z" stroke="#296EBB" stroke-miterlimit="10"/>
<path d="M90.951 21.7514C90.9799 21.7658 91.0088 21.7658 91.0233 21.7803C91.0233 21.7803 91.0378 21.7803 91.0378 21.7947C91.0522 21.7947 91.0667 21.8092 91.0667 21.8092C91.0956 21.8236 91.11 21.8381 91.1245 21.8525C91.1389 21.867 91.1534 21.867 91.1534 21.8814C91.1678 21.8959 91.1823 21.9103 91.1967 21.9393C91.2112 21.9537 91.2112 21.9682 91.2256 21.9682C91.2401 21.9826 91.2545 22.0115 91.2545 22.026C91.2545 22.0404 91.269 22.0404 91.269 22.0549V22.0693C91.2834 22.0982 91.2834 22.1127 91.2979 22.1416C91.2979 22.156 91.3123 22.1705 91.3123 22.1705C91.3268 22.1994 91.3268 22.2428 91.3268 22.2861C91.3268 22.3006 91.3268 22.3006 91.3268 22.315C91.3268 22.3439 91.3268 22.3728 91.3268 22.4017C91.3268 22.4162 91.3268 22.4162 91.3268 22.4306C91.3268 22.4451 91.3268 22.4451 91.3268 22.4595C91.3268 22.4885 91.3268 22.5029 91.3123 22.5318C91.3123 22.5318 91.3123 22.5318 91.3123 22.5463C91.3123 22.5607 91.2979 22.5752 91.2979 22.5896C91.2979 22.6185 91.2834 22.633 91.269 22.6474C91.269 22.6619 91.2545 22.6763 91.2545 22.6908C91.2401 22.7052 91.2401 22.7341 91.2256 22.7486C91.2112 22.7631 91.2112 22.7775 91.1967 22.792C91.1823 22.8064 91.1678 22.8209 91.1534 22.8498C91.1389 22.8642 91.1389 22.8787 91.1245 22.8787C91.11 22.8931 91.0811 22.9076 91.0667 22.922C91.0522 22.9365 91.0522 22.9365 91.0378 22.9509C90.9221 23.0088 90.792 23.0521 90.6331 23.0377C89.419 22.922 88.971 24.7575 90.6186 25.5235C93.2924 26.7665 94.94 23.5724 94.5064 21.8959C94.1306 20.4217 92.801 18.8464 90.9944 18.6007C89.3468 18.3694 86.991 18.9186 85.5168 19.6413C81.8892 21.4334 81.5568 26.2028 75.5011 26.1739C72.5672 26.1594 69.9946 25.22 67.4798 27.0266C66.8006 27.518 66.3381 28.0383 66.1357 28.4141C67.3064 28.8043 69.1853 28.8766 70.7606 30.1484C72.7117 31.7237 73.3476 35.5826 76.2382 36.9701C79.0998 38.3431 81.9181 36.8255 84.9676 38.6899C87.8726 40.4676 90.2139 43.2859 94.7232 42.6644C101.545 41.7395 104.089 34.6287 110.795 33.0823C111.763 32.851 115.564 32.5475 115.593 32.403C115.68 31.8538 114.104 30.4664 113.526 30.0472C109.176 26.9254 105.765 28.5008 103.51 27.7637C100.287 26.7231 100.475 23.9482 95.7927 23.6013C95.6048 24.295 95.2868 24.9599 94.8533 25.5235C94.8099 25.5958 94.7521 25.6536 94.6943 25.7114C94.6798 25.7259 94.6654 25.7403 94.6509 25.7692C94.6076 25.827 94.5642 25.8704 94.5064 25.9282C94.4919 25.9427 94.4775 25.9571 94.463 25.986C94.4052 26.0438 94.3474 26.1016 94.2896 26.1594L94.2752 26.1739C94.2029 26.2317 94.1451 26.2895 94.0728 26.3473C94.0584 26.3618 94.0439 26.3618 94.0295 26.3762C93.9716 26.4196 93.9138 26.4629 93.856 26.5063C93.8416 26.5208 93.8127 26.5352 93.7982 26.5497C93.7404 26.593 93.6826 26.6219 93.6248 26.6653C93.6103 26.6797 93.5959 26.6797 93.5814 26.6942C93.5092 26.7376 93.4224 26.7809 93.3502 26.8243C93.2779 26.8676 93.1912 26.8965 93.1189 26.9254C93.1045 26.9399 93.0756 26.9399 93.0611 26.9543C93.0033 26.9832 92.931 26.9977 92.8732 27.0266C92.8443 27.0266 92.8299 27.0411 92.801 27.0411C92.7287 27.07 92.642 27.0844 92.5697 27.0989C92.5553 27.0989 92.5553 27.0989 92.5408 27.0989C92.4541 27.1133 92.3674 27.1278 92.2662 27.1422C92.2518 27.1422 92.2373 27.1422 92.2229 27.1422C92.1506 27.1567 92.0783 27.1567 92.0061 27.1567C91.9772 27.1567 91.9627 27.1567 91.9338 27.1567C91.8615 27.1567 91.7893 27.1567 91.717 27.1567C91.7026 27.1567 91.6737 27.1567 91.6592 27.1567C91.4713 27.1422 91.269 27.1278 91.0811 27.0844C91.0522 27.0844 91.0378 27.07 91.0088 27.07C90.9366 27.0555 90.8499 27.0266 90.7776 27.0122C90.5608 26.9543 90.3296 26.8676 90.1128 26.7665C89.7081 26.5786 89.3612 26.3473 89.1011 26.0872C87.5836 27.5469 86.2828 29.1801 87.0054 31.4202C87.8871 34.1662 91.8905 36.233 94.3763 34.3108C96.8477 32.403 94.622 29.5269 92.9166 30.7988C92.1362 31.3769 92.801 32.2585 92.6564 32.7932C92.642 32.8366 92.6275 32.8655 92.6131 32.8944C92.6131 32.8944 92.6131 32.8944 92.6131 32.9089C92.5986 32.9378 92.5697 32.9811 92.5408 33.01C92.5408 33.01 92.5408 33.01 92.5264 33.01C92.4975 33.0389 92.4541 33.0678 92.4108 33.0967C92.4108 33.0967 92.4108 33.0967 92.3963 33.0967C92.3529 33.1257 92.2951 33.1401 92.2229 33.169C92.0061 33.2268 91.8037 33.169 91.6303 33.0245C91.587 32.9811 91.5436 32.9378 91.5147 32.8944C91.5147 32.88 91.5002 32.88 91.5002 32.8655C91.4713 32.8077 91.428 32.7643 91.3991 32.7065C91.3702 32.6487 91.3413 32.5764 91.3123 32.5042C91.3123 32.4897 91.2979 32.4753 91.2979 32.4608C91.269 32.3886 91.2545 32.3163 91.2401 32.244C91.2401 32.2296 91.2401 32.2151 91.2401 32.2151C91.2256 32.1429 91.2112 32.0706 91.2112 31.9839C91.2112 31.9694 91.2112 31.9694 91.2112 31.955C91.2112 31.8683 91.1967 31.796 91.1967 31.7093C91.1967 31.6948 91.1967 31.6804 91.1967 31.6515C91.1967 31.5648 91.2112 31.478 91.2112 31.3913C91.2112 31.3769 91.2112 31.3624 91.2112 31.348C91.2256 31.2612 91.2401 31.189 91.2545 31.1023C91.2545 31.0878 91.2545 31.0734 91.269 31.0589C91.2834 30.9722 91.3124 30.8855 91.3413 30.7988C91.3413 30.7843 91.3557 30.7554 91.3557 30.741C91.3846 30.6542 91.428 30.5675 91.4713 30.4953C91.4713 30.4808 91.4858 30.4808 91.4858 30.4664C91.5291 30.3941 91.5725 30.3074 91.6303 30.2351C91.6448 30.2207 91.6448 30.2062 91.6592 30.1917C91.717 30.1195 91.7748 30.0472 91.8327 29.975C91.8471 29.9461 91.876 29.9316 91.8905 29.9027C91.9483 29.8449 92.0061 29.7871 92.0639 29.7437C92.0783 29.7293 92.1073 29.7148 92.1217 29.7004C92.194 29.6425 92.2807 29.5847 92.3819 29.5269C92.3963 29.5269 92.3963 29.5125 92.4108 29.5125C92.4252 29.498 92.4541 29.498 92.4686 29.4836C92.5408 29.4402 92.6275 29.3969 92.7143 29.3679C92.7432 29.3535 92.7721 29.339 92.8154 29.3246C92.9311 29.2812 93.0467 29.2379 93.1768 29.209C96.0673 28.4863 98.5676 32.721 95.1712 35.3369C95.0845 35.4092 94.9978 35.467 94.8966 35.5248C94.8677 35.5393 94.8533 35.5537 94.8244 35.5682C94.7376 35.626 94.6509 35.6693 94.5787 35.7271C94.5642 35.7271 94.5642 35.7416 94.5498 35.7416C94.4486 35.7994 94.3619 35.8428 94.2607 35.8861C94.2463 35.9006 94.2173 35.9006 94.2029 35.915C94.1162 35.9584 94.015 36.0017 93.9283 36.0306C93.9138 36.0306 93.9138 36.0306 93.8994 36.0451C93.7982 36.0885 93.697 36.1174 93.5814 36.1463C93.567 36.1463 93.567 36.1463 93.5525 36.1463C93.4513 36.1752 93.3502 36.2041 93.2346 36.233H93.2201C93.0033 36.2763 92.7721 36.3197 92.5408 36.3342C90.4018 36.522 88.1328 35.4381 86.7453 33.7182C86.4996 33.4147 86.2828 33.0967 86.0949 32.7643C86.0949 32.7643 86.0949 32.7499 86.0805 32.7499C85.9648 32.5331 85.8637 32.3018 85.7625 32.0851L85.7481 32.0561C85.7047 31.9405 85.6613 31.8249 85.6324 31.7093C85.6035 31.5937 85.5602 31.478 85.5313 31.3624C85.5313 31.348 85.5313 31.3335 85.5168 31.3191C85.4879 31.2034 85.4735 31.0878 85.4446 30.9722C85.4446 30.9577 85.4446 30.9433 85.4446 30.9288C85.4301 30.8132 85.4157 30.6976 85.4012 30.582V30.5675C85.3867 30.4519 85.3867 30.3363 85.3867 30.2062C85.3867 30.1773 85.3867 30.1628 85.3867 30.1339C85.3867 30.0183 85.3867 29.8882 85.4012 29.7726V29.7582C85.4157 29.6425 85.4301 29.5269 85.4446 29.4113C85.4446 29.3824 85.4446 29.3679 85.459 29.339C85.4735 29.2234 85.5024 29.1078 85.5313 28.9777C85.5313 28.9633 85.5457 28.9344 85.5457 28.9199C85.5746 28.8043 85.6035 28.7031 85.6324 28.5875C85.6324 28.573 85.6469 28.5441 85.6469 28.5297C85.6902 28.4141 85.7336 28.284 85.777 28.1684C85.7914 28.1395 85.8059 28.1106 85.8059 28.0817C85.8637 27.9516 85.907 27.836 85.9648 27.7059C86.5141 26.6075 87.3812 25.7259 88.2917 24.8732C88.2628 24.7864 88.2484 24.6997 88.2339 24.613C88.2339 24.5841 88.2339 24.5552 88.2195 24.5263C88.205 24.4685 88.205 24.3962 88.1906 24.3384C88.1906 24.3095 88.1906 24.2661 88.1906 24.2372C88.1906 24.1794 88.1906 24.1216 88.1906 24.0638C88.1906 24.0349 88.1906 23.9915 88.205 23.9626C88.205 23.9048 88.2195 23.847 88.2195 23.7892C88.2195 23.7603 88.2339 23.7169 88.2339 23.688C88.2484 23.6302 88.2484 23.5724 88.2628 23.5146C88.2773 23.4857 88.2773 23.4423 88.2917 23.4134C88.3062 23.3556 88.3206 23.2978 88.3495 23.24C88.364 23.2111 88.3784 23.1677 88.3929 23.1388C88.4218 23.081 88.4363 23.0232 88.4652 22.9654C88.4796 22.9365 88.4941 22.9076 88.523 22.8642C88.5519 22.8064 88.5808 22.7631 88.6097 22.7052C89.0144 22.0693 89.7226 21.6068 90.7198 21.708C90.7631 21.708 90.821 21.7225 90.8643 21.7369C90.8788 21.7369 90.8788 21.7369 90.8932 21.7514C90.9366 21.7514 90.951 21.7514 90.951 21.7514Z" stroke="#296EBB" stroke-miterlimit="10"/>
</g>
</g>
<defs>
<clipPath id="clip0">
<rect width="115.679" height="68" fill="white"/>
</clipPath>
</defs>
</svg>
