<svg width="103" height="61" viewBox="0 0 103 61" fill="none" xmlns="http://www.w3.org/2000/svg">
<g opacity="0.2">
<g clip-path="url(#clip0)">
<path d="M59.3806 59.214C60.2626 58.8049 61.0936 58.268 61.8734 57.6799C62.6532 57.0919 63.4074 56.4271 64.0849 55.7879L64.7241 55.1871C65.8619 54.1133 66.8718 53.1673 68.0735 52.5281C68.7893 52.1446 69.5564 51.8889 70.3489 51.6972C71.1287 51.5182 71.9213 51.4159 72.7011 51.352C73.1358 51.3137 73.596 51.2881 74.069 51.2625C75.1173 51.2114 76.1655 51.1475 77.201 50.9429C77.9552 50.7895 78.7095 50.5594 79.4637 50.227C80.1668 49.9202 80.8699 49.5367 81.5347 49.0637C82.1994 48.5907 82.8386 48.0283 83.3244 47.5169C83.6184 47.2101 83.8613 46.9289 84.0275 46.7115H83.759C83.4522 46.7115 83.0815 46.7115 82.698 46.686C81.9693 46.6348 81.1511 46.4686 80.3202 46.1618C79.6043 45.9062 78.8757 45.5354 78.1981 45.0497C76.9965 44.1932 75.9865 42.9787 74.9639 41.777L74.3375 41.0356C73.7494 40.3453 73.1486 39.6933 72.5222 39.1053C71.9086 38.53 71.2566 38.0059 70.5407 37.584C69.8759 37.1877 69.1345 36.8553 68.3803 36.6124C67.5365 36.3312 66.6672 36.1394 65.8107 36.0244C65.1588 35.9349 64.5196 35.8838 63.906 35.8326C62.8577 35.7431 61.835 35.6664 60.8507 35.4108C60.0453 35.2062 59.2783 34.8739 58.5113 34.4009C57.757 33.9406 57.0028 33.3398 56.1846 32.56C55.571 31.9847 54.9063 31.2944 54.216 30.5785C53.1549 29.4664 52.0172 28.2903 50.8666 27.3315C49.9334 26.5517 48.9746 25.8997 48.0159 25.4139C47.0954 24.9537 46.1495 24.6214 45.2035 24.4552C44.2703 24.289 43.337 24.289 42.4038 24.404C41.3939 24.5319 40.3712 24.8003 39.3869 25.1838C37.5588 25.8869 35.7563 26.9991 34.0305 28.0602L33.6854 28.2775C32.7522 28.8527 31.8317 29.4024 30.9497 29.8882C30.042 30.374 29.1344 30.7959 28.2395 31.1155C27.383 31.4095 26.5265 31.6012 25.67 31.7291C25.1715 31.8058 24.6857 31.8697 24.2127 31.908C24.43 32.2788 24.6218 32.6623 24.7752 33.0458C24.903 33.3782 25.0053 33.7105 25.082 34.0557C25.1075 34.1835 25.1331 34.3242 25.1587 34.452C25.1587 34.4776 25.1715 34.5159 25.1715 34.5415C25.197 34.7077 25.2098 34.8611 25.2226 35.0273C25.2226 35.0656 25.2226 35.104 25.2354 35.1423C25.2482 35.2701 25.2482 35.398 25.2482 35.5258C25.2482 35.577 25.2482 35.6153 25.2482 35.6664C25.2482 35.8198 25.2354 35.986 25.2226 36.1394C25.1715 36.7019 25.0436 37.2261 24.8519 37.7374C24.7879 37.9036 24.724 38.0826 24.6473 38.236C24.6345 38.2615 24.6218 38.2743 24.6218 38.2999C24.5451 38.4661 24.4556 38.645 24.3661 38.7984C24.2638 38.9646 24.1615 39.1308 24.0465 39.297C24.0081 39.3481 23.9698 39.3993 23.9442 39.4504C23.8675 39.5655 23.778 39.6677 23.6885 39.77C23.5096 39.9873 23.3178 40.1919 23.1133 40.3836C23.2795 40.3453 23.484 40.3453 23.7652 40.3581C23.9698 40.3581 24.2255 40.3708 24.4811 40.3581C24.4939 40.3581 24.4939 40.3581 24.5067 40.3581C24.5706 40.3581 24.6345 40.3453 24.6985 40.3453C24.7496 40.3453 24.8007 40.3453 24.8646 40.3325C24.9413 40.3325 25.0308 40.3197 25.1075 40.3069C25.1587 40.3069 25.2098 40.2941 25.2609 40.2941C25.3504 40.2814 25.4527 40.2686 25.555 40.2558C25.6061 40.2558 25.6444 40.243 25.6956 40.243C25.849 40.2302 26.0024 40.2046 26.1558 40.1791C26.7438 40.0896 27.3958 39.9618 28.0861 39.7956C28.802 39.6166 29.5435 39.3993 30.2849 39.1436C30.9752 38.9007 31.6528 38.6195 32.3175 38.2999C32.9056 38.0186 33.4808 37.699 34.0689 37.3795C34.8998 36.9192 35.7308 36.459 36.6384 36.0755C37.4182 35.7304 38.2491 35.4491 39.0929 35.219C39.9494 34.9889 40.8187 34.8099 41.6496 34.7077C42.4678 34.6054 43.2731 34.5671 44.0401 34.6054H44.0913C44.8583 34.6438 45.5998 34.7588 46.3029 34.9378C47.0187 35.1295 47.6963 35.398 48.3355 35.7431C48.9874 36.0883 49.601 36.4974 50.2147 36.9832C50.6621 37.3283 51.1223 37.7374 51.5825 38.1465C52.324 38.7984 53.1038 39.476 53.9858 40.0768C54.6889 40.5498 55.4687 40.9844 56.2358 41.3424C57.0156 41.7003 57.7954 41.9816 58.5113 42.1478C59.2655 42.3267 59.943 42.3907 60.5694 42.4418C61.1575 42.4929 61.7072 42.5441 62.2569 42.6719C62.7938 42.7997 63.3435 42.9915 63.8421 43.2216C64.4812 43.5156 65.0693 43.848 65.5295 44.142C65.8491 44.3466 66.1176 44.5255 66.3349 44.7045C66.5011 44.8451 66.6417 44.973 66.7439 45.1008L66.7823 45.1519C66.9868 45.4332 67.0252 45.7144 66.8718 45.9956L66.8462 46.034L66.7951 46.1107C66.5394 46.4175 66.092 46.4559 65.5039 46.507C65.2483 46.5326 64.967 46.5453 64.673 46.5965C64.2639 46.6604 63.8165 46.7627 63.3691 46.9161C62.96 47.0567 62.5509 47.2357 62.129 47.4658C61.7455 47.6831 61.362 47.926 60.9913 48.1817C60.8251 48.2967 60.6461 48.4118 60.4799 48.514C60.0964 48.7569 59.7129 48.987 59.3422 49.1532C58.5752 49.4856 57.8977 49.5495 57.2329 49.5495C57.2329 50.0481 57.1562 50.4955 57.0156 50.9046C56.8238 51.4543 56.5298 51.9273 56.1335 52.2852C55.7244 52.6432 55.2386 52.886 54.6634 52.9883C54.5867 53.0011 54.5228 53.0139 54.4461 53.0139C54.4205 53.0139 54.3949 53.0139 54.3694 53.0139C54.3182 53.0139 54.2671 53.0267 54.216 53.0267C54.1904 53.0267 54.152 53.0267 54.1265 53.0267C54.0753 53.0267 54.037 53.0267 53.9858 53.0267C53.9475 53.0267 53.9219 53.0267 53.8836 53.0139C53.8324 53.0139 53.7941 53.0139 53.743 53.0011C53.4234 52.9755 53.091 52.8988 52.7458 52.7838C52.7075 52.771 52.6819 52.7582 52.6436 52.7326C52.6308 52.7326 52.618 52.7199 52.618 52.7071C52.5924 52.6943 52.5796 52.6815 52.5541 52.6687C52.5413 52.6559 52.5285 52.6559 52.5285 52.6432C52.5157 52.6304 52.5029 52.6176 52.4774 52.592C52.4646 52.5792 52.4646 52.5665 52.4518 52.5537C52.3495 52.4003 52.3112 52.2085 52.3751 52.0295C52.4774 51.7227 52.8097 51.5565 53.1293 51.6588C53.2444 51.6972 53.3594 51.7227 53.4617 51.7483C53.5001 51.7611 53.5256 51.7611 53.564 51.7739C53.6407 51.7867 53.7174 51.7994 53.7941 51.8122C53.8324 51.8122 53.8708 51.825 53.8964 51.825C53.9731 51.825 54.037 51.8378 54.1137 51.8378C54.1392 51.8378 54.1648 51.8378 54.2032 51.8378C54.216 51.8378 54.2287 51.8378 54.2415 51.8378H54.2287C54.3182 51.8378 54.4077 51.825 54.4844 51.8122C54.8296 51.7483 55.1236 51.6077 55.3537 51.4031C55.5966 51.1858 55.7883 50.8918 55.9034 50.5338C56.0696 50.0353 56.1079 49.4345 55.9929 48.7314C55.9673 48.5907 55.929 48.4501 55.8906 48.3351C55.6349 47.6192 55.0469 47.1717 54.3438 46.9289C53.5896 46.6732 52.7075 46.6476 51.9788 46.7627C51.7487 46.801 51.5314 46.8522 51.3396 46.9289C46.8398 48.514 46.9676 52.0295 47.8497 54.5096C48.1181 55.2638 48.4505 55.9286 48.7445 56.4143C49.2942 57.3348 50.6621 58.5364 51.5058 59.035C52.2728 59.4824 53.1166 59.7892 53.9986 59.9554C54.8807 60.1088 55.7883 60.1216 56.7088 60.0066C57.5908 59.8787 58.5113 59.6103 59.3806 59.214Z" stroke="white" stroke-miterlimit="10"/>
<path d="M47.4914 56.6828C47.4275 56.5677 47.3635 56.4527 47.2996 56.3248C47.2996 56.312 47.2868 56.312 47.2868 56.2993C47.2229 56.1842 47.1718 56.0564 47.1079 55.9285C47.0951 55.903 47.0823 55.8774 47.0695 55.8518C47.0056 55.724 46.9545 55.5834 46.8906 55.4428C46.8778 55.4172 46.865 55.3916 46.8522 55.3533C46.7883 55.1999 46.7372 55.0592 46.6732 54.8931C46.4559 54.2922 46.2897 53.6275 46.1875 52.9499C46.1875 52.9244 46.1747 52.886 46.1747 52.8604C46.1491 52.707 46.1363 52.5536 46.1235 52.4002C46.1235 52.3747 46.1235 52.3619 46.1235 52.3363C46.1107 52.1957 46.1108 52.0423 46.1108 51.9017C46.1108 51.8761 46.1108 51.8505 46.1108 51.825C46.1108 51.6716 46.1107 51.5182 46.1235 51.3648C46.1235 51.3264 46.1235 51.3008 46.1363 51.2625C46.1491 51.1091 46.1619 50.9429 46.1875 50.7895L45.8295 50.8151C45.4332 50.8278 45.0114 50.8278 44.5639 50.7511C44.1037 50.6872 43.6179 50.5594 43.1322 50.3676C42.6719 50.1887 42.1989 49.9713 41.7387 49.6773C41.1507 49.3194 40.5754 48.8719 39.9235 48.3606C39.5911 48.1049 39.2331 47.8237 38.7857 47.4913C38.2104 47.0694 37.5585 46.6092 36.8809 46.2002C36.2162 45.8039 35.5387 45.4587 34.8739 45.2414C34.2347 45.0241 33.6083 44.9474 33.0075 44.9218C32.3811 44.8962 31.7675 44.9346 31.1794 44.9729L30.9749 44.9857C29.7732 45.0752 28.6483 45.1647 27.5361 44.8579C26.948 44.6917 26.3728 44.4232 25.8358 44.1036C25.2989 43.784 24.8259 43.4389 24.3913 43.1065C23.9311 42.7486 23.522 42.4162 23.2152 42.1222C22.8828 41.8154 22.6527 41.5341 22.576 41.3296C22.5121 41.1634 22.4865 41.01 22.5121 40.8821L22.4098 40.9588C21.7067 41.4702 20.9525 41.8026 20.1983 41.9688C19.3929 42.1477 18.6003 42.1349 17.8972 41.9432C17.2197 41.7514 16.6444 41.4063 16.1714 40.9588C15.6728 40.4731 15.2893 39.885 15.0464 39.2458C14.8163 38.6322 14.7268 37.9803 14.7524 37.3922C14.778 36.753 14.9442 36.165 15.251 35.7303C15.5706 35.2701 15.9924 35.0017 16.491 34.8227C16.606 34.7843 16.7083 34.746 16.8234 34.7204C16.8617 34.7076 16.9001 34.7076 16.9384 34.6949C17.0151 34.6821 17.079 34.6565 17.1557 34.6437C17.2069 34.6309 17.2452 34.6181 17.2964 34.6181C17.3603 34.6054 17.4242 34.5926 17.4881 34.5798C17.552 34.567 17.6032 34.5542 17.6671 34.5542C17.731 34.5414 17.7949 34.5287 17.8461 34.5287C18.1656 34.4775 18.4725 34.6949 18.5236 35.0144C18.5747 35.334 18.3574 35.6408 18.0378 35.692C17.9483 35.7048 17.8461 35.7175 17.7566 35.7431C17.731 35.7431 17.6927 35.7559 17.6671 35.7559C17.6032 35.7687 17.5392 35.7815 17.4753 35.7942C17.437 35.807 17.3986 35.807 17.3603 35.8198C17.3091 35.8326 17.258 35.8454 17.1941 35.8582C17.1557 35.871 17.1174 35.871 17.0918 35.8837C17.0663 35.8837 17.0407 35.8965 17.0279 35.8965H17.0407C16.9896 35.9093 16.9256 35.9221 16.8745 35.9477C16.7978 35.9732 16.7339 35.9988 16.6572 36.0371C16.6316 36.0499 16.6188 36.0627 16.5933 36.0755C16.5549 36.1011 16.5038 36.1266 16.4654 36.1522C16.4526 36.1522 16.4526 36.165 16.4399 36.165H16.4526C16.3504 36.2417 16.2609 36.3184 16.197 36.4206C16.0308 36.6763 15.9285 37.047 15.9029 37.4689C15.8774 37.9163 15.9541 38.4021 16.1203 38.8623C16.2992 39.3353 16.5805 39.7828 16.9512 40.1407C17.2964 40.4603 17.7054 40.716 18.1784 40.8438C18.6898 40.9844 19.2906 40.9972 19.9042 40.8566C20.5051 40.7287 21.1059 40.4475 21.6812 40.0384C22.2948 39.591 22.8573 38.9774 23.2663 38.2487C23.6498 37.584 23.9055 36.8425 23.9822 36.0627C24.0589 35.219 23.9311 34.3369 23.6115 33.506C23.3814 32.9179 23.0618 32.3427 22.6527 31.8569L22.6016 31.8057C22.461 31.6396 22.3203 31.4862 22.1669 31.3455C21.515 30.7447 20.7096 30.2973 19.7892 30.016C18.8432 29.7348 17.7949 29.6197 16.6955 29.7092C15.1104 29.8243 13.3718 30.3484 11.6843 30.8598C10.9429 31.0771 10.2014 31.3072 9.47275 31.4862C8.23274 31.8057 7.04386 32.0231 5.98281 32.0998C4.94733 32.1765 4.01413 32.1381 3.22154 31.9591C2.28833 31.7418 1.6108 31.3327 1.08667 31.0132C0.779858 30.8342 0.536968 30.6808 0.409132 30.6552H0.383564C0.357997 30.6552 0.33243 30.6936 0.294079 30.7447C0.191809 30.8981 0.127891 31.1538 0.08954 31.4862C0.0639727 31.6779 0.0639727 31.8952 0.0767564 32.1253C0.102324 32.8029 0.255728 33.6466 0.549752 34.4903C0.792642 35.1934 1.12502 35.8837 1.57245 36.4462C2.45452 37.5712 3.7968 38.2487 5.20301 38.9646L5.57373 39.1436C6.39189 39.5526 7.22283 40.0001 8.01542 40.4986C8.808 41.01 9.56224 41.5852 10.2142 42.2884C11.0835 43.2216 11.7099 44.3082 12.3746 45.4459C12.6687 45.9573 12.9627 46.4686 13.3079 47.0055C13.8576 47.862 14.4967 48.7185 15.1998 49.46C15.8007 50.0864 16.4399 50.6361 17.1302 51.0579C17.8716 51.5054 18.677 51.7994 19.5207 51.9912C20.39 52.1829 21.3232 52.2852 22.282 52.3363C22.8828 52.3619 23.5348 52.3747 24.1868 52.3875C25.6185 52.413 27.0503 52.4386 28.3798 52.6687C29.3641 52.8349 30.2846 53.1161 31.1411 53.4613C31.9848 53.8064 32.7646 54.2155 33.4677 54.6374C34.4265 55.2126 35.2446 55.8263 36.0756 56.4527C36.4463 56.7211 36.817 57.0024 37.2772 57.3347C37.9164 57.7822 38.594 58.2424 39.2971 58.6259C40.0002 59.0094 40.716 59.329 41.4575 59.508C42.1734 59.6869 42.9148 59.7636 43.6563 59.7253C44.4361 59.6869 45.2159 59.5335 45.9701 59.2906C46.5198 59.1117 47.0567 58.8816 47.5809 58.6259C47.8877 58.4725 48.1945 58.3063 48.5013 58.1273C48.2968 57.9484 48.0027 57.5648 47.6959 57.0535C47.6192 56.9257 47.5553 56.8106 47.4914 56.6828Z" stroke="white" stroke-miterlimit="10"/>
<path d="M26.4108 43.1065C26.8582 43.375 27.3312 43.6051 27.817 43.7329C28.7374 43.9886 29.7729 43.9119 30.8595 43.8224L31.0641 43.8096C31.7032 43.7585 32.3552 43.7201 33.0327 43.7457C33.7358 43.7713 34.4645 43.8863 35.2187 44.1292C35.9602 44.3721 36.7272 44.7556 37.4559 45.1903C38.1718 45.6121 38.8621 46.0979 39.4629 46.5453C39.8464 46.8266 40.2555 47.1462 40.6262 47.4402C41.2526 47.926 41.7896 48.3478 42.3393 48.6802C42.7355 48.9231 43.1446 49.1148 43.5409 49.2682C43.95 49.4216 44.3463 49.5239 44.7298 49.5878C45.0877 49.639 45.4329 49.6518 45.7781 49.639C46.0337 49.6262 46.2766 49.6006 46.5195 49.5751C46.6601 49.2043 46.8519 48.8464 47.0948 48.5012C47.1076 48.4757 47.1331 48.4501 47.1459 48.4245C47.1843 48.3734 47.2226 48.3095 47.2737 48.2583C47.2993 48.2328 47.3121 48.2072 47.3377 48.1816C47.3888 48.1177 47.4399 48.0538 47.4911 48.0027C47.5039 47.9899 47.5166 47.9643 47.5294 47.9515C47.5933 47.8748 47.67 47.7981 47.734 47.7342C47.7595 47.7086 47.7723 47.6959 47.7979 47.6703C47.849 47.6192 47.9129 47.5552 47.9641 47.5041C47.9896 47.4785 48.0152 47.453 48.0408 47.4274C48.0919 47.3763 48.1558 47.3251 48.2197 47.274C48.2581 47.2356 48.3092 47.2101 48.3476 47.1717C48.3987 47.1334 48.4498 47.095 48.501 47.0567C48.5521 47.0183 48.5905 46.9927 48.6416 46.9544C48.6927 46.916 48.7567 46.8777 48.8206 46.8393C48.8717 46.8138 48.9228 46.7754 48.9612 46.7499C49.0251 46.7115 49.089 46.6732 49.1529 46.6348C49.2041 46.6092 49.2552 46.5709 49.3064 46.5453C49.3703 46.507 49.447 46.4686 49.5109 46.4303C49.5492 46.4175 49.5748 46.3919 49.6132 46.3791C49.6515 46.3663 49.6771 46.3408 49.7154 46.328C49.7793 46.3024 49.8433 46.2641 49.9072 46.2385C49.9328 46.2257 49.9583 46.2129 49.9839 46.2002C50.0222 46.1874 50.0478 46.1746 50.0862 46.149C50.0989 46.149 50.0989 46.149 50.1117 46.1362C50.1884 46.0979 50.2651 46.0723 50.3418 46.034C50.3546 46.034 50.3674 46.0212 50.3802 46.0212C50.393 46.0084 50.4185 46.0084 50.4313 45.9956C50.4569 45.9828 50.4697 45.9828 50.4952 45.9701C50.6231 45.9189 50.7637 45.8678 50.9043 45.8167C51.16 45.7272 51.4412 45.6505 51.7353 45.5993C51.8375 45.5865 51.9526 45.561 52.0676 45.5482C52.106 45.5482 52.1443 45.5482 52.1827 45.5354C52.2594 45.5226 52.3361 45.5226 52.4128 45.5226C52.4639 45.5226 52.5023 45.5226 52.5534 45.5226C52.6301 45.5226 52.694 45.5226 52.7707 45.5226C52.8219 45.5226 52.873 45.5226 52.9241 45.5226C53.5122 45.5354 54.1258 45.6249 54.6883 45.8167C54.8033 45.855 54.9184 45.9061 55.0334 45.9573C55.059 45.9701 55.0846 45.9828 55.1229 45.9956C55.1485 46.0084 55.1613 46.0212 55.1868 46.0212C55.2635 46.0595 55.3275 46.0851 55.3914 46.1235C55.4169 46.1362 55.4425 46.149 55.4553 46.1618C55.532 46.2129 55.6215 46.2641 55.6982 46.3152C55.7238 46.328 55.7493 46.3408 55.7621 46.3536C55.8644 46.4175 55.9539 46.4942 56.0433 46.5709C56.0689 46.5965 56.0817 46.6092 56.1073 46.6348C56.1712 46.6987 56.2351 46.7626 56.299 46.8266C56.3246 46.8521 56.3502 46.8905 56.3757 46.916C56.4269 46.98 56.4908 47.0567 56.5419 47.1206C56.5675 47.1462 56.5803 47.1845 56.6058 47.2101C56.7464 47.4274 56.8743 47.6703 56.9638 47.9387C57.0149 48.0794 57.0533 48.22 57.0916 48.3734C57.6669 48.3734 58.2549 48.335 58.8558 48.0794C59.3032 47.8876 59.8145 47.5552 60.3259 47.2101C60.7222 46.9416 61.1312 46.6732 61.5403 46.4431C62.0133 46.1746 62.4991 45.9701 62.9721 45.8039C63.4962 45.6249 64.0076 45.5098 64.4806 45.4459C64.7235 45.4076 64.9663 45.382 65.1837 45.3692L64.8769 45.1647C64.4422 44.8834 63.9053 44.5766 63.33 44.321C62.8954 44.1292 62.4224 43.9502 61.9622 43.848C61.4636 43.7329 60.9651 43.6946 60.4281 43.6434C59.7378 43.5795 59.0092 43.5156 58.191 43.3111C57.424 43.1193 56.5675 42.8125 55.711 42.429C54.88 42.0455 54.0363 41.5853 53.2821 41.0739C52.3361 40.4347 51.5307 39.7188 50.7637 39.0541C50.3163 38.6578 49.8816 38.2871 49.4342 37.9291C48.8717 37.4817 48.3092 37.111 47.734 36.8042C47.1587 36.4974 46.5706 36.2672 45.9442 36.1011C45.3306 35.9349 44.6659 35.8454 43.9756 35.807H43.9244C43.2341 35.7815 42.4927 35.807 41.7384 35.8965C40.9586 35.9988 40.1405 36.1522 39.3479 36.3695C38.5681 36.5868 37.7883 36.8553 37.0596 37.1749C36.1903 37.5456 35.3849 37.993 34.5796 38.4405C33.9787 38.7728 33.3907 39.0924 32.7643 39.3992C32.0484 39.7444 31.3325 40.0384 30.6166 40.2941C29.8368 40.5626 29.057 40.7927 28.3028 40.9844C27.6125 41.1506 26.9221 41.2784 26.283 41.3807C25.5926 41.483 24.9662 41.5469 24.4677 41.5597H24.3398C24.5572 41.7514 24.8128 41.956 25.0941 42.1733C25.5032 42.5057 25.9634 42.8381 26.4108 43.1065Z" stroke="white" stroke-miterlimit="10"/>
<path d="M54.9574 1.76412C54.9958 1.81525 55.0341 1.8536 55.0852 1.90474C55.1236 1.94309 55.1492 1.98144 55.1875 2.01979C55.2259 2.07093 55.2642 2.10928 55.3026 2.16041C55.3281 2.19876 55.3665 2.23711 55.3921 2.28825C55.4304 2.33938 55.456 2.39052 55.4943 2.42887C55.5199 2.46722 55.5455 2.51835 55.571 2.5567C55.5966 2.60784 55.6349 2.65897 55.6605 2.71011C55.6861 2.74846 55.7116 2.79959 55.7244 2.83795C55.75 2.88908 55.7756 2.94021 55.8011 2.99135C55.8267 3.0297 55.8395 3.08083 55.8651 3.11919C55.8906 3.17032 55.9162 3.22146 55.929 3.27259C55.9418 3.31094 55.9673 3.36208 55.9801 3.40043C55.9929 3.45156 56.0185 3.48991 56.0312 3.54105C56.044 3.56661 56.044 3.59218 56.0568 3.61775C56.0696 3.64332 56.0696 3.6561 56.0824 3.68167C56.0952 3.70723 56.0952 3.7328 56.1079 3.75837C56.1335 3.87342 56.1719 3.97569 56.1846 4.09074V4.10353C56.1846 4.1291 56.1974 4.15466 56.1974 4.18023C56.223 4.29528 56.2358 4.41034 56.2486 4.52539C56.2486 4.55096 56.2486 4.57652 56.2613 4.61487C56.2613 4.62766 56.2613 4.64044 56.2613 4.65323C56.2741 4.7555 56.2741 4.85776 56.2741 4.96003C56.2741 4.9856 56.2741 5.02395 56.2741 5.0623V5.07509C56.2741 5.19014 56.2741 5.30519 56.2613 5.40746C56.2613 5.44581 56.2613 5.47138 56.2486 5.50973C56.2486 5.50973 56.2486 5.50973 56.2486 5.52252C56.2358 5.63757 56.223 5.73984 56.2102 5.85489C56.2102 5.89324 56.1974 5.93159 56.1846 5.95716C56.1591 6.05943 56.1335 6.17448 56.1079 6.27675C56.0952 6.30232 56.0952 6.34067 56.0824 6.36624C56.044 6.48129 56.0057 6.59634 55.9673 6.7114C55.9545 6.74975 55.9418 6.77531 55.929 6.80088C55.8906 6.90315 55.8523 6.99264 55.8011 7.09491C55.7884 7.12047 55.7756 7.14604 55.7628 7.15882L55.75 7.18439C55.6989 7.29945 55.6349 7.40171 55.571 7.51677C55.5582 7.54233 55.5455 7.5679 55.5327 7.58069C55.4688 7.67017 55.4176 7.75966 55.3409 7.86193C55.3154 7.88749 55.3026 7.92584 55.277 7.95141C55.2003 8.05368 55.1236 8.14317 55.0469 8.23265L55.0341 8.24544C55.0213 8.271 54.9958 8.28379 54.983 8.29657C54.9063 8.38606 54.8168 8.46276 54.7273 8.55224C54.7017 8.57781 54.6762 8.60338 54.6506 8.62895C54.5739 8.70565 54.4844 8.76957 54.3949 8.84627C54.3821 8.85905 54.3694 8.87184 54.3566 8.88462C54.3438 8.8974 54.3182 8.91019 54.3054 8.92297C54.2032 8.99967 54.1009 9.06359 53.9986 9.14029C53.9859 9.15308 53.9731 9.15308 53.9603 9.16586C53.9475 9.17864 53.9219 9.19143 53.9092 9.19143C53.8069 9.25535 53.7046 9.30648 53.6023 9.3704C53.564 9.38318 53.5384 9.40875 53.5001 9.42153C53.5001 9.42153 53.5001 9.42153 53.4873 9.42153C53.3595 9.48545 53.2188 9.54937 53.0782 9.6005C50.1252 10.7766 47.3511 8.64173 48.2076 5.85489C48.2332 5.75262 48.2716 5.65035 48.3099 5.56087C48.3227 5.5353 48.3355 5.50973 48.3483 5.48416C48.3738 5.42025 48.4122 5.34354 48.4505 5.27963C49.1281 4.05239 50.5854 3.47713 52.0555 4.46147C52.1067 4.48704 52.1322 4.52539 52.1706 4.56374C52.1834 4.57652 52.1834 4.58931 52.1961 4.60209C52.2217 4.62766 52.2345 4.65323 52.2473 4.67879C52.2601 4.69158 52.2601 4.70436 52.2728 4.71714C52.2856 4.74271 52.2984 4.78106 52.2984 4.80663C52.2984 4.81941 52.2984 4.8322 52.3112 4.8322C52.324 4.87055 52.324 4.92168 52.324 4.96003C52.324 4.97282 52.324 4.97282 52.324 4.9856C52.324 5.02395 52.3112 5.04952 52.3112 5.08787C52.3112 5.10065 52.2984 5.11344 52.2984 5.12622C52.2856 5.15179 52.2728 5.19014 52.2601 5.21571C52.2601 5.22849 52.2473 5.24127 52.2473 5.25406C52.2089 5.33076 52.145 5.39468 52.0811 5.44581C51.9149 5.57365 51.672 5.612 51.4163 5.4586C51.3652 5.42025 51.3013 5.39468 51.2501 5.36911C51.2374 5.36911 51.2246 5.35633 51.2246 5.35633C51.1734 5.33076 51.1223 5.30519 51.0712 5.27963C50.5982 5.07509 50.2019 5.08787 49.7672 5.52252C48.9235 6.36624 48.9747 8.48833 51.0967 8.73122C53.7046 9.03802 56.6321 5.72705 54.2543 2.76124C52.7203 0.856477 50.0229 0.754207 47.952 2.00701C45.6509 3.40043 44.3597 5.88046 41.7263 6.3918C39.8982 6.74975 39.1312 6.35345 36.7918 7.63182C34.3246 8.97411 33.9411 10.163 32.4581 11.224C31.3076 12.0422 30.0037 12.3873 28.6742 12.3746C28.623 12.3746 28.1628 11.7737 28.5847 12.8859C29.3773 14.9696 31.7295 16.133 33.9538 16.3375C37.9935 16.7082 39.3486 14.714 45.5231 17.6414C49.2303 19.4056 52.2345 20.0448 56.0312 17.9866C56.9261 17.5008 57.5525 17.0022 58.23 16.3631C57.9999 16.0563 57.7954 15.6983 57.6292 15.3148C57.6036 15.2637 57.5908 15.2125 57.5653 15.1614C57.5525 15.123 57.5269 15.0719 57.5141 15.0336C57.4886 14.9824 57.4758 14.9313 57.463 14.8674C57.4502 14.8162 57.4374 14.7779 57.4247 14.7268C57.4119 14.6756 57.3863 14.6117 57.3735 14.5606C57.3607 14.5094 57.348 14.4711 57.3352 14.4199C57.3224 14.3688 57.3096 14.3049 57.2968 14.2538C57.284 14.2026 57.2713 14.1515 57.2713 14.1131C57.2585 14.062 57.2457 13.9981 57.2457 13.947C57.2457 13.9214 57.2457 13.9086 57.2329 13.883C57.2329 13.8447 57.2201 13.8191 57.2201 13.7808C57.2073 13.7424 57.2073 13.6913 57.2073 13.6529C57.2073 13.6146 57.1946 13.5762 57.1946 13.5251C57.1946 13.4995 57.1946 13.474 57.1818 13.4484C57.1818 13.4228 57.169 13.3845 57.169 13.3589C57.169 13.3206 57.1562 13.2694 57.1562 13.2311C57.1562 13.1927 57.1562 13.1671 57.1562 13.1288C57.1562 13.1032 57.1562 13.0649 57.1562 13.0393C57.1562 13.0137 57.1562 12.9882 57.1562 12.9626C57.1562 12.8348 57.1562 12.6942 57.1562 12.5663C57.1562 12.5407 57.1562 12.5024 57.1562 12.4768C57.1562 12.349 57.169 12.2212 57.1818 12.0933C57.1818 12.055 57.1946 12.0294 57.1946 11.9911C57.2073 11.8632 57.2201 11.7482 57.2457 11.6203V11.6075C57.2457 11.582 57.2585 11.5564 57.2585 11.5308C57.284 11.403 57.3096 11.2752 57.3352 11.1473C57.3352 11.1218 57.348 11.0962 57.348 11.0706C57.3735 10.9428 57.4119 10.815 57.4502 10.6999C57.463 10.6615 57.4758 10.6232 57.4886 10.5976C57.5269 10.4826 57.5653 10.3803 57.6164 10.2653C57.6292 10.2397 57.642 10.2013 57.6548 10.1758C57.7059 10.0479 57.7698 9.93288 57.821 9.80504C57.8337 9.77948 57.8465 9.75391 57.8593 9.71556C57.9232 9.60051 57.9871 9.49824 58.0511 9.39597C58.0766 9.35762 58.0894 9.33205 58.115 9.2937C58.1789 9.20421 58.2428 9.11473 58.3067 9.02524C58.3195 8.99967 58.3323 8.98689 58.3579 8.96132C58.3707 8.94854 58.3834 8.93575 58.3962 8.92297C58.4729 8.8207 58.5624 8.71843 58.6519 8.62895C58.6647 8.61616 58.6775 8.60338 58.6902 8.57781L58.703 8.56503C58.7925 8.47554 58.8948 8.38606 58.9971 8.29657C59.0354 8.271 59.061 8.24544 59.0993 8.20708C59.1888 8.14317 59.2783 8.06646 59.3678 8.00255C59.4061 7.97698 59.4445 7.95141 59.4701 7.92584C59.5851 7.84914 59.7002 7.78522 59.828 7.72131C59.8663 7.70852 59.8919 7.68295 59.9303 7.67017C60.0581 7.60625 60.1731 7.55512 60.3138 7.4912C60.3649 7.47842 60.4033 7.45285 60.4544 7.44007C60.5694 7.40171 60.6845 7.36336 60.7996 7.32501C60.8379 7.31223 60.8763 7.29944 60.9274 7.28666C60.9402 7.28666 60.953 7.28666 60.953 7.27388C61.1191 7.23553 61.2853 7.18439 61.4643 7.15882C61.5794 7.13326 61.6944 7.12047 61.8095 7.10769C61.8478 7.10769 61.8862 7.10769 61.9245 7.09491C62.0012 7.09491 62.0779 7.08212 62.1546 7.08212C62.193 7.08212 62.2441 7.08212 62.2825 7.08212C62.3464 7.08212 62.4231 7.08212 62.487 7.08212C62.5253 7.08212 62.5637 7.08212 62.6148 7.08212C62.6788 7.08212 62.7555 7.09491 62.8194 7.09491C62.8577 7.09491 62.8961 7.10769 62.9344 7.10769C63.0111 7.12047 63.0878 7.13326 63.1645 7.14604C63.1901 7.14604 63.2157 7.15882 63.2412 7.15882C63.3435 7.18439 63.433 7.19718 63.5353 7.23553C63.5608 7.24831 63.5864 7.24831 63.612 7.26109C63.6759 7.28666 63.7526 7.29944 63.8165 7.32501C63.8549 7.3378 63.8804 7.35058 63.9188 7.36336C63.9699 7.38893 64.0338 7.4145 64.085 7.44007C64.1233 7.45285 64.1489 7.46563 64.1872 7.4912C64.2384 7.51677 64.2895 7.54233 64.3406 7.5679C64.3662 7.58069 64.4045 7.60625 64.4301 7.61904C64.4813 7.6446 64.5324 7.68296 64.5835 7.72131C64.6091 7.73409 64.6347 7.74687 64.6602 7.77244C64.7369 7.82358 64.8136 7.87471 64.8775 7.92584L64.8903 7.93863C64.9542 7.98976 65.0182 8.0409 65.0821 8.10482C65.1077 8.13038 65.1204 8.14317 65.146 8.16873C65.1844 8.20709 65.2355 8.24544 65.2738 8.29657C65.2994 8.32214 65.325 8.34771 65.3505 8.37327C65.3889 8.41162 65.4272 8.44998 65.4528 8.50111C65.4784 8.52668 65.5039 8.55224 65.5167 8.57781C65.5551 8.61616 65.5806 8.6673 65.619 8.70565C65.6446 8.73122 65.6573 8.75678 65.6829 8.78235C65.7213 8.83348 65.7596 8.88462 65.7852 8.93575C65.798 8.96132 65.8108 8.97411 65.8235 8.99967C65.8619 9.07637 65.913 9.15308 65.9514 9.21699C65.9642 9.24256 65.9769 9.26813 65.9897 9.2937C66.0153 9.34483 66.0409 9.39597 66.0664 9.45988C66.0792 9.48545 66.092 9.5238 66.1048 9.54937C66.1303 9.6005 66.1431 9.63886 66.1559 9.68999C66.1687 9.72834 66.1815 9.75391 66.1943 9.79226C66.207 9.84339 66.2198 9.88175 66.2326 9.93288C66.2454 9.97123 66.2582 9.9968 66.2582 10.0351C66.271 10.0863 66.2837 10.1374 66.2965 10.1886C66.3093 10.2141 66.3093 10.2525 66.3221 10.278C66.3349 10.3547 66.3477 10.4187 66.3604 10.4954C66.3604 10.5209 66.3605 10.5465 66.3732 10.5721C66.386 10.636 66.386 10.6999 66.386 10.7638C66.386 10.8022 66.386 10.8277 66.386 10.8661C66.386 10.9172 66.386 10.9684 66.386 11.0195C66.386 11.0578 66.386 11.0962 66.386 11.1218C66.386 11.1729 66.3732 11.2112 66.3732 11.2624C66.3732 11.3007 66.3604 11.3391 66.3604 11.3647C66.3604 11.4158 66.3477 11.4541 66.3349 11.5053C66.3349 11.5436 66.3221 11.5692 66.3093 11.6075C66.2965 11.6587 66.2838 11.7098 66.271 11.7609C66.2582 11.7865 66.2582 11.8121 66.2454 11.8376C66.1176 12.2595 65.9002 12.6558 65.5806 12.9882C65.5039 13.0649 65.44 13.1288 65.3633 13.1927C65.3378 13.2183 65.3122 13.2311 65.2866 13.2566C65.2355 13.295 65.1844 13.3333 65.1332 13.3717C64.7114 13.6657 64.2639 13.8063 63.8037 13.9597C63.0623 14.2026 62.7043 13.0777 63.4458 12.8348C63.5353 12.8092 63.612 12.7709 63.7014 12.7453C63.7142 12.7453 63.727 12.7325 63.7398 12.7325C64.6474 12.3873 65.3378 11.8376 65.1971 10.6488C64.9159 8.43719 62.308 7.51677 60.1476 8.8974C58.0766 10.2141 57.6036 14.2921 59.7769 16.2352C61.5027 17.7693 64.7881 18.3957 66.8974 17.3985C69.1856 16.3119 69.9271 14.1643 72.0875 13.4356C74.7338 12.5407 77.9936 13.295 80.2819 10.4314C80.8316 9.74113 80.8571 9.38318 80.9978 9.20421C80.3458 9.33205 80.1924 9.47267 79.0291 9.48545C75.9993 9.53659 73.7238 8.1943 71.9853 5.82932C69.7865 2.85073 70.1061 2.08371 65.325 2.81238C62.6276 3.22146 61.8862 2.91465 59.7129 1.29112C58.3962 0.306779 57.2585 -0.268486 55.5199 0.319562C55.0213 0.48575 54.625 0.766991 54.2543 1.0738C54.4716 1.27834 54.7273 1.52123 54.9574 1.76412Z" stroke="white" stroke-miterlimit="10"/>
<path d="M80.4476 19.2394C80.4732 19.2522 80.4987 19.2522 80.5115 19.2649C80.5115 19.2649 80.5243 19.2649 80.5243 19.2777C80.5371 19.2777 80.5499 19.2905 80.5499 19.2905C80.5754 19.3033 80.5882 19.3161 80.601 19.3289C80.6138 19.3416 80.6266 19.3416 80.6266 19.3544C80.6394 19.3672 80.6521 19.38 80.6649 19.4056C80.6777 19.4183 80.6777 19.4311 80.6905 19.4311C80.7033 19.4439 80.7161 19.4695 80.7161 19.4823C80.7161 19.4951 80.7288 19.4951 80.7288 19.5078V19.5206C80.7416 19.5462 80.7416 19.559 80.7544 19.5845C80.7544 19.5973 80.7672 19.6101 80.7672 19.6101C80.78 19.6357 80.78 19.674 80.78 19.7124C80.78 19.7252 80.78 19.7252 80.78 19.7379C80.78 19.7635 80.78 19.7891 80.78 19.8146C80.78 19.8274 80.78 19.8274 80.78 19.8402C80.78 19.853 80.78 19.853 80.78 19.8658C80.78 19.8913 80.78 19.9041 80.7672 19.9297C80.7672 19.9297 80.7672 19.9297 80.7672 19.9425C80.7672 19.9553 80.7544 19.968 80.7544 19.9808C80.7544 20.0064 80.7416 20.0192 80.7288 20.032C80.7288 20.0447 80.7161 20.0575 80.7161 20.0703C80.7033 20.0831 80.7033 20.1087 80.6905 20.1214C80.6777 20.1342 80.6777 20.147 80.6649 20.1598C80.6521 20.1726 80.6394 20.1854 80.6266 20.2109C80.6138 20.2237 80.6138 20.2365 80.601 20.2365C80.5882 20.2493 80.5626 20.2621 80.5499 20.2749C80.5371 20.2876 80.5371 20.2876 80.5243 20.3004C80.422 20.3516 80.307 20.3899 80.1664 20.3771C79.0925 20.2749 78.6962 21.8984 80.1536 22.5759C82.5185 23.6753 83.9759 20.8501 83.5924 19.3672C83.26 18.0633 82.0839 16.6699 80.4859 16.4525C79.0286 16.248 76.9449 16.7338 75.6409 17.373C72.4322 18.9581 72.1382 23.1767 66.7819 23.1512C64.1868 23.1384 61.9113 22.3075 59.6869 23.9054C59.0861 24.3401 58.677 24.8003 58.498 25.1327C59.5335 25.4778 61.1954 25.5417 62.5888 26.6667C64.3146 28.0601 64.8771 31.4734 67.4338 32.7006C69.965 33.915 72.4578 32.5727 75.1552 34.2218C77.7247 35.7942 79.7956 38.287 83.7841 37.7374C89.818 36.9192 92.0679 30.6296 97.9996 29.2618C98.8561 29.0572 102.218 28.7888 102.244 28.6609C102.32 28.1752 100.927 26.9479 100.416 26.5772C96.5678 23.8159 93.5509 25.2094 91.5566 24.5574C88.7058 23.637 88.872 21.1825 84.7301 20.8757C84.5639 21.4893 84.2827 22.0774 83.8992 22.5759C83.8608 22.6398 83.8097 22.691 83.7586 22.7421C83.7458 22.7549 83.733 22.7677 83.7202 22.7932C83.6819 22.8444 83.6435 22.8827 83.5924 22.9339C83.5796 22.9466 83.5668 22.9594 83.554 22.985C83.5029 23.0361 83.4518 23.0873 83.4006 23.1384L83.3878 23.1512C83.3239 23.2023 83.2728 23.2535 83.2089 23.3046C83.1961 23.3174 83.1833 23.3174 83.1705 23.3302C83.1194 23.3685 83.0682 23.4069 83.0171 23.4452C83.0043 23.458 82.9788 23.4708 82.966 23.4836C82.9148 23.5219 82.8637 23.5475 82.8126 23.5858C82.7998 23.5986 82.787 23.5986 82.7742 23.6114C82.7103 23.6497 82.6336 23.6881 82.5697 23.7264C82.5058 23.7648 82.4291 23.7904 82.3651 23.8159C82.3524 23.8287 82.3268 23.8287 82.314 23.8415C82.2629 23.8671 82.199 23.8799 82.1478 23.9054C82.1223 23.9054 82.1095 23.9182 82.0839 23.9182C82.02 23.9438 81.9433 23.9566 81.8794 23.9693C81.8666 23.9693 81.8666 23.9693 81.8538 23.9693C81.7771 23.9821 81.7004 23.9949 81.6109 24.0077C81.5981 24.0077 81.5853 24.0077 81.5726 24.0077C81.5086 24.0205 81.4447 24.0205 81.3808 24.0205C81.3552 24.0205 81.3424 24.0205 81.3169 24.0205C81.253 24.0205 81.189 24.0205 81.1251 24.0205C81.1123 24.0205 81.0868 24.0205 81.074 24.0205C80.9078 24.0077 80.7288 23.9949 80.5626 23.9566C80.5371 23.9566 80.5243 23.9438 80.4987 23.9438C80.4348 23.931 80.3581 23.9054 80.2942 23.8926C80.1024 23.8415 79.8979 23.7648 79.7061 23.6753C79.3482 23.5091 79.0414 23.3046 78.8113 23.0745C77.469 24.3656 76.3185 25.8102 76.9577 27.7917C77.7375 30.2206 81.2785 32.0486 83.4773 30.3484C85.6633 28.6609 83.6946 26.117 82.1862 27.242C81.4959 27.7533 82.0839 28.5331 81.9561 29.0061C81.9433 29.0445 81.9305 29.07 81.9177 29.0956C81.9177 29.0956 81.9177 29.0956 81.9177 29.1084C81.9049 29.1339 81.8794 29.1723 81.8538 29.1979C81.8538 29.1979 81.8538 29.1979 81.841 29.1979C81.8154 29.2234 81.7771 29.249 81.7387 29.2746C81.7387 29.2746 81.7387 29.2746 81.726 29.2746C81.6876 29.3001 81.6365 29.3129 81.5726 29.3385C81.3808 29.3896 81.2018 29.3385 81.0484 29.2106C81.0101 29.1723 80.9717 29.1339 80.9462 29.0956C80.9462 29.0828 80.9334 29.0828 80.9334 29.07C80.9078 29.0189 80.8695 28.9805 80.8439 28.9294C80.8183 28.8783 80.7928 28.8143 80.7672 28.7504C80.7672 28.7376 80.7544 28.7249 80.7544 28.7121C80.7288 28.6482 80.7161 28.5842 80.7033 28.5203C80.7033 28.5075 80.7033 28.4948 80.7033 28.4948C80.6905 28.4308 80.6777 28.3669 80.6777 28.2902C80.6777 28.2774 80.6777 28.2774 80.6777 28.2647C80.6777 28.1879 80.6649 28.124 80.6649 28.0473C80.6649 28.0345 80.6649 28.0218 80.6649 27.9962C80.6649 27.9195 80.6777 27.8428 80.6777 27.7661C80.6777 27.7533 80.6777 27.7405 80.6777 27.7277C80.6905 27.651 80.7033 27.5871 80.7161 27.5104C80.7161 27.4976 80.7161 27.4848 80.7288 27.4721C80.7416 27.3954 80.7672 27.3187 80.7928 27.242C80.7928 27.2292 80.8055 27.2036 80.8055 27.1908C80.8311 27.1141 80.8695 27.0374 80.9078 26.9735C80.9078 26.9607 80.9206 26.9607 80.9206 26.9479C80.9589 26.884 80.9973 26.8073 81.0484 26.7434C81.0612 26.7306 81.0612 26.7178 81.074 26.705C81.1251 26.6411 81.1763 26.5772 81.2274 26.5133C81.2402 26.4877 81.2657 26.4749 81.2785 26.4494C81.3297 26.3982 81.3808 26.3471 81.4319 26.3087C81.4447 26.296 81.4703 26.2832 81.4831 26.2704C81.547 26.2193 81.6237 26.1681 81.7132 26.117C81.726 26.117 81.726 26.1042 81.7387 26.1042C81.7515 26.0914 81.7771 26.0914 81.7899 26.0786C81.8538 26.0403 81.9305 26.0019 82.0072 25.9764C82.0328 25.9636 82.0583 25.9508 82.0967 25.938C82.199 25.8997 82.3012 25.8613 82.4163 25.8358C84.973 25.1966 87.1846 28.9422 84.1804 31.256C84.1037 31.3199 84.027 31.3711 83.9375 31.4222C83.912 31.435 83.8992 31.4478 83.8736 31.4606C83.7969 31.5117 83.7202 31.5501 83.6563 31.6012C83.6435 31.6012 83.6435 31.614 83.6307 31.614C83.5412 31.6651 83.4645 31.7035 83.3751 31.7418C83.3623 31.7546 83.3367 31.7546 83.3239 31.7674C83.2472 31.8057 83.1577 31.8441 83.081 31.8696C83.0682 31.8696 83.0682 31.8696 83.0555 31.8824C82.966 31.9208 82.8765 31.9463 82.7742 31.9719C82.7614 31.9719 82.7614 31.9719 82.7487 31.9719C82.6592 31.9975 82.5697 32.023 82.4674 32.0486H82.4546C82.2629 32.087 82.0583 32.1253 81.8538 32.1381C79.9618 32.3043 77.9548 31.3455 76.7276 29.8243C76.5102 29.5558 76.3185 29.2746 76.1523 28.9805C76.1523 28.9805 76.1523 28.9678 76.1395 28.9678C76.0372 28.776 75.9477 28.5715 75.8583 28.3797L75.8455 28.3541C75.8071 28.2519 75.7688 28.1496 75.7432 28.0473C75.7176 27.9451 75.6793 27.8428 75.6537 27.7405C75.6537 27.7277 75.6537 27.715 75.6409 27.7022C75.6154 27.5999 75.6026 27.4976 75.577 27.3954C75.577 27.3826 75.577 27.3698 75.577 27.357C75.5642 27.2547 75.5515 27.1525 75.5387 27.0502V27.0374C75.5259 26.9351 75.5259 26.8329 75.5259 26.7178C75.5259 26.6923 75.5259 26.6795 75.5259 26.6539C75.5259 26.5516 75.5259 26.4366 75.5387 26.3343V26.3215C75.5515 26.2193 75.5642 26.117 75.577 26.0147C75.577 25.9892 75.577 25.9764 75.5898 25.9508C75.6026 25.8485 75.6282 25.7463 75.6537 25.6312C75.6537 25.6184 75.6665 25.5929 75.6665 25.5801C75.6921 25.4778 75.7176 25.3883 75.7432 25.2861C75.7432 25.2733 75.756 25.2477 75.756 25.2349C75.7943 25.1326 75.8327 25.0176 75.871 24.9153C75.8838 24.8898 75.8966 24.8642 75.8966 24.8386C75.9477 24.7236 75.9861 24.6213 76.0372 24.5062C76.523 23.5347 77.29 22.7549 78.0954 22.0007C78.0698 21.9239 78.0571 21.8472 78.0443 21.7705C78.0443 21.745 78.0443 21.7194 78.0315 21.6938C78.0187 21.6427 78.0187 21.5788 78.0059 21.5277C78.0059 21.5021 78.0059 21.4637 78.0059 21.4382C78.0059 21.387 78.0059 21.3359 78.0059 21.2848C78.0059 21.2592 78.0059 21.2208 78.0187 21.1953C78.0187 21.1441 78.0315 21.093 78.0315 21.0419C78.0315 21.0163 78.0443 20.978 78.0443 20.9524C78.0571 20.9013 78.0571 20.8501 78.0698 20.799C78.0826 20.7734 78.0826 20.7351 78.0954 20.7095C78.1082 20.6584 78.121 20.6072 78.1465 20.5561C78.1593 20.5305 78.1721 20.4922 78.1849 20.4666C78.2105 20.4155 78.2232 20.3643 78.2488 20.3132C78.2616 20.2876 78.2744 20.2621 78.2999 20.2237C78.3255 20.1726 78.3511 20.1342 78.3766 20.0831C78.7346 19.5206 79.361 19.1115 80.2431 19.201C80.2814 19.201 80.3325 19.2138 80.3709 19.2266C80.3837 19.2266 80.3837 19.2266 80.3965 19.2394C80.4348 19.2394 80.4476 19.2394 80.4476 19.2394Z" stroke="white" stroke-miterlimit="10"/>
</g>
</g>
<defs>
<clipPath id="clip0">
<rect width="102.321" height="60.1472" fill="white"/>
</clipPath>
</defs>
</svg>
