<svg width="143" height="75" viewBox="0 0 143 75" fill="none" xmlns="http://www.w3.org/2000/svg">
<g opacity="0.4">
<g clip-path="url(#clip0)">
<path d="M42.8513 49.7743C43.8319 43.4594 46.9697 43.2829 49.9899 44.0477C53.52 44.9499 56.0107 52.167 48.4994 50.9314C56.8148 61.3844 66.5029 40.047 46.9893 37.3013C66.5029 34.5753 56.8148 13.2379 48.4994 23.6712C56.0107 22.4357 53.5396 29.6528 49.9899 30.5549C46.9697 31.3198 43.8515 31.1629 42.8513 24.8283C41.3412 15.101 53.1866 6.88369 70.1899 0.117676C51.8138 1.01981 36.9678 6.07961 34.5163 25.7697C24.8674 18.8272 11.6492 21.1217 5.53036 4.98136C4.29482 16.3953 12.9436 25.1813 29.0643 31.9866C18.6505 31.6728 12.6886 35.752 0.745117 37.3013C12.669 38.831 18.6505 42.9299 29.0643 42.6161C12.9632 49.4213 4.29482 58.2073 5.53036 69.6213C11.6492 53.4809 24.8478 55.7559 34.5163 48.833C36.9678 68.5231 51.7942 73.5829 70.1703 74.4654C53.1866 67.719 41.3216 59.4821 42.8513 49.7743ZM37.1247 40.4784C35.3596 40.4784 33.9476 39.0468 33.9476 37.3013C33.9476 35.5559 35.3793 34.1242 37.1247 34.1242C38.8897 34.1242 40.3018 35.5559 40.3018 37.3013C40.3018 39.0468 38.8897 40.4784 37.1247 40.4784Z" stroke="#32C1AE" stroke-miterlimit="10"/>
<path d="M113.708 42.6161C124.122 42.9299 130.084 38.8506 142.027 37.3013C130.103 35.7716 124.122 31.6728 113.708 31.9866C129.829 25.1813 138.478 16.3953 137.242 4.98136C131.123 21.1217 117.925 18.8468 108.256 25.7697C105.824 6.07961 90.9782 1.01981 72.6021 0.117676C89.6053 6.88369 101.451 15.101 99.9407 24.8283C98.9601 31.1433 95.8222 31.3198 92.802 30.5549C89.2719 29.6528 86.7813 22.4357 94.2925 23.6712C85.9772 13.2182 76.289 34.5557 95.8026 37.3013C76.289 40.0273 85.9772 61.3648 94.2925 50.9314C86.7813 52.167 89.2523 44.9499 92.802 44.0477C95.8222 43.2829 98.9405 43.4398 99.9407 49.7743C101.451 59.5017 89.6053 67.719 72.6021 74.485C90.9782 73.6025 105.824 68.5427 108.256 48.8526C117.925 55.7755 131.123 53.5005 137.242 69.6409C138.478 58.2073 129.829 49.4213 113.708 42.6161ZM105.706 40.4784C103.941 40.4784 102.529 39.0468 102.529 37.3013C102.529 35.5559 103.941 34.1242 105.706 34.1242C107.472 34.1242 108.884 35.5559 108.884 37.3013C108.884 39.0468 107.472 40.4784 105.706 40.4784Z" stroke="#32C1AE" stroke-miterlimit="10"/>
</g>
</g>
<defs>
<clipPath id="clip0">
<rect width="142.792" height="74.6027" fill="white"/>
</clipPath>
</defs>
</svg>
