<svg width="89" height="60" viewBox="0 0 89 60" fill="none" xmlns="http://www.w3.org/2000/svg">
<g clip-path="url(#clip0)">
<path d="M83.4477 29.541C85.8682 27.9763 87.5131 25.4087 88.0614 22.3329C89.0376 16.7965 86.8845 11.7682 78.6467 11.8217C76.1861 11.8351 73.7522 14.0684 72.8963 16.3017C70.9706 21.3433 76.253 24.8471 79.9172 23.1353C81.4283 22.4265 82.3511 19.899 80.88 18.0001C80.8934 20.2066 78.9944 21.2363 77.8042 20.902C75.8384 20.3537 75.4372 18.4414 76.8949 16.4622C78.8072 13.8544 85.5873 15.6197 84.1564 21.798C83.2471 25.7029 79.9172 27.5484 75.4105 26.1977C71.5056 25.0343 68.4565 22.012 66.0226 18.6019C66.6913 16.8366 67.0523 15.1249 67.1861 13.5469C67.7611 6.53938 63.3614 1.44426 57.076 0.334295C50.7372 -0.789039 44.9868 1.68497 45.0537 11.113C45.0537 11.367 45.0804 11.6211 45.1206 11.8752C44.7996 11.902 44.492 11.9287 44.1844 11.9688C43.8769 11.9287 43.5693 11.902 43.2483 11.8752C43.2884 11.6211 43.3152 11.367 43.3152 11.113C43.3821 1.68497 37.6317 -0.775666 31.2928 0.334295C25.0075 1.44426 20.6212 6.53938 21.1828 13.5469C21.3166 15.1249 21.6776 16.8366 22.3463 18.6019C19.9124 22.012 16.8633 25.0343 12.9584 26.1977C8.4517 27.5484 5.12182 25.7029 4.21245 21.798C2.78154 15.633 9.56166 13.8544 11.474 16.4622C12.9317 18.4414 12.5171 20.3537 10.5513 20.902C9.36107 21.2363 7.4621 20.2066 7.47547 18.0001C6.00444 19.899 6.92718 22.4265 8.43833 23.1353C12.1025 24.8471 17.3849 21.33 15.4592 16.3017C14.6033 14.0684 12.1694 11.8351 9.70877 11.8217C1.45761 11.7682 -0.695452 16.7831 0.28078 22.3196C0.829074 25.4087 2.47396 27.963 4.89448 29.5276C2.47396 31.0923 0.829074 33.6599 0.28078 36.7357C-0.695452 42.2721 1.45761 47.3004 9.69539 47.2469C12.156 47.2335 14.5899 45.0002 15.4458 42.7669C17.3715 37.7253 12.0892 34.2216 8.42496 35.9333C6.9138 36.6421 5.99106 39.1696 7.4621 41.0685C7.44872 38.862 9.3477 37.8323 10.5379 38.1666C12.5037 38.7149 12.9049 40.6272 11.4606 42.6064C9.54829 45.2142 2.76816 43.4489 4.19908 37.2706C5.10844 33.3657 8.43833 31.5202 12.945 32.8709C16.85 34.0477 19.899 37.0566 22.3329 40.4668C21.6643 42.232 21.3032 43.9437 21.1695 45.5218C20.5944 52.5292 24.9941 57.6244 31.2795 58.7343C37.6183 59.8577 43.3687 57.3836 43.3018 47.9557C43.3018 47.7016 43.2751 47.4475 43.235 47.1934C43.5559 47.1666 43.8635 47.1399 44.1711 47.0998C44.4786 47.1399 44.7862 47.1666 45.1072 47.1934C45.0671 47.4475 45.0403 47.7016 45.0403 47.9557C44.9735 57.3836 50.7239 59.8443 57.0627 58.7343C63.348 57.6244 67.7477 52.5292 67.1727 45.5218C67.039 43.9437 66.6779 42.232 66.0092 40.4668C68.4431 37.0566 71.4922 34.0343 75.3971 32.8709C79.9038 31.5202 83.2337 33.3657 84.1431 37.2706C85.574 43.4356 78.7939 45.2142 76.8815 42.6064C75.4238 40.6272 75.8384 38.7149 77.8042 38.1666C78.9944 37.8323 80.8934 38.862 80.88 41.0685C82.3511 39.1696 81.4283 36.6287 79.9172 35.9333C76.253 34.2216 70.9706 37.7387 72.8963 42.7669C73.7522 45.0002 76.1861 47.2335 78.6467 47.2469C86.8845 47.3004 89.0376 42.2721 88.0614 36.7357C87.5131 33.6733 85.8682 31.1056 83.4477 29.541ZM56.4475 4.78751C60.8874 5.81724 63.0003 9.58843 61.5159 14.6836C58.8145 19.3641 55.1771 24.3389 50.0017 26.064C50.6436 24.9407 51.0983 23.6836 51.339 22.3196C51.3925 22.0387 51.4326 21.7579 51.4594 21.4904C52.1815 20.5944 52.6095 19.4444 52.5426 18.1338C56.9691 18.1472 59.657 13.2125 57.9854 9.62855C57.183 7.90343 54.2811 6.84696 52.1013 8.53196C54.6288 8.51859 55.8056 10.6984 55.4178 12.0491C54.7893 14.2957 52.5961 14.7638 50.336 13.0922C47.3539 10.9124 49.3866 3.156 56.4475 4.78751ZM44.1711 36.7357C43.9036 36.388 43.5693 36.1205 43.2082 35.9467C42.6867 35.706 42.1116 35.5589 41.55 35.5187C42.1517 34.3687 43.0477 33.5128 44.1711 33.0046C45.2944 33.5128 46.1904 34.3687 46.7922 35.5187C46.2171 35.5589 45.6555 35.6926 45.1339 35.9467C44.7729 36.1072 44.4385 36.388 44.1711 36.7357ZM44.1711 22.3463C44.4385 22.694 44.7729 22.9615 45.1339 23.1353C45.6555 23.376 46.2305 23.5231 46.7922 23.5632C46.1904 24.7133 45.2944 25.5692 44.1711 26.0774C43.0477 25.5692 42.1517 24.7133 41.55 23.5632C42.125 23.5231 42.6867 23.3894 43.2082 23.1353C43.5693 22.9748 43.9036 22.694 44.1711 22.3463ZM47.6079 20.7683C47.4876 20.8218 47.3672 20.8619 47.2469 20.8886C46.5381 21.0892 45.5752 20.795 44.92 20.0729C44.9066 19.3775 44.6792 18.642 44.1711 18.0001C43.6629 18.6553 43.4489 19.3775 43.4222 20.0729C42.7669 20.8084 41.804 21.0892 41.0953 20.8886C40.9615 20.8485 40.8412 20.8084 40.7342 20.7683C40.4534 17.7995 42.232 16.0342 44.1711 15.4726C46.1102 16.0342 47.8888 17.7995 47.6079 20.7683ZM40.7342 38.3137C40.8546 38.2602 40.9749 38.2201 41.0953 38.1933C41.804 37.9928 42.7669 38.287 43.4222 39.0091C43.4356 39.7045 43.6629 40.4266 44.1577 41.0819C44.6659 40.4266 44.8798 39.7045 44.8932 39.0091C45.5485 38.2736 46.5114 37.9928 47.2201 38.1933C47.3539 38.2335 47.4742 38.2736 47.5812 38.3137C47.862 41.2825 46.0834 43.0478 44.1443 43.6094C42.232 43.0478 40.4534 41.2825 40.7342 38.3137ZM31.8946 4.78751C38.9556 3.156 40.9883 10.9124 37.9927 13.0922C35.7193 14.7504 33.5395 14.2824 32.911 12.0491C32.5232 10.685 33.7 8.51859 36.2275 8.53196C34.0611 6.84696 31.1591 7.90343 30.3434 9.62855C28.6717 13.2125 31.3597 18.1472 35.7862 18.1338C35.7193 19.4444 36.1473 20.5944 36.8694 21.4904C36.8961 21.7713 36.9496 22.0387 36.9898 22.3196C37.2305 23.6836 37.6852 24.9407 38.3271 26.064C33.1651 24.3389 29.5142 19.3775 26.8262 14.6836C25.3418 9.58843 27.4548 5.81724 31.8946 4.78751ZM17.6523 29.541C20.1397 28.3642 22.694 26.4786 25.0744 23.6702C26.5053 25.6762 28.3775 27.6688 30.7847 29.541C28.3775 31.4266 26.5053 33.4058 25.0744 35.4118C22.694 32.6034 20.1397 30.7178 17.6523 29.541ZM31.8946 54.2945C27.4548 53.2648 25.3418 49.4936 26.8262 44.3851C29.5276 39.7045 33.1651 34.7297 38.3271 33.0046C37.6852 34.1279 37.2305 35.385 36.9898 36.7491C36.9363 37.0299 36.8961 37.2974 36.8694 37.5782C36.1473 38.4742 35.7193 39.6243 35.7862 40.9348C31.3597 40.9081 28.6717 45.8561 30.3434 49.4401C31.1457 51.1652 34.0477 52.2217 36.2275 50.5367C33.7 50.55 32.5232 48.3702 32.911 47.0195C33.5395 44.7729 35.7327 44.3048 37.9927 45.9764C40.9883 48.1696 38.9556 55.926 31.8946 54.2945ZM56.4475 54.2945C49.3866 55.926 47.3539 48.1696 50.3494 45.9898C52.6228 44.3316 54.8026 44.7996 55.4312 47.0329C55.819 48.397 54.6422 50.5634 52.1147 50.55C54.2811 52.235 57.183 51.1786 57.9988 49.4534C59.6704 45.8695 56.9691 40.9214 52.556 40.9482C52.6228 39.6376 52.1949 38.4876 51.4727 37.5916C51.446 37.3107 51.3925 37.0433 51.3524 36.7624C51.1117 35.3984 50.657 34.1413 50.0151 33.018C55.1904 34.7431 58.8279 39.7045 61.5159 44.3984C63.0003 49.4936 60.8874 53.2648 56.4475 54.2945ZM63.2678 35.4118C61.8368 33.4058 59.9646 31.4132 57.5575 29.541C59.9646 27.6554 61.8368 25.6762 63.2678 23.6702C65.6482 26.4786 68.2024 28.3642 70.6898 29.541C68.2024 30.7178 65.6482 32.6034 63.2678 35.4118Z" stroke="#E58409" stroke-miterlimit="10"/>
</g>
<defs>
<clipPath id="clip0">
<rect width="88.3422" height="59.0821" fill="white"/>
</clipPath>
</defs>
</svg>
