<svg width="261" height="154" viewBox="0 0 261 154" fill="none" xmlns="http://www.w3.org/2000/svg">
<path d="M173.85 143.636C173.703 143.369 173.55 143.093 173.407 142.802C173.396 142.782 173.387 142.76 173.377 142.739C173.236 142.459 173.096 142.167 172.959 141.868C172.929 141.804 172.9 141.742 172.871 141.677C172.73 141.365 172.591 141.043 172.454 140.712C172.427 140.646 172.402 140.578 172.375 140.512C172.235 140.162 172.097 139.806 171.967 139.437C171.437 137.952 171.051 136.421 170.815 134.862C170.804 134.789 170.793 134.716 170.783 134.643C170.734 134.28 170.693 133.915 170.663 133.545C170.663 133.494 170.658 133.446 170.654 133.394C170.629 133.052 170.614 132.709 170.61 132.366C170.61 132.308 170.61 132.249 170.61 132.19C170.61 131.824 170.621 131.458 170.643 131.093C170.643 131.016 170.654 130.939 170.66 130.862C170.689 130.486 170.727 130.109 170.785 129.734L169.93 129.791C168.93 129.841 167.927 129.794 166.936 129.651C165.786 129.474 164.657 129.175 163.57 128.759C162.424 128.323 161.322 127.781 160.277 127.141C158.789 126.186 157.356 125.147 155.986 124.031C155.201 123.419 154.363 122.764 153.292 121.972C151.939 120.968 150.398 119.894 148.801 118.939V118.933C147.31 118.016 145.724 117.261 144.072 116.681C142.646 116.221 141.164 115.963 139.666 115.913C138.23 115.873 136.793 115.918 135.363 116.049L134.871 116.085C132.168 116.458 129.42 116.356 126.751 115.786C125.336 115.374 123.984 114.773 122.729 114C121.545 113.281 120.406 112.491 119.318 111.634C118.244 110.803 117.268 109.993 116.541 109.317C115.916 108.804 115.4 108.172 115.023 107.457C114.878 107.129 114.827 106.768 114.874 106.412L114.635 106.59C113.08 107.737 111.305 108.553 109.422 108.985C107.638 109.404 105.779 109.381 104.006 108.917C102.475 108.49 101.073 107.69 99.9274 106.589C98.7496 105.456 97.8435 104.071 97.2778 102.537C96.7583 101.137 96.5212 99.6481 96.5796 98.1558C96.6026 96.7698 97.0058 95.4167 97.7451 94.2441C98.4631 93.2331 99.4873 92.4802 100.667 92.0967C100.924 92.0029 101.183 91.921 101.442 91.8492C101.534 91.8232 101.627 91.8033 101.719 91.7804C101.888 91.7374 102.058 91.6925 102.227 91.6556C102.34 91.6317 102.454 91.6097 102.566 91.5878C102.72 91.5578 102.872 91.5258 103.026 91.4969L103.436 91.4252L103.87 91.3502C104.055 91.3073 104.248 91.3029 104.435 91.3371C104.623 91.3713 104.801 91.4434 104.96 91.5492C105.118 91.6549 105.254 91.7918 105.357 91.9517C105.461 92.1116 105.53 92.2911 105.562 92.4789C105.594 92.6668 105.587 92.8592 105.541 93.0443C105.496 93.2293 105.413 93.403 105.298 93.5549C105.183 93.7068 105.038 93.8336 104.872 93.9274C104.707 94.0212 104.523 94.08 104.334 94.1004C104.114 94.1373 103.893 94.1752 103.674 94.2141L103.453 94.2551C103.303 94.283 103.153 94.3109 103.009 94.3398C102.921 94.3578 102.836 94.3768 102.75 94.3957C102.622 94.4237 102.494 94.4536 102.37 94.4845C102.285 94.5065 102.202 94.5295 102.12 94.5514C102.067 94.5664 102.011 94.5793 101.959 94.5943L101.999 94.5893C101.869 94.6282 101.736 94.6652 101.617 94.7081C101.446 94.7702 101.28 94.8422 101.118 94.9237C101.067 94.9486 101.018 94.9805 100.972 95.0075C100.869 95.0636 100.769 95.1252 100.673 95.192C100.655 95.204 100.635 95.213 100.618 95.226L100.646 95.2141C100.413 95.3775 100.211 95.5801 100.047 95.8128C99.6021 96.5566 99.3659 97.4066 99.3637 98.2735C99.321 99.3951 99.4999 100.514 99.8904 101.566C100.31 102.704 100.982 103.733 101.855 104.574C102.667 105.36 103.662 105.933 104.749 106.24C106.085 106.582 107.483 106.592 108.823 106.27C110.333 105.923 111.754 105.269 113 104.35C114.525 103.218 115.802 101.785 116.75 100.139C117.68 98.5612 118.256 96.8006 118.441 94.9785C118.609 92.9255 118.306 90.8612 117.554 88.9434C117.013 87.5301 116.248 86.2133 115.288 85.0437L115.177 84.9119C114.856 84.5332 114.513 84.1734 114.151 83.8343C112.547 82.3698 110.628 81.2934 108.543 80.688C106.172 79.9944 103.694 79.747 101.233 79.9585C97.207 80.4547 93.2418 81.3599 89.3996 82.6598C87.6373 83.1847 85.8944 83.7046 84.1861 84.1437C81.4878 84.8605 78.7339 85.3481 75.9536 85.6015C73.7835 85.822 71.5923 85.7117 69.4553 85.2742C67.6624 84.8159 65.9579 84.0628 64.4118 83.0459C63.916 82.7001 63.3769 82.421 62.8083 82.2158L62.7484 82.2097C62.6975 82.2097 62.6229 82.2896 62.5301 82.4343C62.2443 82.9714 62.0804 83.5649 62.0502 84.1725C62.001 84.6716 61.9879 85.1735 62.0112 85.6744C62.1136 87.574 62.4855 89.4495 63.1158 91.2445C63.6609 92.8982 64.4695 94.453 65.5106 95.8487C67.5771 98.507 70.7493 100.101 74.0792 101.773L74.9406 102.206C76.9082 103.175 78.8251 104.242 80.6843 105.405C82.5793 106.586 84.3188 108 85.8622 109.613C87.8359 111.896 89.5454 114.394 90.9583 117.06C91.6508 118.258 92.3552 119.47 93.1635 120.728C94.4654 122.791 95.9574 124.729 97.6193 126.515C98.9622 127.968 100.495 129.232 102.177 130.273C103.93 131.3 105.837 132.04 107.825 132.463C109.971 132.916 112.153 133.185 114.345 133.266C115.747 133.337 117.29 133.366 118.836 133.397C122.149 133.375 125.459 133.6 128.739 134.071C130.967 134.463 133.146 135.094 135.238 135.953C137.141 136.737 138.979 137.672 140.734 138.747C142.981 140.11 144.915 141.548 146.899 143.023C147.759 143.663 148.634 144.311 149.74 145.099C151.269 146.206 152.862 147.223 154.51 148.144C156.118 149.05 157.831 149.753 159.611 150.24C161.306 150.667 163.054 150.839 164.8 150.751C166.659 150.658 168.498 150.314 170.265 149.729C171.564 149.296 172.83 148.768 174.051 148.149C174.771 147.789 175.497 147.395 176.228 146.979C175.48 146.225 174.836 145.375 174.315 144.45C174.162 144.196 174.007 143.923 173.85 143.636Z" stroke="#003573" stroke-width="0.6" stroke-miterlimit="10"/>
<path d="M201.893 149.598C203.982 148.614 205.956 147.404 207.781 145.99C209.625 144.593 211.383 143.028 213.009 141.521L214.513 140.115C217.198 137.588 219.576 135.35 222.396 133.841C224.09 132.955 225.896 132.3 227.764 131.893C229.589 131.493 231.441 131.226 233.305 131.094C234.32 131.012 235.419 130.955 236.518 130.895C238.995 130.824 241.464 130.571 243.903 130.137C247.582 129.387 251.063 127.876 254.123 125.702C255.64 124.617 257.057 123.398 258.358 122.062C258.948 121.467 259.497 120.834 260.002 120.166H259.373C258.64 120.166 257.785 120.166 256.86 120.097C254.94 119.939 253.049 119.525 251.238 118.866C249.454 118.225 247.766 117.34 246.222 116.239C243.38 113.986 240.822 111.396 238.604 108.526L237.124 106.783C235.781 105.195 234.354 103.679 232.849 102.244C231.428 100.889 229.866 99.6905 228.19 98.6675C226.576 97.7169 224.863 96.9447 223.082 96.3644C221.104 95.7168 219.071 95.2492 217.008 94.9673C215.479 94.7528 213.976 94.632 212.505 94.5153C210.077 94.3938 207.666 94.0599 205.296 93.5174C203.351 93.0071 201.493 92.2068 199.786 91.1435C197.808 89.8934 195.964 88.4433 194.283 86.8158C192.827 85.4447 191.266 83.8221 189.639 82.1257C187.144 79.4353 184.51 76.8779 181.746 74.4641C179.683 72.7091 177.426 71.1961 175.019 69.9546C172.932 68.882 170.699 68.1245 168.391 67.7065C166.205 67.3376 163.978 67.2936 161.78 67.5758C159.337 67.8942 156.942 68.5114 154.65 69.4138C150.248 71.2905 146.023 73.5567 142.024 76.1854L141.196 76.6943C138.99 78.0474 136.838 79.3487 134.731 80.4862C132.677 81.62 130.535 82.585 128.325 83.3721C126.356 84.0343 124.331 84.5198 122.275 84.8229C121.093 85.0066 119.949 85.1423 118.823 85.254C119.771 86.8249 120.458 88.5393 120.856 90.3303C120.926 90.6396 120.987 90.9502 121.04 91.2622C121.053 91.3371 121.068 91.4109 121.079 91.4857C121.136 91.8643 121.18 92.2429 121.211 92.6214C121.218 92.7112 121.222 92.801 121.228 92.8908C121.248 93.1902 121.256 93.4895 121.258 93.7888C121.258 93.8946 121.258 94.0015 121.258 94.1072C121.252 94.4834 121.237 94.8585 121.202 95.2287C121.078 96.5197 120.787 97.7891 120.335 99.0048C120.187 99.4099 120.024 99.803 119.844 100.196C119.821 100.248 119.795 100.296 119.77 100.352C119.578 100.751 119.37 101.15 119.153 101.534C118.918 101.942 118.661 102.333 118.394 102.714C118.311 102.833 118.224 102.946 118.138 103.062C117.944 103.325 117.746 103.581 117.539 103.83C117.12 104.34 116.671 104.825 116.195 105.282C116.702 105.198 117.217 105.174 117.73 105.211C118.21 105.221 118.807 105.235 119.426 105.211H119.481C119.626 105.206 119.787 105.195 119.94 105.186C120.067 105.179 120.186 105.175 120.318 105.165C120.504 105.152 120.703 105.133 120.897 105.115C121.023 105.104 121.142 105.095 121.271 105.082C121.492 105.06 121.724 105.031 121.957 105.003C122.073 104.989 122.182 104.979 122.302 104.963C122.655 104.918 123.022 104.863 123.4 104.81C124.797 104.598 126.338 104.298 127.944 103.912C129.7 103.489 131.434 102.976 133.138 102.376C134.77 101.803 136.369 101.141 137.928 100.392C139.304 99.7272 140.681 98.9698 142.07 98.2054C144.022 97.1327 146 96.0431 148.14 95.112C150.019 94.3026 151.953 93.6287 153.928 93.0954C155.906 92.5543 157.921 92.1542 159.956 91.898C161.824 91.6599 163.708 91.579 165.589 91.6564H165.711C167.476 91.7382 169.227 92.0058 170.936 92.4547C172.605 92.9003 174.218 93.534 175.744 94.3437C177.31 95.1805 178.796 96.1578 180.185 97.2635C181.239 98.0917 182.314 99.0376 183.426 100.016C185.216 101.654 187.106 103.178 189.087 104.58C190.769 105.717 192.543 106.713 194.389 107.556C196.114 108.36 197.911 109 199.755 109.468C201.356 109.831 202.984 110.068 204.623 110.176C205.964 110.263 207.298 110.443 208.614 110.716C209.902 111.026 211.156 111.46 212.36 112.013C213.739 112.641 215.073 113.365 216.351 114.179C217.008 114.587 217.641 115.031 218.248 115.51C218.598 115.783 218.918 116.095 219.2 116.439L219.3 116.562C219.531 116.832 219.675 117.166 219.711 117.52C219.748 117.873 219.676 118.229 219.506 118.541L219.454 118.632L219.334 118.806C218.743 119.535 217.691 119.617 216.282 119.728C215.691 119.774 215.013 119.827 214.309 119.927C213.261 120.08 212.23 120.329 211.228 120.669C210.217 121.014 209.239 121.448 208.306 121.967C207.402 122.466 206.51 123.064 205.633 123.642C205.233 123.908 204.834 124.169 204.435 124.426C203.578 124.998 202.678 125.501 201.741 125.93C200.163 126.592 198.462 126.906 196.752 126.85C196.747 127.937 196.572 129.017 196.232 130.05C195.827 131.294 195.104 132.411 194.136 133.292C193.165 134.158 191.968 134.728 190.683 134.936C190.512 134.965 190.336 134.988 190.161 135.006C190.098 135.012 190.031 135.014 189.968 135.018C189.853 135.027 189.739 135.036 189.62 135.04C189.546 135.04 189.47 135.04 189.394 135.04C189.285 135.04 189.176 135.04 189.064 135.04C188.987 135.04 188.907 135.029 188.829 135.024C188.718 135.017 188.606 135.012 188.493 135C187.694 134.916 186.908 134.742 186.148 134.48C186.064 134.451 185.983 134.415 185.907 134.37C185.882 134.356 185.859 134.339 185.835 134.323C185.787 134.293 185.741 134.259 185.696 134.224C185.672 134.203 185.648 134.179 185.625 134.157C185.602 134.135 185.553 134.083 185.52 134.043C185.487 134.003 185.478 133.99 185.458 133.962C185.289 133.723 185.199 133.436 185.203 133.142C185.207 132.849 185.303 132.564 185.479 132.329C185.654 132.094 185.9 131.92 186.18 131.833C186.461 131.747 186.761 131.751 187.039 131.846C187.309 131.938 187.573 132.009 187.831 132.069C187.911 132.088 187.988 132.101 188.067 132.117C188.247 132.153 188.422 132.184 188.596 132.205C188.679 132.215 188.762 132.224 188.844 132.232C189.018 132.247 189.187 132.253 189.352 132.253C189.419 132.253 189.487 132.253 189.552 132.253C189.576 132.253 189.603 132.253 189.628 132.253L189.602 132.248C189.808 132.241 190.014 132.221 190.218 132.189C190.984 132.069 191.7 131.734 192.282 131.221C192.89 130.66 193.34 129.95 193.59 129.161C194.009 127.785 194.082 126.326 193.803 124.914C193.644 123.901 193.19 122.957 192.497 122.199C191.805 121.442 190.906 120.905 189.911 120.656C188.112 120.08 186.2 119.947 184.339 120.268C183.826 120.352 183.321 120.479 182.829 120.648C172.214 124.396 172.53 132.667 174.595 138.515C175.148 140.079 175.853 141.585 176.701 143.011C178.436 145.487 180.651 147.588 183.214 149.191C185.028 150.251 187.016 150.983 189.085 151.352C191.199 151.722 193.359 151.757 195.484 151.458C197.7 151.153 199.859 150.527 201.893 149.598V149.598Z" stroke="#003573" stroke-width="0.6" stroke-miterlimit="10"/>
<path d="M124.145 111.62C125.184 112.261 126.303 112.759 127.475 113.103C129.838 113.578 132.264 113.652 134.651 113.32L135.142 113.283C136.683 113.143 138.23 113.094 139.777 113.137C141.53 113.197 143.266 113.502 144.934 114.043C146.779 114.689 148.549 115.529 150.215 116.55C151.903 117.556 153.523 118.686 154.947 119.744C155.857 120.418 156.806 121.159 157.691 121.849C158.978 122.898 160.322 123.873 161.718 124.772C162.615 125.32 163.562 125.784 164.545 126.158C165.448 126.505 166.385 126.755 167.34 126.903C168.154 127.019 168.978 127.056 169.799 127.013C170.41 126.985 170.985 126.931 171.549 126.868C171.898 125.977 172.349 125.129 172.891 124.34C172.931 124.282 172.973 124.225 173.014 124.167C173.109 124.034 173.207 123.901 173.307 123.768C173.355 123.706 173.407 123.644 173.452 123.582C173.567 123.438 173.687 123.294 173.811 123.151C173.845 123.112 173.877 123.073 173.911 123.035C174.069 122.856 174.235 122.681 174.41 122.508C174.457 122.46 174.51 122.413 174.554 122.365C174.686 122.236 174.821 122.108 174.96 121.981L175.147 121.813C175.283 121.693 175.424 121.575 175.567 121.458C175.667 121.377 175.766 121.296 175.867 121.215C175.99 121.12 176.115 121.025 176.243 120.932C176.349 120.854 176.457 120.776 176.567 120.699C176.701 120.606 176.837 120.514 176.975 120.422C177.089 120.348 177.203 120.273 177.32 120.2C177.465 120.109 177.619 120.019 177.766 119.93C177.885 119.86 178.003 119.791 178.125 119.722C178.285 119.632 178.452 119.544 178.618 119.456C178.698 119.414 178.778 119.371 178.86 119.33L179.1 119.21C179.245 119.138 179.391 119.068 179.54 118.999L179.714 118.916L179.954 118.808L180.003 118.786C180.184 118.705 180.372 118.627 180.56 118.548L180.66 118.506L180.791 118.452L180.944 118.39C181.258 118.266 181.579 118.143 181.913 118.026C182.552 117.804 183.209 117.637 183.876 117.527C184.13 117.484 184.392 117.449 184.655 117.42C184.743 117.41 184.834 117.405 184.923 117.396C185.103 117.379 185.282 117.363 185.464 117.353C185.573 117.347 185.683 117.345 185.793 117.341C185.96 117.335 186.126 117.33 186.292 117.329C186.412 117.329 186.532 117.329 186.653 117.335C188.068 117.352 189.472 117.588 190.816 118.033C191.098 118.133 191.374 118.242 191.645 118.361C191.713 118.391 191.78 118.422 191.845 118.454C191.892 118.476 191.936 118.501 191.983 118.523C192.15 118.603 192.315 118.685 192.476 118.774C192.529 118.804 192.582 118.832 192.635 118.862C192.827 118.973 193.014 119.09 193.196 119.215C193.248 119.251 193.302 119.283 193.354 119.315C193.582 119.477 193.802 119.65 194.012 119.835C194.066 119.882 194.112 119.935 194.167 119.982C194.324 120.127 194.475 120.282 194.62 120.434C194.683 120.504 194.745 120.576 194.807 120.648C194.941 120.804 195.066 120.969 195.188 121.138C195.238 121.207 195.288 121.273 195.338 121.345C195.693 121.876 195.98 122.449 196.192 123.052C196.309 123.384 196.405 123.723 196.48 124.067C197.897 124.14 199.313 123.905 200.631 123.38C201.838 122.793 202.994 122.108 204.089 121.331C205.034 120.705 205.995 120.066 206.95 119.535C208.032 118.936 209.165 118.435 210.336 118.038C211.497 117.644 212.691 117.357 213.905 117.18C214.489 117.095 215.055 117.042 215.573 117L214.854 116.532C213.688 115.786 212.472 115.124 211.213 114.549C210.175 114.072 209.094 113.698 207.983 113.43C206.793 113.186 205.588 113.024 204.376 112.946C202.595 112.829 200.827 112.571 199.087 112.177C197.072 111.662 195.11 110.961 193.226 110.081C191.235 109.173 189.323 108.101 187.51 106.876C185.435 105.411 183.455 103.816 181.58 102.102C180.527 101.175 179.507 100.279 178.456 99.4518C177.2 98.4493 175.854 97.5629 174.437 96.8036C173.095 96.09 171.676 95.5312 170.208 95.138C168.688 94.743 167.132 94.5089 165.563 94.4396L165.447 94.4286C163.725 94.3595 162 94.4349 160.291 94.6541C158.386 94.8932 156.499 95.2671 154.647 95.7728C152.802 96.2725 150.995 96.9031 149.239 97.6598C147.202 98.5429 145.29 99.5956 143.403 100.632C141.989 101.41 140.59 102.18 139.129 102.886C137.477 103.681 135.782 104.385 134.052 104.994C132.258 105.626 130.433 106.165 128.584 106.611C126.95 107.01 125.324 107.318 123.815 107.548C122.394 107.773 120.962 107.917 119.525 107.981L119.236 107.989C119.759 108.436 120.365 108.924 121.014 109.426C122.013 110.219 123.059 110.951 124.145 111.62V111.62Z" stroke="#003573" stroke-width="0.6" stroke-miterlimit="10"/>
<path d="M157.344 8.02384C157.399 8.04375 157.454 8.0667 157.507 8.09266L157.54 8.11069C157.565 8.12466 157.589 8.13957 157.612 8.15454C157.659 8.18474 157.705 8.21805 157.748 8.2543C157.774 8.27725 157.801 8.30125 157.825 8.3252C157.863 8.36191 157.898 8.40097 157.931 8.44201C157.952 8.46796 157.972 8.49388 157.991 8.52083V8.52679C158.02 8.56998 158.047 8.61464 158.071 8.66054C158.082 8.6825 158.094 8.70437 158.104 8.72632C158.114 8.74827 158.112 8.74328 158.117 8.75227C158.138 8.80434 158.156 8.85769 158.171 8.91196C158.179 8.93691 158.19 8.96083 158.196 8.98578C158.215 9.06452 158.227 9.14457 158.233 9.22526C158.233 9.24621 158.233 9.26618 158.233 9.28714C158.237 9.34928 158.237 9.4116 158.233 9.47375C158.233 9.49171 158.233 9.50865 158.233 9.52661C158.233 9.54458 158.228 9.56561 158.225 9.58557C158.219 9.63546 158.211 9.68531 158.201 9.73321V9.75111C158.193 9.78304 158.182 9.81409 158.173 9.84503C158.158 9.89293 158.143 9.94481 158.124 9.98572C158.105 10.0266 158.094 10.0526 158.079 10.0855C158.064 10.1184 158.032 10.1712 158.006 10.2131C157.98 10.2551 157.968 10.2711 157.948 10.298V10.304C157.917 10.3434 157.884 10.381 157.848 10.4168C157.824 10.4418 157.802 10.4686 157.776 10.4916C157.733 10.5279 157.688 10.5612 157.64 10.5914C157.617 10.6073 157.595 10.6273 157.569 10.6423C157.301 10.7969 156.992 10.8612 156.685 10.8258C154.049 10.5884 153.056 14.5888 156.652 16.2613C162.476 18.9695 166.1 11.9924 165.151 8.32617C164.319 5.11901 161.416 1.67236 157.477 1.11754C153.893 0.613616 148.751 1.79714 145.527 3.38675C137.612 7.28644 136.871 17.7262 123.646 17.6433C117.247 17.6034 111.633 15.5718 106.148 19.5193C104.974 20.3112 103.978 21.3372 103.221 22.5329C105.782 23.3901 109.888 23.5308 113.307 26.3069C117.552 29.7545 118.955 38.1646 125.282 41.1962C131.531 44.1898 137.691 40.8967 144.35 44.9621C150.698 48.8398 155.789 54.9997 165.654 53.6536C180.532 51.6239 186.111 36.121 200.726 32.7292C202.846 32.2363 211.135 31.5736 211.185 31.2403C211.366 30.0519 207.931 27.0114 206.674 26.1074C197.169 19.2789 189.723 22.7145 184.797 21.1329C177.772 18.8727 178.185 12.8047 167.964 12.0403C167.564 13.5577 166.871 14.9817 165.922 16.2313C165.812 16.3757 165.698 16.5165 165.581 16.6535L165.481 16.7712C165.381 16.8849 165.281 16.9957 165.177 17.1035C165.142 17.1404 165.107 17.1784 165.07 17.2153C164.941 17.3483 164.811 17.4743 164.678 17.5934L164.649 17.6193C164.502 17.7521 164.349 17.8798 164.196 18.0026L164.103 18.0735C163.98 18.1686 163.855 18.2604 163.727 18.3489L163.597 18.4367C163.47 18.5215 163.341 18.6033 163.209 18.6812C163.173 18.7021 163.139 18.7241 163.103 18.744C162.933 18.8438 162.761 18.9346 162.583 19.0194H162.575C162.406 19.1013 162.234 19.1751 162.059 19.2439L161.924 19.2949C161.786 19.3467 161.645 19.3947 161.504 19.4396L161.357 19.4844C161.192 19.533 161.026 19.5756 160.858 19.6122L160.798 19.6261C160.605 19.667 160.406 19.7 160.207 19.7259C160.171 19.7259 160.135 19.7329 160.1 19.7369C159.939 19.7549 159.776 19.7678 159.613 19.7767L159.447 19.7828C159.289 19.7875 159.13 19.7875 158.97 19.7828C158.922 19.7828 158.875 19.7828 158.827 19.7828C158.401 19.7598 157.976 19.7041 157.558 19.6162L157.398 19.5803C157.233 19.5423 157.066 19.4991 156.899 19.4505C156.4 19.3064 155.912 19.1239 155.44 18.9047C154.625 18.5365 153.875 18.0372 153.22 17.4268C149.899 20.6269 147.075 24.1844 148.645 29.081C150.565 35.0742 159.313 39.5816 164.748 35.3925C170.155 31.2234 165.298 24.9588 161.567 27.7308C159.87 28.9872 161.32 30.913 160.994 32.0725C160.971 32.1554 160.937 32.235 160.894 32.3091L160.88 32.33C160.833 32.407 160.774 32.4772 160.708 32.5386L160.69 32.5536C160.611 32.6235 160.522 32.6834 160.428 32.7321L160.411 32.7402C160.291 32.8 160.166 32.8485 160.038 32.8849C159.814 32.9507 159.578 32.9549 159.352 32.8971C159.127 32.8393 158.922 32.7216 158.758 32.5565C158.663 32.4694 158.576 32.3735 158.5 32.2701C158.487 32.2542 158.476 32.2363 158.464 32.2193C158.382 32.105 158.308 31.9845 158.245 31.859L158.237 31.8451C158.168 31.7061 158.109 31.5627 158.059 31.416C158.049 31.388 158.039 31.3611 158.03 31.3331C157.98 31.1784 157.937 31.0212 157.903 30.8621C157.903 30.8372 157.895 30.8113 157.889 30.7863C157.858 30.6277 157.833 30.465 157.818 30.2974C157.818 30.2784 157.813 30.2604 157.811 30.2415C157.796 30.0659 157.79 29.8842 157.792 29.7016C157.792 29.6637 157.792 29.6258 157.792 29.5869C157.797 29.4033 157.81 29.2177 157.834 29.0311C157.834 29.0041 157.842 28.9772 157.846 28.9503C157.871 28.7747 157.904 28.5983 157.946 28.4214C157.953 28.3925 157.959 28.3635 157.966 28.3336C158.013 28.147 158.072 27.9614 158.139 27.7768C158.154 27.7359 158.17 27.6959 158.185 27.657C158.257 27.4689 158.339 27.285 158.432 27.1062C158.443 27.0852 158.456 27.0653 158.468 27.0443C158.559 26.8726 158.658 26.706 158.767 26.5454C158.788 26.5154 158.807 26.4855 158.828 26.4566L158.835 26.4476C158.952 26.2874 159.079 26.1342 159.214 25.9886C159.258 25.9397 159.305 25.8888 159.352 25.8449C159.476 25.7197 159.607 25.6012 159.743 25.4897C159.785 25.4547 159.825 25.4187 159.868 25.3898C160.046 25.2537 160.232 25.1288 160.425 25.0156L160.488 24.9777C160.526 24.9557 160.567 24.9358 160.605 24.9148C160.778 24.821 160.959 24.7342 161.15 24.6534C161.219 24.6245 161.287 24.5955 161.359 24.5685C161.617 24.4685 161.882 24.3842 162.15 24.3161C168.464 22.7515 173.918 31.9898 166.518 37.6936C166.326 37.8413 166.131 37.978 165.933 38.1107L165.782 38.2105C165.602 38.3272 165.418 38.439 165.234 38.5428L165.178 38.5758C164.971 38.6905 164.761 38.7972 164.548 38.897L164.427 38.9519C164.228 39.0417 164.028 39.1255 163.829 39.2024L163.774 39.2233C163.546 39.3091 163.317 39.387 163.086 39.4568L163.036 39.4708C162.812 39.5377 162.583 39.5965 162.356 39.6484L162.327 39.6554C161.84 39.764 161.347 39.8407 160.851 39.8849C158.441 40.0065 156.037 39.5531 153.837 38.562C151.637 37.5709 149.705 36.0706 148.199 34.1851C147.67 33.5336 147.2 32.836 146.795 32.1006C146.788 32.0886 146.782 32.0766 146.775 32.0646C146.517 31.5909 146.289 31.1017 146.092 30.5997C146.083 30.5748 146.072 30.5509 146.063 30.5259C145.964 30.2764 145.879 30.0269 145.8 29.7685C145.722 29.518 145.654 29.2646 145.593 29.0091C145.587 28.9822 145.579 28.9563 145.573 28.9293C145.515 28.6779 145.466 28.4244 145.425 28.1679C145.425 28.134 145.416 28.1001 145.41 28.0681C145.373 27.8197 145.342 27.5691 145.321 27.3167C145.321 27.3037 145.321 27.2908 145.321 27.2778C145.3 27.0204 145.291 26.7619 145.288 26.5004C145.288 26.4515 145.288 26.4007 145.288 26.3547C145.288 26.0943 145.296 25.8319 145.316 25.5685C145.316 25.5565 145.316 25.5435 145.316 25.5316C145.335 25.2801 145.365 25.0266 145.402 24.7732C145.41 24.7213 145.417 24.6734 145.425 24.6175C145.466 24.3594 145.517 24.0999 145.577 23.8391C145.587 23.7932 145.599 23.7463 145.611 23.7004C145.668 23.4622 145.735 23.2238 145.811 22.985C145.824 22.9441 145.834 22.9041 145.848 22.8632C145.931 22.6017 146.027 22.3403 146.132 22.0779C146.155 22.02 146.179 21.9622 146.203 21.9033C146.315 21.6349 146.433 21.3654 146.566 21.0959C147.879 18.7525 149.595 16.6584 151.634 14.9092C151.577 14.7184 151.531 14.5245 151.497 14.3284C151.486 14.2665 151.484 14.2017 151.475 14.1389C151.455 14.0021 151.435 13.8644 151.427 13.7247C151.422 13.6489 151.427 13.572 151.427 13.4962C151.427 13.3665 151.417 13.2368 151.427 13.105C151.427 13.0272 151.442 12.9483 151.448 12.8695C151.458 12.7397 151.467 12.6101 151.484 12.4804C151.496 12.4016 151.515 12.3237 151.529 12.2448C151.553 12.1161 151.574 11.9874 151.606 11.8597C151.625 11.7828 151.651 11.709 151.674 11.6332C151.71 11.5055 151.744 11.3777 151.79 11.2519C151.817 11.1781 151.852 11.1063 151.881 11.0334C151.931 10.9107 151.981 10.787 152.038 10.6672C152.072 10.5944 152.117 10.5255 152.155 10.4547C152.218 10.3399 152.278 10.2252 152.348 10.1154C152.825 9.34798 153.514 8.73388 154.33 8.34627C155.147 7.95866 156.058 7.81384 156.954 7.92907C157.056 7.93905 157.156 7.9581 157.253 7.98595L157.31 8.00484L157.344 8.02384Z" stroke="#003573" stroke-width="0.6" stroke-miterlimit="10"/>
<path d="M40.0991 120.051C40.1394 120.065 40.1785 120.082 40.217 120.1L40.2409 120.113C40.2589 120.123 40.2761 120.134 40.2927 120.145C40.3269 120.167 40.3598 120.191 40.3909 120.217C40.4103 120.233 40.4292 120.25 40.4472 120.268C40.4744 120.294 40.4999 120.322 40.5236 120.352C40.5387 120.37 40.5532 120.389 40.5669 120.408V120.413C40.5877 120.444 40.607 120.476 40.6246 120.509C40.6325 120.525 40.641 120.54 40.6482 120.556C40.6554 120.572 40.6541 120.568 40.6577 120.575C40.6732 120.612 40.6862 120.651 40.6971 120.69C40.7029 120.708 40.7104 120.725 40.7147 120.743C40.7282 120.799 40.7371 120.857 40.7418 120.915C40.7418 120.93 40.7418 120.944 40.7418 120.959C40.7444 121.004 40.7444 121.049 40.7418 121.094C40.7418 121.107 40.7418 121.119 40.7418 121.132C40.7418 121.145 40.7383 121.16 40.7362 121.174C40.7311 121.21 40.7254 121.246 40.7182 121.28V121.293C40.7125 121.316 40.705 121.338 40.6985 121.361C40.6877 121.395 40.6763 121.432 40.6626 121.462C40.6489 121.491 40.641 121.51 40.6302 121.534C40.6194 121.557 40.5962 121.595 40.5774 121.625C40.5587 121.655 40.5503 121.667 40.5359 121.686V121.691C40.5133 121.719 40.4892 121.746 40.4637 121.772C40.4464 121.79 40.4304 121.809 40.4116 121.826C40.3804 121.852 40.3476 121.876 40.3131 121.897C40.2965 121.909 40.2804 121.923 40.2617 121.934C40.0686 122.045 39.8448 122.091 39.6232 122.066C37.7193 121.895 37.0019 124.772 39.5992 125.975C43.807 127.922 46.4246 122.905 45.739 120.268C45.1385 117.962 43.0408 115.484 40.1955 115.085C37.6061 114.722 33.8914 115.573 31.5623 116.716C25.845 119.521 25.3095 127.028 15.7558 126.969C11.1328 126.94 7.07706 125.479 3.11441 128.318C2.26695 128.887 1.547 129.625 1 130.485C2.85049 131.101 5.81683 131.202 8.28655 133.199C11.3532 135.678 12.3667 141.726 16.9371 143.906C21.4519 146.059 25.9021 143.69 30.7125 146.614C35.298 149.403 38.9757 153.832 46.103 152.864C56.8505 151.405 60.8809 140.256 71.4389 137.817C72.9707 137.463 78.959 136.986 78.995 136.746C79.1255 135.892 76.6443 133.705 75.736 133.055C68.8696 128.145 63.4906 130.615 59.9316 129.478C54.8566 127.853 55.155 123.489 47.771 122.939C47.4828 124.03 46.9817 125.055 46.2962 125.953C46.2164 126.057 46.1344 126.158 46.0498 126.257L45.9777 126.341C45.9056 126.423 45.8334 126.503 45.7577 126.58C45.7324 126.607 45.7073 126.634 45.6806 126.661C45.5878 126.756 45.4933 126.847 45.3972 126.933L45.3765 126.951C45.2705 127.047 45.1601 127.139 45.0491 127.227L44.9822 127.278C44.8933 127.346 44.8028 127.412 44.7105 127.476L44.6165 127.539C44.525 127.6 44.4315 127.659 44.3363 127.715C44.3104 127.73 44.2859 127.746 44.2599 127.76C44.1367 127.832 44.0127 127.897 43.8844 127.958H43.8784C43.7566 128.017 43.6318 128.07 43.5056 128.12L43.4078 128.156C43.3083 128.193 43.2067 128.228 43.1044 128.26L42.9984 128.292C42.8792 128.327 42.7591 128.358 42.638 128.384L42.5947 128.394C42.4548 128.424 42.3112 128.448 42.1677 128.466C42.1418 128.466 42.1159 128.471 42.0906 128.474C41.9738 128.487 41.8565 128.496 41.7383 128.503L41.6186 128.507C41.5047 128.51 41.3898 128.51 41.274 128.507C41.2394 128.507 41.2055 128.507 41.1709 128.507C40.8626 128.491 40.5561 128.45 40.2539 128.387L40.1385 128.361C40.0188 128.334 39.8987 128.303 39.7781 128.268C39.4171 128.164 39.0648 128.033 38.7242 127.876C38.1349 127.611 37.593 127.252 37.1202 126.813C34.7211 129.114 32.6811 131.672 33.815 135.194C35.202 139.503 41.522 142.745 45.4479 139.732C49.3543 136.734 45.8451 132.229 43.1498 134.223C41.9243 135.126 42.9716 136.511 42.7358 137.345C42.7195 137.404 42.6951 137.462 42.6637 137.515L42.6538 137.53C42.6195 137.585 42.5775 137.636 42.5296 137.68L42.5169 137.691C42.4591 137.741 42.3953 137.784 42.3272 137.819L42.3148 137.825C42.2285 137.868 42.1382 137.903 42.0452 137.929C41.884 137.976 41.7131 137.979 41.5503 137.938C41.3875 137.896 41.239 137.812 41.1205 137.693C41.0521 137.63 40.9897 137.561 40.9343 137.487C40.925 137.475 40.9169 137.463 40.9083 137.45C40.8489 137.368 40.7961 137.282 40.7499 137.191L40.7443 137.181C40.6948 137.081 40.6517 136.978 40.6158 136.873C40.6086 136.853 40.6015 136.833 40.595 136.813C40.5587 136.702 40.5279 136.589 40.5032 136.474C40.5032 136.456 40.4976 136.438 40.4933 136.42C40.471 136.306 40.4527 136.189 40.4419 136.068C40.4419 136.055 40.4384 136.042 40.437 136.028C40.4262 135.902 40.4218 135.771 40.4233 135.64C40.4233 135.613 40.4233 135.585 40.4233 135.557C40.4269 135.425 40.4362 135.292 40.4535 135.158C40.4535 135.138 40.4594 135.119 40.4623 135.1C40.4801 134.973 40.5042 134.846 40.5345 134.719C40.5395 134.698 40.5439 134.678 40.5489 134.656C40.5828 134.522 40.6252 134.388 40.6735 134.256C40.6843 134.226 40.6958 134.198 40.7066 134.17C40.7587 134.034 40.8184 133.902 40.8854 133.773C40.8933 133.758 40.9028 133.744 40.9115 133.729C40.9768 133.605 41.0489 133.486 41.1276 133.37C41.1427 133.349 41.1564 133.327 41.1716 133.306L41.1765 133.3C41.2611 133.185 41.3526 133.074 41.45 132.97C41.4817 132.935 41.5161 132.898 41.55 132.866C41.6396 132.776 41.734 132.691 41.8326 132.611C41.8629 132.586 41.8917 132.56 41.9227 132.539C42.0511 132.441 42.1856 132.351 42.3251 132.27L42.3705 132.243C42.3979 132.227 42.4279 132.213 42.4553 132.198C42.58 132.13 42.7108 132.068 42.8492 132.01C42.8989 131.989 42.9479 131.968 42.9998 131.949C43.1865 131.877 43.3774 131.816 43.5715 131.767C48.1324 130.642 52.0727 137.285 46.7267 141.387C46.5883 141.493 46.447 141.592 46.3043 141.687L46.1952 141.759C46.0647 141.843 45.9322 141.923 45.7988 141.998L45.7591 142.021C45.6091 142.104 45.4571 142.181 45.3036 142.252L45.2163 142.292C45.0721 142.357 44.9282 142.417 44.7841 142.472L44.7443 142.487C44.5799 142.549 44.4144 142.605 44.2476 142.655L44.2114 142.665C44.0492 142.713 43.8844 142.756 43.72 142.793L43.6989 142.798C43.3475 142.876 42.9913 142.931 42.6327 142.963C40.8918 143.05 39.1551 142.724 37.5658 142.012C35.9765 141.299 34.5806 140.22 33.4929 138.864C33.1105 138.396 32.7709 137.894 32.4785 137.365C32.4734 137.356 32.4691 137.348 32.4641 137.339C32.2779 136.999 32.1132 136.647 31.9709 136.286C31.9644 136.268 31.9566 136.251 31.9501 136.233C31.8781 136.053 31.8167 135.874 31.7597 135.688C31.7035 135.508 31.6544 135.326 31.6105 135.142C31.6062 135.123 31.6004 135.104 31.596 135.085C31.5542 134.904 31.5182 134.721 31.4887 134.537C31.4887 134.513 31.4825 134.488 31.4781 134.465C31.4515 134.287 31.4289 134.106 31.4137 133.925C31.4137 133.916 31.4137 133.906 31.4137 133.897C31.3986 133.712 31.3923 133.526 31.3901 133.338C31.3901 133.303 31.3901 133.266 31.3901 133.233C31.3901 133.046 31.3958 132.857 31.4102 132.668C31.4102 132.659 31.4102 132.65 31.4102 132.641C31.4239 132.46 31.4455 132.278 31.4721 132.096C31.4779 132.058 31.4829 132.024 31.4887 131.984C31.5185 131.798 31.5553 131.612 31.5985 131.424C31.6057 131.391 31.6148 131.357 31.6235 131.324C31.6648 131.153 31.713 130.982 31.7678 130.81C31.7772 130.78 31.7845 130.752 31.7946 130.722C31.8544 130.534 31.9241 130.346 31.9998 130.157C32.0164 130.116 32.0339 130.074 32.0512 130.032C32.1319 129.839 32.2168 129.645 32.3134 129.451C33.2621 127.766 34.5013 126.26 35.9741 125.002C35.933 124.865 35.8998 124.726 35.8752 124.585C35.8673 124.54 35.8658 124.494 35.8593 124.448C35.8449 124.35 35.8306 124.251 35.8249 124.151C35.8212 124.096 35.8249 124.041 35.8249 123.986C35.8249 123.893 35.8176 123.8 35.8249 123.705C35.8249 123.649 35.8357 123.592 35.84 123.536C35.8472 123.442 35.8538 123.349 35.866 123.256C35.8747 123.199 35.8883 123.143 35.8984 123.086C35.9157 122.994 35.931 122.901 35.954 122.809C35.9677 122.754 35.9864 122.701 36.003 122.647C36.0296 122.555 36.0539 122.463 36.0871 122.372C36.1066 122.319 36.132 122.268 36.1529 122.215C36.189 122.127 36.2248 122.038 36.2659 121.952C36.2911 121.9 36.323 121.85 36.3511 121.799C36.3965 121.717 36.4397 121.634 36.4901 121.555C36.8351 121.003 37.3324 120.562 37.9224 120.283C38.5123 120.004 39.1701 119.9 39.8178 119.983C39.891 119.99 39.9632 120.004 40.034 120.024L40.0751 120.037L40.0991 120.051Z" stroke="#003573" stroke-width="0.6" stroke-miterlimit="10"/>
</svg>
