<svg width="105" height="204" viewBox="0 0 105 204" fill="none" xmlns="http://www.w3.org/2000/svg">
<g opacity="0.5">
<path d="M30.839 17.6539C27.3912 16.5464 23.5462 17.437 23.2292 17.5111L18.604 53.1182C18.6044 53.1459 18.27 65.2679 17.2218 71.5917C16.5154 75.9184 13.708 78.5769 11.5841 80.7267C10.5221 81.7947 9.65192 82.749 9.25146 83.6682C8.86484 84.5872 8.90624 85.458 9.72661 86.6069C11.3952 88.9182 14.2276 89.5928 16.691 89.6784C18.9606 89.7532 20.6971 89.3524 20.9866 89.2925L25.6116 53.6716C25.6112 53.6439 25.9456 41.5219 26.9939 35.1981C27.714 30.8711 30.5076 28.2128 32.6315 26.0631C33.6935 24.9951 34.5637 24.0408 34.9503 23.1218C35.337 22.2028 35.2956 21.332 34.4613 20.1833C33.5418 18.8838 32.2431 18.102 30.839 17.6539Z" stroke="#982301" stroke-miterlimit="10"/>
<path d="M21.2337 18.1512C19.9272 18.6283 12.892 21.5886 10.7711 30.9448C10.2147 33.3741 9.41444 39.6388 9.41444 39.6388L6.58979 61.3717C7.89629 60.8947 14.9315 57.9343 17.0526 48.592C17.6088 46.1488 18.409 39.8842 18.409 39.8842L21.2337 18.1512Z" stroke="#982301" stroke-miterlimit="10"/>
<path d="M37.7389 45.5684C36.4324 46.0455 29.3971 49.0059 27.2763 58.362C26.7199 60.7914 25.9196 67.056 25.9196 67.056L23.095 88.7889C24.4015 88.3119 31.4367 85.3515 33.5577 76.0092C34.1142 73.5798 34.9144 67.3152 34.9144 67.3152L37.7389 45.5684Z" stroke="#982301" stroke-miterlimit="10"/>
<path d="M38.4819 42.6935C40.8871 40.8436 42.3106 38.1377 42.2663 35.3306C42.2615 35.0264 42.2429 34.7223 42.1969 34.4326C41.7437 31.1339 38.9681 28.7986 36.0007 29.2051C33.0194 29.6117 30.978 32.604 31.4174 35.9029C31.4645 36.2617 31.5393 36.6202 31.6558 36.9918C32.3584 39.4428 34.1612 41.4891 36.5879 42.7511L37.6895 43.3146L38.4819 42.6935Z" stroke="#982301" stroke-miterlimit="10"/>
<path d="M5.88582 64.0939C3.48059 65.9438 2.0571 68.6496 2.10138 71.4568C2.10618 71.761 2.12481 72.0651 2.17088 72.3548C2.62404 75.6535 5.39959 77.9888 8.36704 77.5823C11.3483 77.1757 13.3897 74.1834 12.9504 70.8845C12.9032 70.5257 12.8284 70.1672 12.7119 69.7956C12.0093 67.3446 10.2065 65.2983 7.77988 64.0363L6.67827 63.4728L5.88582 64.0939Z" stroke="#982301" stroke-miterlimit="10"/>
<path d="M23.8787 14.8452C26.284 12.9953 27.7075 10.2894 27.6632 7.48224C27.6584 7.17801 27.6397 6.874 27.5937 6.58426C27.1543 3.28537 24.3788 0.950077 21.3975 1.35674C18.4162 1.7634 16.3748 4.75563 16.8142 8.05451C16.8613 8.4134 16.9361 8.77185 17.0527 9.14347C17.7553 11.5945 19.558 13.6408 21.9847 14.9027L23.0863 15.4663L23.8787 14.8452Z" stroke="#982301" stroke-miterlimit="10"/>
<path d="M22.425 91.9117C20.0197 93.7616 18.5963 96.4674 18.6405 99.2746C18.6453 99.5788 18.664 99.8829 18.71 100.173C19.1632 103.471 21.9388 105.807 24.9062 105.4C27.8875 104.993 29.9289 102.001 29.4895 98.7023C29.4424 98.3435 29.3676 97.985 29.2511 97.6134C28.5485 95.1624 26.7457 93.1161 24.319 91.8541L23.2174 91.2906L22.425 91.9117Z" stroke="#982301" stroke-miterlimit="10"/>
<path d="M61.1075 69.9991C57.6598 68.8916 53.8147 69.7822 53.4978 69.8564L48.8725 105.463C48.873 105.491 48.5386 117.613 47.4903 123.937C46.784 128.264 43.9766 130.922 41.8527 133.072C40.7907 134.14 39.9205 135.094 39.52 136.013C39.1334 136.932 39.1748 137.803 39.9952 138.952C41.6638 141.263 44.4961 141.938 46.9596 142.024C49.2292 142.098 50.9657 141.698 51.2552 141.638L55.8802 106.017C55.8798 105.989 56.2141 93.8671 57.2624 87.5433C57.9826 83.2164 60.7762 80.5581 62.9 78.4083C63.9621 77.3403 64.8323 76.386 65.2189 75.467C65.6055 74.548 65.5641 73.6772 64.7299 72.5285C63.8103 71.229 62.5116 70.4472 61.1075 69.9991Z" stroke="#982301" stroke-miterlimit="10"/>
<path d="M51.5022 70.4964C50.1957 70.9735 43.1605 73.9339 41.0397 83.29C40.4832 85.7194 39.683 91.984 39.683 91.984L36.8583 113.717C38.1648 113.24 45.2001 110.28 47.3211 100.937C47.8773 98.494 48.6776 92.2294 48.6776 92.2294L51.5022 70.4964Z" stroke="#982301" stroke-miterlimit="10"/>
<path d="M68.0074 97.9136C66.7009 98.3907 59.6657 101.351 57.5449 110.707C56.9884 113.137 56.1882 119.401 56.1882 119.401L53.3635 141.134C54.67 140.657 61.7052 137.697 63.8263 128.354C64.3827 125.925 65.183 119.66 65.183 119.66L68.0074 97.9136Z" stroke="#982301" stroke-miterlimit="10"/>
<path d="M68.7505 95.0387C71.1557 93.1888 72.5792 90.483 72.5349 87.6758C72.5301 87.3716 72.5115 87.0676 72.4654 86.7778C72.0122 83.4791 69.2367 81.1438 66.2692 81.5503C63.288 81.957 61.2466 84.9492 61.6859 88.2481C61.7331 88.607 61.8079 88.9654 61.9244 89.337C62.627 91.788 64.4298 93.8344 66.8564 95.0963L67.958 95.6598L68.7505 95.0387Z" stroke="#982301" stroke-miterlimit="10"/>
<path d="M36.1544 116.439C33.7491 118.289 32.3257 120.995 32.3699 123.802C32.3747 124.106 32.3934 124.41 32.4394 124.7C32.8926 127.999 35.6681 130.334 38.6356 129.928C41.6169 129.521 43.6583 126.529 43.2189 123.23C43.1718 122.871 43.097 122.512 42.9804 122.141C42.2778 119.69 40.4751 117.643 38.0484 116.382L36.9468 115.818L36.1544 116.439Z" stroke="#982301" stroke-miterlimit="10"/>
<path d="M54.1473 67.1904C56.5525 65.3405 57.976 62.6346 57.9317 59.8275C57.9269 59.5232 57.9083 59.2192 57.8622 58.9295C57.4229 55.6306 54.6473 53.2953 51.6661 53.702C48.6848 54.1086 46.6434 57.1008 47.0827 60.3997C47.1299 60.7586 47.2047 61.1171 47.3212 61.4887C48.0238 63.9397 49.8266 65.986 52.2532 67.2479L53.3548 67.8115L54.1473 67.1904Z" stroke="#982301" stroke-miterlimit="10"/>
<path d="M52.6935 144.257C50.2883 146.107 48.8648 148.813 48.9091 151.62C48.9139 151.924 48.9325 152.228 48.9786 152.518C49.4318 155.816 52.2073 158.152 55.1748 157.745C58.156 157.339 60.1974 154.346 59.7581 151.048C59.7109 150.689 59.6361 150.33 59.5196 149.959C58.817 147.508 57.0142 145.461 54.5876 144.199L53.486 143.636L52.6935 144.257Z" stroke="#982301" stroke-miterlimit="10"/>
<path d="M91.4239 114.867C87.9762 113.759 84.1311 114.65 83.8142 114.724L79.1889 150.331C79.1894 150.359 78.855 162.481 77.8067 168.805C77.1004 173.131 74.293 175.79 72.1691 177.94C71.1071 179.008 70.2369 179.962 69.8364 180.881C69.4498 181.8 69.4912 182.671 70.3116 183.82C71.9802 186.131 74.8125 186.806 77.276 186.891C79.5456 186.966 81.2821 186.565 81.5716 186.505L86.1966 150.884C86.1962 150.857 86.5305 138.735 87.5788 132.411C88.299 128.084 91.0926 125.426 93.2164 123.276C94.2785 122.208 95.1487 121.254 95.5353 120.335C95.9219 119.416 95.8805 118.545 95.0463 117.396C94.1267 116.097 92.828 115.315 91.4239 114.867Z" stroke="#982301" stroke-miterlimit="10"/>
<path d="M81.8186 115.364C80.5121 115.841 73.4769 118.802 71.3561 128.158C70.7996 130.587 69.9994 136.852 69.9994 136.852L67.1748 158.585C68.4813 158.108 75.5165 155.147 77.6375 145.805C78.1937 143.362 78.994 137.097 78.994 137.097L81.8186 115.364Z" stroke="#982301" stroke-miterlimit="10"/>
<path d="M98.3238 142.781C97.0173 143.258 89.9821 146.219 87.8613 155.575C87.3048 158.004 86.5046 164.269 86.5046 164.269L83.6799 186.002C84.9864 185.525 92.0217 182.564 94.1427 173.222C94.6991 170.793 95.4994 164.528 95.4994 164.528L98.3238 142.781Z" stroke="#982301" stroke-miterlimit="10"/>
<path d="M99.0669 139.906C101.472 138.056 102.896 135.351 102.851 132.543C102.847 132.239 102.828 131.935 102.782 131.645C102.329 128.347 99.5531 126.012 96.5857 126.418C93.6044 126.825 91.563 129.817 92.0023 133.116C92.0495 133.475 92.1243 133.833 92.2408 134.205C92.9434 136.656 94.7462 138.702 97.1728 139.964L98.2744 140.528L99.0669 139.906Z" stroke="#982301" stroke-miterlimit="10"/>
<path d="M66.4708 161.307C64.0655 163.157 62.6421 165.863 62.6863 168.67C62.6911 168.974 62.7098 169.278 62.7558 169.568C63.209 172.866 65.9846 175.202 68.952 174.795C71.9333 174.389 73.9747 171.396 73.5353 168.097C73.4882 167.739 73.4134 167.38 73.2969 167.008C72.5943 164.557 70.7915 162.511 68.3648 161.249L67.2632 160.686L66.4708 161.307Z" stroke="#982301" stroke-miterlimit="10"/>
<path d="M84.4637 112.058C86.8689 110.208 88.2924 107.502 88.2481 104.695C88.2433 104.391 88.2247 104.087 88.1786 103.797C87.7393 100.498 84.9637 98.163 81.9825 98.5696C79.0012 98.9763 76.9598 101.969 77.3991 105.267C77.4463 105.626 77.5211 105.985 77.6376 106.356C78.3402 108.807 80.143 110.854 82.5696 112.116L83.6712 112.679L84.4637 112.058Z" stroke="#982301" stroke-miterlimit="10"/>
<path d="M83.0099 189.125C80.6047 190.974 79.1812 193.68 79.2255 196.488C79.2303 196.792 79.2489 197.096 79.295 197.385C79.7482 200.684 82.5237 203.019 85.4912 202.613C88.4724 202.206 90.5138 199.214 90.0745 195.915C90.0273 195.556 89.9525 195.198 89.836 194.826C89.1334 192.375 87.3307 190.329 84.904 189.067L83.8024 188.503L83.0099 189.125Z" stroke="#982301" stroke-miterlimit="10"/>
</g>
</svg>
