<svg width="62" height="156" viewBox="0 0 62 156" fill="none" xmlns="http://www.w3.org/2000/svg">
<path d="M44.4165 25.3313C39.3827 23.6161 33.7197 24.8413 33.2528 24.9434L25.6412 77.3998C25.6412 77.4406 24.8699 95.3276 23.1852 104.639C22.0485 111.009 17.8672 114.869 14.7007 117.993C13.1175 119.545 11.8184 120.933 11.2095 122.281C10.6209 123.628 10.6615 124.915 11.8387 126.63C14.2339 130.081 18.3746 131.143 21.9876 131.326C25.3164 131.49 27.8739 130.938 28.3002 130.857L35.9118 78.3799C35.9118 78.339 36.6831 60.452 38.3678 51.1409C39.5248 44.7702 43.6858 40.911 46.8523 37.7869C48.4355 36.2351 49.7345 34.8466 50.3232 33.4989C50.9118 32.1513 50.8712 30.8649 49.6737 29.1497C48.3543 27.2099 46.4666 26.0256 44.4165 25.3313Z" stroke="#D0542D" stroke-miterlimit="10"/>
<path d="M30.3097 25.8418C28.3814 26.5156 17.989 30.7219 14.6601 44.4843C13.7873 48.0577 12.468 57.287 12.468 57.287L7.81982 89.304C9.74811 88.6302 20.1405 84.4239 23.4693 70.6819C24.3421 67.0881 25.6615 57.8588 25.6615 57.8588L30.3097 25.8418Z" stroke="#D0542D" stroke-miterlimit="10"/>
<path d="M53.8956 66.7C51.9673 67.3738 41.5749 71.5801 38.2461 85.3425C37.3733 88.9158 36.0539 98.1452 36.0539 98.1452L31.4058 130.162C33.334 129.488 43.7265 125.282 47.0553 111.54C47.9281 107.967 49.2474 98.7373 49.2474 98.7373L53.8956 66.7Z" stroke="#D0542D" stroke-miterlimit="10"/>
<path d="M55.0527 62.4733C58.6251 59.7984 60.7767 55.8371 60.7767 51.692C60.7767 51.2428 60.7564 50.7936 60.6955 50.3648C60.1068 45.4847 56.0879 41.9726 51.7239 42.5035C47.3396 43.0344 44.2746 47.4041 44.843 52.2842C44.9039 52.8151 45.0054 53.346 45.1677 53.8973C46.142 57.5319 48.7401 60.5947 52.2719 62.5141L53.8754 63.3717L55.0527 62.4733Z" stroke="#D0542D" stroke-miterlimit="10"/>
<path d="M6.72395 93.3061C3.15156 95.981 1 99.9423 1 104.087C1 104.537 1.0203 104.986 1.08119 105.415C1.66982 110.295 5.68877 113.807 10.0528 113.276C14.4371 112.745 17.502 108.375 16.9337 103.495C16.8728 102.964 16.7713 102.433 16.6089 101.882C15.6346 98.2475 13.0365 95.1847 9.50474 93.2653L7.90122 92.4077L6.72395 93.3061Z" stroke="#D0542D" stroke-miterlimit="10"/>
<path d="M34.2678 21.0228C37.8402 18.3479 39.9918 14.3867 39.9918 10.2416C39.9918 9.79239 39.9715 9.34318 39.9106 8.91438C39.3422 4.03424 35.3233 0.522174 30.939 1.05307C26.5547 1.58396 23.4897 5.95363 24.0581 10.8338C24.119 11.3647 24.2204 11.8955 24.3828 12.4469C25.3571 16.0814 27.9552 19.1443 31.487 21.0637L33.0905 21.9213L34.2678 21.0228Z" stroke="#D0542D" stroke-miterlimit="10"/>
<path d="M30.3504 134.757C26.778 137.431 24.6265 141.393 24.6265 145.538C24.6265 145.987 24.6468 146.436 24.7077 146.865C25.2963 151.745 29.3152 155.257 33.6792 154.726C38.0635 154.195 41.1285 149.826 40.5602 144.946C40.4993 144.415 40.3978 143.884 40.2354 143.333C39.2611 139.698 36.663 136.635 33.1312 134.716L31.5277 133.858L30.3504 134.757Z" stroke="#D0542D" stroke-miterlimit="10"/>
</svg>
