<svg width="163" height="321" viewBox="0 0 163 321" fill="none" xmlns="http://www.w3.org/2000/svg">
<g opacity="0.5">
<path d="M48.1745 27.3291C42.7237 25.5782 36.6448 26.9862 36.1437 27.1034L28.8313 83.3971C28.832 83.4408 28.3034 102.605 26.6461 112.603C25.5294 119.443 21.0909 123.647 17.7332 127.045C16.0541 128.734 14.6784 130.242 14.0453 131.696C13.4341 133.149 13.4995 134.525 14.7965 136.342C17.4345 139.996 21.9124 141.062 25.807 141.198C29.3952 141.316 32.1405 140.682 32.5982 140.587L39.9102 84.2719C39.9095 84.2282 40.4382 65.0637 42.0955 55.0659C43.234 48.2252 47.6506 44.0225 51.0083 40.6238C52.6874 38.9353 54.0631 37.4266 54.6744 35.9737C55.2856 34.5208 55.2202 33.1441 53.9013 31.3281C52.4475 29.2736 50.3943 28.0376 48.1745 27.3291Z" stroke="#D0542D" stroke-miterlimit="10"/>
<path d="M32.9888 28.1154C30.9233 28.8696 19.8008 33.5498 16.4478 48.3416C15.5681 52.1823 14.303 62.0865 14.303 62.0865L9.83728 96.4456C11.9028 95.6914 23.0253 91.0112 26.3786 76.2413C27.258 72.3787 28.5231 62.4745 28.5231 62.4745L32.9888 28.1154Z" stroke="#D0542D" stroke-miterlimit="10"/>
<path d="M59.0829 71.4611C57.0174 72.2153 45.895 76.8956 42.542 91.6873C41.6623 95.5281 40.3971 105.432 40.3971 105.432L35.9314 139.791C37.997 139.037 49.1194 134.357 52.4727 119.587C53.3525 115.746 54.6176 105.842 54.6176 105.842L59.0829 71.4611Z" stroke="#D0542D" stroke-miterlimit="10"/>
<path d="M60.2577 66.916C64.0603 63.9913 66.3108 59.7134 66.2408 55.2754C66.2332 54.7944 66.2037 54.3138 66.1309 53.8557C65.4145 48.6406 61.0264 44.9486 56.335 45.5912C51.6217 46.2341 48.3943 50.9647 49.0889 56.1801C49.1634 56.7475 49.2817 57.3142 49.4659 57.9018C50.5767 61.7767 53.4268 65.0119 57.2633 67.0069L59.0049 67.8979L60.2577 66.916Z" stroke="#D0542D" stroke-miterlimit="10"/>
<path d="M8.72432 100.749C4.92173 103.674 2.67123 107.952 2.74125 112.39C2.74884 112.871 2.77829 113.351 2.85112 113.809C3.56755 119.025 7.95562 122.717 12.647 122.074C17.3603 121.431 20.5877 116.701 19.8932 111.485C19.8186 110.918 19.7003 110.351 19.5161 109.763C18.4053 105.889 15.5552 102.653 11.7188 100.658L9.97716 99.7673L8.72432 100.749Z" stroke="#D0542D" stroke-miterlimit="10"/>
<path d="M37.1705 22.8886C40.9731 19.964 43.2236 15.6861 43.1536 11.2481C43.146 10.7671 43.1166 10.2865 43.0437 9.82839C42.3492 4.61295 37.9611 0.920924 33.2478 1.56384C28.5345 2.20676 25.3071 6.93738 26.0017 12.1528C26.0763 12.7202 26.1945 13.2869 26.3787 13.8744C27.4895 17.7494 30.3396 20.9846 34.1761 22.9796L35.9177 23.8706L37.1705 22.8886Z" stroke="#D0542D" stroke-miterlimit="10"/>
<path d="M34.8722 144.728C31.0696 147.653 28.8191 151.931 28.8891 156.369C28.8967 156.85 28.9262 157.33 28.999 157.789C29.7154 163.004 34.1035 166.696 38.7949 166.053C43.5082 165.41 46.7356 160.68 46.041 155.464C45.9665 154.897 45.8482 154.33 45.664 153.743C44.5532 149.868 41.7031 146.632 37.8666 144.637L36.125 143.746L34.8722 144.728Z" stroke="#D0542D" stroke-miterlimit="10"/>
<path d="M95.1549 110.086C89.7041 108.335 83.6252 109.743 83.1241 109.86L75.8118 166.154C75.8125 166.197 75.2838 185.362 73.6265 195.36C72.5099 202.2 68.0714 206.403 64.7137 209.802C63.0346 211.49 61.6589 212.999 61.0258 214.452C60.4145 215.905 60.48 217.282 61.777 219.098C64.415 222.752 68.8929 223.819 72.7874 223.954C76.3756 224.072 79.121 223.439 79.5787 223.344L86.8907 167.028C86.89 166.985 87.4186 147.82 89.0759 137.822C90.2145 130.982 94.6311 126.779 97.9888 123.38C99.6679 121.692 101.044 120.183 101.655 118.73C102.266 117.277 102.201 115.901 100.882 114.085C99.428 112.03 97.3748 110.794 95.1549 110.086Z" stroke="#D0542D" stroke-miterlimit="10"/>
<path d="M79.9693 110.872C77.9037 111.626 66.7813 116.306 63.4283 131.098C62.5486 134.939 61.2834 144.843 61.2834 144.843L56.8178 179.202C58.8833 178.448 70.0057 173.768 73.3591 158.998C74.2384 155.135 75.5036 145.231 75.5036 145.231L79.9693 110.872Z" stroke="#D0542D" stroke-miterlimit="10"/>
<path d="M106.063 154.218C103.998 154.972 92.8754 159.652 89.5225 174.444C88.6427 178.285 87.3776 188.189 87.3776 188.189L82.9119 222.548C84.9774 221.794 96.0999 217.113 99.4532 202.343C100.333 198.503 101.598 188.599 101.598 188.599L106.063 154.218Z" stroke="#D0542D" stroke-miterlimit="10"/>
<path d="M107.238 149.672C111.041 146.748 113.291 142.47 113.221 138.032C113.214 137.551 113.184 137.07 113.111 136.612C112.395 131.397 108.007 127.705 103.315 128.348C98.6022 128.991 95.3747 133.721 96.0693 138.937C96.1439 139.504 96.2622 140.071 96.4464 140.658C97.5572 144.533 100.407 147.768 104.244 149.763L105.985 150.654L107.238 149.672Z" stroke="#D0542D" stroke-miterlimit="10"/>
<path d="M55.7048 183.506C51.9022 186.43 49.6517 190.708 49.7217 195.146C49.7293 195.627 49.7588 196.108 49.8316 196.566C50.548 201.781 54.9361 205.473 59.6275 204.831C64.3408 204.188 67.5682 199.457 66.8736 194.242C66.7991 193.674 66.6808 193.107 66.4966 192.52C65.3858 188.645 62.5357 185.41 58.6992 183.415L56.9576 182.524L55.7048 183.506Z" stroke="#D0542D" stroke-miterlimit="10"/>
<path d="M84.151 105.645C87.9536 102.72 90.2041 98.4426 90.1341 94.0045C90.1265 93.5236 90.097 93.0429 90.0242 92.5849C89.3296 87.3694 84.9416 83.6774 80.2283 84.3203C75.515 84.9632 72.2876 89.6938 72.9822 94.9093C73.0567 95.4767 73.175 96.0434 73.3592 96.6309C74.47 100.506 77.3201 103.741 81.1566 105.736L82.8982 106.627L84.151 105.645Z" stroke="#D0542D" stroke-miterlimit="10"/>
<path d="M81.8527 227.485C78.0501 230.409 75.7996 234.687 75.8696 239.125C75.8772 239.606 75.9066 240.087 75.9795 240.545C76.6959 245.76 81.084 249.452 85.7754 248.81C90.4887 248.167 93.7161 243.436 93.0215 238.221C92.947 237.653 92.8287 237.087 92.6445 236.499C91.5337 232.624 88.6836 229.389 84.8471 227.394L83.1055 226.503L81.8527 227.485Z" stroke="#D0542D" stroke-miterlimit="10"/>
<path d="M142.139 181.02C136.688 179.269 130.61 180.677 130.108 180.794L122.796 237.088C122.797 237.131 122.268 256.296 120.611 266.294C119.494 273.134 115.056 277.337 111.698 280.736C110.019 282.424 108.643 283.933 108.01 285.386C107.399 286.839 107.464 288.216 108.761 290.032C111.399 293.686 115.877 294.753 119.772 294.888C123.36 295.006 126.105 294.373 126.563 294.278L133.875 237.962C133.874 237.919 134.403 218.754 136.06 208.756C137.199 201.916 141.615 197.713 144.973 194.314C146.652 192.626 148.028 191.117 148.639 189.664C149.25 188.211 149.185 186.835 147.866 185.019C146.412 182.964 144.359 181.728 142.139 181.02Z" stroke="#D0542D" stroke-miterlimit="10"/>
<path d="M126.954 181.806C124.888 182.56 113.766 187.24 110.413 202.032C109.533 205.873 108.268 215.777 108.268 215.777L103.802 250.136C105.868 249.382 116.99 244.702 120.343 229.932C121.223 226.069 122.488 216.165 122.488 216.165L126.954 181.806Z" stroke="#D0542D" stroke-miterlimit="10"/>
<path d="M153.048 225.152C150.982 225.906 139.86 230.586 136.507 245.378C135.627 249.219 134.362 259.123 134.362 259.123L129.896 293.482C131.962 292.728 143.084 288.047 146.438 273.278C147.317 269.437 148.582 259.533 148.582 259.533L153.048 225.152Z" stroke="#D0542D" stroke-miterlimit="10"/>
<path d="M154.223 220.607C158.025 217.682 160.276 213.404 160.206 208.966C160.198 208.485 160.169 208.004 160.096 207.546C159.379 202.331 154.991 198.639 150.3 199.282C145.587 199.925 142.359 204.655 143.054 209.871C143.128 210.438 143.247 211.005 143.431 211.592C144.542 215.467 147.392 218.702 151.228 220.697L152.97 221.588L154.223 220.607Z" stroke="#D0542D" stroke-miterlimit="10"/>
<path d="M102.689 254.44C98.8866 257.364 96.6361 261.642 96.7061 266.08C96.7137 266.561 96.7431 267.042 96.816 267.5C97.5324 272.715 101.92 276.407 106.612 275.765C111.325 275.122 114.553 270.391 113.858 265.176C113.783 264.608 113.665 264.042 113.481 263.454C112.37 259.579 109.52 256.344 105.684 254.349L103.942 253.458L102.689 254.44Z" stroke="#D0542D" stroke-miterlimit="10"/>
<path d="M131.135 176.579C134.938 173.655 137.188 169.377 137.118 164.939C137.111 164.458 137.081 163.977 137.009 163.519C136.314 158.304 131.926 154.611 127.213 155.254C122.499 155.897 119.272 160.628 119.967 165.843C120.041 166.411 120.159 166.977 120.344 167.565C121.454 171.44 124.304 174.675 128.141 176.67L129.883 177.561L131.135 176.579Z" stroke="#D0542D" stroke-miterlimit="10"/>
<path d="M128.837 298.419C125.034 301.344 122.784 305.621 122.854 310.059C122.862 310.54 122.891 311.021 122.964 311.479C123.68 316.694 128.068 320.386 132.76 319.744C137.473 319.101 140.7 314.37 140.006 309.155C139.931 308.587 139.813 308.021 139.629 307.433C138.518 303.558 135.668 300.323 131.831 298.328L130.09 297.437L128.837 298.419Z" stroke="#D0542D" stroke-miterlimit="10"/>
</g>
</svg>
