<svg width="370" height="189" viewBox="0 0 370 189" fill="none" xmlns="http://www.w3.org/2000/svg">
<g opacity="0.5">
<g clip-path="url(#clip0)">
<path d="M96.4687 0.339575L113.581 21.0392L99.6198 37.9092L116.005 57.6878H155.998L184.842 22.8329L213.686 57.6878H253.679L270.016 37.9092L256.103 21.0392L273.216 0.339575L304.241 37.9092L264.829 85.562H202.536L184.842 64.1837L167.148 85.562H104.855L65.395 37.9092L96.4687 0.339575Z" stroke="#277633" stroke-miterlimit="10"/>
<path d="M104.855 102.626H167.148L184.842 124.004L202.536 102.626H264.829L304.241 150.279L273.216 187.8L256.103 167.149L270.016 150.279L253.679 130.5H213.686L184.842 165.307L155.998 130.5H116.005L99.6198 150.279L113.581 167.149L96.4687 187.8L65.395 150.279L104.855 102.626Z" stroke="#277633" stroke-miterlimit="10"/>
<path d="M49.9794 34.0785L99.6198 94.093L49.9794 154.107L0.290527 94.093L49.9794 34.0785Z" stroke="#277633" stroke-miterlimit="10"/>
<path d="M70.0497 94.0934L49.9802 69.8065L29.8623 94.0934L49.9802 118.38L70.0497 94.0934Z" stroke="#277633" stroke-miterlimit="10"/>
<path d="M319.705 34.0785L369.346 94.093L319.705 154.107L270.017 94.093L319.705 34.0785Z" stroke="#277633" stroke-miterlimit="10"/>
<path d="M339.775 94.0934L319.705 69.8065L299.587 94.0934L319.705 118.38L339.775 94.0934Z" stroke="#277633" stroke-miterlimit="10"/>
<path d="M195.072 94.094L184.843 81.6839L174.614 94.094L184.843 106.456L195.072 94.094Z" stroke="#277633" stroke-miterlimit="10"/>
</g>
</g>
<defs>
<clipPath id="clip0">
<rect width="369.685" height="188.188" fill="white" transform="matrix(1 0 0 -1 0 188.188)"/>
</clipPath>
</defs>
</svg>
