<svg width="234" height="178" viewBox="0 0 234 178" fill="none" xmlns="http://www.w3.org/2000/svg">
<g opacity="0.4">
<path d="M131.663 167.627C131.492 167.316 131.313 166.993 131.146 166.653C131.134 166.629 131.122 166.604 131.111 166.579C130.946 166.253 130.783 165.911 130.622 165.562C130.587 165.487 130.554 165.415 130.52 165.339C130.355 164.975 130.192 164.599 130.033 164.212C130.002 164.135 129.972 164.056 129.94 163.979C129.777 163.569 129.616 163.153 129.463 162.722C128.844 160.988 128.394 159.199 128.118 157.378C128.105 157.293 128.092 157.207 128.081 157.122C128.024 156.698 127.976 156.271 127.941 155.84C127.941 155.78 127.934 155.723 127.929 155.662C127.901 155.263 127.884 154.863 127.878 154.462C127.878 154.394 127.878 154.325 127.878 154.257C127.878 153.828 127.891 153.401 127.917 152.974C127.917 152.885 127.93 152.795 127.937 152.705C127.971 152.266 128.015 151.825 128.083 151.388L127.084 151.454C125.916 151.513 124.745 151.458 123.587 151.29C122.243 151.084 120.924 150.735 119.654 150.249C118.316 149.739 117.028 149.106 115.807 148.358C114.069 147.242 112.395 146.029 110.794 144.724C109.878 144.01 108.899 143.245 107.647 142.32C106.066 141.147 104.267 139.893 102.401 138.777V138.77C100.659 137.698 98.807 136.816 96.8768 136.139C95.2113 135.602 93.479 135.3 91.7301 135.241C90.0525 135.195 88.3737 135.247 86.7024 135.4L86.128 135.443C82.9699 135.878 79.7599 135.76 76.6424 135.093C74.9896 134.611 73.4094 133.91 71.9436 133.007C70.5609 132.167 69.2298 131.244 67.9587 130.243C66.7044 129.272 65.5646 128.326 64.7148 127.536C63.9852 126.937 63.3824 126.198 62.9418 125.363C62.7725 124.98 62.7121 124.558 62.767 124.143L62.4881 124.35C60.6718 125.691 58.5987 126.643 56.3983 127.148C54.3142 127.638 52.1422 127.611 50.0711 127.069C48.2824 126.57 46.6455 125.636 45.3069 124.349C43.931 123.025 42.8725 121.407 42.2116 119.616C41.6047 117.98 41.3277 116.241 41.3959 114.497C41.4229 112.878 41.8938 111.298 42.7575 109.928C43.5963 108.747 44.7927 107.867 46.1704 107.419C46.4711 107.31 46.7734 107.214 47.0765 107.13C47.1838 107.1 47.292 107.077 47.4004 107.05C47.5974 107 47.7953 106.947 47.9935 106.904C48.1252 106.876 48.2585 106.85 48.3891 106.825C48.5686 106.79 48.7469 106.752 48.9264 106.719L49.4057 106.635L49.9123 106.547C50.1291 106.497 50.3542 106.492 50.5731 106.532C50.7921 106.572 51.0004 106.656 51.1856 106.78C51.3707 106.903 51.529 107.063 51.65 107.25C51.771 107.437 51.8521 107.646 51.8891 107.866C51.9261 108.085 51.9182 108.31 51.8652 108.526C51.8122 108.742 51.7155 108.945 51.5812 109.123C51.4468 109.3 51.2774 109.448 51.0837 109.558C50.89 109.667 50.676 109.736 50.4547 109.76C50.1971 109.803 49.9393 109.847 49.684 109.893L49.425 109.941C49.2502 109.973 49.0755 110.006 48.9065 110.04C48.8039 110.061 48.7051 110.083 48.6048 110.105C48.4544 110.138 48.3048 110.173 48.1603 110.209C48.0612 110.234 47.9645 110.261 47.8677 110.287C47.8059 110.304 47.7405 110.319 47.6799 110.337L47.7265 110.331C47.575 110.377 47.4202 110.42 47.2803 110.47C47.0813 110.542 46.8867 110.627 46.6974 110.722C46.638 110.751 46.5809 110.788 46.5272 110.82C46.4069 110.885 46.2904 110.957 46.1778 111.035C46.1568 111.049 46.1333 111.06 46.1134 111.075L46.1459 111.061C45.874 111.252 45.6378 111.489 45.4469 111.76C44.9269 112.629 44.6509 113.622 44.6483 114.635C44.5985 115.945 44.8074 117.253 45.2636 118.482C45.754 119.811 46.5384 121.012 47.5586 121.995C48.5072 122.914 49.6692 123.583 50.9397 123.942C52.4997 124.341 54.1336 124.353 55.6993 123.977C57.4622 123.572 59.1228 122.808 60.5779 121.733C62.3603 120.411 63.8516 118.737 64.9596 116.815C66.045 114.971 66.7185 112.914 66.9341 110.786C67.1306 108.387 66.7765 105.976 65.8982 103.736C65.2665 102.085 64.3725 100.546 63.2508 99.18L63.1211 99.026C62.7462 98.5836 62.3463 98.1633 61.9229 97.7671C60.0495 96.0563 57.8079 94.7988 55.3714 94.0916C52.6021 93.2814 49.7067 92.9923 46.8318 93.2394C42.1289 93.8191 37.4968 94.8764 33.0082 96.395C30.9496 97.0082 28.9135 97.6156 26.9178 98.1285C23.7657 98.9659 20.5486 99.5355 17.3007 99.8315C14.7655 100.089 12.2057 99.9603 9.70926 99.4492C7.61481 98.9138 5.62363 98.0341 3.8175 96.8461C3.23828 96.4421 2.60853 96.1161 1.94427 95.8763L1.87426 95.8692C1.81481 95.8692 1.72767 95.9626 1.61926 96.1316C1.28534 96.7591 1.09395 97.4524 1.0586 98.1622C1.00115 98.7452 0.985882 99.3315 1.01306 99.9166C1.13273 102.136 1.56715 104.327 2.30343 106.424C2.94025 108.356 3.88488 110.172 5.10104 111.802C7.51524 114.908 11.221 116.769 15.111 118.723L16.1173 119.229C18.4158 120.36 20.6551 121.608 22.827 122.966C25.0408 124.346 27.0729 125.997 28.8759 127.882C31.1815 130.549 33.1786 133.467 34.8291 136.582C35.6381 137.981 36.4611 139.397 37.4053 140.866C38.9262 143.277 40.6691 145.54 42.6106 147.627C44.1793 149.324 45.97 150.8 47.9343 152.017C49.9827 153.217 52.2105 154.081 54.5324 154.575C57.0403 155.105 59.5886 155.419 62.15 155.513C63.7878 155.596 65.59 155.63 67.3957 155.666C71.2662 155.64 75.1335 155.904 78.9647 156.454C81.5672 156.911 84.1124 157.648 86.5566 158.652C88.7801 159.568 90.9275 160.66 92.9778 161.917C95.6018 163.509 97.8618 165.189 100.179 166.912C101.184 167.659 102.205 168.417 103.498 169.336C105.284 170.63 107.145 171.818 109.07 172.894C110.948 173.952 112.95 174.774 115.03 175.342C117.009 175.841 119.052 176.043 121.091 175.939C123.263 175.83 125.411 175.429 127.476 174.745C128.993 174.24 130.471 173.623 131.898 172.9C132.739 172.479 133.588 172.019 134.441 171.533C133.567 170.652 132.816 169.659 132.206 168.579C132.028 168.281 131.846 167.963 131.663 167.627Z" stroke="#296EBB" stroke-miterlimit="10"/>
<path d="M164.423 174.593C166.863 173.443 169.169 172.029 171.301 170.377C173.455 168.745 175.509 166.918 177.408 165.157L179.165 163.515C182.302 160.563 185.08 157.949 188.374 156.186C190.354 155.151 192.463 154.385 194.645 153.909C196.777 153.443 198.941 153.131 201.118 152.977C202.304 152.881 203.588 152.814 204.872 152.744C207.765 152.661 210.649 152.365 213.499 151.859C217.796 150.983 221.863 149.218 225.438 146.677C227.21 145.41 228.866 143.986 230.385 142.425C231.074 141.73 231.716 140.99 232.305 140.21H231.571C230.714 140.21 229.716 140.21 228.636 140.129C226.392 139.945 224.184 139.462 222.068 138.692C219.984 137.942 218.011 136.909 216.208 135.623C212.888 132.99 209.9 129.965 207.309 126.613L205.579 124.577C204.011 122.721 202.344 120.95 200.586 119.274C198.926 117.691 197.101 116.291 195.143 115.096C193.258 113.985 191.257 113.083 189.176 112.405C186.865 111.649 184.49 111.102 182.08 110.773C180.295 110.523 178.539 110.382 176.819 110.245C173.984 110.103 171.166 109.713 168.399 109.079C166.126 108.483 163.956 107.548 161.962 106.306C159.651 104.846 157.496 103.152 155.532 101.251C153.832 99.6488 152.008 97.7533 150.108 95.7716C147.193 92.6286 144.116 89.6411 140.888 86.8212C138.477 84.7711 135.84 83.0036 133.028 81.5533C130.591 80.3003 127.982 79.4153 125.285 78.927C122.733 78.4961 120.13 78.4446 117.562 78.7743C114.709 79.1462 111.911 79.8673 109.233 80.9215C104.091 83.1138 99.1549 85.7612 94.4837 88.832L93.5161 89.4266C90.9398 91.0073 88.4254 92.5274 85.9634 93.8564C83.5645 95.1808 81.0621 96.3082 78.4807 97.2276C76.1798 98.0012 73.8145 98.5684 71.413 98.9225C70.0316 99.137 68.6957 99.2955 67.3808 99.4261C68.4881 101.261 69.2902 103.264 69.7555 105.356C69.8371 105.718 69.9087 106.08 69.9701 106.445C69.9852 106.532 70.0028 106.619 70.0156 106.706C70.0825 107.148 70.1339 107.59 70.1704 108.033C70.1786 108.138 70.1822 108.243 70.1892 108.347C70.2125 108.697 70.2227 109.047 70.2251 109.396C70.2251 109.52 70.2251 109.645 70.2251 109.768C70.2181 110.208 70.2004 110.646 70.1596 111.079C70.0148 112.587 69.6746 114.07 69.147 115.49C68.9733 115.963 68.7831 116.422 68.5733 116.882C68.5465 116.942 68.5153 116.998 68.4862 117.063C68.2624 117.53 68.0197 117.996 67.7656 118.445C67.4916 118.92 67.1906 119.377 66.8793 119.823C66.7826 119.961 66.6802 120.094 66.5799 120.23C66.3538 120.536 66.1217 120.836 65.8804 121.127C65.3907 121.723 64.8667 122.289 64.3105 122.823C64.9028 122.725 65.5042 122.697 66.103 122.74C66.6637 122.752 67.361 122.768 68.0849 122.74H68.1492C68.3182 122.735 68.5059 122.721 68.6854 122.71C68.8334 122.702 68.9721 122.697 69.1271 122.686C69.3439 122.671 69.576 122.648 69.8033 122.627C69.9502 122.615 70.0889 122.604 70.2404 122.589C70.4981 122.563 70.7697 122.529 71.0413 122.497C71.1765 122.481 71.3044 122.469 71.4443 122.45C71.857 122.398 72.2861 122.334 72.7267 122.272C74.3587 122.024 76.1588 121.674 78.0356 121.223C80.0873 120.728 82.1126 120.129 84.1033 119.428C86.0096 118.759 87.8774 117.985 89.6985 117.11C91.306 116.334 92.9145 115.449 94.5372 114.556C96.8174 113.303 99.129 112.03 101.628 110.942C103.823 109.997 106.083 109.209 108.39 108.586C110.701 107.954 113.054 107.487 115.432 107.188C117.614 106.909 119.815 106.815 122.012 106.905H122.155C124.217 107.001 126.262 107.314 128.258 107.838C130.208 108.358 132.093 109.099 133.876 110.045C135.704 111.022 137.441 112.164 139.063 113.456C140.294 114.423 141.551 115.528 142.85 116.671C144.941 118.584 147.149 120.365 149.463 122.003C151.428 123.331 153.5 124.494 155.657 125.48C157.672 126.419 159.771 127.166 161.925 127.713C163.796 128.137 165.697 128.414 167.611 128.54C169.178 128.641 170.737 128.852 172.274 129.171C173.779 129.533 175.244 130.04 176.65 130.686C178.262 131.419 179.82 132.265 181.313 133.217C182.08 133.693 182.82 134.212 183.528 134.771C183.938 135.091 184.311 135.454 184.641 135.856L184.758 136C185.028 136.316 185.195 136.706 185.238 137.119C185.281 137.532 185.197 137.948 184.998 138.312L184.938 138.418L184.798 138.621C184.106 139.473 182.878 139.569 181.232 139.698C180.542 139.753 179.75 139.815 178.927 139.931C177.703 140.11 176.498 140.4 175.327 140.799C174.147 141.201 173.004 141.708 171.914 142.314C170.858 142.897 169.816 143.596 168.791 144.271C168.325 144.582 167.859 144.887 167.392 145.186C166.392 145.855 165.34 146.443 164.245 146.944C162.402 147.718 160.414 148.084 158.417 148.019C158.412 149.289 158.207 150.55 157.809 151.756C157.336 153.21 156.492 154.515 155.361 155.544C154.227 156.555 152.828 157.222 151.328 157.465C151.127 157.499 150.922 157.525 150.717 157.546C150.644 157.553 150.565 157.556 150.492 157.56C150.358 157.571 150.224 157.581 150.085 157.586C149.999 157.586 149.91 157.586 149.822 157.586C149.695 157.586 149.566 157.586 149.436 157.586C149.346 157.586 149.252 157.573 149.161 157.567C149.032 157.559 148.9 157.553 148.769 157.539C147.835 157.442 146.917 157.238 146.03 156.932C145.932 156.898 145.837 156.856 145.747 156.804C145.718 156.788 145.692 156.768 145.664 156.749C145.608 156.713 145.554 156.674 145.501 156.632C145.474 156.608 145.445 156.58 145.418 156.554C145.392 156.529 145.334 156.468 145.296 156.422C145.258 156.375 145.247 156.36 145.224 156.327C145.025 156.047 144.921 155.712 144.925 155.369C144.93 155.026 145.042 154.694 145.248 154.419C145.453 154.144 145.74 153.942 146.067 153.84C146.395 153.739 146.746 153.744 147.07 153.855C147.386 153.962 147.694 154.046 147.996 154.116C148.089 154.138 148.179 154.153 148.271 154.172C148.481 154.214 148.686 154.25 148.889 154.274C148.987 154.286 149.083 154.296 149.179 154.306C149.382 154.323 149.579 154.33 149.773 154.33C149.851 154.33 149.93 154.33 150.006 154.33C150.034 154.33 150.065 154.33 150.094 154.33L150.064 154.324C150.305 154.316 150.546 154.293 150.784 154.256C151.679 154.116 152.516 153.724 153.195 153.125C153.905 152.469 154.431 151.64 154.723 150.719C155.213 149.111 155.298 147.407 154.972 145.758C154.786 144.574 154.255 143.471 153.447 142.586C152.638 141.701 151.588 141.074 150.426 140.782C148.324 140.109 146.09 139.954 143.916 140.33C143.316 140.427 142.727 140.576 142.152 140.773C129.751 145.151 130.121 154.814 132.533 161.646C133.179 163.473 134.003 165.232 134.994 166.898C137.02 169.79 139.608 172.245 142.602 174.117C144.721 175.356 147.043 176.211 149.46 176.642C151.93 177.074 154.453 177.115 156.936 176.766C159.524 176.41 162.047 175.678 164.423 174.593V174.593Z" stroke="#296EBB" stroke-miterlimit="10"/>
<path d="M73.5988 130.226C74.8124 130.975 76.1206 131.557 77.4887 131.958C80.2492 132.514 83.0834 132.6 85.8725 132.213L86.4462 132.169C88.2458 132.005 90.0535 131.948 91.8598 131.998C93.9079 132.069 95.9359 132.425 97.8854 133.057C100.04 133.811 102.108 134.793 104.054 135.986C106.026 137.161 107.919 138.481 109.582 139.716C110.646 140.504 111.754 141.369 112.788 142.176C114.291 143.401 115.861 144.541 117.491 145.59C118.54 146.231 119.646 146.773 120.795 147.21C121.849 147.615 122.944 147.907 124.059 148.08C125.011 148.216 125.973 148.259 126.933 148.208C127.646 148.176 128.317 148.113 128.976 148.04C129.385 146.999 129.911 146.007 130.544 145.086C130.591 145.018 130.64 144.952 130.688 144.884C130.799 144.729 130.913 144.573 131.03 144.418C131.086 144.345 131.147 144.273 131.199 144.201C131.333 144.032 131.474 143.864 131.619 143.697C131.659 143.652 131.696 143.605 131.736 143.561C131.921 143.353 132.115 143.147 132.318 142.945C132.373 142.889 132.435 142.835 132.487 142.779C132.641 142.628 132.798 142.478 132.962 142.33L133.18 142.134C133.338 141.994 133.503 141.855 133.671 141.719C133.787 141.624 133.903 141.53 134.02 141.436C134.164 141.324 134.311 141.213 134.46 141.105C134.584 141.013 134.711 140.922 134.839 140.832C134.995 140.723 135.154 140.616 135.315 140.509C135.448 140.423 135.581 140.335 135.718 140.249C135.888 140.143 136.067 140.038 136.24 139.934C136.378 139.853 136.516 139.771 136.659 139.691C136.845 139.586 137.041 139.483 137.234 139.381C137.328 139.332 137.422 139.281 137.517 139.233L137.798 139.093C137.967 139.009 138.138 138.927 138.312 138.847L138.515 138.75L138.795 138.623L138.852 138.597C139.064 138.503 139.284 138.412 139.503 138.32L139.62 138.271L139.773 138.208L139.951 138.136C140.319 137.99 140.694 137.846 141.083 137.71C141.83 137.451 142.597 137.256 143.377 137.127C143.673 137.077 143.979 137.035 144.287 137.001C144.39 136.99 144.496 136.984 144.601 136.973C144.81 136.954 145.019 136.935 145.232 136.923C145.359 136.916 145.488 136.914 145.617 136.909C145.811 136.902 146.006 136.896 146.199 136.895C146.339 136.895 146.48 136.895 146.621 136.902C148.274 136.923 149.914 137.198 151.484 137.718C151.814 137.835 152.136 137.962 152.453 138.101C152.532 138.136 152.61 138.173 152.686 138.21C152.741 138.236 152.793 138.265 152.848 138.291C153.042 138.384 153.235 138.479 153.424 138.583C153.485 138.618 153.547 138.651 153.609 138.686C153.833 138.816 154.051 138.953 154.264 139.098C154.325 139.14 154.389 139.178 154.449 139.215C154.716 139.404 154.972 139.607 155.218 139.823C155.281 139.878 155.334 139.94 155.399 139.995C155.582 140.164 155.759 140.345 155.928 140.523C156.002 140.605 156.074 140.689 156.147 140.772C156.303 140.955 156.45 141.148 156.592 141.345C156.65 141.425 156.709 141.503 156.767 141.587C157.181 142.208 157.517 142.877 157.765 143.581C157.902 143.969 158.014 144.365 158.101 144.767C159.756 144.852 161.41 144.578 162.95 143.964C164.36 143.279 165.711 142.478 166.989 141.571C168.093 140.839 169.217 140.093 170.332 139.473C171.596 138.772 172.919 138.187 174.288 137.724C175.644 137.263 177.039 136.928 178.456 136.721C179.14 136.622 179.8 136.561 180.405 136.511L179.566 135.964C178.204 135.093 176.782 134.319 175.312 133.648C174.1 133.091 172.836 132.653 171.539 132.341C170.149 132.055 168.741 131.867 167.325 131.775C165.245 131.638 163.179 131.338 161.147 130.877C158.793 130.276 156.5 129.456 154.299 128.429C151.974 127.367 149.74 126.115 147.622 124.684C145.198 122.973 142.885 121.11 140.695 119.108C139.464 118.025 138.273 116.978 137.046 116.011C135.578 114.84 134.006 113.805 132.351 112.918C130.783 112.084 129.125 111.431 127.41 110.972C125.635 110.51 123.816 110.237 121.984 110.156L121.848 110.143C119.836 110.062 117.822 110.151 115.825 110.407C113.599 110.686 111.395 111.123 109.231 111.714C107.076 112.297 104.965 113.034 102.914 113.918C100.534 114.95 98.3002 116.179 96.0958 117.391C94.444 118.299 92.81 119.198 91.1034 120.023C89.1732 120.952 87.1932 121.775 85.1723 122.486C83.0765 123.224 80.9444 123.854 78.7842 124.374C76.876 124.841 74.9766 125.201 73.2141 125.469C71.554 125.732 69.8808 125.9 68.2017 125.975L67.8647 125.984C68.4756 126.506 69.1829 127.076 69.9417 127.663C71.1086 128.589 72.33 129.445 73.5988 130.226V130.226Z" stroke="#296EBB" stroke-miterlimit="10"/>
<path d="M112.38 9.20526C112.445 9.22852 112.509 9.25534 112.571 9.28566L112.61 9.30672C112.639 9.32304 112.667 9.34046 112.693 9.35795C112.749 9.39323 112.802 9.43215 112.852 9.47449C112.884 9.50131 112.914 9.52933 112.943 9.55731C112.987 9.6002 113.028 9.64583 113.067 9.69378C113.091 9.72409 113.115 9.75437 113.137 9.78584V9.79282C113.17 9.84326 113.202 9.89544 113.23 9.94906C113.243 9.97471 113.257 10.0003 113.268 10.0259C113.28 10.0515 113.278 10.0457 113.284 10.0562C113.309 10.1171 113.33 10.1794 113.347 10.2428C113.357 10.2719 113.369 10.2999 113.376 10.329C113.398 10.421 113.412 10.5145 113.42 10.6088C113.42 10.6332 113.42 10.6566 113.42 10.6811C113.424 10.7537 113.424 10.8265 113.42 10.8991C113.42 10.92 113.42 10.9398 113.42 10.9608C113.42 10.9818 113.414 11.0064 113.411 11.0297C113.402 11.088 113.393 11.1462 113.382 11.2022V11.2231C113.372 11.2604 113.36 11.2966 113.35 11.3328C113.332 11.3887 113.314 11.4493 113.292 11.4971C113.269 11.5449 113.257 11.5752 113.239 11.6137C113.222 11.6521 113.184 11.7139 113.154 11.7628C113.124 11.8118 113.11 11.8305 113.087 11.862V11.869C113.05 11.9149 113.011 11.959 112.97 12.0007C112.942 12.0299 112.916 12.0613 112.886 12.0881C112.835 12.1305 112.782 12.1695 112.726 12.2047C112.7 12.2233 112.674 12.2466 112.643 12.2641C112.331 12.4448 111.969 12.5199 111.611 12.4786C108.532 12.2011 107.372 16.8745 111.572 18.8283C118.376 21.992 122.609 13.8413 121.501 9.55845C120.53 5.81184 117.137 1.78545 112.536 1.13731C108.349 0.548626 102.342 1.93122 98.5755 3.78821C89.3302 8.34383 88.4644 20.5395 73.0151 20.4428C65.5394 20.3962 58.9809 18.0228 52.573 22.6343C51.2026 23.5593 50.0384 24.758 49.1538 26.1548C52.1462 27.1562 56.943 27.3205 60.9368 30.5636C65.8957 34.5911 67.5347 44.4158 74.9254 47.9572C82.2263 51.4544 89.4227 47.6074 97.2015 52.3566C104.617 56.8865 110.564 64.0826 122.089 62.5101C139.469 60.139 145.986 42.0284 163.059 38.0661C165.537 37.4903 175.22 36.7162 175.278 36.3268C175.489 34.9385 171.477 31.3866 170.008 30.3305C158.905 22.3535 150.206 26.3669 144.451 24.5192C136.245 21.8789 136.727 14.7902 124.787 13.8973C124.32 15.6699 123.51 17.3335 122.402 18.7933C122.273 18.9619 122.14 19.1264 122.003 19.2865L121.886 19.4239C121.77 19.5568 121.653 19.6862 121.531 19.8121C121.49 19.8553 121.449 19.8996 121.406 19.9428C121.256 20.0982 121.103 20.2453 120.948 20.3844L120.914 20.4148C120.743 20.5698 120.564 20.719 120.385 20.8624L120.277 20.9452C120.133 21.0564 119.987 21.1636 119.837 21.267L119.685 21.3696C119.537 21.4687 119.386 21.5643 119.232 21.6552C119.19 21.6797 119.151 21.7053 119.109 21.7286C118.909 21.8452 118.709 21.9513 118.501 22.0503H118.492C118.295 22.1459 118.093 22.2322 117.889 22.3126L117.731 22.3721C117.57 22.4327 117.406 22.4887 117.24 22.5411L117.069 22.5935C116.876 22.6502 116.682 22.7 116.486 22.7428L116.416 22.759C116.19 22.8068 115.957 22.8454 115.725 22.8757C115.683 22.8757 115.642 22.8838 115.601 22.8885C115.412 22.9095 115.222 22.9245 115.031 22.935L114.838 22.9421C114.653 22.9476 114.468 22.9476 114.28 22.9421C114.224 22.9421 114.169 22.9421 114.113 22.9421C113.615 22.9152 113.119 22.8502 112.631 22.7475L112.444 22.7055C112.251 22.6612 112.056 22.6107 111.861 22.5539C111.278 22.3856 110.708 22.1724 110.157 21.9163C109.204 21.4862 108.328 20.9029 107.563 20.1898C103.684 23.9282 100.385 28.0841 102.218 33.8043C104.461 40.8056 114.681 46.0711 121.03 41.1774C127.347 36.307 121.672 28.9887 117.314 32.227C115.332 33.6947 117.025 35.9444 116.644 37.299C116.618 37.3958 116.578 37.4888 116.527 37.5754L116.512 37.5998C116.456 37.6898 116.388 37.7717 116.311 37.8434L116.29 37.861C116.197 37.9426 116.094 38.0126 115.983 38.0696L115.963 38.079C115.824 38.1489 115.678 38.2055 115.527 38.248C115.267 38.3249 114.99 38.3298 114.727 38.2622C114.464 38.1947 114.224 38.0572 114.032 37.8644C113.921 37.7626 113.82 37.6506 113.731 37.5298C113.716 37.5112 113.703 37.4903 113.689 37.4705C113.593 37.3369 113.507 37.1961 113.433 37.0496L113.424 37.0333C113.344 36.871 113.274 36.7035 113.216 36.532C113.204 36.4994 113.193 36.4679 113.182 36.4353C113.124 36.2545 113.074 36.0708 113.034 35.885C113.034 35.8558 113.025 35.8256 113.018 35.7965C112.982 35.6111 112.952 35.4211 112.935 35.2253C112.935 35.2031 112.929 35.1821 112.927 35.16C112.909 34.9548 112.902 34.7426 112.905 34.5293C112.905 34.485 112.905 34.4407 112.905 34.3952C112.91 34.1808 112.925 33.9639 112.953 33.7459C112.953 33.7145 112.963 33.6831 112.968 33.6516C112.996 33.4464 113.035 33.2404 113.084 33.0337C113.093 32.9999 113.1 32.9661 113.108 32.9311C113.163 32.7131 113.231 32.4963 113.309 32.2807C113.327 32.2329 113.345 32.1863 113.363 32.1408C113.447 31.921 113.543 31.7062 113.652 31.4973C113.665 31.4728 113.68 31.4495 113.694 31.425C113.8 31.2244 113.916 31.0299 114.043 30.8422C114.068 30.8072 114.09 30.7722 114.115 30.7384L114.123 30.7279C114.259 30.5408 114.407 30.3618 114.565 30.1917C114.616 30.1346 114.672 30.0751 114.727 30.0238C114.872 29.8776 115.024 29.7392 115.184 29.6089C115.233 29.5681 115.279 29.526 115.329 29.4922C115.537 29.3333 115.754 29.1873 115.98 29.055L116.053 29.0108C116.098 28.9851 116.146 28.9618 116.19 28.9374C116.392 28.8278 116.604 28.7264 116.827 28.632C116.908 28.5982 116.987 28.5643 117.071 28.5328C117.373 28.4159 117.682 28.3175 117.995 28.238C125.371 26.4101 131.743 37.2023 123.098 43.8656C122.874 44.0381 122.645 44.1978 122.415 44.3528L122.238 44.4693C122.027 44.6057 121.813 44.7363 121.597 44.8575L121.533 44.8961C121.291 45.0302 121.045 45.1548 120.796 45.2713L120.655 45.3355C120.422 45.4404 120.189 45.5383 119.956 45.6281L119.892 45.6526C119.626 45.7528 119.359 45.8437 119.089 45.9253L119.03 45.9417C118.768 46.0198 118.501 46.0886 118.236 46.1492L118.201 46.1573C117.633 46.2842 117.057 46.3737 116.477 46.4254C113.662 46.5675 110.854 46.0378 108.284 44.88C105.714 43.7222 103.456 41.9696 101.698 39.7669C101.079 39.0058 100.53 38.1909 100.057 37.3317C100.049 37.3178 100.042 37.3038 100.034 37.2898C99.7329 36.7364 99.4665 36.1649 99.2364 35.5785C99.2259 35.5493 99.2133 35.5214 99.2028 35.4922C99.0862 35.2008 98.9869 34.9093 98.8949 34.6074C98.8039 34.3148 98.7246 34.0187 98.6535 33.7203C98.6465 33.6888 98.6372 33.6586 98.6302 33.6271C98.5626 33.3334 98.5044 33.0372 98.4566 32.7376C98.4566 32.698 98.4465 32.6584 98.4395 32.6211C98.3964 32.3308 98.3598 32.0381 98.3353 31.7432C98.3353 31.7281 98.3353 31.713 98.3353 31.6978C98.3109 31.3971 98.3007 31.0951 98.2972 30.7897C98.2972 30.7325 98.2972 30.6731 98.2972 30.6195C98.2972 30.3152 98.3063 30.0087 98.3296 29.7009C98.3296 29.6869 98.3296 29.6718 98.3296 29.6578C98.3518 29.3641 98.3867 29.068 98.4298 28.7719C98.4391 28.7112 98.4472 28.6553 98.4566 28.59C98.5048 28.2885 98.5642 27.9853 98.6342 27.6807C98.6458 27.6271 98.6606 27.5723 98.6746 27.5186C98.7414 27.2404 98.8194 26.9619 98.9079 26.6829C98.9231 26.6351 98.9349 26.5884 98.9512 26.5406C99.048 26.2352 99.1606 25.9298 99.283 25.6232C99.3099 25.5556 99.3382 25.4881 99.3662 25.4193C99.4967 25.1057 99.634 24.7909 99.7902 24.4761C101.324 21.7385 103.328 19.2921 105.71 17.2487C105.643 17.0259 105.59 16.7993 105.55 16.5703C105.537 16.498 105.535 16.4223 105.524 16.3488C105.501 16.1891 105.478 16.0282 105.469 15.865C105.463 15.7764 105.469 15.6867 105.469 15.5981C105.469 15.4465 105.457 15.295 105.469 15.1411C105.469 15.0502 105.486 14.958 105.493 14.8659C105.505 14.7144 105.515 14.563 105.535 14.4114C105.549 14.3193 105.571 14.2283 105.587 14.1362C105.615 13.9858 105.64 13.8355 105.677 13.6863C105.7 13.5965 105.73 13.5103 105.757 13.4217C105.8 13.2725 105.839 13.1232 105.893 12.9763C105.924 12.8901 105.965 12.8062 105.999 12.7211C106.057 12.5777 106.115 12.4332 106.182 12.2933C106.223 12.2082 106.274 12.1278 106.319 12.045C106.393 11.9109 106.463 11.7769 106.544 11.6487C107.102 10.7521 107.906 10.0347 108.86 9.58193C109.814 9.12913 110.878 8.95994 111.925 9.09455C112.044 9.10622 112.161 9.12846 112.275 9.16101L112.342 9.18306L112.38 9.20526Z" stroke="#296EBB" stroke-miterlimit="10"/>
</g>
</svg>
