<svg width="104" height="69" viewBox="0 0 104 69" fill="none" xmlns="http://www.w3.org/2000/svg">
<g opacity="0.2">
<g clip-path="url(#clip0)">
<path d="M67.3191 67.1305C68.3191 66.6668 69.2611 66.0581 70.1451 65.3914C71.0292 64.7248 71.8843 63.9711 72.6524 63.2465L73.377 62.5653C74.6669 61.3479 75.8118 60.2755 77.1741 59.5508C77.9857 59.116 78.8553 58.8262 79.7538 58.6088C80.6379 58.4059 81.5364 58.29 82.4205 58.2175C82.9133 58.174 83.435 58.145 83.9712 58.116C85.1596 58.0581 86.348 57.9856 87.522 57.7537C88.377 57.5798 89.2321 57.3189 90.0872 56.9421C90.8843 56.5943 91.6814 56.1595 92.435 55.6233C93.1886 55.0871 93.9133 54.4494 94.464 53.8697C94.7973 53.5218 95.0727 53.203 95.2611 52.9566H94.9567C94.6089 52.9566 94.1886 52.9566 93.7538 52.9276C92.9278 52.8697 92.0002 52.6813 91.0582 52.3334C90.2466 52.0436 89.4205 51.6233 88.6524 51.0726C87.2901 50.1016 86.1451 48.7247 84.9857 47.3624L84.2756 46.5218C83.6089 45.7392 82.9277 45.0001 82.2176 44.3334C81.522 43.6813 80.7828 43.0871 79.9712 42.6088C79.2176 42.1595 78.377 41.7827 77.522 41.5074C76.5654 41.1885 75.5799 40.9711 74.6089 40.8407C73.8698 40.7392 73.1451 40.6813 72.4495 40.6233C71.2611 40.5218 70.1017 40.4349 68.9857 40.145C68.0727 39.9131 67.2031 39.5363 66.3336 39.0001C65.4785 38.4784 64.6234 37.7972 63.6959 36.9131C63.0002 36.261 62.2466 35.4784 61.464 34.6668C60.2611 33.4059 58.9712 32.0726 57.6669 30.9856C56.6089 30.1016 55.522 29.3624 54.435 28.8117C53.3915 28.29 52.3191 27.9131 51.2466 27.7247C50.1886 27.5363 49.1307 27.5363 48.0727 27.6668C46.9278 27.8117 45.7683 28.116 44.6524 28.5508C42.5799 29.3479 40.5365 30.6088 38.5799 31.8117L38.1886 32.0581C37.1307 32.7102 36.0872 33.3334 35.0872 33.8842C34.0582 34.4349 33.0292 34.9131 32.0147 35.2755C31.0437 35.6088 30.0727 35.8262 29.1017 35.9711C28.5365 36.0581 27.9857 36.1305 27.4495 36.174C27.6959 36.5943 27.9133 37.0291 28.0872 37.4639C28.2321 37.8407 28.3481 38.2175 28.435 38.6088C28.464 38.7537 28.493 38.9131 28.522 39.0581C28.522 39.0871 28.5365 39.1305 28.5365 39.1595C28.5654 39.3479 28.5799 39.5218 28.5944 39.7102C28.5944 39.7537 28.5944 39.7972 28.6089 39.8407C28.6234 39.9856 28.6234 40.1305 28.6234 40.2755C28.6234 40.3334 28.6234 40.3769 28.6234 40.4349C28.6234 40.6088 28.6089 40.7972 28.5944 40.9711C28.5365 41.6088 28.3915 42.203 28.1741 42.7827C28.1017 42.9711 28.0292 43.174 27.9423 43.3479C27.9278 43.3769 27.9133 43.3914 27.9133 43.4204C27.8263 43.6088 27.7249 43.8117 27.6234 43.9856C27.5075 44.174 27.3915 44.3624 27.2611 44.5508C27.2176 44.6088 27.1741 44.6668 27.1452 44.7247C27.0582 44.8552 26.9567 44.9711 26.8553 45.0871C26.6524 45.3334 26.435 45.5653 26.2031 45.7827C26.3915 45.7392 26.6234 45.7392 26.9423 45.7537C27.1741 45.7537 27.464 45.7682 27.7538 45.7537C27.7683 45.7537 27.7683 45.7537 27.7828 45.7537C27.8553 45.7537 27.9278 45.7392 28.0002 45.7392C28.0582 45.7392 28.1162 45.7392 28.1886 45.7247C28.2756 45.7247 28.377 45.7102 28.464 45.6958C28.522 45.6958 28.5799 45.6813 28.6379 45.6813C28.7394 45.6668 28.8553 45.6523 28.9712 45.6378C29.0292 45.6378 29.0727 45.6233 29.1307 45.6233C29.3046 45.6088 29.4785 45.5798 29.6524 45.5508C30.3191 45.4494 31.0582 45.3045 31.8408 45.116C32.6524 44.9131 33.493 44.6668 34.3336 44.3769C35.1162 44.1016 35.8843 43.7827 36.6379 43.4204C37.3046 43.1016 37.9567 42.7392 38.6234 42.3769C39.5654 41.8552 40.5075 41.3334 41.5365 40.8987C42.4205 40.5074 43.3625 40.1885 44.3191 39.9276C45.2901 39.6668 46.2756 39.4639 47.2176 39.3479C48.1451 39.232 49.0582 39.1885 49.9278 39.232H49.9857C50.8553 39.2755 51.6959 39.4059 52.493 39.6088C53.3046 39.8262 54.0727 40.1305 54.7973 40.5218C55.5365 40.9131 56.2321 41.3769 56.9278 41.9276C57.435 42.3189 57.9567 42.7827 58.4785 43.2465C59.3191 43.9856 60.2031 44.7537 61.2031 45.4349C62.0002 45.9711 62.8843 46.4639 63.7538 46.8697C64.6379 47.2755 65.522 47.5943 66.3336 47.7827C67.1886 47.9856 67.9567 48.0581 68.6669 48.116C69.3335 48.174 69.9567 48.232 70.5799 48.3769C71.1886 48.5218 71.8118 48.7392 72.377 49.0001C73.1017 49.3334 73.7683 49.7102 74.2901 50.0436C74.6524 50.2755 74.9567 50.4784 75.2031 50.6813C75.3915 50.8407 75.5509 50.9856 75.6669 51.1305L75.7104 51.1885C75.9422 51.5074 75.9857 51.8262 75.8118 52.145L75.7828 52.1885L75.7249 52.2755C75.435 52.6233 74.9278 52.6668 74.2611 52.7247C73.9712 52.7537 73.6524 52.7682 73.3191 52.8262C72.8553 52.8987 72.348 53.0146 71.8408 53.1885C71.377 53.3479 70.9133 53.5508 70.435 53.8117C70.0002 54.0581 69.5654 54.3334 69.1451 54.6233C68.9567 54.7537 68.7538 54.8842 68.5654 55.0001C68.1306 55.2755 67.6959 55.5363 67.2756 55.7247C66.406 56.1016 65.6379 56.174 64.8843 56.174C64.8843 56.7392 64.7973 57.2465 64.6379 57.7103C64.4205 58.3334 64.0872 58.8697 63.6379 59.2755C63.1741 59.6813 62.6234 59.9566 61.9712 60.0726C61.8843 60.0871 61.8118 60.1016 61.7249 60.1016C61.6959 60.1016 61.6669 60.1016 61.6379 60.1016C61.5799 60.1016 61.522 60.116 61.464 60.116C61.435 60.116 61.3915 60.116 61.3625 60.116C61.3046 60.116 61.2611 60.116 61.2031 60.116C61.1596 60.116 61.1307 60.1161 61.0872 60.1016C61.0292 60.1016 60.9857 60.1016 60.9278 60.0871C60.5654 60.0581 60.1886 59.9711 59.7973 59.8407C59.7538 59.8262 59.7249 59.8117 59.6814 59.7827C59.6669 59.7827 59.6524 59.7682 59.6524 59.7537C59.6234 59.7392 59.6089 59.7247 59.5799 59.7103C59.5654 59.6958 59.5509 59.6958 59.5509 59.6813C59.5364 59.6668 59.522 59.6523 59.493 59.6233C59.4785 59.6088 59.4785 59.5943 59.464 59.5798C59.348 59.4059 59.3046 59.1885 59.377 58.9856C59.493 58.6378 59.8698 58.4494 60.2321 58.5653C60.3625 58.6088 60.493 58.6378 60.6089 58.6668C60.6524 58.6813 60.6814 58.6813 60.7249 58.6958C60.8118 58.7103 60.8988 58.7247 60.9857 58.7392C61.0292 58.7392 61.0727 58.7537 61.1017 58.7537C61.1886 58.7537 61.2611 58.7682 61.348 58.7682C61.377 58.7682 61.406 58.7682 61.4495 58.7682C61.464 58.7682 61.4785 58.7682 61.493 58.7682H61.4785C61.5799 58.7682 61.6814 58.7537 61.7683 58.7392C62.1596 58.6668 62.493 58.5074 62.7538 58.2755C63.0292 58.0291 63.2466 57.6958 63.377 57.29C63.5654 56.7247 63.6089 56.0436 63.4785 55.2465C63.4495 55.0871 63.406 54.9276 63.3625 54.7972C63.0727 53.9856 62.406 53.4784 61.6089 53.203C60.7538 52.9132 59.7538 52.8842 58.9278 53.0146C58.6669 53.0581 58.4205 53.116 58.2031 53.203C53.1017 55.0001 53.2466 58.9856 54.2466 61.7972C54.5509 62.6523 54.9278 63.4059 55.2611 63.9566C55.8843 65.0001 57.435 66.3624 58.3915 66.9276C59.2611 67.4349 60.2176 67.7827 61.2176 67.9711C62.2176 68.145 63.2466 68.1595 64.2901 68.0291C65.2901 67.8842 66.3336 67.5798 67.3191 67.1305Z" stroke="#296EBB" stroke-miterlimit="10"/>
<path d="M53.8403 64.2609C53.7678 64.1305 53.6954 64.0001 53.6229 63.8551C53.6229 63.8406 53.6084 63.8406 53.6084 63.8261C53.5359 63.6957 53.478 63.5508 53.4055 63.4059C53.391 63.3769 53.3765 63.3479 53.362 63.3189C53.2896 63.174 53.2316 63.0146 53.1591 62.8551C53.1446 62.8262 53.1302 62.7972 53.1157 62.7537C53.0432 62.5798 52.9852 62.4204 52.9128 62.2319C52.6664 61.5508 52.478 60.7972 52.362 60.029C52.362 60.0001 52.3475 59.9566 52.3475 59.9276C52.3186 59.7537 52.3041 59.5798 52.2896 59.4059C52.2896 59.3769 52.2896 59.3624 52.2896 59.3334C52.2751 59.174 52.2751 59.0001 52.2751 58.8406C52.2751 58.8117 52.2751 58.7827 52.2751 58.7537C52.2751 58.5798 52.2751 58.4059 52.2896 58.2319C52.2896 58.1885 52.2896 58.1595 52.3041 58.116C52.3186 57.9421 52.333 57.7537 52.362 57.5798L51.9562 57.6088C51.507 57.6232 51.0287 57.6232 50.5215 57.5363C49.9997 57.4638 49.449 57.3189 48.8983 57.1015C48.3765 56.8986 47.8403 56.6522 47.3186 56.3189C46.6519 55.9131 45.9997 55.4059 45.2606 54.8261C44.8838 54.5363 44.478 54.2175 43.9707 53.8406C43.3186 53.3624 42.5794 52.8406 41.8113 52.3769C41.0577 51.9276 40.2896 51.5363 39.5359 51.2899C38.8113 51.0435 38.1012 50.9566 37.42 50.9276C36.7099 50.8986 36.0142 50.9421 35.3475 50.9856L35.1157 51.0001C33.7533 51.1015 32.478 51.203 31.2171 50.8551C30.5504 50.6667 29.8983 50.3624 29.2896 50.0001C28.6809 49.6377 28.1446 49.2464 27.6519 48.8696C27.1301 48.4638 26.6664 48.087 26.3186 47.7537C25.9417 47.4059 25.6809 47.087 25.5939 46.8551C25.5215 46.6667 25.4925 46.4928 25.5215 46.3479L25.4055 46.4348C24.6084 47.0146 23.7533 47.3914 22.8983 47.5798C21.9852 47.7827 21.0867 47.7682 20.2896 47.5508C19.5215 47.3334 18.8693 46.9421 18.333 46.4348C17.7678 45.8841 17.333 45.2175 17.0577 44.4928C16.7968 43.7972 16.6954 43.058 16.7244 42.3914C16.7533 41.6667 16.9417 41.0001 17.2896 40.5073C17.6519 39.9856 18.1301 39.6812 18.6954 39.4783C18.8258 39.4348 18.9417 39.3914 19.0722 39.3624C19.1157 39.3479 19.1591 39.3479 19.2026 39.3334C19.2896 39.3189 19.362 39.2899 19.449 39.2754C19.507 39.2609 19.5504 39.2464 19.6084 39.2464C19.6809 39.2319 19.7533 39.2175 19.8258 39.203C19.8983 39.1885 19.9562 39.174 20.0287 39.174C20.1012 39.1595 20.1736 39.145 20.2316 39.145C20.5939 39.087 20.9417 39.3334 20.9997 39.6957C21.0577 40.058 20.8113 40.4059 20.449 40.4638C20.3475 40.4783 20.2316 40.4928 20.1301 40.5218C20.1012 40.5218 20.0577 40.5363 20.0287 40.5363C19.9562 40.5508 19.8838 40.5653 19.8113 40.5798C19.7678 40.5943 19.7244 40.5943 19.6809 40.6088C19.6229 40.6233 19.5649 40.6377 19.4925 40.6522C19.449 40.6667 19.4055 40.6667 19.3765 40.6812C19.3475 40.6812 19.3186 40.6957 19.3041 40.6957H19.3186C19.2606 40.7102 19.1881 40.7247 19.1301 40.7537C19.0432 40.7827 18.9707 40.8117 18.8838 40.8551C18.8548 40.8696 18.8403 40.8841 18.8113 40.8986C18.7678 40.9276 18.7099 40.9566 18.6664 40.9856C18.6519 40.9856 18.6519 41.0001 18.6374 41.0001H18.6519C18.5359 41.087 18.4345 41.174 18.362 41.2899C18.1736 41.5798 18.0577 42.0001 18.0287 42.4783C17.9997 42.9856 18.0867 43.5363 18.2751 44.058C18.478 44.5943 18.7968 45.1015 19.2171 45.5073C19.6084 45.8696 20.0722 46.1595 20.6084 46.3044C21.1881 46.4638 21.8693 46.4783 22.5649 46.3189C23.2461 46.174 23.9272 45.8551 24.5794 45.3914C25.2751 44.8841 25.9128 44.1885 26.3765 43.3624C26.8113 42.6088 27.1012 41.7682 27.1881 40.8841C27.2751 39.9276 27.1301 38.9276 26.7678 37.9856C26.507 37.3189 26.1446 36.6667 25.6809 36.116L25.6229 36.058C25.4635 35.8696 25.3041 35.6957 25.1301 35.5363C24.391 34.8551 23.478 34.3479 22.4345 34.029C21.362 33.7102 20.1736 33.5798 18.9272 33.6812C17.1301 33.8117 15.1591 34.4059 13.2461 34.9856C12.4055 35.2319 11.5649 35.4928 10.7388 35.6957C9.33304 36.058 7.98522 36.3044 6.78232 36.3914C5.60841 36.4783 4.55044 36.4348 3.65189 36.2319C2.59391 35.9856 1.8258 35.5218 1.2316 35.1595C0.88377 34.9566 0.608407 34.7827 0.46348 34.7537H0.434494C0.405509 34.7537 0.376523 34.7972 0.333045 34.8551C0.217103 35.029 0.144639 35.3189 0.101161 35.6957C0.0721753 35.9131 0.0721753 36.1595 0.0866681 36.4204C0.115654 37.1885 0.289567 38.145 0.6229 39.1015C0.898262 39.8986 1.27507 40.6812 1.78232 41.3189C2.78232 42.5943 4.30406 43.3624 5.89826 44.174L6.31855 44.3769C7.24609 44.8406 8.18812 45.3479 9.08667 45.9131C9.98522 46.4928 10.8403 47.145 11.5794 47.9421C12.5649 49.0001 13.2751 50.2319 14.0287 51.5218C14.362 52.1015 14.6954 52.6812 15.0867 53.2899C15.7099 54.2609 16.4345 55.2319 17.2316 56.0725C17.9128 56.7827 18.6374 57.4059 19.42 57.8841C20.2606 58.3914 21.1736 58.7247 22.1301 58.9421C23.1157 59.1595 24.1736 59.2754 25.2606 59.3334C25.9417 59.3624 26.6809 59.3769 27.42 59.3914C29.0432 59.4203 30.6664 59.4493 32.1736 59.7102C33.2896 59.8986 34.333 60.2175 35.3041 60.6088C36.2606 61.0001 37.1446 61.4638 37.9417 61.9421C39.0287 62.5943 39.9562 63.2899 40.8983 64.0001C41.3186 64.3044 41.7388 64.6233 42.2606 65.0001C42.9852 65.5073 43.7533 66.029 44.5504 66.4638C45.3475 66.8986 46.1591 67.2609 46.9997 67.4638C47.8113 67.6667 48.6519 67.7537 49.4925 67.7102C50.3765 67.6667 51.2606 67.4928 52.1157 67.2175C52.7388 67.0146 53.3475 66.7537 53.9417 66.4638C54.2896 66.2899 54.6374 66.1015 54.9852 65.8986C54.7533 65.6957 54.42 65.2609 54.0722 64.6812C53.9852 64.5363 53.9128 64.4059 53.8403 64.2609Z" stroke="#296EBB" stroke-miterlimit="10"/>
<path d="M29.9416 48.8695C30.4488 49.1739 30.9851 49.4347 31.5358 49.5797C32.5793 49.8695 33.7532 49.7826 34.9851 49.6811L35.2169 49.6666C35.9416 49.6086 36.6807 49.5652 37.4488 49.5942C38.2459 49.6231 39.072 49.7536 39.9271 50.0289C40.7677 50.3043 41.6372 50.7391 42.4633 51.2318C43.2749 51.7101 44.0575 52.2608 44.7387 52.7681C45.1735 53.0869 45.6372 53.4492 46.0575 53.7826C46.7677 54.3333 47.3764 54.8115 47.9996 55.1884C48.4488 55.4637 48.9126 55.6811 49.3619 55.855C49.8256 56.0289 50.2749 56.1449 50.7097 56.2173C51.1155 56.2753 51.5068 56.2898 51.8981 56.2753C52.188 56.2608 52.4633 56.2318 52.7387 56.2028C52.8981 55.7826 53.1155 55.3768 53.3909 54.9855C53.4053 54.9565 53.4343 54.9275 53.4488 54.8985C53.4923 54.8405 53.5358 54.7681 53.5938 54.7101C53.6227 54.6811 53.6372 54.6521 53.6662 54.6231C53.7242 54.5507 53.7822 54.4782 53.8401 54.4202C53.8546 54.4057 53.8691 54.3768 53.8836 54.3623C53.9561 54.2753 54.043 54.1884 54.1155 54.1159C54.1445 54.0869 54.159 54.0724 54.188 54.0434C54.2459 53.9855 54.3184 53.913 54.3764 53.855C54.4053 53.826 54.4343 53.7971 54.4633 53.7681C54.5213 53.7101 54.5938 53.6521 54.6662 53.5942C54.7097 53.5507 54.7677 53.5217 54.8111 53.4782C54.8691 53.4347 54.9271 53.3913 54.9851 53.3478C55.043 53.3043 55.0865 53.2753 55.1445 53.2318C55.2024 53.1884 55.2749 53.1449 55.3474 53.1014C55.4053 53.0724 55.4633 53.0289 55.5068 53C55.5793 52.9565 55.6517 52.913 55.7242 52.8695C55.7822 52.8405 55.8401 52.7971 55.8981 52.7681C55.9706 52.7246 56.0575 52.6811 56.13 52.6376C56.1735 52.6231 56.2024 52.5942 56.2459 52.5797C56.2894 52.5652 56.3184 52.5362 56.3619 52.5217C56.4343 52.4927 56.5068 52.4492 56.5793 52.4202C56.6082 52.4057 56.6372 52.3913 56.6662 52.3768C56.7097 52.3623 56.7387 52.3478 56.7822 52.3188C56.7966 52.3188 56.7967 52.3188 56.8111 52.3043C56.8981 52.2608 56.9851 52.2318 57.072 52.1884C57.0865 52.1884 57.101 52.1739 57.1155 52.1739C57.13 52.1594 57.159 52.1594 57.1735 52.1449C57.2024 52.1304 57.2169 52.1304 57.2459 52.1159C57.3909 52.0579 57.5503 51.9999 57.7097 51.942C57.9996 51.8405 58.3184 51.7536 58.6517 51.6956C58.7677 51.6811 58.8981 51.6521 59.0285 51.6376C59.072 51.6376 59.1155 51.6376 59.159 51.6231C59.2459 51.6086 59.3329 51.6086 59.4198 51.6086C59.4778 51.6086 59.5213 51.6086 59.5793 51.6086C59.6662 51.6086 59.7387 51.6086 59.8256 51.6086C59.8836 51.6086 59.9416 51.6086 59.9996 51.6086C60.6662 51.6231 61.3619 51.7246 61.9995 51.942C62.13 51.9855 62.2604 52.0434 62.3909 52.1014C62.4198 52.1159 62.4488 52.1304 62.4923 52.1449C62.5213 52.1594 62.5358 52.1739 62.5648 52.1739C62.6517 52.2173 62.7242 52.2463 62.7967 52.2898C62.8256 52.3043 62.8546 52.3188 62.8691 52.3333C62.9561 52.3913 63.0575 52.4492 63.1445 52.5072C63.1735 52.5217 63.2025 52.5362 63.2169 52.5507C63.3329 52.6231 63.4343 52.7101 63.5358 52.7971C63.5648 52.826 63.5793 52.8405 63.6082 52.8695C63.6807 52.942 63.7532 53.0144 63.8256 53.0869C63.8546 53.1159 63.8836 53.1594 63.9126 53.1884C63.9706 53.2608 64.043 53.3478 64.101 53.4202C64.13 53.4492 64.1445 53.4927 64.1735 53.5217C64.3329 53.7681 64.4778 54.0434 64.5793 54.3478C64.6372 54.5072 64.6807 54.6666 64.7242 54.8405C65.3764 54.8405 66.043 54.7971 66.7242 54.5072C67.2314 54.2898 67.8111 53.913 68.3909 53.5217C68.8401 53.2173 69.3039 52.913 69.7677 52.6521C70.3039 52.3478 70.8546 52.1159 71.3909 51.9275C71.9851 51.7246 72.5648 51.5942 73.101 51.5217C73.3764 51.4782 73.6517 51.4492 73.8981 51.4347L73.5503 51.2028C73.0575 50.884 72.4488 50.5362 71.7967 50.2463C71.3039 50.0289 70.7677 49.826 70.2459 49.7101C69.6807 49.5797 69.1155 49.5362 68.5068 49.4782C67.7242 49.4057 66.8981 49.3333 65.9706 49.1014C65.101 48.884 64.13 48.5362 63.159 48.1014C62.2169 47.6666 61.2604 47.1449 60.4053 46.5652C59.3329 45.8405 58.4198 45.0289 57.5503 44.2753C57.043 43.826 56.5503 43.4057 56.043 42.9999C55.4053 42.4927 54.7677 42.0724 54.1155 41.7246C53.4633 41.3768 52.7967 41.1159 52.0865 40.9275C51.3909 40.7391 50.6372 40.6376 49.8546 40.5941H49.7967C49.014 40.5652 48.1735 40.5941 47.3184 40.6956C46.4343 40.8115 45.5068 40.9855 44.6082 41.2318C43.7242 41.4782 42.8401 41.7826 42.014 42.1449C41.0285 42.5652 40.1155 43.0724 39.2024 43.5797C38.5213 43.9565 37.8546 44.3188 37.1445 44.6666C36.3329 45.0579 35.5213 45.3913 34.7097 45.6811C33.8256 45.9855 32.9416 46.2463 32.0865 46.4637C31.3039 46.6521 30.5213 46.7971 29.7967 46.913C29.014 47.0289 28.3039 47.1014 27.7387 47.1159H27.5938C27.8401 47.3333 28.13 47.5652 28.4488 47.8115C28.9126 48.1884 29.4343 48.5652 29.9416 48.8695Z" stroke="#296EBB" stroke-miterlimit="10"/>
<path d="M62.3047 2.00003C62.3482 2.058 62.3917 2.10148 62.4496 2.15945C62.4931 2.20293 62.5221 2.2464 62.5656 2.28988C62.609 2.34785 62.6525 2.39133 62.696 2.4493C62.725 2.49278 62.7685 2.53626 62.7974 2.59423C62.8409 2.6522 62.8699 2.71017 62.9134 2.75365C62.9424 2.79713 62.9714 2.8551 63.0004 2.89858C63.0293 2.95655 63.0728 3.01452 63.1018 3.07249C63.1308 3.11597 63.1598 3.17394 63.1743 3.21742C63.2032 3.27539 63.2322 3.33336 63.2612 3.39133C63.2902 3.43481 63.3047 3.49278 63.3337 3.53626C63.3627 3.59423 63.3917 3.6522 63.4061 3.71017C63.4206 3.75365 63.4496 3.81162 63.4641 3.8551C63.4786 3.91307 63.5076 3.95655 63.5221 4.01452C63.5366 4.04351 63.5366 4.07249 63.5511 4.10148C63.5656 4.13046 63.5656 4.14495 63.5801 4.17394C63.5946 4.20293 63.5946 4.23191 63.609 4.2609C63.638 4.39133 63.6815 4.50727 63.696 4.63771V4.6522C63.696 4.68119 63.7105 4.71017 63.7105 4.73916C63.7395 4.86959 63.754 5.00003 63.7685 5.13046C63.7685 5.15945 63.7685 5.18843 63.783 5.23191C63.783 5.2464 63.783 5.2609 63.783 5.27539C63.7975 5.39133 63.7975 5.50727 63.7975 5.62321C63.7975 5.6522 63.7975 5.69568 63.7975 5.73916V5.75365C63.7975 5.88408 63.7975 6.01452 63.783 6.13046C63.783 6.17394 63.783 6.20292 63.7685 6.2464C63.7685 6.2464 63.7685 6.2464 63.7685 6.2609C63.754 6.39133 63.7395 6.50727 63.725 6.63771C63.725 6.68119 63.7105 6.72466 63.696 6.75365C63.667 6.86959 63.638 7.00003 63.609 7.11597C63.5946 7.14495 63.5946 7.18843 63.5801 7.21742C63.5366 7.34785 63.4931 7.47829 63.4496 7.60872C63.4351 7.6522 63.4206 7.68119 63.4061 7.71017C63.3627 7.82611 63.3192 7.92756 63.2612 8.0435C63.2467 8.07249 63.2322 8.10148 63.2177 8.11597L63.2032 8.14495C63.1453 8.27539 63.0728 8.39133 63.0004 8.52177C62.9859 8.55075 62.9714 8.57974 62.9569 8.59423C62.8844 8.69568 62.8264 8.79713 62.7395 8.91307C62.7105 8.94206 62.696 8.98553 62.667 9.01452C62.5801 9.13046 62.4931 9.23191 62.4061 9.33336L62.3917 9.34785C62.3772 9.37684 62.3482 9.39133 62.3337 9.40582C62.2467 9.50727 62.1453 9.59423 62.0438 9.69568C62.0148 9.72466 61.9859 9.75365 61.9569 9.78264C61.8699 9.86959 61.7685 9.94205 61.667 10.029C61.6525 10.0435 61.638 10.058 61.6235 10.0725C61.609 10.087 61.5801 10.1015 61.5656 10.116C61.4496 10.2029 61.3337 10.2754 61.2177 10.3623C61.2032 10.3768 61.1888 10.3768 61.1743 10.3913C61.1598 10.4058 61.1308 10.4203 61.1163 10.4203C61.0004 10.4928 60.8844 10.5508 60.7685 10.6232C60.725 10.6377 60.696 10.6667 60.6525 10.6812C60.6525 10.6812 60.6525 10.6812 60.638 10.6812C60.4931 10.7536 60.3337 10.8261 60.1743 10.8841C56.8264 12.2174 53.6815 9.79713 54.6525 6.63771C54.6815 6.52177 54.725 6.40582 54.7685 6.30437C54.783 6.27539 54.7975 6.2464 54.8119 6.21742C54.8409 6.14495 54.8844 6.058 54.9279 5.98553C55.696 4.59423 57.3482 3.94206 59.0148 5.058C59.0728 5.08698 59.1018 5.13046 59.1453 5.17394C59.1598 5.18843 59.1598 5.20293 59.1743 5.21742C59.2032 5.2464 59.2177 5.27539 59.2322 5.30437C59.2467 5.31887 59.2467 5.33336 59.2612 5.34785C59.2757 5.37684 59.2902 5.42032 59.2902 5.4493C59.2902 5.46379 59.2902 5.47829 59.3047 5.47829C59.3192 5.52177 59.3192 5.57974 59.3192 5.62321C59.3192 5.63771 59.3192 5.63771 59.3192 5.6522C59.3192 5.69568 59.3047 5.72466 59.3047 5.76814C59.3047 5.78264 59.2902 5.79713 59.2902 5.81162C59.2757 5.84061 59.2612 5.88408 59.2467 5.91307C59.2467 5.92756 59.2322 5.94206 59.2322 5.95655C59.1888 6.0435 59.1163 6.11597 59.0438 6.17394C58.8554 6.31887 58.5801 6.36235 58.2902 6.18843C58.2322 6.14495 58.1598 6.11597 58.1018 6.08698C58.0873 6.08698 58.0728 6.07249 58.0728 6.07249C58.0148 6.04351 57.9569 6.01452 57.8989 5.98553C57.3627 5.75365 56.9134 5.76814 56.4206 6.2609C55.4641 7.21742 55.5221 9.62322 57.9279 9.89858C60.8844 10.2464 64.2032 6.49278 61.5076 3.13046C59.7685 0.971041 56.7105 0.855099 54.3627 2.27539C51.754 3.8551 50.2902 6.66669 47.3047 7.2464C45.2322 7.6522 44.3627 7.20293 41.7105 8.6522C38.9134 10.1739 38.4786 11.5218 36.7974 12.7247C35.4931 13.6522 34.0148 14.0435 32.5076 14.029C32.4496 14.029 31.9279 13.3479 32.4061 14.6087C33.3047 16.971 35.9714 18.2899 38.4931 18.5218C43.0728 18.9421 44.609 16.6812 51.609 20C55.8119 22 59.2177 22.7247 63.5221 20.3913C64.5366 19.8406 65.2467 19.2754 66.0148 18.5508C65.754 18.2029 65.5221 17.7971 65.3337 17.3623C65.3047 17.3044 65.2902 17.2464 65.2612 17.1884C65.2467 17.145 65.2177 17.087 65.2032 17.0435C65.1743 16.9855 65.1598 16.9276 65.1453 16.8551C65.1308 16.7971 65.1163 16.7536 65.1018 16.6957C65.0873 16.6377 65.0583 16.5652 65.0438 16.5073C65.0293 16.4493 65.0148 16.4058 65.0004 16.3479C64.9859 16.2899 64.9714 16.2174 64.9569 16.1594C64.9424 16.1015 64.9279 16.0435 64.9279 16C64.9134 15.9421 64.8989 15.8696 64.8989 15.8116C64.8989 15.7826 64.8989 15.7681 64.8844 15.7392C64.8844 15.6957 64.8699 15.6667 64.8699 15.6232C64.8554 15.5797 64.8554 15.5218 64.8554 15.4783C64.8554 15.4348 64.8409 15.3913 64.8409 15.3334C64.8409 15.3044 64.8409 15.2754 64.8264 15.2464C64.8264 15.2174 64.8119 15.1739 64.8119 15.145C64.8119 15.1015 64.7975 15.0435 64.7975 15C64.7975 14.9565 64.7975 14.9276 64.7975 14.8841C64.7975 14.8551 64.7975 14.8116 64.7975 14.7826C64.7975 14.7536 64.7975 14.7247 64.7975 14.6957C64.7975 14.5508 64.7975 14.3913 64.7975 14.2464C64.7975 14.2174 64.7975 14.1739 64.7975 14.145C64.7975 14 64.8119 13.8551 64.8264 13.7102C64.8264 13.6667 64.8409 13.6377 64.8409 13.5942C64.8554 13.4493 64.8699 13.3189 64.8989 13.1739V13.1594C64.8989 13.1305 64.9134 13.1015 64.9134 13.0725C64.9424 12.9276 64.9714 12.7826 65.0004 12.6377C65.0004 12.6087 65.0148 12.5797 65.0148 12.5508C65.0438 12.4058 65.0873 12.2609 65.1308 12.1305C65.1453 12.087 65.1598 12.0435 65.1743 12.0145C65.2177 11.8841 65.2612 11.7681 65.3192 11.6377C65.3337 11.6087 65.3482 11.5652 65.3627 11.5363C65.4206 11.3913 65.4931 11.2609 65.5511 11.116C65.5656 11.087 65.5801 11.058 65.5946 11.0145C65.667 10.8841 65.7395 10.7681 65.8119 10.6522C65.8409 10.6087 65.8554 10.5797 65.8844 10.5363C65.9569 10.4348 66.0293 10.3334 66.1018 10.2319C66.1163 10.2029 66.1308 10.1884 66.1598 10.1594C66.1743 10.145 66.1888 10.1305 66.2032 10.116C66.2902 10 66.3917 9.88408 66.4931 9.78264C66.5076 9.76814 66.5221 9.75365 66.5366 9.72466L66.5511 9.71017C66.6525 9.60872 66.7685 9.50727 66.8844 9.40582C66.9279 9.37684 66.9569 9.34785 67.0003 9.30437C67.1018 9.23191 67.2032 9.14495 67.3047 9.07249C67.3482 9.0435 67.3917 9.01452 67.4206 8.98553C67.5511 8.89858 67.6815 8.82611 67.8264 8.75365C67.8699 8.73916 67.8989 8.71017 67.9424 8.69568C68.0873 8.62321 68.2177 8.56524 68.3772 8.49278C68.4351 8.47829 68.4786 8.4493 68.5366 8.43481C68.667 8.39133 68.7975 8.34785 68.9279 8.30437C68.9714 8.28988 69.0148 8.27539 69.0728 8.2609C69.0873 8.2609 69.1018 8.2609 69.1018 8.2464C69.2902 8.20293 69.4786 8.14495 69.6815 8.11597C69.8119 8.08698 69.9424 8.07249 70.0728 8.058C70.1163 8.058 70.1598 8.058 70.2033 8.0435C70.2902 8.0435 70.3772 8.02901 70.4641 8.02901C70.5076 8.02901 70.5656 8.02901 70.6091 8.02901C70.6815 8.02901 70.7685 8.02901 70.8409 8.02901C70.8844 8.02901 70.9279 8.02901 70.9859 8.02901C71.0583 8.02901 71.1453 8.0435 71.2177 8.0435C71.2612 8.0435 71.3047 8.058 71.3482 8.058C71.4351 8.07249 71.5221 8.08698 71.609 8.10148C71.638 8.10148 71.667 8.11597 71.696 8.11597C71.8119 8.14495 71.9134 8.15945 72.0293 8.20292C72.0583 8.21742 72.0873 8.21742 72.1163 8.23191C72.1888 8.2609 72.2757 8.27539 72.3482 8.30437C72.3917 8.31887 72.4206 8.33336 72.4641 8.34785C72.5221 8.37684 72.5946 8.40582 72.6525 8.43481C72.696 8.4493 72.725 8.46379 72.7685 8.49278C72.8264 8.52177 72.8844 8.55075 72.9424 8.57974C72.9714 8.59423 73.0148 8.62321 73.0438 8.63771C73.1018 8.66669 73.1598 8.71017 73.2177 8.75365C73.2467 8.76814 73.2757 8.78264 73.3047 8.81162C73.3917 8.86959 73.4786 8.92756 73.5511 8.98553L73.5656 9.00003C73.638 9.058 73.7105 9.11597 73.783 9.18843C73.8119 9.21742 73.8264 9.23191 73.8554 9.2609C73.8989 9.30437 73.9569 9.34785 74.0004 9.40582C74.0293 9.43481 74.0583 9.46379 74.0873 9.49278C74.1308 9.53626 74.1743 9.57974 74.2033 9.63771C74.2322 9.66669 74.2612 9.69568 74.2757 9.72466C74.3192 9.76814 74.3482 9.82611 74.3917 9.86959C74.4206 9.89858 74.4351 9.92756 74.4641 9.95655C74.5076 10.0145 74.5511 10.0725 74.5801 10.1305C74.5946 10.1594 74.6091 10.1739 74.6235 10.2029C74.667 10.2899 74.725 10.3768 74.7685 10.4493C74.783 10.4783 74.7975 10.5073 74.8119 10.5363C74.8409 10.5942 74.8699 10.6522 74.8989 10.7247C74.9134 10.7536 74.9279 10.7971 74.9424 10.8261C74.9714 10.8841 74.9859 10.9276 75.0004 10.9855C75.0148 11.029 75.0293 11.058 75.0438 11.1015C75.0583 11.1594 75.0728 11.2029 75.0873 11.2609C75.1018 11.3044 75.1163 11.3334 75.1163 11.3768C75.1308 11.4348 75.1453 11.4928 75.1598 11.5508C75.1743 11.5797 75.1743 11.6232 75.1888 11.6522C75.2033 11.7392 75.2177 11.8116 75.2322 11.8986C75.2322 11.9276 75.2322 11.9565 75.2467 11.9855C75.2612 12.058 75.2612 12.1305 75.2612 12.2029C75.2612 12.2464 75.2612 12.2754 75.2612 12.3189C75.2612 12.3768 75.2612 12.4348 75.2612 12.4928C75.2612 12.5363 75.2612 12.5797 75.2612 12.6087C75.2612 12.6667 75.2467 12.7102 75.2467 12.7681C75.2467 12.8116 75.2322 12.8551 75.2322 12.8841C75.2322 12.9421 75.2177 12.9855 75.2033 13.0435C75.2033 13.087 75.1888 13.116 75.1743 13.1594C75.1598 13.2174 75.1453 13.2754 75.1308 13.3334C75.1163 13.3623 75.1163 13.3913 75.1018 13.4203C74.9569 13.8986 74.7105 14.3479 74.3482 14.7247C74.2612 14.8116 74.1888 14.8841 74.1018 14.9565C74.0728 14.9855 74.0438 15 74.0148 15.029C73.9569 15.0725 73.8989 15.116 73.8409 15.1594C73.3627 15.4928 72.8554 15.6522 72.3337 15.8261C71.4931 16.1015 71.0873 14.8261 71.9279 14.5508C72.0293 14.5218 72.1163 14.4783 72.2177 14.4493C72.2322 14.4493 72.2467 14.4348 72.2612 14.4348C73.2902 14.0435 74.0728 13.4203 73.9134 12.0725C73.5946 9.56524 70.638 8.52177 68.1888 10.087C65.8409 11.5797 65.3047 16.2029 67.7685 18.4058C69.725 20.145 73.4496 20.8551 75.8409 19.7247C78.4351 18.4928 79.2757 16.058 81.725 15.2319C84.725 14.2174 88.4206 15.0725 91.0148 11.8261C91.638 11.0435 91.667 10.6377 91.8264 10.4348C91.0873 10.5797 90.9134 10.7392 89.5946 10.7536C86.1598 10.8116 83.5801 9.28988 81.609 6.60872C79.1163 3.23191 79.4786 2.36235 74.0583 3.18843C71.0004 3.6522 70.1598 3.30437 67.696 1.46379C66.2032 0.347853 64.9134 -0.304321 62.9424 0.362346C62.3772 0.550751 61.9279 0.869592 61.5076 1.21742C61.754 1.4493 62.0438 1.72466 62.3047 2.00003Z" stroke="#296EBB" stroke-miterlimit="10"/>
<path d="M91.2024 21.8115C91.2314 21.826 91.2604 21.826 91.2749 21.8405C91.2749 21.8405 91.2894 21.8405 91.2894 21.855C91.3039 21.855 91.3184 21.8695 91.3184 21.8695C91.3473 21.884 91.3618 21.8985 91.3763 21.913C91.3908 21.9275 91.4053 21.9275 91.4053 21.9419C91.4198 21.9564 91.4343 21.9709 91.4488 21.9999C91.4633 22.0144 91.4633 22.0289 91.4778 22.0289C91.4923 22.0434 91.5068 22.0724 91.5068 22.0869C91.5068 22.1014 91.5213 22.1014 91.5213 22.1159V22.1304C91.5357 22.1593 91.5357 22.1738 91.5502 22.2028C91.5502 22.2173 91.5647 22.2318 91.5647 22.2318C91.5792 22.2608 91.5792 22.3043 91.5792 22.3477C91.5792 22.3622 91.5792 22.3622 91.5792 22.3767C91.5792 22.4057 91.5792 22.4347 91.5792 22.4637C91.5792 22.4782 91.5792 22.4782 91.5792 22.4927C91.5792 22.5072 91.5792 22.5072 91.5792 22.5217C91.5792 22.5506 91.5792 22.5651 91.5647 22.5941C91.5647 22.5941 91.5647 22.5941 91.5647 22.6086C91.5647 22.6231 91.5502 22.6376 91.5502 22.6521C91.5502 22.6811 91.5357 22.6956 91.5213 22.7101C91.5213 22.7246 91.5068 22.7391 91.5068 22.7535C91.4923 22.768 91.4923 22.797 91.4778 22.8115C91.4633 22.826 91.4633 22.8405 91.4488 22.855C91.4343 22.8695 91.4198 22.884 91.4053 22.913C91.3908 22.9275 91.3908 22.9419 91.3763 22.9419C91.3618 22.9564 91.3328 22.9709 91.3184 22.9854C91.3039 22.9999 91.3039 22.9999 91.2894 23.0144C91.1734 23.0724 91.043 23.1159 90.8836 23.1014C89.6662 22.9854 89.2169 24.826 90.8691 25.5941C93.5502 26.8405 95.2024 23.6376 94.7676 21.9564C94.3908 20.4782 93.0575 18.8985 91.2459 18.6521C89.5937 18.4202 87.2314 18.9709 85.7531 19.6956C82.1155 21.4927 81.7821 26.2753 75.7097 26.2463C72.7676 26.2318 70.1879 25.2898 67.6662 27.1014C66.985 27.5941 66.5213 28.1159 66.3184 28.4927C67.4923 28.884 69.3763 28.9564 70.956 30.2318C72.9126 31.8115 73.5502 35.6811 76.4488 37.0724C79.3184 38.4492 82.1444 36.9275 85.2024 38.797C88.1155 40.5796 90.4633 43.4057 94.985 42.7825C101.826 41.855 104.376 34.7246 111.101 33.1738C112.072 32.942 115.884 32.6376 115.913 32.4927C116 31.942 114.42 30.5506 113.84 30.1304C109.478 26.9999 106.057 28.5796 103.797 27.8405C100.565 26.797 100.753 24.0144 96.0575 23.6666C95.8691 24.3622 95.5502 25.0289 95.1155 25.5941C95.072 25.6666 95.014 25.7246 94.956 25.7825C94.9415 25.797 94.9271 25.8115 94.9126 25.8405C94.8691 25.8985 94.8256 25.9419 94.7676 25.9999C94.7531 26.0144 94.7386 26.0289 94.7241 26.0579C94.6662 26.1159 94.6082 26.1738 94.5502 26.2318L94.5357 26.2463C94.4633 26.3043 94.4053 26.3622 94.3329 26.4202C94.3184 26.4347 94.3039 26.4347 94.2894 26.4492C94.2314 26.4927 94.1734 26.5362 94.1155 26.5796C94.101 26.5941 94.072 26.6086 94.0575 26.6231C93.9995 26.6666 93.9415 26.6956 93.8836 26.7391C93.8691 26.7535 93.8546 26.7535 93.8401 26.768C93.7676 26.8115 93.6807 26.855 93.6082 26.8985C93.5357 26.942 93.4488 26.9709 93.3763 26.9999C93.3618 27.0144 93.3329 27.0144 93.3184 27.0289C93.2604 27.0579 93.1879 27.0724 93.1299 27.1014C93.101 27.1014 93.0865 27.1159 93.0575 27.1159C92.985 27.1449 92.8981 27.1593 92.8256 27.1738C92.8111 27.1738 92.8111 27.1738 92.7966 27.1738C92.7097 27.1883 92.6227 27.2028 92.5213 27.2173C92.5068 27.2173 92.4923 27.2173 92.4778 27.2173C92.4053 27.2318 92.3328 27.2318 92.2604 27.2318C92.2314 27.2318 92.2169 27.2318 92.1879 27.2318C92.1155 27.2318 92.043 27.2318 91.9705 27.2318C91.956 27.2318 91.9271 27.2318 91.9126 27.2318C91.7242 27.2173 91.5213 27.2028 91.3328 27.1593C91.3039 27.1593 91.2894 27.1448 91.2604 27.1448C91.1879 27.1304 91.101 27.1014 91.0285 27.0869C90.8111 27.0289 90.5792 26.942 90.3618 26.8405C89.956 26.6521 89.6082 26.4202 89.3473 26.1593C87.8256 27.6231 86.5213 29.2608 87.2459 31.5072C88.1299 34.2608 92.1444 36.3333 94.6372 34.4057C97.1155 32.4927 94.8836 29.6086 93.1734 30.884C92.3908 31.4637 93.0575 32.3478 92.9126 32.884C92.8981 32.9275 92.8836 32.9564 92.8691 32.9854C92.8691 32.9854 92.8691 32.9854 92.8691 32.9999C92.8546 33.0289 92.8256 33.0724 92.7966 33.1014C92.7966 33.1014 92.7966 33.1014 92.7821 33.1014C92.7531 33.1304 92.7097 33.1593 92.6662 33.1883C92.6662 33.1883 92.6662 33.1883 92.6517 33.1883C92.6082 33.2173 92.5502 33.2318 92.4778 33.2608C92.2604 33.3188 92.0575 33.2608 91.8836 33.1159C91.8401 33.0724 91.7966 33.0289 91.7676 32.9854C91.7676 32.9709 91.7531 32.9709 91.7531 32.9564C91.7241 32.8985 91.6807 32.855 91.6517 32.797C91.6227 32.7391 91.5937 32.6666 91.5647 32.5941C91.5647 32.5796 91.5502 32.5651 91.5502 32.5507C91.5213 32.4782 91.5068 32.4057 91.4923 32.3333C91.4923 32.3188 91.4923 32.3043 91.4923 32.3043C91.4778 32.2318 91.4633 32.1593 91.4633 32.0724C91.4633 32.0579 91.4633 32.0579 91.4633 32.0434C91.4633 31.9564 91.4488 31.884 91.4488 31.797C91.4488 31.7825 91.4488 31.768 91.4488 31.7391C91.4488 31.6521 91.4633 31.5651 91.4633 31.4782C91.4633 31.4637 91.4633 31.4492 91.4633 31.4347C91.4778 31.3477 91.4923 31.2753 91.5068 31.1883C91.5068 31.1738 91.5068 31.1593 91.5213 31.1449C91.5357 31.0579 91.5647 30.9709 91.5937 30.884C91.5937 30.8695 91.6082 30.8405 91.6082 30.826C91.6372 30.7391 91.6807 30.6521 91.7242 30.5796C91.7242 30.5651 91.7386 30.5651 91.7386 30.5506C91.7821 30.4782 91.8256 30.3912 91.8836 30.3188C91.8981 30.3043 91.8981 30.2898 91.9126 30.2753C91.9705 30.2028 92.0285 30.1304 92.0865 30.0579C92.101 30.0289 92.1299 30.0144 92.1444 29.9854C92.2024 29.9275 92.2604 29.8695 92.3184 29.826C92.3328 29.8115 92.3618 29.797 92.3763 29.7825C92.4488 29.7246 92.5357 29.6666 92.6372 29.6086C92.6517 29.6086 92.6517 29.5941 92.6662 29.5941C92.6807 29.5796 92.7097 29.5796 92.7242 29.5651C92.7966 29.5217 92.8836 29.4782 92.9705 29.4492C92.9995 29.4347 93.0285 29.4202 93.072 29.4057C93.1879 29.3622 93.3039 29.3188 93.4343 29.2898C96.3328 28.5651 98.8401 32.8115 95.4343 35.4347C95.3473 35.5072 95.2604 35.5651 95.1589 35.6231C95.1299 35.6376 95.1155 35.6521 95.0865 35.6666C94.9995 35.7246 94.9126 35.768 94.8401 35.826C94.8256 35.826 94.8256 35.8405 94.8111 35.8405C94.7097 35.8985 94.6227 35.942 94.5213 35.9854C94.5068 35.9999 94.4778 35.9999 94.4633 36.0144C94.3763 36.0579 94.2749 36.1014 94.1879 36.1304C94.1734 36.1304 94.1734 36.1304 94.1589 36.1449C94.0575 36.1883 93.956 36.2173 93.8401 36.2463C93.8256 36.2463 93.8256 36.2463 93.8111 36.2463C93.7097 36.2753 93.6082 36.3043 93.4923 36.3333H93.4778C93.2604 36.3767 93.0285 36.4202 92.7966 36.4347C90.6517 36.6231 88.3763 35.5362 86.985 33.8115C86.7386 33.5072 86.5213 33.1883 86.3329 32.855C86.3329 32.855 86.3328 32.8405 86.3184 32.8405C86.2024 32.6231 86.101 32.3912 85.9995 32.1738L85.985 32.1449C85.9415 32.0289 85.8981 31.913 85.8691 31.797C85.8401 31.6811 85.7966 31.5651 85.7676 31.4492C85.7676 31.4347 85.7676 31.4202 85.7531 31.4057C85.7242 31.2898 85.7097 31.1738 85.6807 31.0579C85.6807 31.0434 85.6807 31.0289 85.6807 31.0144C85.6662 30.8985 85.6517 30.7825 85.6372 30.6666V30.6521C85.6227 30.5362 85.6227 30.4202 85.6227 30.2898C85.6227 30.2608 85.6227 30.2463 85.6227 30.2173C85.6227 30.1014 85.6227 29.9709 85.6372 29.855V29.8405C85.6517 29.7246 85.6662 29.6086 85.6807 29.4927C85.6807 29.4637 85.6807 29.4492 85.6952 29.4202C85.7097 29.3043 85.7386 29.1883 85.7676 29.0579C85.7676 29.0434 85.7821 29.0144 85.7821 28.9999C85.8111 28.884 85.8401 28.7825 85.8691 28.6666C85.8691 28.6521 85.8836 28.6231 85.8836 28.6086C85.927 28.4927 85.9705 28.3622 86.014 28.2463C86.0285 28.2173 86.043 28.1883 86.043 28.1593C86.101 28.0289 86.1444 27.913 86.2024 27.7825C86.7531 26.6811 87.6227 25.797 88.5358 24.942C88.5068 24.855 88.4923 24.768 88.4778 24.6811C88.4778 24.6521 88.4778 24.6231 88.4633 24.5941C88.4488 24.5362 88.4488 24.4637 88.4343 24.4057C88.4343 24.3767 88.4343 24.3333 88.4343 24.3043C88.4343 24.2463 88.4343 24.1883 88.4343 24.1304C88.4343 24.1014 88.4343 24.0579 88.4488 24.0289C88.4488 23.9709 88.4633 23.913 88.4633 23.855C88.4633 23.826 88.4778 23.7825 88.4778 23.7535C88.4923 23.6956 88.4923 23.6376 88.5068 23.5796C88.5213 23.5506 88.5213 23.5072 88.5358 23.4782C88.5502 23.4202 88.5647 23.3622 88.5937 23.3043C88.6082 23.2753 88.6227 23.2318 88.6372 23.2028C88.6662 23.1448 88.6807 23.0869 88.7097 23.0289C88.7241 22.9999 88.7386 22.9709 88.7676 22.9275C88.7966 22.8695 88.8256 22.826 88.8546 22.768C89.2604 22.1304 89.9705 21.6666 90.9705 21.768C91.014 21.768 91.072 21.7825 91.1155 21.797C91.13 21.797 91.13 21.797 91.1444 21.8115C91.1879 21.8115 91.2024 21.8115 91.2024 21.8115Z" stroke="#296EBB" stroke-miterlimit="10"/>
</g>
</g>
<defs>
<clipPath id="clip0">
<rect width="116" height="68.1884" fill="white"/>
</clipPath>
</defs>
</svg>
