<svg width="293" height="253" viewBox="0 0 293 253" fill="none" xmlns="http://www.w3.org/2000/svg">
<path opacity="0.5" d="M146.485 121.804V40.2149L105.675 81.025L146.485 121.835L187.295 81.025L228.105 121.835L146.516 121.804M146.516 121.804L105.706 162.614L64.8961 121.804H146.516ZM146.516 121.804L187.326 162.614L146.516 203.424V121.804Z" stroke="#D0542D" stroke-miterlimit="10"/>
<path opacity="0.5" d="M242.824 203.017V154.86L218.736 178.947L242.824 203.035L266.912 178.947L291 203.035L242.843 203.017M242.843 203.017L218.755 227.105L194.667 203.017H242.843ZM242.843 203.017L266.93 227.105L242.843 251.193V203.017Z" stroke="#D0542D" stroke-miterlimit="10"/>
<path opacity="0.5" d="M50.1562 50.1575V2L26.0682 26.0879L50.1562 50.1759L74.2441 26.0879L98.332 50.1759L50.1746 50.1575M50.1746 50.1575L26.0866 74.2454L1.99869 50.1575H50.1746ZM50.1746 50.1575L74.2625 74.2454L50.1746 98.3333V50.1575Z" stroke="#D0542D" stroke-miterlimit="10"/>
</svg>
