<svg width="189" height="114" viewBox="0 0 189 114" fill="none" xmlns="http://www.w3.org/2000/svg">
<g clip-path="url(#clip0)">
<path d="M110.849 111.549C112.436 110.813 113.931 109.847 115.335 108.789C116.738 107.731 118.095 106.535 119.314 105.385L120.464 104.303C122.512 102.371 124.329 100.669 126.491 99.5188C127.779 98.8287 129.159 98.3687 130.586 98.0236C131.989 97.7016 133.415 97.5176 134.818 97.4025C135.6 97.3335 136.428 97.2875 137.279 97.2415C139.166 97.1495 141.052 97.0345 142.915 96.6664C144.272 96.3904 145.629 95.9764 146.987 95.3783C148.252 94.8262 149.517 94.1361 150.713 93.285C151.909 92.4339 153.059 91.4218 153.934 90.5017C154.463 89.9496 154.9 89.4435 155.199 89.0525H154.716C154.164 89.0525 153.496 89.0525 152.806 89.0065C151.495 88.9145 150.023 88.6154 148.528 88.0634C147.24 87.6033 145.929 86.9362 144.709 86.0621C142.547 84.5209 140.73 82.3356 138.89 80.1734L137.762 78.8392C136.704 77.597 135.623 76.4239 134.496 75.3658C133.392 74.3306 132.219 73.3875 130.931 72.6284C129.734 71.9153 128.4 71.3173 127.043 70.8802C125.525 70.3741 123.961 70.0291 122.42 69.8221C121.246 69.661 120.096 69.569 118.992 69.477C117.106 69.316 115.266 69.178 113.494 68.7179C112.045 68.3499 110.665 67.7518 109.285 66.9007C107.928 66.0726 106.571 64.9915 105.098 63.5883C103.994 62.5531 102.798 61.311 101.556 60.0228C99.6467 58.0216 97.5994 55.9053 95.5291 54.1801C93.8499 52.7769 92.1247 51.6038 90.3995 50.7297C88.7433 49.9016 87.0411 49.3035 85.3389 49.0044C83.6596 48.7054 81.9804 48.7054 80.3012 48.9124C78.484 49.1425 76.6438 49.6255 74.8725 50.3156C71.5831 51.5808 68.3397 53.582 65.2343 55.4913L64.6132 55.8823C62.934 56.9174 61.2778 57.9066 59.6906 58.7807C58.0574 59.6548 56.4242 60.4139 54.814 60.989C53.2728 61.518 51.7316 61.8631 50.1904 62.0931C49.2933 62.2311 48.4192 62.3461 47.5681 62.4151C47.9591 63.0822 48.3042 63.7723 48.5802 64.4624C48.8102 65.0605 48.9943 65.6585 49.1323 66.2796C49.1783 66.5096 49.2243 66.7627 49.2703 66.9927C49.2703 67.0387 49.2933 67.1077 49.2933 67.1537C49.3393 67.4528 49.3623 67.7288 49.3853 68.0278C49.3853 68.0968 49.3853 68.1659 49.4083 68.2349C49.4313 68.4649 49.4313 68.6949 49.4313 68.925C49.4313 69.017 49.4313 69.086 49.4313 69.178C49.4313 69.454 49.4083 69.7531 49.3853 70.0291C49.2933 71.0412 49.0633 71.9843 48.7182 72.9045C48.6032 73.2035 48.4882 73.5255 48.3502 73.8016C48.3272 73.8476 48.3042 73.8706 48.3042 73.9166C48.1662 74.2156 48.0051 74.5377 47.8441 74.8137C47.6601 75.1127 47.4761 75.4118 47.2691 75.7108C47.2 75.8028 47.131 75.8948 47.085 75.9868C46.947 76.1939 46.786 76.3779 46.625 76.5619C46.3029 76.953 45.9579 77.321 45.5898 77.666C45.8889 77.597 46.2569 77.597 46.763 77.62C47.131 77.62 47.5911 77.6431 48.0512 77.62C48.0742 77.62 48.0742 77.62 48.0972 77.62C48.2122 77.62 48.3272 77.597 48.4422 77.597C48.5342 77.597 48.6262 77.597 48.7412 77.574C48.8793 77.574 49.0403 77.551 49.1783 77.528C49.2703 77.528 49.3623 77.505 49.4543 77.505C49.6154 77.482 49.7994 77.459 49.9834 77.436C50.0754 77.436 50.1444 77.413 50.2364 77.413C50.5125 77.39 50.7885 77.344 51.0645 77.298C52.1227 77.137 53.2958 76.907 54.538 76.6079C55.8261 76.2859 57.1603 75.8948 58.4945 75.4348C59.7366 74.9977 60.9558 74.4917 62.1519 73.9166C63.2101 73.4105 64.2452 72.8354 65.3033 72.2604C66.7985 71.4323 68.2937 70.6042 69.9269 69.9141C71.3301 69.293 72.8253 68.7869 74.3435 68.3729C75.8847 67.9588 77.4489 67.6368 78.944 67.4528C80.4162 67.2687 81.8654 67.1997 83.2456 67.2687H83.3376C84.7178 67.3378 86.0519 67.5448 87.3171 67.8668C88.6053 68.2119 89.8244 68.6949 90.9746 69.316C92.1477 69.9371 93.2519 70.6732 94.356 71.5473C95.1611 72.1684 95.9892 72.9045 96.8173 73.6405C98.1515 74.8137 99.5546 76.0328 101.142 77.114C102.407 77.9651 103.81 78.7472 105.19 79.3913C106.594 80.0353 107.997 80.5414 109.285 80.8405C110.642 81.1625 111.861 81.2775 112.988 81.3695C114.046 81.4615 115.036 81.5535 116.025 81.7836C116.991 82.0136 117.98 82.3586 118.877 82.7727C120.027 83.3018 121.085 83.8998 121.913 84.4289C122.489 84.7969 122.972 85.119 123.363 85.441C123.662 85.6941 123.915 85.9241 124.099 86.1541L124.168 86.2461C124.536 86.7522 124.605 87.2583 124.329 87.7643L124.283 87.8333L124.191 87.9713C123.731 88.5234 122.926 88.5924 121.867 88.6844C121.407 88.7304 120.901 88.7534 120.372 88.8455C119.636 88.9605 118.831 89.1445 118.026 89.4205C117.29 89.6736 116.554 89.9956 115.795 90.4097C115.105 90.8007 114.415 91.2378 113.747 91.6978C113.448 91.9048 113.126 92.1119 112.827 92.2959C112.137 92.7329 111.447 93.147 110.78 93.446C109.4 94.0441 108.181 94.1591 106.985 94.1591C106.985 95.0562 106.847 95.8613 106.594 96.5974C106.248 97.5866 105.719 98.4377 105.006 99.0817C104.27 99.7258 103.396 100.163 102.361 100.347C102.223 100.37 102.108 100.393 101.97 100.393C101.924 100.393 101.878 100.393 101.832 100.393C101.74 100.393 101.648 100.416 101.556 100.416C101.51 100.416 101.441 100.416 101.395 100.416C101.303 100.416 101.234 100.416 101.142 100.416C101.073 100.416 101.027 100.416 100.958 100.393C100.866 100.393 100.797 100.393 100.705 100.37C100.13 100.324 99.5316 100.186 98.9106 99.9789C98.8416 99.9559 98.7956 99.9329 98.7265 99.8868C98.7035 99.8868 98.6805 99.8638 98.6805 99.8408C98.6345 99.8178 98.6115 99.7948 98.5655 99.7718C98.5425 99.7488 98.5195 99.7488 98.5195 99.7258C98.4965 99.7028 98.4735 99.6798 98.4275 99.6338C98.4045 99.6108 98.4045 99.5878 98.3815 99.5648C98.1975 99.2888 98.1285 98.9437 98.2435 98.6217C98.4275 98.0696 99.0256 97.7706 99.6007 97.9546C99.8077 98.0236 100.015 98.0696 100.199 98.1156C100.268 98.1386 100.314 98.1386 100.383 98.1616C100.521 98.1846 100.659 98.2076 100.797 98.2306C100.866 98.2306 100.935 98.2536 100.981 98.2536C101.119 98.2536 101.234 98.2766 101.372 98.2766C101.418 98.2766 101.464 98.2766 101.533 98.2766C101.556 98.2766 101.579 98.2766 101.602 98.2766H101.579C101.74 98.2766 101.901 98.2536 102.039 98.2306C102.66 98.1156 103.189 97.8626 103.603 97.4945C104.04 97.1035 104.385 96.5744 104.592 95.9303C104.891 95.0332 104.96 93.9521 104.753 92.6869C104.707 92.4339 104.638 92.1809 104.569 91.9739C104.109 90.6857 103.051 89.8806 101.786 89.4435C100.429 88.9835 98.8416 88.9375 97.5304 89.1445C97.1163 89.2135 96.7253 89.3055 96.3803 89.4435C88.2832 92.2959 88.5133 98.6217 90.1005 103.084C90.5835 104.441 91.1816 105.638 91.7107 106.512C92.6998 108.168 95.1611 110.33 96.6793 111.227C98.0595 112.032 99.5777 112.584 101.165 112.883C102.752 113.16 104.385 113.183 106.041 112.975C107.629 112.745 109.285 112.262 110.849 111.549Z" stroke="#003573" stroke-width="0.8" stroke-miterlimit="10"/>
<path d="M89.4559 106.995C89.3409 106.788 89.2259 106.581 89.1108 106.351C89.1108 106.328 89.0878 106.328 89.0878 106.305C88.9728 106.098 88.8808 105.868 88.7658 105.638C88.7428 105.592 88.7198 105.546 88.6968 105.5C88.5818 105.27 88.4898 105.017 88.3747 104.764C88.3517 104.718 88.3287 104.672 88.3057 104.603C88.1907 104.327 88.0987 104.074 87.9837 103.775C87.5927 102.693 87.2936 101.497 87.1096 100.278C87.1096 100.232 87.0866 100.163 87.0866 100.117C87.0406 99.8411 87.0176 99.565 86.9946 99.289C86.9946 99.243 86.9946 99.22 86.9946 99.174C86.9716 98.921 86.9716 98.6449 86.9716 98.3919C86.9716 98.3459 86.9716 98.2999 86.9716 98.2539C86.9716 97.9778 86.9716 97.7018 86.9946 97.4258C86.9946 97.3568 86.9946 97.3108 87.0176 97.2417C87.0406 96.9657 87.0636 96.6667 87.1096 96.3906L86.4655 96.4366C85.7524 96.4597 84.9933 96.4597 84.1882 96.3216C83.3601 96.2066 82.486 95.9766 81.6119 95.6315C80.7838 95.3095 79.9327 94.9185 79.1046 94.3894C78.0465 93.7453 77.0113 92.9402 75.8382 92.0201C75.2401 91.56 74.596 91.054 73.7909 90.4559C72.7558 89.6968 71.5826 88.8687 70.3635 88.1326C69.1673 87.4195 67.9482 86.7984 66.752 86.4074C65.6019 86.0163 64.4747 85.8783 63.3936 85.8323C62.2665 85.7863 61.1623 85.8553 60.1042 85.9243L59.7361 85.9473C57.5739 86.1083 55.5496 86.2694 53.5484 85.7173C52.4902 85.4183 51.4551 84.9352 50.489 84.3601C49.5229 83.7851 48.6718 83.164 47.8897 82.5659C47.0616 81.9218 46.3255 81.3237 45.7734 80.7947C45.1753 80.2426 44.7613 79.7365 44.6232 79.3685C44.5082 79.0695 44.4622 78.7934 44.5082 78.5634L44.3242 78.7014C43.0591 79.6215 41.7019 80.2196 40.3447 80.5186C38.8955 80.8407 37.4693 80.8177 36.2042 80.4726C34.985 80.1276 33.9499 79.5065 33.0988 78.7014C32.2017 77.8273 31.5116 76.7692 31.0745 75.619C30.6605 74.5149 30.4995 73.3417 30.5455 72.2836C30.5915 71.1335 30.8905 70.0753 31.4426 69.2932C32.0177 68.4651 32.7768 67.9821 33.6739 67.66C33.8809 67.591 34.0649 67.522 34.2719 67.476C34.341 67.453 34.41 67.453 34.479 67.43C34.617 67.407 34.732 67.361 34.87 67.338C34.962 67.315 35.031 67.292 35.1231 67.292C35.2381 67.269 35.3531 67.246 35.4681 67.223C35.5831 67.2 35.6751 67.177 35.7901 67.177C35.9052 67.1539 36.0202 67.131 36.1122 67.131C36.6873 67.0389 37.2393 67.43 37.3313 68.0051C37.4233 68.5801 37.0323 69.1322 36.4572 69.2242C36.2962 69.2472 36.1122 69.2702 35.9512 69.3162C35.9051 69.3162 35.8361 69.3392 35.7901 69.3392C35.6751 69.3622 35.5601 69.3852 35.4451 69.4082C35.3761 69.4312 35.3071 69.4312 35.2381 69.4542C35.1461 69.4772 35.054 69.5002 34.939 69.5233C34.87 69.5463 34.801 69.5463 34.755 69.5693C34.709 69.5693 34.663 69.5923 34.64 69.5923H34.663C34.571 69.6153 34.456 69.6383 34.364 69.6843C34.2259 69.7303 34.1109 69.7763 33.9729 69.8453C33.9269 69.8683 33.9039 69.8913 33.8579 69.9143C33.7889 69.9603 33.6969 70.0063 33.6279 70.0523C33.6049 70.0523 33.6049 70.0753 33.5819 70.0753H33.6049C33.4208 70.2133 33.2598 70.3514 33.1448 70.5354C32.8458 70.9954 32.6617 71.6625 32.6157 72.4216C32.5697 73.2267 32.7077 74.1008 33.0068 74.9289C33.3288 75.78 33.8349 76.5851 34.502 77.2292C35.1231 77.8043 35.8591 78.2644 36.7103 78.4944C37.6304 78.7474 38.7115 78.7704 39.8156 78.5174C40.8968 78.2874 41.9779 77.7813 43.013 77.0452C44.1172 76.2401 45.1293 75.136 45.8654 73.8248C46.5555 72.6286 47.0155 71.2945 47.1536 69.8913C47.2916 68.3731 47.0616 66.7859 46.4865 65.2907C46.0724 64.2326 45.4974 63.1975 44.7613 62.3233L44.6693 62.2313C44.4162 61.9323 44.1632 61.6563 43.8872 61.4032C42.714 60.3221 41.2648 59.517 39.6086 59.0109C37.9064 58.5049 36.0202 58.2978 34.0419 58.4589C31.1896 58.6659 28.0612 59.609 25.0248 60.5291C23.6906 60.9202 22.3564 61.3342 21.0453 61.6563C18.814 62.2313 16.6747 62.6224 14.7655 62.7604C12.9023 62.8984 11.223 62.8294 9.79687 62.5074C8.11766 62.1163 6.8985 61.3802 5.95538 60.8052C5.40332 60.4831 4.96626 60.2071 4.73623 60.1611H4.69023C4.64422 60.1611 4.59821 60.2301 4.52921 60.3221C4.34518 60.5981 4.23017 61.0582 4.16116 61.6563C4.11515 62.0013 4.11515 62.3924 4.13816 62.8064C4.18416 64.0256 4.4602 65.5437 4.98926 67.0619C5.42632 68.3271 6.02439 69.5693 6.8295 70.5814C8.41669 72.6056 10.832 73.8248 13.3623 75.113L14.0294 75.435C15.5016 76.1711 16.9968 76.9762 18.423 77.8733C19.8491 78.7934 21.2063 79.8285 22.3795 81.0937C23.9436 82.7729 25.0708 84.7282 26.2669 86.7754C26.796 87.6955 27.3251 88.6157 27.9461 89.5818C28.9353 91.123 30.0854 92.6642 31.3506 93.9983C32.4317 95.1255 33.5819 96.1146 34.824 96.8737C36.1582 97.6788 37.6074 98.2079 39.1256 98.5529C40.6898 98.898 42.369 99.082 44.0942 99.174C45.1753 99.22 46.3485 99.243 47.5216 99.266C50.0979 99.312 52.6743 99.358 55.0666 99.7721C56.8378 100.071 58.494 100.577 60.0352 101.198C61.5534 101.819 62.9566 102.555 64.2217 103.315C65.9469 104.35 67.4191 105.454 68.9143 106.581C69.5814 107.064 70.2485 107.57 71.0766 108.168C72.2267 108.973 73.4459 109.801 74.711 110.491C75.9762 111.182 77.2644 111.757 78.5985 112.079C79.8867 112.401 81.2209 112.539 82.555 112.47C83.9582 112.401 85.3614 112.125 86.7185 111.688C87.7077 111.366 88.6738 110.951 89.6169 110.491C90.169 110.215 90.721 109.916 91.2731 109.594C90.9051 109.272 90.376 108.582 89.8239 107.662C89.6859 107.432 89.5709 107.225 89.4559 106.995Z" stroke="#003573" stroke-width="0.8" stroke-miterlimit="10"/>
<path d="M51.5233 82.5656C52.3284 83.0487 53.1796 83.4627 54.0537 83.6928C55.7099 84.1528 57.5731 84.0148 59.5283 83.8538L59.8964 83.8308C61.0465 83.7388 62.2197 83.6698 63.4388 83.7158C64.704 83.7618 66.0152 83.9688 67.3723 84.4059C68.7065 84.8429 70.0867 85.533 71.3978 86.3151C72.686 87.0742 73.9282 87.9483 75.0093 88.7534C75.6994 89.2595 76.4355 89.8345 77.1026 90.3636C78.2297 91.2377 79.1958 91.9968 80.1849 92.5949C80.898 93.0319 81.6341 93.377 82.3472 93.653C83.0833 93.9291 83.7964 94.1131 84.4865 94.2281C85.1306 94.3201 85.7516 94.3431 86.3727 94.3201C86.8328 94.2971 87.2698 94.2511 87.7069 94.2051C87.9599 93.538 88.305 92.8939 88.742 92.2729C88.765 92.2268 88.811 92.1808 88.834 92.1348C88.903 92.0428 88.972 91.9278 89.0641 91.8358C89.1101 91.7898 89.1331 91.7438 89.1791 91.6978C89.2711 91.5828 89.3631 91.4678 89.4551 91.3757C89.4781 91.3527 89.5011 91.3067 89.5241 91.2837C89.6391 91.1457 89.7771 91.0077 89.8922 90.8927C89.9382 90.8467 89.9612 90.8237 90.0072 90.7777C90.0992 90.6857 90.2142 90.5706 90.3062 90.4786C90.3522 90.4326 90.3982 90.3866 90.4442 90.3406C90.5362 90.2486 90.6513 90.1566 90.7663 90.0646C90.8353 89.9956 90.9273 89.9496 90.9963 89.8806C91.0883 89.8115 91.1803 89.7425 91.2723 89.6735C91.3643 89.6045 91.4334 89.5585 91.5254 89.4895C91.6174 89.4205 91.7324 89.3515 91.8474 89.2825C91.9394 89.2365 92.0314 89.1675 92.1004 89.1215C92.2155 89.0525 92.3305 88.9834 92.4455 88.9144C92.5375 88.8684 92.6295 88.7994 92.7215 88.7534C92.8365 88.6844 92.9745 88.6154 93.0896 88.5464C93.1586 88.5234 93.2046 88.4774 93.2736 88.4544C93.3426 88.4314 93.3886 88.3854 93.4576 88.3624C93.5726 88.3164 93.6876 88.2473 93.8027 88.2013C93.8487 88.1783 93.8947 88.1553 93.9407 88.1323C94.0097 88.1093 94.0557 88.0863 94.1247 88.0403C94.1477 88.0403 94.1477 88.0403 94.1707 88.0173C94.3087 87.9483 94.4467 87.9023 94.5848 87.8333C94.6078 87.8333 94.6308 87.8103 94.6538 87.8103C94.6768 87.7873 94.7228 87.7873 94.7458 87.7643C94.7918 87.7413 94.8148 87.7413 94.8608 87.7183C95.0908 87.6263 95.3439 87.5343 95.5969 87.4422C96.0569 87.2812 96.563 87.1432 97.0921 87.0512C97.2761 87.0282 97.4831 86.9822 97.6901 86.9592C97.7592 86.9592 97.8282 86.9592 97.8972 86.9362C98.0352 86.9132 98.1732 86.9132 98.3112 86.9132C98.4032 86.9132 98.4722 86.9132 98.5643 86.9132C98.7023 86.9132 98.8173 86.9132 98.9553 86.9132C99.0473 86.9132 99.1393 86.9132 99.2313 86.9132C100.289 86.9362 101.394 87.0972 102.406 87.4422C102.613 87.5113 102.82 87.6033 103.027 87.6953C103.073 87.7183 103.119 87.7413 103.188 87.7643C103.234 87.7873 103.257 87.8103 103.303 87.8103C103.441 87.8793 103.556 87.9253 103.671 87.9943C103.717 88.0173 103.763 88.0403 103.786 88.0633C103.924 88.1553 104.085 88.2473 104.223 88.3394C104.269 88.3624 104.315 88.3854 104.338 88.4084C104.522 88.5234 104.683 88.6614 104.844 88.7994C104.89 88.8454 104.913 88.8684 104.959 88.9144C105.074 89.0294 105.189 89.1445 105.304 89.2595C105.35 89.3055 105.396 89.3745 105.442 89.4205C105.534 89.5355 105.649 89.6735 105.741 89.7885C105.787 89.8345 105.81 89.9036 105.856 89.9496C106.109 90.3406 106.339 90.7777 106.5 91.2607C106.592 91.5138 106.661 91.7668 106.73 92.0428C107.765 92.0428 108.824 91.9738 109.905 91.5138C110.71 91.1687 111.63 90.5706 112.55 89.9496C113.263 89.4665 113.999 88.9834 114.735 88.5694C115.586 88.0863 116.461 87.7183 117.312 87.4192C118.255 87.0972 119.175 86.8902 120.026 86.7752C120.463 86.7062 120.9 86.6601 121.291 86.6371L120.739 86.2691C119.957 85.763 118.991 85.211 117.956 84.7509C117.174 84.4059 116.322 84.0838 115.494 83.8998C114.597 83.6928 113.7 83.6238 112.734 83.5317C111.492 83.4167 110.181 83.3017 108.709 82.9337C107.328 82.5886 105.787 82.0366 104.246 81.3465C102.751 80.6564 101.233 79.8283 99.8754 78.9082C98.1732 77.758 96.724 76.4699 95.3439 75.2737C94.5387 74.5606 93.7567 73.8935 92.9516 73.2495C91.9394 72.4444 90.9273 71.7773 89.8922 71.2252C88.857 70.6731 87.7989 70.2591 86.6718 69.96C85.5676 69.661 84.3715 69.5 83.1293 69.431H83.0373C81.7951 69.385 80.461 69.431 79.1038 69.592C77.7006 69.776 76.2284 70.052 74.8023 70.4431C73.3991 70.8341 71.9959 71.3172 70.6848 71.8923C69.1206 72.5594 67.6714 73.3645 66.2222 74.1696C65.1411 74.7676 64.0829 75.3427 62.9558 75.8948C61.6676 76.5159 60.3795 77.0449 59.0913 77.505C57.6881 77.9881 56.2849 78.4021 54.9278 78.7471C53.6856 79.0462 52.4435 79.2762 51.2933 79.4602C50.0512 79.6443 48.924 79.7593 48.0269 79.7823H47.7969C48.1879 80.1273 48.648 80.4954 49.154 80.8864C49.8901 81.4845 50.7182 82.0826 51.5233 82.5656Z" stroke="#003573" stroke-width="0.8" stroke-miterlimit="10"/>
<path d="M102.89 8.17457C102.959 8.26658 103.028 8.33559 103.12 8.4276C103.189 8.49661 103.235 8.56562 103.304 8.63463C103.373 8.72664 103.442 8.79565 103.511 8.88766C103.557 8.95667 103.626 9.02568 103.672 9.11769C103.741 9.2097 103.787 9.30171 103.856 9.37072C103.902 9.43973 103.948 9.53174 103.994 9.60075C104.04 9.69276 104.109 9.78477 104.155 9.87678C104.201 9.94579 104.247 10.0378 104.27 10.1068C104.316 10.1988 104.362 10.2908 104.408 10.3828C104.454 10.4519 104.477 10.5439 104.523 10.6129C104.569 10.7049 104.615 10.7969 104.638 10.8889C104.661 10.9579 104.707 11.0499 104.73 11.1189C104.753 11.211 104.799 11.28 104.822 11.372C104.845 11.418 104.845 11.464 104.868 11.51C104.891 11.556 104.891 11.579 104.914 11.625C104.937 11.671 104.937 11.717 104.96 11.763C105.006 11.97 105.075 12.1541 105.098 12.3611V12.3841C105.098 12.4301 105.121 12.4761 105.121 12.5221C105.167 12.7291 105.19 12.9362 105.213 13.1432C105.213 13.1892 105.213 13.2352 105.236 13.3042C105.236 13.3272 105.236 13.3502 105.236 13.3732C105.259 13.5572 105.259 13.7413 105.259 13.9253C105.259 13.9713 105.259 14.0403 105.259 14.1093V14.1323C105.259 14.3393 105.259 14.5464 105.236 14.7304C105.236 14.7994 105.236 14.8454 105.213 14.9144C105.213 14.9144 105.213 14.9144 105.213 14.9374C105.19 15.1444 105.167 15.3285 105.144 15.5355C105.144 15.6045 105.121 15.6735 105.098 15.7195C105.052 15.9035 105.006 16.1106 104.96 16.2946C104.937 16.3406 104.937 16.4096 104.914 16.4556C104.845 16.6626 104.776 16.8697 104.707 17.0767C104.684 17.1457 104.661 17.1917 104.638 17.2377C104.569 17.4217 104.5 17.5828 104.408 17.7668C104.385 17.8128 104.362 17.8588 104.339 17.8818L104.316 17.9278C104.224 18.1348 104.109 18.3188 103.994 18.5259C103.971 18.5719 103.948 18.6179 103.925 18.6409C103.81 18.8019 103.718 18.9629 103.58 19.147C103.534 19.193 103.511 19.262 103.465 19.308C103.327 19.492 103.189 19.653 103.051 19.814L103.028 19.837C103.005 19.883 102.959 19.906 102.936 19.929C102.798 20.0901 102.637 20.2281 102.476 20.3891C102.43 20.4351 102.384 20.4811 102.338 20.5271C102.2 20.6651 102.039 20.7802 101.878 20.9182C101.855 20.9412 101.832 20.9642 101.809 20.9872C101.786 21.0102 101.74 21.0332 101.717 21.0562C101.533 21.1942 101.349 21.3092 101.165 21.4472C101.142 21.4702 101.119 21.4702 101.096 21.4932C101.073 21.5162 101.027 21.5393 101.004 21.5393C100.82 21.6543 100.635 21.7463 100.451 21.8613C100.382 21.8843 100.336 21.9303 100.267 21.9533C100.267 21.9533 100.267 21.9533 100.244 21.9533C100.014 22.0683 99.7614 22.1833 99.5083 22.2753C94.1947 24.3916 89.203 20.5501 90.7442 15.5355C90.7902 15.3515 90.8592 15.1674 90.9283 15.0064C90.9513 14.9604 90.9743 14.9144 90.9973 14.8684C91.0433 14.7534 91.1123 14.6154 91.1813 14.5004C92.4004 12.2921 95.0228 11.257 97.6681 13.0282C97.7601 13.0742 97.8061 13.1432 97.8751 13.2122C97.8981 13.2352 97.8981 13.2582 97.9211 13.2812C97.9671 13.3272 97.9902 13.3732 98.0132 13.4192C98.0362 13.4422 98.0362 13.4652 98.0592 13.4882C98.0822 13.5342 98.1052 13.6033 98.1052 13.6493C98.1052 13.6723 98.1052 13.6953 98.1282 13.6953C98.1512 13.7643 98.1512 13.8563 98.1512 13.9253C98.1512 13.9483 98.1512 13.9483 98.1512 13.9713C98.1512 14.0403 98.1282 14.0863 98.1282 14.1553C98.1282 14.1783 98.1052 14.2013 98.1052 14.2243C98.0822 14.2703 98.0592 14.3393 98.0362 14.3854C98.0362 14.4084 98.0132 14.4314 98.0132 14.4544C97.9441 14.5924 97.8291 14.7074 97.7141 14.7994C97.4151 15.0294 96.978 15.0984 96.518 14.8224C96.426 14.7534 96.3109 14.7074 96.2189 14.6614C96.1959 14.6614 96.1729 14.6384 96.1729 14.6384C96.0809 14.5924 95.9889 14.5464 95.8969 14.5004C95.0458 14.1323 94.3327 14.1553 93.5506 14.9374C92.0324 16.4556 92.1244 20.2741 95.9429 20.7111C100.635 21.2632 105.903 15.3055 101.625 9.96879C98.8643 6.54136 94.0106 6.35734 90.2842 8.61162C86.1437 11.1189 83.8204 15.5815 79.0818 16.5016C75.7923 17.1457 74.4122 16.4326 70.2026 18.7329C65.7631 21.1482 65.073 23.2875 62.4047 25.1967C60.3344 26.6689 57.9881 27.29 55.5958 27.267C55.5038 27.267 54.6757 26.1858 55.4348 28.1871C56.861 31.9366 61.0935 34.0298 65.096 34.3979C72.3649 35.065 74.8032 31.4765 85.9136 36.7442C92.5845 39.9186 97.9901 41.0687 104.822 37.3652C106.432 36.4911 107.559 35.594 108.779 34.4439C108.364 33.8918 107.996 33.2477 107.697 32.5576C107.651 32.4656 107.628 32.3736 107.582 32.2816C107.559 32.2126 107.513 32.1206 107.49 32.0516C107.444 31.9596 107.421 31.8676 107.398 31.7525C107.375 31.6605 107.352 31.5915 107.329 31.4995C107.306 31.4075 107.26 31.2925 107.237 31.2005C107.214 31.1085 107.191 31.0394 107.168 30.9474C107.145 30.8554 107.122 30.7404 107.099 30.6484C107.076 30.5564 107.053 30.4644 107.053 30.3954C107.03 30.3034 107.007 30.1883 107.007 30.0963C107.007 30.0503 107.007 30.0273 106.984 29.9813C106.984 29.9123 106.961 29.8663 106.961 29.7973C106.938 29.7283 106.938 29.6363 106.938 29.5673C106.938 29.4983 106.915 29.4292 106.915 29.3372C106.915 29.2912 106.915 29.2452 106.892 29.1992C106.892 29.1532 106.869 29.0842 106.869 29.0382C106.869 28.9692 106.846 28.8772 106.846 28.8082C106.846 28.7392 106.846 28.6932 106.846 28.6241C106.846 28.5781 106.846 28.5091 106.846 28.4631C106.846 28.4171 106.846 28.3711 106.846 28.3251C106.846 28.0951 106.846 27.842 106.846 27.612C106.846 27.566 106.846 27.497 106.846 27.451C106.846 27.221 106.869 26.9909 106.892 26.7609C106.892 26.6919 106.915 26.6459 106.915 26.5769C106.938 26.3469 106.961 26.1398 107.007 25.9098V25.8868C107.007 25.8408 107.03 25.7948 107.03 25.7488C107.076 25.5188 107.122 25.2887 107.168 25.0587C107.168 25.0127 107.191 24.9667 107.191 24.9207C107.237 24.6906 107.306 24.4606 107.375 24.2536C107.398 24.1846 107.421 24.1156 107.444 24.0696C107.513 23.8625 107.582 23.6785 107.674 23.4715C107.697 23.4255 107.72 23.3565 107.743 23.3105C107.835 23.0804 107.95 22.8734 108.042 22.6434C108.065 22.5974 108.088 22.5514 108.111 22.4824C108.226 22.2753 108.341 22.0913 108.456 21.9073C108.502 21.8383 108.525 21.7923 108.571 21.7233C108.687 21.5623 108.802 21.4012 108.917 21.2402C108.94 21.1942 108.963 21.1712 109.009 21.1252C109.032 21.1022 109.055 21.0792 109.078 21.0562C109.216 20.8722 109.377 20.6881 109.538 20.5271C109.561 20.5041 109.584 20.4811 109.607 20.4351L109.63 20.4121C109.791 20.2511 109.975 20.0901 110.159 19.929C110.228 19.883 110.274 19.837 110.343 19.768C110.504 19.653 110.665 19.515 110.826 19.4C110.895 19.354 110.964 19.308 111.01 19.262C111.217 19.1239 111.424 19.0089 111.654 18.8939C111.723 18.8709 111.769 18.8249 111.838 18.8019C112.068 18.6869 112.275 18.5949 112.528 18.4799C112.62 18.4569 112.689 18.4109 112.781 18.3879C112.988 18.3188 113.195 18.2498 113.402 18.1808C113.471 18.1578 113.54 18.1348 113.632 18.1118C113.655 18.1118 113.678 18.1118 113.678 18.0888C113.977 18.0198 114.276 17.9278 114.598 17.8818C114.805 17.8358 115.012 17.8128 115.219 17.7898C115.288 17.7898 115.357 17.7898 115.426 17.7668C115.564 17.7668 115.702 17.7438 115.84 17.7438C115.909 17.7438 116.001 17.7438 116.07 17.7438C116.185 17.7438 116.323 17.7438 116.438 17.7438C116.507 17.7438 116.577 17.7438 116.669 17.7438C116.784 17.7438 116.922 17.7668 117.037 17.7668C117.106 17.7668 117.175 17.7898 117.244 17.7898C117.382 17.8128 117.52 17.8358 117.658 17.8588C117.704 17.8588 117.75 17.8818 117.796 17.8818C117.98 17.9278 118.141 17.9508 118.325 18.0198C118.371 18.0428 118.417 18.0428 118.463 18.0658C118.578 18.1118 118.716 18.1348 118.831 18.1808C118.9 18.2038 118.946 18.2268 119.015 18.2498C119.107 18.2958 119.222 18.3418 119.314 18.3879C119.383 18.4109 119.429 18.4339 119.498 18.4799C119.59 18.5259 119.682 18.5719 119.774 18.6179C119.82 18.6409 119.889 18.6869 119.935 18.7099C120.027 18.7559 120.119 18.8249 120.211 18.8939C120.257 18.9169 120.303 18.9399 120.349 18.9859C120.487 19.0779 120.625 19.17 120.74 19.262L120.763 19.285C120.878 19.377 120.993 19.469 121.108 19.584C121.154 19.63 121.177 19.653 121.223 19.699C121.292 19.768 121.384 19.837 121.453 19.929C121.499 19.9751 121.545 20.0211 121.591 20.0671C121.66 20.1361 121.729 20.2051 121.775 20.2971C121.821 20.3431 121.867 20.3891 121.89 20.4351C121.959 20.5041 122.005 20.5961 122.074 20.6651C122.12 20.7111 122.143 20.7572 122.189 20.8032C122.258 20.8952 122.327 20.9872 122.373 21.0792C122.396 21.1252 122.419 21.1482 122.442 21.1942C122.511 21.3322 122.603 21.4702 122.672 21.5853C122.695 21.6313 122.718 21.6773 122.741 21.7233C122.787 21.8153 122.833 21.9073 122.879 22.0223C122.902 22.0683 122.925 22.1373 122.948 22.1833C122.994 22.2753 123.017 22.3444 123.04 22.4364C123.063 22.5054 123.086 22.5514 123.109 22.6204C123.132 22.7124 123.155 22.7814 123.178 22.8734C123.201 22.9424 123.224 22.9884 123.224 23.0574C123.247 23.1495 123.27 23.2415 123.293 23.3335C123.316 23.3795 123.316 23.4485 123.339 23.4945C123.362 23.6325 123.385 23.7475 123.408 23.8855C123.408 23.9316 123.408 23.9776 123.431 24.0236C123.454 24.1386 123.454 24.2536 123.454 24.3686C123.454 24.4376 123.454 24.4836 123.454 24.5526C123.454 24.6446 123.454 24.7367 123.454 24.8287C123.454 24.8977 123.454 24.9667 123.454 25.0127C123.454 25.1047 123.431 25.1737 123.431 25.2657C123.431 25.3347 123.408 25.4037 123.408 25.4497C123.408 25.5418 123.385 25.6108 123.362 25.7028C123.362 25.7718 123.339 25.8178 123.316 25.8868C123.293 25.9788 123.27 26.0708 123.247 26.1628C123.224 26.2088 123.224 26.2548 123.201 26.3009C122.971 27.0599 122.58 27.773 122.005 28.3711C121.867 28.5091 121.752 28.6241 121.614 28.7392C121.568 28.7852 121.522 28.8082 121.476 28.8542C121.384 28.9232 121.292 28.9922 121.2 29.0612C120.441 29.5903 119.636 29.8433 118.808 30.1193C117.474 30.5564 116.83 28.5321 118.164 28.0951C118.325 28.0491 118.463 27.9801 118.624 27.9341C118.647 27.9341 118.67 27.9111 118.693 27.9111C120.326 27.29 121.568 26.3009 121.315 24.1616C120.809 20.1821 116.116 18.5259 112.229 21.0102C108.502 23.3795 107.651 30.7174 111.562 34.2138C114.667 36.9742 120.579 38.1013 124.374 36.3071C128.492 34.3519 129.826 30.4874 133.714 29.1762C138.475 27.566 144.341 28.9232 148.459 23.7705C149.448 22.5284 149.494 21.8843 149.747 21.5623C148.574 21.7923 148.298 22.0453 146.204 22.0683C140.753 22.1603 136.658 19.745 133.53 15.4895C129.573 10.1298 130.148 8.74964 121.545 10.0608C116.692 10.7969 115.357 10.2448 111.447 7.32346C109.078 5.55224 107.03 4.51711 103.902 5.57524C103.005 5.87428 102.292 6.38034 101.625 6.93241C102.016 7.30046 102.476 7.73751 102.89 8.17457Z" stroke="#003573" stroke-width="0.8" stroke-miterlimit="10"/>
<path d="M148.758 39.6194C148.804 39.6424 148.85 39.6424 148.873 39.6654C148.873 39.6654 148.896 39.6654 148.896 39.6884C148.919 39.6884 148.942 39.7114 148.942 39.7114C148.988 39.7344 149.011 39.7574 149.034 39.7804C149.057 39.8034 149.08 39.8034 149.08 39.8264C149.103 39.8494 149.126 39.8724 149.149 39.9184C149.172 39.9414 149.172 39.9644 149.195 39.9644C149.218 39.9874 149.241 40.0335 149.241 40.0565C149.241 40.0795 149.264 40.0795 149.264 40.1025V40.1255C149.287 40.1715 149.287 40.1945 149.31 40.2405C149.31 40.2635 149.333 40.2865 149.333 40.2865C149.356 40.3325 149.356 40.4015 149.356 40.4705C149.356 40.4935 149.356 40.4935 149.356 40.5165C149.356 40.5625 149.356 40.6085 149.356 40.6545C149.356 40.6775 149.356 40.6775 149.356 40.7005C149.356 40.7235 149.356 40.7235 149.356 40.7465C149.356 40.7925 149.356 40.8156 149.333 40.8616C149.333 40.8616 149.333 40.8616 149.333 40.8846C149.333 40.9076 149.31 40.9306 149.31 40.9536C149.31 40.9996 149.287 41.0226 149.264 41.0456C149.264 41.0686 149.241 41.0916 149.241 41.1146C149.218 41.1376 149.218 41.1836 149.195 41.2066C149.172 41.2296 149.172 41.2526 149.149 41.2756C149.126 41.2986 149.103 41.3216 149.08 41.3676C149.057 41.3906 149.057 41.4136 149.034 41.4136C149.011 41.4366 148.965 41.4596 148.942 41.4826C148.919 41.5056 148.919 41.5056 148.896 41.5286C148.712 41.6207 148.505 41.6897 148.252 41.6667C146.319 41.4826 145.606 44.404 148.229 45.6232C152.484 47.6014 155.106 42.5178 154.416 39.8494C153.818 37.5031 151.702 34.9958 148.827 34.6048C146.204 34.2367 142.455 35.1108 140.109 36.261C134.335 39.1133 133.806 46.7043 124.168 46.6583C119.498 46.6353 115.403 45.1401 111.401 48.0155C110.32 48.7976 109.584 49.6257 109.262 50.2237C111.125 50.8448 114.115 50.9598 116.623 52.9841C119.728 55.4914 120.74 61.6332 125.341 63.8415C129.895 66.0267 134.381 63.6114 139.234 66.5788C143.858 69.4082 147.585 73.8937 154.761 72.9046C165.619 71.4324 169.667 60.115 180.341 57.6537C181.882 57.2856 187.932 56.8026 187.978 56.5725C188.116 55.6984 185.608 53.4902 184.688 52.8231C177.764 47.8544 172.336 50.3618 168.747 49.1886C163.618 47.5324 163.917 43.1158 156.464 42.5638C156.165 43.6679 155.659 44.726 154.968 45.6232C154.899 45.7382 154.807 45.8302 154.715 45.9222C154.692 45.9452 154.669 45.9682 154.646 46.0142C154.577 46.1062 154.508 46.1752 154.416 46.2672C154.393 46.2902 154.37 46.3132 154.347 46.3593C154.255 46.4513 154.163 46.5433 154.071 46.6353L154.048 46.6583C153.933 46.7503 153.841 46.8423 153.726 46.9343C153.703 46.9573 153.68 46.9573 153.657 46.9803C153.565 47.0493 153.473 47.1183 153.381 47.1874C153.358 47.2104 153.312 47.2334 153.289 47.2564C153.197 47.3254 153.105 47.3714 153.013 47.4404C152.99 47.4634 152.967 47.4634 152.944 47.4864C152.829 47.5554 152.691 47.6244 152.576 47.6934C152.461 47.7624 152.323 47.8084 152.208 47.8544C152.185 47.8774 152.139 47.8774 152.116 47.9004C152.024 47.9465 151.909 47.9695 151.817 48.0155C151.771 48.0155 151.748 48.0385 151.702 48.0385C151.587 48.0845 151.449 48.1075 151.334 48.1305C151.311 48.1305 151.311 48.1305 151.288 48.1305C151.15 48.1535 151.012 48.1765 150.851 48.1995C150.828 48.1995 150.805 48.1995 150.782 48.1995C150.667 48.2225 150.552 48.2225 150.437 48.2225C150.391 48.2225 150.368 48.2225 150.322 48.2225C150.207 48.2225 150.092 48.2225 149.977 48.2225C149.954 48.2225 149.908 48.2225 149.885 48.2225C149.586 48.1995 149.264 48.1765 148.965 48.1075C148.919 48.1075 148.896 48.0845 148.85 48.0845C148.735 48.0615 148.597 48.0155 148.482 47.9925C148.137 47.9004 147.769 47.7624 147.424 47.6014C146.779 47.3024 146.227 46.9343 145.813 46.5203C143.398 48.8436 141.328 51.4429 142.478 55.0083C143.881 59.3789 150.253 62.6683 154.209 59.6089C158.143 56.5725 154.6 51.995 151.886 54.0192C150.644 54.9393 151.702 56.3425 151.472 57.1936C151.449 57.2626 151.426 57.3086 151.403 57.3546C151.403 57.3546 151.403 57.3546 151.403 57.3776C151.38 57.4236 151.334 57.4927 151.288 57.5387C151.288 57.5387 151.288 57.5387 151.265 57.5387C151.219 57.5847 151.15 57.6307 151.081 57.6767C151.081 57.6767 151.081 57.6767 151.058 57.6767C150.989 57.7227 150.897 57.7457 150.782 57.7917C150.437 57.8837 150.115 57.7917 149.839 57.5617C149.77 57.4927 149.701 57.4236 149.655 57.3546C149.655 57.3316 149.632 57.3316 149.632 57.3086C149.586 57.2166 149.517 57.1476 149.471 57.0556C149.425 56.9636 149.379 56.8486 149.333 56.7336C149.333 56.7106 149.31 56.6876 149.31 56.6646C149.264 56.5495 149.241 56.4345 149.218 56.3195C149.218 56.2965 149.218 56.2735 149.218 56.2735C149.195 56.1585 149.172 56.0435 149.172 55.9055C149.172 55.8825 149.172 55.8825 149.172 55.8595C149.172 55.7214 149.149 55.6064 149.149 55.4684C149.149 55.4454 149.149 55.4224 149.149 55.3764C149.149 55.2384 149.172 55.1004 149.172 54.9623C149.172 54.9393 149.172 54.9163 149.172 54.8933C149.195 54.7553 149.218 54.6403 149.241 54.5023C149.241 54.4793 149.241 54.4563 149.264 54.4333C149.287 54.2953 149.333 54.1572 149.379 54.0192C149.379 53.9962 149.402 53.9502 149.402 53.9272C149.448 53.7892 149.517 53.6512 149.586 53.5362C149.586 53.5132 149.609 53.5132 149.609 53.4902C149.678 53.3751 149.747 53.2371 149.839 53.1221C149.862 53.0991 149.862 53.0761 149.885 53.0531C149.977 52.9381 150.069 52.8231 150.161 52.7081C150.184 52.662 150.23 52.639 150.253 52.593C150.345 52.501 150.437 52.409 150.529 52.34C150.552 52.317 150.598 52.294 150.621 52.271C150.736 52.179 150.874 52.087 151.035 51.995C151.058 51.995 151.058 51.972 151.081 51.972C151.104 51.949 151.15 51.949 151.173 51.926C151.288 51.8569 151.426 51.7879 151.564 51.7419C151.61 51.7189 151.656 51.6959 151.725 51.6729C151.909 51.6039 152.093 51.5349 152.3 51.4889C156.901 50.3388 160.88 57.0786 155.475 61.2421C155.336 61.3571 155.198 61.4492 155.037 61.5412C154.991 61.5642 154.968 61.5872 154.922 61.6102C154.784 61.7022 154.646 61.7712 154.531 61.8632C154.508 61.8632 154.508 61.8862 154.485 61.8862C154.324 61.9782 154.186 62.0472 154.025 62.1162C154.002 62.1392 153.956 62.1392 153.933 62.1622C153.795 62.2313 153.634 62.3003 153.496 62.3463C153.473 62.3463 153.473 62.3463 153.45 62.3693C153.289 62.4383 153.128 62.4843 152.944 62.5303C152.921 62.5303 152.921 62.5303 152.898 62.5303C152.737 62.5763 152.576 62.6223 152.392 62.6683H152.369C152.024 62.7373 151.656 62.8063 151.288 62.8293C147.884 63.1284 144.272 61.4032 142.064 58.6658C141.673 58.1827 141.328 57.6767 141.029 57.1476C141.029 57.1476 141.029 57.1246 141.006 57.1246C140.822 56.7796 140.661 56.4115 140.5 56.0665L140.477 56.0205C140.408 55.8364 140.339 55.6524 140.293 55.4684C140.247 55.2844 140.178 55.1004 140.132 54.9163C140.132 54.8933 140.132 54.8703 140.109 54.8473C140.063 54.6633 140.04 54.4793 139.994 54.2953C139.994 54.2723 139.994 54.2492 139.994 54.2262C139.971 54.0422 139.948 53.8582 139.925 53.6742V53.6512C139.902 53.4671 139.902 53.2831 139.902 53.0761C139.902 53.0301 139.902 53.0071 139.902 52.9611C139.902 52.7771 139.902 52.57 139.925 52.386V52.363C139.948 52.179 139.971 51.995 139.994 51.8109C139.994 51.7649 139.994 51.7419 140.017 51.6959C140.04 51.5119 140.086 51.3279 140.132 51.1209C140.132 51.0979 140.155 51.0518 140.155 51.0288C140.201 50.8448 140.247 50.6838 140.293 50.4998C140.293 50.4768 140.316 50.4308 140.316 50.4078C140.385 50.2237 140.454 50.0167 140.523 49.8327C140.546 49.7867 140.569 49.7407 140.569 49.6947C140.661 49.4876 140.73 49.3036 140.822 49.0966C141.696 47.3484 143.076 45.9452 144.525 44.588C144.479 44.45 144.456 44.312 144.433 44.174C144.433 44.128 144.433 44.082 144.41 44.036C144.387 43.9439 144.387 43.8289 144.364 43.7369C144.364 43.6909 144.364 43.6219 144.364 43.5759C144.364 43.4839 144.364 43.3919 144.364 43.2999C144.364 43.2539 144.364 43.1849 144.387 43.1388C144.387 43.0468 144.41 42.9548 144.41 42.8628C144.41 42.8168 144.433 42.7478 144.433 42.7018C144.456 42.6098 144.456 42.5178 144.479 42.4258C144.502 42.3797 144.502 42.3107 144.525 42.2647C144.548 42.1727 144.571 42.0807 144.617 41.9887C144.64 41.9427 144.663 41.8737 144.686 41.8277C144.732 41.7357 144.755 41.6437 144.801 41.5516C144.824 41.5056 144.847 41.4596 144.893 41.3906C144.939 41.2986 144.985 41.2296 145.031 41.1376C145.675 40.1255 146.802 39.3894 148.39 39.5504C148.459 39.5504 148.551 39.5734 148.62 39.5964C148.643 39.5964 148.643 39.5964 148.666 39.6194C148.735 39.6194 148.758 39.6194 148.758 39.6194Z" stroke="#003573" stroke-width="0.8" stroke-miterlimit="10"/>
</g>
<defs>
<clipPath id="clip0">
<rect width="188.115" height="114" fill="white"/>
</clipPath>
</defs>
</svg>
