<svg width="247" height="247" viewBox="0 0 247 247" fill="none" xmlns="http://www.w3.org/2000/svg">
<g opacity="0.3" clip-path="url(#clip0)">
<path d="M100.712 112.107L54.382 112.861L0.431641 58.911L46.7621 58.1562L100.712 112.107Z" stroke="#79318D" stroke-miterlimit="10"/>
<path d="M112.106 100.712L112.861 54.3456L58.9101 0.431152L58.1553 46.7616L112.106 100.712Z" stroke="#79318D" stroke-miterlimit="10"/>
<path d="M146.288 134.893L192.619 134.139L246.569 188.089L200.239 188.844L146.288 134.893Z" stroke="#79318D" stroke-miterlimit="10"/>
<path d="M134.894 146.288L134.14 192.655L188.09 246.569L188.845 200.239L134.894 146.288Z" stroke="#79318D" stroke-miterlimit="10"/>
<path d="M112.106 146.288L112.861 192.619L58.9101 246.569L58.1553 200.239L112.106 146.288Z" stroke="#79318D" stroke-miterlimit="10"/>
<path d="M100.712 134.893L54.382 134.139L0.431641 188.089L46.7621 188.844L100.712 134.893Z" stroke="#79318D" stroke-miterlimit="10"/>
<path d="M134.894 100.712L134.14 54.3815L188.09 0.431152L188.845 46.7616L134.894 100.712Z" stroke="#79318D" stroke-miterlimit="10"/>
<path d="M146.288 112.107L192.655 112.861L246.569 58.911L200.239 58.1562L146.288 112.107Z" stroke="#79318D" stroke-miterlimit="10"/>
<path d="M132.091 132.09H114.91V114.909H132.091V132.09Z" stroke="#79318D" stroke-miterlimit="10"/>
</g>
<defs>
<clipPath id="clip0">
<rect width="247" height="247" fill="white"/>
</clipPath>
</defs>
</svg>
