<svg width="52" height="66" viewBox="0 0 52 66" fill="none" xmlns="http://www.w3.org/2000/svg">
<g opacity="0.2">
<path opacity="0.7" d="M4.02388 3.51154L4.02357 3.512C3.0543 4.89908 3.39301 6.80927 4.78009 7.77854L45.2652 36.0687C46.6523 37.038 48.5625 36.6993 49.5317 35.3122L49.5321 35.3118C50.5013 33.9247 50.1626 32.0145 48.7755 31.0452L8.29043 2.75502C6.90335 1.78575 4.99315 2.12446 4.02388 3.51154Z" stroke="white" stroke-width="1.00036" stroke-miterlimit="10"/>
<path opacity="0.7" d="M2.75533 30.6065L2.75501 30.607C1.78575 31.9941 2.12445 33.9043 3.51153 34.8735L43.9966 63.1637C45.3837 64.133 47.2939 63.7943 48.2632 62.4072L48.2635 62.4068C49.2328 61.0197 48.8941 59.1095 47.507 58.1402L7.02187 29.85C5.63479 28.8808 3.72459 29.2195 2.75533 30.6065Z" stroke="white" stroke-width="1.00036" stroke-miterlimit="10"/>
<path opacity="0.7" d="M28.9063 27.6558C21.3282 22.361 13.5207 19.3214 7.88599 19.0511C7.69874 19.0548 7.51479 19.1027 7.3496 19.1909C7.1844 19.2792 7.04239 19.4053 6.93522 19.5589C6.82805 19.7125 6.75885 19.8892 6.73303 20.0747C6.70721 20.2602 6.72559 20.4492 6.78675 20.6263C8.97829 25.8231 14.5179 32.1098 22.096 37.4045C29.674 42.6993 37.4815 45.7378 43.1157 46.0092C43.3029 46.0052 43.4865 45.9572 43.6516 45.8689C43.8166 45.7806 43.9587 45.6544 44.0659 45.5009C44.1731 45.3474 44.2426 45.171 44.2687 44.9856C44.2948 44.8002 44.2767 44.6112 44.216 44.4341C42.0234 39.2377 36.4838 32.9522 28.9063 27.6558Z" stroke="white" stroke-miterlimit="10"/>
<path opacity="0.7" d="M47.2559 49.9019C48.4544 49.9019 49.4259 48.9304 49.4259 47.7319C49.4259 46.5335 48.4544 45.562 47.2559 45.562C46.0575 45.562 45.0859 46.5335 45.0859 47.7319C45.0859 48.9304 46.0575 49.9019 47.2559 49.9019Z" stroke="white" stroke-miterlimit="10"/>
<path opacity="0.7" d="M4.06353 19.4055C5.26198 19.4055 6.23351 18.434 6.23351 17.2355C6.23351 16.0371 5.26198 15.0656 4.06353 15.0656C2.86509 15.0656 1.89355 16.0371 1.89355 17.2355C1.89355 18.434 2.86509 19.4055 4.06353 19.4055Z" stroke="white" stroke-miterlimit="10"/>
</g>
</svg>
