<svg width="353" height="89" viewBox="0 0 353 89" fill="none" xmlns="http://www.w3.org/2000/svg">
<g opacity="0.4">
<path d="M190.777 79.6434C190.625 79.3676 190.466 79.0816 190.319 78.78C190.307 78.7593 190.297 78.7366 190.287 78.7149C190.141 78.4257 189.997 78.123 189.854 77.8131C189.823 77.747 189.793 77.6831 189.763 77.6159C189.617 77.293 189.473 76.96 189.332 76.6171C189.304 76.5489 189.278 76.4786 189.25 76.4104C189.105 76.0479 188.963 75.6791 188.827 75.297C188.279 73.7606 187.88 72.175 187.636 70.5621C187.624 70.4864 187.613 70.4107 187.602 70.3349C187.552 69.9589 187.509 69.5809 187.478 69.1988C187.478 69.1461 187.472 69.0955 187.468 69.0418C187.443 68.6878 187.428 68.3332 187.423 67.9779C187.423 67.9179 187.423 67.857 187.423 67.796C187.423 67.4166 187.434 67.0379 187.458 66.6599C187.458 66.5803 187.469 66.5008 187.475 66.4213C187.505 66.0319 187.544 65.6415 187.604 65.2541L186.719 65.313C185.684 65.3649 184.646 65.3161 183.62 65.1674C182.429 64.9846 181.261 64.6754 180.135 64.2449C178.95 63.7933 177.809 63.2324 176.727 62.5696C175.187 61.581 173.704 60.506 172.285 59.35C171.473 58.7168 170.606 58.0392 169.497 57.2191C168.096 56.18 166.501 55.0686 164.849 54.0802V54.0738C163.305 53.124 161.664 52.3425 159.953 51.7426C158.478 51.2667 156.943 50.999 155.393 50.9473C153.907 50.9058 152.419 50.9527 150.938 51.0877L150.429 51.1259C147.631 51.5112 144.787 51.4064 142.024 50.8161C140.56 50.3891 139.16 49.7672 137.861 48.9672C136.636 48.2228 135.456 47.405 134.33 46.5182C133.219 45.6578 132.209 44.8201 131.456 44.1198C130.809 43.5888 130.275 42.9343 129.885 42.1944C129.735 41.855 129.681 41.4808 129.73 41.113L129.483 41.2968C127.873 42.4847 126.036 43.3286 124.087 43.7758C122.24 44.2104 120.315 44.1862 118.48 43.7056C116.895 43.264 115.445 42.436 114.259 41.2958C113.04 40.123 112.102 38.6893 111.516 37.1023C110.979 35.6529 110.733 34.1115 110.794 32.5668C110.817 31.1321 111.235 29.7315 112 28.5178C112.743 27.4713 113.803 26.6919 115.024 26.295C115.291 26.1979 115.558 26.1131 115.827 26.0388C115.922 26.0119 116.018 25.9913 116.114 25.9675C116.289 25.9231 116.464 25.8766 116.639 25.8384C116.756 25.8136 116.874 25.7909 116.99 25.7682C117.149 25.7372 117.307 25.7041 117.466 25.6741L117.891 25.5999L118.34 25.5223C118.532 25.4779 118.731 25.4733 118.925 25.5087C119.119 25.5441 119.304 25.6188 119.468 25.7282C119.632 25.8376 119.772 25.9794 119.879 26.1449C119.987 26.3104 120.058 26.4962 120.091 26.6906C120.124 26.8851 120.117 27.0843 120.07 27.2758C120.023 27.4673 119.937 27.6472 119.818 27.8044C119.699 27.9616 119.549 28.0928 119.378 28.1899C119.206 28.287 119.016 28.3479 118.82 28.369C118.592 28.4072 118.364 28.4465 118.137 28.4867L117.908 28.5291C117.753 28.558 117.598 28.5869 117.448 28.6169C117.358 28.6355 117.27 28.6551 117.181 28.6747C117.048 28.7037 116.915 28.7346 116.787 28.7667C116.699 28.7894 116.614 28.8132 116.528 28.8359C116.473 28.8514 116.415 28.8648 116.362 28.8803L116.403 28.8751C116.269 28.9154 116.131 28.9536 116.008 28.998C115.831 29.0623 115.659 29.1369 115.491 29.2212C115.438 29.247 115.388 29.2801 115.34 29.3079C115.234 29.366 115.13 29.4298 115.031 29.499C115.012 29.5114 114.991 29.5207 114.974 29.5341L115.002 29.5218C114.761 29.6909 114.552 29.9006 114.383 30.1415C113.922 30.9114 113.678 31.7913 113.675 32.6886C113.631 33.8496 113.816 35.008 114.221 36.0972C114.655 37.2751 115.35 38.3394 116.254 39.2104C117.095 40.0242 118.124 40.6168 119.25 40.9353C120.632 41.2889 122.08 41.2996 123.467 40.9663C125.029 40.607 126.501 39.9302 127.79 38.9779C129.369 37.8069 130.691 36.3236 131.673 34.6201C132.634 32.9865 133.231 31.164 133.422 29.2779C133.596 27.1528 133.283 25.0161 132.504 23.031C131.944 21.568 131.152 20.205 130.159 18.9944L130.044 18.858C129.711 18.466 129.357 18.0935 128.982 17.7425C127.322 16.2266 125.336 15.1124 123.177 14.4858C120.723 13.7678 118.157 13.5117 115.61 13.7306C111.443 14.2443 107.339 15.1812 103.361 16.5268C101.537 17.0701 99.7333 17.6083 97.965 18.0627C95.172 18.8047 92.3214 19.3095 89.4435 19.5718C87.1972 19.8 84.929 19.6858 82.717 19.233C80.8612 18.7585 79.0969 17.9791 77.4965 16.9264C76.9833 16.5685 76.4253 16.2796 75.8367 16.0672L75.7747 16.0609C75.722 16.0609 75.6448 16.1436 75.5487 16.2934C75.2528 16.8493 75.0832 17.4636 75.0519 18.0926C75.001 18.6092 74.9875 19.1287 75.0116 19.6472C75.1176 21.6135 75.5025 23.5549 76.1549 25.4129C76.7192 27.1246 77.5562 28.734 78.6338 30.1787C80.773 32.9304 84.0565 34.5799 87.5033 36.3111L88.395 36.7593C90.4316 37.7618 92.4158 38.8669 94.3402 40.0707C96.3018 41.293 98.1024 42.7564 99.6999 44.4265C101.743 46.7893 103.512 49.3752 104.975 52.1351C105.692 53.3746 106.421 54.6297 107.258 55.9311C108.605 58.0672 110.15 60.0728 111.87 61.9219C113.26 63.4251 114.847 64.7336 116.587 65.8118C118.402 66.8749 120.376 67.6402 122.433 68.0781C124.656 68.5475 126.913 68.8256 129.183 68.9095C130.634 68.9828 132.231 69.0128 133.831 69.0448C137.261 69.0222 140.687 69.2556 144.082 69.7431C146.388 70.1484 148.643 70.8015 150.809 71.6911C152.779 72.5027 154.682 73.4699 156.499 74.5833C158.824 75.9943 160.826 77.4827 162.88 79.0093C163.77 79.6714 164.675 80.3428 165.82 81.1577C167.403 82.3043 169.051 83.357 170.758 84.3102C172.422 85.2473 174.196 85.9758 176.038 86.4792C177.792 86.9218 179.602 87.1 181.409 87.008C183.334 86.9118 185.237 86.5561 187.066 85.9504C188.411 85.5024 189.721 84.9559 190.985 84.3153C191.73 83.9425 192.482 83.5345 193.238 83.1038C192.464 82.3237 191.798 81.4434 191.258 80.4863C191.1 80.2229 190.939 79.9409 190.777 79.6434Z" stroke="#296EBB" stroke-width="0.8" stroke-miterlimit="10"/>
<path d="M219.806 85.8151C221.968 84.7964 224.012 83.5438 225.9 82.08C227.809 80.6339 229.63 79.0143 231.312 77.4546L232.869 75.9993C235.648 73.384 238.109 71.0672 241.028 69.5055C242.783 68.5883 244.651 67.9099 246.585 67.4882C248.474 67.0748 250.391 66.7985 252.32 66.6618C253.372 66.5771 254.509 66.5173 255.647 66.4553C258.211 66.382 260.766 66.12 263.291 65.6713C267.099 64.8948 270.702 63.331 273.87 61.0801C275.44 59.9568 276.907 58.6958 278.253 57.312C278.864 56.6968 279.432 56.0411 279.955 55.3494H279.304C278.545 55.3494 277.66 55.3494 276.703 55.2782C274.715 55.1151 272.758 54.6869 270.884 54.0047C269.037 53.3403 267.289 52.4251 265.691 51.285C262.75 48.9524 260.102 46.2717 257.806 43.3017L256.273 41.4972C254.884 39.8529 253.407 38.2843 251.849 36.7985C250.378 35.3965 248.761 34.1555 247.027 33.0966C245.356 32.1126 243.583 31.3133 241.739 30.7126C239.691 30.0423 237.587 29.5583 235.452 29.2665C233.869 29.0445 232.314 28.9195 230.79 28.7986C228.278 28.6728 225.781 28.3272 223.329 27.7657C221.315 27.2375 219.392 26.4091 217.625 25.3084C215.578 24.0145 213.669 22.5135 211.929 20.8288C210.421 19.4096 208.806 17.73 207.122 15.9741C204.539 13.1892 201.813 10.542 198.952 8.04343C196.817 6.2269 194.48 4.66076 191.988 3.37569C189.829 2.26542 187.517 1.48127 185.127 1.04862C182.866 0.666788 180.56 0.621211 178.284 0.913332C175.756 1.24288 173.277 1.88179 170.904 2.81586C166.348 4.75841 161.974 7.10418 157.835 9.82517L156.978 10.352C154.695 11.7526 152.467 13.0995 150.286 14.2771C148.16 15.4506 145.943 16.4495 143.655 17.2642C141.617 17.9496 139.521 18.4522 137.393 18.766C136.169 18.9561 134.985 19.0965 133.82 19.2122C134.801 20.8383 135.512 22.6129 135.924 24.4667C135.997 24.7869 136.06 25.1084 136.114 25.4313C136.128 25.5088 136.143 25.5852 136.155 25.6627C136.214 26.0545 136.26 26.4464 136.292 26.8382C136.299 26.9312 136.302 27.0242 136.309 27.1171C136.329 27.427 136.338 27.7368 136.34 28.0466C136.34 28.1561 136.34 28.2667 136.34 28.3762C136.334 28.7656 136.318 29.1539 136.282 29.5371C136.154 30.8734 135.853 32.1873 135.385 33.4457C135.231 33.8651 135.063 34.272 134.877 34.679C134.853 34.7327 134.825 34.7822 134.8 34.8401C134.601 35.2533 134.386 35.6665 134.161 36.0641C133.918 36.4856 133.652 36.8905 133.376 37.285C133.29 37.408 133.199 37.5257 133.11 37.6455C132.91 37.9172 132.704 38.1825 132.491 38.4408C132.057 38.9686 131.592 39.4705 131.1 39.9437C131.624 39.8564 132.157 39.8318 132.688 39.8703C133.185 39.8807 133.803 39.8951 134.444 39.8703H134.501C134.651 39.8652 134.817 39.8528 134.976 39.8435C135.107 39.8362 135.23 39.8321 135.367 39.8218C135.56 39.8084 135.765 39.7888 135.967 39.7702C136.097 39.7589 136.22 39.7495 136.354 39.7361C136.582 39.7133 136.823 39.6834 137.064 39.6545C137.183 39.64 137.297 39.6296 137.421 39.6131C137.786 39.5666 138.166 39.5099 138.557 39.4551C140.003 39.2351 141.598 38.9252 143.261 38.5255C145.079 38.0869 146.873 37.5561 148.637 36.9349C150.326 36.3421 151.981 35.6566 153.595 34.8814C155.019 34.1935 156.445 33.4095 157.883 32.6183C159.903 31.5079 161.951 30.38 164.166 29.4163C166.11 28.5785 168.113 27.8809 170.157 27.3288C172.205 26.7688 174.29 26.3546 176.397 26.0894C178.33 25.8429 180.28 25.7593 182.227 25.8394H182.354C184.18 25.924 185.993 26.201 187.762 26.6657C189.49 27.1269 191.159 27.7829 192.739 28.621C194.36 29.4872 195.898 30.4988 197.336 31.6433C198.426 32.5006 199.54 33.4797 200.691 34.492C202.543 36.1876 204.5 37.7656 206.55 39.2166C208.291 40.3937 210.127 41.4241 212.039 42.2976C213.824 43.1295 215.684 43.7921 217.593 44.2767C219.251 44.6523 220.935 44.8972 222.631 45.009C224.02 45.099 225.4 45.2857 226.763 45.5678C228.096 45.8886 229.394 46.3384 230.64 46.9107C232.068 47.5605 233.449 48.3098 234.772 49.1531C235.451 49.5749 236.107 50.0346 236.735 50.53C237.098 50.8135 237.428 51.1359 237.721 51.4915L237.824 51.6196C238.063 51.8991 238.212 52.2447 238.25 52.6106C238.288 52.9764 238.214 53.3453 238.037 53.6679L237.984 53.7619L237.86 53.9417C237.247 54.6967 236.158 54.7814 234.7 54.896C234.088 54.9446 233.387 54.9994 232.658 55.1027C231.573 55.2611 230.506 55.5183 229.468 55.871C228.422 56.2273 227.41 56.6767 226.444 57.2139C225.508 57.7303 224.585 58.35 223.677 58.9481C223.264 59.2235 222.85 59.4938 222.437 59.7589C221.551 60.3517 220.618 60.8726 219.649 61.3166C218.016 62.0018 216.254 62.3266 214.484 62.269C214.48 63.3942 214.298 64.5116 213.946 65.5804C213.527 66.8684 212.779 68.025 211.777 68.9363C210.772 69.8326 209.532 70.4232 208.203 70.6385C208.025 70.6684 207.844 70.6923 207.662 70.7109C207.597 70.7171 207.527 70.7191 207.462 70.7232C207.343 70.7325 207.225 70.7418 207.102 70.7459C207.025 70.7459 206.947 70.7459 206.868 70.7459C206.756 70.7459 206.642 70.7459 206.526 70.7459C206.447 70.7459 206.364 70.7346 206.283 70.7294C206.169 70.7222 206.052 70.7171 205.935 70.7047C205.108 70.6179 204.294 70.4374 203.508 70.1665C203.422 70.1367 203.338 70.0986 203.258 70.0529C203.232 70.0385 203.209 70.0209 203.185 70.0044C203.135 69.9727 203.087 69.9381 203.04 69.901C203.016 69.8793 202.99 69.8546 202.967 69.8319C202.943 69.8092 202.892 69.7555 202.858 69.7141C202.824 69.6728 202.815 69.6593 202.794 69.6304C202.619 69.3826 202.526 69.0854 202.53 68.7816C202.534 68.4778 202.634 68.1831 202.815 67.9397C202.997 67.6963 203.251 67.5168 203.542 67.4269C203.832 67.3371 204.143 67.3415 204.43 67.4397C204.71 67.5347 204.983 67.609 205.25 67.671C205.333 67.6906 205.413 67.704 205.495 67.7206C205.68 67.7578 205.862 67.7898 206.042 67.8115C206.129 67.8218 206.214 67.8311 206.299 67.8393C206.479 67.8548 206.654 67.861 206.825 67.861C206.894 67.861 206.964 67.861 207.031 67.861C207.056 67.861 207.084 67.861 207.11 67.861L207.083 67.8559C207.297 67.8484 207.51 67.8281 207.721 67.795C208.514 67.6711 209.256 67.3236 209.858 66.7931C210.487 66.2121 210.953 65.4773 211.211 64.6611C211.645 63.2361 211.721 61.7262 211.432 60.265C211.267 59.216 210.797 58.2386 210.081 57.4547C209.364 56.6708 208.433 56.1151 207.403 55.8567C205.541 55.2604 203.562 55.1229 201.635 55.4558C201.104 55.5421 200.582 55.6734 200.073 55.8483C189.085 59.7279 189.412 68.2897 191.549 74.3436C192.122 75.9624 192.852 77.521 193.73 78.9968C195.525 81.5594 197.818 83.7347 200.471 85.3936C202.349 86.4915 204.407 87.2489 206.548 87.6309C208.737 88.0134 210.972 88.0503 213.172 87.7403C215.466 87.4249 217.7 86.7764 219.806 85.8151V85.8151Z" stroke="#296EBB" stroke-width="0.8" stroke-miterlimit="10"/>
<path d="M139.327 46.5037C140.402 47.1669 141.561 47.6831 142.774 48.0386C145.22 48.5307 147.731 48.6068 150.202 48.2638L150.711 48.2255C152.305 48.0802 153.907 48.0295 155.507 48.0737C157.322 48.1363 159.119 48.4519 160.846 49.0116C162.755 49.6802 164.588 50.5503 166.313 51.6072C168.059 52.6484 169.737 53.8177 171.211 54.9126C172.153 55.6108 173.135 56.3772 174.051 57.092C175.383 58.1774 176.774 59.1874 178.219 60.1173C179.148 60.6852 180.128 61.1655 181.146 61.5521C182.08 61.9112 183.05 62.1698 184.038 62.3236C184.881 62.4438 185.734 62.4818 186.584 62.4372C187.216 62.4083 187.811 62.3526 188.395 62.2875C188.757 61.3651 189.223 60.4869 189.784 59.6701C189.826 59.6102 189.869 59.5513 189.912 59.4914C190.01 59.3537 190.111 59.216 190.215 59.0782C190.265 59.0142 190.318 58.9501 190.365 58.8861C190.484 58.7363 190.609 58.5876 190.737 58.4399C190.772 58.3996 190.805 58.3583 190.84 58.3191C191.004 58.1345 191.176 57.9528 191.356 57.7737C191.405 57.7242 191.46 57.6756 191.506 57.626C191.643 57.4927 191.782 57.3595 191.926 57.2283L192.12 57.0548C192.26 56.9308 192.406 56.808 192.555 56.6871C192.657 56.6031 192.761 56.5194 192.864 56.4361C192.992 56.3369 193.122 56.2391 193.254 56.1427C193.364 56.0614 193.476 55.9809 193.59 55.901C193.728 55.8049 193.869 55.7099 194.012 55.6149C194.13 55.5384 194.248 55.461 194.368 55.3845C194.519 55.2905 194.678 55.1977 194.831 55.1057C194.954 55.0334 195.076 54.9612 195.202 54.8899C195.367 54.7969 195.541 54.7059 195.712 54.615C195.796 54.5716 195.879 54.5273 195.963 54.4839L196.211 54.3599C196.361 54.2856 196.513 54.2133 196.667 54.1421L196.847 54.0563L197.095 53.9437L197.146 53.9209C197.334 53.8372 197.528 53.7568 197.722 53.6752L197.826 53.6318L197.962 53.5759L198.12 53.5119C198.445 53.3828 198.778 53.2557 199.123 53.1349C199.785 52.905 200.464 52.7322 201.155 52.6184C201.418 52.574 201.689 52.5369 201.961 52.507C202.052 52.4966 202.146 52.4914 202.239 52.4821C202.425 52.4646 202.61 52.4481 202.799 52.4377C202.912 52.4315 203.026 52.4294 203.14 52.4253C203.312 52.4191 203.485 52.4139 203.656 52.4129C203.78 52.4129 203.904 52.4129 204.029 52.4191C205.494 52.4371 206.948 52.681 208.338 53.1422C208.631 53.2455 208.916 53.3581 209.197 53.481C209.267 53.512 209.336 53.545 209.404 53.5781C209.452 53.6008 209.498 53.6266 209.547 53.6493C209.719 53.7319 209.89 53.8166 210.057 53.9085C210.112 53.9395 210.167 53.9685 210.222 53.9995C210.42 54.1145 210.613 54.2363 210.802 54.3651C210.856 54.4023 210.912 54.4353 210.966 54.4684C211.202 54.6362 211.43 54.8161 211.647 55.0075C211.703 55.0561 211.75 55.1109 211.808 55.1595C211.97 55.3092 212.126 55.4693 212.276 55.6274C212.342 55.6997 212.406 55.774 212.47 55.8484C212.608 56.0106 212.738 56.181 212.864 56.3555C212.916 56.4268 212.968 56.496 213.02 56.5704C213.387 57.1201 213.684 57.7134 213.904 58.3366C214.025 58.6805 214.124 59.0318 214.201 59.3882C215.668 59.4632 217.134 59.2204 218.498 58.6764C219.747 58.0691 220.945 57.3599 222.077 56.5559C223.056 55.9072 224.051 55.2462 225.039 54.6967C226.159 54.0761 227.332 53.5576 228.544 53.1474C229.746 52.7391 230.982 52.4416 232.238 52.2589C232.843 52.1712 233.429 52.1165 233.965 52.0721L233.221 51.5877C232.014 50.8164 230.755 50.1305 229.452 49.5352C228.378 49.0419 227.258 48.6542 226.109 48.3774C224.877 48.1245 223.629 47.9571 222.374 47.8764C220.532 47.7548 218.701 47.4885 216.9 47.08C214.815 46.5475 212.783 45.8213 210.833 44.911C208.772 43.9706 206.793 42.8609 204.916 41.5932C202.769 40.0765 200.719 38.426 198.779 36.6518C197.688 35.6922 196.633 34.7646 195.545 33.9084C194.244 32.8706 192.852 31.9531 191.385 31.1671C189.996 30.4285 188.527 29.8501 187.007 29.4431C185.434 29.0342 183.823 28.7919 182.2 28.7201L182.079 28.7088C180.297 28.6372 178.511 28.7153 176.742 28.9422C174.77 29.1897 172.817 29.5767 170.9 30.1002C168.99 30.6174 167.119 31.2701 165.302 32.0534C163.193 32.9675 161.214 34.0572 159.261 35.1304C157.797 35.935 156.349 36.7324 154.837 37.4626C153.127 38.2863 151.372 39.015 149.582 39.6452C147.725 40.2989 145.836 40.8574 143.922 41.3185C142.231 41.7317 140.548 42.0508 138.986 42.2884C137.515 42.5212 136.032 42.6708 134.545 42.7366L134.246 42.7449C134.787 43.2077 135.414 43.7127 136.086 44.2322C137.12 45.0532 138.203 45.8117 139.327 46.5037V46.5037Z" stroke="#296EBB" stroke-width="0.8" stroke-miterlimit="10"/>
</g>
<path opacity="0.4" d="M305.922 10.9596C305.969 10.9765 306.015 10.9959 306.061 11.018L306.089 11.0333C306.11 11.0451 306.13 11.0578 306.149 11.0705C306.19 11.0961 306.228 11.1244 306.265 11.1551C306.288 11.1746 306.31 11.1949 306.331 11.2153C306.363 11.2464 306.393 11.2796 306.421 11.3144C306.438 11.3364 306.455 11.3584 306.471 11.3812V11.3863C306.496 11.423 306.519 11.4608 306.539 11.4998C306.549 11.5184 306.559 11.537 306.567 11.5556C306.575 11.5742 306.574 11.57 306.578 11.5776C306.596 11.6218 306.612 11.6671 306.624 11.7131C306.631 11.7343 306.64 11.7546 306.645 11.7757C306.661 11.8426 306.671 11.9105 306.677 11.9789C306.677 11.9967 306.677 12.0137 306.677 12.0314C306.68 12.0842 306.68 12.1371 306.677 12.1898C306.677 12.205 306.677 12.2194 306.677 12.2346C306.677 12.2499 306.673 12.2677 306.67 12.2847C306.664 12.327 306.658 12.3693 306.649 12.4099V12.4251C306.642 12.4522 306.634 12.4786 306.626 12.5048C306.613 12.5454 306.6 12.5895 306.584 12.6242C306.568 12.6589 306.559 12.6809 306.546 12.7088C306.533 12.7368 306.506 12.7816 306.484 12.8171C306.462 12.8527 306.452 12.8663 306.435 12.8892V12.8942C306.409 12.9276 306.38 12.9596 306.35 12.9899C306.33 13.0111 306.311 13.0339 306.289 13.0534C306.252 13.0842 306.214 13.1125 306.173 13.1381C306.154 13.1516 306.135 13.1686 306.113 13.1813C305.886 13.3124 305.623 13.367 305.363 13.337C303.127 13.1355 302.284 16.5298 305.335 17.9488C310.277 20.2467 313.351 14.3268 312.546 11.2161C311.841 8.49489 309.377 5.57048 306.035 5.09973C302.994 4.67216 298.631 5.67636 295.896 7.0251C289.181 10.3339 288.552 19.1918 277.331 19.1215C271.901 19.0876 267.138 17.3638 262.483 20.7132C261.488 21.3851 260.642 22.2557 260 23.2702C262.173 23.9975 265.657 24.1169 268.558 26.4723C272.16 29.3976 273.35 36.5333 278.718 39.1055C284.021 41.6455 289.248 38.8515 294.898 42.3008C300.283 45.591 304.603 50.8175 312.974 49.6754C325.597 47.9533 330.33 34.7994 342.731 31.9215C344.53 31.5033 351.563 30.941 351.606 30.6582C351.759 29.6498 348.845 27.0701 347.778 26.303C339.713 20.5092 333.395 23.4242 329.215 22.0823C323.255 20.1646 323.605 15.016 314.933 14.3674C314.594 15.6549 314.006 16.8632 313.201 17.9234C313.107 18.0459 313.011 18.1654 312.911 18.2816L312.826 18.3815C312.742 18.478 312.657 18.572 312.568 18.6634C312.538 18.6948 312.509 18.727 312.478 18.7583C312.369 18.8712 312.258 18.9781 312.145 19.0791L312.12 19.1011C311.996 19.2137 311.866 19.3221 311.736 19.4263L311.657 19.4864C311.553 19.5672 311.447 19.645 311.338 19.7201L311.228 19.7946C311.12 19.8666 311.01 19.936 310.899 20.0021C310.868 20.0198 310.839 20.0385 310.809 20.0554C310.664 20.1401 310.519 20.2171 310.368 20.2891H310.361C310.218 20.3585 310.071 20.4211 309.923 20.4796L309.808 20.5228C309.691 20.5668 309.572 20.6074 309.452 20.6455L309.327 20.6836C309.187 20.7248 309.046 20.761 308.904 20.792L308.853 20.8038C308.689 20.8385 308.52 20.8665 308.352 20.8885C308.321 20.8885 308.291 20.8944 308.261 20.8978C308.124 20.9131 307.986 20.924 307.847 20.9316L307.707 20.9368C307.573 20.9407 307.438 20.9407 307.302 20.9368C307.261 20.9368 307.222 20.9368 307.181 20.9368C306.819 20.9173 306.459 20.87 306.104 20.7954L305.968 20.7649C305.828 20.7327 305.687 20.6961 305.545 20.6549C305.121 20.5326 304.707 20.3777 304.307 20.1917C303.615 19.8793 302.979 19.4557 302.423 18.9377C299.606 21.653 297.21 24.6715 298.541 28.8261C300.17 33.9112 307.593 37.7356 312.204 34.1812C316.792 30.6438 312.671 25.3285 309.505 27.6805C308.066 28.7465 309.296 30.3805 309.019 31.3643C309 31.4347 308.971 31.5022 308.934 31.5651L308.923 31.5828C308.882 31.6481 308.833 31.7077 308.777 31.7598L308.762 31.7725C308.694 31.8318 308.619 31.8827 308.539 31.924L308.524 31.9308C308.423 31.9816 308.317 32.0227 308.208 32.0536C308.018 32.1094 307.818 32.113 307.627 32.0639C307.435 32.0149 307.261 31.915 307.122 31.775C307.041 31.7011 306.968 31.6197 306.903 31.532C306.892 31.5184 306.883 31.5033 306.872 31.4889C306.803 31.3919 306.741 31.2896 306.686 31.1832L306.68 31.1714C306.622 31.0534 306.571 30.9318 306.529 30.8073C306.52 30.7836 306.512 30.7607 306.505 30.737C306.462 30.6057 306.426 30.4723 306.397 30.3373C306.397 30.3162 306.39 30.2942 306.385 30.273C306.359 30.1384 306.337 30.0004 306.325 29.8582C306.325 29.8421 306.321 29.8268 306.319 29.8107C306.306 29.6617 306.301 29.5076 306.303 29.3527C306.303 29.3205 306.303 29.2883 306.303 29.2553C306.307 29.0995 306.318 28.942 306.338 28.7837C306.338 28.7608 306.345 28.738 306.349 28.7152C306.37 28.5662 306.398 28.4166 306.433 28.2664C306.439 28.2419 306.444 28.2173 306.45 28.1919C306.49 28.0336 306.54 27.8761 306.597 27.7195C306.609 27.6848 306.623 27.6509 306.636 27.6179C306.697 27.4583 306.767 27.3022 306.846 27.1505C306.855 27.1327 306.866 27.1158 306.876 27.098C306.953 26.9523 307.038 26.811 307.13 26.6747C307.148 26.6493 307.164 26.6239 307.182 26.5993L307.188 26.5917C307.287 26.4558 307.394 26.3258 307.509 26.2022C307.546 26.1608 307.586 26.1175 307.626 26.0803C307.731 25.9741 307.842 25.8735 307.958 25.7789C307.994 25.7493 308.028 25.7187 308.064 25.6942C308.215 25.5787 308.373 25.4727 308.536 25.3767L308.59 25.3445C308.622 25.3259 308.657 25.309 308.689 25.2912C308.836 25.2116 308.989 25.138 309.152 25.0694C309.21 25.0448 309.268 25.0202 309.329 24.9974C309.548 24.9125 309.772 24.841 310 24.7832C315.357 23.4556 319.985 31.2941 313.706 36.1337C313.544 36.259 313.378 36.375 313.21 36.4876L313.082 36.5722C312.929 36.6713 312.773 36.7661 312.616 36.8542L312.57 36.8822C312.394 36.9795 312.215 37.0701 312.035 37.1547L311.932 37.2013C311.763 37.2775 311.594 37.3486 311.425 37.4138L311.378 37.4316C311.185 37.5044 310.99 37.5705 310.795 37.6297L310.752 37.6416C310.561 37.6984 310.368 37.7483 310.175 37.7923L310.15 37.7982C309.737 37.8904 309.319 37.9554 308.898 37.9929C306.853 38.0961 304.813 37.7114 302.947 36.8705C301.08 36.0296 299.441 34.7566 298.163 33.1568C297.714 32.604 297.315 32.0121 296.972 31.3881C296.966 31.378 296.961 31.3678 296.955 31.3576C296.736 30.9557 296.543 30.5406 296.375 30.1147C296.368 30.0935 296.359 30.0732 296.351 30.0521C296.266 29.8404 296.194 29.6287 296.127 29.4094C296.061 29.1969 296.004 28.9819 295.952 28.7651C295.947 28.7422 295.94 28.7203 295.935 28.6974C295.886 28.484 295.844 28.2689 295.809 28.0513C295.809 28.0226 295.802 27.9938 295.797 27.9667C295.765 27.7559 295.739 27.5433 295.721 27.3291C295.721 27.3181 295.721 27.3071 295.721 27.2961C295.703 27.0777 295.696 26.8584 295.693 26.6365C295.693 26.5951 295.693 26.5519 295.693 26.5129C295.693 26.2919 295.7 26.0693 295.717 25.8458C295.717 25.8356 295.717 25.8246 295.717 25.8145C295.733 25.6011 295.758 25.386 295.79 25.171C295.796 25.127 295.802 25.0863 295.809 25.0389C295.844 24.8199 295.887 24.5997 295.938 24.3785C295.947 24.3395 295.957 24.2997 295.967 24.2608C296.016 24.0587 296.073 23.8564 296.137 23.6538C296.148 23.619 296.157 23.5851 296.168 23.5504C296.239 23.3286 296.32 23.1068 296.409 22.8841C296.429 22.835 296.449 22.7859 296.47 22.736C296.565 22.5082 296.664 22.2796 296.778 22.0509C297.892 20.0626 299.347 18.2858 301.077 16.8016C301.029 16.6398 300.99 16.4752 300.961 16.3088C300.952 16.2563 300.95 16.2014 300.942 16.148C300.926 16.032 300.909 15.9151 300.902 15.7966C300.898 15.7323 300.902 15.6671 300.902 15.6027C300.902 15.4927 300.893 15.3826 300.902 15.2709C300.902 15.2048 300.915 15.1379 300.92 15.071C300.928 14.9609 300.936 14.8509 300.95 14.7409C300.96 14.674 300.977 14.6079 300.988 14.541C301.009 14.4318 301.027 14.3225 301.054 14.2142C301.07 14.149 301.092 14.0864 301.111 14.022C301.142 13.9137 301.171 13.8052 301.21 13.6985C301.233 13.6359 301.263 13.5749 301.287 13.5131C301.33 13.409 301.372 13.304 301.42 13.2024C301.45 13.1406 301.487 13.0822 301.52 13.0221C301.573 12.9247 301.624 12.8274 301.683 12.7342C302.089 12.0831 302.673 11.562 303.365 11.2331C304.058 10.9043 304.831 10.7814 305.592 10.8792C305.678 10.8876 305.763 10.9038 305.846 10.9274L305.894 10.9434L305.922 10.9596Z" stroke="#296EBB" stroke-width="0.8" stroke-miterlimit="10"/>
<path opacity="0.4" d="M46.922 47.9596C46.9694 47.9765 47.0154 47.9959 47.0605 48.018L47.0886 48.0333C47.1098 48.0451 47.1299 48.0578 47.1494 48.0705C47.1896 48.0961 47.2283 48.1244 47.2648 48.1551C47.2876 48.1746 47.3097 48.1949 47.3309 48.2153C47.3628 48.2464 47.3928 48.2796 47.4206 48.3144C47.4384 48.3364 47.4554 48.3584 47.4715 48.3812V48.3863C47.496 48.423 47.5186 48.4608 47.5393 48.4998C47.5486 48.5184 47.5585 48.537 47.567 48.5556C47.5754 48.5742 47.5739 48.57 47.5781 48.5776C47.5963 48.6218 47.6116 48.6671 47.6244 48.7131C47.6312 48.7343 47.64 48.7546 47.6451 48.7757C47.661 48.8426 47.6714 48.9105 47.6769 48.9789C47.6769 48.9967 47.6769 49.0137 47.6769 49.0314C47.68 49.0842 47.68 49.1371 47.6769 49.1898C47.6769 49.205 47.6769 49.2194 47.6769 49.2346C47.6769 49.2499 47.6729 49.2677 47.6703 49.2847C47.6644 49.327 47.6577 49.3693 47.6492 49.4099V49.4251C47.6425 49.4522 47.6337 49.4786 47.6261 49.5048C47.6134 49.5454 47.6 49.5895 47.5839 49.6242C47.5678 49.6589 47.5586 49.6809 47.5459 49.7088C47.5332 49.7368 47.5059 49.7816 47.4839 49.8171C47.4619 49.8527 47.452 49.8663 47.4351 49.8892V49.8942C47.4086 49.9276 47.3803 49.9596 47.3503 49.9899C47.33 50.0111 47.3112 50.0339 47.2892 50.0534C47.2524 50.0842 47.2139 50.1125 47.1734 50.1381C47.1539 50.1516 47.1351 50.1686 47.113 50.1813C46.8862 50.3124 46.6234 50.367 46.3631 50.337C44.127 50.1355 43.2844 53.5298 46.335 54.9488C51.277 57.2467 54.3514 51.3268 53.5462 48.2161C52.8409 45.4949 50.3771 42.5705 47.0353 42.0997C43.9941 41.6722 39.6311 42.6764 36.8955 44.0251C30.1806 47.3339 29.5517 56.1918 18.3307 56.1215C12.901 56.0876 8.13754 54.3638 3.48338 57.7132C2.48804 58.3851 1.64245 59.2557 1 60.2702C3.17341 60.9975 6.65739 61.1169 9.55809 63.4723C13.1598 66.3976 14.3502 73.5333 19.7182 76.1055C25.0209 78.6455 30.2477 75.8515 35.8975 79.3008C41.2832 82.591 45.6026 87.8175 53.9736 86.6754C66.5967 84.9533 71.3304 71.7994 83.7308 68.9215C85.53 68.5033 92.5632 67.941 92.6055 67.6582C92.7588 66.6498 89.8445 64.0701 88.7777 63.303C80.7132 57.5092 74.3955 60.4242 70.2154 59.0823C64.2549 57.1646 64.6053 52.016 55.9328 51.3674C55.5942 52.6549 55.0057 53.8632 54.2006 54.9234C54.1069 55.0459 54.0106 55.1654 53.9112 55.2816L53.8265 55.3815C53.7418 55.478 53.657 55.572 53.5681 55.6634C53.5385 55.6948 53.5089 55.727 53.4775 55.7583C53.3686 55.8712 53.2576 55.9781 53.1447 56.0791L53.1204 56.1011C52.9959 56.2137 52.8663 56.3221 52.7359 56.4263L52.6573 56.4864C52.5529 56.5672 52.4466 56.645 52.3382 56.7201L52.2278 56.7946C52.1203 56.8666 52.0105 56.936 51.8987 57.0021C51.8682 57.0198 51.8395 57.0385 51.809 57.0554C51.6642 57.1401 51.5186 57.2171 51.3679 57.2891H51.3609C51.2178 57.3585 51.0712 57.4211 50.9231 57.4796L50.8081 57.5228C50.6913 57.5668 50.572 57.6074 50.4518 57.6455L50.3273 57.6836C50.1873 57.7248 50.0462 57.761 49.904 57.792L49.8531 57.8038C49.6889 57.8385 49.5202 57.8665 49.3517 57.8885C49.3212 57.8885 49.2908 57.8944 49.2611 57.8978C49.124 57.9131 48.9862 57.924 48.8473 57.9316L48.7067 57.9368C48.573 57.9407 48.438 57.9407 48.302 57.9368C48.2614 57.9368 48.2215 57.9368 48.1809 57.9368C47.8188 57.9173 47.4588 57.87 47.1039 57.7954L46.9683 57.7649C46.8278 57.7327 46.6867 57.6961 46.545 57.6548C46.1211 57.5326 45.7073 57.3777 45.3072 57.1917C44.6151 56.8793 43.9786 56.4557 43.4233 55.9377C40.6056 58.653 38.2095 61.6715 39.5414 65.8261C41.1704 70.9112 48.5933 74.7356 53.2043 71.1812C57.7924 67.6438 53.6708 62.3285 50.5051 64.6805C49.0658 65.7465 50.2958 67.3805 50.0189 68.3643C49.9997 68.4347 49.9711 68.5022 49.9342 68.5651L49.9226 68.5828C49.8823 68.6481 49.833 68.7077 49.7767 68.7598L49.7618 68.7725C49.6939 68.8318 49.619 68.8827 49.539 68.924L49.5245 68.9308C49.423 68.9816 49.317 69.0227 49.2078 69.0536C49.0184 69.1094 48.8178 69.113 48.6265 69.0639C48.4353 69.0149 48.2609 68.915 48.1218 68.775C48.0414 68.7011 47.968 68.6197 47.9031 68.532C47.8921 68.5184 47.8826 68.5033 47.8725 68.4889C47.8027 68.3919 47.7407 68.2896 47.6864 68.1832L47.6798 68.1714C47.6217 68.0534 47.5712 67.9318 47.5289 67.8073C47.5205 67.7836 47.5122 67.7607 47.5045 67.737C47.4619 67.6057 47.4256 67.4723 47.3966 67.3373C47.3966 67.3162 47.3901 67.2942 47.3851 67.273C47.3588 67.1384 47.3374 67.0004 47.3247 66.8582C47.3247 66.8421 47.3206 66.8268 47.3189 66.8107C47.3062 66.6617 47.3011 66.5076 47.3028 66.3527C47.3028 66.3205 47.3028 66.2883 47.3028 66.2553C47.307 66.0995 47.318 65.942 47.3383 65.7837C47.3383 65.7608 47.3453 65.738 47.3487 65.7152C47.3696 65.5662 47.3979 65.4166 47.4334 65.2664C47.4394 65.2419 47.4445 65.2173 47.4504 65.1919C47.4902 65.0336 47.54 64.8761 47.5967 64.7195C47.6094 64.6848 47.6229 64.6509 47.6356 64.6179C47.6967 64.4583 47.7669 64.3022 47.8456 64.1505C47.8549 64.1327 47.866 64.1158 47.8762 64.098C47.953 63.9523 48.0376 63.811 48.13 63.6747C48.1478 63.6493 48.1639 63.6239 48.1817 63.5993L48.1875 63.5917C48.2868 63.4558 48.3943 63.3258 48.5087 63.2022C48.546 63.1608 48.5863 63.1175 48.6261 63.0803C48.7314 62.9741 48.8423 62.8735 48.9581 62.7789C48.9937 62.7493 49.0275 62.7187 49.0639 62.6942C49.2148 62.5787 49.3726 62.4727 49.5365 62.3767L49.5898 62.3445C49.622 62.3259 49.6573 62.309 49.6894 62.2912C49.8359 62.2116 49.9895 62.138 50.152 62.0694C50.2105 62.0448 50.268 62.0202 50.329 61.9974C50.5483 61.9125 50.7725 61.841 51.0004 61.7832C56.3573 60.4556 60.9851 68.2941 54.7062 73.1337C54.5437 73.259 54.3778 73.375 54.2101 73.4876L54.082 73.5722C53.9287 73.6713 53.7731 73.7661 53.6165 73.8542L53.5697 73.8822C53.3936 73.9795 53.2151 74.0701 53.0348 74.1547L52.9323 74.2013C52.7629 74.2775 52.5939 74.3486 52.4246 74.4138L52.3779 74.4316C52.1848 74.5044 51.9904 74.5705 51.7945 74.6297L51.752 74.6416C51.5615 74.6984 51.3679 74.7483 51.1748 74.7923L51.15 74.7982C50.7373 74.8904 50.319 74.9554 49.8978 74.9929C47.8531 75.0961 45.8133 74.7114 43.9467 73.8705C42.0801 73.0296 40.4405 71.7566 39.1631 70.1568C38.7139 69.604 38.3151 69.0121 37.9716 68.3881C37.9657 68.378 37.9606 68.3678 37.9547 68.3576C37.7361 67.9557 37.5426 67.5406 37.3755 67.1147C37.3679 67.0935 37.3587 67.0732 37.3511 67.0521C37.2664 66.8404 37.1943 66.6287 37.1274 66.4094C37.0614 66.1969 37.0038 65.9819 36.9521 65.7651C36.9471 65.7422 36.9403 65.7203 36.9352 65.6974C36.8861 65.484 36.8438 65.2689 36.8091 65.0513C36.8091 65.0226 36.8018 64.9938 36.7967 64.9667C36.7654 64.7559 36.7388 64.5433 36.721 64.3291C36.721 64.3181 36.721 64.3071 36.721 64.2961C36.7033 64.0777 36.6959 63.8584 36.6933 63.6365C36.6933 63.5951 36.6933 63.5519 36.6933 63.5129C36.6933 63.2919 36.7 63.0693 36.7169 62.8458C36.7169 62.8356 36.7169 62.8246 36.7169 62.8145C36.733 62.6011 36.7583 62.386 36.7897 62.171C36.7964 62.127 36.8023 62.0863 36.8091 62.0389C36.8441 61.8199 36.8873 61.5997 36.9381 61.3785C36.9466 61.3395 36.9573 61.2997 36.9674 61.2608C37.016 61.0587 37.0726 60.8564 37.1369 60.6538C37.1479 60.619 37.1565 60.5851 37.1684 60.5504C37.2386 60.3286 37.3205 60.1068 37.4094 59.8841C37.4289 59.835 37.4494 59.7859 37.4697 59.736C37.5646 59.5082 37.6643 59.2796 37.7777 59.0509C38.892 57.0626 40.3474 55.2858 42.0772 53.8016C42.0289 53.6398 41.99 53.4752 41.9611 53.3088C41.9518 53.2563 41.9501 53.2014 41.9425 53.148C41.9255 53.032 41.9087 52.9151 41.902 52.7966C41.8977 52.7323 41.902 52.6671 41.902 52.6027C41.902 52.4927 41.8935 52.3826 41.902 52.2709C41.902 52.2048 41.9146 52.1379 41.9197 52.071C41.9282 51.9609 41.9359 51.8509 41.9503 51.7409C41.9605 51.674 41.9765 51.6079 41.9884 51.541C42.0087 51.4318 42.0266 51.3225 42.0537 51.2142C42.0698 51.149 42.0917 51.0864 42.1111 51.022C42.1425 50.9137 42.171 50.8052 42.2099 50.6985C42.2328 50.6359 42.2627 50.5749 42.2873 50.5131C42.3296 50.409 42.3717 50.304 42.42 50.2024C42.4496 50.1406 42.487 50.0822 42.52 50.0221C42.5733 49.9247 42.624 49.8274 42.6833 49.7342C43.0885 49.0831 43.6726 48.562 44.3655 48.2331C45.0584 47.9043 45.831 47.7814 46.5917 47.8792C46.6777 47.8876 46.7625 47.9038 46.8456 47.9274L46.8939 47.9434L46.922 47.9596Z" stroke="#296EBB" stroke-width="0.8" stroke-miterlimit="10"/>
</svg>
