<svg width="372" height="300" viewBox="0 0 372 300" fill="none" xmlns="http://www.w3.org/2000/svg">
<g opacity="0.4">
<mask id="mask0" mask-type="alpha" maskUnits="userSpaceOnUse" x="0" y="0" width="372" height="300">
<rect x="0.5" y="0.5" width="371" height="299" fill="#C4C4C4" stroke="white"/>
</mask>
<g mask="url(#mask0)">
<g opacity="0.7">
<path d="M247.362 34.6948C242.664 33.1856 237.424 34.3992 236.992 34.5003L230.689 83.0236C230.69 83.0613 230.234 99.5805 228.805 108.198C227.843 114.095 224.017 117.717 221.123 120.647C219.675 122.102 218.49 123.403 217.944 124.656C217.417 125.908 217.473 127.095 218.591 128.66C220.865 131.81 224.725 132.729 228.082 132.846C231.175 132.948 233.541 132.402 233.936 132.32L240.239 83.7777C240.238 83.7401 240.694 67.2209 242.122 58.603C243.104 52.7066 246.911 49.084 249.805 46.1544C251.252 44.699 252.438 43.3985 252.965 42.1462C253.492 40.8938 253.435 39.7072 252.298 38.1418C251.045 36.3709 249.276 35.3055 247.362 34.6948Z" stroke="white" stroke-miterlimit="10"/>
<path d="M234.273 35.3726C232.492 36.0227 222.905 40.0569 220.015 52.8069C219.256 56.1175 218.166 64.6546 218.166 64.6546L214.317 94.2711C216.097 93.621 225.684 89.5868 228.575 76.8556C229.333 73.5261 230.423 64.989 230.423 64.989L234.273 35.3726Z" stroke="white" stroke-miterlimit="10"/>
<path d="M256.765 72.7352C254.984 73.3853 245.397 77.4195 242.507 90.1696C241.749 93.4802 240.658 102.017 240.658 102.017L236.809 131.634C238.589 130.984 248.177 126.949 251.067 114.218C251.825 110.908 252.916 102.371 252.916 102.371L256.765 72.7352Z" stroke="white" stroke-miterlimit="10"/>
<path d="M257.778 68.8174C261.055 66.2965 262.995 62.6091 262.935 58.7836C262.928 58.3691 262.903 57.9548 262.84 57.5599C262.222 53.0647 258.44 49.8823 254.396 50.4361C250.334 50.9903 247.552 55.068 248.15 59.5635C248.215 60.0526 248.317 60.541 248.475 61.0475C249.433 64.3875 251.889 67.1762 255.196 68.8959L256.698 69.6638L257.778 68.8174Z" stroke="white" stroke-miterlimit="10"/>
<path d="M213.357 97.9807C210.08 100.502 208.14 104.189 208.2 108.014C208.207 108.429 208.232 108.843 208.295 109.238C208.912 113.733 212.695 116.916 216.739 116.362C220.801 115.808 223.583 111.73 222.985 107.235C222.92 106.746 222.818 106.257 222.66 105.751C221.702 102.411 219.245 99.6219 215.938 97.9023L214.437 97.1343L213.357 97.9807Z" stroke="white" stroke-miterlimit="10"/>
<path d="M237.877 30.8673C241.155 28.3463 243.095 24.6589 243.034 20.8335C243.028 20.4189 243.002 20.0046 242.94 19.6097C242.341 15.1142 238.559 11.9318 234.496 12.486C230.433 13.0401 227.651 17.1178 228.25 21.6133C228.314 22.1024 228.416 22.5909 228.575 23.0973C229.532 26.4374 231.989 29.226 235.296 30.9457L236.797 31.7137L237.877 30.8673Z" stroke="white" stroke-miterlimit="10"/>
<path d="M235.896 135.889C232.618 138.41 230.678 142.098 230.739 145.923C230.745 146.338 230.771 146.752 230.833 147.147C231.451 151.642 235.233 154.824 239.277 154.271C243.34 153.716 246.122 149.639 245.523 145.143C245.459 144.654 245.357 144.166 245.198 143.659C244.241 140.319 241.784 137.531 238.477 135.811L236.976 135.043L235.896 135.889Z" stroke="white" stroke-miterlimit="10"/>
<path d="M288.612 106.028C283.914 104.519 278.674 105.733 278.242 105.834L271.939 154.357C271.94 154.395 271.484 170.914 270.055 179.532C269.093 185.428 265.267 189.051 262.373 191.981C260.925 193.436 259.74 194.736 259.194 195.989C258.667 197.241 258.723 198.428 259.841 199.994C262.115 203.143 265.975 204.063 269.332 204.179C272.425 204.281 274.791 203.735 275.186 203.653L281.489 155.111C281.488 155.074 281.944 138.554 283.372 129.937C284.354 124.04 288.161 120.417 291.055 117.488C292.502 116.032 293.688 114.732 294.215 113.48C294.742 112.227 294.685 111.041 293.548 109.475C292.295 107.704 290.526 106.639 288.612 106.028Z" stroke="white" stroke-miterlimit="10"/>
<path d="M275.523 106.706C273.742 107.356 264.155 111.39 261.265 124.14C260.506 127.451 259.416 135.988 259.416 135.988L255.567 165.605C257.347 164.954 266.934 160.92 269.825 148.189C270.583 144.86 271.673 136.323 271.673 136.323L275.523 106.706Z" stroke="white" stroke-miterlimit="10"/>
<path d="M298.015 144.069C296.234 144.719 286.647 148.753 283.757 161.503C282.999 164.814 281.908 173.351 281.908 173.351L278.059 202.967C279.839 202.317 289.427 198.283 292.317 185.552C293.075 182.241 294.166 173.704 294.166 173.704L298.015 144.069Z" stroke="white" stroke-miterlimit="10"/>
<path d="M299.028 140.151C302.305 137.63 304.245 133.943 304.185 130.117C304.178 129.703 304.153 129.288 304.09 128.893C303.472 124.398 299.69 121.216 295.646 121.77C291.584 122.324 288.802 126.401 289.4 130.897C289.465 131.386 289.567 131.875 289.725 132.381C290.683 135.721 293.139 138.51 296.446 140.229L297.948 140.997L299.028 140.151Z" stroke="white" stroke-miterlimit="10"/>
<path d="M254.607 169.314C251.33 171.835 249.39 175.523 249.45 179.348C249.457 179.763 249.482 180.177 249.545 180.572C250.162 185.067 253.945 188.249 257.989 187.695C262.051 187.141 264.833 183.064 264.235 178.568C264.17 178.079 264.068 177.591 263.91 177.084C262.952 173.744 260.495 170.955 257.188 169.236L255.687 168.468L254.607 169.314Z" stroke="white" stroke-miterlimit="10"/>
<path d="M279.127 102.201C282.405 99.6798 284.345 95.9924 284.284 92.167C284.278 91.7524 284.252 91.3381 284.19 90.9432C283.591 86.4477 279.809 83.2653 275.746 83.8195C271.683 84.3736 268.901 88.4513 269.5 92.9468C269.564 93.4359 269.666 93.9244 269.825 94.4308C270.782 97.7709 273.239 100.56 276.546 102.279L278.047 103.047L279.127 102.201Z" stroke="white" stroke-miterlimit="10"/>
<path d="M277.146 207.223C273.868 209.744 271.928 213.431 271.989 217.257C271.995 217.671 272.021 218.085 272.083 218.48C272.701 222.976 276.483 226.158 280.527 225.604C284.59 225.05 287.372 220.972 286.773 216.477C286.709 215.988 286.607 215.499 286.448 214.993C285.491 211.653 283.034 208.864 279.727 207.144L278.226 206.376L277.146 207.223Z" stroke="white" stroke-miterlimit="10"/>
<path d="M329.925 167.171C325.226 165.662 319.986 166.876 319.554 166.977L313.251 215.5C313.252 215.538 312.796 232.057 311.368 240.675C310.405 246.571 306.579 250.194 303.685 253.123C302.238 254.579 301.052 255.879 300.506 257.132C299.979 258.384 300.036 259.571 301.154 261.137C303.428 264.286 307.288 265.206 310.645 265.322C313.737 265.424 316.104 264.878 316.498 264.796L322.801 216.254C322.801 216.217 323.256 199.697 324.685 191.079C325.666 185.183 329.473 181.56 332.367 178.631C333.815 177.175 335 175.875 335.527 174.623C336.054 173.37 335.998 172.184 334.861 170.618C333.608 168.847 331.838 167.782 329.925 167.171Z" stroke="white" stroke-miterlimit="10"/>
<path d="M316.835 167.849C315.055 168.499 305.467 172.533 302.577 185.283C301.819 188.594 300.728 197.131 300.728 197.131L296.879 226.748C298.66 226.097 308.247 222.063 311.137 209.332C311.895 206.003 312.986 197.465 312.986 197.465L316.835 167.849Z" stroke="white" stroke-miterlimit="10"/>
<path d="M339.327 205.212C337.547 205.862 327.96 209.896 325.07 222.646C324.311 225.957 323.221 234.494 323.221 234.494L319.372 264.11C321.152 263.46 330.739 259.426 333.63 246.695C334.388 243.384 335.478 234.847 335.478 234.847L339.327 205.212Z" stroke="white" stroke-miterlimit="10"/>
<path d="M340.34 201.294C343.618 198.773 345.558 195.086 345.497 191.26C345.491 190.845 345.465 190.431 345.403 190.036C344.785 185.541 341.003 182.359 336.959 182.913C332.896 183.467 330.114 187.544 330.713 192.04C330.777 192.529 330.879 193.017 331.038 193.524C331.995 196.864 334.452 199.653 337.759 201.372L339.26 202.14L340.34 201.294Z" stroke="white" stroke-miterlimit="10"/>
<path d="M295.92 230.457C292.642 232.978 290.702 236.665 290.763 240.491C290.769 240.906 290.795 241.32 290.857 241.715C291.475 246.21 295.257 249.392 299.301 248.838C303.364 248.284 306.146 244.207 305.547 239.711C305.483 239.222 305.381 238.734 305.222 238.227C304.265 234.887 301.808 232.098 298.501 230.379L297 229.611L295.92 230.457Z" stroke="white" stroke-miterlimit="10"/>
<path d="M320.44 163.344C323.717 160.823 325.657 157.135 325.597 153.31C325.59 152.895 325.565 152.481 325.502 152.086C324.903 147.591 321.121 144.408 317.058 144.962C312.996 145.517 310.214 149.594 310.812 154.09C310.877 154.579 310.979 155.067 311.137 155.574C312.095 158.914 314.552 161.702 317.858 163.422L319.36 164.19L320.44 163.344Z" stroke="white" stroke-miterlimit="10"/>
<path d="M318.458 268.366C315.181 270.887 313.241 274.574 313.301 278.399C313.308 278.814 313.333 279.228 313.396 279.623C314.014 284.118 317.796 287.301 321.84 286.747C325.902 286.193 328.684 282.115 328.086 277.62C328.021 277.131 327.919 276.642 327.761 276.136C326.803 272.796 324.347 270.007 321.04 268.287L319.538 267.519L318.458 268.366Z" stroke="white" stroke-miterlimit="10"/>
</g>
<g opacity="0.7">
<path d="M70.6629 34.6948C65.9645 33.1856 60.7247 34.3992 60.2927 34.5003L53.9897 83.0236C53.9903 83.0613 53.5347 99.5805 52.1061 108.198C51.1436 114.095 47.3178 117.717 44.4235 120.647C42.9762 122.102 41.7904 123.403 41.2446 124.656C40.7178 125.908 40.7742 127.095 41.8921 128.66C44.1661 131.81 48.0258 132.729 51.3828 132.846C54.4757 132.948 56.8421 132.402 57.2367 132.32L63.5394 83.7777C63.5388 83.7401 63.9945 67.2209 65.423 58.603C66.4044 52.7066 70.2113 49.084 73.1056 46.1544C74.5529 44.699 75.7388 43.3985 76.2656 42.1462C76.7925 40.8938 76.7361 39.7072 75.5993 38.1418C74.3461 36.3709 72.5763 35.3055 70.6629 34.6948Z" stroke="white" stroke-miterlimit="10"/>
<path d="M57.5733 35.3726C55.7929 36.0227 46.2057 40.0569 43.3155 52.8069C42.5573 56.1175 41.4667 64.6546 41.4667 64.6546L37.6175 94.2711C39.3979 93.621 48.9851 89.5868 51.8755 76.8556C52.6335 73.5261 53.7241 64.989 53.7241 64.989L57.5733 35.3726Z" stroke="white" stroke-miterlimit="10"/>
<path d="M80.0657 72.7352C78.2853 73.3853 68.698 77.4195 65.8079 90.1696C65.0496 93.4802 63.9591 102.017 63.9591 102.017L60.1098 131.634C61.8902 130.984 71.4774 126.949 74.3679 114.218C75.1262 110.908 76.2167 102.371 76.2167 102.371L80.0657 72.7352Z" stroke="white" stroke-miterlimit="10"/>
<path d="M81.0783 68.8174C84.356 66.2965 86.2959 62.6091 86.2355 58.7836C86.229 58.3691 86.2036 57.9548 86.1408 57.5599C85.5233 53.0647 81.7409 49.8823 77.697 50.4361C73.6343 50.9903 70.8524 55.068 71.4511 59.5635C71.5153 60.0526 71.6173 60.541 71.7761 61.0475C72.7335 64.3875 75.1903 67.1762 78.4972 68.8959L79.9984 69.6638L81.0783 68.8174Z" stroke="white" stroke-miterlimit="10"/>
<path d="M36.6581 97.9807C33.3804 100.502 31.4406 104.189 31.5009 108.014C31.5074 108.429 31.5328 108.843 31.5956 109.238C32.2132 113.733 35.9955 116.916 40.0394 116.362C44.1021 115.808 46.884 111.73 46.2853 107.235C46.2211 106.746 46.1191 106.257 45.9603 105.751C45.0029 102.411 42.5462 99.6219 39.2392 97.9023L37.738 97.1343L36.6581 97.9807Z" stroke="white" stroke-miterlimit="10"/>
<path d="M61.1779 30.8673C64.4556 28.3463 66.3954 24.6589 66.3351 20.8335C66.3286 20.4189 66.3032 20.0046 66.2404 19.6097C65.6417 15.1142 61.8593 11.9318 57.7966 12.486C53.7339 13.0401 50.952 17.1178 51.5507 21.6133C51.6149 22.1024 51.7169 22.5909 51.8757 23.0973C52.8331 26.4374 55.2898 29.226 58.5968 30.9457L60.098 31.7137L61.1779 30.8673Z" stroke="white" stroke-miterlimit="10"/>
<path d="M59.1968 135.889C55.9191 138.41 53.9792 142.098 54.0396 145.923C54.0461 146.338 54.0715 146.752 54.1343 147.147C54.7518 151.642 58.5342 154.824 62.578 154.271C66.6408 153.716 69.4227 149.639 68.824 145.143C68.7597 144.654 68.6578 144.166 68.499 143.659C67.5415 140.319 65.0848 137.531 61.7779 135.811L60.2767 135.043L59.1968 135.889Z" stroke="white" stroke-miterlimit="10"/>
<path d="M111.913 106.028C107.214 104.519 101.975 105.733 101.543 105.834L95.2397 154.357C95.2403 154.395 94.7847 170.914 93.3561 179.532C92.3936 185.428 88.5678 189.051 85.6735 191.981C84.2262 193.436 83.0404 194.736 82.4946 195.989C81.9678 197.241 82.0242 198.428 83.1421 199.994C85.4161 203.143 89.2758 204.063 92.6328 204.179C95.7257 204.281 98.0921 203.735 98.4867 203.653L104.789 155.111C104.789 155.074 105.244 138.554 106.673 129.937C107.654 124.04 111.461 120.417 114.356 117.488C115.803 116.032 116.989 114.732 117.516 113.48C118.043 112.227 117.986 111.041 116.849 109.475C115.596 107.704 113.826 106.639 111.913 106.028Z" stroke="white" stroke-miterlimit="10"/>
<path d="M98.8233 106.706C97.0429 107.356 87.4557 111.39 84.5655 124.14C83.8073 127.451 82.7167 135.988 82.7167 135.988L78.8675 165.605C80.6479 164.954 90.2351 160.92 93.1255 148.189C93.8835 144.86 94.9741 136.323 94.9741 136.323L98.8233 106.706Z" stroke="white" stroke-miterlimit="10"/>
<path d="M121.316 144.069C119.535 144.719 109.948 148.753 107.058 161.503C106.3 164.814 105.209 173.351 105.209 173.351L101.36 202.967C103.14 202.317 112.727 198.283 115.618 185.552C116.376 182.241 117.467 173.704 117.467 173.704L121.316 144.069Z" stroke="white" stroke-miterlimit="10"/>
<path d="M122.328 140.151C125.606 137.63 127.546 133.943 127.486 130.117C127.479 129.703 127.454 129.288 127.391 128.893C126.773 124.398 122.991 121.216 118.947 121.77C114.884 122.324 112.102 126.401 112.701 130.897C112.765 131.386 112.867 131.875 113.026 132.381C113.984 135.721 116.44 138.51 119.747 140.229L121.248 140.997L122.328 140.151Z" stroke="white" stroke-miterlimit="10"/>
<path d="M77.9081 169.314C74.6304 171.835 72.6906 175.523 72.7509 179.348C72.7574 179.763 72.7828 180.177 72.8456 180.572C73.4632 185.067 77.2455 188.249 81.2894 187.695C85.3521 187.141 88.134 183.064 87.5353 178.568C87.4711 178.079 87.3691 177.591 87.2103 177.084C86.2529 173.744 83.7962 170.955 80.4892 169.236L78.988 168.468L77.9081 169.314Z" stroke="white" stroke-miterlimit="10"/>
<path d="M102.428 102.201C105.706 99.6798 107.645 95.9924 107.585 92.167C107.579 91.7524 107.553 91.3381 107.49 90.9432C106.892 86.4477 103.109 83.2653 99.0466 83.8195C94.9839 84.3736 92.202 88.4513 92.8007 92.9468C92.8649 93.4359 92.9669 93.9244 93.1257 94.4308C94.0831 97.7709 96.5398 100.56 99.8468 102.279L101.348 103.047L102.428 102.201Z" stroke="white" stroke-miterlimit="10"/>
<path d="M100.447 207.223C97.1691 209.744 95.2292 213.431 95.2896 217.257C95.2961 217.671 95.3215 218.085 95.3843 218.48C96.0018 222.976 99.7842 226.158 103.828 225.604C107.891 225.05 110.673 220.972 110.074 216.477C110.01 215.988 109.908 215.499 109.749 214.993C108.792 211.653 106.335 208.864 103.028 207.144L101.527 206.376L100.447 207.223Z" stroke="white" stroke-miterlimit="10"/>
<path d="M153.225 167.171C148.527 165.662 143.287 166.876 142.855 166.977L136.552 215.5C136.553 215.538 136.097 232.057 134.669 240.675C133.706 246.571 129.88 250.194 126.986 253.123C125.539 254.579 124.353 255.879 123.807 257.132C123.28 258.384 123.337 259.571 124.455 261.137C126.729 264.286 130.588 265.206 133.945 265.322C137.038 265.424 139.405 264.878 139.799 264.796L146.102 216.254C146.101 216.217 146.557 199.697 147.985 191.079C148.967 185.183 152.774 181.56 155.668 178.631C157.115 177.175 158.301 175.875 158.828 174.623C159.355 173.37 159.299 172.184 158.162 170.618C156.909 168.847 155.139 167.782 153.225 167.171Z" stroke="white" stroke-miterlimit="10"/>
<path d="M140.136 167.849C138.355 168.499 128.768 172.533 125.878 185.283C125.12 188.594 124.029 197.131 124.029 197.131L120.18 226.748C121.96 226.097 131.548 222.063 134.438 209.332C135.196 206.003 136.287 197.465 136.287 197.465L140.136 167.849Z" stroke="white" stroke-miterlimit="10"/>
<path d="M162.628 205.212C160.848 205.862 151.261 209.896 148.37 222.646C147.612 225.957 146.522 234.494 146.522 234.494L142.672 264.11C144.453 263.46 154.04 259.426 156.93 246.695C157.689 243.384 158.779 234.847 158.779 234.847L162.628 205.212Z" stroke="white" stroke-miterlimit="10"/>
<path d="M163.641 201.294C166.918 198.773 168.858 195.086 168.798 191.26C168.791 190.845 168.766 190.431 168.703 190.036C168.086 185.541 164.303 182.359 160.26 182.913C156.197 183.467 153.415 187.544 154.014 192.04C154.078 192.529 154.18 193.017 154.339 193.524C155.296 196.864 157.753 199.653 161.06 201.372L162.561 202.14L163.641 201.294Z" stroke="white" stroke-miterlimit="10"/>
<path d="M119.221 230.457C115.943 232.978 114.003 236.665 114.063 240.491C114.07 240.906 114.095 241.32 114.158 241.715C114.776 246.21 118.558 249.392 122.602 248.838C126.665 248.284 129.447 244.207 128.848 239.711C128.784 239.222 128.682 238.734 128.523 238.227C127.565 234.887 125.109 232.098 121.802 230.379L120.301 229.611L119.221 230.457Z" stroke="white" stroke-miterlimit="10"/>
<path d="M143.74 163.344C147.018 160.823 148.958 157.135 148.898 153.31C148.891 152.895 148.866 152.481 148.803 152.086C148.204 147.591 144.422 144.408 140.359 144.962C136.296 145.517 133.514 149.594 134.113 154.09C134.177 154.579 134.279 155.067 134.438 155.574C135.396 158.914 137.852 161.702 141.159 163.422L142.66 164.19L143.74 163.344Z" stroke="white" stroke-miterlimit="10"/>
<path d="M141.759 268.366C138.482 270.887 136.542 274.574 136.602 278.399C136.609 278.814 136.634 279.228 136.697 279.623C137.314 284.118 141.097 287.301 145.141 286.747C149.203 286.193 151.985 282.115 151.386 277.62C151.322 277.131 151.22 276.642 151.061 276.136C150.104 272.796 147.647 270.007 144.34 268.287L142.839 267.519L141.759 268.366Z" stroke="white" stroke-miterlimit="10"/>
</g>
</g>
</g>
</svg>
