<svg width="28" height="66" viewBox="0 0 28 66" fill="none" xmlns="http://www.w3.org/2000/svg">
<g opacity="0.2">
<path d="M19.3141 11.2215C17.198 10.5417 14.838 11.0883 14.6435 11.1339L11.8047 32.9882C11.8049 33.0052 11.5997 40.4452 10.9563 44.3266C10.5228 46.9821 8.79971 48.6138 7.49616 49.9333C6.84432 50.5888 6.31023 51.1745 6.06445 51.7387C5.82715 52.3027 5.85256 52.8372 6.35608 53.5423C7.38022 54.9609 9.11861 55.3749 10.6306 55.4275C12.0236 55.4734 13.0894 55.2274 13.2671 55.1906L16.1057 33.3278C16.1055 33.3109 16.3107 25.8708 16.9541 21.9894C17.3961 19.3338 19.1107 17.7022 20.4142 16.3827C21.0661 15.7272 21.6002 15.1415 21.8375 14.5775C22.0748 14.0134 22.0494 13.479 21.5374 12.7739C20.973 11.9763 20.1759 11.4965 19.3141 11.2215Z" stroke="white" stroke-miterlimit="10"/>
<path d="M13.4187 11.5267C12.6168 11.8195 8.29885 13.6365 6.99716 19.3789C6.65564 20.87 6.16448 24.715 6.16448 24.715L4.43081 38.0539C5.23269 37.7611 9.55066 35.9441 10.8525 30.2102C11.1939 28.7106 11.685 24.8656 11.685 24.8656L13.4187 11.5267Z" stroke="white" stroke-miterlimit="10"/>
<path d="M23.549 28.3544C22.7471 28.6472 18.4291 30.4642 17.1274 36.2066C16.7859 37.6977 16.2948 41.5427 16.2948 41.5427L14.5611 54.8816C15.363 54.5888 19.6809 52.7718 20.9828 47.0379C21.3243 45.5468 21.8154 41.7018 21.8154 41.7018L23.549 28.3544Z" stroke="white" stroke-miterlimit="10"/>
<path d="M24.005 26.5899C25.4813 25.4545 26.355 23.7937 26.3278 22.0708C26.3248 21.8841 26.3134 21.6975 26.2851 21.5196C26.007 19.495 24.3035 18.0617 22.4822 18.3112C20.6524 18.5608 19.3994 20.3973 19.6691 22.422C19.698 22.6423 19.7439 22.8623 19.8154 23.0904C20.2467 24.5947 21.3531 25.8507 22.8425 26.6252L23.5187 26.9711L24.005 26.5899Z" stroke="white" stroke-miterlimit="10"/>
<path d="M3.99874 39.7247C2.52249 40.8601 1.64881 42.5208 1.67599 44.2438C1.67893 44.4305 1.69037 44.6171 1.71864 44.7949C1.99678 46.8195 3.70031 48.2528 5.52162 48.0034C7.35141 47.7538 8.60436 45.9173 8.33471 43.8925C8.30577 43.6722 8.25985 43.4522 8.18833 43.2242C7.7571 41.7198 6.65063 40.4639 5.16124 39.6893L4.48511 39.3434L3.99874 39.7247Z" stroke="white" stroke-miterlimit="10"/>
<path d="M15.0421 9.49759C16.5184 8.36218 17.3921 6.70143 17.3649 4.97849C17.3619 4.79177 17.3505 4.60518 17.3222 4.42734C17.0526 2.40261 15.349 0.969285 13.5193 1.21888C11.6895 1.46847 10.4365 3.30499 10.7062 5.32973C10.7351 5.55 10.781 5.77 10.8525 5.99809C11.2838 7.50242 12.3902 8.75839 13.8796 9.53291L14.5558 9.8788L15.0421 9.49759Z" stroke="white" stroke-miterlimit="10"/>
<path d="M14.1499 56.7982C12.6736 57.9336 11.7999 59.5944 11.8271 61.3173C11.8301 61.504 11.8415 61.6906 11.8698 61.8685C12.1479 63.8931 13.8514 65.3264 15.6728 65.0769C17.5025 64.8273 18.7555 62.9908 18.4858 60.9661C18.4569 60.7458 18.411 60.5258 18.3395 60.2977C17.9082 58.7934 16.8018 57.5374 15.3124 56.7629L14.6362 56.417L14.1499 56.7982Z" stroke="white" stroke-miterlimit="10"/>
</g>
</svg>
