<svg width="201" height="174" viewBox="0 0 201 174" fill="none" xmlns="http://www.w3.org/2000/svg">
<path opacity="0.5" d="M100.824 83.9405V28.1372L72.9115 56.0495L100.824 83.9618L128.736 56.0495L156.648 83.9618L100.845 83.9405M100.845 83.9405L72.9328 111.853L45.0205 83.9405H100.845ZM100.845 83.9405L128.757 111.853L100.845 139.765V83.9405Z" stroke="#982301" stroke-miterlimit="10"/>
<path opacity="0.5" d="M166.714 139.486V106.549L150.239 123.024L166.714 139.499L183.189 123.024L199.664 139.499L166.726 139.486M166.726 139.486L150.251 155.961L133.776 139.486H166.726ZM166.726 139.486L183.202 155.961L166.726 172.437V139.486Z" stroke="#982301" stroke-miterlimit="10"/>
<path opacity="0.5" d="M34.9366 34.9376V2L18.4615 18.4751L34.9366 34.9502L51.4116 18.4751L67.8867 34.9502L34.9491 34.9376M34.9491 34.9376L18.4741 51.4127L1.999 34.9376H34.9491ZM34.9491 34.9376L51.4242 51.4127L34.9491 67.8877V34.9376Z" stroke="#982301" stroke-miterlimit="10"/>
</svg>
