<svg width="181" height="157" viewBox="0 0 181 157" fill="none" xmlns="http://www.w3.org/2000/svg">
<path opacity="0.5" d="M90.8234 75.6503V25.4929L65.7352 50.5811L90.8234 75.6694L115.912 50.5811L141 75.6694L90.8426 75.6503M90.8426 75.6503L65.7543 100.739L40.666 75.6503H90.8426ZM90.8426 75.6503L115.931 100.739L90.8426 125.827V75.6503Z" stroke="#D0542D" stroke-miterlimit="10"/>
<path opacity="0.5" d="M150.048 125.576V95.9713L135.239 110.78L150.048 125.588L164.856 110.78L179.664 125.588L150.059 125.576M150.059 125.576L135.251 140.385L120.443 125.576H150.059ZM150.059 125.576L164.867 140.385L150.059 155.193V125.576Z" stroke="#D0542D" stroke-miterlimit="10"/>
<path opacity="0.5" d="M31.6023 31.6051V2L16.7941 16.8082L31.6023 31.6164L46.4105 16.8082L61.2188 31.6164L31.6136 31.6051M31.6136 31.6051L16.8054 46.4133L1.99723 31.6051H31.6136ZM31.6136 31.6051L46.4218 46.4133L31.6136 61.2215V31.6051Z" stroke="#D0542D" stroke-miterlimit="10"/>
</svg>
