<svg width="367" height="317" viewBox="0 0 367 317" fill="none" xmlns="http://www.w3.org/2000/svg">
<path opacity="0.5" d="M183.52 152.48V50L234.779 101.26L183.52 152.52L132.26 101.26L81 152.52L183.48 152.48M183.48 152.48L234.74 203.74L286 152.48H183.48ZM183.48 152.48L132.221 203.74L183.48 255V152.48Z" stroke="#D0542D" stroke-miterlimit="10"/>
<path opacity="0.5" d="M62.5116 254.488V194L92.7673 224.256L62.5116 254.512L32.2558 224.256L2 254.512L62.4885 254.488M62.4885 254.488L92.7442 284.744L123 254.488H62.4885ZM62.4885 254.488L32.2327 284.744L62.4885 315V254.488Z" stroke="#D0542D" stroke-miterlimit="10"/>
<path opacity="0.5" d="M304.512 62.4885V2L334.767 32.2558L304.512 62.5116L274.256 32.2558L244 62.5116L304.488 62.4885M304.488 62.4885L334.744 92.7442L365 62.4885H304.488ZM304.488 62.4885L274.233 92.7442L304.488 123V62.4885Z" stroke="#D0542D" stroke-miterlimit="10"/>
</svg>
