<svg width="84" height="84" viewBox="0 0 84 84" fill="none" xmlns="http://www.w3.org/2000/svg">
<g opacity="0.2">
<path d="M41.9999 48.5218C45.6017 48.5218 48.5216 45.602 48.5216 42.0002C48.5216 38.3984 45.6017 35.4785 41.9999 35.4785C38.3981 35.4785 35.4783 38.3984 35.4783 42.0002C35.4783 45.602 38.3981 48.5218 41.9999 48.5218Z" stroke="#277633" stroke-miterlimit="10"/>
<path d="M42 28.859C44.8329 28.859 47.1294 24.687 47.1294 19.5406C47.1294 14.3942 44.8329 10.2222 42 10.2222C39.1671 10.2222 36.8706 14.3942 36.8706 19.5406C36.8706 24.687 39.1671 28.859 42 28.859Z" stroke="#277633" stroke-miterlimit="10"/>
<path d="M61.5035 29.7475C65.1425 26.1084 66.4686 21.5346 64.4655 19.5314C62.4624 17.5283 57.8885 18.8544 54.2495 22.4935C50.6104 26.1325 49.2843 30.7064 51.2874 32.7095C53.2905 34.7127 57.8644 33.3865 61.5035 29.7475Z" stroke="#277633" stroke-miterlimit="10"/>
<path d="M64.4473 47.1294C69.5937 47.1294 73.7657 44.8329 73.7657 42C73.7657 39.1671 69.5937 36.8706 64.4473 36.8706C59.3009 36.8706 55.1289 39.1671 55.1289 42C55.1289 44.8329 59.3009 47.1294 64.4473 47.1294Z" stroke="#277633" stroke-miterlimit="10"/>
<path d="M64.4665 64.4617C66.4696 62.4586 65.1435 57.8847 61.5044 54.2457C57.8654 50.6067 53.2915 49.2805 51.2884 51.2837C49.2852 53.2868 50.6114 57.8607 54.2504 61.4997C57.8895 65.1387 62.4633 66.4648 64.4665 64.4617Z" stroke="#277633" stroke-miterlimit="10"/>
<path d="M42 73.7657C44.8329 73.7657 47.1294 69.5937 47.1294 64.4473C47.1294 59.3009 44.8329 55.1289 42 55.1289C39.1671 55.1289 36.8706 59.3009 36.8706 64.4473C36.8706 69.5937 39.1671 73.7657 42 73.7657Z" stroke="#277633" stroke-miterlimit="10"/>
<path d="M29.7515 61.5014C33.3905 57.8624 34.7167 53.2885 32.7135 51.2853C30.7104 49.2822 26.1365 50.6084 22.4975 54.2474C18.8585 57.8864 17.5323 62.4603 19.5354 64.4634C21.5386 66.4666 26.1125 65.1404 29.7515 61.5014Z" stroke="#277633" stroke-miterlimit="10"/>
<path d="M19.5406 47.1294C24.687 47.1294 28.859 44.8329 28.859 42C28.859 39.1671 24.687 36.8706 19.5406 36.8706C14.3942 36.8706 10.2222 39.1671 10.2222 42C10.2222 44.8329 14.3942 47.1294 19.5406 47.1294Z" stroke="#277633" stroke-miterlimit="10"/>
<path d="M32.7128 32.7108C34.7159 30.7076 33.3898 26.1337 29.7507 22.4947C26.1117 18.8557 21.5378 17.5295 19.5347 19.5327C17.5316 21.5358 18.8577 26.1097 22.4968 29.7487C26.1358 33.3877 30.7097 34.7139 32.7128 32.7108Z" stroke="#277633" stroke-miterlimit="10"/>
<path d="M42 10.2344V0" stroke="#277633" stroke-miterlimit="10"/>
<path d="M42 84V73.7656" stroke="#277633" stroke-miterlimit="10"/>
<path d="M73.7656 42H84" stroke="#277633" stroke-miterlimit="10"/>
<path d="M0 42H10.2344" stroke="#277633" stroke-miterlimit="10"/>
<path d="M64.4595 19.5279L71.6895 12.2979" stroke="#277633" stroke-miterlimit="10"/>
<path d="M12.2983 71.6895L19.5283 64.4595" stroke="#277633" stroke-miterlimit="10"/>
<path d="M64.4595 64.4595L71.6895 71.6895" stroke="#277633" stroke-miterlimit="10"/>
<path d="M12.2983 12.2979L19.5283 19.5279" stroke="#277633" stroke-miterlimit="10"/>
</g>
</svg>
