<svg width="465" height="207" viewBox="0 0 465 207" fill="none" xmlns="http://www.w3.org/2000/svg">
<path opacity="0.3" d="M288.513 139.488V74L321.269 106.756L288.513 139.513L255.756 106.756L223 139.513L288.488 139.488M288.488 139.488L321.244 172.244L354 139.488H288.488ZM288.488 139.488L255.731 172.244L288.488 205V139.488Z" stroke="white" stroke-miterlimit="10"/>
<path opacity="0.3" d="M397.013 67.4875V2L430.019 34.7563L397.013 67.5125L364.006 34.7563L331 67.5125L396.987 67.4875M396.987 67.4875L429.994 100.244L463 67.4875H396.987ZM396.987 67.4875L363.981 100.244L396.987 133V67.4875Z" stroke="white" stroke-miterlimit="10"/>
<path opacity="0.3" d="M68.0126 139.488V74L101.019 106.756L68.0126 139.513L35.0063 106.756L2 139.513L67.9874 139.488M67.9874 139.488L100.994 172.244L134 139.488H67.9874ZM67.9874 139.488L34.9811 172.244L67.9874 205V139.488Z" stroke="white" stroke-miterlimit="10"/>
<path opacity="0.3" d="M176.013 67.4875V2L209.019 34.7563L176.013 67.5125L143.006 34.7563L110 67.5125L175.987 67.4875M175.987 67.4875L208.994 100.244L242 67.4875H175.987ZM175.987 67.4875L142.981 100.244L175.987 133V67.4875Z" stroke="white" stroke-miterlimit="10"/>
</svg>
