<svg width="220" height="30" viewBox="0 0 220 30" fill="none" xmlns="http://www.w3.org/2000/svg">
<path d="M20.8002 6.0667L25.3169 23.2668L29.8336 6.0667C29.9419 5.67503 30.0002 5.10836 30.0002 4.68336C30.0002 2.10001 27.9002 0 25.3169 0C22.7335 0 20.6335 2.10001 20.6335 4.68336C20.6335 5.10836 20.6919 5.67503 20.8002 6.0667Z" fill="white"/>
<path d="M11.775 10.9085L24.2917 23.5502L19.6 6.3918C19.5 6.00013 19.2584 5.47513 19.05 5.10846C17.7584 2.86678 14.8917 2.10011 12.65 3.39178C10.4083 4.68346 9.64165 7.55014 10.9333 9.79182C11.1583 10.1585 11.4833 10.6168 11.775 10.9085Z" fill="white"/>
<path d="M6.38336 19.6084L23.5418 24.3001L10.9001 11.7833C10.6167 11.4917 10.15 11.1583 9.78338 10.95C7.5417 9.65834 4.68335 10.425 3.38335 12.6667C2.09167 14.9084 2.85834 17.7667 5.10002 19.0667C5.47502 19.2667 5.99169 19.5001 6.38336 19.6084Z" fill="white"/>
<path d="M6.0667 29.8334L23.2668 25.3167L6.0667 20.8C5.67503 20.6917 5.10836 20.6333 4.68336 20.6333C2.10001 20.6333 0 22.7333 0 25.3167C0 27.9 2.10001 30.0001 4.68336 30.0001C5.10836 30.0001 5.67503 29.9417 6.0667 29.8334Z" fill="white"/>
<path d="M44.5669 29.8334L27.3668 25.3167L44.5669 20.8C44.9585 20.6917 45.5252 20.6333 45.9502 20.6333C48.5335 20.6333 50.6336 22.7333 50.6336 25.3167C50.6336 27.9 48.5335 30.0001 45.9502 30.0001C45.5252 30.0001 44.9585 29.9417 44.5669 29.8334Z" fill="white"/>
<path d="M44.2419 19.6084L27.0835 24.3001L39.7252 11.7833C40.0085 11.4917 40.4752 11.1583 40.8419 10.95C43.0836 9.65834 45.9419 10.425 47.2419 12.6667C48.5336 14.9084 47.7669 17.7667 45.5252 19.0667C45.1586 19.2667 44.6336 19.5001 44.2419 19.6084Z" fill="white"/>
<path d="M38.8503 10.9085L26.3336 23.5502L31.0252 6.3918C31.1252 6.00013 31.3669 5.47513 31.5752 5.10846C32.8669 2.86678 35.7336 2.10011 37.9753 3.39178C40.217 4.68346 40.9836 7.55014 39.692 9.79182C39.4753 10.1585 39.1419 10.6168 38.8503 10.9085Z" fill="white"/>
<path d="M216.893 11.0487C217.223 11.0487 217.398 10.8751 217.398 10.6243C217.398 10.3349 217.204 10.1999 216.893 10.1999H216.233V11.0487H216.893ZM215.438 9.50541H216.971C217.728 9.50541 218.194 9.9298 218.194 10.5278C218.194 11.0101 217.942 11.338 217.495 11.4538C217.845 11.531 218.058 11.8203 218.058 12.264C218.058 12.6305 218.116 12.8427 218.233 12.9971V13.0935H217.398C217.32 12.9199 217.262 12.7463 217.262 12.2833C217.262 11.8782 217.068 11.7239 216.66 11.7239H216.233V13.0742H215.438V9.50541ZM216.68 8.79164C215.263 8.77235 214.156 9.9298 214.176 11.2995C214.156 12.6691 215.282 13.8459 216.68 13.8073C218.097 13.8266 219.203 12.6691 219.184 11.2995C219.203 9.9298 218.097 8.75306 216.68 8.79164ZM216.68 8.00071C218.543 7.96213 220.038 9.5054 219.999 11.2995C220.038 13.0935 218.524 14.6561 216.68 14.5982C214.816 14.6368 213.322 13.0935 213.361 11.2995C213.322 9.5054 214.816 7.96213 216.68 8.00071Z" fill="white"/>
<path d="M69.3269 19.6329L69.3657 19.2278C69.3657 17.2408 67.7545 16.0641 65.6387 16.0641C63.484 16.0641 61.8728 17.4338 61.6011 19.6329H69.3269ZM72.2774 23.8191C71.3263 26.6356 69.2492 28.2946 66.0463 28.2946C61.9505 28.2946 58.9999 25.4588 58.9999 20.9833C58.9999 17.0094 61.6787 13.8456 65.6581 13.8456C67.5022 13.8456 69.0163 14.3665 70.1616 15.4468C71.3069 16.5078 71.8698 17.9353 71.8698 19.7487C71.8698 20.366 71.8116 20.9254 71.6951 21.4463H61.6011C61.6205 24.4557 63.5811 26.0568 66.0463 26.0568C68.201 26.0568 69.521 24.9379 70.0839 22.951L72.2774 23.8191Z" fill="white"/>
<path d="M76.1597 23.2982C76.9556 25.2659 78.1979 26.0761 80.3138 26.0761C82.1579 26.0761 83.3226 25.2659 83.3226 24.0506C83.3226 22.7388 82.4685 22.0058 79.6538 21.6199C76.4509 21.1569 74.8592 19.8452 74.8592 17.646C74.8592 16.5271 75.325 15.6204 76.2762 14.926C77.2468 14.1929 78.4503 13.8457 79.8867 13.8457C82.5073 13.8457 84.0602 14.9646 84.9143 16.9129L82.9344 17.9932C82.4685 16.585 81.3814 15.8905 79.8673 15.8905C78.3338 15.8905 77.1691 16.585 77.1691 17.6653C77.1691 18.8613 78.1785 19.3822 80.8961 19.768C84.1573 20.2117 85.7879 21.5814 85.7879 23.8963C85.7879 26.462 83.342 28.2753 80.1973 28.2753C77.0527 28.2753 74.898 26.732 74.0827 24.3592L76.1597 23.2982Z" fill="white"/>
<path d="M87.0495 16.2764V14.1351H89.806V8.03916H92.3683V14.1351H97.3765V16.2764H92.3683V23.9928C92.3683 25.3046 93.1836 26.0762 94.29 26.0762C95.4741 26.0762 96.1341 25.4396 96.3865 23.9156L98.7353 24.4365C98.347 26.925 96.7553 28.2947 94.3871 28.2947C91.4365 28.2947 89.8254 26.6549 89.8254 23.877V16.2764H87.0495Z" fill="white"/>
<path d="M110.596 19.633L110.635 19.2279C110.635 17.2409 109.024 16.0641 106.908 16.0641C104.753 16.0641 103.142 17.4338 102.87 19.633H110.596ZM113.527 23.8191C112.576 26.6356 110.499 28.2946 107.296 28.2946C103.2 28.2946 100.269 25.4588 100.269 20.9833C100.269 17.0094 102.948 13.8457 106.927 13.8457C108.771 13.8457 110.285 14.3665 111.431 15.4468C112.576 16.5078 113.139 17.9354 113.139 19.7487C113.139 20.366 113.081 20.9255 112.964 21.4463H102.87C102.909 24.4557 104.85 26.0569 107.315 26.0569C109.47 26.0569 110.79 24.938 111.353 22.951L113.527 23.8191Z" fill="white"/>
<path d="M114.905 16.2764V14.1351H117.662V8.03916H120.224V14.1351H125.232V16.2764H120.224V23.9928C120.224 25.3046 121.039 26.0762 122.146 26.0762C123.33 26.0762 123.99 25.4396 124.242 23.9156L126.591 24.4365C126.203 26.925 124.611 28.2947 122.243 28.2947C119.292 28.2947 117.681 26.6549 117.681 23.877V16.2764H114.905Z" fill="white"/>
<path d="M128.785 28.0053H131.308V14.1544H128.785V28.0053ZM128.629 10.9907H131.444V8.03916H128.629V10.9907Z" fill="white"/>
<path d="M140.955 16.1221C138.684 16.1221 136.549 18.0319 136.549 21.1184C136.549 24.2436 138.665 26.0376 140.955 26.0376C143.13 26.0376 145.362 24.2243 145.362 21.1184C145.381 18.0512 143.149 16.1221 140.955 16.1221ZM140.49 13.8457C142.644 13.8457 144.353 14.926 145.265 16.6622V8.03916H147.827V28.0053H145.381V25.5168C144.43 27.1758 142.683 28.2947 140.548 28.2947C136.685 28.2947 134.026 25.401 134.026 21.157C134.026 16.8551 136.704 13.8457 140.49 13.8457Z" fill="white"/>
<path d="M160.891 19.633L160.93 19.2279C160.93 17.2409 159.319 16.0641 157.203 16.0641C155.048 16.0641 153.437 17.4338 153.165 19.633H160.891ZM163.842 23.8191C162.891 26.6356 160.814 28.2946 157.611 28.2946C153.515 28.2946 150.584 25.4588 150.584 20.9833C150.584 17.0094 153.262 13.8457 157.242 13.8457C159.086 13.8457 160.6 14.3665 161.745 15.4468C162.891 16.5078 163.453 17.9354 163.453 19.7487C163.453 20.366 163.395 20.9255 163.279 21.4463H153.185C153.224 24.4557 155.165 26.0569 157.63 26.0569C159.785 26.0569 161.105 24.938 161.668 22.951L163.842 23.8191Z" fill="white"/>
<path d="M168.947 14.135V16.1606C169.568 14.6752 170.83 13.8457 172.499 13.8457C174.77 13.8457 176.323 15.5047 176.323 17.6267C176.323 18.1862 176.265 18.707 176.149 19.17H173.683C173.742 18.7649 173.78 18.4176 173.78 18.1476C173.78 16.8551 172.926 16.0641 171.548 16.0641C169.995 16.0641 168.966 17.2988 168.966 19.17V28.0053H166.443V14.1543H168.947V14.135Z" fill="white"/>
<path d="M181.429 14.135V16.1027C182.108 14.7331 183.35 13.8457 185.195 13.8457C186.864 13.8457 188.281 14.8102 188.747 16.585C189.484 14.8295 191.076 13.8457 192.843 13.8457C195.424 13.8457 197.074 15.4468 197.074 18.3791V28.0053H194.551V18.9192C194.551 17.2023 193.483 16.1413 191.989 16.1413C190.455 16.1413 189.252 17.2602 189.252 19.3822V28.0053H186.689V19.035C186.689 17.1251 185.66 16.1413 184.127 16.1413C182.593 16.1413 181.429 17.2795 181.429 19.5365V28.0246H178.905V14.1736H181.429V14.135Z" fill="white"/>
<path d="M209.168 22.5267L207.867 22.1409C206.897 21.8515 206.023 21.6972 205.285 21.6972C203.499 21.6972 202.374 22.4496 202.374 23.8964C202.374 25.1889 203.383 26.057 205.227 26.057C207.556 26.057 209.168 24.8223 209.168 22.8161V22.5267ZM204.936 19.7488C205.965 19.7488 206.974 19.9031 207.906 20.1925L209.168 20.5397V19.1122C209.168 17.0867 207.751 15.9871 205.674 15.9871C203.674 15.9871 202.315 17.0674 201.966 18.8614L199.675 18.2248C200.238 15.5627 202.412 13.8651 205.674 13.8651C209.478 13.8651 211.614 15.9099 211.614 19.3244V28.0053H209.168V25.8062C208.469 27.2916 206.605 28.2947 204.373 28.2947C203.072 28.2947 201.985 27.9089 201.073 27.1565C200.2 26.3656 199.753 25.3432 199.753 24.0507C199.753 21.2149 201.908 19.7488 204.936 19.7488Z" fill="white"/>
</svg>
