<svg xmlns="http://www.w3.org/2000/svg" width="156.595" height="310" viewBox="0 0 156.595 310">
  <g id="XMLID_834_" transform="translate(-76.703)">
    <path id="XMLID_835_" d="M81.7,165.106h33.981V305a5,5,0,0,0,5,5H178.3a5,5,0,0,0,5-5V165.765h39.064a5,5,0,0,0,4.967-4.429l5.933-51.5a5,5,0,0,0-4.966-5.572h-45V71.978c0-9.732,5.24-14.667,15.576-14.667H228.3a5,5,0,0,0,5-5V5.037a5,5,0,0,0-5-5H187.753C187.467.023,186.832,0,185.9,0c-7.035,0-31.488,1.381-50.8,19.151-21.4,19.692-18.427,43.27-17.716,47.358v37.752H81.7a5,5,0,0,0-5,5v50.844A5,5,0,0,0,81.7,165.106Z" fill="#fff"/>
  </g>
</svg>
