<svg xmlns="http://www.w3.org/2000/svg" width="461.001" height="326.216" viewBox="0 0 461.001 326.216">
  <path id="Path_1" data-name="Path 1" d="M365.257,67.393H95.744A95.744,95.744,0,0,0,0,163.137V297.865a95.744,95.744,0,0,0,95.744,95.744H365.257A95.744,95.744,0,0,0,461,297.865V163.137A95.744,95.744,0,0,0,365.257,67.393ZM300.506,237.056l-126.06,60.123a5.06,5.06,0,0,1-7.239-4.568v-124a5.06,5.06,0,0,1,7.348-4.514l126.06,63.881A5.061,5.061,0,0,1,300.506,237.056Z" transform="translate(0 -67.393)" fill="#fff"/>
</svg>
