<svg xmlns="http://www.w3.org/2000/svg" width="310.001" height="253.806" viewBox="0 0 310.001 253.806">
  <g id="XMLID_826_" transform="translate(0.002 -28.097)">
    <path id="XMLID_827_" d="M302.973,57.388a117.512,117.512,0,0,1-14.993,5.463,66.276,66.276,0,0,0,13.494-23.73,5,5,0,0,0-7.313-5.824A117.994,117.994,0,0,1,259.283,47.08a66.576,66.576,0,0,0-113.13,47.564,67.885,67.885,0,0,0,.545,8.6A170.374,170.374,0,0,1,29.76,41.2a5,5,0,0,0-8.2.642,66.645,66.645,0,0,0,6.825,76.6,56.371,56.371,0,0,1-8.907-3.977,5,5,0,0,0-7.427,4.257c-.007.295-.007.59-.007.889a66.784,66.784,0,0,0,32.577,57.229c-1.692-.169-3.383-.414-5.063-.735a5,5,0,0,0-5.7,6.437,66.526,66.526,0,0,0,48.749,44.6A117.733,117.733,0,0,1,19.68,245.11a120.4,120.4,0,0,1-14.1-.826A5,5,0,0,0,2.3,253.458,179.466,179.466,0,0,0,99.346,281.9c67.754,0,110.139-31.95,133.764-58.753,29.46-33.421,46.356-77.658,46.356-121.367,0-1.826-.028-3.67-.084-5.508a129.37,129.37,0,0,0,29.773-31.536,5,5,0,0,0-6.182-7.351Z" fill="#fff"/>
  </g>
</svg>
