<svg width="56" height="18" viewBox="0 0 56 18" fill="none" xmlns="http://www.w3.org/2000/svg">
<g clip-path="url(#clip0)">
<path d="M30.3569 8.55432C33.8943 6.91251 34.4176 1.55493 29.3856 1.55493H23.5585L21.405 5.87553H22.4185L19.8426 16.2019H26.5989C31.5278 16.2447 33.7443 10.3062 30.3569 8.55432ZM26.5989 12.4428H24.9098L25.543 10.1096H27.1476C29.0478 10.4984 27.8656 12.529 26.5989 12.4428ZM27.6123 7.47394H26.1765L26.5989 5.44307H28.2034C29.7536 5.83213 28.4146 7.56043 27.6123 7.47394Z" fill="white"/>
<path d="M44.1897 7.07308L46.4017 3.07705L43.4086 1.47925L43.0182 1.97222C41.4032 1.09752 32.9474 2.30535 32.4182 10.8402C32.7348 18 40.5753 16.7121 41.3447 16.258L43.5012 11.6966C41.3892 13.1198 37.0645 13.8032 36.8817 9.52724C37.2605 6.00126 41.3291 4.68463 44.1897 7.07308ZM55.2288 1.55504H48.428L46.2664 5.74606H47.3769L42.2518 16.2017H47.2127L48.2312 13.6797H51.2763L51.3522 16.2017H55.9188L55.2288 1.55504ZM49.6105 10.2846L51.276 6.21702L51.3519 10.2846H49.6105Z" fill="white"/>
<path d="M12.7593 15.5025L13.0233 15.424L12.7336 15.0142L12.7593 15.5025ZM8.42205 15.4329L8.37097 15.799C8.50239 15.7859 8.66428 15.9017 8.7288 15.6419C8.72402 15.4396 8.57348 15.4286 8.42205 15.4329ZM10.5269 15.4243C10.5051 15.3247 10.4235 15.251 10.2201 15.3198L10.2882 15.6945C10.4555 15.6566 10.5415 15.5554 10.5269 15.4243ZM5.77211 15.1175L5.69057 15.4506C5.82139 15.4561 5.97462 15.5646 6.06153 15.3675C6.06721 15.2437 6.07229 15.1205 5.77211 15.1175ZM10.348 15.9735L10.4077 16.3571C10.5475 16.3607 10.6747 16.2749 10.6377 16.0955C10.6022 15.9234 10.4606 15.9506 10.348 15.9735Z" fill="white"/>
<path d="M15.8882 1.75313C11.3759 -0.598948 5.98704 -0.533545 1.68776 1.65044C-0.529086 5.64372 -0.599576 11.2311 1.68776 16.1795C6.42402 18.6321 11.6627 18.4704 15.9213 16.2822C17.9228 12.0808 18.2532 7.02513 15.8882 1.75313ZM8.26751 13.677L7.99989 13.6801C7.93358 12.9237 7.75705 12.2883 7.37802 11.802C5.64027 9.5722 2.0877 11.251 3.00078 7.46126C3.47539 5.52391 8.88907 4.38149 8.26751 13.677ZM3.00735 9.93406C3.38668 10.7244 5.76422 10.8537 6.58919 11.4588C7.89833 12.4185 7.71046 13.6807 7.71046 13.6807H7.40162C6.79379 11.7742 5.088 13.2837 3.72151 12.7702C2.86398 12.4579 2.24093 11.1049 3.00735 9.93406ZM7.3386 16.1486L7.46643 15.111L7.69642 15.1284L7.59397 16.2705C7.49093 16.7736 6.75765 16.7064 6.66506 16.2268L6.78453 15.041L7.05723 15.0847L6.93776 16.0786C6.95329 16.4078 7.27557 16.3879 7.3386 16.1486ZM6.11428 16.4319L5.85204 16.3671C5.8828 16.1452 6.13997 15.6941 5.63161 15.6941L5.49003 16.284L5.2006 16.2284L5.50795 14.8127C6.25944 14.8965 6.32515 15.1104 6.33979 15.3402C6.31022 15.5184 6.26392 15.6428 6.11369 15.6734C6.29021 15.8363 6.11637 16.1776 6.11428 16.4319ZM4.44881 14.8463C4.37653 14.9444 4.23197 15.2874 4.21106 15.5603C4.18866 15.8497 4.46046 15.7889 4.52826 15.755C4.58292 15.7278 4.62354 15.4952 4.62354 15.4952L4.43328 15.4304L4.4966 15.2357L4.92492 15.3818L4.71882 16.1122L4.54439 16.0633L4.56022 15.9496C4.34666 16.0493 3.95568 15.9744 3.90998 15.7226C3.86398 15.5199 4.00317 14.9059 4.22719 14.619C4.44493 14.3399 4.97569 14.6125 4.98854 14.7812C5.00138 14.9493 4.93656 15.1382 4.93656 15.1382L4.73674 15.0997C4.73674 15.0997 4.74899 15.0389 4.76661 14.9432C4.78453 14.8424 4.52617 14.7409 4.44881 14.8463ZM8.34427 16.0352L8.2932 16.663L8.08023 16.6544L8.157 15.1636C8.68895 15.1749 8.99391 15.2504 8.98376 15.6345C8.9515 16.1593 8.53603 16.0413 8.34427 16.0352ZM8.87444 13.6804H8.51811C8.48645 12.3891 8.72928 10.0276 8.06619 8.2895C7.56381 6.97195 6.2926 6.37935 6.01064 5.31487C5.5647 3.63027 6.32396 1.80753 8.87444 1.66694C11.0856 1.89922 11.7651 3.64586 11.3879 5.27238C10.7394 6.8983 10.0907 6.6648 9.28334 8.28461C8.62384 10.0209 8.87474 12.2956 8.87444 13.6804ZM12.8261 16.0701L12.579 16.1572L12.5023 14.6575L12.792 14.5789L13.508 15.817L13.312 15.9478L13.0734 15.5991L12.8007 15.7036L12.8261 16.0701ZM9.94314 13.6804H9.65819C9.89296 10.3644 13.9655 11.0847 14.3377 9.93406C14.9814 11.0746 14.7499 12.0367 14.0778 12.5297C12.4076 13.7556 10.8063 11.6226 9.94314 13.6804ZM11.4545 15.3552L11.5823 16.0441C11.6618 16.203 11.7158 16.1734 11.8377 16.1575C11.9793 16.0526 11.9497 15.9506 11.9231 15.8173L12.1701 15.7825C12.2347 16.2815 12.0029 16.3323 11.8293 16.3665C11.4575 16.3937 11.3846 16.3194 11.2839 15.8259C11.2254 15.4032 11.1241 14.957 11.4712 14.8757C12.0414 14.7867 12.0077 15.0493 12.059 15.233L11.812 15.2767C11.7726 15.1187 11.7158 15.056 11.5904 15.0676C11.4766 15.1214 11.4297 15.2082 11.4545 15.3552ZM10.9345 16.0701C10.9464 16.2874 10.8741 16.4313 10.7385 16.4799L10.1591 16.6018L9.9291 15.1633C10.048 15.1434 10.631 14.9249 10.7726 15.3204C10.8425 15.5618 10.7702 15.6483 10.6875 15.7562C10.8443 15.8078 10.8971 15.9325 10.9345 16.0701ZM9.44642 8.85062C10.7373 5.13149 13.6913 5.78858 14.3464 7.46156C15.2439 10.8179 12.3538 9.89769 10.5026 11.2739C9.80275 11.8965 9.43477 12.611 9.4294 13.6938H9.11219C9.09308 11.5126 9.05843 9.96798 9.44642 8.85062Z" fill="white"/>
</g>
<defs>
<clipPath id="clip0">
<rect width="56" height="18" fill="white"/>
</clipPath>
</defs>
</svg>
