<svg width="80" height="17" viewBox="0 0 80 17" fill="none" xmlns="http://www.w3.org/2000/svg">
<g clip-path="url(#clip0)">
<path d="M11.6375 8.49854C11.3362 8.49854 11.0922 8.73576 11.0922 9.02932C11.0908 9.18055 11.1569 9.32585 11.2745 9.42519V9.73654C11.2745 9.93225 11.4376 10.0909 11.6375 10.0909C11.8388 10.0909 12.0004 9.93225 12.0004 9.73654V9.42519C12.1151 9.32289 12.1812 9.17907 12.1827 9.02932C12.1827 8.73576 11.9387 8.49854 11.6375 8.49854Z" fill="white"/>
<path d="M8.72773 0C3.90756 0 0 3.80447 0 8.49852C0 13.1926 3.90756 16.997 8.72773 16.997C13.5479 16.997 17.4555 13.1926 17.4555 8.49852C17.4555 3.80447 13.5479 0 8.72773 0ZM13.5861 11.1317C13.4788 12.0198 12.7984 12.7389 11.899 12.9168C9.87986 13.1644 7.83717 13.1644 5.818 12.9168C4.81428 12.7522 4.02072 11.999 3.82527 11.0264C3.57104 9.35994 3.57104 7.66527 3.82527 5.99878C3.95312 5.07954 4.64528 4.32932 5.57111 4.10841C7.19938 3.82522 8.86734 3.82522 10.4956 4.10841C11.2216 4.30412 11.7359 4.93276 11.7683 5.66667H6.18245C5.98112 5.66667 5.81946 5.82531 5.81946 6.02102C5.81946 6.21673 5.98259 6.37537 6.18245 6.37537H11.6962C12.8072 6.32644 13.7536 7.15673 13.8198 8.23757C13.8491 9.20722 13.7713 10.1784 13.5861 11.1317Z" fill="white"/>
<path d="M42.316 7.54211C42.3278 6.05205 41.0978 4.8348 39.5665 4.82294C38.0367 4.81108 36.7861 6.00906 36.7743 7.49912C36.7626 8.98917 37.9926 10.2064 39.5239 10.2183C39.5386 10.2183 39.5532 10.2183 39.5679 10.2183C41.0199 10.2939 42.2602 9.21009 42.3381 7.79564C42.3425 7.71113 42.3425 7.62662 42.3395 7.54211H42.316ZM34.0835 7.54211C34.0835 4.70878 36.3819 2.55005 39.5679 2.55005C42.754 2.55005 45.0523 4.7236 45.0523 7.54211C45.0523 10.3606 42.776 12.5416 39.5679 12.5416C36.3599 12.5416 34.0835 10.368 34.0835 7.54211Z" fill="white"/>
<path d="M29.719 8.05959C29.719 9.22792 28.4977 10.1842 26.9474 10.1842C25.5248 10.3236 24.2551 9.31539 24.1111 7.92912C24.0964 7.78827 24.0935 7.64742 24.1038 7.50657C24.1038 5.96313 25.2677 4.90008 27.0561 4.90008C28.511 4.90008 29.7175 5.86973 29.7175 6.96837V8.05959H29.719ZM29.8277 2.54267V3.66207C28.943 2.87923 27.7703 2.47892 26.577 2.55009C23.7555 2.57529 21.4879 4.82298 21.5144 7.57032C21.5408 10.3177 23.8495 12.5253 26.6711 12.4986C27.8335 12.549 28.9636 12.1265 29.791 11.3303V12.2866C29.791 13.5824 28.6418 14.5313 27.1296 14.5313C25.9745 14.6129 24.8356 14.2229 23.9877 13.4549L22.2198 15.1125C23.5453 16.3787 25.3455 17.0607 27.2016 16.997C30.2994 16.997 32.4244 14.9717 32.4244 12.2733V2.54267H29.8277Z" fill="white"/>
<path d="M46.6512 2.83318H49.2553V3.66939H49.2921C50.1459 2.91176 51.273 2.51441 52.4266 2.56482C55.2599 2.6686 57.4716 4.99043 57.3644 7.74963C57.263 10.3635 55.11 12.4585 52.4266 12.5578C51.3245 12.583 50.2487 12.2287 49.3861 11.56V16.2911H46.6733L46.6512 2.83318ZM52.0049 4.89998C50.55 4.89998 49.3641 5.88446 49.3641 6.95345V8.14994C49.3641 9.29009 50.5353 10.2316 52.0196 10.2316C53.5317 10.3072 54.8205 9.17593 54.8984 7.70218C54.9763 6.22992 53.8139 4.97412 52.3017 4.8985C52.2077 4.89405 52.1136 4.89405 52.0196 4.8985H52.0049V4.89998Z" fill="white"/>
<path d="M62.5725 6.62898C64.3551 6.39472 64.8856 6.14712 64.8856 5.66526C64.8856 5.04255 64.2096 4.66744 63.1618 4.66744C62.0332 4.577 61.0045 5.30201 60.7399 6.37396L58.18 5.85652C58.5429 3.93056 60.5798 2.55615 63.0898 2.55615C65.926 2.55615 67.6866 3.97208 67.6866 6.26721V12.2793H65.2486V11.2311H65.2118C64.3845 12.137 63.1735 12.6189 61.9318 12.5343C59.7862 12.5343 58.2946 11.3942 58.2946 9.70102C58.2946 8.00784 59.5173 7.03967 62.5725 6.62898ZM65.1031 7.6268H65.0663C64.8268 7.96632 64.3389 8.165 62.9928 8.39184C61.3998 8.68244 60.8105 8.98638 60.8105 9.53941C60.8105 10.0924 61.2837 10.3608 62.3094 10.3608C63.873 10.3608 65.081 9.65209 65.081 8.75361L65.1031 7.6268Z" fill="white"/>
<path d="M72.5949 11.7484L68.1068 2.83325H71.0959L74.0409 9.00846H74.085L76.9948 2.83325H79.9985L73.2782 16.2882H70.2891L72.5949 11.7484Z" fill="white"/>
</g>
<defs>
<clipPath id="clip0">
<rect width="80" height="17" fill="white"/>
</clipPath>
</defs>
</svg>
