<svg width="24" height="28" viewBox="0 0 24 28" fill="none" xmlns="http://www.w3.org/2000/svg">
<path fill-rule="evenodd" clip-rule="evenodd" d="M19.6719 6.2213C17.9193 3.75877 15.1467 2.33333 12 2.33333C8.85333 2.33333 6.08068 3.75877 4.32811 6.2213C2.58121 8.6755 2.1971 11.7478 3.24536 14.4393L3.25125 14.4544C3.49595 15.0959 3.90493 15.7706 4.50467 16.4446L4.51031 16.4509L12 24.9918L19.4919 16.4483C20.0971 15.7673 20.5049 15.0932 20.746 14.4609L20.749 14.4531L20.752 14.4454C21.8032 11.747 21.4184 8.67485 19.6719 6.2213ZM21.573 4.86834C19.3712 1.77466 15.8817 0 12 0C8.11828 0 4.62883 1.77466 2.42707 4.86834C0.23613 7.94637 -0.269767 11.8432 1.0711 15.2861C1.42976 16.2263 1.99987 17.1397 2.76156 17.9957L11.2323 27.6554C11.4239 27.874 11.7046 28 12 28C12.2955 28 12.5762 27.8741 12.7677 27.6554L21.2361 17.9983C22.0012 17.1374 22.5706 16.225 22.9262 15.2923C24.2698 11.8432 23.7639 7.94637 21.573 4.86834Z" fill="#4A8B90"/>
<path fill-rule="evenodd" clip-rule="evenodd" d="M11.9997 12.8333C13.2883 12.8333 14.333 11.7887 14.333 10.5C14.333 9.21134 13.2883 8.16667 11.9997 8.16667C10.711 8.16667 9.66634 9.21134 9.66634 10.5C9.66634 11.7887 10.711 12.8333 11.9997 12.8333ZM11.9997 15.1667C14.577 15.1667 16.6663 13.0773 16.6663 10.5C16.6663 7.92267 14.577 5.83333 11.9997 5.83333C9.42235 5.83333 7.33301 7.92267 7.33301 10.5C7.33301 13.0773 9.42235 15.1667 11.9997 15.1667Z" fill="#4A8B90"/>
</svg>
