<svg width="20" height="20" viewBox="0 0 20 20" fill="none" xmlns="http://www.w3.org/2000/svg">
<path d="M14.3417 7.49977L10.6917 2.03311C10.5334 1.79977 10.2667 1.68311 10 1.68311C9.73337 1.68311 9.46671 1.79977 9.30837 2.04144L5.65837 7.49977H1.66671C1.20837 7.49977 0.833374 7.87477 0.833374 8.33311C0.833374 8.40811 0.841707 8.48311 0.866707 8.55811L2.98337 16.2831C3.17504 16.9831 3.81671 17.4998 4.58337 17.4998H15.4167C16.1834 17.4998 16.825 16.9831 17.025 16.2831L19.1417 8.55811L19.1667 8.33311C19.1667 7.87477 18.7917 7.49977 18.3334 7.49977H14.3417ZM7.50004 7.49977L10 3.83311L12.5 7.49977H7.50004ZM10 14.1664C9.08337 14.1664 8.33337 13.4164 8.33337 12.4998C8.33337 11.5831 9.08337 10.8331 10 10.8331C10.9167 10.8331 11.6667 11.5831 11.6667 12.4998C11.6667 13.4164 10.9167 14.1664 10 14.1664Z" fill="white"/>
</svg>
