<svg width="28" height="28" viewBox="0 0 28 28" fill="none" xmlns="http://www.w3.org/2000/svg">
<path fill-rule="evenodd" clip-rule="evenodd" d="M21.6719 6.2213C19.9193 3.75877 17.1467 2.33333 14 2.33333C10.8533 2.33333 8.08068 3.75877 6.32811 6.2213C4.58121 8.6755 4.1971 11.7478 5.24536 14.4393L5.25125 14.4544C5.49595 15.0959 5.90493 15.7706 6.50467 16.4446L6.51031 16.4509L14 24.9918L21.4919 16.4483C22.0971 15.7673 22.5049 15.0932 22.746 14.4609L22.749 14.4531L22.752 14.4454C23.8032 11.747 23.4184 8.67486 21.6719 6.2213ZM23.573 4.86834C21.3712 1.77466 17.8817 0 14 0C10.1183 0 6.62883 1.77466 4.42707 4.86834C2.23613 7.94637 1.73023 11.8432 3.0711 15.2861C3.42976 16.2263 3.99987 17.1397 4.76156 17.9957L13.2323 27.6554C13.4239 27.874 13.7046 28 14 28C14.2955 28 14.5762 27.8741 14.7677 27.6554L23.2361 17.9983C24.0012 17.1374 24.5706 16.225 24.9262 15.2923C26.2698 11.8432 25.7639 7.94637 23.573 4.86834Z" fill="white"/>
<path fill-rule="evenodd" clip-rule="evenodd" d="M13.9997 12.8333C15.2883 12.8333 16.333 11.7887 16.333 10.5C16.333 9.21134 15.2883 8.16667 13.9997 8.16667C12.711 8.16667 11.6663 9.21134 11.6663 10.5C11.6663 11.7887 12.711 12.8333 13.9997 12.8333ZM13.9997 15.1667C16.577 15.1667 18.6663 13.0773 18.6663 10.5C18.6663 7.92267 16.577 5.83333 13.9997 5.83333C11.4223 5.83333 9.33301 7.92267 9.33301 10.5C9.33301 13.0773 11.4223 15.1667 13.9997 15.1667Z" fill="white"/>
</svg>
