<svg width="24" height="24" viewBox="0 0 24 24" fill="none" xmlns="http://www.w3.org/2000/svg">
<circle cx="12" cy="12" r="12" fill="white"/>
<g clip-path="url(#clip0)">
<path d="M12 6.46785C13.8019 6.46785 14.0151 6.47482 14.7268 6.50723C15.3846 6.53723 15.742 6.64705 15.9798 6.73946C16.2733 6.84751 16.5387 7.02005 16.7566 7.24437C16.9809 7.46225 17.1535 7.7277 17.2615 8.02116C17.3539 8.25901 17.4637 8.61633 17.4937 9.27419C17.5262 9.98589 17.5331 10.1991 17.5331 12.001C17.5331 13.8029 17.5262 14.0161 17.4937 14.7278C17.4637 15.3856 17.3539 15.7429 17.2615 15.9808C17.1491 16.2717 16.9771 16.536 16.7566 16.7565C16.5361 16.9771 16.2718 17.149 15.9809 17.2614C15.743 17.3538 15.3857 17.4637 14.7278 17.4937C14.0164 17.5261 13.8029 17.533 12.0011 17.533C10.1992 17.533 9.98571 17.5261 9.27428 17.4937C8.61642 17.4637 8.2591 17.3538 8.02124 17.2614C7.72779 17.1534 7.46234 16.9808 7.24446 16.7565C7.02014 16.5386 6.8476 16.2732 6.73955 15.9797C6.64714 15.7419 6.53731 15.3845 6.50731 14.7267C6.4749 14.015 6.46794 13.8018 6.46794 11.9999C6.46794 10.198 6.4749 9.98482 6.50731 9.27312C6.53731 8.61526 6.64714 8.25794 6.73955 8.02008C6.8476 7.72663 7.02014 7.46118 7.24446 7.2433C7.46234 7.01898 7.72779 6.84644 8.02124 6.73839C8.2591 6.64598 8.61642 6.53616 9.27428 6.50616C9.98597 6.47374 10.1992 6.46678 12.0011 6.46678L12 6.46785ZM12.0011 5.25098C10.1684 5.25098 9.93856 5.25874 9.21883 5.29169C8.4991 5.32464 8.00892 5.43955 7.58035 5.60616C7.12997 5.77569 6.72194 6.04132 6.38464 6.38455C6.04141 6.72185 5.77578 7.12989 5.60624 7.58026C5.43964 8.00883 5.32553 8.50008 5.29285 9.21821C5.26017 9.93633 5.25214 10.1672 5.25214 11.9999C5.25214 13.8326 5.2599 14.0624 5.29285 14.7821C5.3258 15.5019 5.43964 15.991 5.60624 16.4195C5.77585 16.8697 6.04147 17.2776 6.38464 17.6147C6.72183 17.9582 7.12989 18.2239 7.58035 18.3934C8.00892 18.5603 8.50017 18.6744 9.2183 18.707C9.93642 18.7397 10.1678 18.7478 12.0005 18.7478C13.8332 18.7478 14.063 18.74 14.7828 18.707C15.5025 18.6741 15.9911 18.5603 16.4196 18.3934C16.868 18.2201 17.2753 17.955 17.6152 17.6151C17.9551 17.2752 18.2202 16.868 18.3935 16.4195C18.5603 15.991 18.6745 15.4997 18.7071 14.7816C18.7398 14.0635 18.7478 13.832 18.7478 11.9994C18.7478 10.1667 18.7401 9.93687 18.7071 9.21714C18.6742 8.49741 18.5603 8.00883 18.3935 7.58026C18.2241 7.13004 17.9585 6.72217 17.6153 6.38508C17.2781 6.04166 16.8701 5.77585 16.4196 5.60616C15.9911 5.43955 15.4998 5.32544 14.7817 5.29276C14.0636 5.26008 13.8327 5.25205 12 5.25205L12.0011 5.25098Z" fill="#4A8B90"/>
<path d="M12 8.53516C11.3147 8.53516 10.6447 8.73837 10.0749 9.11911C9.50511 9.49985 9.06099 10.041 8.79873 10.6742C8.53647 11.3073 8.46786 12.004 8.60155 12.6761C8.73525 13.3483 9.06526 13.9657 9.54985 14.4503C10.0344 14.9349 10.6518 15.2649 11.324 15.3986C11.9961 15.5323 12.6928 15.4637 13.326 15.2014C13.9591 14.9391 14.5003 14.495 14.881 13.9252C15.2618 13.3554 15.465 12.6855 15.465 12.0002C15.465 11.5451 15.3754 11.0945 15.2013 10.6741C15.0272 10.2537 14.7719 9.87172 14.4502 9.54995C14.1284 9.22819 13.7464 8.97296 13.326 8.79884C12.9056 8.62472 12.455 8.53512 12 8.53516ZM12 14.2502C11.555 14.2502 11.12 14.1182 10.7499 13.871C10.3799 13.6237 10.0915 13.2723 9.92125 12.8612C9.75095 12.4501 9.70639 11.9977 9.79321 11.5612C9.88003 11.1247 10.0943 10.7238 10.409 10.4092C10.7237 10.0945 11.1246 9.88021 11.561 9.79339C11.9975 9.70657 12.4499 9.75113 12.861 9.92143C13.2721 10.0917 13.6235 10.3801 13.8708 10.7501C14.118 11.1201 14.25 11.5551 14.25 12.0002C14.25 12.5969 14.0129 13.1692 13.591 13.5911C13.169 14.0131 12.5967 14.2502 12 14.2502Z" fill="#4A8B90"/>
<path d="M15.6021 9.2076C16.0493 9.2076 16.4118 8.84507 16.4118 8.39787C16.4118 7.95066 16.0493 7.58813 15.6021 7.58813C15.1549 7.58813 14.7924 7.95066 14.7924 8.39787C14.7924 8.84507 15.1549 9.2076 15.6021 9.2076Z" fill="#4A8B90"/>
</g>
<defs>
<clipPath id="clip0">
<rect width="13.7143" height="13.7143" fill="white" transform="translate(5.14282 5.14282)"/>
</clipPath>
</defs>
</svg>
