<svg width="51" height="16" viewBox="0 0 51 16" fill="none" xmlns="http://www.w3.org/2000/svg">
<path fill-rule="evenodd" clip-rule="evenodd" d="M26.3759 5.11512C26.3469 7.34387 28.4205 8.58763 29.9825 9.32712C31.5875 10.0859 32.1266 10.5725 32.1204 11.2509C32.1082 12.2894 30.8401 12.7476 29.6533 12.7654C27.5827 12.7967 26.379 12.2224 25.4218 11.788L24.6761 15.1786C25.6363 15.6087 27.4143 15.9836 29.2582 16C33.5861 16 36.4176 13.9245 36.433 10.7064C36.4498 6.62234 30.6181 6.39616 30.6579 4.5706C30.6717 4.01716 31.2153 3.42643 32.4068 3.27618C32.9964 3.20037 34.6243 3.14228 36.4697 3.96798L37.194 0.687467C36.2017 0.336301 34.9259 0 33.3379 0C29.2643 0 26.399 2.10377 26.3759 5.11512ZM44.1545 0.282668C43.3643 0.282668 42.6981 0.730573 42.401 1.41792L36.2185 15.759H40.5433L41.404 13.4483H46.689L47.1883 15.759H51L47.6737 0.282668H44.1545ZM44.7594 4.46345L46.0075 10.2748H42.5893L44.7594 4.46345ZM21.1324 0.282668L17.7234 15.759H21.8444L25.2519 0.282668H21.1324ZM15.0357 0.282668L10.7461 10.8164L9.01093 1.85975C8.80732 0.860015 8.0033 0.282668 7.11042 0.282668H0.0980471L0 0.732059C1.4396 1.03554 3.07517 1.52506 4.06597 2.04877C4.67236 2.3686 4.84551 2.64829 5.04454 3.40859L8.33098 15.759H12.6865L19.3636 0.282668H15.0357Z" fill="white"/>
</svg>
