<svg id="logo" xmlns="http://www.w3.org/2000/svg" width="73.865" height="22.581" viewBox="0 0 73.865 22.581">
  <path id="Path_59" data-name="Path 59" d="M32.254,31.343l-4.131-2.381a1.3,1.3,0,0,0-.664-.162,1.437,1.437,0,0,0-.664.162l-4.131,2.381A1.419,1.419,0,0,0,22,32.509v4.762a1.483,1.483,0,0,0,.664,1.166l4.131,2.381a1.3,1.3,0,0,0,.664.162,1.437,1.437,0,0,0,.664-.162l4.131-2.381a1.419,1.419,0,0,0,.664-1.166V32.509A1.4,1.4,0,0,0,32.254,31.343Z" transform="translate(-22 -28.8)"/>
  <g id="Group_110" data-name="Group 110" transform="translate(3.256 3.256)">
    <g id="Group_109" data-name="Group 109" transform="translate(0 0)">
      <g id="Group_108" data-name="Group 108">
        <path id="Path_60" data-name="Path 60" d="M43.137,52.771a1.089,1.089,0,0,0,.211.551,1.16,1.16,0,0,0,.956.34,2.344,2.344,0,0,0,.648-.081.634.634,0,0,0,.486-.632.47.47,0,0,0-.243-.421,2.2,2.2,0,0,0-.745-.243l-.567-.13a3.4,3.4,0,0,1-1.182-.421,1.329,1.329,0,0,1-.535-1.166,1.517,1.517,0,0,1,.535-1.2,2.251,2.251,0,0,1,1.571-.47,2.478,2.478,0,0,1,1.474.437,1.673,1.673,0,0,1,.648,1.312H45.307a.776.776,0,0,0-.437-.7,1.608,1.608,0,0,0-.664-.146,1.2,1.2,0,0,0-.713.178.536.536,0,0,0-.259.486.463.463,0,0,0,.259.437,2.778,2.778,0,0,0,.713.227l.94.227a2.443,2.443,0,0,1,.94.389,1.316,1.316,0,0,1,.486,1.1A1.584,1.584,0,0,1,46,54.084a2.418,2.418,0,0,1-1.62.486,2.591,2.591,0,0,1-1.668-.486,1.608,1.608,0,0,1-.616-1.328l1.037.016Z" transform="translate(-42.1 -48.9)" fill="#fff"/>
      </g>
    </g>
  </g>
  <g id="Group_111" data-name="Group 111" transform="translate(11.274 6.026)">
    <path id="Path_61" data-name="Path 61" d="M104.121,70.552a7.793,7.793,0,0,0-3.985-1.134c-2.721,0-4.487,1.847-4.487,4.827,0,3,1.668,4.892,4.519,4.892a7.613,7.613,0,0,0,4.163-1.28l.826,3.564a11.889,11.889,0,0,1-5.184,1.134c-5.054,0-8.375-2.9-8.375-8.213,0-5.1,3.3-8.342,8.5-8.342a12.375,12.375,0,0,1,5.232,1.182Z" transform="translate(-91.6 -66)"/>
    <path id="Path_62" data-name="Path 62" d="M197.534,84.177h-3.985l-1.166-3.353h-5.864l-1.134,3.353H181.4L187,68.4h5.022ZM189.483,71.51l-2.09,6.188h4.114Z" transform="translate(-166.854 -68.011)"/>
    <path id="Path_63" data-name="Path 63" d="M295.417,84.177H291.4V68.4h6.334c4.2,0,6.382,1.944,6.382,5.005a4.644,4.644,0,0,1-3.24,4.552l4.033,6.236H300.39l-3.159-5.3-1.847.146v5.135ZM297.361,76c1.717-.13,2.657-.826,2.657-2.349,0-1.393-.956-2.073-2.98-2.073h-1.685v4.471Z" transform="translate(-259.036 -68.011)"/>
    <path id="Path_64" data-name="Path 64" d="M393.253,84.177H387.6V68.4h5.929c5.556,0,8.715,3.078,8.715,7.775C402.243,81.019,399.036,84.177,393.253,84.177Zm.032-12.57h-1.668V80.97h1.863c2.9,0,4.714-1.49,4.714-4.649C398.21,73.065,396.558,71.607,393.286,71.607Z" transform="translate(-339.652 -68.011)"/>
  </g>
  <g id="Group_115" data-name="Group 115" transform="translate(8.796 1.021)">
    <g id="Group_114" data-name="Group 114" transform="translate(0 0)">
      <g id="Group_112" data-name="Group 112">
        <path id="Path_65" data-name="Path 65" d="M80.35,37.125a2.026,2.026,0,0,1-2.025,2.025h0A2.026,2.026,0,0,1,76.3,37.125h0A2.026,2.026,0,0,1,78.325,35.1h0a2.026,2.026,0,0,1,2.025,2.025Z" transform="translate(-76.3 -35.1)" fill="#fddb00"/>
      </g>
      <g id="Group_113" data-name="Group 113" transform="translate(1.263 1.166)">
        <path id="Path_66" data-name="Path 66" d="M84.732,42.3h.826l-.486.794h.373l-1.15,1.328.4-1.053h-.6Z" transform="translate(-84.1 -42.3)"/>
      </g>
    </g>
  </g>
</svg>
