<svg id="logo-white" xmlns="http://www.w3.org/2000/svg" width="73.2" height="22.377" viewBox="0 0 73.2 22.377">
  <path id="Path_67" data-name="Path 67" d="M32.161,31.32l-4.093-2.36a1.291,1.291,0,0,0-.658-.161,1.424,1.424,0,0,0-.658.161l-4.093,2.36A1.406,1.406,0,0,0,22,32.476V37.2a1.47,1.47,0,0,0,.658,1.156l4.093,2.36a1.291,1.291,0,0,0,.658.161,1.424,1.424,0,0,0,.658-.161l4.093-2.36a1.406,1.406,0,0,0,.658-1.156V32.476A1.389,1.389,0,0,0,32.161,31.32Z" transform="translate(-22 -28.8)" fill="#fff"/>
  <g id="Group_118" data-name="Group 118" transform="translate(3.227 3.227)">
    <g id="Group_117" data-name="Group 117" transform="translate(0 0)">
      <g id="Group_116" data-name="Group 116">
        <path id="Path_68" data-name="Path 68" d="M43.127,52.737a1.079,1.079,0,0,0,.209.546,1.149,1.149,0,0,0,.947.337,2.323,2.323,0,0,0,.642-.08.628.628,0,0,0,.482-.626.465.465,0,0,0-.241-.417,2.184,2.184,0,0,0-.738-.241l-.562-.128a3.367,3.367,0,0,1-1.172-.417,1.317,1.317,0,0,1-.53-1.156,1.5,1.5,0,0,1,.53-1.188,2.231,2.231,0,0,1,1.557-.466,2.456,2.456,0,0,1,1.461.433,1.658,1.658,0,0,1,.642,1.3H45.278a.769.769,0,0,0-.433-.69,1.594,1.594,0,0,0-.658-.144,1.185,1.185,0,0,0-.706.177.531.531,0,0,0-.257.482.459.459,0,0,0,.257.433,2.753,2.753,0,0,0,.706.225l.931.225a2.421,2.421,0,0,1,.931.385,1.3,1.3,0,0,1,.482,1.092,1.569,1.569,0,0,1-.562,1.22,2.4,2.4,0,0,1-1.605.482,2.567,2.567,0,0,1-1.653-.482,1.594,1.594,0,0,1-.61-1.316l1.027.016Z" transform="translate(-42.1 -48.9)"/>
      </g>
    </g>
  </g>
  <g id="Group_119" data-name="Group 119" transform="translate(11.173 5.972)">
    <path id="Path_69" data-name="Path 69" d="M104.009,70.511a7.723,7.723,0,0,0-3.949-1.124c-2.7,0-4.447,1.83-4.447,4.784,0,2.97,1.653,4.848,4.479,4.848a7.545,7.545,0,0,0,4.125-1.268l.819,3.532A11.782,11.782,0,0,1,99.9,82.406c-5.008,0-8.3-2.873-8.3-8.139,0-5.057,3.275-8.267,8.428-8.267a12.263,12.263,0,0,1,5.185,1.172Z" transform="translate(-91.6 -66)" fill="#fff"/>
    <path id="Path_70" data-name="Path 70" d="M197.388,84.035h-3.949l-1.156-3.323h-5.811l-1.124,3.323H181.4L186.954,68.4h4.976ZM189.41,71.482l-2.071,6.132h4.077Z" transform="translate(-166.985 -68.015)" fill="#fff"/>
    <path id="Path_71" data-name="Path 71" d="M295.381,84.035H291.4V68.4h6.277c4.158,0,6.325,1.926,6.325,4.96a4.6,4.6,0,0,1-3.21,4.511l4,6.18h-4.479l-3.13-5.249-1.83.144v5.089Zm1.926-8.107c1.7-.128,2.633-.819,2.633-2.328,0-1.381-.947-2.055-2.954-2.055h-1.669v4.43Z" transform="translate(-259.327 -68.015)" fill="#fff"/>
    <path id="Path_72" data-name="Path 72" d="M393.2,84.035h-5.6V68.4h5.875c5.506,0,8.636,3.05,8.636,7.705C402.112,80.9,398.933,84.035,393.2,84.035Zm.032-12.457h-1.653v9.278h1.846c2.873,0,4.671-1.477,4.671-4.607C398.114,73.023,396.477,71.578,393.234,71.578Z" transform="translate(-340.085 -68.015)" fill="#fff"/>
  </g>
  <g id="Group_123" data-name="Group 123" transform="translate(8.717 1.011)">
    <g id="Group_122" data-name="Group 122">
      <g id="Group_120" data-name="Group 120">
        <path id="Path_73" data-name="Path 73" d="M80.313,37.107a2.007,2.007,0,0,1-2.007,2.007h0A2.007,2.007,0,0,1,76.3,37.107h0A2.007,2.007,0,0,1,78.307,35.1h0a2.007,2.007,0,0,1,2.007,2.007Z" transform="translate(-76.3 -35.1)" fill="#fddb00"/>
      </g>
      <g id="Group_121" data-name="Group 121" transform="translate(1.252 1.156)">
        <path id="Path_74" data-name="Path 74" d="M84.726,42.3h.819l-.482.787h.369L84.293,44.4l.4-1.043H84.1Z" transform="translate(-84.1 -42.3)"/>
      </g>
    </g>
  </g>
</svg>
