<svg width="14" height="12" viewBox="0 0 14 12" fill="none" xmlns="http://www.w3.org/2000/svg">
<path d="M6.76765 8.53977C6.7804 8.55607 6.7967 8.56925 6.8153 8.57832C6.83391 8.58738 6.85433 8.59209 6.87503 8.59209C6.89573 8.59209 6.91615 8.58738 6.93476 8.57832C6.95336 8.56925 6.96966 8.55607 6.98242 8.53977L8.89151 6.12443C8.9614 6.0358 8.89833 5.90455 8.78412 5.90455H7.52105V0.136364C7.52105 0.0613636 7.45969 0 7.38469 0H6.36196C6.28696 0 6.2256 0.0613636 6.2256 0.136364V5.90284H4.96594C4.85174 5.90284 4.78867 6.03409 4.85855 6.12273L6.76765 8.53977ZM13.1137 7.94318H12.0909C12.0159 7.94318 11.9546 8.00455 11.9546 8.07955V10.7045H1.79549V8.07955C1.79549 8.00455 1.73412 7.94318 1.65912 7.94318H0.636394C0.561394 7.94318 0.500031 8.00455 0.500031 8.07955V11.4545C0.500031 11.7563 0.743781 12 1.04549 12H12.7046C13.0063 12 13.25 11.7563 13.25 11.4545V8.07955C13.25 8.00455 13.1887 7.94318 13.1137 7.94318Z" fill="white"/>
</svg>
