<svg width="17" height="17" viewBox="0 0 17 17" fill="none" xmlns="http://www.w3.org/2000/svg">
<g clip-path="url(#clip0_618:6559)">
<path d="M9.82216 1.24001C8.68862 0.383776 7.27722 -0.054145 5.84726 0.00568587C4.4143 0.0660195 3.05305 0.624105 2.01331 1.57738C-0.205106 3.61162 -0.644978 6.91539 0.96755 9.43231C1.77055 10.6857 2.88252 11.5395 4.27185 11.9688C6.17478 12.5571 7.95483 12.2755 9.71382 11.1076L9.91896 10.9713L15.9282 17.0002L16.9995 15.9317L16.997 15.9292L10.9793 9.89839L11.1227 9.69124C12.0717 8.32267 12.4313 6.67557 12.1354 5.0536C11.8575 3.53068 11.0144 2.14099 9.82216 1.24001ZM6.11861 10.7139C6.11761 10.7139 6.1166 10.7139 6.1161 10.7139C4.88827 10.7134 3.73618 10.2347 2.87249 9.36644C2.0088 8.49814 1.53432 7.34225 1.53682 6.11145C1.54184 3.59151 3.59725 1.54017 6.11911 1.53866C6.11961 1.53866 6.12062 1.53866 6.12112 1.53866C7.34844 1.53866 8.50154 2.01932 9.36924 2.89265C10.2344 3.76346 10.7079 4.91734 10.7024 6.14111C10.6909 8.66356 8.63495 10.7139 6.11861 10.7139Z" fill="#134F2B"/>
</g>
<defs>
<clipPath id="clip0_618:6559">
<rect width="17" height="17" fill="white"/>
</clipPath>
</defs>
</svg>
