<svg width="117" height="25" viewBox="0 0 117 25" fill="none" xmlns="http://www.w3.org/2000/svg">
<path d="M33.1395 9.36355C33.4761 9.30235 33.7821 9.21055 34.1187 9.14935C34.1187 10.9853 34.1187 12.7907 34.1187 14.6267C34.7613 14.7185 35.4039 14.8103 36.0771 14.9021C36.0771 15.3305 36.0771 15.7283 36.0771 16.1567C35.0979 15.9731 34.1187 15.7589 33.1395 15.5447C33.1395 13.4639 33.1395 11.4137 33.1395 9.36355Z" fill="white"/>
<path d="M36.5973 8.62916C36.9339 8.56796 37.2399 8.50676 37.5765 8.44556C37.5765 11.1077 37.5765 13.7699 37.5765 16.4321C37.2399 16.3709 36.9033 16.3097 36.5973 16.2485C36.5973 13.7087 36.5973 11.1689 36.5973 8.62916Z" fill="white"/>
<path d="M38.4027 8.32314C38.9535 8.23134 39.4737 8.13954 40.0245 8.07834C40.3611 10.1591 40.6977 12.3011 41.0037 14.5043C41.3709 12.3317 41.7075 10.0979 42.0747 7.77235C42.6255 7.71115 43.1457 7.64994 43.6965 7.58875C43.6965 10.8323 43.6965 14.0759 43.6965 17.3195C43.3599 17.2889 43.0233 17.2583 42.6867 17.1971C42.6867 14.4737 42.6867 11.7809 42.6867 9.05753C42.2583 11.8115 41.8299 14.4737 41.4015 17.0135C41.1261 16.9829 40.8507 16.9523 40.5753 16.8911C40.1469 14.2901 39.7491 11.7809 39.3207 9.36353C39.3207 11.8115 39.3207 14.2595 39.3207 16.7075C39.0147 16.6463 38.7087 16.6157 38.4027 16.5545C38.4027 13.8005 38.4027 11.0465 38.4027 8.32314Z" fill="white"/>
<path d="M44.6144 7.4358C44.951 7.4052 45.2876 7.37459 45.6242 7.34399C45.6242 10.71 45.6242 14.1065 45.6242 17.4725C45.2876 17.4419 44.951 17.4113 44.6144 17.3807C44.6144 14.0759 44.6144 10.7712 44.6144 7.4358Z" fill="white"/>
<path d="M47.5826 8.93513C47.093 8.96573 46.634 8.99633 46.1444 9.02692C46.1444 8.47613 46.1444 7.89473 46.1444 7.34394C47.4296 7.22154 48.7454 7.12974 50.0612 7.06854C50.0612 7.64994 50.0612 8.26194 50.0612 8.84333C49.5716 8.87393 49.1126 8.87393 48.623 8.90453C48.623 11.8421 48.623 14.7797 48.623 17.7173C48.2864 17.6867 47.9192 17.6867 47.5826 17.6561C47.5826 14.7491 47.5826 11.8421 47.5826 8.93513Z" fill="white"/>
<path d="M50.612 7.03796C51.683 6.97676 52.7846 6.94617 53.8556 6.94617C53.8556 7.52756 53.8556 8.13955 53.8556 8.72095C53.1212 8.72095 52.3868 8.75155 51.6524 8.75155C51.6524 9.60834 51.6524 10.4651 51.6524 11.3219C52.3256 11.3219 53.0294 11.3219 53.7026 11.3219C53.7026 11.9033 53.7026 12.5153 53.7026 13.0967C52.9988 13.0967 52.3256 13.0967 51.6524 13.0967C51.6524 14.0759 51.6524 15.0551 51.6524 16.0343C52.4174 16.0649 53.1824 16.0649 53.9474 16.0649C53.9474 16.6769 53.9474 17.2889 53.9474 17.8703C52.8458 17.8703 51.7442 17.8397 50.6426 17.7785C50.612 14.2289 50.612 10.6181 50.612 7.03796Z" fill="white"/>
<path d="M54.6818 6.97681C55.202 6.97681 55.7528 6.97681 56.273 7.00741C56.5483 7.00741 57.3745 7.038 57.9559 8.0172C58.5679 9.02699 58.7821 10.7712 58.7821 12.3012C58.7821 15.6365 57.9865 17.4113 57.0685 17.8091C56.8849 17.9009 56.6707 17.9315 56.1811 17.9315C55.6916 17.9315 55.1714 17.9315 54.6818 17.9315C54.6818 14.2595 54.6818 10.6182 54.6818 6.97681ZM55.7528 16.0955C55.8752 16.0955 56.0282 16.1261 56.1506 16.1261C56.579 16.1261 56.9767 16.0343 57.2827 15.3611C57.6805 14.4431 57.7111 12.7908 57.7111 12.2706C57.7111 10.7406 57.4663 9.30238 56.8237 8.90459C56.6095 8.75159 56.3341 8.69039 55.7222 8.75159C55.7528 11.1996 55.7528 13.6476 55.7528 16.0955Z" fill="white"/>
<path d="M62.2399 14.3207C62.2399 14.8103 62.2399 16.3097 63.0967 16.2791C63.6475 16.2485 64.0147 15.6671 64.0147 14.7797C64.0147 13.8617 63.7087 13.7393 63.0967 13.4027C61.9645 12.7907 61.3219 12.0563 61.3219 10.1897C61.3219 8.44554 61.9033 6.91554 63.2191 7.03794C63.7087 7.06854 64.3207 7.37454 64.6573 8.35374C64.9327 9.08813 64.9327 9.91432 64.9327 10.2509C64.5961 10.2509 64.2901 10.2203 63.9535 10.2203C63.9535 9.85313 63.8923 8.65973 63.1885 8.59853C62.6989 8.56793 62.3929 9.11873 62.3929 9.97552C62.3929 10.9547 62.7601 11.1383 63.4333 11.5055C64.2595 11.9339 65.0857 12.4235 65.0857 14.3819C65.0857 16.1873 64.3819 17.7173 63.0355 17.8397C61.1995 17.9927 61.1689 15.3305 61.1689 14.3207C61.5361 14.3513 61.9033 14.3513 62.2399 14.3207Z" fill="white"/>
<path d="M65.8507 7.46637C66.9217 7.58877 67.9621 7.71116 69.033 7.83356C69.033 8.32316 69.033 8.84335 69.033 9.33295C68.3292 9.27175 67.5949 9.21056 66.8911 9.14936C66.8911 9.91435 66.8911 10.6793 66.8911 11.4443C67.5643 11.4749 68.2375 11.4749 68.9106 11.5055C68.9106 11.9951 68.9106 12.5153 68.9106 13.0049C68.2375 13.0049 67.5643 13.0355 66.8911 13.0355C66.8911 13.9229 66.8911 14.7797 66.8911 15.6671C67.6255 15.6059 68.3905 15.5447 69.1248 15.4835C69.1248 16.0037 69.1248 16.4933 69.1248 17.0135C68.0539 17.1665 66.9829 17.2889 65.8813 17.3807C65.8507 14.0759 65.8507 10.7711 65.8507 7.46637Z" fill="white"/>
<path d="M72.399 8.35379C72.9498 11.169 73.47 13.8005 73.9902 16.2179C73.6536 16.2791 73.317 16.3403 73.011 16.4015C72.8886 15.8507 72.7968 15.2999 72.6744 14.7185C72.0624 14.7797 71.4504 14.8409 70.8384 14.8715C70.716 15.5141 70.5936 16.1567 70.5018 16.7993C70.1958 16.8605 69.8592 16.8911 69.5532 16.9217C70.104 13.8311 70.6854 10.8936 71.2362 8.13959C71.6034 8.23139 72.0012 8.29259 72.399 8.35379ZM72.4296 13.4334C72.2154 12.2706 72.0012 11.1078 71.787 9.88378C71.5728 11.0466 71.328 12.24 71.0832 13.4639C71.5422 13.4639 71.9706 13.464 72.4296 13.4334Z" fill="white"/>
<path d="M75.0918 10.0367C74.6328 9.97553 74.1738 9.91433 73.7454 9.85313C73.7454 9.42473 73.7454 8.99633 73.7454 8.56793C75 8.81273 76.224 9.05753 77.4174 9.33293C77.4174 9.66952 77.4174 10.0061 77.4174 10.3427C76.989 10.2815 76.53 10.2203 76.071 10.1285C76.071 11.9951 76.071 13.8923 76.071 15.7589C75.7344 15.8201 75.4284 15.8813 75.0918 15.9731C75.0918 14.0147 75.0918 12.0257 75.0918 10.0367Z" fill="white"/>
<path d="M55.7834 21.7259C47.6132 21.7259 39.2595 20.3183 30.4774 17.5031L30.2632 17.4419V7.49698L30.4774 7.43579C46.1138 1.49943 64.6573 1.49943 80.1102 7.43579L80.2938 7.49698V17.4113L80.0796 17.4725C71.9706 20.3183 63.9535 21.7259 55.7834 21.7259ZM30.5998 17.0441C48.1028 22.5827 63.8005 22.6133 79.9572 17.0441V7.89478C64.5655 2.05023 46.1444 2.05023 30.5998 7.89478V17.0441Z" fill="white"/>
<path d="M114.994 3.33541C111.934 -0.183559 106.885 0.0918385 104.253 2.57042C104.223 2.60102 104.192 2.63161 104.131 2.66221C104.1 2.63161 104.039 2.60102 104.009 2.57042C101.377 0.0918385 96.328 -0.183559 93.268 3.33541C90.6059 6.39539 90.9425 10.9242 94.0942 14.0147C96.2668 16.1567 98.4088 18.3293 100.551 20.4713C101.714 21.6341 102.907 22.7969 104.1 23.9902C105.294 22.7969 106.487 21.6341 107.65 20.4713C109.823 18.3293 111.964 16.1567 114.106 14.0147C117.319 10.9242 117.687 6.39539 114.994 3.33541ZM103.152 15.8507C102.02 15.8507 100.857 15.8507 99.7246 15.8507C99.388 15.8507 99.388 15.8201 99.388 15.5141C99.388 14.9633 99.388 14.9633 99.9388 14.9633C100.092 14.9633 100.275 14.9633 100.428 14.9633C100.704 14.9633 100.734 14.9327 100.734 14.6573C100.734 14.1065 100.734 13.5251 100.734 12.9743C100.734 11.6279 100.734 10.2816 100.734 8.93517C100.734 8.59857 100.704 8.59857 100.428 8.75156C100.092 8.90456 99.7858 9.05756 99.4492 9.24116C99.4186 9.11876 99.4492 9.08816 99.4798 9.02696C100.122 7.80297 100.765 6.57898 101.408 5.35499C101.438 5.29379 101.469 5.17139 101.561 5.20199C101.652 5.20199 101.652 5.29379 101.714 5.38559C102.356 6.60958 102.999 7.83357 103.641 9.05756C103.672 9.11876 103.733 9.17997 103.672 9.27176C103.397 9.11877 103.121 8.99636 102.846 8.87396C102.754 8.84336 102.662 8.78216 102.57 8.75156C102.479 8.72096 102.417 8.75157 102.417 8.84337C102.417 8.90457 102.417 8.96576 102.417 9.02696C102.417 10.8935 102.417 12.7907 102.417 14.6573C102.417 15.0245 102.448 15.0551 102.815 15.0551C103.029 15.0551 103.274 15.0551 103.488 15.0551C103.672 15.0551 103.764 15.1163 103.764 15.3305C103.794 15.8507 103.794 15.8507 103.152 15.8507ZM108.323 15.8507C107.191 15.8507 106.028 15.8507 104.896 15.8507C104.559 15.8507 104.559 15.8201 104.559 15.5141C104.559 14.9633 104.559 14.9633 105.11 14.9633C105.263 14.9633 105.447 14.9633 105.6 14.9633C105.875 14.9633 105.906 14.9327 105.906 14.6573C105.906 14.1065 105.906 13.5251 105.906 12.9743C105.906 11.6279 105.906 10.2816 105.906 8.93517C105.906 8.59857 105.875 8.59857 105.6 8.75156C105.263 8.90456 104.957 9.05756 104.621 9.24116C104.59 9.11876 104.621 9.08816 104.651 9.02696C105.294 7.80297 105.936 6.57898 106.579 5.35499C106.61 5.29379 106.64 5.17139 106.732 5.20199C106.824 5.20199 106.824 5.29379 106.885 5.38559C107.528 6.60958 108.17 7.83357 108.813 9.05756C108.843 9.11876 108.905 9.17997 108.843 9.27176C108.568 9.11877 108.293 8.99636 108.017 8.87396C107.925 8.84336 107.834 8.78216 107.742 8.75156C107.65 8.72096 107.589 8.75157 107.589 8.84337C107.589 8.90457 107.589 8.96576 107.589 9.02696C107.589 10.8935 107.589 12.7907 107.589 14.6573C107.589 15.0245 107.619 15.0551 107.987 15.0551C108.201 15.0551 108.446 15.0551 108.66 15.0551C108.843 15.0551 108.935 15.1163 108.935 15.3305C108.966 15.8507 108.966 15.8507 108.323 15.8507Z" fill="white"/>
<path d="M7.06854 24.6328C5.41615 24.6328 3.79437 24.6328 2.14198 24.6328C1.98898 24.6328 1.86658 24.6328 1.71358 24.6328C1.56059 24.6022 1.31578 24.694 1.28518 24.4492C1.25458 24.2044 1.52998 24.235 1.68298 24.2044C2.81517 24.0208 3.94736 23.8678 5.04895 23.6842C5.41615 23.623 5.78335 23.5924 6.15055 23.5006C6.82374 23.317 7.00734 22.6438 6.54835 22.1236C6.27295 21.8176 5.96695 21.5116 5.66095 21.2057C5.04895 20.5325 5.04895 20.5324 5.66095 19.8899C5.93635 19.5839 6.24235 19.3085 6.51774 19.0025C6.94614 18.5129 6.91554 18.1151 6.36475 17.7173C5.41615 17.0441 5.38555 15.9731 6.27294 15.2387C7.06854 14.5655 7.06854 13.5557 6.21175 12.9437C6.05875 12.8213 6.02815 12.6989 6.05875 12.5153C6.30355 11.5055 6.54834 10.4651 6.79314 9.45535C6.88494 9.11875 7.06854 9.11874 7.28274 9.33294C7.58874 9.66954 7.77233 9.57774 7.89473 9.17994C8.20073 8.35375 8.50673 7.52756 8.81273 6.67077C8.93512 6.27297 9.11872 6.15057 9.45532 6.48717C9.82252 6.85436 10.0367 6.70136 10.2815 6.30357C11.4137 4.40638 12.5765 2.50919 13.7393 0.612008C13.8311 0.489609 13.8617 0.214219 14.0759 0.275418C14.2289 0.336618 14.1677 0.550814 14.1677 0.703813C14.1371 2.6316 14.2595 4.58998 13.9841 6.51777C13.4639 9.88374 11.4749 12.0869 8.17013 12.8825C7.83353 12.9743 7.49694 13.0661 7.43574 13.4639C7.37454 13.9841 7.25214 14.5349 7.68054 14.9939C7.74173 15.0857 7.83354 15.1163 7.92533 15.2081C8.81273 15.9425 8.78212 17.0441 7.86413 17.6867C7.28274 18.1151 7.22154 18.5129 7.74173 19.0331C8.10893 19.4309 8.47613 19.7981 8.87392 20.1653C9.08812 20.3795 9.08812 20.5936 8.87392 20.8078C8.50673 21.175 8.17013 21.5422 7.80293 21.9094C7.52753 22.1848 7.37454 22.4602 7.49694 22.858C7.61933 23.2864 7.95593 23.4394 8.32313 23.5006C9.63892 23.7148 10.9241 23.8984 12.2399 24.082C12.4847 24.1126 12.9437 24.0514 12.9437 24.3574C12.9131 24.7246 12.4847 24.5716 12.2399 24.5716C10.4345 24.6328 8.75153 24.6328 7.06854 24.6328Z" fill="white"/>
<path d="M4.89596 0C6.27295 0 7.68054 0 9.05753 0C9.70012 0 9.76133 0.0918068 9.60833 0.734402C9.39413 1.59119 9.14933 2.41738 8.93513 3.24358C8.84333 3.67197 8.65973 3.82498 8.23134 3.61078C7.22155 3.15178 7.25214 3.21297 7.03794 4.28397C6.91555 4.92656 6.79315 5.53856 6.67075 6.18115C6.60955 6.51775 6.45655 6.70135 6.08935 6.54836C5.63036 6.33416 5.44676 6.57896 5.38556 7.00735C5.17136 8.04774 4.95716 9.05753 4.74296 10.0979C4.65116 10.5263 4.49817 10.6793 4.10037 10.4039C3.73317 10.1591 3.58017 10.2815 3.51897 10.7099C3.48837 11.0159 3.58017 11.4749 3.27417 11.5667C2.93758 11.6891 2.69278 11.2913 2.44798 11.0771C0.795594 9.60833 0.275399 7.64994 0.0918002 5.53856C-0.0611986 3.91677 0.0305998 2.29499 0 0.673198C0 0.183602 0.183598 0 0.673194 0C2.05018 0 3.48837 0 4.89596 0Z" fill="white"/>
</svg>
