<svg width="16" height="17" viewBox="0 0 16 17" fill="none" xmlns="http://www.w3.org/2000/svg">
<path d="M8.13322 2.09655C10.1647 2.09655 10.4037 2.09654 11.2403 2.13637C11.7183 2.13637 12.1963 2.21607 12.6743 2.41524C13.3514 2.65424 13.8693 3.2119 14.1083 3.84924C14.2676 4.28742 14.3871 4.80524 14.3871 5.28325C14.427 6.07993 14.427 6.31895 14.427 8.3903C14.427 10.4617 14.427 10.6608 14.3871 11.4973C14.3871 11.9753 14.3075 12.4534 14.1083 12.9314C13.8693 13.6085 13.3116 14.1264 12.6743 14.3654C12.2361 14.5247 11.7183 14.6442 11.2403 14.6442C10.4436 14.684 10.2046 14.684 8.13322 14.684C6.1017 14.684 5.8627 14.684 5.02619 14.6442C4.54818 14.6442 4.07017 14.5645 3.59217 14.3654C2.915 14.0865 2.39716 13.5687 2.15816 12.8915C1.99882 12.4533 1.87932 11.9355 1.87932 11.4575C1.83948 10.6608 1.83949 10.4218 1.83949 8.35048C1.83949 6.27912 1.83948 6.07994 1.87932 5.24343C1.87932 4.76542 1.95899 4.28743 2.15816 3.80942C2.39716 3.17208 2.95483 2.61442 3.59217 2.37541C4.03034 2.21608 4.54818 2.09655 5.02619 2.09655C5.82286 2.13638 6.06187 2.13638 8.13322 2.09655ZM8.13322 0.742191C6.06187 0.742191 5.78303 0.74223 4.98635 0.782064C4.34901 0.782064 3.71167 0.901526 3.11417 1.14053C2.07849 1.53887 1.24198 2.33557 0.843643 3.41108C0.60464 4.00859 0.485135 4.64591 0.485135 5.28325C0.445301 6.11976 0.445305 6.35877 0.445305 8.43013C0.445305 10.5015 0.445301 10.7803 0.485135 11.577C0.524969 12.2143 0.64447 12.8118 0.883473 13.4093C1.28181 14.445 2.07849 15.2815 3.154 15.6799C3.75151 15.9189 4.38885 16.0384 5.02619 16.0384C5.8627 16.0782 6.1017 16.0782 8.17305 16.0782C10.2444 16.0782 10.5232 16.0782 11.3199 16.0384C11.9573 16.0384 12.5946 15.9189 13.1921 15.6799C14.2278 15.2815 15.0643 14.4849 15.4626 13.4093C15.7016 12.8118 15.8211 12.1745 15.8211 11.5372C15.861 10.7007 15.861 10.4617 15.861 8.3903C15.861 6.31895 15.861 6.0401 15.8211 5.24343C15.8211 4.60609 15.7016 3.96877 15.4626 3.37126C15.0643 2.33558 14.2676 1.49904 13.1921 1.1007C12.5946 0.861702 11.9573 0.742191 11.3199 0.742191C10.4834 0.742191 10.2046 0.702357 8.13322 0.742191Z" fill="white"/>
<path d="M8.13322 4.44672C5.94236 4.44672 4.18967 6.19941 4.18967 8.39027C4.18967 10.5811 5.94236 12.3338 8.13322 12.3338C10.3241 12.3338 12.0768 10.5811 12.0768 8.39027C12.0369 6.19941 10.2842 4.44672 8.13322 4.44672ZM8.13322 10.9396C6.73904 10.9396 5.58386 9.78445 5.58386 8.39027C5.58386 6.99609 6.73904 5.8409 8.13322 5.8409C9.5274 5.8409 10.6826 6.99609 10.6826 8.39027C10.6826 9.78445 9.5274 10.9396 8.13322 10.9396Z" fill="white"/>
<path d="M12.1963 3.37128C12.7141 3.37128 13.1124 3.76959 13.1124 4.28742C13.1124 4.80526 12.7141 5.20362 12.1963 5.20362C11.6784 5.20362 11.2801 4.80526 11.2801 4.28742C11.2801 3.76959 11.6784 3.37128 12.1963 3.37128Z" fill="white"/>
</svg>
