<svg width="24" height="24" viewBox="0 0 24 24" fill="none" xmlns="http://www.w3.org/2000/svg">
<path fill-rule="evenodd" clip-rule="evenodd" d="M6 7C6 6.17157 6.67157 5.5 7.5 5.5H12.1623L8.70994 8.5H7.5C6.67157 8.5 6 7.82843 6 7ZM7.5 4.5C6.11929 4.5 5 5.61929 5 7C5 8.38071 6.11929 9.5 7.5 9.5H8V19C8 19.2761 8.22386 19.5 8.5 19.5H18C18.2761 19.5 18.5 19.2761 18.5 19V9.34483C18.5 9.20918 18.4449 9.07935 18.3473 8.98513L13.8473 4.6403C13.7507 4.54703 13.6255 4.50002 13.5 4.5H13.4999H7.5ZM9 9.57275L9.08372 9.5H12.0854C12.0301 9.65639 12 9.82468 12 10C12 10.8284 12.6716 11.5 13.5 11.5C14.3284 11.5 15 10.8284 15 10C15 9.17157 14.3284 8.5 13.5 8.5H10.2345L13.4822 5.67785L17.5 9.55709V18.5H9V9.57275ZM13 10C13 9.72386 13.2239 9.5 13.5 9.5C13.7761 9.5 14 9.72386 14 10C14 10.2761 13.7761 10.5 13.5 10.5C13.2239 10.5 13 10.2761 13 10Z" fill="#79318D"/>
</svg>
