<svg width="24" height="24" viewBox="0 0 24 24" fill="none" xmlns="http://www.w3.org/2000/svg">
<path fill-rule="evenodd" clip-rule="evenodd" d="M7.12988 10.3704C7.12988 7.68054 9.31042 5.5 12.0003 5.5C14.6901 5.5 16.8706 7.68054 16.8706 10.3704C16.8706 11.4734 16.5045 12.4895 15.8869 13.3057L12.4046 18.0939C12.2049 18.3685 11.7956 18.3685 11.5959 18.0939L8.11917 13.3133L8.11348 13.3057C7.49596 12.4895 7.12988 11.4734 7.12988 10.3704ZM12.0003 4.5C8.75814 4.5 6.12988 7.12825 6.12988 10.3704C6.12988 11.6969 6.57048 12.922 7.31309 13.9052L10.7871 18.6821C11.3862 19.5057 12.6143 19.5057 13.2134 18.6821L16.6874 13.9052C17.43 12.922 17.8706 11.6969 17.8706 10.3704C17.8706 7.12825 15.2424 4.5 12.0003 4.5ZM10.5 10C10.5 9.17157 11.1716 8.5 12 8.5C12.8284 8.5 13.5 9.17157 13.5 10C13.5 10.8284 12.8284 11.5 12 11.5C11.1716 11.5 10.5 10.8284 10.5 10ZM12 7.5C10.6193 7.5 9.5 8.61929 9.5 10C9.5 11.3807 10.6193 12.5 12 12.5C13.3807 12.5 14.5 11.3807 14.5 10C14.5 8.61929 13.3807 7.5 12 7.5Z" fill="#79318D"/>
</svg>
