<svg width="24" height="24" viewBox="0 0 24 24" fill="none" xmlns="http://www.w3.org/2000/svg">
<path fill-rule="evenodd" clip-rule="evenodd" d="M6 4.5C5.17157 4.5 4.5 5.17157 4.5 6V13C4.5 13.9144 4.9221 14.8116 5.8086 15.465C6.65182 16.0865 7.88837 16.4706 9.54258 16.4984C9.66986 17.2343 10.0842 17.931 10.8086 18.465C11.6845 19.1106 12.9848 19.5 14.7368 19.5C16.8863 19.5 18.325 19.1198 19.2375 18.4697C20.1812 17.7974 20.5 16.8819 20.5 16V9C20.5 8.17157 19.8284 7.5 19 7.5H15.5V6C15.5 5.17157 14.8284 4.5 14 4.5H6ZM9.5 9V15.4974C8.01535 15.4639 7.02003 15.1156 6.40192 14.66C5.76211 14.1884 5.5 13.5856 5.5 13V6C5.5 5.72386 5.72386 5.5 6 5.5H14C14.2761 5.5 14.5 5.72386 14.5 6V7.5H11C10.1716 7.5 9.5 8.17157 9.5 9ZM14 11C14 11.5523 13.5523 12 13 12C12.4477 12 12 11.5523 12 11C12 10.4477 12.4477 10 13 10C13.5523 10 14 10.4477 14 11ZM18 11C18 11.5523 17.5523 12 17 12C16.4477 12 16 11.5523 16 11C16 10.4477 16.4477 10 17 10C17.5523 10 18 10.4477 18 11ZM11 8.5C10.7239 8.5 10.5 8.72386 10.5 9V16C10.5 16.5856 10.7621 17.1884 11.4019 17.66C12.0523 18.1394 13.1204 18.5 14.7368 18.5C16.7979 18.5 17.9908 18.1302 18.6572 17.6553C19.2925 17.2026 19.5 16.6181 19.5 16V9C19.5 8.72386 19.2761 8.5 19 8.5H11ZM13.5 14C13.5 13.7239 13.2761 13.5 13 13.5C12.7239 13.5 12.5 13.7239 12.5 14C12.5 14.5834 12.6588 15.2047 13.0543 15.6907C13.4625 16.1921 14.0837 16.5 14.8947 16.5C15.8386 16.5 16.5246 16.2157 16.9614 15.6971C17.3843 15.1949 17.5 14.5581 17.5 14C17.5 13.7239 17.2761 13.5 17 13.5C16.7239 13.5 16.5 13.7239 16.5 14C16.5 14.4419 16.4052 14.8051 16.1965 15.0529C16.0017 15.2843 15.6351 15.5 14.8947 15.5C14.3584 15.5 14.0322 15.3079 13.8299 15.0593C13.6149 14.7953 13.5 14.4166 13.5 14Z" fill="#79318D"/>
</svg>
