<svg width="24" height="24" viewBox="0 0 24 24" fill="none" xmlns="http://www.w3.org/2000/svg">
<path fill-rule="evenodd" clip-rule="evenodd" d="M5.5 12C5.5 8.41015 8.41015 5.5 12 5.5C15.5899 5.5 18.5 8.41015 18.5 12C18.5 15.5899 15.5899 18.5 12 18.5C8.41015 18.5 5.5 15.5899 5.5 12ZM12 4.5C7.85786 4.5 4.5 7.85786 4.5 12C4.5 16.1421 7.85786 19.5 12 19.5C16.1421 19.5 19.5 16.1421 19.5 12C19.5 7.85786 16.1421 4.5 12 4.5ZM12.5 7.80005C12.5 7.52391 12.2761 7.30005 12 7.30005C11.7239 7.30005 11.5 7.52391 11.5 7.80005V12C11.5 12.1894 11.607 12.3626 11.7764 12.4473L14.5764 13.8473C14.8234 13.9708 15.1237 13.8706 15.2472 13.6237C15.3707 13.3767 15.2706 13.0763 15.0236 12.9528L12.5 11.691V7.80005Z" fill="#79318D"/>
</svg>
