<svg width="21" height="20" viewBox="0 0 21 20" fill="none" xmlns="http://www.w3.org/2000/svg">
<path d="M14.0312 2.14616C14.315 1.86238 14.6518 1.63727 15.0226 1.48367C15.3933 1.33007 15.7907 1.25101 16.192 1.25098C16.5933 1.25095 16.9906 1.32996 17.3614 1.4835C17.7321 1.63704 18.069 1.86211 18.3528 2.14585C18.6366 2.42958 18.8617 2.76644 19.0153 3.13717C19.1689 3.50791 19.248 3.90527 19.248 4.30656C19.248 4.70786 19.169 5.10523 19.0155 5.47599C18.8619 5.84674 18.6369 6.18363 18.3531 6.46741L17.7894 7.03053L13.4681 2.70928L14.0312 2.14616ZM12.5844 3.59366L3.22312 12.9562C2.90793 13.2711 2.69046 13.6705 2.59687 14.1062L1.76374 17.9937C1.74177 18.0958 1.74574 18.2017 1.77527 18.3019C1.8048 18.4021 1.85897 18.4932 1.93281 18.5671C2.00666 18.6409 2.09783 18.6951 2.198 18.7246C2.29817 18.7542 2.40415 18.7581 2.50624 18.7362L6.39374 17.903C6.82941 17.8094 7.22875 17.592 7.54374 17.2768L16.9062 7.91428L12.5844 3.59366Z" fill="white"/>
</svg>
