<svg width="105" height="29" viewBox="0 0 105 29" fill="none" xmlns="http://www.w3.org/2000/svg">
<path fill-rule="evenodd" clip-rule="evenodd" d="M58.1725 1.22858C57.5076 1.53569 57.3083 1.71303 56.8322 2.42139C55.9592 3.71992 55.4237 4.98221 54.4513 8.03226C53.7717 10.1643 53.4857 11.2958 53.2849 12.6482C52.9475 14.9204 52.8861 15.1157 52.288 15.8259C50.929 17.4389 50.549 17.6421 50.0463 17.0241C49.8206 16.7467 49.7765 16.5146 49.7765 15.6047C49.7765 13.5739 49.0188 13.4217 47.2381 15.0947C45.0845 17.1184 44.0489 17.9318 44.0489 17.5999C44.0489 17.3707 44.5483 16.732 45.5354 15.6982C46.0424 15.1675 46.6914 14.4811 46.9778 14.1733C47.7591 13.3331 49.1593 11.9352 49.6938 11.4614C50.4562 10.7858 50.3006 9.92978 49.4153 9.92978C48.8972 9.92978 47.5413 10.7318 46.4809 11.6656C45.8749 12.1992 44.97 12.9757 44.4702 13.391C43.9703 13.8064 43.462 14.303 43.3408 14.4946C43.2195 14.6863 42.8127 15.0628 42.4369 15.3312C42.061 15.5997 41.6538 15.9663 41.5321 16.1461C41.1787 16.6676 40.0744 17.1493 39.2109 17.1589C38.6026 17.1656 38.4142 17.1134 38.137 16.8618C37.5785 16.3551 37.6789 15.9367 38.5985 14.9361C40.5868 12.773 41.2776 11.1157 40.7245 9.83576C40.4711 9.24924 40.3499 9.17888 39.5888 9.17649C38.7791 9.17397 38.3172 9.47693 37.4188 10.5995C36.5817 11.6454 35.8911 13.1173 35.677 14.3122C35.5463 15.0415 35.4376 15.2658 34.9646 15.7839C34.4139 16.3868 34.403 16.3919 34.1598 16.1517C34.0243 16.0178 33.7189 15.483 33.4814 14.9632C33.2438 14.4434 32.9574 13.8931 32.8451 13.7403C32.6131 13.4251 31.9892 13.0783 31.6522 13.0771C31.2111 13.0756 30.6522 13.7704 30.0835 15.0273C29.4427 16.4435 27.9832 20.8683 27.8455 21.8124C27.7959 22.1521 27.7002 22.5706 27.6327 22.7423C27.4023 23.3285 27.3764 22.9272 27.5846 21.9972C27.6991 21.4866 27.872 20.6156 27.9692 20.0618C28.2934 18.2127 28.9682 15.5727 29.6231 13.591C30.6007 10.633 31.162 8.69393 31.162 8.27518C31.162 7.48967 30.6599 7.15763 30.2058 7.64284C30.0872 7.76946 29.7611 8.38393 29.4811 9.00808C28.8094 10.5055 28.025 12.0055 27.3853 13.0161C27.0999 13.4671 26.8663 13.89 26.8663 13.9559C26.8663 14.3341 22.9107 18.5511 22.6834 18.4151C22.6278 18.3819 22.9285 17.3958 23.3515 16.2236C24.2858 13.6345 24.5155 12.6783 24.271 12.3936C24.0709 12.1603 23.5543 12.1451 23.0782 12.3583C22.8921 12.4418 21.8991 13.3596 20.8718 14.3979C18.9538 16.3365 17.7903 17.3557 17.4955 17.3557C17.2679 17.3557 17.4041 16.2634 17.7544 15.279C18.1101 14.2791 18.2279 13.2619 18.0164 13.0155C17.8112 12.7764 17.3277 12.7708 16.8692 13.0019C16.6759 13.0994 16.1733 13.5666 15.7523 14.0402C15.3314 14.5139 14.6284 15.19 14.1903 15.5428C13.7521 15.8956 12.9777 16.5753 12.4695 17.0532C11.2724 18.1789 10.4643 18.7989 10.4666 18.59C10.4676 18.4996 10.7372 17.4061 11.0658 16.16C11.6764 13.844 12.0102 12.3866 12.2622 10.9367C12.3404 10.4867 12.5913 9.29732 12.8196 8.29356C13.08 7.14845 13.2252 6.18295 13.2092 5.70177C13.1951 5.28013 13.2795 4.26504 13.3966 3.4463C13.6174 1.90246 13.5755 1.1547 13.2616 1.03828C12.9406 0.919209 11.9094 1.76489 11.3718 2.58791C10.8582 3.3743 10.7368 3.80262 10.9855 3.95126C11.0571 3.99406 11.1172 4.20978 11.1191 4.43068C11.1247 5.09737 10.5918 8.81488 10.3928 9.49668C10.2129 10.1127 10.1861 10.1385 9.56647 10.292C9.16684 10.3911 8.59135 10.4215 8.03578 10.3731C7.16767 10.2974 5.52673 10.4244 4.08964 10.6785C3.63951 10.7582 3.33152 10.7606 3.25329 10.685C3.17519 10.6094 3.20981 10.1586 3.3474 9.46094C3.46716 8.85352 3.68364 7.47859 3.82852 6.4056C3.97353 5.33261 4.20797 4.00501 4.34959 3.45536C4.67385 2.19672 4.67333 1.81271 4.34673 1.49692C3.86952 1.03551 2.82477 1.29214 2.28117 2.00415C2.02812 2.33568 1.96277 2.60251 1.91656 3.49425C1.88558 4.09172 1.77845 5.03369 1.67874 5.58749C1.5789 6.14129 1.46005 7.21742 1.41462 7.9789C1.30762 9.76918 0.927522 11.4823 0.506939 12.0691C0.129442 12.5958 0.0901309 13.1701 0.392779 13.736C0.779127 14.4586 0.85007 14.8838 0.964881 17.1669C1.12577 20.3656 1.28718 20.7426 2.31723 20.3264C2.76294 20.1464 3.51689 19.1903 4.1339 18.0228C4.54212 17.2503 4.26889 16.9343 3.72021 17.5445C3.36901 17.935 3.09969 17.9468 2.99685 17.576C2.95377 17.4202 2.91758 16.5336 2.91667 15.6057L2.91485 13.9188L3.45753 13.4343C3.79715 13.1312 4.27188 12.8702 4.7267 12.7365C5.1262 12.6192 5.60666 12.4225 5.7941 12.2994C6.39914 11.9024 6.71962 11.8432 7.57901 11.9691C8.28402 12.0725 8.43814 12.0594 8.64498 11.8784C8.77802 11.762 9.0955 11.6573 9.35038 11.6457C9.72176 11.6288 9.81392 11.6707 9.81392 11.8564C9.81392 11.9838 9.57532 13.4574 9.28386 15.131C8.55764 19.2996 8.30979 22.1148 8.64043 22.4377C8.9052 22.6961 9.50151 22.3105 10.713 21.0973C11.42 20.3893 12.3765 19.357 12.8384 18.8032C13.6835 17.7901 14.6629 16.8523 14.8758 16.8523C15.0654 16.8523 15.1172 17.2571 15.0668 18.3455C15.0223 19.3072 15.0413 19.4009 15.3394 19.6891C15.8949 20.2262 16.7336 20.0242 17.6803 19.125C18.0432 18.7804 18.8936 17.9722 19.5703 17.3292C20.7915 16.1683 20.8006 16.1627 20.8507 16.5335C20.9335 17.146 20.6297 18.3327 19.9964 19.8714C19.4923 21.0959 19.2558 21.4862 18.4694 22.3903C17.3376 23.6917 16.5327 24.7238 15.8682 25.7257C15.5926 26.141 15.3008 26.5375 15.2195 26.6067C14.9493 26.8368 14.2397 28.1436 14.2397 28.4112C14.2397 29.0084 15.134 29.0471 16.1316 28.4929C17.195 27.9022 18.0838 26.7873 20.0178 23.6181C21.3527 21.4304 22.1332 20.5036 23.6962 19.2495C24.3301 18.7407 25.2711 17.8942 25.7872 17.3682L26.7259 16.4118L26.731 16.9044C26.7338 17.1754 26.5903 18.1949 26.4119 19.1699C25.9507 21.6919 25.6945 23.9953 25.6968 25.599C25.699 27.2228 25.837 27.6136 26.4083 27.6136C26.8978 27.6136 27.4138 26.9139 27.7079 25.8515C27.8228 25.4362 28.057 24.7282 28.2285 24.2782C28.6082 23.2811 29.4698 20.4429 29.4698 20.1892C29.4698 19.9415 30.6748 17.0768 30.9493 16.6715C31.256 16.2191 31.4679 16.2659 32.0237 16.9089C32.9149 17.9397 34.2765 18.2359 35.1322 17.5849C35.3154 17.4456 35.5437 17.3608 35.6395 17.3963C35.7352 17.4318 35.9921 17.8297 36.2103 18.2806C36.6753 19.2413 37.0913 19.5134 38.1081 19.5218C39.1881 19.5308 40.2237 19.1372 41.2177 18.3401C41.5579 18.0674 41.836 17.8727 41.836 17.9074C41.836 17.9423 41.7096 18.1777 41.5553 18.4307C41.2214 18.9779 41.1944 19.8646 41.498 20.3125C41.7806 20.7296 42.4589 20.839 43.0244 20.5587C43.911 20.1189 44.6549 19.5742 45.4828 18.7581C46.8882 17.3729 47.4256 16.9374 47.498 17.1249C47.5335 17.2173 47.6136 17.5601 47.6758 17.8869C47.8883 19.0039 48.4711 19.5245 49.5091 19.5245C50.2865 19.5245 50.7392 19.2758 51.7246 18.3069C52.1159 17.9222 52.5032 17.6075 52.5853 17.6075C52.6758 17.6075 52.7682 17.9662 52.8204 18.52C52.9305 19.6913 53.2108 20.7114 53.5103 21.0313C54.0358 21.5928 54.9391 21.7972 55.5451 21.4917C56.0182 21.2532 57.3662 20.0605 57.782 19.5125C58.0768 19.1241 58.2623 18.9971 58.5391 18.995C59.0932 18.9904 59.3688 18.8078 60.6723 17.5807C61.3372 16.9547 61.9334 16.4903 62.0119 16.5372C62.2531 16.6814 62.7849 17.5754 63.0745 18.324C63.4523 19.3002 63.773 19.5801 64.6311 19.6828C65.0165 19.7289 65.4819 19.7111 65.6651 19.6433C66.2717 19.4186 68.1258 17.9742 68.5215 17.418C69.0442 16.6836 72.2659 13.8316 72.573 13.8316C72.7854 13.8316 72.8167 13.9329 72.8158 14.6182C72.8148 15.3584 72.6346 16.7605 72.4747 17.2705C72.4088 17.4802 72.3832 17.483 72.1765 17.302C71.8626 17.0275 71.4359 17.0547 71.1097 17.3701C70.8599 17.6116 70.8398 17.7426 70.8913 18.786C70.9591 20.1612 71.3317 21.3811 71.6843 21.3825C72.0656 21.384 72.6914 21.0171 73.7013 20.2004C74.2235 19.7781 74.985 19.1874 75.3935 18.8879C76.6932 17.9348 77.335 17.2678 77.5562 16.6398C77.6701 16.3166 77.7633 15.9491 77.7633 15.823C77.7633 15.5204 77.311 15.5211 77.0873 15.824C76.9937 15.9506 76.7414 16.1598 76.5267 16.2888C76.3119 16.4178 75.7464 16.8805 75.2701 17.3171C74.4713 18.0495 74.1185 18.2621 74.1185 18.0116C74.1185 17.9569 74.3561 17.1498 74.6463 16.2181C75.1614 14.5645 75.5432 12.5523 75.548 11.4659C75.5512 10.748 75.1219 10.3074 74.4193 10.3074C73.9623 10.3074 73.8207 10.4132 72.4284 11.7961C71.6039 12.6148 70.5469 13.6819 70.0794 14.1672C69.6118 14.6527 68.9784 15.2105 68.6715 15.4069C68.3647 15.6032 68.0305 15.9193 67.9289 16.1093C67.8273 16.2992 67.4924 16.654 67.1847 16.8978C66.1986 17.6792 65.5047 17.7718 65.262 17.1549C65.196 16.987 64.9949 16.1281 64.815 15.2461C64.538 13.8879 64.4357 13.5985 64.1462 13.3529C63.5111 12.8142 63.1464 12.9786 61.6868 14.4609C60.9711 15.1877 60.2305 15.9807 60.0411 16.223C59.5755 16.8187 59.4206 16.6077 59.7876 15.8775C60.1588 15.1386 60.296 14.0669 60.0427 13.8848C59.9448 13.8144 59.4979 13.7788 59.0495 13.8055C58.3539 13.8469 58.1775 13.9091 57.8463 14.2293C57.2577 14.7983 56.5903 15.9839 56.4031 16.7927C56.2364 17.5127 56.2374 17.5178 56.5942 17.8146C56.8482 18.0258 56.9291 18.1852 56.8716 18.3604C56.6457 19.0482 55.402 19.3873 55.1009 18.8432C54.8196 18.3351 54.6021 17.1741 54.5983 16.16C54.5944 15.1555 54.5961 15.1505 55.3181 14.0203C56.1672 12.6912 56.9359 11.2667 56.9359 11.0223C56.9359 10.9274 57.0417 10.7572 57.171 10.6441C57.6295 10.2429 58.8899 7.46135 59.548 5.39869C60.8086 1.44708 60.3975 0.200778 58.1725 1.22858ZM103.456 3.094C103.304 3.12295 103.059 3.27097 102.913 3.42301C102.437 3.91879 100.587 7.69067 100.071 9.21979C99.5695 10.7051 99.5641 10.7137 98.9812 11.0026C98.2205 11.3796 97.4007 12.0687 95.5081 13.9219C94.6596 14.7527 93.7205 15.5535 93.4211 15.7011C93.1217 15.8488 92.6833 16.2038 92.4469 16.4902C91.4236 17.7292 90.2449 18.2155 89.8151 17.576C89.7104 17.4202 89.5016 16.6981 89.351 15.9712C89.2005 15.2444 89.0459 14.5486 89.0075 14.4251C88.886 14.0346 88.4082 13.7057 87.9621 13.7057C87.5927 13.7057 87.3405 13.8946 86.0667 15.1264C84.54 16.6024 83.621 17.6545 83.621 17.926C83.621 18.1196 83.9134 18.2368 84.3963 18.2368C84.6533 18.2368 84.9973 18.0317 85.5708 17.537C86.3293 16.8826 86.397 16.8504 86.6147 17.0408C86.7426 17.1528 87.1261 17.7839 87.4668 18.4432C88.1607 19.7862 88.2822 19.873 89.467 19.873C90.1207 19.873 90.3201 19.8093 90.988 19.3872C91.4108 19.12 91.9896 18.7195 92.2743 18.4972C92.5589 18.2749 92.8127 18.1533 92.838 18.2268C92.8634 18.3005 92.761 18.7046 92.6106 19.125C92.3833 19.76 92.3602 19.9728 92.4743 20.3825C92.6368 20.9659 92.9039 21.1316 93.6812 21.1316C94.1072 21.1316 94.3892 21.0384 94.7706 20.7713C95.474 20.2784 97.4076 18.228 97.8259 17.5311C98.2308 16.8567 98.8475 16.206 98.9972 16.2955C99.0557 16.3303 99.2281 16.7673 99.3806 17.2664C99.8578 18.829 100.549 19.3947 101.982 19.3947C102.818 19.3947 102.994 19.3069 103.709 18.5343L104.192 18.0137L103.93 17.4236L103.668 16.8334L103.325 17.0946C102.885 17.4287 102.31 17.4282 101.964 17.0932C101.5 16.6444 101.067 15.5863 101.066 14.9014C101.066 14.5553 101.268 13.5701 101.514 12.7121C101.761 11.8541 101.954 11.1178 101.943 11.0759C101.932 11.034 102.174 10.4978 102.48 9.8846C102.787 9.27126 103.07 8.57612 103.11 8.33962C103.149 8.10325 103.232 7.87959 103.294 7.84259C103.356 7.80558 103.407 7.67179 103.407 7.5453C103.407 7.41893 103.494 7.15323 103.602 6.95487C103.708 6.75664 103.796 6.47407 103.797 6.32706C103.797 6.17993 103.885 5.81883 103.993 5.52456C104.334 4.58989 104.208 2.92761 103.804 3.0244C103.765 3.03384 103.608 3.06518 103.456 3.094ZM58.1074 5.02739C58.1074 5.10002 58.0163 5.32985 57.9049 5.53828C57.7935 5.74658 57.5264 6.48955 57.3113 7.18948C56.6757 9.25817 54.9961 12.6511 55.3161 11.2199C55.5199 10.3081 56.2789 8.36265 56.8506 7.28665C57.2 6.62901 57.5694 5.82197 57.6715 5.49309C57.8362 4.9627 58.1074 4.67296 58.1074 5.02739ZM64.126 6.24827C63.0663 7.23139 62.9238 7.45883 62.9238 8.16769C62.9238 8.98669 63.0899 9.1746 63.8139 9.1746C64.2989 9.1746 64.5508 9.09191 64.9663 8.79651C65.5825 8.35838 65.8275 7.91584 66.1311 6.69282C66.4121 5.56055 66.3474 5.39869 65.614 5.39869C65.085 5.39869 64.9731 5.46263 64.126 6.24827ZM89.6089 6.49786C89.2547 6.62926 87.7723 7.95498 87.5822 8.31029C87.3813 8.68612 87.336 9.5177 87.5027 9.77145C87.5591 9.85754 87.8658 9.96075 88.184 10.001C88.6811 10.0638 88.8512 10.0193 89.3895 9.68485C90.0797 9.25628 90.3786 8.74377 90.6573 7.51131C90.7882 6.93146 90.7877 6.7545 90.654 6.5988C90.4896 6.40724 89.9847 6.35853 89.6089 6.49786ZM38.9723 12.252C38.9723 12.4134 38.738 12.8196 38.4516 13.1548C38.1652 13.4898 37.9309 13.8075 37.9309 13.8608C37.9309 13.9139 37.843 13.9574 37.7356 13.9574C37.6283 13.9574 37.5404 13.8702 37.5404 13.7636C37.5404 13.2804 38.6153 11.7452 38.8539 11.8877C38.919 11.9266 38.9723 12.0905 38.9723 12.252ZM99.1114 13.075C99.1114 13.8078 97.7064 15.9213 96.2471 17.3838C95.3058 18.327 94.9459 18.5512 94.9459 18.194C94.9459 17.9513 96.1306 16.0802 96.7308 15.3749C97.0113 15.0453 97.3762 14.5869 97.5416 14.3562C97.8694 13.8994 98.8568 12.9587 99.0137 12.9537C99.0675 12.9519 99.1114 13.0065 99.1114 13.075ZM79.8762 17.8385C79.6687 17.9658 79.4555 18.669 79.4555 19.2257C79.4555 20.1134 80.4641 21.1527 81.128 20.9489C81.5198 20.8287 81.9409 19.967 81.8464 19.4787C81.6151 18.2833 80.5697 17.413 79.8762 17.8385ZM31.9525 24.2323C31.4273 24.8777 31.7051 25.8163 32.4692 25.9785C32.9496 26.0806 33.5051 25.7746 33.5051 25.4081C33.5051 25.0911 33.3622 25.0919 33.0797 25.411C32.5258 26.0364 31.7868 25.2825 32.2079 24.5216C32.3684 24.2317 32.9591 24.1942 33.0674 24.467C33.1606 24.7016 33.5051 24.717 33.5051 24.4865C33.5051 24.2026 33.0518 23.9006 32.6256 23.9006C32.3449 23.9006 32.1402 24.0015 31.9525 24.2323ZM40.576 24.1209C40.5317 24.242 40.359 24.6739 40.192 25.0807C40.025 25.4875 39.92 25.8698 39.9587 25.9303C40.0782 26.1172 40.2525 26.0523 40.3391 25.7886C40.4004 25.6019 40.536 25.5369 40.8639 25.5369C41.1729 25.5369 41.3482 25.6126 41.4455 25.7886C41.6209 26.1054 41.836 26.1146 41.836 25.8053C41.836 25.5516 41.348 24.3151 41.1465 24.058C40.9688 23.8314 40.6696 23.8644 40.576 24.1209ZM45.8315 23.9811C45.7275 24.0816 45.8451 24.2782 46.0092 24.2782C46.0766 24.2782 46.1317 24.1933 46.1317 24.0894C46.1317 23.8948 45.9781 23.8393 45.8315 23.9811ZM46.7825 24.9705C46.7825 25.7868 46.8234 26.0483 46.9453 26.0095C47.0348 25.981 47.1267 25.8347 47.1496 25.6844C47.2047 25.322 47.3549 25.3394 47.6258 25.7391C47.9521 26.2207 48.1881 25.9346 47.8803 25.4306C47.6904 25.1198 47.6779 25.0148 47.8121 24.8583C48.0995 24.5237 47.829 24.3555 47.4935 24.6604L47.1905 24.9356L47.1492 24.4593C47.1266 24.1973 47.0348 23.9598 46.9453 23.9313C46.8235 23.8927 46.7825 24.1541 46.7825 24.9705ZM49.5161 24.9138V25.927L50.2511 25.8893C51.0811 25.8466 51.3905 25.5959 51.1234 25.1824C51.0419 25.0562 51.0069 24.7923 51.0458 24.5959C51.1379 24.1295 50.8192 23.9006 50.077 23.9006H49.5161V24.9138ZM55.0107 24.9224L55.0484 25.9443L55.5423 25.9867C55.9006 26.0177 56.1061 25.9617 56.2908 25.7831C56.8758 25.2174 56.3197 24.1753 55.6248 24.5349C55.4026 24.6498 55.3738 24.6208 55.3738 24.2826C55.3738 24.0225 55.3098 23.9006 55.1734 23.9006C55.0061 23.9006 54.979 24.0703 55.0107 24.9224ZM60.841 24.0894C60.841 24.2049 60.904 24.2789 60.981 24.2541C61.0579 24.2293 61.1209 24.1551 61.1209 24.0894C61.1209 24.0237 61.0579 23.9496 60.981 23.9248C60.904 23.9 60.841 23.974 60.841 24.0894ZM62.6908 24.939C62.7393 26.2729 62.9762 26.2513 63.0266 24.9084C63.0585 24.0582 63.0323 23.9006 62.8587 23.9006C62.6847 23.9006 62.6587 24.0609 62.6908 24.939ZM69.389 23.9846C69.2392 24.1293 69.2941 24.2782 69.4974 24.2782C69.6048 24.2782 69.6927 24.1933 69.6927 24.0894C69.6927 23.8928 69.5387 23.8397 69.389 23.9846ZM75.29 24.0894C75.29 24.2049 75.3531 24.2789 75.43 24.2541C75.5069 24.2293 75.5699 24.1551 75.5699 24.0894C75.5699 24.0237 75.5069 23.9496 75.43 23.9248C75.3531 23.9 75.29 23.974 75.29 24.0894ZM50.6226 24.53C50.6226 24.6424 50.4777 24.7349 50.2646 24.7585C49.9732 24.791 49.9067 24.7486 49.9067 24.53C49.9067 24.3113 49.9732 24.2689 50.2646 24.3014C50.4777 24.3251 50.6226 24.4176 50.6226 24.53ZM34.3186 24.5312C34.1575 24.5953 34.0258 24.7345 34.0258 24.8406C34.0258 25.0576 34.2286 25.0994 34.3512 24.9075C34.4569 24.742 34.937 24.7447 34.937 24.9107C34.937 24.9817 34.7591 25.0741 34.5418 25.1161C34.0349 25.2142 33.8185 25.5702 34.1004 25.8428C34.3388 26.0733 34.4736 26.0869 34.8074 25.9141C34.9713 25.8292 35.0782 25.83 35.1333 25.9162C35.3193 26.2071 35.4396 25.8651 35.3677 25.2501C35.3255 24.8887 35.2844 24.5833 35.2765 24.5716C35.2043 24.4666 34.5502 24.4391 34.3186 24.5312ZM35.9783 25.2474C35.9783 26.2029 36.262 26.3147 36.3688 25.4012C36.4225 24.943 36.4857 24.8374 36.7268 24.8043C36.888 24.7823 37.0197 24.7115 37.0197 24.647C37.0197 24.5191 37.0157 24.5179 36.4014 24.4679L35.9783 24.4335V25.2474ZM37.5729 24.5339C37.4118 24.5965 37.28 24.7345 37.28 24.8406C37.28 25.0576 37.4829 25.0994 37.6055 24.9075C37.7065 24.7495 38.1912 24.7412 38.1912 24.8976C38.1912 24.9613 38.0195 25.0499 37.8097 25.0945C37.3489 25.1922 37.1172 25.434 37.2247 25.7049C37.3328 25.977 37.7358 26.0829 38.0483 25.9211C38.2221 25.8311 38.3322 25.8295 38.3875 25.9162C38.5691 26.2003 38.7009 25.8688 38.6278 25.3111C38.5217 24.5009 38.2234 24.281 37.5729 24.5339ZM42.5098 24.5385C42.1078 24.6927 42.1879 25.0353 42.6831 25.2809C42.8973 25.3871 43.098 25.489 43.129 25.5075C43.1601 25.5259 43.1176 25.6067 43.0345 25.687C42.92 25.7978 42.8253 25.782 42.6424 25.622C42.3434 25.3604 42.2266 25.3549 42.2266 25.6024C42.2266 25.9073 42.8139 26.1088 43.2028 25.9374C43.6972 25.7195 43.6272 25.3123 43.0555 25.0814C42.7362 24.9522 42.6257 24.8489 42.7148 24.7627C42.8039 24.6766 42.9342 24.688 43.1165 24.798C43.3957 24.9667 43.6691 24.8615 43.4545 24.6679C43.242 24.4761 42.8222 24.4186 42.5098 24.5385ZM43.9746 24.5709C43.9382 24.6625 44.026 25.0026 44.1696 25.3267C44.4399 25.9364 44.4143 26.292 44.1001 26.292C44.0004 26.292 43.9188 26.3525 43.9188 26.4262C43.9188 26.5001 44.0799 26.5425 44.2767 26.5206C44.5889 26.4859 44.6829 26.3633 45.0113 25.5612C45.2836 24.8965 45.3486 24.6035 45.2459 24.5042C45.143 24.4047 45.0411 24.5177 44.878 24.912L44.6524 25.4573L44.4211 24.9307C44.1769 24.3748 44.0825 24.2987 43.9746 24.5709ZM45.7975 24.5695C45.6715 24.887 45.7987 25.9554 45.969 26.0095C46.087 26.0471 46.1317 25.8534 46.1317 25.303C46.1317 24.5799 45.9509 24.1831 45.7975 24.5695ZM52.1196 24.4914C51.5762 24.6792 51.4358 25.3792 51.8592 25.7886C52.1656 26.0849 52.493 26.1093 52.8429 25.8618C53.1687 25.6315 53.0094 25.4717 52.6431 25.6612C52.4309 25.7711 52.3185 25.7701 52.1777 25.6572C51.9056 25.4388 52.0728 25.2851 52.5828 25.2851C52.975 25.2851 53.0308 25.2456 53.0308 24.9673C53.0308 24.742 52.9337 24.6139 52.6969 24.5268C52.5132 24.4593 52.3522 24.4086 52.3389 24.414C52.3256 24.4195 52.227 24.4543 52.1196 24.4914ZM53.5922 24.6089C53.5612 24.6869 53.5541 25.0267 53.5762 25.3641C53.6169 25.9836 53.846 26.1685 53.9133 25.6363C54.0012 24.9417 54.0822 24.7817 54.3457 24.7817C54.5029 24.7817 54.592 24.7164 54.5603 24.6244C54.4927 24.4285 53.669 24.4153 53.5922 24.6089ZM57.2288 24.5312C57.0678 24.5953 56.9359 24.7028 56.9359 24.7702C56.9359 24.9555 57.1671 25.0549 57.26 24.9096C57.3643 24.7464 57.8471 24.7418 57.8471 24.9039C57.8471 24.9712 57.6568 25.0736 57.424 25.1315C57.1004 25.212 56.9916 25.3138 56.9609 25.5648C56.9136 25.951 57.294 26.1333 57.7042 25.9211C57.8748 25.8328 57.9886 25.8304 58.0421 25.9141C58.0865 25.9836 58.1779 26.0403 58.2453 26.0403C58.3897 26.0403 58.4079 24.9116 58.2669 24.6972C58.127 24.4848 57.5697 24.3955 57.2288 24.5312ZM59.0477 24.6001C58.8475 24.7356 58.7583 24.9247 58.7583 25.2139C58.7583 25.7278 59.0245 25.9606 59.5299 25.8889C59.8674 25.8411 59.8983 25.8621 59.7869 26.0632C59.6385 26.3314 59.4987 26.3482 59.153 26.1395C58.8404 25.9507 58.6627 26.0921 58.8859 26.352C59.0648 26.5605 59.7557 26.6067 60.0453 26.4294C60.2528 26.3024 60.3936 25.2069 60.2658 24.7145C60.2018 24.4677 60.1377 24.4153 60.0177 24.5117C59.9159 24.5934 59.7853 24.5982 59.6651 24.5247C59.411 24.3692 59.3834 24.3726 59.0477 24.6001ZM60.9299 24.4859C60.8811 24.5332 60.841 24.907 60.841 25.3166C60.841 26.2863 61.1482 26.2628 61.2064 25.2888C61.2444 24.6524 61.1229 24.2994 60.9299 24.4859ZM63.7455 24.6089C63.6426 24.8683 63.7678 25.9774 63.9001 25.9774C63.9717 25.9774 64.0595 25.723 64.0953 25.4121C64.1422 25.005 64.2241 24.8352 64.3882 24.8051C64.5699 24.7717 64.616 24.8522 64.616 25.2027C64.616 25.7109 64.7239 26.0403 64.8903 26.0403C64.9542 26.0403 65.0065 25.7005 65.0065 25.2851C65.0065 24.7048 64.9613 24.5263 64.8113 24.5142C64.1055 24.4573 63.7947 24.4849 63.7455 24.6089ZM65.8105 24.5385C65.4085 24.6927 65.4885 25.0353 65.9837 25.2809C66.198 25.3871 66.3987 25.489 66.4297 25.5075C66.4608 25.5259 66.4182 25.6067 66.3352 25.687C66.2206 25.7978 66.126 25.782 65.9431 25.622C65.6441 25.3604 65.5272 25.3549 65.5272 25.6024C65.5272 25.9073 66.1145 26.1088 66.5035 25.9374C66.9933 25.7216 66.9281 25.3125 66.3681 25.0861C66.1147 24.9837 65.941 24.8471 65.9821 24.7826C66.0273 24.7121 66.1852 24.7218 66.3785 24.8069C66.7121 24.9539 66.9677 24.8596 66.7551 24.6679C66.5427 24.4761 66.1229 24.4186 65.8105 24.5385ZM67.4079 24.5155C67.3759 24.5466 67.3496 25.0203 67.3496 25.5683C67.3496 26.3092 67.3914 26.5515 67.5123 26.5129C67.6019 26.4845 67.6938 26.338 67.7167 26.1876C67.7488 25.9761 67.8226 25.9297 68.0421 25.9828C68.4864 26.0904 68.8335 25.7633 68.8335 25.2369C68.8335 24.9866 68.7722 24.7224 68.6974 24.65C68.561 24.5181 67.5178 24.4094 67.4079 24.5155ZM69.3637 24.5564C69.2439 24.8586 69.3516 25.9809 69.4974 25.9476C69.6746 25.907 69.7407 24.6519 69.5742 24.4909C69.4832 24.403 69.4163 24.4237 69.3637 24.5564ZM70.2541 24.6089C70.2231 24.6869 70.216 25.0223 70.2381 25.3542C70.2839 26.0401 70.6039 26.3118 70.6039 25.665C70.6039 25.1238 70.8174 24.7817 71.1552 24.7817C71.3806 24.7817 71.4044 24.7502 71.2743 24.6244C71.0716 24.4284 70.3301 24.4172 70.2541 24.6089ZM71.873 24.54C71.7478 24.6106 71.6452 24.7505 71.6452 24.8509C71.6452 25.0595 71.8507 25.0953 71.9707 24.9075C72.0687 24.7541 72.5564 24.739 72.5564 24.8893C72.5564 24.9486 72.3721 25.0481 72.1469 25.1106C71.5822 25.2671 71.385 25.591 71.6805 25.8766C71.8695 26.0595 71.9703 26.0719 72.296 25.953C72.5296 25.8678 72.7154 25.8576 72.7602 25.9277C72.9286 26.1912 73.0416 25.8807 72.9817 25.3186C72.895 24.505 72.4678 24.2051 71.873 24.54ZM73.6954 24.54C73.3039 24.7605 73.4207 25.1369 73.9463 25.3493C74.3078 25.4953 74.3882 25.5781 74.2748 25.6878C74.1613 25.7975 74.0657 25.7814 73.8835 25.622C73.5845 25.3604 73.4676 25.3549 73.4676 25.6024C73.4676 25.9109 74.0555 26.1084 74.4528 25.9335C74.9163 25.7292 74.8394 25.2699 74.3138 25.1039C73.8139 24.9461 73.8168 24.9483 73.9162 24.7926C73.9737 24.7028 74.0792 24.7086 74.2488 24.811C74.5852 25.0142 74.7688 24.8071 74.4513 24.5826C74.1556 24.3735 74.006 24.3651 73.6954 24.54ZM75.29 25.2222C75.29 25.8376 75.3334 26.0474 75.4528 26.0089C75.5582 25.9749 75.6155 25.6977 75.6155 25.2222C75.6155 24.7467 75.5582 24.4695 75.4528 24.4356C75.3334 24.397 75.29 24.6069 75.29 25.2222ZM41.1852 25.0575C41.1852 25.1135 41.068 25.1593 40.9248 25.1593C40.6489 25.1593 40.6113 25.0624 40.7505 24.7113C40.8309 24.5091 40.8482 24.5099 41.0109 24.7252C41.1067 24.8519 41.1852 25.0014 41.1852 25.0575ZM52.6402 24.9705C52.6402 25.1705 52.1831 25.2345 52.0657 25.0509C51.9696 24.9006 52.1179 24.7817 52.4016 24.7817C52.5329 24.7817 52.6402 24.8666 52.6402 24.9705ZM56.0839 25.0157C56.1938 25.3503 56.0365 25.6627 55.7581 25.6627C55.4434 25.6627 55.3311 25.4669 55.4292 25.0892C55.5248 24.7205 55.9707 24.6704 56.0839 25.0157ZM59.8486 25.0625C60.0256 25.3344 59.6686 25.7376 59.3542 25.6209C59.1478 25.5444 59.0698 25.0259 59.2401 24.8612C59.3842 24.7219 59.6934 24.8242 59.8486 25.0625ZM68.3813 25.016C68.5509 25.3225 68.2595 25.7375 67.9542 25.6242C67.7436 25.5461 67.6571 25.0299 67.8269 24.8656C67.9885 24.7093 68.251 24.7806 68.3813 25.016ZM50.6585 25.1814C50.8708 25.3867 50.6171 25.6627 50.2162 25.6627C49.9728 25.6627 49.9067 25.5955 49.9067 25.3481C49.9067 25.1036 49.9734 25.0334 50.206 25.0334C50.3707 25.0334 50.5743 25.1 50.6585 25.1814ZM34.9879 25.4642C34.897 25.6933 34.5781 25.814 34.4778 25.6572C34.3615 25.4751 34.5312 25.2851 34.8104 25.2851C34.9719 25.2851 35.0341 25.3479 34.9879 25.4642ZM38.1912 25.4605C38.1912 25.6739 37.8393 25.8247 37.7321 25.6572C37.6898 25.591 37.6914 25.4802 37.7356 25.411C37.8559 25.2228 38.1912 25.2592 38.1912 25.4605ZM57.9773 25.4066C57.9773 25.5972 57.4869 25.812 57.3918 25.6631C57.3474 25.5936 57.3472 25.4802 57.3915 25.411C57.4946 25.2498 57.9773 25.2461 57.9773 25.4066ZM72.5564 25.3956C72.5564 25.4563 72.4661 25.5785 72.3557 25.6671C72.1996 25.7924 72.1201 25.7946 71.9988 25.6773C71.8775 25.56 71.8859 25.5 72.0368 25.4077C72.2823 25.2576 72.5564 25.2513 72.5564 25.3956Z" fill="white"/>
</svg>
