<svg width="184" height="52" viewBox="0 0 184 52" fill="none" xmlns="http://www.w3.org/2000/svg">
<g clip-path="url(#clip0_635_252)">
<path d="M42.1557 11.9005C41.3386 10.6898 40.1707 10.0075 38.8123 9.61764C38.5617 9.54582 38.301 9.49452 38.0404 9.43296C38.0554 9.40218 38.0604 9.38166 38.0755 9.37653C38.1657 9.33549 38.2609 9.29445 38.3511 9.24828C39.8649 8.5147 40.8023 7.33481 41.0178 5.61114C41.1883 4.22093 40.8775 2.97948 39.8299 2.02531C38.6519 0.948015 37.2233 0.40937 35.6644 0.38885C32.6519 0.34781 29.6343 0.37346 26.6217 0.37859C26.5516 0.37859 26.4764 0.34268 26.4012 0.42476C26.8323 0.670997 27.2433 0.922365 27.5992 1.26094C27.8548 1.50718 27.9902 1.78933 27.9852 2.16381C27.9751 7.93501 27.9751 13.7011 27.9852 19.4723C27.9852 19.8211 27.8799 20.1084 27.6694 20.3649C27.4839 20.5957 27.2734 20.8061 27.0428 20.9907C26.8273 21.1652 26.6167 21.3498 26.4012 21.5191C26.4062 21.5345 26.4162 21.5294 26.4212 21.5807H26.5666C29.6343 21.5807 32.697 21.5704 35.7647 21.5704C35.8549 21.5704 35.9501 21.5602 36.0404 21.5448C37.5391 21.3088 38.9627 20.8266 40.2509 20.0058C41.8048 19.0106 42.8825 17.6665 43.058 15.7274C43.1682 14.3628 42.9377 13.0598 42.1557 11.9005ZM31.6594 2.45622C32.7471 2.47674 33.8348 2.50239 34.9175 2.45109C36.0955 2.39979 37.3236 3.33344 37.6995 4.49281C38.3812 6.59096 37.3236 8.25307 35.6694 8.97126C35.504 9.04308 35.3336 9.06873 35.1581 9.06873C33.9702 9.0636 32.7872 9.0636 31.5992 9.07386C31.3887 9.07386 31.3536 8.99691 31.3586 8.8071C31.3686 7.79137 31.3636 6.77051 31.3636 5.75478C31.3636 4.7647 31.3737 3.76949 31.3586 2.77941C31.3436 2.5383 31.3937 2.45109 31.6594 2.45622ZM39.0329 17.3536C38.2609 18.2667 37.2734 18.8259 36.1406 19.1337C36.0103 19.1696 35.8749 19.1747 35.7446 19.1747C34.3662 19.1747 32.9877 19.1696 31.6092 19.1799C31.3937 19.1799 31.3536 19.108 31.3536 18.9029C31.3636 17.5947 31.3586 16.2866 31.3586 14.9784C31.3586 13.6806 31.3636 12.3776 31.3536 11.0797C31.3536 10.8693 31.4087 10.8078 31.6193 10.8078C32.9626 10.818 34.316 10.736 35.6544 10.8334C37.2684 10.9463 38.6168 11.6696 39.479 13.1214C40.2409 14.4244 40.0354 16.1686 39.0329 17.3536Z" fill="#005E6A"/>
<path d="M45.2836 0.424588C45.3738 0.357898 45.449 0.383548 45.5192 0.383548C47.0079 0.383548 48.4916 0.383548 49.9803 0.378418C50.1508 0.378418 50.251 0.434847 50.3463 0.578486C52.1207 3.31275 53.9102 6.03163 55.7949 8.68894C56.7423 10.0227 57.7599 11.3052 58.7323 12.6185C59.5042 13.6599 60.2712 14.7064 61.0431 15.7478C61.1333 15.8658 61.2235 15.9889 61.3639 16.0915C61.3639 16.0094 61.3639 15.9324 61.3639 15.8504C61.3639 11.2744 61.3639 6.70365 61.3689 2.12773C61.3689 1.84558 61.2837 1.61474 61.1032 1.40954C60.8125 1.08635 60.4666 0.834984 60.1107 0.593876C60.0305 0.537447 59.9503 0.486147 59.83 0.398938C61.7298 0.398938 63.5794 0.398938 65.4993 0.398938C65.3539 0.475887 65.2587 0.527187 65.1634 0.573356C64.7825 0.768294 64.4115 0.978623 64.0807 1.26077C63.81 1.49162 63.6647 1.75838 63.6647 2.14312C63.6747 8.87362 63.6697 15.599 63.6697 22.3295C63.6697 22.3808 63.6647 22.4321 63.6697 22.4834C63.6847 22.6527 63.6246 22.6475 63.5043 22.5706C62.9178 22.2012 62.3865 21.7652 61.8601 21.3138C60.3965 20.0569 59.2285 18.5282 58.0506 17.0046C55.1082 13.2084 52.241 9.35071 49.3738 5.49811C49.3438 5.45707 49.3087 5.42116 49.2786 5.38012C49.1934 5.42629 49.2285 5.50324 49.2285 5.5648C49.2285 10.2485 49.2285 14.9372 49.2234 19.6209C49.2234 19.903 49.3337 20.1339 49.4941 20.3493C49.8049 20.77 50.1959 21.0983 50.5969 21.4215C50.642 21.4574 50.7072 21.4728 50.7122 21.56C48.9127 21.56 47.1132 21.56 45.3136 21.56C45.2836 21.483 45.3537 21.4625 45.3938 21.4317C45.7598 21.1291 46.1106 20.8162 46.4064 20.4468C46.637 20.1595 46.7472 19.8415 46.7472 19.4567C46.7422 13.7368 46.7372 8.01692 46.7523 2.29702C46.7523 1.7789 46.5718 1.41467 46.2059 1.10174C45.9152 0.850374 45.6144 0.634916 45.2836 0.424588Z" fill="#005E6A"/>
<path d="M75.1184 21.5551C73.0382 21.5551 70.963 21.5551 68.8677 21.5551C68.9429 21.4063 69.0883 21.3448 69.1985 21.2576C69.4592 21.0421 69.7098 20.8164 69.9404 20.5702C70.2512 20.2367 70.4116 19.8622 70.4116 19.3749C70.3965 13.6396 70.4016 7.89916 70.4066 2.16387C70.4066 1.79965 70.2863 1.52263 70.0407 1.27639C69.6948 0.932685 69.2938 0.676187 68.8427 0.39917C70.958 0.39917 73.0281 0.39917 75.1334 0.39917C74.8126 0.614628 74.4818 0.768527 74.1961 0.999375C74.0607 1.11223 73.9204 1.22509 73.7951 1.34821C73.5795 1.55854 73.4843 1.80991 73.4843 2.12796C73.4893 7.87351 73.4943 13.6191 73.4793 19.3646C73.4793 19.8622 73.6397 20.2367 73.9705 20.5702C74.2813 20.8831 74.6272 21.155 74.978 21.4115C75.0332 21.4422 75.1084 21.4576 75.1184 21.5551Z" fill="#005E6A"/>
<path d="M3.46871 0.173353C4.53138 0.173353 5.58903 0.178483 6.65169 0.168223C6.86723 0.168223 6.90733 0.199002 6.81711 0.41959C6.42111 1.38915 6.30081 2.41001 6.35595 3.45652C6.47124 5.63675 7.30333 7.56049 8.40108 9.38162C9.05271 10.4589 9.75949 11.49 10.5465 12.4699C10.6668 12.6186 10.6517 12.6956 10.5064 12.8136C9.89482 13.3009 9.2883 13.7985 8.6868 14.3012C8.52639 14.4346 8.45121 14.4244 8.32088 14.2551C5.72938 10.9257 3.14289 7.5964 0.531346 4.28245C0.165429 3.82075 -0.0400868 3.36931 1.37929e-05 2.76398C0.0501395 1.99962 0.0200641 1.22499 0.00502636 0.4555C1.37929e-05 0.234912 0.055152 0.163093 0.280718 0.168223C1.34839 0.178483 2.41106 0.173353 3.46871 0.173353Z" fill="#F05A23"/>
<path d="M21.0478 10.8283C21.0478 12.0748 21.0427 13.3214 21.0528 14.5731C21.0528 14.8091 20.9676 14.9271 20.7721 15.0194C19.8247 15.4811 18.8623 15.5068 17.955 14.9938C16.2908 14.0499 14.9274 12.7366 13.9951 11.0335C13.4086 9.96131 13.2081 8.76603 13.5891 7.5451C14.2156 5.55981 16.1505 4.5133 18.1054 5.10837C19.153 5.42643 20.0603 6.01638 20.9174 6.69866C21.0778 6.82691 21.0377 6.99107 21.0377 7.13983C21.0478 8.37102 21.0478 9.60221 21.0478 10.8283Z" fill="#F05A23"/>
<path d="M12.1204 8.86862C11.8647 8.59161 11.6642 8.27868 11.4637 7.97088C10.6768 6.78586 9.99005 5.54441 9.59907 4.15933C9.27325 3.00509 9.11285 1.83546 9.44368 0.650438C9.45872 0.594008 9.48378 0.537579 9.49882 0.481149C9.56398 0.250301 9.68929 0.152832 9.94995 0.152832C13.549 0.168222 17.148 0.168222 20.747 0.168222C20.9676 0.168222 21.0528 0.214391 21.0528 0.460629C21.0377 1.27116 21.0377 2.08682 21.0478 2.89736C21.0528 3.13334 20.9776 3.13334 20.7921 3.06152C19.3585 2.48183 17.8949 2.36384 16.4362 2.89736C14.6317 3.55399 13.3084 4.75953 12.6467 6.64222C12.4211 7.27834 12.2808 7.93497 12.1956 8.607C12.1856 8.6942 12.1956 8.78141 12.1204 8.86862Z" fill="#F05A23"/>
<path d="M13.945 21.5087C14.4061 21.0983 14.8673 20.6828 15.3335 20.2724C15.3234 20.257 15.3134 20.2314 15.3084 20.2314C14.3961 20.334 13.6342 19.9236 12.8973 19.4567C11.96 18.8617 11.2582 18.0101 10.5464 17.1739C10.2106 16.7789 9.90484 16.3634 9.57902 15.9632C9.48378 15.8453 9.47877 15.7734 9.59907 15.6708C10.2607 15.1219 10.9174 14.5679 11.569 14.0036C11.7144 13.8753 11.7645 13.9779 11.8447 14.0703C12.6116 15.0142 13.4688 15.8606 14.4613 16.5532C15.7946 17.4766 17.2432 17.9075 18.8523 17.5638C19.6393 17.3945 20.3109 16.9944 20.8673 16.3942C20.9024 16.3531 20.9225 16.2813 21.0277 16.2967C21.0327 16.4044 21.0428 16.5224 21.0428 16.6353C21.0428 18.1589 21.0428 19.6773 21.0428 21.2009C21.0428 21.5651 21.0378 21.5652 20.6869 21.5652C18.5415 21.5652 16.3961 21.5652 14.2457 21.5652C14.1555 21.5652 14.0653 21.5652 13.97 21.5652C13.97 21.5498 13.955 21.5292 13.945 21.5087Z" fill="#F05A23"/>
<path d="M0.0350952 21.4883C0.0350952 17.0253 0.0350952 12.5622 0.0350952 8.08887C0.145372 8.09913 0.18046 8.19147 0.235598 8.25816C2.2306 10.8334 4.2256 13.4138 6.22061 15.989C6.31584 16.1121 6.36597 16.1891 6.21559 16.3173C4.21558 18.0051 2.21556 19.7031 0.215548 21.396C0.170435 21.437 0.130334 21.5037 0.0350952 21.4883Z" fill="#F05A23"/>
<path d="M2.62653 21.5242C3.29821 20.9497 3.94984 20.3905 4.60148 19.8313C5.43858 19.1131 6.27568 18.395 7.11278 17.6716C7.26315 17.5382 7.36341 17.4767 7.52882 17.6819C8.49625 18.9028 9.47871 20.1084 10.4562 21.3242C10.5063 21.3857 10.6116 21.4473 10.5765 21.5294C10.5414 21.6166 10.4261 21.5704 10.3509 21.5704C7.86466 21.5704 5.37341 21.5704 2.88718 21.5704C2.80698 21.5704 2.73179 21.5909 2.62653 21.5242Z" fill="#F05A23"/>
</g>
<path d="M105.581 0.152832V22.5716H106.787L106.784 22.5925H127.679V22.5716H130.29V0.152832H125.198L117.998 12.9257L110.689 0.152832H105.581Z" fill="#D76E0D"/>
<path d="M130.29 17.1584C123.804 18.9403 113.266 19.9123 105.581 14.491V22.5716H106.787L106.784 22.5924H127.679V22.5716H130.29V17.1584Z" fill="#074952"/>
<path d="M135.575 22.5924V0.173584H155.128L146.833 10.4702L156.201 22.5924H149.363H140.892H135.575Z" fill="#1694A4"/>
<path d="M135.575 15.2926V22.5924H156.201L147.857 11.7957C143.231 12.7209 138.872 14.0648 135.575 15.2926Z" fill="#074952"/>
<path d="M159.064 0.152832V22.5716H160.27L160.266 22.5925H181.162V22.5716H183.772V0.152832H178.68L171.48 12.9257L164.172 0.152832H159.064Z" fill="#D76E0D"/>
<path d="M183.772 16.2952C179.048 15.8762 173.445 14.7744 168.125 12.3859C165.507 11.2108 162.384 10.6957 159.064 10.6323V22.5718H160.27L160.266 22.5926H181.162V22.5718H183.772V16.2952Z" fill="#074952"/>
<path d="M87.4931 21.3685C88.895 22.1845 90.6263 22.5925 92.6872 22.5925C94.7377 22.5925 96.4586 22.1845 97.8499 21.3685C99.2517 20.5421 100.308 19.4175 101.02 17.9947C101.731 16.5615 102.087 14.9243 102.087 13.0831V0.152832H83.272V13.0831C83.272 14.9348 83.6277 16.5772 84.339 18.0104C85.0504 19.4332 86.1018 20.5525 87.4931 21.3685Z" fill="#1694A4"/>
<path d="M92.6873 22.5926C90.6264 22.5926 88.895 22.1846 87.4932 21.3686C86.1018 20.5527 85.0505 19.4333 84.3391 18.0105C83.6277 16.5773 83.272 14.9349 83.272 13.0832V9.787C88.3262 7.31919 95.7072 5.6987 102.087 9.97981V13.0832C102.087 14.9244 101.731 16.5616 101.02 17.9948C100.308 19.4176 99.2518 20.5422 97.85 21.3686C96.4586 22.1846 94.7377 22.5926 92.6873 22.5926Z" fill="#074952"/>
<path fill-rule="evenodd" clip-rule="evenodd" d="M184 33.3913C181.044 33.3913 178.648 30.9951 178.648 28.0393H5.35201C5.35201 30.9951 2.95583 33.3913 0 33.3913V46.495C2.95583 46.495 5.352 48.8911 5.35201 51.847L178.648 51.847C178.648 48.8911 181.044 46.495 184 46.495C184 46.495 184 46.495 184 46.495V33.3913H184Z" fill="#D76E0D"/>
<path d="M28.0693 45.6794V34.2111H35.6335V35.8541H30.1677V39.1075H35.2593V40.7505H30.1677V45.6794H28.0693ZM45.5119 45.6794V34.2111H53.2388V35.8541H47.529V39.0262H52.8646V40.6854H47.529V44.0202H53.2388V45.6794H45.5119ZM67.1627 45.8421C66.2409 45.8421 65.3896 45.7282 64.6088 45.5005C63.8388 45.2619 63.1773 44.9366 62.6242 44.5245L63.2749 42.8815C63.6436 43.1418 64.0286 43.3641 64.4299 43.5485C64.8311 43.722 65.2595 43.8575 65.715 43.9551C66.1705 44.0419 66.653 44.0853 67.1627 44.0853C68.0195 44.0853 68.6376 43.9443 69.0172 43.6623C69.3968 43.3804 69.5865 43.0116 69.5865 42.5562C69.5865 42.1549 69.4564 41.8513 69.1961 41.6452C68.9359 41.4283 68.4695 41.2494 67.7972 41.1084L65.959 40.7343C64.907 40.5174 64.1208 40.1541 63.6003 39.6444C63.0797 39.1347 62.8194 38.4514 62.8194 37.5947C62.8194 36.879 63.0092 36.2554 63.3888 35.724C63.7683 35.1926 64.2997 34.7805 64.983 34.4877C65.6662 34.1949 66.4633 34.0485 67.3742 34.0485C68.1876 34.0485 68.9413 34.1678 69.6353 34.4064C70.3294 34.6341 70.9096 34.9649 71.3759 35.3986L70.7252 36.9603C70.2589 36.5699 69.7492 36.2825 69.1961 36.0981C68.6431 35.9029 68.0249 35.8053 67.3417 35.8053C66.5717 35.8053 65.9698 35.9571 65.536 36.2608C65.1131 36.5536 64.9016 36.9603 64.9016 37.4808C64.9016 37.8821 65.0318 38.202 65.292 38.4406C65.5632 38.6792 66.0186 38.8635 66.6585 38.9937L68.4804 39.3515C69.5649 39.5684 70.3674 39.9263 70.8879 40.4252C71.4085 40.9132 71.6687 41.5747 71.6687 42.4098C71.6687 43.093 71.4844 43.6949 71.1156 44.2154C70.7469 44.7251 70.2264 45.1264 69.554 45.4192C68.8816 45.7011 68.0845 45.8421 67.1627 45.8421ZM84.2413 45.6794V35.9355H80.451V34.2111H90.13V35.9355H86.3397V45.6794H84.2413ZM99.7461 45.6794V34.2111H101.845V45.6794H99.7461ZM116.211 45.6794L111.103 34.2111H113.365L117.48 43.8413H116.797L120.912 34.2111H123.092L117.984 45.6794H116.211ZM130.122 45.6794L135.311 34.2111H137.068L142.322 45.6794H140.191L138.792 42.4586L139.638 43.0279H132.757L133.636 42.4586L132.237 45.6794H130.122ZM136.173 36.456L133.88 41.8892L133.457 41.3849H138.922L138.581 41.8892L136.238 36.456H136.173ZM151.725 45.6794V34.2111H153.823V43.9063H159.224V45.6794H151.725Z" fill="white"/>
<defs>
<clipPath id="clip0_635_252">
<rect width="75.1384" height="22.4641" fill="white" transform="translate(0 0.152832)"/>
</clipPath>
</defs>
</svg>
