<?xml version="1.0" encoding="utf-8"?>
<!-- Generator: Adobe Illustrator 24.0.1, SVG Export Plug-In . SVG Version: 6.00 Build 0)  -->
<svg version="1.1" id="Capa_1" xmlns="http://www.w3.org/2000/svg" xmlns:xlink="http://www.w3.org/1999/xlink" x="0px" y="0px"
	 viewBox="0 0 26.6 26.6" style="enable-background:new 0 0 26.6 26.6;" xml:space="preserve">
<g>
	<path d="M15.3,4.2c-0.4,0-0.7,0.1-1.1,0.4L9.7,8.1H3.9c-1.4,0-2.6,1.1-2.6,2.6v5.1c0,1.4,1.1,2.6,2.6,2.6h5.7l4.6,3.5
		c0.4,0.3,0.8,0.4,1.1,0.4c0.4,0,0.7-0.2,0.9-0.5c0.2-0.3,0.3-0.7,0.3-1.1V5.8C16.5,4.6,15.9,4.2,15.3,4.2z M15.8,20.6
		c0,0.3-0.1,0.5-0.2,0.6c-0.2,0.2-0.5,0.2-0.9-0.1L10,17.6c-0.1-0.1-0.2-0.1-0.3-0.1H3.9c-0.9,0-1.7-0.8-1.7-1.7v-5.1
		c0-1,0.8-1.8,1.7-1.8h5.8c0.1,0,0.2,0,0.3,0l4.7-3.5c0.2-0.2,0.5-0.3,0.6-0.3c0.4,0,0.4,0.6,0.4,0.8C15.8,5.8,15.8,20.6,15.8,20.6z
		"/>
	<g>
		<g>
			<path d="M22.2,20c-0.1,0-0.2,0-0.3-0.1c-0.2-0.2-0.2-0.4,0-0.6c1.6-1.6,2.5-3.7,2.5-5.9c0-2.3-1-4.5-2.7-6.1
				c-0.2-0.2-0.2-0.4,0-0.6s0.4-0.2,0.6,0c1.9,1.7,2.9,4.1,2.9,6.7c0,2.5-1,4.8-2.8,6.5C22.5,20,22.3,20,22.2,20z"/>
		</g>
		<g>
			<path d="M20.4,18.2c-0.1,0-0.2,0-0.3-0.1c-0.2-0.2-0.2-0.4,0-0.6c1.1-1.1,1.8-2.5,1.8-4.1s-0.7-3.2-1.9-4.2
				c-0.2-0.2-0.2-0.4,0-0.6s0.4-0.2,0.6,0c1.4,1.2,2.2,3,2.2,4.9c0,1.8-0.7,3.5-2,4.7C20.8,18.2,20.5,18.2,20.4,18.2z"/>
		</g>
		<g>
			<path d="M20.4,18.2c-0.1,0-0.2,0-0.3-0.1c-0.2-0.2-0.2-0.4,0-0.6c1.1-1.1,1.8-2.5,1.8-4.1s-0.7-3.2-1.9-4.2
				c-0.2-0.2-0.2-0.4,0-0.6s0.4-0.2,0.6,0c1.4,1.2,2.2,3,2.2,4.9c0,1.8-0.7,3.5-2,4.7C20.8,18.2,20.5,18.2,20.4,18.2z"/>
		</g>
		<g>
			<path d="M18.6,16.4c-0.1,0-0.2,0-0.3-0.1c-0.2-0.2-0.1-0.4,0-0.6c0.6-0.6,1-1.4,1-2.3s-0.4-1.8-1.2-2.4c-0.2-0.1-0.2-0.4-0.1-0.6
				c0.1-0.2,0.4-0.2,0.6-0.1c0.9,0.8,1.5,1.9,1.5,3.1c0,1.1-0.5,2.2-1.3,2.9C18.8,16.4,18.8,16.4,18.6,16.4z"/>
		</g>
	</g>
</g>
</svg>
