<?xml version="1.0" encoding="utf-8"?>
<!-- Generator: Adobe Illustrator 24.0.1, SVG Export Plug-In . SVG Version: 6.00 Build 0)  -->
<svg version="1.1" id="Capa_1" xmlns="http://www.w3.org/2000/svg" xmlns:xlink="http://www.w3.org/1999/xlink" x="0px" y="0px"
	 viewBox="0 0 26.6 26.6" style="enable-background:new 0 0 26.6 26.6;" xml:space="preserve">
<path d="M15.3,4.3c-0.4,0-0.7,0.1-1.1,0.4L9.5,8.2H3.9c-1.4,0-2.6,1.1-2.6,2.6v5.1c0,1.4,1.1,2.6,2.6,2.6h5.7l4.6,3.5
	c0.4,0.3,0.8,0.4,1.1,0.4c0.4,0,0.7-0.2,0.9-0.5c0.2-0.3,0.3-0.7,0.3-1.1V5.9C16.5,4.7,15.8,4.3,15.3,4.3z M15.7,20.7
	c0,0.3-0.1,0.5-0.2,0.6c-0.2,0.2-0.5,0.2-0.9-0.1l-4.7-3.5c-0.1-0.1-0.2-0.1-0.3-0.1H3.9c-0.9,0-1.7-0.8-1.7-1.7v-5.1
	C2.2,9.8,2.9,9,3.9,9h5.8C9.8,9,9.9,9,9.9,9l4.7-3.5c0.2-0.2,0.5-0.3,0.6-0.3c0.4,0,0.4,0.6,0.4,0.8C15.7,5.9,15.7,20.7,15.7,20.7z
	 M25.2,16c0.2,0.2,0.2,0.4,0,0.6c-0.1,0.1-0.2,0.1-0.3,0.1s-0.2,0-0.3-0.1l-2.7-2.7l-2.7,2.7c-0.1,0.1-0.2,0.1-0.3,0.1
	s-0.2,0-0.3-0.1c-0.2-0.2-0.2-0.4,0-0.6l2.7-2.7l-2.7-2.7c-0.2-0.2-0.2-0.4,0-0.6c0.2-0.2,0.4-0.2,0.6,0l2.7,2.7l2.7-2.7
	c0.2-0.2,0.4-0.2,0.6,0c0.2,0.2,0.2,0.4,0,0.6l-2.7,2.7L25.2,16z"/>
<path d="M92.4,4.3c-0.4,0-0.7,0.1-1.1,0.4l-4.6,3.5H81c-1.4,0-2.6,1.1-2.6,2.6v5.1c0,1.4,1.1,2.6,2.6,2.6h5.7l4.6,3.5
	c0.4,0.3,0.8,0.4,1.1,0.4c0.4,0,0.7-0.2,0.9-0.5c0.2-0.3,0.3-0.7,0.3-1.1V5.9C93.6,4.7,93,4.3,92.4,4.3z M92.8,20.7
	c0,0.3-0.1,0.5-0.2,0.6c-0.2,0.2-0.5,0.2-0.9-0.1l-4.7-3.5c-0.1-0.1-0.2-0.1-0.3-0.1H81c-0.9,0-1.7-0.8-1.7-1.7v-5.1
	C79.3,9.8,80.1,9,81,9h5.8C86.9,9,87,9,87.1,9l4.7-3.5c0.2-0.2,0.5-0.3,0.6-0.3c0.4,0,0.4,0.6,0.4,0.8C92.8,5.9,92.8,20.7,92.8,20.7
	z"/>
<g>
	<g>
		<path d="M99.3,20.1c-0.1,0-0.2,0-0.3-0.1c-0.2-0.2-0.2-0.4,0-0.6c1.6-1.6,2.5-3.7,2.5-5.9c0-2.3-1-4.5-2.7-6.1
			c-0.2-0.2-0.2-0.4,0-0.6c0.2-0.2,0.4-0.2,0.6,0c1.9,1.7,2.9,4.1,2.9,6.7c0,2.5-1,4.8-2.8,6.5C99.6,20.1,99.4,20.1,99.3,20.1z"/>
	</g>
	<g>
		<path d="M97.5,18.3c-0.1,0-0.2,0-0.3-0.1c-0.2-0.2-0.2-0.4,0-0.6c1.1-1.1,1.8-2.5,1.8-4.1c0-1.6-0.7-3.2-1.9-4.2
			c-0.2-0.2-0.2-0.4,0-0.6c0.2-0.2,0.4-0.2,0.6,0c1.4,1.2,2.2,3,2.2,4.9c0,1.8-0.7,3.5-2,4.7C97.8,18.3,97.6,18.3,97.5,18.3z"/>
	</g>
	<g>
		<path d="M97.5,18.3c-0.1,0-0.2,0-0.3-0.1c-0.2-0.2-0.2-0.4,0-0.6c1.1-1.1,1.8-2.5,1.8-4.1c0-1.6-0.7-3.2-1.9-4.2
			c-0.2-0.2-0.2-0.4,0-0.6c0.2-0.2,0.4-0.2,0.6,0c1.4,1.2,2.2,3,2.2,4.9c0,1.8-0.7,3.5-2,4.7C97.8,18.3,97.6,18.3,97.5,18.3z"/>
	</g>
	<g>
		<path d="M95.7,16.5c-0.1,0-0.2,0-0.3-0.1c-0.2-0.2-0.1-0.4,0-0.6c0.6-0.6,1-1.4,1-2.3c0-0.9-0.4-1.8-1.2-2.4
			c-0.2-0.1-0.2-0.4-0.1-0.6c0.1-0.2,0.4-0.2,0.6-0.1c0.9,0.8,1.5,1.9,1.5,3.1c0,1.1-0.5,2.2-1.3,2.9C95.9,16.5,95.8,16.5,95.7,16.5
			z"/>
	</g>
</g>
</svg>
