<svg width="24" height="25" viewBox="0 0 24 25" fill="none" xmlns="http://www.w3.org/2000/svg">
<circle cx="12" cy="12.5098" r="8.91022" fill="white"/>
<path fill-rule="evenodd" clip-rule="evenodd" d="M22 12.5098C22 18.0328 17.523 22.5098 12 22.5098C6.477 22.5098 2 18.0328 2 12.5098C2 6.98677 6.477 2.50977 12 2.50977C17.523 2.50977 22 6.98677 22 12.5098ZM16.03 9.47977C16.1705 9.62039 16.2493 9.81102 16.2493 10.0098C16.2493 10.2085 16.1705 10.3991 16.03 10.5398L11.03 15.5398C10.8894 15.6802 10.6988 15.7591 10.5 15.7591C10.3012 15.7591 10.1106 15.6802 9.97 15.5398L7.97 13.5398C7.89631 13.4711 7.83721 13.3883 7.79622 13.2963C7.75523 13.2043 7.73319 13.105 7.73141 13.0043C7.72963 12.9036 7.74816 12.8036 7.78588 12.7102C7.8236 12.6168 7.87974 12.5319 7.95096 12.4607C8.02218 12.3895 8.10701 12.3334 8.2004 12.2956C8.29379 12.2579 8.39382 12.2394 8.49452 12.2412C8.59522 12.243 8.69454 12.265 8.78654 12.306C8.87854 12.347 8.96134 12.4061 9.03 12.4798L10.5 13.9498L12.735 11.7138L14.97 9.47977C15.1106 9.33932 15.3012 9.26043 15.5 9.26043C15.6988 9.26043 15.8894 9.33932 16.03 9.47977Z" fill="#EF9441"/>
</svg>
