<svg width="98" height="19" viewBox="0 0 98 19" fill="none" xmlns="http://www.w3.org/2000/svg">
<path fill-rule="evenodd" clip-rule="evenodd" d="M48.4245 2.95086V5.0167H47.4534H46.4824V6.75389V8.49108H47.4523H48.4223L48.4315 11.8187C48.4413 15.3365 48.4394 15.2776 48.557 15.8624C48.7884 17.0127 49.3881 17.808 50.3829 18.2836C51.5005 18.8179 53.3217 19.0066 55.4337 18.807C55.6348 18.7881 55.8401 18.7661 55.8898 18.7582L55.9802 18.7438L55.9741 16.9686L55.9681 15.1933L55.1391 15.1795C54.4967 15.1687 54.2717 15.1569 54.1392 15.1271C53.6865 15.0253 53.4723 14.8018 53.3991 14.355C53.3836 14.2604 53.3749 13.1794 53.3748 11.3494L53.3746 8.49148L54.6713 8.48542L55.9681 8.47934V6.75389V5.02844L54.6713 5.02236L53.3746 5.0163V2.95064V0.88501H50.8996H48.4245V2.95086ZM89.6358 2.9506V5.01619L88.6707 5.02231L87.7055 5.02844L87.6995 6.75976L87.6934 8.49108H88.6636H89.6337L89.6428 11.8305C89.6524 15.3564 89.6508 15.3025 89.767 15.8777C90.1334 17.6909 91.3887 18.5984 93.8521 18.8308C94.7888 18.9192 96.1689 18.8885 97.0907 18.7587L97.1916 18.7445L97.1855 16.9689L97.1794 15.1933L96.3623 15.1796C95.4899 15.1649 95.2828 15.1421 95.0628 15.0366C94.9218 14.9689 94.7602 14.8074 94.7011 14.6751C94.5858 14.4166 94.5868 14.446 94.5863 11.3729L94.5859 8.49148L95.8827 8.48542L97.1794 8.47934V6.75389V5.02844L95.8827 5.02236L94.5859 5.0163V2.95064V0.88501H92.1109H89.6358V2.9506ZM21.72 4.51407C21.681 4.51937 21.5477 4.53489 21.424 4.54858C19.9031 4.71685 18.361 5.45903 17.2359 6.56435C16.0543 7.72512 15.3601 9.11966 15.1199 10.8152C15.0994 10.9603 15.0887 11.2717 15.0893 11.7072C15.0901 12.2834 15.0976 12.4236 15.1438 12.7167C15.4009 14.3485 16.1316 15.7617 17.29 16.8676C18.4346 17.9603 19.8223 18.6148 21.4595 18.8341C21.8844 18.891 22.7628 18.8911 23.1885 18.8342C24.1784 18.702 25.1142 18.3962 25.9086 17.9452C26.4921 17.614 26.9572 17.2593 27.4528 16.7676C28.6779 15.5522 29.3894 14.0397 29.55 12.3096C29.5886 11.8928 29.5654 11.0577 29.5041 10.6618C29.2752 9.18269 28.6801 7.9371 27.6694 6.82202C26.7196 5.77409 25.3355 4.97942 23.9109 4.6641C23.3939 4.54968 23.0985 4.51928 22.4306 4.5117C22.0789 4.50773 21.7591 4.50879 21.72 4.51407ZM37.6835 4.51548C37.6444 4.52001 37.5112 4.53515 37.3874 4.54916C35.9367 4.71333 34.4519 5.43471 33.3836 6.49437C32.3213 7.54807 31.6597 8.85387 31.4143 10.3809L31.3615 10.7095L31.3539 14.6006L31.3463 18.4917H34.1655H36.9848V15.3277C36.9848 13.2713 36.9935 12.0941 37.0095 11.9648C37.0684 11.4916 37.387 11.0992 37.8442 10.9371C38.0853 10.8515 38.4412 10.8507 38.6668 10.9353C38.9868 11.0552 39.2435 11.2805 39.3793 11.5606C39.5234 11.8576 39.5182 11.7211 39.5187 15.2579L39.5191 18.4917H42.35H45.181L45.1737 14.5771C45.1664 10.6676 45.1663 10.6622 45.1141 10.3456C44.9732 9.49252 44.7247 8.76408 44.3348 8.06174C43.5097 6.57536 42.1594 5.43823 40.5578 4.88076C39.7757 4.60856 39.0967 4.49817 38.2401 4.50397C37.973 4.5058 37.7226 4.51097 37.6835 4.51548ZM63.7485 4.5486C60.5696 4.79953 58.2131 6.63194 57.4406 9.45358C57.3563 9.76134 57.2679 10.2076 57.2219 10.5569C57.1704 10.9485 57.1499 12.0173 57.1857 12.4467C57.3108 13.9481 57.7605 15.1629 58.5933 16.2488C59.5439 17.4883 61.0157 18.3616 62.73 18.7033C64.4257 19.0413 66.2422 18.9043 67.7981 18.321C69.0894 17.837 70.2278 16.9623 70.9064 15.9328C71.2254 15.4489 71.5267 14.7757 71.6446 14.2837L71.6601 14.2191H69.3537H67.0474L66.9573 14.3541C66.8391 14.5314 66.5673 14.8093 66.3893 14.9349C66.1099 15.1322 65.7441 15.2815 65.3403 15.3629C65.0239 15.4267 64.1949 15.4209 63.901 15.3528C63.0316 15.1512 62.401 14.6173 62.0569 13.7913C61.9854 13.6198 61.854 13.1941 61.8538 13.1334C61.8537 13.1238 64.1319 13.1132 66.9163 13.1099L71.9789 13.104L71.9759 12.3528C71.9706 11.0543 71.8526 10.2224 71.5392 9.27519C71.1666 8.14895 70.6304 7.27493 69.8265 6.48315C68.761 5.43379 67.3306 4.77995 65.6669 4.58184C65.2869 4.53658 64.1503 4.51688 63.7485 4.5486ZM6.28947 4.81923C5.95012 4.85939 5.51669 4.94804 5.15472 5.05131C4.3748 5.27381 3.51863 5.71118 2.83151 6.23811C2.56082 6.44568 1.93111 7.06412 1.70874 7.34078C0.517304 8.82302 -0.0120249 10.7546 0.26267 12.6176C0.479172 14.0862 1.14502 15.4053 2.20387 16.4633C3.28116 17.5397 4.55194 18.1777 6.11184 18.4253C6.44247 18.4778 6.45323 18.4779 9.87187 18.4857L13.3003 18.4934L13.2943 15.6931L13.2883 12.8927L10.4224 12.881L7.5566 12.8693L7.43152 12.8184C7.04418 12.661 6.73311 12.3134 6.64661 11.9413C6.60123 11.7461 6.61596 11.4309 6.67871 11.2547C6.82979 10.8304 7.18553 10.5205 7.62766 10.4281C7.76832 10.3987 8.21091 10.3933 10.5468 10.393L13.3001 10.3926V7.58727V4.78195L9.93099 4.78446C7.23468 4.78648 6.50744 4.79343 6.28947 4.81923ZM72.346 4.79648C72.346 4.80458 72.392 4.87592 72.4483 4.95503C73.0074 5.74167 73.6754 6.6899 76.3451 10.4865C76.5857 10.8287 76.8409 11.1912 76.9122 11.2923L77.0419 11.4759L76.9958 11.5387C76.9705 11.5733 76.6733 11.9918 76.3354 12.4687C75.9975 12.9456 75.3941 13.796 74.9945 14.3585C74.5949 14.921 74.028 15.7192 73.7348 16.1324C73.4416 16.5455 72.9465 17.2428 72.6346 17.6817L72.0676 18.4799L74.7816 18.4859C76.9329 18.4906 77.5015 18.4857 77.5244 18.4624C77.5511 18.4352 78.3827 17.161 79.3066 15.7318C79.52 15.4017 79.703 15.1402 79.7133 15.1507C79.7307 15.1686 80.0869 15.7294 81.3241 17.6866L81.8317 18.4896L84.6226 18.4906C86.1576 18.4912 87.4099 18.4833 87.4055 18.4731C87.3975 18.4543 86.9164 17.7659 85.7941 16.1676C85.4541 15.6834 84.865 14.8436 84.485 14.3013C84.105 13.759 83.4991 12.8944 83.1386 12.3799C82.778 11.8654 82.4831 11.4339 82.4831 11.4209C82.4831 11.4079 82.8757 10.8411 83.3555 10.1613C83.8354 9.48156 84.8761 8.00631 85.6683 6.88301C86.4604 5.7597 87.1189 4.8274 87.1317 4.8112C87.1503 4.7876 86.6109 4.78293 84.4242 4.78772L81.6935 4.79368L81.4784 5.12399C81.3601 5.30564 81.1091 5.69122 80.9206 5.98084C80.7321 6.27044 80.4051 6.78561 80.1938 7.12563L79.8098 7.74385L79.753 7.65383C79.7218 7.60432 79.4497 7.17293 79.1484 6.6952C78.8471 6.21748 78.447 5.5942 78.2594 5.31015L77.9183 4.79368L75.1321 4.78772C73.5998 4.78444 72.346 4.78838 72.346 4.79648ZM64.7983 7.99946C65.4453 8.0557 65.975 8.27473 66.3848 8.65541C66.7692 9.01247 67.0208 9.44247 67.1712 9.99938L67.2267 10.2048H64.5402C63.0627 10.2048 61.8537 10.1969 61.8537 10.1872C61.8538 10.1326 61.9845 9.71061 62.0565 9.5325C62.4266 8.61743 63.1606 8.09002 64.1899 7.99962C64.4943 7.97286 64.4925 7.97286 64.7983 7.99946Z" fill="white"/>
</svg>
