<svg width="175" height="25" viewBox="0 0 175 25" fill="none" xmlns="http://www.w3.org/2000/svg">
<path d="M9.97577 24.1584C9.70577 24.1325 9.43577 24.1094 9.16645 24.0795C9.05763 24.0673 8.94882 24.0482 8.84408 24.0169C8.66725 23.9646 8.49179 23.9081 8.3204 23.8401C8.06876 23.7395 7.82529 23.6204 7.56481 23.5375C7.35329 23.4701 7.1377 23.4477 6.92279 23.4069C6.7072 23.3661 6.49568 23.3076 6.27397 23.313C6.25221 23.3021 6.24609 23.2396 6.2046 23.2913C6.0815 23.279 5.95772 23.2518 5.8353 23.2566C5.5755 23.2661 5.31502 23.2811 5.05659 23.3123C4.55263 23.3742 4.05683 23.4858 3.57124 23.6279C3.22235 23.7306 2.88434 23.8714 2.54224 23.9992C2.47083 24.0258 2.4069 24.07 2.33685 24.1019C2.30693 24.1155 2.27156 24.1169 2.2226 24.0945C2.48988 23.7585 2.74968 23.4157 3.02716 23.0879C3.22303 22.8567 3.4325 22.635 3.65489 22.4289C3.92013 22.1834 4.2085 21.963 4.48258 21.7263C4.79543 21.4563 5.1416 21.2346 5.49525 21.0245C5.79382 20.8463 6.0951 20.6715 6.43447 20.5742C6.59362 20.5287 6.74324 20.4539 6.90102 20.4022C7.04725 20.3546 7.19619 20.3138 7.34649 20.2818C7.82052 20.1811 8.29796 20.1029 8.78491 20.1016C9.10592 20.1009 9.42149 20.1437 9.7391 20.188C10.3192 20.2689 10.8749 20.4287 11.4169 20.6409C11.6658 20.7382 11.9039 20.8653 12.1467 20.9789C12.1963 21.002 12.246 21.0252 12.3112 21.0558C12.314 21.0122 12.3167 20.9871 12.3167 20.9612C12.3167 19.4072 12.3167 17.8538 12.3167 16.2998C12.3167 13.2434 12.316 10.1863 12.318 7.12996C12.318 7.01979 12.2929 6.93205 12.2092 6.85996C12.1079 6.77155 12.0079 6.68178 11.9093 6.59064C11.8603 6.54576 11.8155 6.49679 11.7542 6.43558C12.012 6.19822 12.2208 5.9323 12.5146 5.71875C12.7588 5.95679 12.9982 6.19074 13.2539 6.44034C13.0825 6.60561 12.9227 6.76407 12.7574 6.91641C12.6846 6.98374 12.6588 7.05855 12.6588 7.15581C12.6622 8.47793 12.6622 9.80005 12.6635 11.1222C12.6635 11.1392 12.6663 11.1562 12.6676 11.1725C12.6683 11.1936 12.6697 11.214 12.6703 11.2351C12.6839 11.2317 12.6982 11.2289 12.7118 11.2255C12.8506 11.1072 12.9914 10.9923 13.1267 10.8705C13.3321 10.6855 13.4926 10.4638 13.6361 10.2278C13.9054 9.78441 14.0863 9.30766 14.1965 8.80234C14.24 8.60375 14.3046 8.40856 14.3373 8.20793C14.3794 7.95017 14.4073 7.68901 14.4264 7.42853C14.4461 7.16397 14.4556 6.89805 14.4549 6.63281C14.4543 6.36757 14.4434 6.10165 14.4209 5.83709C14.4073 5.6793 14.3502 5.52628 14.3339 5.3685C14.3182 5.21955 14.2944 5.07469 14.2631 4.92779C14.1911 4.5925 14.0686 4.27693 13.9224 3.96952C13.7871 3.68524 13.5851 3.46013 13.3355 3.26426C13.2001 3.15816 13.0553 3.11532 12.9043 3.05615C12.7173 2.98338 12.5411 2.98542 12.3602 3.02894C12.1793 3.07247 12.0174 3.15272 11.8603 3.2663C11.3482 3.63627 11.1966 4.1722 11.1367 4.75164C11.1068 5.04273 11.1034 5.33789 11.1034 5.6317C11.1013 8.70644 11.1054 11.7812 11.1007 14.8559C11.0993 15.887 10.7395 16.8031 10.141 17.6314C9.89008 17.979 9.56975 18.2626 9.25282 18.5469C9.12292 18.6632 8.95494 18.7359 8.81212 18.84C8.49111 19.0733 8.12589 19.2202 7.76612 19.3759C7.52468 19.4806 7.26964 19.5548 7.0214 19.6425C7.02004 19.6105 7.01868 19.5786 7.01664 19.5466C7.20163 19.3521 7.38254 19.1542 7.4968 18.9073C7.54644 18.7992 7.60629 18.6944 7.64302 18.5815C7.72599 18.3258 7.78108 18.0626 7.84773 17.8028C7.95111 17.4016 7.94294 16.9989 7.94362 16.5956C7.94838 13.6515 7.94974 10.7066 7.9409 7.76246C7.93954 7.34896 7.96199 6.93954 8.01639 6.53283C8.04088 6.35057 8.11909 6.17306 8.18846 5.99963C8.31428 5.68747 8.47682 5.39366 8.68358 5.12706C8.85972 4.89991 9.05355 4.68907 9.29499 4.52653C9.31811 4.51089 9.33852 4.49048 9.3596 4.47144C9.53507 4.31774 9.71121 4.16539 9.88464 4.00897C9.95129 3.94912 10.0043 3.87431 10.0723 3.8165C10.2056 3.70292 10.3471 3.59887 10.4797 3.48529C10.5804 3.39892 10.6708 3.3003 10.7708 3.21257C10.9293 3.07315 11.0918 2.93917 11.2516 2.80247C11.4727 2.61408 11.7012 2.43385 11.9107 2.2339C12.1052 2.04823 12.3017 1.86733 12.5187 1.70682C12.841 1.46742 13.2083 1.3348 13.5939 1.24775C13.7952 1.20218 14.002 1.16954 14.2081 1.15186C14.3529 1.13962 14.5019 1.15186 14.646 1.17226C15.0174 1.22395 15.371 1.33412 15.7077 1.50415C16.0273 1.66533 16.2933 1.88773 16.5401 2.14481C16.7285 2.34136 16.8788 2.55899 17.0114 2.79227C17.1862 3.10035 17.3005 3.43224 17.3835 3.77365C17.4821 4.17832 17.5317 4.59114 17.5446 5.00804C17.5535 5.28961 17.51 5.56505 17.4644 5.84389C17.393 6.2812 17.2706 6.7015 17.1203 7.115C16.8836 7.76586 16.5537 8.36571 16.1538 8.93088C15.7573 9.49128 15.2928 9.98844 14.7814 10.4427C14.4624 10.7264 14.1251 10.9882 13.768 11.2242C13.7408 11.2419 13.7163 11.2636 13.664 11.3031C13.87 11.3153 14.0462 11.3242 14.2223 11.3357C14.3917 11.3466 14.5624 11.3507 14.7304 11.3731C15.4356 11.4677 16.1266 11.6261 16.785 11.8995C17.1849 12.0655 17.5474 12.2974 17.8867 12.5694C18.5736 13.1203 19.0177 13.8235 19.234 14.6696C19.2959 14.9117 19.3245 15.1633 19.3571 15.4123C19.3864 15.6401 19.4034 15.87 19.419 16.0992C19.4238 16.1651 19.4054 16.2325 19.3979 16.2991C19.3884 16.3046 19.3789 16.3107 19.37 16.3161C19.3782 16.3195 19.3864 16.3236 19.3952 16.327C19.3938 16.8371 19.3068 17.3363 19.2109 17.8362C19.0783 18.5271 18.7892 19.1481 18.4131 19.7377C18.0459 20.3138 17.6303 20.8483 17.1407 21.3237C16.7904 21.6638 16.4163 21.978 16.011 22.2527C15.8607 22.3548 15.7186 22.4724 15.5601 22.5602C15.2901 22.7098 15.0133 22.8499 14.7324 22.9791C14.4073 23.1287 14.0822 23.2845 13.7435 23.3967C13.4375 23.498 13.1389 23.6252 12.8206 23.6939C12.6071 23.7401 12.4051 23.8353 12.1915 23.8823C11.8658 23.9537 11.5366 24.0169 11.2054 24.0571C10.8096 24.1053 10.4097 24.1257 10.0118 24.1584C10.0057 24.1448 9.99958 24.1312 9.99345 24.1176C9.98733 24.1312 9.98121 24.1448 9.97509 24.1584H9.97577ZM13.1192 21.5495C13.2886 21.4951 13.4477 21.3999 13.6021 21.2965C14.3699 20.7817 14.9276 20.0914 15.3091 19.2548C15.6091 18.5972 15.7682 17.9021 15.8519 17.1894C15.8852 16.9037 15.8899 16.6147 15.9002 16.3263C15.9138 15.9475 15.8893 15.5707 15.8294 15.1953C15.7703 14.8226 15.6485 14.4696 15.5213 14.1187C15.454 13.9337 15.3676 13.7542 15.2697 13.5828C14.8099 12.7796 14.1394 12.2409 13.2382 12.0036C13.056 11.956 12.8662 11.9383 12.6656 11.9036C12.6656 11.992 12.6656 12.0539 12.6656 12.1151C12.6656 12.9346 12.6656 13.7542 12.6656 14.5737C12.6656 16.7385 12.6663 18.9032 12.6622 21.068C12.6622 21.2013 12.6901 21.2918 12.8166 21.353C12.9165 21.4019 13.0056 21.4733 13.1199 21.5488L13.1192 21.5495Z" fill="white"/>
<path d="M107.426 11.6819C107.426 11.5806 107.428 11.4785 107.428 11.3772C107.428 10.1959 107.42 9.01453 107.434 7.83387C107.439 7.40948 107.28 7.07963 106.981 6.80011C106.956 6.77699 106.931 6.75522 106.897 6.72394C106.942 6.61172 107.047 6.55595 107.13 6.48386C107.274 6.35872 107.426 6.24311 107.578 6.12613C107.739 6.00235 107.904 5.88537 108.063 5.75955C108.234 5.62421 108.396 5.47867 108.567 5.34265C108.734 5.20935 108.908 5.08489 109.076 4.95159C109.25 4.81217 109.42 4.66663 109.593 4.52312C109.601 4.51564 109.609 4.50748 109.618 4.50068C109.779 4.37486 109.79 4.37622 109.936 4.51428C110.284 4.84209 110.485 5.25628 110.622 5.70378C110.764 6.17305 110.824 6.65661 110.824 7.14696C110.824 10.2326 110.824 13.3189 110.824 16.4045C110.824 18.1055 110.832 19.8071 110.818 21.508C110.815 21.9617 110.958 22.3282 111.278 22.6377C111.298 22.6567 111.316 22.6785 111.334 22.6982C111.239 22.824 109.214 24.4991 108.885 24.7236C108.853 24.6991 108.817 24.6746 108.786 24.6447C108.501 24.3679 108.2 24.1019 108.002 23.7524C107.89 23.5531 107.726 23.379 107.682 23.1423C107.673 23.0913 107.634 23.0457 107.609 22.9974C107.532 22.8526 107.533 22.6887 107.492 22.535C107.465 22.437 107.432 22.3391 107.42 22.2385C107.411 22.1582 107.428 22.0745 107.435 21.9916C107.354 21.9685 107.319 22.0215 107.278 22.0548C106.262 22.8866 105.247 23.7184 104.232 24.5508C104.167 24.6045 104.1 24.6562 104.027 24.714C103.986 24.6929 103.946 24.6753 103.909 24.6528C103.534 24.4284 103.187 24.1672 102.861 23.8755C102.171 23.2572 101.654 22.5207 101.325 21.6542C101.266 21.4992 101.171 21.3455 101.16 21.187C101.142 20.9245 101.04 20.6817 101.04 20.4137C101.041 18.6169 101.025 16.8194 101.021 15.0226C101.02 14.7777 100.944 14.5696 100.788 14.386C100.756 14.3486 100.725 14.3105 100.686 14.2642C102.317 12.9102 103.941 11.5622 105.566 10.2122C106.23 10.6386 106.848 11.0977 107.362 11.6812C107.382 11.7003 107.402 11.7193 107.422 11.7377C107.424 11.7186 107.426 11.6996 107.428 11.6812L107.426 11.6819ZM104.629 13.0802C104.532 13.1856 104.431 13.2441 104.431 13.3985C104.438 15.619 104.437 17.8395 104.439 20.0608C104.439 20.1737 104.432 20.2872 104.439 20.3995C104.474 20.9102 104.691 21.3122 105.168 21.5366C105.449 21.6692 105.753 21.7182 106.062 21.6712C106.524 21.6019 106.91 21.372 107.266 21.0823C107.375 20.9932 107.423 20.8939 107.422 20.7497C107.418 19.6819 107.421 18.6135 107.421 17.5457C107.421 17.2309 107.421 16.9173 107.362 16.6038C107.292 16.2263 107.175 15.8666 106.997 15.5292C106.816 15.1851 106.571 14.8831 106.309 14.5961C105.962 14.2166 105.609 13.8426 105.203 13.5236C105.018 13.3781 104.83 13.2359 104.628 13.0802H104.629Z" fill="white"/>
<path d="M88.831 21.2795C88.831 18.8719 88.8304 16.4643 88.8297 14.0574C88.8297 13.8935 88.831 13.7296 88.8344 13.5657C88.8419 13.1971 88.7297 12.8666 88.5168 12.568C88.4849 12.5225 88.4515 12.4782 88.4087 12.4204C89.3459 11.654 90.2776 10.8929 91.2196 10.123C91.3773 10.2305 91.5127 10.3652 91.6358 10.51C92.0316 10.9766 92.239 11.5261 92.3322 12.1219C92.3696 12.3613 92.3873 12.6034 92.4152 12.8571C93.5326 11.9804 94.5949 11.0357 95.7144 10.1455C95.8626 10.2904 96.0061 10.4257 96.1435 10.5672C96.5332 10.9691 96.944 11.3534 97.3031 11.7811C97.8778 12.4646 98.1988 13.2658 98.2688 14.1601C98.2749 14.239 98.277 14.3179 98.277 14.3975C98.277 16.6187 98.2783 18.8399 98.277 21.0605C98.277 21.6515 98.1036 22.1942 97.7968 22.6982C97.4881 23.2062 97.0705 23.6061 96.6033 23.9679C96.3026 24.2005 95.9789 24.395 95.6552 24.5868C95.4103 24.7317 95.1349 24.8242 94.8567 24.9473C94.8527 24.8854 94.8465 24.8378 94.8465 24.7902C94.8465 21.3203 94.8486 17.8504 94.8479 14.3798C94.8479 14.1187 94.803 13.8657 94.616 13.6603C94.4664 13.4957 94.2848 13.3971 94.0671 13.3447C93.5353 13.2175 93.0592 13.3529 92.6097 13.629C92.3859 13.7664 92.3907 13.7691 92.3907 14.0275C92.3921 16.3392 92.3921 18.6502 92.3927 20.9619C92.3927 21.1033 92.3989 21.2448 92.3914 21.3856C92.3723 21.7385 92.5172 22.0174 92.7668 22.2527C92.8266 22.3091 92.8899 22.3629 92.9538 22.42C92.3295 22.9246 91.7154 23.4204 91.1019 23.9169C90.8571 24.1148 90.6102 24.3114 90.3701 24.5147C90.2953 24.578 90.245 24.563 90.1824 24.5052C89.8355 24.1828 89.5261 23.8312 89.3289 23.3946C89.2316 23.179 89.1228 22.9675 89.0466 22.7444C88.9793 22.5465 88.9385 22.3377 88.9072 22.1303C88.8705 21.8827 88.8562 21.6318 88.8317 21.3828C88.8773 21.3475 88.8712 21.3135 88.8283 21.2801L88.831 21.2795Z" fill="white"/>
<path d="M129.185 12.8515C129.373 12.6971 129.563 12.5441 129.748 12.387C130.049 12.1313 130.345 11.8688 130.649 11.6171C130.911 11.4009 131.182 11.1961 131.447 10.9846C131.511 10.9336 131.568 10.8751 131.629 10.8214C131.829 10.6453 132.029 10.4691 132.229 10.2936C132.437 10.1114 132.436 10.1127 132.633 10.3086C132.992 10.6691 133.359 11.0227 133.713 11.3886C134.329 12.0231 134.755 12.7651 134.936 13.6336C134.99 13.8921 135.017 14.16 135.018 14.4239C135.024 16.6281 135.025 18.8323 135.017 21.0372C135.016 21.329 134.993 21.6323 134.91 21.9085C134.789 22.3056 134.584 22.6702 134.334 23.0089C134.059 23.3809 133.719 23.6849 133.362 23.9692C133.143 24.1426 132.902 24.2909 132.659 24.4296C132.365 24.5976 132.058 24.7452 131.755 24.8989C131.711 24.9206 131.658 24.924 131.591 24.9404C131.591 24.8669 131.591 24.8016 131.591 24.7356C131.591 21.3045 131.591 17.8741 131.589 14.443C131.589 14.3307 131.576 14.2178 131.561 14.1063C131.514 13.7425 131.181 13.3718 130.714 13.3419C130.575 13.333 130.436 13.2963 130.298 13.3024C129.939 13.3181 129.619 13.4609 129.318 13.6513C129.267 13.684 129.214 13.7125 129.143 13.754V13.939C129.143 16.4146 129.146 18.8902 129.14 21.3657C129.139 21.7384 129.27 22.0336 129.539 22.2784C129.59 22.324 129.639 22.3696 129.699 22.424C128.81 23.1462 127.925 23.8651 127.048 24.5785C126.696 24.2909 126.41 23.9773 126.205 23.6012C126.068 23.3496 125.959 23.0816 125.845 22.8177C125.795 22.7015 125.752 22.5804 125.723 22.458C125.688 22.3084 125.673 22.154 125.646 22.0023C125.632 21.9261 125.61 21.8506 125.593 21.7752C125.589 21.7588 125.579 21.7398 125.584 21.7275C125.634 21.5997 125.579 21.4732 125.581 21.3467C125.583 21.3372 125.583 21.3276 125.581 21.3181C125.581 18.9282 125.581 16.5384 125.581 14.1485C125.581 13.9846 125.576 13.8207 125.582 13.6568C125.596 13.2174 125.47 12.825 125.194 12.4809C125.184 12.4686 125.178 12.453 125.164 12.4271C125.351 12.2734 125.539 12.1224 125.723 11.966C126.048 11.6899 126.367 11.407 126.695 11.1343C126.937 10.9329 127.192 10.7473 127.439 10.5507C127.615 10.4099 127.786 10.2637 127.97 10.1121C128.04 10.1712 128.108 10.2216 128.168 10.2794C128.642 10.733 128.918 11.2948 129.04 11.93C129.097 12.2313 129.11 12.5414 129.143 12.8474C129.157 12.8495 129.171 12.8515 129.185 12.8536V12.8515Z" fill="white"/>
<path d="M44.043 24.9079C44.0409 24.829 44.0369 24.7501 44.0369 24.6712C44.0369 21.2469 44.0369 17.8226 44.0348 14.3983C44.0348 14.2534 44.0253 14.1004 43.9791 13.9644C43.8811 13.6746 43.6798 13.4781 43.3731 13.4026C43.1554 13.3495 42.9419 13.2768 42.7113 13.3019C42.4141 13.3339 42.1373 13.4223 41.8809 13.576C41.7803 13.6359 41.6837 13.7025 41.583 13.7671V13.9412C41.583 16.3821 41.583 18.8237 41.5817 21.2646C41.5817 21.3408 41.547 21.4203 41.5592 21.4924C41.5796 21.6114 41.6171 21.7291 41.6619 21.842C41.747 22.0569 41.9088 22.2147 42.0795 22.3636C42.0958 22.3779 42.1115 22.3929 42.1265 22.4078C42.1299 22.4112 42.1292 22.4187 42.1319 22.4303C41.836 22.6717 41.5395 22.9152 41.241 23.158C40.9662 23.3811 40.6887 23.6007 40.4146 23.8252C40.1276 24.0605 39.8413 24.2965 39.5591 24.5372C39.5142 24.5753 39.4829 24.5726 39.4428 24.5474C39.4094 24.527 39.3761 24.5053 39.3475 24.4794C39.0823 24.2414 38.8592 23.9687 38.6681 23.6687C38.477 23.3681 38.3403 23.0417 38.2369 22.7044C38.1424 22.3942 38.0676 22.0787 38.0485 21.7502C38.0424 21.6475 38.0567 21.5468 38.0465 21.4448C38.037 21.3442 38.0411 21.2415 38.0411 21.1401C38.0417 18.6482 38.0438 16.1563 38.0424 13.6644C38.0424 13.2605 37.9003 12.8959 37.6915 12.5565C37.6663 12.5157 37.6174 12.4892 37.5657 12.4443C38.5131 11.6656 39.4482 10.8964 40.3908 10.1211C40.5935 10.2279 40.7431 10.3993 40.8805 10.5747C41.2321 11.0236 41.4355 11.5405 41.5191 12.1022C41.5558 12.3505 41.5749 12.6014 41.6028 12.8605C41.6966 12.7864 41.7925 12.7157 41.883 12.6395C42.1673 12.4015 42.4475 12.158 42.7324 11.922C43.1813 11.55 43.6342 11.1834 44.0838 10.8121C44.2416 10.6822 44.3939 10.5448 44.5497 10.4129C44.6333 10.3421 44.7183 10.2721 44.8054 10.2061C44.8598 10.1653 44.9108 10.1381 44.9774 10.2061C45.463 10.7039 45.9765 11.1773 46.4335 11.6996C46.9253 12.2621 47.251 12.9252 47.3938 13.6658C47.4319 13.863 47.4462 14.0643 47.4721 14.2636C47.4721 14.2752 47.4727 14.2867 47.4734 14.2983C47.4721 14.3833 47.4693 14.4676 47.4693 14.5526C47.4693 16.695 47.4693 18.8373 47.4693 20.9796C47.4693 21.8005 47.2021 22.5235 46.6689 23.1471C46.5233 23.3178 46.3751 23.4878 46.2098 23.6388C46.0323 23.8007 45.8398 23.9476 45.6433 24.0863C45.4073 24.2523 45.1679 24.4141 44.9162 24.5556C44.6775 24.6896 44.4225 24.795 44.1736 24.9106C44.1545 24.9195 44.1287 24.914 44.1062 24.9147C44.0851 24.9147 44.0647 24.9133 44.0437 24.9127L44.043 24.9079Z" fill="white"/>
<path d="M87.6449 1.69596C87.5443 1.84286 87.4382 1.98568 87.345 2.13734C87.0594 2.60117 86.8295 3.09221 86.6656 3.61113C86.569 3.91717 86.4962 4.23138 86.4187 4.54287C86.3691 4.74146 86.3187 4.94141 86.2908 5.14408C86.265 5.32771 86.2834 5.51746 86.2548 5.70109C86.2269 5.87859 86.2466 6.0527 86.2466 6.22817C86.2466 10.5631 86.2507 14.8974 86.2439 19.2324C86.2426 20.0737 86.0066 20.8572 85.4992 21.5373C85.2816 21.8297 85.0333 22.1031 84.7436 22.3323C84.3648 22.6316 83.9955 22.9437 83.6004 23.2199C83.399 23.3606 83.1909 23.5035 82.959 23.5994C82.9441 23.6055 82.9277 23.6116 82.9155 23.6218C82.6945 23.8054 82.4129 23.8653 82.1633 23.9918C82.096 24.0258 82.0205 24.0455 81.9477 24.0666C81.6859 24.1434 81.4267 24.2291 81.1615 24.291C80.9119 24.3488 80.6582 24.3944 80.4039 24.4196C80.1121 24.4481 79.8169 24.4529 79.5231 24.4583C79.3708 24.4611 79.2178 24.4441 79.0654 24.4352C79.0539 24.4352 79.0396 24.4386 79.0321 24.4325C78.9002 24.3346 78.7342 24.3958 78.59 24.3325C78.4431 24.2679 78.2772 24.2489 78.1255 24.1924C77.9766 24.1373 77.8276 24.0727 77.6923 23.9904C77.4141 23.8211 77.1441 23.6381 76.8721 23.4586C76.7245 23.3613 76.579 23.26 76.4341 23.1587C76.2634 23.039 76.0703 22.9818 75.8689 22.9424C75.7785 22.9247 75.6908 22.8961 75.6003 22.8791C75.4003 22.8417 75.2018 22.8227 75.0004 22.8873C74.8549 22.9335 74.6985 22.9465 74.5536 22.9954C74.2448 23.1002 73.9721 23.2756 73.7266 23.4865C73.5103 23.6728 73.3124 23.8796 73.1009 24.0816C73.0982 24.0503 73.0948 24.0095 73.0921 23.9687C73.0744 23.7469 73.1172 23.5293 73.137 23.3103C73.1553 23.1104 73.1703 22.9097 73.2029 22.7118C73.2444 22.4622 73.2913 22.2126 73.356 21.9678C73.4212 21.7189 73.4974 21.4713 73.5926 21.2326C73.7797 20.7633 74.0238 20.3233 74.3734 19.9513C74.6726 19.6323 75.0297 19.4099 75.4507 19.2651C75.8268 19.1358 76.2015 19.078 76.5912 19.112C76.751 19.1256 76.9068 19.1848 77.0646 19.2243C77.1809 19.2535 77.2999 19.2766 77.4135 19.3154C77.8684 19.4698 78.2527 19.7377 78.6125 20.0499C78.9212 20.3179 79.1708 20.6375 79.4381 20.9422C79.6238 21.1537 79.8095 21.3659 80.0013 21.5727C80.1862 21.7726 80.4046 21.9297 80.646 22.0562C81.1465 22.3187 81.6825 22.3262 82.1565 22.0528C82.6047 21.7944 82.8835 21.3972 82.9964 20.8851C83.0481 20.6511 83.0787 20.4178 83.0787 20.1784C83.0774 15.9285 83.078 11.6785 83.0787 7.42855C83.0787 7.19119 83.0855 6.95452 83.0848 6.71716C83.0835 6.3057 83.2154 5.933 83.3834 5.56302C83.5847 5.1196 83.8996 4.76798 84.2396 4.43337C84.3947 4.28103 84.5702 4.14977 84.7348 4.00695C84.7851 3.96274 84.8239 3.90629 84.8735 3.86209C85.0721 3.6873 85.2734 3.51523 85.4734 3.34249C85.6774 3.16634 85.8787 2.98815 86.0861 2.81677C86.2732 2.66238 86.465 2.51276 86.6581 2.36586C86.8975 2.18359 87.1396 2.00472 87.3824 1.82654C87.4593 1.77009 87.5422 1.7218 87.6218 1.66943C87.63 1.67896 87.6388 1.6878 87.647 1.69732L87.6449 1.69596Z" fill="white"/>
<path d="M113.618 14.8C113.617 14.594 113.503 14.4396 113.375 14.2825C113.473 14.1975 113.567 14.1131 113.664 14.0308C113.802 13.9125 113.939 13.7928 114.08 13.6785C114.264 13.5289 114.454 13.3847 114.638 13.2351C114.758 13.1385 114.872 13.0352 114.991 12.9386C115.065 12.8794 115.149 12.8325 115.22 12.7706C115.461 12.5625 115.695 12.3462 115.938 12.1408C116.093 12.0096 116.262 11.8939 116.421 11.7668C116.59 11.6314 116.755 11.4906 116.921 11.3519C117.151 11.1615 117.378 10.9683 117.61 10.7799C117.895 10.548 118.182 10.3195 118.483 10.0774C118.523 10.1019 118.571 10.1291 118.617 10.1583C119.466 10.6881 120.315 11.2193 121.165 11.747C121.973 12.2483 122.539 12.9406 122.829 13.8452C122.929 14.1573 123.006 14.4777 123.005 14.813C122.999 16.3391 123.006 17.8653 122.997 19.3907C122.993 19.8872 122.872 20.364 122.644 20.8087C122.517 21.057 122.347 21.2719 122.132 21.4514C121.384 22.0737 120.637 22.6974 119.892 23.3217C119.568 23.5931 119.249 23.8692 118.926 24.1412C118.906 24.1583 118.876 24.1637 118.852 24.1732C118.864 24.197 118.873 24.2167 118.881 24.2337C118.869 24.2446 118.86 24.2582 118.854 24.2575C118.786 24.2501 118.738 24.2779 118.688 24.3215C118.535 24.4548 118.377 24.5826 118.21 24.7214C118.131 24.6744 118.055 24.6289 117.978 24.584C117.804 24.482 117.628 24.3834 117.456 24.2773C117.367 24.2222 117.29 24.148 117.201 24.0936C116.613 23.7305 116.023 23.3721 115.437 23.0075C115.228 22.8776 115.018 22.747 114.826 22.594C114.699 22.4927 114.607 22.3478 114.493 22.2281C114.237 21.9595 114.079 21.6289 113.915 21.3045C113.823 21.1209 113.779 20.9128 113.722 20.7128C113.69 20.5999 113.664 20.483 113.655 20.3667C113.643 20.2245 113.651 20.0804 113.651 19.9375C113.653 18.4175 113.655 16.8968 113.656 15.3768C113.656 15.2074 113.648 15.0387 113.644 14.8694C113.697 14.8232 113.652 14.813 113.617 14.7987L113.618 14.8ZM119.312 22.2744C119.355 22.1996 119.395 22.139 119.426 22.0744C119.546 21.8228 119.565 21.5541 119.564 21.2807C119.561 19.7206 119.56 18.1611 119.559 16.6009C119.559 16.1262 119.561 15.6515 119.561 15.1768C119.561 14.9381 119.544 14.7014 119.449 14.479C119.298 14.1274 119.076 13.8302 118.757 13.6105C118.416 13.3752 118.076 13.1385 117.735 12.9025C117.618 12.8209 117.499 12.74 117.374 12.6543C117.339 12.6972 117.306 12.7346 117.276 12.7747C117.096 13.0168 117.042 13.2943 117.042 13.5881C117.042 15.5441 117.041 17.4994 117.044 19.4553C117.044 19.6356 117.055 19.8178 117.083 19.9953C117.142 20.3619 117.257 20.7122 117.506 20.9971C117.999 21.5596 118.603 21.9697 119.313 22.2744H119.312Z" fill="white"/>
<path d="M164.863 14.1391C164.857 13.8739 164.851 13.6087 164.846 13.3434C164.846 13.2985 164.846 13.2543 164.846 13.2094C164.846 13.204 164.848 13.1979 164.847 13.1924C164.822 12.9932 164.885 12.8415 165.079 12.7558C165.108 12.7429 165.129 12.7109 165.153 12.6871C165.477 12.3715 165.853 12.124 166.211 11.8519C166.6 11.5561 167.019 11.3174 167.45 11.095C167.675 10.9794 167.904 10.8712 168.137 10.7719C168.883 10.4537 169.655 10.2177 170.453 10.0721C170.708 10.0259 170.969 10.0034 171.227 9.9769C171.279 9.97146 171.343 9.98302 171.388 10.0089C171.744 10.2163 172.075 10.4557 172.355 10.7631C172.89 11.35 173.244 12.0315 173.434 12.7993C173.535 13.206 173.574 13.6175 173.573 14.0371C173.568 16.4168 173.574 18.7965 173.566 21.1755C173.565 21.5958 173.728 21.9236 174.017 22.2072C174.042 22.231 174.066 22.2548 174.094 22.2745C174.117 22.2909 174.144 22.3017 174.192 22.3262C173.316 23.0614 172.474 23.7687 171.628 24.4787C171.198 24.1618 170.871 23.7708 170.638 23.3035C170.408 22.8411 170.273 22.35 170.217 21.8447C170.203 21.8359 170.199 21.8325 170.194 21.8311C170.189 21.8297 170.182 21.8297 170.177 21.8318C170.167 21.8365 170.157 21.842 170.148 21.8488C169.083 22.7091 168.019 23.5701 166.94 24.442C166.75 24.3509 166.554 24.2645 166.366 24.1645C165.037 23.4586 164.153 22.3949 163.772 20.9334C163.719 20.73 163.632 20.5314 163.643 20.3131C163.646 20.2335 163.633 20.1526 163.634 20.073C163.638 19.871 163.624 19.6657 163.655 19.4677C163.691 19.2413 163.746 19.0128 163.83 18.7992C164.025 18.3007 164.284 17.8389 164.683 17.4669C165.084 17.0942 165.513 16.7623 166.015 16.5358C166.203 16.4508 166.394 16.3685 166.587 16.2985C166.876 16.1937 167.17 16.0999 167.462 16.0033C167.747 15.9094 168.032 15.8156 168.319 15.7272C168.656 15.6231 168.995 15.5286 169.331 15.4232C169.619 15.332 169.904 15.2314 170.209 15.1287C170.209 14.9729 170.211 14.8104 170.209 14.6479C170.206 14.4669 170.221 14.2826 170.191 14.1065C170.132 13.7556 170.056 13.4121 169.918 13.0761C169.63 12.3777 169.085 11.9941 168.417 11.7336C168.326 11.6982 168.247 11.7071 168.156 11.7418C167.456 12.0077 166.831 12.3988 166.241 12.8544C165.775 13.2149 165.362 13.6318 164.956 14.0568C164.937 14.0766 164.924 14.1017 164.908 14.1242C164.893 14.1289 164.878 14.1337 164.864 14.1378L164.863 14.1391ZM168.372 21.7134C168.55 21.6856 168.733 21.6754 168.906 21.6271C169.385 21.4931 169.774 21.2 170.146 20.883C170.212 20.8266 170.21 20.7565 170.21 20.6831C170.21 19.1243 170.209 17.5655 170.208 16.0067C170.208 15.9645 170.203 15.9224 170.2 15.8652C170.146 15.8836 170.109 15.8924 170.074 15.9081C169.493 16.1713 168.904 16.4209 168.332 16.7024C167.633 17.0459 167.282 17.6192 167.284 18.4027C167.287 19.0182 167.283 19.6337 167.287 20.2492C167.287 20.407 167.299 20.5654 167.318 20.7219C167.375 21.2245 167.733 21.6672 168.296 21.7012C168.334 21.7726 168.335 21.7726 168.373 21.7128L168.372 21.7134Z" fill="white"/>
<path d="M141.013 24.7303C140.804 24.5854 140.601 24.4521 140.407 24.3079C140.13 24.1026 139.867 23.8774 139.595 23.6666C139.339 23.4673 139.142 23.2157 138.904 23.0021C138.654 22.7777 138.445 22.5179 138.264 22.2363C138.213 22.1575 138.179 22.069 138.134 21.9861C138.093 21.9079 138.041 21.8337 138.007 21.7521C137.941 21.5977 137.87 21.444 137.828 21.2828C137.766 21.0468 137.728 20.8047 137.678 20.5653C137.663 20.4946 137.637 20.4252 137.629 20.3545C137.622 20.2858 137.636 20.2151 137.634 20.1457C137.628 19.9818 137.613 19.8186 137.613 19.6547C137.611 17.8973 137.609 16.1399 137.614 14.3825C137.615 14.0935 137.588 13.8194 137.401 13.5725C137.689 13.3426 137.975 13.1243 138.25 12.8931C138.524 12.6619 138.812 12.4517 139.098 12.2368C139.383 12.0232 139.651 11.7879 139.929 11.5642C140.207 11.3397 140.482 11.1071 140.771 10.8983C141.062 10.6889 141.316 10.4318 141.616 10.2339C141.782 10.3794 141.935 10.5046 142.078 10.6399C142.618 11.1541 143.158 11.6696 143.694 12.1878C143.866 12.3551 144.031 12.532 144.195 12.7088C144.658 13.208 145.07 13.7391 145.299 14.392C145.448 14.8137 145.475 15.2347 145.371 15.6734C145.218 16.3229 144.919 16.8853 144.445 17.3573C143.747 18.0537 143 18.693 142.212 19.2867C141.835 19.5717 141.446 19.841 141.035 20.1376C141.046 20.2192 141.055 20.33 141.077 20.4382C141.215 21.1237 141.709 21.542 142.352 21.6923C142.803 21.7977 143.253 21.7412 143.699 21.6725C144.017 21.6236 144.332 21.5426 144.644 21.4617C144.812 21.4182 144.974 21.3447 145.139 21.2862C145.18 21.272 145.224 21.2638 145.278 21.272C143.863 22.42 142.447 23.568 141.011 24.7323L141.013 24.7303ZM141.041 19.2561C141.083 19.2317 141.114 19.2194 141.138 19.199C141.394 18.978 141.664 18.7692 141.902 18.5298C142.203 18.2278 142.446 17.8816 142.579 17.4681C142.77 16.8744 142.711 16.2984 142.459 15.7373C142.155 15.0606 141.674 14.5301 141.079 14.0962C141.073 14.0914 141.059 14.0976 141.041 14.0996V19.2568L141.041 19.2561Z" fill="white"/>
<path d="M34.7955 11.6192C35.1056 11.5953 35.4001 11.5117 35.685 11.3886C35.7361 11.3662 35.7918 11.3532 35.8802 11.3247C35.8455 11.375 35.836 11.3947 35.8217 11.4097C35.2777 11.9531 34.7363 12.4999 34.1875 13.0385C33.8692 13.3514 33.4944 13.5908 33.0741 13.735C32.8286 13.8193 32.5668 13.8703 32.2947 13.8397C32.1077 13.8186 31.9227 13.8064 31.7452 13.7397C31.412 13.6153 31.1229 13.433 30.9379 13.1181C30.8801 13.0195 30.8339 12.9141 30.7788 12.8134C30.7665 12.7917 30.7387 12.778 30.7128 12.7563C30.3694 13.0637 30.2082 13.4289 30.2782 13.8832C30.317 14.1342 30.4251 14.3498 30.5918 14.5429C30.8087 14.7939 31.0862 14.9646 31.3562 15.1462C31.9628 15.5542 32.6164 15.8725 33.2802 16.1731C33.572 16.3051 33.8637 16.4465 34.1324 16.6186C34.8417 17.0722 35.4137 17.6551 35.7395 18.446C35.8523 18.7201 35.919 19.0037 35.9523 19.303C36.0135 19.8511 35.8673 20.3537 35.6674 20.8461C35.4885 21.2882 35.2477 21.6969 34.9614 22.0805C34.5404 22.6443 34.0548 23.1401 33.4747 23.5407C33.2904 23.6679 33.1088 23.8046 32.9116 23.9086C32.6504 24.0467 32.3831 24.1827 32.1029 24.2738C31.5024 24.4697 30.891 24.6118 30.2469 24.5649C29.8613 24.537 29.507 24.4221 29.169 24.2534C28.9418 24.1405 28.7255 24.0079 28.5548 23.81C28.4127 23.6454 28.2406 23.506 28.1005 23.3394C27.9033 23.1054 27.7496 22.8415 27.6265 22.5607C27.5524 22.392 27.4823 22.222 27.4014 22.0567C27.3674 21.9866 27.3803 21.9404 27.4334 21.8962C27.717 21.6568 27.9992 21.414 28.2862 21.1787C28.646 20.8842 29.0112 20.5965 29.3716 20.3027C29.577 20.1354 29.7763 19.9599 29.9797 19.7899C30.1028 19.6872 30.2272 19.5872 30.3537 19.4893C30.3816 19.4675 30.4197 19.4587 30.4619 19.4403C30.4884 19.692 30.5054 19.928 30.5401 20.1612C30.6115 20.6366 30.757 21.0876 31.0726 21.4616C31.4874 21.952 32.022 22.2036 32.6647 22.1213C33.5937 22.003 33.7556 21.1216 33.4482 20.5571C33.3135 20.3095 33.119 20.1198 32.8823 19.962C32.1934 19.5043 31.4643 19.1187 30.7244 18.7507C30.3959 18.5875 30.0674 18.4161 29.762 18.2141C28.9439 17.6728 28.3182 16.9702 28.0094 16.0194C27.7265 15.1489 27.8686 14.3396 28.3535 13.5751C28.5331 13.2915 28.7664 13.0671 29.0316 12.8658C29.1975 12.74 29.3383 12.5822 29.4968 12.4462C29.7151 12.2578 29.9402 12.0775 30.1612 11.8919C30.417 11.6776 30.6713 11.4614 30.927 11.2478C31.1311 11.0771 31.3365 10.9084 31.5419 10.7391C31.6799 10.6248 31.818 10.5106 31.971 10.3848C32.003 10.4201 32.039 10.4528 32.0662 10.4915C32.4423 11.0322 32.932 11.4131 33.5835 11.562C33.9596 11.6477 34.3412 11.6606 34.7247 11.6239C34.7302 11.6375 34.7349 11.6504 34.7404 11.664C34.7581 11.6484 34.7757 11.6328 34.7941 11.6171L34.7955 11.6192Z" fill="white"/>
<path d="M64.5671 11.4124C64.0434 11.9368 63.5231 12.4639 62.996 12.9841C62.6458 13.3303 62.2431 13.5976 61.7691 13.7493C61.5182 13.8295 61.2645 13.8574 60.9992 13.8336C60.8068 13.8159 60.6238 13.7737 60.4456 13.7064C59.9995 13.5377 59.703 13.2147 59.5057 12.7903C59.5016 12.7815 59.4908 12.776 59.4704 12.757C59.2718 12.91 59.1256 13.1086 59.0589 13.35C58.9555 13.7227 59.014 14.0866 59.2364 14.4008C59.3649 14.5817 59.5302 14.7497 59.7104 14.8796C60.2246 15.2502 60.7673 15.5767 61.3406 15.8501C61.7385 16.0398 62.1472 16.2078 62.5356 16.4159C63.2239 16.7839 63.8101 17.2742 64.2318 17.9421C64.4637 18.31 64.6194 18.7072 64.6908 19.1357C64.7459 19.4662 64.7242 19.794 64.648 20.1205C64.4419 21.0019 63.9951 21.7534 63.4197 22.4423C62.8824 23.0857 62.2411 23.5924 61.5018 23.9794C61.0298 24.2262 60.5306 24.401 60.0063 24.499C59.8587 24.5262 59.7091 24.5513 59.5595 24.5643C58.9385 24.618 58.355 24.4881 57.8136 24.1807C57.6701 24.0991 57.5287 24.0093 57.3981 23.9086C57.3015 23.8345 57.2308 23.7284 57.1362 23.6516C56.9207 23.4768 56.7636 23.251 56.6275 23.0197C56.5038 22.8082 56.3398 22.6124 56.2868 22.36C56.2678 22.2709 56.2099 22.19 56.1773 22.103C56.1236 21.9608 56.1304 21.9377 56.2419 21.8486C56.363 21.7513 56.4888 21.6595 56.6078 21.5589C56.7479 21.4412 56.8792 21.3127 57.0206 21.1977C57.2607 21.0026 57.5076 20.8162 57.747 20.621C57.9007 20.4952 58.0428 20.3558 58.1952 20.2286C58.2836 20.1551 58.3836 20.096 58.474 20.0246C58.5515 19.9634 58.6209 19.8926 58.6957 19.8287C58.844 19.7036 58.9936 19.5798 59.1439 19.4567C59.1548 19.4478 59.1759 19.4506 59.2065 19.4458C59.2119 19.49 59.2201 19.5308 59.2221 19.5723C59.2405 20.0103 59.3071 20.4374 59.4595 20.8523C59.6227 21.2977 59.9165 21.6357 60.3069 21.8894C60.6408 22.107 61.019 22.1689 61.4114 22.1254C61.6467 22.0996 61.8507 21.9839 62.0316 21.8404C62.1602 21.7391 62.1969 21.5718 62.2588 21.4256C62.288 21.3562 62.3125 21.2814 62.3186 21.2073C62.3309 21.0515 62.3159 20.9033 62.2595 20.7489C62.135 20.4068 61.9201 20.1585 61.6188 19.9579C60.8251 19.4308 59.977 19.0058 59.1283 18.5793C58.3428 18.1849 57.6688 17.6544 57.1798 16.9131C56.8764 16.4533 56.6819 15.9501 56.6207 15.4019C56.5704 14.9496 56.6303 14.5055 56.8112 14.0879C56.9179 13.8404 57.0302 13.5874 57.2158 13.3854C57.3586 13.2297 57.5164 13.0868 57.6749 12.9461C57.9156 12.7325 58.1612 12.523 58.408 12.317C58.6046 12.1531 58.8086 11.9973 59.0072 11.8354C59.0793 11.777 59.1466 11.7117 59.2167 11.6498C59.3867 11.5002 59.5547 11.3478 59.7295 11.2036C59.9009 11.0622 60.0818 10.9316 60.2559 10.7922C60.3246 10.7371 60.381 10.6663 60.4497 10.6113C60.5395 10.5385 60.6354 10.4739 60.7394 10.3977C60.8081 10.4902 60.8734 10.5834 60.9448 10.6731C61.2903 11.1071 61.7256 11.4104 62.2663 11.5484C62.5791 11.628 62.9008 11.6532 63.2232 11.6423C63.4095 11.6362 63.5979 11.6212 63.7795 11.5838C63.9828 11.5416 64.1794 11.4695 64.3787 11.4104C64.4263 11.3961 64.4732 11.3805 64.5201 11.3655C64.5351 11.3811 64.5501 11.3975 64.565 11.4131L64.5671 11.4124Z" fill="white"/>
<path d="M155.669 19.4656C155.671 19.856 155.594 20.2335 155.463 20.5994C155.244 21.2101 154.922 21.7644 154.518 22.2704C154.169 22.7057 153.766 23.0831 153.327 23.4279C152.953 23.7204 152.544 23.9475 152.118 24.142C151.864 24.2583 151.592 24.344 151.316 24.4141C151.007 24.493 150.697 24.5474 150.382 24.5685C150.191 24.5814 149.998 24.5766 149.807 24.5637C149.715 24.5576 149.626 24.5134 149.535 24.4868C149.368 24.4386 149.194 24.4046 149.034 24.3393C148.901 24.2855 148.785 24.193 148.661 24.1203C148.461 24.0033 148.269 23.8761 148.116 23.7006C147.991 23.5571 147.873 23.4075 147.756 23.2579C147.675 23.1538 147.598 23.0471 147.525 22.9369C147.348 22.6669 147.226 22.369 147.104 22.0718C147.084 22.0222 147.079 21.9616 147.145 21.9093C147.27 21.8093 147.379 21.6875 147.5 21.5828C147.672 21.4359 147.849 21.2951 148.025 21.1523C148.157 21.0442 148.292 20.9374 148.425 20.8299C148.587 20.698 148.75 20.566 148.912 20.4334C149.23 20.175 149.547 19.9172 149.864 19.6581C149.956 19.5826 150.046 19.5044 150.168 19.401C150.174 19.5064 150.177 19.5663 150.181 19.6261C150.204 20.0567 150.267 20.4804 150.432 20.8823C150.673 21.4679 151.082 21.8827 151.699 22.0684C151.991 22.1568 152.285 22.1636 152.585 22.0745C153.067 21.931 153.355 21.4801 153.27 20.9374C153.207 20.5314 152.981 20.2321 152.649 20.007C151.894 19.4956 151.091 19.0698 150.272 18.6733C149.677 18.385 149.127 18.0354 148.662 17.562C148.152 17.0424 147.79 16.4405 147.632 15.7244C147.501 15.1354 147.572 14.5682 147.813 14.0194C147.914 13.7888 148.031 13.5637 148.191 13.3712C148.34 13.1924 148.522 13.0387 148.695 12.8816C148.846 12.7449 149.005 12.6163 149.163 12.4871C149.292 12.3817 149.426 12.2831 149.554 12.177C149.638 12.1069 149.712 12.024 149.797 11.9546C150.115 11.6934 150.436 11.4377 150.753 11.1759C150.919 11.0378 151.079 10.8909 151.244 10.7508C151.386 10.6291 151.531 10.51 151.683 10.3835C151.756 10.4815 151.822 10.5713 151.889 10.6597C152.292 11.1895 152.831 11.5118 153.481 11.6071C154.169 11.707 154.851 11.6485 155.494 11.3473C155.497 11.3459 155.504 11.3513 155.519 11.3581C155.542 11.4302 155.473 11.4581 155.436 11.4962C155.037 11.8981 154.639 12.2994 154.237 12.6979C154.077 12.8571 153.916 13.0169 153.744 13.1624C153.471 13.3937 153.174 13.5882 152.834 13.712C152.533 13.8208 152.23 13.8616 151.909 13.8317C151.667 13.8085 151.436 13.7596 151.222 13.6474C150.993 13.5277 150.8 13.3624 150.657 13.1468C150.576 13.0251 150.51 12.8945 150.428 12.7523C150.155 12.9843 149.977 13.2556 149.966 13.6263C149.949 14.154 150.194 14.5437 150.602 14.8409C151.031 15.1545 151.482 15.4408 151.956 15.6836C152.367 15.8944 152.789 16.0869 153.21 16.2766C153.58 16.4433 153.916 16.6636 154.237 16.9071C154.611 17.1914 154.93 17.5342 155.177 17.9361C155.464 18.4047 155.652 18.908 155.67 19.4643C155.662 19.4663 155.654 19.4684 155.646 19.4697C155.654 19.4684 155.662 19.467 155.67 19.4656H155.669Z" fill="white"/>
<path d="M3.89432 19.6873C3.90316 19.5866 3.92016 19.4853 3.92016 19.3846C3.9222 17.9435 3.92152 16.5024 3.92152 15.0612C3.92152 15.017 3.92152 14.9728 3.92152 14.9177C3.4951 14.9075 3.12716 15.0143 2.82383 15.3033C2.5035 15.6087 2.34164 15.993 2.26411 16.4194C2.24847 16.5071 2.2335 16.5955 2.2131 16.7139C2.18522 16.6561 2.16753 16.6241 2.15393 16.5908C1.9703 16.1399 1.83972 15.674 1.74315 15.1966C1.64317 14.6994 1.59965 14.2002 1.60985 13.6929C1.62005 13.2086 1.73499 12.753 1.96214 12.3313C2.28655 11.7294 2.80411 11.3771 3.47265 11.2438C3.61887 11.2146 3.76714 11.1955 3.90588 11.1738C3.90588 10.797 3.89908 10.4379 3.90928 10.0788C3.91336 9.93665 3.94192 9.79111 3.98205 9.6544C4.03986 9.45785 4.09971 9.2579 4.19152 9.07564C4.36359 8.73627 4.57986 8.42546 4.87979 8.17994C4.97908 8.09833 5.05525 7.99019 5.15115 7.9045C5.34226 7.73311 5.53949 7.56853 5.73467 7.40054C5.85913 7.29309 5.97815 7.17883 6.10941 7.08021C6.44266 6.83062 6.77999 6.58578 7.11868 6.34366C7.18738 6.29469 7.27035 6.26613 7.37916 6.2124C7.21186 6.65039 7.13297 7.07681 7.08604 7.50936L7.05476 7.5318C7.06428 7.53656 7.0738 7.54064 7.08332 7.5454C7.07312 8.21191 7.05543 8.87773 7.05407 9.54423C7.05067 11.9334 7.04931 14.3233 7.05407 16.7125C7.05612 17.6517 6.78067 18.5019 6.25903 19.2745C5.84893 19.8811 5.31233 20.3592 4.69072 20.7448C4.22213 21.0353 3.71885 21.2495 3.20265 21.4386C3.17341 21.4494 3.13872 21.4454 3.10676 21.4481L3.11084 21.4515C3.11968 21.4284 3.1224 21.3984 3.1394 21.3841C3.46041 21.1073 3.65968 20.7598 3.75966 20.3504C3.79094 20.2225 3.83991 20.0987 3.86915 19.9709C3.88751 19.89 3.88411 19.8043 3.89092 19.7213C3.89092 19.7104 3.89228 19.6995 3.89296 19.6886L3.89432 19.6873Z" fill="white"/>
<path d="M161.23 10.1904C161.231 10.2414 161.235 10.2918 161.235 10.3428C161.235 13.948 161.233 17.5539 161.235 21.1591C161.235 21.3156 161.255 21.474 161.282 21.6284C161.337 21.9283 161.514 22.1562 161.736 22.3554C161.769 22.3854 161.804 22.4146 161.837 22.4445C161.841 22.4473 161.84 22.4541 161.844 22.4738C161.01 23.1729 160.17 23.8762 159.324 24.5848C159.278 24.5481 159.237 24.5195 159.201 24.4862C158.817 24.1394 158.514 23.7333 158.278 23.2736C158.17 23.0641 158.08 22.8512 158.008 22.6254C157.936 22.403 157.884 22.1779 157.842 21.9508C157.813 21.7923 157.829 21.625 157.828 21.4618C157.828 19.1732 157.828 16.8847 157.826 14.5955C157.826 14.4329 157.827 14.2643 157.786 14.1099C157.724 13.878 157.631 13.6528 157.475 13.4617C157.444 13.4236 157.416 13.3828 157.374 13.3264C157.472 13.2509 157.566 13.1836 157.655 13.1088C157.744 13.0346 157.825 12.9503 157.912 12.8748C158.135 12.6844 158.359 12.4946 158.585 12.3083C158.696 12.2171 158.817 12.1376 158.929 12.0478C158.98 12.0063 159.016 11.9465 159.067 11.9029C159.243 11.7533 159.422 11.605 159.603 11.4595C159.786 11.3112 159.975 11.1691 160.157 11.0195C160.251 10.9426 160.332 10.8508 160.426 10.774C160.623 10.6121 160.821 10.4516 161.025 10.2993C161.084 10.2544 161.097 10.151 161.199 10.1591C161.209 10.1687 161.218 10.1782 161.229 10.1877L161.23 10.1904Z" fill="white"/>
<path d="M25.104 10.1897C25.1087 10.3251 25.1176 10.4604 25.1176 10.5958C25.1183 14.0146 25.1176 17.4335 25.1189 20.8524C25.1189 21.0442 25.1176 21.2367 25.1312 21.4278C25.1604 21.8447 25.3631 22.167 25.6957 22.4139C25.7093 22.4241 25.7202 22.437 25.7419 22.4588C24.8966 23.1661 24.0525 23.8721 23.2126 24.5739C22.9263 24.4529 22.7923 24.1931 22.6121 23.9822C22.3822 23.7122 22.2292 23.394 22.0605 23.0838C21.9177 22.8213 21.832 22.5418 21.783 22.2595C21.7211 21.9038 21.7069 21.5366 21.7055 21.1741C21.698 19.4732 21.7021 17.7722 21.7021 16.0713C21.7021 15.5456 21.6973 15.0198 21.7041 14.4948C21.7096 14.0629 21.579 13.6848 21.2886 13.3495C21.3185 13.3189 21.3471 13.2856 21.3797 13.257C21.7878 12.902 22.1959 12.547 22.6066 12.1954C22.6855 12.128 22.7801 12.0798 22.861 12.0151C22.9474 11.9458 23.0269 11.8682 23.1099 11.7934C23.2412 11.6744 23.369 11.552 23.5044 11.4377C23.601 11.3561 23.7105 11.2888 23.8084 11.2085C23.8934 11.1392 23.9703 11.0596 24.0532 10.9875C24.2096 10.8522 24.364 10.7141 24.5259 10.5856C24.7014 10.4455 24.885 10.3149 25.0645 10.1809C25.0775 10.1836 25.0911 10.187 25.104 10.1897Z" fill="white"/>
<path d="M50.3931 21.555C50.3924 19.227 50.3883 16.899 50.3938 14.571C50.3951 14.1112 50.2843 13.7011 49.966 13.3468C49.9945 13.3169 50.019 13.2883 50.0462 13.2632C50.2611 13.0714 50.4733 12.8755 50.6944 12.6912C50.995 12.4402 51.3024 12.1981 51.6071 11.9526C51.7492 11.8377 51.8941 11.7261 52.0328 11.6078C52.1294 11.5255 52.213 11.4276 52.311 11.3473C52.4844 11.2045 52.6653 11.0712 52.8408 10.9304C52.9312 10.8576 53.0149 10.7767 53.1026 10.6998C53.2597 10.5618 53.4161 10.4224 53.5766 10.2877C53.6345 10.2387 53.7018 10.2006 53.795 10.1367V10.3088C53.795 13.9365 53.7956 17.5634 53.795 21.1911C53.795 21.7658 54.0037 22.1249 54.4254 22.4602C53.58 23.1682 52.7374 23.8741 51.8975 24.578C51.7268 24.4808 51.5867 24.3726 51.4948 24.2115C51.4894 24.2019 51.4806 24.1945 51.4724 24.1863C51.163 23.8544 50.9372 23.4695 50.7447 23.0614C50.6175 22.7907 50.5407 22.5064 50.4659 22.2194C50.4278 22.0719 50.4264 21.9249 50.4176 21.7767C50.4135 21.7121 50.387 21.6488 50.3713 21.5856C50.3788 21.5754 50.387 21.5652 50.3944 21.5557L50.3931 21.555Z" fill="white"/>
<path d="M78.3323 19.1997C78.7125 18.8392 78.9111 18.3944 78.9941 17.9C79.0396 17.628 79.0594 17.3498 79.0621 17.0737C79.0709 16.2317 79.0655 15.3891 79.0655 14.5471C79.0655 14.4927 79.0655 14.4383 79.0655 14.3873C78.3833 14.3029 77.7957 14.5695 77.4849 15.2251C77.3945 15.4156 77.338 15.6155 77.3115 15.8243C77.304 15.8821 77.2891 15.9386 77.2782 15.9957H77.2428C77.221 15.9365 77.2034 15.876 77.1768 15.8189C76.9987 15.4387 76.8694 15.0422 76.781 14.6328C76.694 14.2322 76.628 13.8289 76.6341 13.4174C76.6375 13.159 76.66 12.9012 76.7076 12.6476C76.7266 12.5442 76.7769 12.4462 76.8116 12.3456C76.9232 12.0212 77.0891 11.7281 77.3394 11.4914C77.6781 11.1717 78.0712 10.9439 78.5309 10.8426C78.701 10.8052 78.871 10.7712 79.0587 10.7317C79.0614 10.678 79.0655 10.6236 79.0668 10.5698C79.0723 10.3386 79.0573 10.1053 79.0879 9.87749C79.1281 9.57893 79.1995 9.28444 79.3096 9.00152C79.464 8.60434 79.6817 8.24661 79.9734 7.93512C80.2196 7.67192 80.4624 7.406 80.7229 7.15708C81.0541 6.84083 81.3935 6.53275 81.7839 6.28655C81.9682 6.17025 82.145 6.04239 82.3279 5.92405C82.366 5.89957 82.415 5.89209 82.4701 5.87305C82.2606 6.69121 82.1708 7.50325 82.1702 8.32482C82.1674 10.4447 82.1661 12.5639 82.1702 14.6838C82.1722 15.7651 81.7961 16.7003 81.1031 17.5178C80.7045 17.9877 80.2108 18.3359 79.6789 18.642C79.2886 18.8664 78.8655 19.0113 78.4595 19.1983C78.4289 19.2126 78.3861 19.2004 78.333 19.2004L78.3323 19.1997Z" fill="white"/>
<path d="M0.689056 4.29114C0.708779 4.22109 0.71558 4.1728 0.735303 4.13063C0.865883 3.85315 0.988982 3.57023 1.13588 3.30159C1.27054 3.05539 1.43241 2.82348 1.58407 2.58612C1.65956 2.46846 1.72825 2.344 1.82075 2.24131C1.98057 2.06448 2.11727 1.86997 2.3111 1.71695C2.49405 1.57277 2.67972 1.43266 2.86879 1.29664C3.07758 1.14634 3.31357 1.05657 3.56249 0.998758C3.76516 0.951151 3.96647 0.896062 4.17119 0.855256C4.55068 0.779765 4.91998 0.846415 5.28587 0.94639C5.6885 1.05657 6.04827 1.26128 6.40056 1.47619C6.66104 1.63465 6.91132 1.81148 7.1684 1.97539C7.29218 2.05428 7.4214 2.12501 7.54994 2.19642C8.00153 2.44942 8.47964 2.50587 8.97747 2.37393C9.16042 2.32564 9.33793 2.25491 9.51884 2.19574C9.53992 2.18894 9.56372 2.19166 9.58481 2.18418C9.68274 2.14745 9.78204 2.11277 9.87725 2.06992C10.0344 1.99919 10.1894 1.92234 10.3764 1.83392C10.3207 1.92914 10.284 1.99579 10.2438 2.0604C9.84393 2.70718 9.39166 3.31383 8.83601 3.83683C8.29873 4.34215 7.70092 4.75021 6.98613 4.96988C6.31555 5.17527 5.66741 5.1161 5.03696 4.82094C4.64454 4.63731 4.28612 4.39995 3.93859 4.1422C3.54753 3.85179 3.1143 3.6498 2.61783 3.61035C2.28866 3.58451 1.97649 3.65864 1.67045 3.76746C1.35964 3.87831 1.06855 4.02726 0.800593 4.22109C0.773389 4.24081 0.744145 4.25645 0.691097 4.28978L0.689056 4.29114Z" fill="white"/>
<path d="M75.6051 4.2136C75.6439 4.08778 75.6799 3.96468 75.7493 3.84703C75.8554 3.66612 75.9254 3.46549 76.0261 3.28118C76.1213 3.10775 76.2349 2.94453 76.3423 2.77858C76.4124 2.67113 76.4967 2.57115 76.5566 2.45893C76.7041 2.18281 76.9014 1.94682 77.138 1.74687C77.3176 1.5952 77.5135 1.46054 77.71 1.33064C78.0786 1.08649 78.4955 0.957947 78.9247 0.874974C79.1219 0.836888 79.3287 0.821926 79.5293 0.832808C79.9503 0.855931 80.3515 0.97699 80.7222 1.17286C81.0412 1.34153 81.3459 1.53875 81.6546 1.72578C81.9103 1.88085 82.1599 2.04747 82.4197 2.19709C82.8679 2.45417 83.3454 2.49974 83.8473 2.38344C84.324 2.27327 84.779 2.11412 85.1959 1.85364C85.1986 1.87541 85.2014 1.89785 85.2041 1.91961C84.7062 2.76226 84.1139 3.52738 83.3528 4.15171C82.8625 4.55365 82.3204 4.86174 81.6988 5.01612C81.422 5.08481 81.1384 5.12902 80.8582 5.09706C80.5107 5.05761 80.1747 4.95559 79.8571 4.80053C79.4592 4.60602 79.0927 4.36118 78.7377 4.10002C78.4751 3.90687 78.1915 3.76133 77.876 3.67768C77.421 3.5573 76.9809 3.60967 76.545 3.76881C76.2186 3.88783 75.9193 4.0565 75.6309 4.24625C75.6228 4.23604 75.6146 4.22516 75.6058 4.21496L75.6051 4.2136Z" fill="white"/>
<path d="M159.516 4.94409C159.856 5.39432 160.132 5.86223 160.498 6.26349C160.868 6.66815 161.308 6.9946 161.716 7.38362C161.65 7.44347 161.587 7.50536 161.52 7.56249C161.12 7.9039 160.706 8.23307 160.379 8.64793C160.143 8.94718 159.926 9.26071 159.702 9.56879C159.646 9.64497 159.595 9.72318 159.529 9.81703C159.473 9.75038 159.422 9.69597 159.379 9.63476C159.154 9.31784 158.931 8.99887 158.708 8.68058C158.698 8.66698 158.687 8.65337 158.675 8.64181C158.417 8.38405 158.161 8.12357 157.898 7.87058C157.768 7.74544 157.625 7.63254 157.486 7.51692C157.435 7.47476 157.379 7.43939 157.315 7.3945C157.336 7.36662 157.352 7.32853 157.379 7.31017C157.593 7.17483 157.734 6.9538 157.945 6.81982C158.196 6.65999 158.371 6.424 158.576 6.21997C158.787 6.00913 158.946 5.74457 159.124 5.5011C159.254 5.32291 159.378 5.14064 159.517 4.94409H159.516Z" fill="white"/>
<path d="M25.6284 7.39239C24.7136 8.05005 23.9961 8.8621 23.4214 9.82512C23.3412 9.72651 23.2752 9.65238 23.2174 9.57144C23.1202 9.43542 23.0215 9.30144 22.9386 9.15386C22.8468 8.98996 22.6937 8.86142 22.5876 8.70363C22.4373 8.48056 22.2421 8.30305 22.0483 8.12282C21.8654 7.9528 21.6797 7.78617 21.4906 7.62363C21.3947 7.54134 21.2886 7.47129 21.1744 7.38695C21.2696 7.30262 21.3458 7.23121 21.426 7.16456C21.643 6.98365 21.8708 6.81499 22.0762 6.62184C22.2605 6.44909 22.4258 6.25458 22.5883 6.06075C22.8141 5.79211 23.0107 5.50103 23.2052 5.20926C23.263 5.12221 23.3344 5.044 23.3942 4.96851C23.7322 5.41193 24.0505 5.85468 24.396 6.27566C24.7436 6.69937 25.1897 7.02378 25.6284 7.39307V7.39239Z" fill="white"/>
<path d="M54.3049 7.39367C53.4024 8.05609 52.6802 8.85997 52.1096 9.82095C52.0681 9.77267 52.0388 9.7407 52.013 9.7067C51.9191 9.58224 51.8239 9.45914 51.7355 9.33196C51.641 9.19662 51.5566 9.05516 51.4621 8.9205C51.4145 8.85249 51.3533 8.794 51.2968 8.73211C51.1159 8.53148 50.9425 8.32337 50.7507 8.13362C50.5644 7.94931 50.3596 7.78337 50.1604 7.61334C50.072 7.53785 49.9747 7.47256 49.8666 7.39163C49.9768 7.29437 50.0733 7.20596 50.1733 7.12163C50.2243 7.07878 50.2835 7.04545 50.3331 7.00193C50.5045 6.8523 50.6779 6.70336 50.8432 6.54694C50.9323 6.46261 51.0037 6.35923 51.0894 6.27014C51.358 5.99129 51.5702 5.67029 51.7899 5.35472C51.8838 5.22006 51.9851 5.09152 52.0892 4.95142C52.4285 5.40436 52.7223 5.86207 53.0875 6.2715C53.4528 6.68092 53.8833 7.01213 54.3043 7.39299L54.3049 7.39367Z" fill="white"/>
<path d="M64.5669 11.4124C64.552 11.3968 64.537 11.3804 64.5221 11.3648C64.5574 11.3009 64.618 11.2907 64.6928 11.3002C64.6506 11.3376 64.6091 11.375 64.5669 11.4124Z" fill="white"/>
<path d="M7.01732 19.5452L7.02209 19.6411C6.98264 19.6574 6.94319 19.6737 6.89287 19.6941C6.87994 19.5853 6.9772 19.5894 7.01732 19.5452Z" fill="white"/>
<path d="M164.846 13.2092C164.846 13.2541 164.846 13.2983 164.846 13.3432C164.789 13.2936 164.789 13.2589 164.846 13.2092Z" fill="white"/>
<path d="M155.558 11.3234C155.581 11.305 155.605 11.2867 155.628 11.2683C155.636 11.2792 155.643 11.2894 155.65 11.3003C155.619 11.3254 155.589 11.3513 155.557 11.3764C155.557 11.3588 155.557 11.3404 155.557 11.3227L155.558 11.3234Z" fill="white"/>
<path d="M88.8311 21.2795C88.8739 21.3122 88.8801 21.3469 88.8345 21.3822C88.7787 21.3496 88.7808 21.3156 88.8311 21.2795Z" fill="white"/>
<path d="M85.2027 1.91905C85.2 1.89729 85.1973 1.87484 85.1946 1.85308C85.2089 1.84084 85.2231 1.82792 85.2381 1.81567C85.2469 1.82179 85.2558 1.82792 85.2646 1.83404C85.2442 1.8626 85.2238 1.89117 85.2034 1.91973L85.2027 1.91905Z" fill="white"/>
<path d="M6.20471 23.2912C6.2462 23.2395 6.25232 23.3021 6.27408 23.313C6.25096 23.3055 6.22784 23.2987 6.20471 23.2912Z" fill="white"/>
<path d="M34.7956 11.6191C34.7779 11.6348 34.7602 11.6504 34.7418 11.6661C34.7364 11.6525 34.7316 11.6395 34.7262 11.6259C34.7493 11.6239 34.7724 11.6212 34.7956 11.6191Z" fill="white"/>
<path d="M25.104 10.1897C25.0911 10.187 25.0775 10.1836 25.0645 10.1809C25.0829 10.168 25.1006 10.1557 25.119 10.1428C25.1142 10.1585 25.1094 10.1741 25.1047 10.1897H25.104Z" fill="white"/>
<path d="M113.618 14.8C113.653 14.8137 113.698 14.8239 113.645 14.8708C113.636 14.847 113.627 14.8239 113.618 14.8Z" fill="white"/>
<path d="M107.426 11.6819C107.424 11.7009 107.422 11.72 107.42 11.7383C107.4 11.7193 107.38 11.7002 107.36 11.6819C107.382 11.6819 107.404 11.6819 107.425 11.6819H107.426Z" fill="white"/>
<path d="M12.7132 11.2254C12.6996 11.2288 12.6853 11.2315 12.6717 11.2349C12.671 11.2138 12.6697 11.1934 12.669 11.1724C12.6839 11.19 12.6982 11.2077 12.7132 11.2254Z" fill="white"/>
<path d="M47.4726 14.2942C47.4726 14.2826 47.4719 14.2711 47.4712 14.2595C47.4855 14.265 47.4998 14.2711 47.5141 14.2765C47.5005 14.2826 47.4862 14.2888 47.4726 14.2949V14.2942Z" fill="white"/>
<path d="M7.08539 7.54606C7.07587 7.54129 7.06635 7.53721 7.05682 7.53245C7.06703 7.52497 7.07791 7.51749 7.08811 7.51001C7.08743 7.52225 7.08675 7.53381 7.08539 7.54606Z" fill="white"/>
<path d="M87.7497 1.57757C87.7321 1.58845 87.7144 1.60001 87.6967 1.61089L87.6858 1.59117C87.7008 1.57893 87.7157 1.56669 87.7307 1.55444C87.7361 1.5626 87.7423 1.57009 87.7497 1.57689V1.57757Z" fill="white"/>
<path d="M9.97589 24.1582C9.98201 24.1446 9.98813 24.131 9.99425 24.1174C10.0004 24.131 10.0065 24.1446 10.0126 24.1582C10.0004 24.1582 9.98813 24.1582 9.97589 24.1582Z" fill="white"/>
<path d="M44.0429 24.9077C44.064 24.9077 44.0844 24.9091 44.1055 24.9098C44.0837 24.9315 44.062 24.9676 44.0429 24.9077Z" fill="white"/>
<path d="M164.863 14.1391C164.877 14.1343 164.892 14.1296 164.906 14.1255C164.892 14.1302 164.877 14.135 164.863 14.1391Z" fill="white"/>
<path d="M129.185 12.8516C129.171 12.8495 129.156 12.8475 129.143 12.8455C129.157 12.8475 129.171 12.8495 129.185 12.8516Z" fill="white"/>
<path d="M19.3947 16.327C19.3865 16.3236 19.3783 16.3195 19.3695 16.3161C19.379 16.3106 19.3885 16.3045 19.3974 16.2991C19.396 16.3086 19.3953 16.3181 19.394 16.327H19.3947Z" fill="white"/>
<path d="M155.669 19.4657C155.661 19.4671 155.653 19.4684 155.644 19.4698C155.653 19.4678 155.661 19.4657 155.669 19.4644V19.4657Z" fill="white"/>
<path d="M75.6303 4.24491C75.6181 4.24967 75.6052 4.25511 75.5929 4.25987C75.597 4.24423 75.6011 4.22927 75.6052 4.21362C75.6133 4.22382 75.6215 4.23471 75.6303 4.24491Z" fill="white"/>
<path d="M3.89441 19.6873C3.89441 19.6981 3.89305 19.709 3.89237 19.7199C3.88421 19.7117 3.87605 19.7043 3.86789 19.6961C3.87673 19.6934 3.88557 19.69 3.89441 19.6873Z" fill="white"/>
<path d="M155.558 11.3235C155.558 11.3412 155.558 11.3595 155.558 11.3772C155.546 11.3759 155.533 11.3745 155.521 11.3725C155.533 11.3561 155.546 11.3398 155.558 11.3235Z" fill="white"/>
<path d="M125.58 21.3162C125.582 21.3257 125.582 21.3352 125.58 21.3447C125.572 21.342 125.563 21.3393 125.555 21.3366C125.563 21.3298 125.571 21.323 125.579 21.3168L125.58 21.3162Z" fill="white"/>
<path d="M3.10879 21.4475C3.10811 21.4557 3.10675 21.4638 3.10607 21.4727C3.09926 21.4686 3.09246 21.4652 3.08566 21.4611C3.0945 21.4577 3.10335 21.4543 3.11287 21.4509L3.10879 21.4475Z" fill="white"/>
<path d="M50.393 21.5549C50.3855 21.5651 50.3774 21.5753 50.3699 21.5849C50.3774 21.5747 50.3855 21.5645 50.393 21.5549Z" fill="white"/>
<path d="M87.7308 1.55518C87.7451 1.55586 87.76 1.55654 87.7743 1.55722C87.7661 1.56402 87.758 1.57082 87.7505 1.57762C87.743 1.57082 87.7369 1.56334 87.7315 1.55518H87.7308Z" fill="white"/>
<path d="M35.8997 11.3198V11.3296C35.8926 11.3276 35.8861 11.3263 35.8789 11.3244C35.8822 11.3211 35.8854 11.3166 35.8893 11.3153C35.8919 11.3146 35.8958 11.3179 35.8991 11.3198H35.8997Z" fill="white"/>
<path d="M73.0866 24.1434L73.0778 24.1481L73.0792 24.1379L73.0866 24.1434Z" fill="white"/>
<path d="M168.295 21.7012C168.321 21.7053 168.346 21.7087 168.372 21.7127C168.334 21.7726 168.333 21.7726 168.295 21.7012Z" fill="white"/>
</svg>
