<svg width="71" height="31" viewBox="0 0 71 31" fill="none" xmlns="http://www.w3.org/2000/svg">
<path fill-rule="evenodd" clip-rule="evenodd" d="M24.4295 1.15377C22.9779 1.60052 21.7293 2.85986 21.3316 4.27901C20.8036 6.16225 21.5576 7.7118 23.6255 8.99325C25.7378 10.3021 26.2993 10.8277 26.2993 11.4966C26.2993 11.9388 26.1531 12.0811 25.6975 12.0811C25.3665 12.0811 24.9685 11.9589 24.8129 11.8094C24.6101 11.6147 24.2964 11.9522 23.7053 13.0002C22.952 14.3357 22.9182 14.4892 23.3159 14.7683C23.9905 15.242 26.4226 15.6465 27.466 15.4586C29.6872 15.0583 31.4115 12.9432 31.1894 10.8911C31.0284 9.40407 30.5064 8.76159 28.2939 7.32787C26.3891 6.0934 26.0377 5.69841 26.0377 4.79084C26.0377 4.25941 26.8425 3.93302 27.5903 4.16091C28.0189 4.29157 28.1667 4.10136 28.555 2.91815C28.8737 1.94726 28.9302 1.44121 28.7403 1.2588C28.2761 0.813051 25.7381 0.750988 24.4295 1.15377ZM53.8666 1.00024C50.6472 1.79073 49.1189 5.16346 50.895 7.55853C51.2213 7.99849 52.2862 8.84978 53.2619 9.45031C55.0296 10.5383 55.6576 11.3768 55.1034 11.9089C54.8923 12.1117 54.606 12.1137 54.0626 11.9167C53.3263 11.6499 53.2996 11.6715 52.5803 13.1165C52.1776 13.9258 51.9047 14.6425 51.974 14.709C52.0436 14.7756 52.844 15.0131 53.753 15.2367C56.621 15.9423 58.6224 15.1827 59.6884 12.9846C60.4349 11.4449 60.4508 11.0122 59.8111 9.65961C59.4364 8.86687 58.8825 8.34826 57.4784 7.47636C55.2701 6.10445 54.6421 5.33081 55.088 4.53103C55.3347 4.08805 55.5566 4.00814 56.2434 4.11518C57.0768 4.24509 57.1022 4.22046 57.5491 2.85936C57.7997 2.09576 57.9047 1.37488 57.7822 1.25729C57.4528 0.940945 54.8135 0.767572 53.8666 1.00024ZM1.92894 1.44524L0.191559 1.54951L0.317152 4.11418C0.386229 5.52478 0.579329 9.56212 0.746264 13.0861L1.04978 19.4934L6.28285 19.4725C11.4235 19.4522 11.5402 19.4399 12.8883 18.778C14.7829 17.8479 15.6477 16.5506 15.7884 14.4279C15.9211 12.4298 15.3672 10.8943 14.1408 9.86037C13.6604 9.45533 13.1285 9.07944 12.9589 9.02517C12.7648 8.9631 12.9982 8.43017 13.5877 7.58893C14.32 6.54367 14.5249 6.00269 14.5249 5.11296C14.5249 2.76337 11.9021 1.54247 6.57537 1.41207C4.97536 1.37312 2.88449 1.38795 1.92894 1.44524ZM16.2312 1.51936C16.1218 1.68947 16.1187 4.70516 16.2241 8.22112L16.4162 14.6138L18.4141 14.5409L20.4121 14.4681L20.5814 8.06081C20.6746 4.53681 20.7282 1.62992 20.701 1.60102C20.6738 1.57212 19.7017 1.47237 18.5408 1.3794C16.9918 1.25528 16.3772 1.29247 16.2312 1.51936ZM40.9781 1.46408L39.0418 1.55152L39.2056 4.30313L39.3697 7.05449L38.2637 6.38763C37.6556 6.02078 36.0101 5.00667 34.6068 4.13428L32.0557 2.54779V8.81184V15.0759L34.4106 15.0724L36.7654 15.0689V13.1183V11.1675L40.5586 13.0148L44.3516 14.8621L44.1998 8.38343C44.1161 4.82024 44.0025 1.76359 43.947 1.59072C43.8918 1.4181 43.6367 1.299 43.3803 1.32664C43.1241 1.35403 42.043 1.41584 40.9781 1.46408ZM45.142 7.36983C45.1438 10.721 45.2166 13.7176 45.3032 14.0284C45.4484 14.5487 45.6122 14.5937 47.3545 14.5937H49.2481L49.4172 12.6713C49.5103 11.614 49.5865 8.68948 49.5865 6.17255V1.59625L48.3724 1.43644C47.7049 1.3485 46.7041 1.27664 46.1483 1.27664H45.1383L45.142 7.36983ZM7.57384 5.58634C8.83449 6.13787 8.7505 7.54571 7.41737 8.2078C6.98251 8.42364 6.59448 8.56384 6.55497 8.51912C6.51546 8.47439 6.40268 7.73115 6.30456 6.8673C6.10885 5.14663 6.24805 5.00617 7.57384 5.58634ZM9.0302 13.3022C9.38998 13.5562 9.72018 14.0507 9.76414 14.401C9.87194 15.2613 8.70392 16.1538 7.60498 16.0508C6.80798 15.9759 6.80589 15.9719 6.72792 14.2457L6.64968 12.5157L7.51288 12.6783C7.98778 12.7675 8.67043 13.0484 9.0302 13.3022Z" fill="white"/>
<path fill-rule="evenodd" clip-rule="evenodd" d="M61.2716 13.2724C60.9866 13.7156 53.7729 28.7368 53.7734 28.8866C53.7742 29.1381 58.7532 30.7497 58.9489 30.5618C59.0473 30.4673 59.31 29.917 59.5324 29.3388C59.7548 28.7607 60.0805 28.2989 60.2561 28.3127C60.4319 28.3265 61.5782 28.3546 62.8033 28.3755L65.0308 28.4132L65.6108 29.6067C65.9298 30.263 66.2121 30.8371 66.238 30.8824C66.2639 30.9273 67.1494 30.3695 68.2057 29.6424C69.262 28.9152 70.1555 28.3039 70.1911 28.2835C70.2646 28.2418 61.7703 13.3955 61.5539 13.1875C61.4765 13.1134 61.3496 13.1516 61.2716 13.2724ZM31.1715 16.5693C30.6998 17.3768 30.3559 19.9948 30.3583 22.7597C30.3607 25.6505 30.4295 26.1591 30.9572 27.1822C32.2312 29.6527 33.9605 30.7733 36.5231 30.7894C37.9928 30.7987 38.4303 30.6891 39.5282 30.0381C42.1801 28.4649 43.156 24.661 42.1413 19.8523C41.4961 16.7944 41.6167 16.9042 39.2017 17.1736C38.0776 17.2989 37.1202 17.4371 37.0742 17.4809C37.0281 17.5246 37.2387 18.3327 37.5425 19.2767C38.6561 22.7386 38.5007 25.2673 37.1377 25.8636C36.178 26.2835 35.0673 25.6681 34.6633 24.4927C34.3082 23.4592 34.4817 20.9873 35.0563 18.8955C35.3281 17.9058 35.3418 17.5565 35.1105 17.4894C32.4583 16.721 31.2482 16.4381 31.1715 16.5693ZM15.3786 22.1944C14.4953 25.2693 13.7357 27.9948 13.6907 28.2514C13.6256 28.6237 14.0044 28.8614 15.5715 29.4303C16.6508 29.822 17.665 30.1492 17.8254 30.1575C17.986 30.1655 18.3311 29.1577 18.5949 27.9106C18.8579 26.6669 19.1428 25.6493 19.2281 25.6493C19.3137 25.6493 19.5816 25.9601 19.8236 26.3402C20.0659 26.7204 20.663 27.478 21.151 28.0237L22.038 29.0165L23.0344 27.5752C23.5823 26.7827 24.1145 26.2229 24.2168 26.3314C24.3191 26.44 24.6686 27.3202 24.9936 28.2875C25.3186 29.2549 25.6289 30.1225 25.6831 30.2155C25.8325 30.471 29.9624 28.6215 29.9624 28.2994C29.9624 28.1453 29.1468 25.7618 28.1499 23.0024C27.153 20.2433 26.2574 17.6748 26.1593 17.2947C26.0612 16.9145 25.9052 16.6067 25.8131 16.6107C25.7208 16.6145 24.8209 17.7977 23.8136 19.2397C22.8062 20.682 21.9231 21.8654 21.8512 21.8697C21.7792 21.874 20.7195 20.6915 19.4963 19.242C18.2731 17.7924 17.2076 16.6057 17.1286 16.605C17.0496 16.6042 16.262 19.1194 15.3786 22.1944ZM43.9609 16.8243L43.1759 16.9854L43.1061 23.2969L43.0362 29.6087L43.6294 29.7657C45.2618 30.1977 47.9422 30.2203 49.5864 29.816C52.8838 29.0052 54.2904 27.4121 54.5018 24.25C54.7368 20.7363 53.5638 18.3284 51.0752 17.2158C49.919 16.6987 49.3483 16.6127 47.2315 16.6359C45.8644 16.6509 44.3926 16.7356 43.9609 16.8243ZM49.8481 21.629C50.2178 21.984 50.3714 22.4665 50.3714 23.2735C50.3714 24.8203 49.5406 25.6493 47.9906 25.6493H46.8943L47.0609 23.9532C47.1528 23.0203 47.2287 22.0026 47.2297 21.6918C47.2313 21.2001 47.3679 21.1265 48.2781 21.1265C48.976 21.1265 49.4993 21.2941 49.8481 21.629ZM63.1254 24.7776C63.0903 24.8032 62.6311 24.7726 62.105 24.7095L61.1484 24.5947L61.5565 23.4447L61.9645 22.2949L62.5767 23.513C62.9135 24.1829 63.1605 24.752 63.1254 24.7776Z" fill="white"/>
</svg>
