<svg width="107" height="25" viewBox="0 0 107 25" fill="none" xmlns="http://www.w3.org/2000/svg">
<path d="M91.4863 12.6236C92.3924 11.8632 93.2715 11.126 94.1793 10.3642C95.0216 10.9978 95.2342 11.9172 95.3259 12.956C96.359 12.0816 97.3575 11.2368 98.3854 10.3671C99.1224 11.245 100.108 11.8771 100.599 13.0284C101.652 12.1374 102.683 11.2641 103.752 10.3589C104.303 10.9587 104.874 11.5117 105.364 12.1307C105.939 12.8587 106.187 13.7249 106.184 14.6656C106.178 16.7076 106.16 18.7497 106.191 20.7913C106.209 21.9821 105.762 22.9211 104.895 23.6804C104.316 24.1875 103.674 24.5909 102.894 24.885C102.894 24.6897 102.894 24.5512 102.894 24.4127C102.894 21.1767 102.891 17.9407 102.897 14.7047C102.898 14.2494 102.838 13.8342 102.392 13.6109C101.896 13.3626 101.404 13.4532 100.939 13.7089C100.872 13.7458 100.824 13.8811 100.824 13.9713C100.818 16.4072 100.817 18.8431 100.821 21.2793C100.822 21.7502 101.035 22.1267 101.423 22.4491C100.61 23.1459 99.8149 23.8281 98.9911 24.5345C98.8633 24.4162 98.7355 24.3161 98.6291 24.196C97.9233 23.3995 97.5651 22.4655 97.563 21.3915C97.5588 19.1947 97.549 16.9978 97.5483 14.8006C97.5483 14.303 97.5154 13.8279 96.9917 13.5924C96.4308 13.3402 95.9081 13.4919 95.419 13.8026C95.3514 13.8456 95.3077 13.9795 95.3073 14.0715C95.3017 16.5311 95.2881 18.9915 95.322 21.4508C95.3266 21.7797 95.5787 22.1053 95.7453 22.502C94.9985 23.1256 94.1674 23.8192 93.2792 24.5608C93.0341 24.2667 92.7743 24.0092 92.5786 23.7091C92.1186 23.0045 91.9148 22.2119 91.9131 21.3699C91.9078 18.9219 91.9043 16.474 91.9124 14.0264C91.9134 13.5207 91.8343 13.0533 91.4863 12.6236Z" fill="white"/>
<path d="M38.3349 10.3589C39.0057 10.8451 39.2473 11.4129 39.47 13.0251C39.9918 12.5714 40.4917 12.1371 40.991 11.7021C41.4953 11.2628 41.9985 10.8225 42.5234 10.3642C43.4546 11.3522 44.5321 12.2119 44.8076 13.6808C44.8706 14.0159 44.9042 14.3627 44.9055 14.7041C44.9146 16.7101 44.884 18.7167 44.9197 20.722C44.9412 21.9444 44.5126 22.9094 43.6456 23.6894C43.0842 24.1947 42.4584 24.5841 41.723 24.885C41.723 24.7091 41.723 24.5718 41.723 24.4348C41.723 21.2061 41.723 17.9777 41.723 14.749C41.723 13.6999 41.0912 13.2236 40.1317 13.5509C40.0248 13.5873 39.9235 13.6416 39.8185 13.6844C39.5225 13.8048 39.4158 14.0082 39.4185 14.3602C39.4364 16.5561 39.4353 18.752 39.4222 20.9479C39.4189 21.5171 39.4552 22.0457 39.982 22.3999C39.1353 23.1273 38.3235 23.8243 37.4999 24.5315C36.6572 23.8077 36.2383 22.866 36.1741 21.7735C36.1129 20.7326 36.1344 19.686 36.1307 18.6415C36.125 17.0985 36.1219 15.5554 36.1337 14.0124C36.1378 13.5106 36.0698 13.0446 35.7297 12.6099C36.6067 11.8521 37.4737 11.1029 38.3349 10.3589Z" fill="white"/>
<path d="M89.6454 17.3103C89.6454 18.1828 89.6355 19.0556 89.6478 19.9281C89.6652 21.1839 89.1753 22.2001 88.2434 23.0118C86.3081 24.6978 83.062 24.6619 81.1653 22.9339C80.2912 22.1378 79.8385 21.1537 79.8449 19.9559C79.8537 18.2823 79.847 16.6088 79.847 14.9352C79.847 12.9072 80.8001 11.4566 82.7022 10.7683C84.8535 9.98963 86.8453 10.2954 88.5422 11.9121C89.2901 12.6246 89.6443 13.5404 89.645 14.5843C89.6461 15.4934 89.6454 16.4019 89.6454 17.3103ZM83.1832 17.434C83.1623 17.434 83.1411 17.434 83.1203 17.434C83.1203 18.3307 83.1044 19.2277 83.1249 20.1237C83.1436 20.9258 83.2171 21.7254 83.5861 22.4589C83.8276 22.9392 84.1942 23.2582 84.7575 23.2535C85.3042 23.2493 85.7064 22.9545 85.8893 22.4674C86.0881 21.938 86.2887 21.3727 86.3057 20.8177C86.3685 18.7637 86.3717 16.7073 86.3636 14.6515C86.3604 13.8743 86.2463 13.0999 85.8847 12.3924C85.6449 11.9234 85.314 11.5622 84.737 11.5668C84.1769 11.5711 83.8149 11.9089 83.6274 12.3835C83.4282 12.888 83.2319 13.4263 83.2026 13.9593C83.1394 15.1144 83.1832 16.2753 83.1832 17.434Z" fill="white"/>
<path d="M78.585 20.9793C78.6491 21.3883 78.6703 21.7439 78.2443 22.0318C77.7287 22.3808 77.2446 22.7823 76.7817 23.1987C75.1056 24.7052 71.6939 24.7038 69.8645 22.5029C68.6796 21.0776 68.2364 19.4206 68.206 17.6194C68.1809 16.1324 68.3912 14.6915 69.1096 13.3604C70.6807 10.4492 73.6241 9.94723 75.7964 10.6295C77.599 11.1957 78.6377 12.7739 78.432 14.5456C78.3285 15.4381 77.6857 16.087 76.8534 16.1441C76.2045 16.1889 75.6499 16.0082 75.3012 15.4363C74.9272 14.8225 74.9537 14.1743 75.2955 13.5616C75.4614 13.2642 75.7179 13.015 75.9415 12.7505C76.2629 12.37 76.2267 12.1169 75.8014 11.8439C74.7799 11.1882 73.3726 11.5106 72.7387 12.5531C72.3521 13.1896 72.1916 13.9014 72.1081 14.6269C71.8975 16.4505 71.8785 18.2722 72.288 20.0741C72.3819 20.488 72.5363 20.8998 72.7316 21.2775C73.245 22.27 74.1321 22.6655 75.3034 22.4908C76.4173 22.325 77.3829 21.8401 78.2694 21.1756C78.3553 21.111 78.4424 21.0478 78.5298 20.985C78.5374 20.9797 78.551 20.9825 78.585 20.9793Z" fill="white"/>
<path d="M30.1836 10.3589C31.1253 11.7786 32.3883 11.7747 33.8127 11.3913C33.1141 12.0554 32.4392 12.7492 31.7084 13.3721C31.2609 13.7534 30.6955 13.8317 30.1179 13.6832C29.5932 13.5485 29.2376 13.2113 29.0267 12.6988C28.363 13.2324 28.405 14.1756 29.1667 14.7015C29.8653 15.184 30.6284 15.5642 31.3541 16.0055C31.8528 16.3088 32.3751 16.5903 32.8175 16.9691C33.4619 17.5211 33.8819 18.2568 33.8917 19.1471C33.8968 19.6088 33.8283 20.1082 33.6554 20.529C32.8954 22.3776 31.6002 23.6329 29.6989 24.1337C28.2688 24.5101 27.0888 23.9916 26.3051 22.6816C25.7685 21.7847 25.7682 21.7843 26.5261 21.1265C27.2498 20.4983 27.9749 19.8719 28.7217 19.2254C28.7881 19.6197 28.8233 19.9816 28.9125 20.3283C29.1688 21.3254 29.8653 21.9056 30.7114 21.8566C31.509 21.8104 31.9345 21.0214 31.5243 20.3043C31.3955 20.0789 31.1989 19.8634 30.9836 19.7298C30.2413 19.2698 29.4837 18.8356 28.72 18.4148C27.899 17.9623 27.1807 17.4012 26.7207 16.5388C25.9983 15.1844 26.2478 13.8059 27.3868 12.8117C28.3122 12.005 29.2332 11.1931 30.1836 10.3589Z" fill="white"/>
<path d="M61.2869 11.3213C60.7194 11.9312 60.1783 12.5552 59.5916 13.1284C59.197 13.5137 58.7085 13.7496 58.1431 13.7401C57.421 13.7281 56.8836 13.4094 56.5845 12.7029C56.1233 13.0604 55.9843 13.5864 56.2611 14.1155C56.3921 14.3658 56.5882 14.6186 56.8164 14.766C57.4993 15.2066 58.1998 15.6223 58.9175 15.997C59.5835 16.345 60.2218 16.7183 60.7046 17.324C61.4361 18.2423 61.6862 19.2735 61.2467 20.4041C60.4848 22.3638 59.1352 23.664 57.1465 24.1558C55.7213 24.508 54.5249 23.8953 53.784 22.5133C53.3731 21.7473 53.3728 21.7469 54.0027 21.1987C54.6826 20.6068 55.3625 20.0156 56.0437 19.4254C56.1183 19.3609 56.2017 19.3073 56.2803 19.2492C56.3627 19.6782 56.4052 20.091 56.5234 20.4785C56.8042 21.4018 57.4753 21.9048 58.2848 21.8484C59.0366 21.7959 59.4579 21.0697 59.1072 20.3727C58.9813 20.1224 58.774 19.876 58.5444 19.7311C57.7886 19.2545 57.0115 18.8134 56.2314 18.3805C55.1943 17.8048 54.3487 17.0455 54.0095 15.8253C53.6955 14.6965 53.9646 13.7112 54.8183 12.9366C55.7767 12.0673 56.756 11.2233 57.7369 10.3589C58.6643 11.7616 59.9157 11.7877 61.2869 11.3213Z" fill="white"/>
<path d="M51.0379 10.3579C51.0379 10.5951 51.0379 10.7323 51.0379 10.8699C51.0379 14.1463 51.0407 17.4226 51.0351 20.6992C51.0341 21.279 51.1294 21.8079 51.6602 22.1962C50.8352 22.8883 50.0355 23.5597 49.2099 24.2525C48.2827 23.4293 47.7969 22.4198 47.7938 21.1898C47.7883 19.0405 47.7893 16.8909 47.7942 14.7416C47.7952 14.2735 47.7013 13.8431 47.3711 13.4424C48.571 12.4329 49.7663 11.4276 51.0379 10.3579Z" fill="white"/>
<path d="M49.5155 5.30542C50.2166 6.02854 50.9571 6.79245 51.6602 7.51764C50.9642 8.23385 50.2238 8.99603 49.514 9.72641C48.8199 9.01055 48.0746 8.24145 47.3711 7.51626C48.0671 6.79867 48.8083 6.03476 49.5155 5.30542Z" fill="white"/>
<path d="M23.4837 10.3579C23.4837 10.5697 23.4837 10.692 23.4837 10.8146C23.4823 14.1938 23.4823 17.5726 23.4774 20.9517C23.4767 21.4488 23.6476 21.8578 24.0874 22.1981C23.266 22.8869 22.461 23.5616 21.6372 24.2525C20.7223 23.4476 20.226 22.4562 20.216 21.2554C20.1976 19.0725 20.2056 16.8893 20.2125 14.7064C20.2139 14.2477 20.1168 13.8331 19.7984 13.4497C21.0072 12.4358 22.2118 11.425 23.4837 10.3579Z" fill="white"/>
<path d="M24.0874 7.51263C23.377 8.24779 22.6375 9.01268 21.9474 9.72641C21.2527 9.01095 20.5046 8.24019 19.7984 7.51298C20.5053 6.7868 21.2554 6.01604 21.947 5.30542C22.6394 6.0195 23.38 6.78335 24.0874 7.51263Z" fill="white"/>
<path d="M63.8758 22.7547C63.8779 21.874 64.55 21.1854 65.4069 21.1858C66.2865 21.1861 66.9459 21.8744 66.9394 22.7848C66.9329 23.6648 66.2539 24.3513 65.3973 24.3436C64.5548 24.3359 63.8738 23.6249 63.8758 22.7547Z" fill="white"/>
<path d="M5.98003 19.8073C6.72273 19.0093 6.86743 18.0236 6.87442 17.0213C6.89539 13.9322 6.8856 10.8429 6.87826 7.7535C6.87547 6.63861 7.23302 5.69677 8.0666 4.95327C9.00398 4.11719 9.93892 3.27826 10.8662 2.43113C12.7699 0.691671 15.4066 1.53879 15.9984 4.08015C16.3542 5.60846 16.027 7.02247 15.3221 8.37238C14.686 9.59125 13.7716 10.5584 12.6731 11.3531C12.6179 11.393 12.5648 11.4361 12.4774 11.5034C13.0716 11.5864 13.6245 11.643 14.1687 11.7473C14.5353 11.8178 14.8995 11.9289 15.2469 12.0689C17.1035 12.8177 18.0482 14.4343 17.9542 16.4864C17.8095 19.6435 16.134 21.7123 13.4892 23.0633C11.9454 23.8516 10.2947 24.3388 8.53494 24.2405C8.16551 24.2198 7.76811 24.1646 7.44132 24.0033C5.5358 23.0633 3.65789 23.2937 1.77788 24.0635C1.68036 24.1034 1.5818 24.1401 1.48324 24.1764C1.47485 24.1796 1.46192 24.1696 1.41718 24.1532C1.99038 23.3229 2.64676 22.5865 3.41148 21.9523C4.55787 21.0019 5.83533 20.3642 7.33577 20.2623C8.50313 20.1833 9.5943 20.4706 10.6442 20.9631C10.77 21.0222 10.8934 21.0867 11.0738 21.1764C11.0738 20.9951 11.0738 20.8584 11.0738 20.7217C11.0738 16.495 11.0713 12.2679 11.0769 8.04122C11.0776 7.54377 11.1384 7.0392 10.5394 6.78282C10.8183 6.50721 11.0504 6.27754 11.2744 6.0557C11.4995 6.28431 11.7214 6.50935 11.9556 6.74721C11.957 6.73831 11.9612 6.77107 11.9486 6.77997C11.4956 7.10543 11.4201 7.55837 11.4397 8.09356C11.4754 9.07421 11.4498 10.057 11.4498 11.0387C11.4498 11.1662 11.4498 11.2937 11.4498 11.4212C11.4897 11.4432 11.5292 11.4653 11.569 11.4877C11.8336 11.1673 12.1377 10.8721 12.3547 10.5213C12.9636 9.5389 13.1111 8.42187 13.1638 7.29024C13.2047 6.41107 13.117 5.54223 12.8252 4.70935C12.7242 4.42057 12.5861 4.13072 12.4047 3.88787C11.8238 3.11054 10.7896 3.14081 10.3223 3.99327C10.0927 4.41238 9.95569 4.94116 9.95045 5.42223C9.9169 8.523 9.89907 11.6252 9.94101 14.7256C9.96967 16.8293 8.85963 18.6133 6.83038 19.4871C6.55287 19.6064 6.26383 19.7011 5.98003 19.8073ZM11.4879 12.1607C11.4715 12.2369 11.4537 12.2818 11.4537 12.3267C11.4519 15.2811 11.4495 18.2359 11.4533 21.1903C11.4537 21.5296 11.8315 21.7426 12.1233 21.5734C12.8147 21.1735 13.3414 20.6024 13.73 19.9027C14.4102 18.6778 14.6213 17.3449 14.5437 15.9594C14.4913 15.0236 14.234 14.1455 13.6699 13.3885C13.1254 12.6585 12.3956 12.2576 11.4879 12.1607Z" fill="white"/>
<path d="M6.3183 6.56916C6.0584 7.37683 6.03581 8.19274 6.03685 9.01347C6.04068 11.4275 6.00697 13.8423 6.04728 16.2557C6.08515 18.5031 4.96944 19.9493 2.98195 20.8487C2.78077 20.9398 2.57195 21.0137 2.36555 21.0931C2.34749 21.1 2.32212 21.089 2.26201 21.0817C3.01705 20.4019 3.0438 19.5149 3.04415 18.6206C3.04484 17.5119 3.04415 16.4028 3.04415 15.294C3.04415 15.1682 3.04415 15.0428 3.04415 14.9232C2.28737 14.7861 1.8871 15.1669 1.34818 16.5516C0.881536 15.1906 0.524691 13.8908 1.10496 12.5404C1.42149 11.8035 1.9618 11.4712 3.04415 11.2877C3.04415 11.0155 3.04797 10.7319 3.04345 10.4484C3.03338 9.83386 3.22031 9.27708 3.61955 8.81619C4.39196 7.92501 5.32525 7.21564 6.3183 6.56916Z" fill="white"/>
<path d="M0.191559 4.40351C0.815286 2.77642 1.56145 1.29252 3.37701 0.928794C3.94791 0.814247 4.48034 0.931397 4.98303 1.19917C5.35978 1.4 5.74528 1.60864 6.06956 1.88906C7.03716 2.72547 8.04394 2.69163 9.09935 2.13377C9.18295 2.08951 9.26656 2.04526 9.36486 1.99319C9.3715 2.04005 9.39039 2.08059 9.3785 2.10179C8.83383 3.06353 8.19226 3.9364 7.31562 4.585C6.01954 5.54378 4.89312 5.54452 3.5932 4.59802C3.53513 4.55562 3.47811 4.51136 3.42179 4.46636C2.31321 3.58123 1.54011 3.54218 0.342331 4.31091C0.292656 4.34252 0.241933 4.37264 0.191559 4.40351Z" fill="white"/>
<path d="M63.8758 22.7554C63.8779 21.8743 64.5498 21.1854 65.4065 21.1858C66.2858 21.1861 66.945 21.8746 66.9385 22.7855C66.932 23.6659 66.2532 24.3526 65.3969 24.3449C64.5546 24.3372 63.8738 23.6259 63.8758 22.7554Z" fill="white"/>
</svg>
