<svg xmlns="http://www.w3.org/2000/svg" width="104" height="84.886" viewBox="0 0 104 84.886">
  <g id="Group_533" data-name="Group 533" transform="translate(-40 -959.114)">
    <g id="Group_3" data-name="Group 3" transform="translate(40 959.114)">
      <path id="Path_1" data-name="Path 1" d="M132.074,1005.267H127.8V984.024h4.279Zm4.334-25.577H123.464V1009.6h12.944Z" transform="translate(-70.589 -947.561)"/>
      <g id="Group_1" data-name="Group 1" transform="translate(0 17.44)">
        <path id="Path_2" data-name="Path 2" d="M75.153,1007.593c-.19,8.769,8.637,8.027,8.637,8.027v3.8c-12,.74-13-9.885-13-9.885V965.158l4.46-.054Z" transform="translate(-70.789 -965.104)"/>
      </g>
      <path id="Path_3" data-name="Path 3" d="M108.707,984.266h4.274V1005.5h-4.274Zm-4.339-36.622v62.193h12.954V979.926h-8.615V947.644Z" transform="translate(-70.662 -947.644)"/>
      <g id="Group_2" data-name="Group 2" transform="translate(14.734 22.118)">
        <path id="Path_4" data-name="Path 4" d="M142.279,979.573v30.08h8.661v11.037c.19,8.77-8.632,8.027-8.632,8.027v3.8c11.992.739,12.993-9.885,12.993-9.885v-43.06h-4.36V1005.3h-4.3V979.573Z" transform="translate(-85.24 -969.786)"/>
        <path id="Path_5" data-name="Path 5" d="M89.779,984.44h4.295v8.532H89.779Zm-4.362-4.36v21.131c0,9.8,13.022,8.949,13.022,8.949v-4.354s-8.659,1.085-8.659-4.31v-4.287h8.659V980.08Z" transform="translate(-85.417 -969.783)"/>
        <path id="Path_6" data-name="Path 6" d="M87.387,976.087a17.413,17.413,0,0,0,1.735-1.714l.986-1.179a13.3,13.3,0,0,1,2.846-2.681,5.62,5.62,0,0,1,2.849-.656,11.278,11.278,0,0,1,2.615.266,16.487,16.487,0,0,0-3.767,2.536l-.859.7a9.92,9.92,0,0,1-6.4,2.728" transform="translate(-85.403 -969.857)"/>
        <path id="Path_7" data-name="Path 7" d="M165.785,984.44h4.3v8.53h-4.3Zm-4.36-4.362v21.132c0,9.8,13.021,8.949,13.021,8.949V1005.8s-8.66,1.087-8.66-4.308v-4.287h8.66v-17.13Z" transform="translate(-85.18 -969.783)"/>
        <path id="Path_8" data-name="Path 8" d="M163.144,976.085a17.082,17.082,0,0,0,1.736-1.712l.99-1.179a13.3,13.3,0,0,1,2.842-2.681,5.6,5.6,0,0,1,2.845-.656,11.288,11.288,0,0,1,2.621.266,16.405,16.405,0,0,0-3.771,2.536l-.856.7a9.912,9.912,0,0,1-6.407,2.728" transform="translate(-85.167 -969.857)"/>
      </g>
    </g>
  </g>
</svg>
