<svg width="21" height="20" viewBox="0 0 21 20" fill="none" xmlns="http://www.w3.org/2000/svg">
<path d="M10.4917 1.66663C5.89169 1.66663 2.16669 5.39996 2.16669 9.99996C2.16669 14.6 5.89169 18.3333 10.4917 18.3333C15.1 18.3333 18.8334 14.6 18.8334 9.99996C18.8334 5.39996 15.1 1.66663 10.4917 1.66663ZM10.5 16.6666C6.81669 16.6666 3.83335 13.6833 3.83335 9.99996C3.83335 6.31663 6.81669 3.33329 10.5 3.33329C14.1834 3.33329 17.1667 6.31663 17.1667 9.99996C17.1667 13.6833 14.1834 16.6666 10.5 16.6666Z" fill="#BDBDBD"/>
<path d="M10.9167 5.83337H9.66669V10.8334L14.0417 13.4584L14.6667 12.4334L10.9167 10.2084V5.83337Z" fill="#BDBDBD"/>
</svg>
