<svg width="36" height="36" viewBox="0 0 36 36" fill="none" xmlns="http://www.w3.org/2000/svg">
<circle cx="18" cy="18" r="17.5" fill="#F7941D" stroke="#F7941D"/>
<mask id="mask0" mask-type="alpha" maskUnits="userSpaceOnUse" x="0" y="0" width="36" height="36">
<path d="M35.313 18C35.313 27.6674 27.5174 35.5 17.9065 35.5C8.29561 35.5 0.5 27.6674 0.5 18C0.5 8.33256 8.29561 0.5 17.9065 0.5C27.5174 0.5 35.313 8.33256 35.313 18Z" fill="#F7941D" stroke="#F7941D"/>
</mask>
<g mask="url(#mask0)">
<path d="M6.57977 32.7568L15.0377 19.0524C14.4534 17.7316 13.7174 14.389 15.4483 11.5844C17.1792 8.77977 20.092 8.59533 21.332 8.85369L18.4799 13.475L19.9509 16.8199L23.5856 16.6591L26.4377 12.0378C27.3703 12.9136 28.7437 15.462 26.7767 18.6491C24.8098 21.8362 21.535 22.3686 20.1434 22.2364L11.6855 35.9409L6.57977 32.7568Z" fill="white" stroke="#F7941D" stroke-linejoin="round"/>
</g>
</svg>
