<svg width="16" height="16" viewBox="0 0 16 16" fill="none" xmlns="http://www.w3.org/2000/svg">
<path d="M7.99331 1.33337C4.31331 1.33337 1.33331 4.32004 1.33331 8.00004C1.33331 11.68 4.31331 14.6667 7.99331 14.6667C11.68 14.6667 14.6666 11.68 14.6666 8.00004C14.6666 4.32004 11.68 1.33337 7.99331 1.33337ZM7.99998 13.3334C5.05331 13.3334 2.66665 10.9467 2.66665 8.00004C2.66665 5.05337 5.05331 2.66671 7.99998 2.66671C10.9466 2.66671 13.3333 5.05337 13.3333 8.00004C13.3333 10.9467 10.9466 13.3334 7.99998 13.3334Z" fill="black" fill-opacity="0.9"/>
<path d="M8.33331 4.66663H7.33331V8.66663L10.8333 10.7666L11.3333 9.94663L8.33331 8.16663V4.66663Z" fill="black" fill-opacity="0.9"/>
</svg>
