<svg width="16" height="16" viewBox="0 0 16 16" fill="none" xmlns="http://www.w3.org/2000/svg">
<path d="M11.044 14.666H11.0627C11.4147 14.666 11.7473 14.5274 11.9993 14.2754L13.8073 12.4674C13.8693 12.4055 13.9185 12.332 13.952 12.2512C13.9855 12.1703 14.0028 12.0836 14.0028 11.996C14.0028 11.9085 13.9855 11.8218 13.952 11.7409C13.9185 11.66 13.8693 11.5866 13.8073 11.5247L11.1407 8.85804C11.0788 8.79608 11.0053 8.74692 10.9245 8.71338C10.8436 8.67984 10.7569 8.66257 10.6693 8.66257C10.5818 8.66257 10.4951 8.67984 10.4142 8.71338C10.3333 8.74692 10.2599 8.79608 10.198 8.85804L9.13533 9.92071C8.64267 9.77404 7.72333 9.44071 7.14067 8.85804C6.558 8.27537 6.22467 7.35604 6.078 6.86337L7.14067 5.80071C7.20263 5.73885 7.25179 5.66538 7.28533 5.5845C7.31887 5.50363 7.33613 5.41693 7.33613 5.32937C7.33613 5.24182 7.31887 5.15512 7.28533 5.07425C7.25179 4.99337 7.20263 4.9199 7.14067 4.85804L4.474 2.19137C4.34655 2.07108 4.17793 2.00406 4.00267 2.00406C3.82741 2.00406 3.65879 2.07108 3.53133 2.19137L1.724 3.99937C1.47067 4.25271 1.328 4.60071 1.33334 4.95604C1.34867 5.90537 1.6 9.20271 4.19867 11.8014C6.79733 14.4 10.0947 14.6507 11.044 14.666ZM4.00333 3.60537L5.72733 5.32937L4.86533 6.19137C4.78689 6.2696 4.72927 6.36621 4.69771 6.47241C4.66616 6.5786 4.66167 6.691 4.68467 6.79937C4.70067 6.87604 5.092 8.69404 6.19867 9.80071C7.30533 10.9074 9.12333 11.2987 9.2 11.3147C9.30837 11.3378 9.4208 11.3334 9.52702 11.3018C9.63324 11.2703 9.72984 11.2126 9.808 11.134L10.67 10.272L12.394 11.996L11.0567 13.3327C10.2247 13.3187 7.378 13.0954 5.14133 10.858C2.89733 8.61404 2.68 5.75737 2.66667 4.94204L4.00333 3.60537ZM13.3327 7.33271H14.666C14.666 3.91271 12.084 1.33337 8.65933 1.33337V2.66671C11.3673 2.66671 13.3327 4.62871 13.3327 7.33271Z" fill="black" fill-opacity="0.9"/>
<path d="M8.66602 5.33333C10.068 5.33333 10.666 5.93133 10.666 7.33333H11.9993C11.9993 5.18333 10.816 4 8.66602 4V5.33333Z" fill="black" fill-opacity="0.9"/>
</svg>
