<svg width="14" height="14" viewBox="0 0 14 14" fill="none" xmlns="http://www.w3.org/2000/svg">
<path fill-rule="evenodd" clip-rule="evenodd" d="M11.4831 2.46036C10.8955 1.86889 10.1963 1.3999 9.42618 1.08056C8.65603 0.761219 7.83017 0.597877 6.99643 0.599996C3.50039 0.599996 0.65438 3.4453 0.652967 6.94275C0.652967 8.06053 0.944775 9.15145 1.49942 10.1138L0.599976 13.4L3.96248 12.5175C4.89259 13.0238 5.93462 13.2893 6.99361 13.2898H6.99643C10.4918 13.2898 13.3378 10.4444 13.3392 6.94699C13.3416 6.1136 13.1788 5.28799 12.8602 4.51789C12.5416 3.7478 12.0736 3.04848 11.4831 2.46036ZM6.99643 12.2193H6.99431C6.05001 12.2194 5.12309 11.9654 4.31081 11.4838L4.11863 11.3693L2.12331 11.8929L2.65535 9.94774L2.53029 9.74849C2.00234 8.90799 1.72286 7.93531 1.72411 6.94275C1.72552 4.03598 4.09037 1.67114 6.99855 1.67114C7.69116 1.6696 8.37719 1.80544 9.01694 2.0708C9.65669 2.33616 10.2375 2.72577 10.7256 3.21708C11.2164 3.70605 11.6054 4.28744 11.8702 4.92765C12.1349 5.56787 12.2702 6.2542 12.2681 6.94699C12.2666 9.85377 9.9018 12.2193 6.99643 12.2193ZM9.88837 8.27037C9.7294 8.19053 8.95077 7.80758 8.80522 7.75459C8.66038 7.7016 8.5551 7.67545 8.44912 7.83372C8.34313 7.99199 8.03931 8.3488 7.94675 8.45479C7.85419 8.56077 7.76164 8.57349 7.60337 8.49435C7.4451 8.41522 6.93426 8.24777 6.32874 7.70796C5.85746 7.28755 5.53951 6.76894 5.44696 6.60997C5.3544 6.45099 5.43706 6.3655 5.5169 6.28636C5.58827 6.21571 5.67517 6.10125 5.75431 6.00869C5.83344 5.91613 5.85958 5.85042 5.91258 5.74443C5.96557 5.63845 5.93943 5.54589 5.89915 5.46676C5.85958 5.38692 5.54234 4.60688 5.41021 4.28963C5.28233 3.98228 5.15161 4.02326 5.05411 4.01902C4.95313 4.01489 4.85206 4.01301 4.751 4.01337C4.67063 4.01542 4.59155 4.03405 4.51872 4.06809C4.44589 4.10214 4.38088 4.15086 4.32777 4.21121C4.18222 4.37018 3.77312 4.75314 3.77312 5.53317C3.77312 6.31321 4.34119 7.06711 4.42033 7.17309C4.49946 7.27908 5.5381 8.87943 7.12785 9.5662C7.50657 9.72941 7.80191 9.82692 8.03154 9.9004C8.41096 10.0212 8.75647 10.0036 9.0299 9.96328C9.33443 9.91807 9.96751 9.58033 10.0996 9.21009C10.2318 8.83986 10.2318 8.52262 10.1922 8.4562C10.1526 8.38978 10.0459 8.34951 9.88837 8.27037Z" fill="black" fill-opacity="0.9"/>
</svg>
