<svg width="16" height="16" viewBox="0 0 16 16" fill="none" xmlns="http://www.w3.org/2000/svg">
<path d="M7.93555 3.9873C7.53998 3.9873 7.15331 4.1046 6.82441 4.32437C6.49551 4.54413 6.23916 4.85649 6.08779 5.22194C5.93641 5.58739 5.89681 5.98952 5.97398 6.37749C6.05115 6.76545 6.24163 7.12181 6.52133 7.40152C6.80104 7.68122 7.1574 7.87171 7.54537 7.94888C7.93333 8.02605 8.33546 7.98644 8.70091 7.83507C9.06637 7.68369 9.37872 7.42734 9.59849 7.09845C9.81825 6.76955 9.93555 6.38287 9.93555 5.98731C9.93494 5.45706 9.72404 4.9487 9.34909 4.57376C8.97415 4.19882 8.4658 3.98791 7.93555 3.9873ZM7.93555 6.98731C7.73777 6.98731 7.54443 6.92866 7.37998 6.81877C7.21553 6.70889 7.08736 6.55272 7.01167 6.36999C6.93598 6.18726 6.91618 5.9862 6.95476 5.79221C6.99335 5.59823 7.08859 5.42005 7.22844 5.2802C7.36829 5.14035 7.54648 5.0451 7.74046 5.00652C7.93444 4.96793 8.1355 4.98774 8.31823 5.06343C8.50096 5.13911 8.65714 5.26729 8.76702 5.43173C8.8769 5.59618 8.93555 5.78952 8.93555 5.98731C8.93524 6.25243 8.82979 6.5066 8.64232 6.69407C8.45485 6.88154 8.20067 6.987 7.93555 6.98731Z" fill="black" fill-opacity="0.9"/>
<path d="M11.7787 2.14109C10.8285 1.19111 9.56007 0.626776 8.21823 0.557017C6.87638 0.487259 5.55626 0.917019 4.51265 1.76335C3.46904 2.60968 2.77591 3.81259 2.56705 5.13992C2.35819 6.46724 2.6484 7.82488 3.38167 8.95081L7.16002 14.7512C7.2441 14.8803 7.35906 14.9863 7.49449 15.0597C7.62992 15.1331 7.78152 15.1716 7.93556 15.1716C8.0896 15.1716 8.24121 15.1331 8.37664 15.0597C8.51206 14.9863 8.62703 14.8803 8.71111 14.7512L12.4896 8.95081C13.17 7.90635 13.4707 6.65975 13.3412 5.41995C13.2118 4.18016 12.6602 3.02253 11.7787 2.14109ZM11.6517 8.40497L7.93558 14.1097L4.21942 8.40497C3.08192 6.65875 3.32589 4.32188 4.79952 2.84819C5.21135 2.43635 5.70026 2.10966 6.23835 1.88677C6.77644 1.66388 7.35316 1.54916 7.93558 1.54916C8.518 1.54916 9.09472 1.66388 9.63281 1.88677C10.1709 2.10966 10.6598 2.43635 11.0716 2.84819C12.5453 4.32188 12.7892 6.65875 11.6517 8.40497Z" fill="black" fill-opacity="0.9"/>
</svg>
