<svg width="85" height="21" viewBox="0 0 85 21" fill="none" xmlns="http://www.w3.org/2000/svg">
<g clip-path="url(#clip0)">
<path d="M16 18.9619L11.8913 17.8372C10.6887 18.5312 9.32533 18.8959 7.92733 18.8952C3.55667 18.8932 -1.58468e-07 15.3366 -3.49487e-07 10.9666C0.000666225 8.84591 0.826666 6.85525 2.32533 5.35791C3.824 3.86125 5.816 3.03725 7.93467 3.03791C12.306 3.03991 15.8627 6.59658 15.8627 10.9666C15.862 12.2932 15.5293 13.6006 14.8973 14.7586L16 18.9619ZM13.462 14.5639C14.1253 13.4466 14.5227 12.3799 14.5233 10.9692C14.5233 7.33725 11.5673 4.37858 7.93333 4.37658C4.292 4.37525 1.34 7.31991 1.33867 10.9639C1.33867 14.5986 4.29467 17.5552 7.928 17.5566C9.41133 17.5572 10.522 17.1226 11.684 16.3926L14.116 17.0586L13.462 14.5639ZM9.81933 6.97258C9.73667 7.02191 9.68733 7.15391 9.588 7.35258C9.48867 7.55058 9.00933 8.52458 8.94333 8.70658C8.87733 8.88791 8.844 9.01991 9.04267 9.15258C9.24067 9.28458 9.68733 9.66458 9.81933 9.77991C9.95133 9.89525 9.968 10.0112 9.86867 10.2092C9.76933 10.4072 9.56067 11.0459 8.88533 11.8026C8.36 12.3912 7.71133 12.7892 7.51267 12.9046C7.31467 13.0199 7.20733 12.9166 7.10867 12.8179C7.02 12.7286 6.87733 12.6199 6.76133 12.5206C6.64667 12.4199 6.564 12.3872 6.43133 12.3206C6.29933 12.2546 6.18333 12.2872 6.084 12.3372C5.98533 12.3872 5.01 12.7832 4.61333 12.9479C4.22733 13.1092 4.27933 13.2726 4.27333 13.3939L4.26667 13.7739C4.26667 13.9059 4.316 14.1206 4.51467 14.3019C4.71333 14.4832 5.192 14.9952 6.16733 14.9952C7.14267 14.9952 8.08467 14.2852 8.21667 14.1866C8.34867 14.0872 10.35 12.7899 11.208 10.8026C11.412 10.3299 11.534 9.96058 11.6253 9.67325C11.776 9.19858 11.7547 8.76658 11.704 8.42525C11.6473 8.04458 11.2247 7.25325 10.762 7.08791C10.2987 6.92258 9.902 6.92258 9.81933 6.97258Z" fill="white"/>
</g>
<path d="M36.748 6.34H35.404L33.262 13.928L30.798 6.34H29.482L27.018 13.928L24.834 6.242L23.546 6.522L26.402 16H27.494L30.112 8.174L32.73 16H33.836L36.748 6.34ZM43.6584 16V11.142C43.6584 9.938 42.9864 9.182 41.7264 9.182C40.7744 9.182 40.0044 9.714 39.4584 10.204V5.892L38.2124 6.088V16H39.4584V11.38C40.0604 10.736 40.7324 10.302 41.3904 10.302C42.1184 10.302 42.4124 10.764 42.4124 11.45V16H43.6584ZM50.6492 16V11.324C50.6492 9.84 49.8652 9.182 48.2412 9.182C47.2052 9.182 46.4492 9.42 45.6512 9.742L45.8192 10.82C46.5472 10.498 47.3172 10.246 48.1292 10.246C48.8992 10.246 49.4032 10.54 49.4032 11.38V11.66C46.6172 11.954 45.1892 12.612 45.1892 14.278C45.1892 15.412 45.9452 16.14 47.1492 16.14C48.2412 16.14 48.9692 15.65 49.5012 15.104L49.6412 16H50.6492ZM49.4032 14.166C48.8432 14.74 48.1432 15.104 47.4152 15.104C46.7852 15.104 46.4212 14.754 46.4212 14.208C46.4212 13.522 46.9392 12.85 49.4032 12.612V14.166ZM55.7876 16.028L55.6196 14.964C55.4656 14.992 55.2696 15.006 55.0456 15.006C54.3456 15.006 54.1216 14.67 54.1216 14.124V10.372H55.7316L55.5636 9.322H54.1216V6.914L52.9036 7.096V9.322H51.8956V10.372H52.9036V14.348C52.9036 15.692 53.6736 16.112 54.8496 16.112C55.2836 16.112 55.5776 16.07 55.7876 16.028ZM61.9604 14.138C61.9604 12.864 61.2184 12.388 59.5664 11.968C58.5164 11.702 58.1804 11.45 58.1804 11.002C58.1804 10.526 58.5724 10.232 59.3284 10.232C60.0284 10.232 60.7704 10.47 61.3584 10.806L61.5544 9.63C60.9244 9.35 60.1824 9.182 59.3564 9.182C57.9004 9.182 57.0044 9.966 57.0044 11.03C57.0044 12.22 57.6344 12.696 59.2024 13.088C60.4064 13.382 60.7844 13.606 60.7844 14.222C60.7844 14.782 60.2804 15.104 59.4264 15.104C58.5164 15.104 57.7044 14.768 57.0744 14.334L56.8924 15.51C57.4664 15.832 58.4464 16.14 59.3284 16.14C61.0504 16.14 61.9604 15.356 61.9604 14.138ZM68.5457 16V11.324C68.5457 9.84 67.7617 9.182 66.1377 9.182C65.1017 9.182 64.3457 9.42 63.5477 9.742L63.7157 10.82C64.4437 10.498 65.2137 10.246 66.0257 10.246C66.7957 10.246 67.2997 10.54 67.2997 11.38V11.66C64.5137 11.954 63.0857 12.612 63.0857 14.278C63.0857 15.412 63.8417 16.14 65.0457 16.14C66.1377 16.14 66.8657 15.65 67.3977 15.104L67.5377 16H68.5457ZM67.2997 14.166C66.7397 14.74 66.0397 15.104 65.3117 15.104C64.6817 15.104 64.3177 14.754 64.3177 14.208C64.3177 13.522 64.8357 12.85 67.2997 12.612V14.166ZM76.428 12.472C76.428 10.246 75.238 9.182 73.796 9.182C72.816 9.182 72.13 9.7 71.626 10.288L71.472 9.322H70.478V18.604L71.724 18.422V15.79C72.144 15.958 72.746 16.084 73.404 16.084C75.028 16.084 76.428 14.908 76.428 12.472ZM75.168 12.528C75.168 14.18 74.398 15.034 73.348 15.034C72.634 15.034 72.228 14.922 71.724 14.67V11.464C72.256 10.75 72.844 10.288 73.6 10.288C74.51 10.288 75.168 11.072 75.168 12.528ZM83.9613 12.472C83.9613 10.246 82.7713 9.182 81.3293 9.182C80.3493 9.182 79.6633 9.7 79.1593 10.288L79.0053 9.322H78.0113V18.604L79.2573 18.422V15.79C79.6773 15.958 80.2793 16.084 80.9373 16.084C82.5613 16.084 83.9613 14.908 83.9613 12.472ZM82.7013 12.528C82.7013 14.18 81.9313 15.034 80.8813 15.034C80.1673 15.034 79.7613 14.922 79.2573 14.67V11.464C79.7893 10.75 80.3773 10.288 81.1333 10.288C82.0433 10.288 82.7013 11.072 82.7013 12.528Z" fill="white"/>
<defs>
<clipPath id="clip0">
<rect width="16" height="16" fill="white" transform="translate(0 19) rotate(-90)"/>
</clipPath>
</defs>
</svg>
