<svg xmlns="http://www.w3.org/2000/svg" width="44" height="44" viewBox="0 0 44 44">
  <g id="Group_257" data-name="Group 257" transform="translate(-1413.997 -5990)">
    <g id="Group_256" data-name="Group 256">
      <ellipse id="Ellipse_112" data-name="Ellipse 112" cx="19.5" cy="19.249" rx="19.5" ry="19.249" transform="translate(1415 5991.003)" fill="#fff"/>
      <g id="up-arrow-svgrepo-com_2_" data-name="up-arrow-svgrepo-com (2)" transform="translate(1457.997 5989.999) rotate(90)">
        <g id="Group_170" data-name="Group 170" transform="translate(0.001)">
          <path id="Path_1479" data-name="Path 1479" d="M22,0A22,22,0,1,0,44,22,22,22,0,0,0,22,0Zm9.927,27.836a2.055,2.055,0,0,1-2.905,0l-7.078-7.08-7.117,7.116a2.054,2.054,0,1,1-2.9-2.9l8.256-8.257a2.074,2.074,0,0,1,.277-.347,2.092,2.092,0,0,1,3.252.347l8.22,8.22A2.055,2.055,0,0,1,31.928,27.836Z" transform="translate(-0.001)" fill="#2c4e78"/>
        </g>
      </g>
    </g>
  </g>
</svg>
