<svg xmlns="http://www.w3.org/2000/svg" xmlns:xlink="http://www.w3.org/1999/xlink" width="95.748" height="95.749" viewBox="0 0 95.748 95.749">
  <defs>
    <filter id="Ellipse_111" x="0" y="0" width="95.748" height="95.749" filterUnits="userSpaceOnUse">
      <feOffset dy="5" input="SourceAlpha"/>
      <feGaussianBlur stdDeviation="7.5" result="blur"/>
      <feFlood flood-opacity="0.251"/>
      <feComposite operator="in" in2="blur"/>
      <feComposite in="SourceGraphic"/>
    </filter>
  </defs>
  <g id="Group_252" data-name="Group 252" transform="translate(-1389.5 -3123.5)">
    <g transform="matrix(1, 0, 0, 1, 1389.5, 3123.5)" filter="url(#Ellipse_111)">
      <ellipse id="Ellipse_111-2" data-name="Ellipse 111" cx="25.374" cy="25.374" rx="25.374" ry="25.374" transform="translate(22.5 17.5)" fill="#fff"/>
    </g>
    <g id="up-arrow-svgrepo-com_2_" data-name="up-arrow-svgrepo-com (2)" transform="translate(1460.5 3143.244) rotate(90)">
      <g id="Group_170" data-name="Group 170" transform="translate(0)">
        <path id="Path_1479" data-name="Path 1479" d="M23.128,0A23.128,23.128,0,1,0,46.256,23.128,23.128,23.128,0,0,0,23.128,0ZM33.564,29.263a2.16,2.16,0,0,1-3.054,0l-7.441-7.443L15.587,29.3a2.159,2.159,0,1,1-3.054-3.053l8.679-8.68A2.18,2.18,0,0,1,21.5,17.2a2.2,2.2,0,0,1,3.419.365l8.641,8.641A2.16,2.16,0,0,1,33.564,29.263Z" transform="translate(0)" fill="#583c78"/>
      </g>
    </g>
  </g>
</svg>
