<svg xmlns="http://www.w3.org/2000/svg" width="34.003" height="34.003" viewBox="0 0 34.003 34.003">
  <g id="up-arrow-svgrepo-com_2_" data-name="up-arrow-svgrepo-com (2)" transform="translate(34.003) rotate(90)">
    <g id="Group_170" data-name="Group 170">
      <path id="Path_1479" data-name="Path 1479" d="M17,34A17,17,0,1,1,34,17,17,17,0,0,1,17,34Zm7.672-21.512a1.588,1.588,0,0,0-2.245,0l-5.47,5.471-5.5-5.5a1.587,1.587,0,1,0-2.245,2.244l6.38,6.381a1.6,1.6,0,0,0,.214.268,1.617,1.617,0,0,0,2.513-.268l6.352-6.352A1.588,1.588,0,0,0,24.673,12.491Z" fill="#4e781c"/>
    </g>
  </g>
</svg>
