<svg xmlns="http://www.w3.org/2000/svg" width="42.997" height="42.997" viewBox="0 0 42.997 42.997">
  <g id="up-arrow-svgrepo-com_2_" data-name="up-arrow-svgrepo-com (2)" transform="translate(42.997 -0.001) rotate(90)">
    <g id="Group_170" data-name="Group 170" transform="translate(0.001)">
      <path id="Path_1479" data-name="Path 1479" d="M21.5,0A21.5,21.5,0,1,0,43,21.5,21.5,21.5,0,0,0,21.5,0Zm9.7,27.2a2.008,2.008,0,0,1-2.839,0l-6.917-6.918L14.49,27.237A2.007,2.007,0,1,1,11.651,24.4l8.068-8.069a2.026,2.026,0,0,1,.271-.339,2.044,2.044,0,0,1,3.178.339L31.2,24.363A2.008,2.008,0,0,1,31.2,27.2Z" transform="translate(-0.001)" fill="#4e781c"/>
    </g>
  </g>
</svg>
