<svg xmlns="http://www.w3.org/2000/svg" xmlns:xlink="http://www.w3.org/1999/xlink" width="195" height="370" viewBox="0 0 195 370">
  <defs>
    <clipPath id="clip-path">
      <rect id="Rectangle_240" data-name="Rectangle 240" width="195" height="370" transform="translate(1485 491)" fill="#fff" stroke="#707070" stroke-width="1"/>
    </clipPath>
    <linearGradient id="linear-gradient" x1="0.061" y1="0.388" x2="0.909" y2="0.587" gradientUnits="objectBoundingBox">
      <stop offset="0" stop-color="#c469a9"/>
      <stop offset="1" stop-color="#b46bab"/>
    </linearGradient>
    <linearGradient id="linear-gradient-2" y1="0.5" x2="1" y2="0.5" gradientUnits="objectBoundingBox">
      <stop offset="0" stop-color="#c469a9"/>
      <stop offset="0.244" stop-color="#c773ae"/>
      <stop offset="1" stop-color="#d390bf"/>
    </linearGradient>
    <linearGradient id="linear-gradient-3" x1="0.655" y1="0.501" x2="-0.003" y2="0.601" gradientUnits="objectBoundingBox">
      <stop offset="0" stop-color="#dba6cb"/>
      <stop offset="1" stop-color="#deb1d2"/>
    </linearGradient>
    <linearGradient id="linear-gradient-4" y1="0.5" x2="1" y2="0.5" gradientUnits="objectBoundingBox">
      <stop offset="0" stop-color="#dba6cb"/>
      <stop offset="1" stop-color="#d390bf"/>
    </linearGradient>
    <linearGradient id="linear-gradient-6" x1="0" y1="0.5" x2="1" y2="0.5" xlink:href="#linear-gradient"/>
    <linearGradient id="linear-gradient-7" y1="0.5" x2="1" y2="0.5" gradientUnits="objectBoundingBox">
      <stop offset="0" stop-color="#ca77b0"/>
      <stop offset="1" stop-color="#c772ad"/>
    </linearGradient>
    <linearGradient id="linear-gradient-8" x1="1.047" y1="0.278" x2="0.219" y2="0.497" xlink:href="#linear-gradient-3"/>
  </defs>
  <g id="Mask_Group_9" data-name="Mask Group 9" transform="translate(-1485 -491)" clip-path="url(#clip-path)">
    <g id="Group_251" data-name="Group 251">
      <g id="Group_213" data-name="Group 213" transform="matrix(-0.914, 0.407, -0.407, -0.914, 1760, 706.088)">
        <path id="Path_223" data-name="Path 223" d="M96.161,0,0,28.939,7.454,95.274Z" transform="translate(18.777 0)" fill="url(#linear-gradient)"/>
        <path id="Path_224" data-name="Path 224" d="M18.777,0,0,121.1,26.232,66.335Z" transform="translate(0 28.939)" fill="url(#linear-gradient-2)"/>
        <path id="Path_225" data-name="Path 225" d="M82.031,115.628,26.232,0,0,54.767Z" transform="translate(0 95.274)" fill="url(#linear-gradient-3)"/>
        <path id="Path_226" data-name="Path 226" d="M78.644,0,0,94.129,114.4,66.116Z" transform="translate(82.031 116.772)" fill="url(#linear-gradient-4)"/>
        <path id="Path_227" data-name="Path 227" d="M0,57.888,35.761,124,55.256,0Z" transform="translate(160.675 58.885)" fill="url(#linear-gradient-2)"/>
        <path id="Path_228" data-name="Path 228" d="M45.737,116.772l55.256-57.888L0,0Z" transform="translate(114.938 0)" fill="url(#linear-gradient-6)"/>
        <path id="Path_229" data-name="Path 229" d="M134.443,116.772,88.706,0,0,95.274Z" transform="translate(26.232 0)" fill="url(#linear-gradient-7)"/>
        <path id="Path_230" data-name="Path 230" d="M55.8,115.628,134.443,21.5,0,0Z" transform="translate(26.232 95.274)" fill="url(#linear-gradient-8)"/>
      </g>
      <g id="Group_215" data-name="Group 215" transform="translate(1515.956 757.879)">
        <g id="Group_136" data-name="Group 136" transform="translate(0)" style="isolation: isolate">
          <g id="Group_133" data-name="Group 133" transform="translate(0)">
            <path id="Path_399" data-name="Path 399" d="M740.085,184.727l-45.419-4.688-34.607,49.4,45.419,4.688Z" transform="translate(-660.059 -180.039)" fill="#a9c7d2"/>
          </g>
          <g id="Group_134" data-name="Group 134" transform="translate(0 49.4)">
            <path id="Path_400" data-name="Path 400" d="M705.057,217.861l-45.419-4.688,35.235,43.033,45.419,4.688Z" transform="translate(-659.638 -213.173)" fill="#7b98a7"/>
          </g>
          <g id="Group_135" data-name="Group 135" transform="translate(45.419 4.688)">
            <path id="Path_401" data-name="Path 401" d="M706.267,226.216l-35.235-43.033-34.607,49.4,35.234,43.033Z" transform="translate(-636.426 -183.183)" fill="#d7edf1"/>
          </g>
        </g>
      </g>
      <g id="Group_214" data-name="Group 214" transform="translate(1506.956 495.44)">
        <path id="Path_244" data-name="Path 244" d="M654.8,56.732a1.606,1.606,0,1,1-.434.434A1.624,1.624,0,0,1,654.8,56.732Z" transform="translate(-654.095 -0.798)" fill="#fff"/>
        <path id="Path_245" data-name="Path 245" d="M644.932,34.919A1.6,1.6,0,0,1,646.5,36.2a1.653,1.653,0,0,1,.033.324,1.606,1.606,0,0,1-3.211,0,1.658,1.658,0,0,1,.033-.324A1.606,1.606,0,0,1,644.932,34.919Z" transform="translate(-627.271 -11.372)" fill="#fff"/>
        <path id="Path_246" data-name="Path 246" d="M644.392,27.05a1.592,1.592,0,0,1-1.066-.413c.824-.641,1.662-1.264,2.526-1.853a1.573,1.573,0,0,1,.146.659A1.606,1.606,0,0,1,644.392,27.05Z" transform="translate(-626.731 -16.347)" fill="#fff"/>
        <path id="Path_247" data-name="Path 247" d="M639.548,29.534a1.606,1.606,0,1,1-1.606,1.607A1.6,1.6,0,0,1,639.548,29.534Z" transform="translate(-613.858 -14.015)" fill="#fff"/>
        <path id="Path_248" data-name="Path 248" d="M649.864,32.645a1.6,1.6,0,0,1-1.154-.491q1.006-1.241,2.089-2.415a1.6,1.6,0,0,1-.935,2.906Z" transform="translate(-640.23 -13.915)" fill="#fff"/>
        <path id="Path_249" data-name="Path 249" d="M633.839,34.952a1.653,1.653,0,0,1,.324-.033,1.585,1.585,0,0,1,.625.127,1.6,1.6,0,0,1,.948,1.155,1.557,1.557,0,0,1,.033.324,1.6,1.6,0,0,1-1.606,1.6,1.547,1.547,0,0,1-.324-.033,1.6,1.6,0,0,1-1.282-1.571,1.653,1.653,0,0,1,.033-.324A1.608,1.608,0,0,1,633.839,34.952Z" transform="translate(-600.446 -11.372)" fill="#fff"/>
        <path id="Path_250" data-name="Path 250" d="M633.839,24.183a1.654,1.654,0,0,1,.324-.033,1.585,1.585,0,0,1,.625.127,1.6,1.6,0,0,1-.625,3.085,1.547,1.547,0,0,1-.324-.033,1.606,1.606,0,0,1,0-3.146Z" transform="translate(-600.446 -16.658)" fill="#fff"/>
        <path id="Path_251" data-name="Path 251" d="M644.932,56.458a1.606,1.606,0,0,1,1.606,1.6,1.58,1.58,0,0,1-.127.625,1.605,1.605,0,0,1-2.958,0,1.6,1.6,0,0,1,.148-1.521A1.6,1.6,0,0,1,644.932,56.458Z" transform="translate(-627.271 -0.798)" fill="#fff"/>
        <path id="Path_252" data-name="Path 252" d="M655.7,48.9a1.606,1.606,0,1,1,1.606-1.607A1.6,1.6,0,0,1,655.7,48.9Z" transform="translate(-654.095 -6.085)" fill="#fff"/>
        <path id="Path_253" data-name="Path 253" d="M644.932,45.689a1.606,1.606,0,1,1-1.606,1.6A1.6,1.6,0,0,1,644.932,45.689Z" transform="translate(-627.271 -6.085)" fill="#fff"/>
        <path id="Path_254" data-name="Path 254" d="M639.548,51.073a1.606,1.606,0,1,1-1.606,1.607A1.6,1.6,0,0,1,639.548,51.073Z" transform="translate(-613.858 -3.442)" fill="#fff"/>
        <path id="Path_255" data-name="Path 255" d="M650.317,51.073a1.606,1.606,0,1,1-1.607,1.607A1.606,1.606,0,0,1,650.317,51.073Z" transform="translate(-640.683 -3.442)" fill="#fff"/>
        <path id="Path_256" data-name="Path 256" d="M639.548,40.3a1.606,1.606,0,1,1-1.606,1.607A1.6,1.6,0,0,1,639.548,40.3Z" transform="translate(-613.858 -8.729)" fill="#fff"/>
        <path id="Path_257" data-name="Path 257" d="M650.317,40.3a1.606,1.606,0,1,1-1.607,1.607A1.606,1.606,0,0,1,650.317,40.3Z" transform="translate(-640.683 -8.729)" fill="#fff"/>
        <path id="Path_258" data-name="Path 258" d="M633.839,56.491a1.547,1.547,0,0,1,.324-.033,1.6,1.6,0,0,1,1.479,2.229,1.6,1.6,0,0,1-.854.854,1.585,1.585,0,0,1-.625.127,1.654,1.654,0,0,1-.324-.033,1.605,1.605,0,0,1,0-3.144Z" transform="translate(-600.446 -0.798)" fill="#fff"/>
        <path id="Path_259" data-name="Path 259" d="M633.839,45.72a1.653,1.653,0,0,1,.324-.031,1.606,1.606,0,0,1,.625,3.085,1.585,1.585,0,0,1-.625.127,1.547,1.547,0,0,1-.324-.033,1.607,1.607,0,0,1,0-3.147Z" transform="translate(-600.446 -6.085)" fill="#fff"/>
        <path id="Path_260" data-name="Path 260" d="M643.787,78.27a1.622,1.622,0,0,1,.574-.242,1.688,1.688,0,0,1,.647,0,1.607,1.607,0,0,1,1.249,1.249,1.653,1.653,0,0,1,.033.324,1.6,1.6,0,0,1-.4,1.054c-.5-.346-1-.692-1.482-1.054-.367-.274-.72-.564-1.079-.847a1.555,1.555,0,0,1,.224-.288A1.583,1.583,0,0,1,643.787,78.27Z" transform="translate(-627.023 9.775)" fill="#fff"/>
        <path id="Path_261" data-name="Path 261" d="M644.932,67.227a1.606,1.606,0,1,1-1.606,1.606A1.6,1.6,0,0,1,644.932,67.227Z" transform="translate(-627.271 4.488)" fill="#fff"/>
        <path id="Path_262" data-name="Path 262" d="M639.548,72.611a1.606,1.606,0,1,1-1.606,1.607A1.6,1.6,0,0,1,639.548,72.611Z" transform="translate(-613.858 7.131)" fill="#fff"/>
        <path id="Path_263" data-name="Path 263" d="M650.085,72.611a1.6,1.6,0,0,1,.58,3.1c-.677-.75-1.324-1.525-1.954-2.314A1.6,1.6,0,0,1,650.085,72.611Z" transform="translate(-640.451 7.131)" fill="#fff"/>
        <path id="Path_264" data-name="Path 264" d="M639.548,61.842a1.606,1.606,0,1,1-1.606,1.607A1.6,1.6,0,0,1,639.548,61.842Z" transform="translate(-613.858 1.844)" fill="#fff"/>
        <path id="Path_265" data-name="Path 265" d="M650.317,61.842a1.606,1.606,0,1,1-1.607,1.607A1.606,1.606,0,0,1,650.317,61.842Z" transform="translate(-640.683 1.844)" fill="#fff"/>
        <path id="Path_266" data-name="Path 266" d="M633.028,78.467a1.583,1.583,0,0,1,.237-.2,1.623,1.623,0,0,1,.574-.242,1.687,1.687,0,0,1,.647,0,1.682,1.682,0,0,1,.3.094,1.606,1.606,0,0,1,.948,1.155,1.556,1.556,0,0,1,.033.324,1.606,1.606,0,0,1-1.606,1.606,1.654,1.654,0,0,1-.324-.033,1.607,1.607,0,0,1-1.282-1.573,1.653,1.653,0,0,1,.033-.324A1.6,1.6,0,0,1,633.028,78.467Z" transform="translate(-600.446 9.775)" fill="#fff"/>
        <path id="Path_267" data-name="Path 267" d="M633.839,67.26a1.654,1.654,0,0,1,.324-.033,1.585,1.585,0,0,1,.625.127,1.606,1.606,0,0,1,0,2.959,1.585,1.585,0,0,1-.625.127,1.654,1.654,0,0,1-.324-.033,1.607,1.607,0,0,1,0-3.147Z" transform="translate(-600.446 4.488)" fill="#fff"/>
        <path id="Path_268" data-name="Path 268" d="M623.394,34.919a1.6,1.6,0,0,1,1.573,1.282,1.658,1.658,0,0,1,.033.324,1.606,1.606,0,0,1-3.211,0,1.653,1.653,0,0,1,.033-.324A1.606,1.606,0,0,1,623.394,34.919Z" transform="translate(-573.622 -11.372)" fill="#fff"/>
        <path id="Path_269" data-name="Path 269" d="M623.394,24.15a1.606,1.606,0,1,1-1.606,1.6A1.605,1.605,0,0,1,623.394,24.15Z" transform="translate(-573.622 -16.658)" fill="#fff"/>
        <path id="Path_270" data-name="Path 270" d="M618.01,29.534a1.606,1.606,0,1,1-1.606,1.607A1.6,1.6,0,0,1,618.01,29.534Z" transform="translate(-560.209 -14.015)" fill="#fff"/>
        <path id="Path_271" data-name="Path 271" d="M628.779,29.534a1.606,1.606,0,1,1-1.607,1.607A1.606,1.606,0,0,1,628.779,29.534Z" transform="translate(-587.034 -14.015)" fill="#fff"/>
        <path id="Path_272" data-name="Path 272" d="M619.605,20.247a1.6,1.6,0,0,1-3.183-.271,1.63,1.63,0,0,1,.057-.4C617.531,19.767,618.576,19.986,619.605,20.247Z" transform="translate(-560.227 -18.906)" fill="#fff"/>
        <path id="Path_273" data-name="Path 273" d="M629.969,19.125a1.588,1.588,0,0,1,.416,1.07,1.606,1.606,0,1,1-3-.79Q628.668,19.231,629.969,19.125Z" transform="translate(-587.034 -19.125)" fill="#fff"/>
        <path id="Path_274" data-name="Path 274" d="M611.727,35.193A1.606,1.606,0,0,1,614.2,36.2a1.649,1.649,0,0,1,.033.324,1.606,1.606,0,0,1-3.211,0,1.658,1.658,0,0,1,.033-.324A1.614,1.614,0,0,1,611.727,35.193Z" transform="translate(-546.797 -11.372)" fill="#fff"/>
        <path id="Path_275" data-name="Path 275" d="M611.727,24.424a1.606,1.606,0,1,1-.708,1.33A1.6,1.6,0,0,1,611.727,24.424Z" transform="translate(-546.797 -16.658)" fill="#fff"/>
        <path id="Path_276" data-name="Path 276" d="M623.394,56.458a1.606,1.606,0,0,1,1.606,1.6,1.58,1.58,0,0,1-.127.625,1.605,1.605,0,0,1-2.958,0,1.6,1.6,0,0,1,.148-1.521A1.6,1.6,0,0,1,623.394,56.458Z" transform="translate(-573.622 -0.798)" fill="#fff"/>
        <path id="Path_277" data-name="Path 277" d="M623.394,45.689a1.606,1.606,0,1,1-1.606,1.6A1.605,1.605,0,0,1,623.394,45.689Z" transform="translate(-573.622 -6.085)" fill="#fff"/>
        <path id="Path_278" data-name="Path 278" d="M618.01,51.073A1.606,1.606,0,1,1,616.4,52.68,1.6,1.6,0,0,1,618.01,51.073Z" transform="translate(-560.209 -3.442)" fill="#fff"/>
        <path id="Path_279" data-name="Path 279" d="M628.779,51.073a1.606,1.606,0,1,1-1.607,1.607A1.606,1.606,0,0,1,628.779,51.073Z" transform="translate(-587.034 -3.442)" fill="#fff"/>
        <path id="Path_280" data-name="Path 280" d="M618.01,40.3A1.606,1.606,0,1,1,616.4,41.91,1.6,1.6,0,0,1,618.01,40.3Z" transform="translate(-560.209 -8.729)" fill="#fff"/>
        <path id="Path_281" data-name="Path 281" d="M628.779,40.3a1.606,1.606,0,1,1-1.607,1.607A1.606,1.606,0,0,1,628.779,40.3Z" transform="translate(-587.034 -8.729)" fill="#fff"/>
        <path id="Path_282" data-name="Path 282" d="M611.727,56.732a1.606,1.606,0,0,1,2.5,1.33,1.579,1.579,0,0,1-.127.625,1.607,1.607,0,0,1-.854.854,1.6,1.6,0,0,1-1.522-.148,1.606,1.606,0,0,1-.581-.707,1.6,1.6,0,0,1,.148-1.521A1.6,1.6,0,0,1,611.727,56.732Z" transform="translate(-546.797 -0.798)" fill="#fff"/>
        <path id="Path_283" data-name="Path 283" d="M611.727,45.962a1.607,1.607,0,1,1-.708,1.331A1.6,1.6,0,0,1,611.727,45.962Z" transform="translate(-546.797 -6.085)" fill="#fff"/>
        <path id="Path_284" data-name="Path 284" d="M622.259,78.467a1.583,1.583,0,0,1,.237-.2,1.622,1.622,0,0,1,.574-.242,1.687,1.687,0,0,1,.647,0,1.607,1.607,0,0,1,1.249,1.249A1.658,1.658,0,0,1,625,79.6a1.606,1.606,0,1,1-3.211,0,1.653,1.653,0,0,1,.033-.324A1.592,1.592,0,0,1,622.259,78.467Z" transform="translate(-573.622 9.775)" fill="#fff"/>
        <path id="Path_285" data-name="Path 285" d="M623.394,67.227a1.606,1.606,0,1,1-1.606,1.606A1.605,1.605,0,0,1,623.394,67.227Z" transform="translate(-573.622 4.488)" fill="#fff"/>
        <path id="Path_286" data-name="Path 286" d="M618.01,72.611a1.606,1.606,0,1,1-1.606,1.607A1.6,1.6,0,0,1,618.01,72.611Z" transform="translate(-560.209 7.131)" fill="#fff"/>
        <path id="Path_287" data-name="Path 287" d="M628.779,72.611a1.606,1.606,0,1,1-1.607,1.607A1.606,1.606,0,0,1,628.779,72.611Z" transform="translate(-587.034 7.131)" fill="#fff"/>
        <path id="Path_288" data-name="Path 288" d="M618.01,61.842a1.606,1.606,0,1,1-1.606,1.607A1.6,1.6,0,0,1,618.01,61.842Z" transform="translate(-560.209 1.844)" fill="#fff"/>
        <path id="Path_289" data-name="Path 289" d="M628.779,61.842a1.606,1.606,0,1,1-1.607,1.607A1.606,1.606,0,0,1,628.779,61.842Z" transform="translate(-587.034 1.844)" fill="#fff"/>
        <path id="Path_290" data-name="Path 290" d="M611.49,78.467a1.579,1.579,0,0,1,.237-.2,1.611,1.611,0,0,1,.574-.242,1.687,1.687,0,0,1,.647,0,1.685,1.685,0,0,1,.3.094,1.606,1.606,0,0,1,.948,1.155,1.649,1.649,0,0,1,.033.324,1.606,1.606,0,0,1-3.211,0,1.658,1.658,0,0,1,.033-.324A1.6,1.6,0,0,1,611.49,78.467Z" transform="translate(-546.797 9.775)" fill="#fff"/>
        <path id="Path_291" data-name="Path 291" d="M611.727,67.5a1.606,1.606,0,1,1-.708,1.331A1.6,1.6,0,0,1,611.727,67.5Z" transform="translate(-546.797 4.488)" fill="#fff"/>
        <path id="Path_292" data-name="Path 292" d="M618.01,83.381a1.6,1.6,0,0,1,1.6,1.606,1.681,1.681,0,0,1-.03.3c-.947.242-1.908.446-2.876.632a1.6,1.6,0,0,1,1.3-2.54Z" transform="translate(-560.209 12.418)" fill="#fff"/>
        <path id="Path_293" data-name="Path 293" d="M628.779,83.381a1.6,1.6,0,0,1,.288,3.182c-.322-.031-.638-.082-.957-.121a1.6,1.6,0,0,1,.669-3.061Z" transform="translate(-587.034 12.418)" fill="#fff"/>
        <path id="Path_294" data-name="Path 294" d="M601.856,34.919a1.6,1.6,0,0,1,1.573,1.282,1.658,1.658,0,0,1,.033.324,1.606,1.606,0,0,1-3.211,0,1.552,1.552,0,0,1,.033-.324A1.606,1.606,0,0,1,601.856,34.919Z" transform="translate(-519.973 -11.372)" fill="#fff"/>
        <path id="Path_295" data-name="Path 295" d="M607.24,29.534a1.606,1.606,0,1,1-1.606,1.607A1.606,1.606,0,0,1,607.24,29.534Z" transform="translate(-533.385 -14.015)" fill="#fff"/>
        <path id="Path_296" data-name="Path 296" d="M601.856,56.458a1.606,1.606,0,0,1,1.606,1.6,1.58,1.58,0,0,1-.127.625,1.605,1.605,0,0,1-2.958,0,1.577,1.577,0,0,1-.127-.625,1.606,1.606,0,0,1,1.606-1.6Z" transform="translate(-519.973 -0.798)" fill="#fff"/>
        <path id="Path_297" data-name="Path 297" d="M601.856,45.689a1.606,1.606,0,1,1-1.606,1.6A1.605,1.605,0,0,1,601.856,45.689Z" transform="translate(-519.973 -6.085)" fill="#fff"/>
        <path id="Path_298" data-name="Path 298" d="M596.472,51.073a1.606,1.606,0,1,1-1.606,1.607A1.6,1.6,0,0,1,596.472,51.073Z" transform="translate(-506.56 -3.442)" fill="#fff"/>
        <path id="Path_299" data-name="Path 299" d="M607.24,51.073a1.606,1.606,0,1,1-1.606,1.607A1.606,1.606,0,0,1,607.24,51.073Z" transform="translate(-533.385 -3.442)" fill="#fff"/>
        <path id="Path_300" data-name="Path 300" d="M596.472,40.3a1.606,1.606,0,1,1-1.606,1.607A1.6,1.6,0,0,1,596.472,40.3Z" transform="translate(-506.56 -8.729)" fill="#fff"/>
        <path id="Path_301" data-name="Path 301" d="M607.24,40.3a1.606,1.606,0,1,1-1.606,1.607A1.606,1.606,0,0,1,607.24,40.3Z" transform="translate(-533.385 -8.729)" fill="#fff"/>
        <path id="Path_302" data-name="Path 302" d="M601.856,67.227a1.606,1.606,0,1,1-1.606,1.606A1.605,1.605,0,0,1,601.856,67.227Z" transform="translate(-519.973 4.488)" fill="#fff"/>
        <path id="Path_303" data-name="Path 303" d="M607.24,72.611a1.606,1.606,0,1,1-1.606,1.607A1.606,1.606,0,0,1,607.24,72.611Z" transform="translate(-533.385 7.131)" fill="#fff"/>
        <path id="Path_304" data-name="Path 304" d="M596.472,61.842a1.606,1.606,0,1,1-1.606,1.607A1.6,1.6,0,0,1,596.472,61.842Z" transform="translate(-506.56 1.844)" fill="#fff"/>
        <path id="Path_305" data-name="Path 305" d="M607.24,61.842a1.606,1.606,0,1,1-1.606,1.607A1.606,1.606,0,0,1,607.24,61.842Z" transform="translate(-533.385 1.844)" fill="#fff"/>
      </g>
    </g>
  </g>
</svg>
