<svg id="icon__fb" xmlns="http://www.w3.org/2000/svg" width="20.667" height="20.667" viewBox="0 0 20.667 20.667">
  <path id="Path_1480" data-name="Path 1480" d="M19.242,20.667H1.425A1.43,1.43,0,0,1,0,19.242V1.425A1.43,1.43,0,0,1,1.425,0H19.242a1.43,1.43,0,0,1,1.425,1.425V19.242a1.43,1.43,0,0,1-1.425,1.425" fill="#4d6fa9"/>
  <path id="Path_1481" data-name="Path 1481" d="M186.885,88.275v3.563h-3.207a.715.715,0,0,0-.713.713v2.138h3.563v3.563h-3.563v7.127H179.4V98.252h-2.851V94.689H179.4V92.551a4.275,4.275,0,0,1,3.92-4.276h3.563Z" transform="translate(-169.425 -84.712)" fill="#fff"/>
</svg>
