<svg xmlns="http://www.w3.org/2000/svg" width="27.058" height="27.058" viewBox="0 0 27.058 27.058">
  <g id="Group_258" data-name="Group 258" transform="translate(-1196.941 -376)">
    <path id="Path_1505" data-name="Path 1505" d="M25.192,27.058H1.866A1.872,1.872,0,0,1,0,25.192V1.866A1.872,1.872,0,0,1,1.866,0H25.192a1.872,1.872,0,0,1,1.866,1.866V25.192a1.872,1.872,0,0,1-1.866,1.866" transform="translate(1196.941 376)" fill="gray"/>
    <path id="Path_1506" data-name="Path 1506" d="M190.081,88.275V92.94h-4.2a.936.936,0,0,0-.933.933v2.8h4.665v4.665h-4.665v9.33h-4.665v-9.33h-3.732V96.672h3.732v-2.8a5.6,5.6,0,0,1,5.132-5.6h4.665Z" transform="translate(1029.72 292.39)" fill="#fff"/>
  </g>
</svg>
