<svg xmlns="http://www.w3.org/2000/svg" width="27.058" height="27.058" viewBox="0 0 27.058 27.058">
  <path id="linkedin-svgrepo-com_1_" data-name="linkedin-svgrepo-com (1)" d="M24.611,0H2.448A2.448,2.448,0,0,0,0,2.448V24.611a2.448,2.448,0,0,0,2.448,2.448H24.611a2.448,2.448,0,0,0,2.448-2.448V2.448A2.448,2.448,0,0,0,24.611,0ZM8.373,23.364a.712.712,0,0,1-.712.712H4.629a.712.712,0,0,1-.712-.712V10.654a.712.712,0,0,1,.712-.712H7.661a.712.712,0,0,1,.712.712ZM6.145,8.743A2.881,2.881,0,1,1,9.025,5.863,2.881,2.881,0,0,1,6.145,8.743ZM24.219,23.421a.655.655,0,0,1-.655.655H20.31a.655.655,0,0,1-.655-.655V17.459c0-.889.261-3.9-2.324-3.9-2.005,0-2.412,2.059-2.494,2.983v6.876a.655.655,0,0,1-.655.655H11.035a.655.655,0,0,1-.655-.655V10.6a.655.655,0,0,1,.655-.655h3.147a.655.655,0,0,1,.655.655v1.109c.744-1.116,1.849-1.977,4.2-1.977,5.21,0,5.18,4.867,5.18,7.542v6.152Z" fill="gray"/>
</svg>
