<svg xmlns="http://www.w3.org/2000/svg" width="18.668" height="28" viewBox="0 0 18.668 28">
  <g id="icon__maps" transform="translate(-4.266 -0.449)">
    <path id="XMLID_6_" d="M18.267,9.783a4.619,4.619,0,0,0-1.353-3.313A4.367,4.367,0,0,0,13.6,5.116a4.619,4.619,0,0,0-3.313,1.353A4.367,4.367,0,0,0,8.933,9.783,4.619,4.619,0,0,0,10.286,13.1,4.367,4.367,0,0,0,13.6,14.45,4.619,4.619,0,0,0,16.913,13.1,4.367,4.367,0,0,0,18.267,9.783Zm4.667,0a7.436,7.436,0,0,1-.606,3.267L15.7,27.143a1.907,1.907,0,0,1-.886.933,2.446,2.446,0,0,1-1.213.373,2.258,2.258,0,0,1-1.213-.326,2.313,2.313,0,0,1-.84-.933L4.872,13.05a7.419,7.419,0,0,1-.606-3.267A8.99,8.99,0,0,1,7.019,3.2,8.99,8.99,0,0,1,13.6.449,8.99,8.99,0,0,1,20.18,3.2,8.99,8.99,0,0,1,22.934,9.783Z" transform="translate(0)" fill="#4e781c"/>
  </g>
</svg>
