<svg id="icon__ig" xmlns="http://www.w3.org/2000/svg" xmlns:xlink="http://www.w3.org/1999/xlink" width="22" height="22" viewBox="0 0 22 22">
  <defs>
    <linearGradient id="linear-gradient" x1="0.5" y1="0.008" x2="0.5" y2="0.998" gradientUnits="objectBoundingBox">
      <stop offset="0" stop-color="#e09b3d"/>
      <stop offset="0.3" stop-color="#c74c4d"/>
      <stop offset="0.6" stop-color="#c21975"/>
      <stop offset="1" stop-color="#7024c4"/>
    </linearGradient>
    <linearGradient id="linear-gradient-2" y1="-0.451" y2="1.462" xlink:href="#linear-gradient"/>
    <linearGradient id="linear-gradient-3" y1="-1.396" y2="6.586" xlink:href="#linear-gradient"/>
  </defs>
  <path id="XMLID_17_" d="M15.446,0H6.554A6.561,6.561,0,0,0,0,6.554v8.892A6.561,6.561,0,0,0,6.554,22h8.892A6.561,6.561,0,0,0,22,15.446V6.554A6.561,6.561,0,0,0,15.446,0Zm4.341,15.446a4.341,4.341,0,0,1-4.341,4.341H6.554a4.341,4.341,0,0,1-4.341-4.341V6.554A4.341,4.341,0,0,1,6.554,2.213h8.892a4.341,4.341,0,0,1,4.341,4.341v8.892Z" fill="url(#linear-gradient)"/>
  <path id="XMLID_81_" d="M138.69,133a5.69,5.69,0,1,0,5.69,5.69A5.7,5.7,0,0,0,138.69,133Zm0,9.167a3.477,3.477,0,1,1,3.477-3.477A3.477,3.477,0,0,1,138.69,142.167Z" transform="translate(-127.69 -127.69)" fill="url(#linear-gradient-2)"/>
  <circle id="XMLID_83_" cx="1.363" cy="1.363" r="1.363" transform="translate(15.337 3.989)" fill="url(#linear-gradient-3)"/>
</svg>
