<svg xmlns="http://www.w3.org/2000/svg" width="28.608" height="23.108" viewBox="0 0 28.608 23.108">
  <path id="twitter-social-media-svgrepo-com" d="M19.967,49.172A6.17,6.17,0,0,0,14.039,55.4v.8C8.111,55.15,5.2,53.542,1.982,50.177c-1.909,3.717.2,6.832,2.512,8.54A5.46,5.46,0,0,1,.626,57.612c-.1-.05-.2,0-.151.1A9.336,9.336,0,0,0,6.5,63.74c-2.06,0-3.416.3-4.873-.6-.1-.05-.2,0-.151.1C2.585,66.3,4.8,67.257,8.01,67.257A12.457,12.457,0,0,1,.174,69.769a.165.165,0,0,0-.1.3C1.58,71.326,5.3,72.28,10.522,72.28c8.59,0,15.573-7.636,15.573-17.08v-.5a4.393,4.393,0,0,0,2.512-2.914.108.108,0,0,0-.1-.1l-2.863,1a.1.1,0,0,1-.05-.151A7.686,7.686,0,0,0,28.1,49.222a.175.175,0,0,0-.1-.05c-1.356.553-2.662,1.105-3.667,1.407a.594.594,0,0,1-.5-.05,10.57,10.57,0,0,0-3.868-1.356" transform="translate(0.001 -49.172)" fill="gray"/>
</svg>
