<svg id="Group_10" data-name="Group 10" xmlns="http://www.w3.org/2000/svg" width="99.389" height="99.389" viewBox="0 0 99.389 99.389">
  <path id="Path_7" data-name="Path 7" d="M86.4,16.2a5.516,5.516,0,1,1-1.913-1.972A49.349,49.349,0,1,0,86.4,16.2ZM58.256,45.85a1.189,1.189,0,1,1,1.227-1.189A1.208,1.208,0,0,1,58.256,45.85Zm3.427-3.716a1.623,1.623,0,1,1,1.623-1.623A1.624,1.624,0,0,1,61.683,42.134Zm4.62-4.555a2.436,2.436,0,1,1,2.434-2.436A2.436,2.436,0,0,1,66.3,37.579Zm6.221-5.9a3.653,3.653,0,1,1,3.654-3.652A3.653,3.653,0,0,1,72.524,31.681Z" fill="#75aa17"/>
  <g id="Group_9" data-name="Group 9" transform="translate(5.028 43.469)">
    <path id="Path_8" data-name="Path 8" d="M3.955,34.769a19.772,19.772,0,0,1,3-.219A6.415,6.415,0,0,1,11,35.6a4.357,4.357,0,0,1,1.668,3.715,5.043,5.043,0,0,1-1.623,3.993,7.129,7.129,0,0,1-4.564,1.273,18.979,18.979,0,0,1-2.53-.147ZM6.178,42.8a4.117,4.117,0,0,0,.774.044c2.034.014,3.365-1.1,3.365-3.453a2.849,2.849,0,0,0-3.13-3.13,4.792,4.792,0,0,0-1.009.088Z" transform="translate(-3.955 -34.097)" fill="#fff"/>
    <path id="Path_9" data-name="Path 9" d="M13.7,41.056c.057.922.98,1.36,2.017,1.36a5.9,5.9,0,0,0,1.976-.308l.292,1.506a6.761,6.761,0,0,1-2.59.454c-2.428,0-3.816-1.4-3.816-3.641a3.581,3.581,0,0,1,3.612-3.818c2.311,0,3.188,1.8,3.188,3.568a5.288,5.288,0,0,1-.072.877Zm2.617-1.522a1.29,1.29,0,0,0-1.259-1.447,1.468,1.468,0,0,0-1.374,1.447Z" transform="translate(-1.887 -33.539)" fill="#fff"/>
    <path id="Path_10" data-name="Path 10" d="M18.046,42a4.352,4.352,0,0,0,1.916.526c.672,0,.951-.22.951-.585,0-.381-.22-.557-1.039-.835-1.491-.5-2.062-1.3-2.048-2.15,0-1.345,1.142-2.354,2.911-2.354a4.715,4.715,0,0,1,2,.423l-.38,1.537a3.57,3.57,0,0,0-1.551-.409c-.542,0-.848.219-.848.57s.277.526,1.156.834c1.36.468,1.916,1.171,1.93,2.208,0,1.346-1.037,2.326-3.085,2.326a5.053,5.053,0,0,1-2.311-.512Z" transform="translate(-0.24 -33.542)" fill="#fff"/>
    <path id="Path_11" data-name="Path 11" d="M25.274,35.408a1.109,1.109,0,0,1-1.2,1.112,1.114,1.114,0,1,1,1.2-1.112Zm-2.3,9.141V37.4H25.2V44.55Z" transform="translate(1.189 -34.166)" fill="#fff"/>
    <path id="Path_12" data-name="Path 12" d="M32.974,42.884a4.062,4.062,0,0,1-1.1,3.218,4.344,4.344,0,0,1-2.9.878,5.725,5.725,0,0,1-2.574-.542l.439-1.7a4.35,4.35,0,0,0,2.077.54A1.7,1.7,0,0,0,30.78,43.4v-.454h-.029a2.311,2.311,0,0,1-1.931.922c-1.77,0-3.027-1.433-3.027-3.481,0-2.311,1.477-3.773,3.247-3.773A2.136,2.136,0,0,1,31,37.633h.029l.072-.863h1.931c-.029.468-.058,1.068-.058,2.136Zm-2.223-3.2a1.96,1.96,0,0,0-.043-.411,1.221,1.221,0,0,0-1.2-.98c-.819,0-1.463.732-1.463,2.034,0,1.068.528,1.9,1.449,1.9a1.214,1.214,0,0,0,1.184-.894,1.99,1.99,0,0,0,.074-.6Z" transform="translate(1.968 -33.539)" fill="#fff"/>
    <path id="Path_13" data-name="Path 13" d="M32.854,39.052c0-.892-.029-1.639-.058-2.282h1.931l.1.994h.043a2.568,2.568,0,0,1,2.208-1.154c1.463,0,2.56.979,2.56,3.085v4.227H37.418V39.958c0-.922-.322-1.55-1.126-1.55a1.219,1.219,0,0,0-1.14.833,1.608,1.608,0,0,0-.074.556v4.125H32.854Z" transform="translate(3.868 -33.539)" fill="#fff"/>
    <path id="Path_14" data-name="Path 14" d="M41.059,36.479H38.4V34.608h7.577v1.871H43.281v7.986H41.059Z" transform="translate(5.387 -34.082)" fill="#fff"/>
    <path id="Path_15" data-name="Path 15" d="M47.273,35.408a1.11,1.11,0,0,1-1.2,1.112,1.114,1.114,0,1,1,1.2-1.112Zm-2.3,9.141V37.4H47.2V44.55Z" transform="translate(7.156 -34.166)" fill="#fff"/>
    <path id="Path_16" data-name="Path 16" d="M48.125,39.052c0-.892-.028-1.639-.058-2.282H50l.1.994h.043a2.57,2.57,0,0,1,2.208-1.154c1.463,0,2.56.979,2.56,3.085v4.227H52.689V39.958c0-.922-.322-1.55-1.126-1.55a1.22,1.22,0,0,0-1.14.833,1.608,1.608,0,0,0-.074.556v4.125H48.125Z" transform="translate(8.01 -33.539)" fill="#fff"/>
    <path id="Path_17" data-name="Path 17" d="M57.076,40.438H57.1a9.825,9.825,0,0,1,.512-.862l1.448-2.151h2.676l-2.559,2.9,2.925,4.256H59.371l-1.74-2.939-.554.7v2.237H54.853V34.194h2.223Z" transform="translate(9.851 -34.194)" fill="#fff"/>
    <path id="Path_18" data-name="Path 18" d="M62.723,41.056c.057.922.98,1.36,2.017,1.36a5.9,5.9,0,0,0,1.976-.308l.292,1.506a6.761,6.761,0,0,1-2.59.454c-2.428,0-3.816-1.4-3.816-3.641a3.581,3.581,0,0,1,3.612-3.818c2.311,0,3.188,1.8,3.188,3.568a5.288,5.288,0,0,1-.072.877Zm2.617-1.522a1.29,1.29,0,0,0-1.257-1.447,1.467,1.467,0,0,0-1.374,1.447Z" transform="translate(11.41 -33.539)" fill="#fff"/>
    <path id="Path_19" data-name="Path 19" d="M67.008,39.129c0-1.054-.014-1.74-.058-2.356h1.9l.089,1.317H69a2.081,2.081,0,0,1,1.93-1.492,2.215,2.215,0,0,1,.468.044v2.091a3.32,3.32,0,0,0-.6-.058A1.431,1.431,0,0,0,69.275,39.8a2.757,2.757,0,0,0-.043.5v3.627H67.008Z" transform="translate(13.132 -33.542)" fill="#fff"/>
    <path id="Path_20" data-name="Path 20" d="M71.439,42a4.357,4.357,0,0,0,1.916.526c.674,0,.951-.22.951-.585,0-.381-.22-.557-1.039-.835-1.491-.5-2.062-1.3-2.047-2.15,0-1.345,1.14-2.354,2.91-2.354a4.71,4.71,0,0,1,2,.423l-.38,1.537a3.57,3.57,0,0,0-1.551-.409c-.54,0-.848.219-.848.57s.278.526,1.156.834c1.36.468,1.916,1.171,1.931,2.208,0,1.346-1.039,2.326-3.087,2.326a5.047,5.047,0,0,1-2.31-.512Z" transform="translate(14.242 -33.542)" fill="#fff"/>
  </g>
</svg>
