<svg xmlns="http://www.w3.org/2000/svg" width="102.011" height="102.013" viewBox="0 0 102.011 102.013">
  <g id="Group_262" data-name="Group 262" transform="translate(-10500 4253.667)">
    <ellipse id="Ellipse_120" data-name="Ellipse 120" cx="51.005" cy="51.006" rx="51.005" ry="51.006" transform="translate(10500 -4253.667)" fill="#78b82a"/>
    <g id="Group_261" data-name="Group 261" transform="translate(10505.161 -4209.034)">
      <path id="Path_1535" data-name="Path 1535" d="M26.352,37.672a19.961,19.961,0,0,1,3.073-.223,6.59,6.59,0,0,1,4.153,1.08,4.462,4.462,0,0,1,1.709,3.808,5.181,5.181,0,0,1-1.663,4.1,7.3,7.3,0,0,1-4.678,1.3,19.507,19.507,0,0,1-2.595-.151ZM28.63,45.9a4.465,4.465,0,0,0,.8.043c2.084.014,3.448-1.123,3.448-3.538a2.921,2.921,0,0,0-3.21-3.21,4.976,4.976,0,0,0-1.033.09Z" transform="translate(-26.352 -36.985)" fill="#fff"/>
      <path id="Path_1536" data-name="Path 1536" d="M31.291,42.751c.061.943,1,1.393,2.069,1.393a6.058,6.058,0,0,0,2.023-.313l.3,1.544a6.953,6.953,0,0,1-2.652.464c-2.487,0-3.912-1.44-3.912-3.732a3.669,3.669,0,0,1,3.7-3.912c2.368,0,3.268,1.846,3.268,3.66a5.556,5.556,0,0,1-.076.9l-4.722,0Zm2.681-1.558a1.326,1.326,0,0,0-1.288-1.486,1.508,1.508,0,0,0-1.411,1.486Z" transform="translate(-19.166 -35.046)" fill="#fff"/>
      <path id="Path_1537" data-name="Path 1537" d="M31.727,43.721a4.445,4.445,0,0,0,1.961.54c.691,0,.975-.223.975-.6s-.223-.569-1.065-.857c-1.529-.511-2.112-1.335-2.1-2.2,0-1.378,1.17-2.411,2.983-2.411a4.783,4.783,0,0,1,2.051.435L36.147,40.2a3.666,3.666,0,0,0-1.591-.421c-.554,0-.871.223-.871.587s.288.54,1.184.853c1.4.479,1.965,1.2,1.979,2.264,0,1.378-1.065,2.386-3.163,2.386a5.137,5.137,0,0,1-2.368-.525Z" transform="translate(-13.449 -35.059)" fill="#fff"/>
      <path id="Path_1538" data-name="Path 1538" d="M35.642,38.5a1.134,1.134,0,0,1-1.231,1.137A1.14,1.14,0,1,1,35.642,38.5Zm-2.354,9.368V40.532h2.278v7.331Z" transform="translate(-8.485 -37.221)" fill="#fff"/>
      <path id="Path_1539" data-name="Path 1539" d="M41.63,44.623a4.175,4.175,0,0,1-1.123,3.3,4.452,4.452,0,0,1-2.969.9,5.858,5.858,0,0,1-2.638-.554l.45-1.738a4.454,4.454,0,0,0,2.127.554,1.742,1.742,0,0,0,1.9-1.933v-.464h-.029a2.372,2.372,0,0,1-1.979.947c-1.814,0-3.1-1.468-3.1-3.57,0-2.368,1.511-3.869,3.325-3.869a2.2,2.2,0,0,1,2.012,1.051h.029l.076-.885h1.979c-.032.479-.061,1.094-.061,2.188ZM39.351,41.34a1.865,1.865,0,0,0-.047-.421,1.25,1.25,0,0,0-1.231-1c-.839,0-1.5.749-1.5,2.084,0,1.094.54,1.951,1.486,1.951a1.24,1.24,0,0,0,1.213-.914,2.062,2.062,0,0,0,.076-.615l0-1.08Z" transform="translate(-5.775 -35.046)" fill="#fff"/>
      <path id="Path_1540" data-name="Path 1540" d="M36.87,40.7c0-.914-.029-1.677-.061-2.339h1.979l.1,1.018h.047A2.631,2.631,0,0,1,41.2,38.194c1.5,0,2.624,1,2.624,3.163V45.69H41.549V41.627c0-.943-.331-1.587-1.155-1.587a1.254,1.254,0,0,0-1.17.853,1.614,1.614,0,0,0-.076.569V45.69H36.87S36.87,40.7,36.87,40.7Z" transform="translate(0.823 -35.049)" fill="#fff"/>
      <path id="Path_1541" data-name="Path 1541" d="M41.568,39.388H38.84V37.47h7.766v1.918h-2.76v8.184H41.568Z" transform="translate(6.102 -36.93)" fill="#fff"/>
      <path id="Path_1542" data-name="Path 1542" d="M43.619,38.5a1.134,1.134,0,0,1-1.231,1.137A1.14,1.14,0,1,1,43.619,38.5Zm-2.357,9.368V40.532H43.54v7.331Z" transform="translate(12.245 -37.221)" fill="#fff"/>
      <path id="Path_1543" data-name="Path 1543" d="M42.407,40.7c0-.914-.029-1.677-.061-2.339h1.979l.1,1.018h.043a2.642,2.642,0,0,1,2.264-1.184c1.5,0,2.624,1,2.624,3.163V45.69H47.082V41.627c0-.943-.331-1.587-1.155-1.587a1.254,1.254,0,0,0-1.17.853,1.614,1.614,0,0,0-.076.569V45.69H42.4l0-4.992Z" transform="translate(15.213 -35.049)" fill="#fff"/>
      <path id="Path_1544" data-name="Path 1544" d="M47.084,43.719h.029a9.739,9.739,0,0,1,.525-.885l1.486-2.2h2.742L49.243,43.6l3,4.362h-2.8L47.656,44.95l-.569.72v2.292H44.806V37.32h2.282l0,6.4Z" transform="translate(21.606 -37.32)" fill="#fff"/>
      <path id="Path_1545" data-name="Path 1545" d="M49.065,42.751c.061.943,1,1.393,2.069,1.393a6.043,6.043,0,0,0,2.023-.313l.3,1.544a6.953,6.953,0,0,1-2.652.464c-2.487,0-3.912-1.44-3.912-3.732a3.668,3.668,0,0,1,3.7-3.912c2.368,0,3.268,1.846,3.268,3.66a5.554,5.554,0,0,1-.076.9l-4.718,0Zm2.685-1.558a1.324,1.324,0,0,0-1.288-1.486,1.508,1.508,0,0,0-1.411,1.486Z" transform="translate(27.024 -35.046)" fill="#fff"/>
      <path id="Path_1546" data-name="Path 1546" d="M49.253,40.785c0-1.08-.014-1.785-.061-2.415h1.951l.086,1.35h.061a2.139,2.139,0,0,1,1.979-1.53,2.374,2.374,0,0,1,.482.043v2.145a3.508,3.508,0,0,0-.615-.061,1.47,1.47,0,0,0-1.562,1.155,2.819,2.819,0,0,0-.043.511V45.7H49.25V40.785Z" transform="translate(33.004 -35.059)" fill="#fff"/>
      <path id="Path_1547" data-name="Path 1547" d="M51.077,43.721a4.434,4.434,0,0,0,1.965.54c.687,0,.975-.223.975-.6s-.223-.569-1.065-.857c-1.529-.511-2.112-1.335-2.1-2.2,0-1.378,1.17-2.411,2.983-2.411a4.783,4.783,0,0,1,2.051.435L55.5,40.2a3.663,3.663,0,0,0-1.587-.421c-.554,0-.867.223-.867.587s.284.54,1.184.853c1.393.479,1.965,1.2,1.979,2.264,0,1.378-1.065,2.386-3.163,2.386a5.137,5.137,0,0,1-2.368-.525Z" transform="translate(36.866 -35.059)" fill="#fff"/>
    </g>
    <ellipse id="Ellipse_121" data-name="Ellipse 121" cx="1.26" cy="1.22" rx="1.26" ry="1.22" transform="translate(10558.533 -4209.045)" fill="#fff"/>
    <ellipse id="Ellipse_122" data-name="Ellipse 122" cx="1.666" cy="1.666" rx="1.666" ry="1.666" transform="translate(10561.646 -4213.752)" fill="#fff"/>
    <ellipse id="Ellipse_123" data-name="Ellipse 123" cx="2.501" cy="2.501" rx="2.501" ry="2.501" transform="translate(10565.551 -4220.096)" fill="#fff"/>
    <ellipse id="Ellipse_124" data-name="Ellipse 124" cx="3.75" cy="3.75" rx="3.75" ry="3.75" transform="translate(10570.689 -4228.647)" fill="#fff"/>
    <ellipse id="Ellipse_125" data-name="Ellipse 125" cx="5.625" cy="5.625" rx="5.625" ry="5.625" transform="translate(10578.186 -4239.896)" fill="#fff"/>
  </g>
</svg>
