<svg xmlns="http://www.w3.org/2000/svg" width="20.021" height="21.545" viewBox="0 0 20.021 21.545">
  <g id="shopping-cart" transform="translate(-19.2 -3)">
    <path id="Path_15" data-name="Path 15" d="M22.906,14.186H34.778a2.449,2.449,0,0,0,2.444-2.444V6.694a.056.056,0,0,0,0-.027c0-.009,0-.022,0-.031s0-.018,0-.027a.284.284,0,0,1-.009-.031c0-.009,0-.018-.009-.027s0-.018-.009-.027a.216.216,0,0,1-.013-.031.1.1,0,0,0-.013-.022l-.013-.027c0-.009-.009-.013-.013-.022s-.013-.018-.018-.027a.078.078,0,0,0-.018-.022c0-.009-.013-.013-.018-.022s-.013-.013-.018-.022-.013-.013-.018-.018l-.022-.022c-.009,0-.013-.013-.022-.018s-.018-.013-.027-.018l-.022-.013a.093.093,0,0,1-.027-.018l-.027-.013L36.867,6.2l-.027-.013c-.009,0-.018,0-.027-.009a.082.082,0,0,0-.031-.009.192.192,0,0,1-.022,0,.1.1,0,0,0-.035,0s-.009,0-.018,0L21.662,4.077v-2.1a.272.272,0,0,0,0-.062.034.034,0,0,0,0-.018c0-.013,0-.027,0-.04s0-.022-.009-.035,0-.013,0-.022l-.013-.04s0-.013,0-.018a.132.132,0,0,0-.018-.035s0-.013-.009-.018a.093.093,0,0,0-.018-.027c0-.009-.009-.013-.013-.022s-.009-.013-.013-.022-.013-.018-.018-.027l-.013-.013-.027-.027-.013-.013a.193.193,0,0,0-.031-.027s-.013-.009-.018-.013-.018-.013-.027-.022a.409.409,0,0,0-.035-.022s-.009,0-.013-.009l-.058-.027L18.031.048a.6.6,0,1,0-.465,1.1l2.9,1.222v13.1a2.447,2.447,0,0,0,2.13,2.422,2.412,2.412,0,1,0,4.481,1.24,2.367,2.367,0,0,0-.332-1.218h5.375a2.379,2.379,0,0,0-.332,1.218A2.413,2.413,0,1,0,34.2,16.718H22.906a1.25,1.25,0,0,1-1.249-1.249V13.849A2.472,2.472,0,0,0,22.906,14.186Zm2.976,4.942a1.218,1.218,0,1,1-1.218-1.218A1.22,1.22,0,0,1,25.882,19.127Zm9.538,0A1.218,1.218,0,1,1,34.2,17.91,1.22,1.22,0,0,1,35.42,19.127Zm-.642-6.137H22.906a1.25,1.25,0,0,1-1.249-1.249V5.281L36.026,7.261v4.477A1.251,1.251,0,0,1,34.778,12.99Z" transform="translate(2 3)" fill="#fff"/>
  </g>
</svg>
