<svg xmlns="http://www.w3.org/2000/svg" width="21.886" height="21.886" viewBox="0 0 21.886 21.886">
  <g id="Group_14" data-name="Group 14" transform="translate(-4303.354 -1110.354)">
    <g id="menu" transform="translate(4303.354 1110.354)">
      <g id="Group_7" data-name="Group 7" transform="translate(11.798)">
        <g id="Group_6" data-name="Group 6">
          <path id="Path_11" data-name="Path 11" d="M282.669,0H279.42A3.424,3.424,0,0,0,276,3.42V6.669a3.424,3.424,0,0,0,3.42,3.42h3.249a3.424,3.424,0,0,0,3.42-3.42V3.42A3.424,3.424,0,0,0,282.669,0Zm1.71,6.669a1.712,1.712,0,0,1-1.71,1.71H279.42a1.712,1.712,0,0,1-1.71-1.71V3.42a1.712,1.712,0,0,1,1.71-1.71h3.249a1.712,1.712,0,0,1,1.71,1.71Z" transform="translate(-276)" fill="#7e7e7e"/>
        </g>
      </g>
      <g id="Group_9" data-name="Group 9">
        <g id="Group_8" data-name="Group 8">
          <path id="Path_12" data-name="Path 12" d="M6.669,0H3.42A3.424,3.424,0,0,0,0,3.42V6.669a3.424,3.424,0,0,0,3.42,3.42H6.669a3.424,3.424,0,0,0,3.42-3.42V3.42A3.424,3.424,0,0,0,6.669,0Zm1.71,6.669a1.712,1.712,0,0,1-1.71,1.71H3.42a1.712,1.712,0,0,1-1.71-1.71V3.42A1.712,1.712,0,0,1,3.42,1.71H6.669a1.712,1.712,0,0,1,1.71,1.71Z" fill="#7e7e7e"/>
        </g>
      </g>
      <g id="Group_11" data-name="Group 11" transform="translate(0 11.798)">
        <g id="Group_10" data-name="Group 10">
          <path id="Path_13" data-name="Path 13" d="M6.669,276H3.42A3.424,3.424,0,0,0,0,279.42v3.249a3.424,3.424,0,0,0,3.42,3.42H6.669a3.424,3.424,0,0,0,3.42-3.42V279.42A3.424,3.424,0,0,0,6.669,276Zm1.71,6.669a1.712,1.712,0,0,1-1.71,1.71H3.42a1.712,1.712,0,0,1-1.71-1.71V279.42a1.712,1.712,0,0,1,1.71-1.71H6.669a1.712,1.712,0,0,1,1.71,1.71Z" transform="translate(0 -276)" fill="#7e7e7e"/>
        </g>
      </g>
      <g id="Group_13" data-name="Group 13" transform="translate(11.798 11.798)">
        <g id="Group_12" data-name="Group 12">
          <path id="Path_14" data-name="Path 14" d="M285.233,281.814a.855.855,0,0,0-.855.855,1.712,1.712,0,0,1-1.71,1.71H279.42a1.712,1.712,0,0,1-1.71-1.71V279.42a1.712,1.712,0,0,1,1.71-1.71h3.249a1.711,1.711,0,0,1,1.568,1.026.855.855,0,0,0,1.567-.685A3.421,3.421,0,0,0,282.669,276H279.42a3.424,3.424,0,0,0-3.42,3.42v3.249a3.424,3.424,0,0,0,3.42,3.42h3.249a3.424,3.424,0,0,0,3.42-3.42A.855.855,0,0,0,285.233,281.814Z" transform="translate(-276 -276)" fill="#7e7e7e"/>
        </g>
      </g>
    </g>
  </g>
</svg>
