<svg width="211" height="46" viewBox="0 0 211 46" fill="none" xmlns="http://www.w3.org/2000/svg">
<g clip-path="url(#clip0)">
<path d="M51.3375 23.52L63.0807 43.6316C63.0061 44.5379 62.274 45.2788 61.3511 45.3655L33.8154 25.7402L37.145 0.611448C37.5346 0.647084 37.91 0.798709 38.2176 1.06651L51.3374 23.5198L51.3375 23.52Z" stroke="white" stroke-width="1.20853"/>
<path d="M61.1696 45.9782C62.5584 45.9782 63.6912 44.8512 63.6912 43.4788L51.8592 23.2151L38.6927 0.68202C38.1186 0.137669 37.3505 -0.0770053 36.6134 0.0226647C36.6134 0.0226647 35.6358 17.2732 36.4893 20.248C37.3349 23.2304 61.1696 45.9782 61.1696 45.9782Z" fill="white"/>
<path d="M12.574 45.4678C11.5393 45.4128 10.7189 44.5963 10.6596 43.5952L22.2308 23.7912L32.6218 26.3831L31.3267 36.1421L12.574 45.4678Z" stroke="white"/>
<path d="M21.9261 28.9041C18.1244 31.2042 10.1484 43.4789 10.1484 43.4789C10.1484 44.8513 11.289 45.9784 12.6778 45.9784L31.7797 36.479L33.1685 26.0137C33.1685 26.0213 24.6649 27.248 21.9261 28.9041Z" fill="white"/>
<path d="M97.4342 15.5899C97.3435 15.5899 97.2981 15.6257 97.2619 15.7422L96.246 18.3951C96.0556 18.8612 95.9649 19.3093 95.9649 19.5244C95.9649 19.856 96.1372 20.098 96.7177 20.098H96.9988C97.2256 20.098 97.28 20.1338 97.28 20.2503C97.28 20.4027 97.1712 20.4386 96.9626 20.4386C96.3639 20.4386 95.5567 20.3848 94.9763 20.3848C94.7677 20.3848 93.7337 20.4386 92.7633 20.4386C92.5184 20.4386 92.4095 20.4027 92.4095 20.2503C92.4095 20.1428 92.4821 20.098 92.6363 20.098C92.8086 20.098 93.0716 20.0801 93.2168 20.0621C94.0784 19.9546 94.4321 19.3182 94.813 18.3951L99.5293 6.74389C99.756 6.20614 99.8649 6 100.055 6C100.228 6 100.336 6.16133 100.527 6.59153C100.98 7.61325 103.983 15.1776 105.18 18.0008C105.896 19.6678 106.431 19.9277 106.83 20.0173C107.112 20.0711 107.393 20.089 107.619 20.089C107.774 20.089 107.864 20.1069 107.864 20.2414C107.864 20.3937 107.692 20.4296 107.003 20.4296C106.323 20.4296 104.953 20.4296 103.456 20.3937C103.121 20.3758 102.894 20.3758 102.894 20.2414C102.894 20.1338 102.967 20.089 103.157 20.0711C103.284 20.0352 103.42 19.865 103.33 19.6409L101.824 15.7064C101.788 15.6078 101.733 15.5719 101.633 15.5719H97.4342V15.5899ZM101.262 14.6578C101.352 14.6578 101.37 14.604 101.352 14.5502L99.6653 9.97038C99.6472 9.89868 99.6291 9.8001 99.5746 9.8001C99.5202 9.8001 99.4839 9.89868 99.4658 9.97038L97.7335 14.5323C97.7153 14.604 97.7335 14.6667 97.806 14.6667H101.262V14.6578Z" fill="white"/>
<path d="M110.476 18.2784C110.513 19.5062 110.721 19.8737 111.039 19.9812C111.32 20.0798 111.637 20.0978 111.9 20.0978C112.091 20.0978 112.182 20.1695 112.182 20.2681C112.182 20.3935 112.027 20.4294 111.81 20.4294C110.739 20.4294 109.969 20.3756 109.669 20.3756C109.515 20.3756 108.735 20.4294 107.882 20.4294C107.656 20.4294 107.511 20.4115 107.511 20.2681C107.511 20.1784 107.619 20.0978 107.774 20.0978C108 20.0978 108.3 20.0798 108.526 20.0261C108.962 19.9185 109.016 19.4883 109.034 18.1171L109.179 8.76919C109.179 8.45551 109.288 8.23145 109.461 8.23145C109.669 8.23145 109.896 8.47343 110.177 8.75126C110.386 8.9574 112.862 11.4579 115.265 13.7792C116.39 14.8726 118.585 17.1043 118.83 17.3194H118.902L118.73 10.3107C118.712 9.34279 118.558 9.06495 118.168 8.92155C117.923 8.83193 117.533 8.83193 117.306 8.83193C117.097 8.83193 117.043 8.76023 117.043 8.66164C117.043 8.5272 117.215 8.50928 117.46 8.50928C118.322 8.50928 119.202 8.54513 119.564 8.54513C119.755 8.54513 120.372 8.50928 121.179 8.50928C121.405 8.50928 121.551 8.5272 121.551 8.66164C121.551 8.75127 121.46 8.83193 121.269 8.83193C121.097 8.83193 120.97 8.83193 120.762 8.8857C120.308 9.01118 120.181 9.29798 120.163 10.1853L119.972 20.1246C119.972 20.4742 119.845 20.6265 119.709 20.6265C119.428 20.6265 119.202 20.4563 119.029 20.2949C117.995 19.3449 115.927 17.4001 114.204 15.751C112.399 14.0481 110.658 12.1301 110.34 11.8523H110.286L110.476 18.2784Z" fill="white"/>
<path d="M124.516 13.0626C124.516 10.6696 124.535 10.2215 124.498 9.71956C124.462 9.16389 124.308 9.01153 123.782 8.86813C123.655 8.83228 123.374 8.81435 123.147 8.81435C122.965 8.81435 122.866 8.76058 122.866 8.64407C122.866 8.53652 122.975 8.4917 123.219 8.4917C124.099 8.4917 125.206 8.52755 125.695 8.52755C126.113 8.52755 127.21 8.4917 127.818 8.4917C128.063 8.4917 128.172 8.52755 128.172 8.64407C128.172 8.75162 128.081 8.81435 127.909 8.81435C127.718 8.81435 127.627 8.83228 127.419 8.86813C126.983 8.93983 126.856 9.16389 126.82 9.71956C126.784 10.2215 126.784 10.6696 126.784 13.0626V15.2673C126.784 17.5617 127.237 18.458 128.045 19.0853C128.779 19.6589 129.568 19.7127 130.131 19.7127C130.847 19.7127 131.691 19.5066 132.344 18.8792C133.269 18.0278 133.305 16.6565 133.305 15.0433V13.0626C133.305 10.6696 133.287 10.2215 133.269 9.71956C133.232 9.18181 133.096 9.01153 132.57 8.86813C132.443 8.83228 132.153 8.81435 131.972 8.81435C131.79 8.81435 131.691 8.76058 131.691 8.64407C131.691 8.53652 131.799 8.4917 132.026 8.4917C132.87 8.4917 133.976 8.52755 133.994 8.52755C134.185 8.52755 135.291 8.4917 135.926 8.4917C136.153 8.4917 136.271 8.52755 136.271 8.64407C136.271 8.75162 136.18 8.81435 135.99 8.81435C135.799 8.81435 135.708 8.83228 135.5 8.86813C135.046 8.93983 134.938 9.16389 134.901 9.71956C134.883 10.2215 134.865 10.6696 134.865 13.0626V14.7475C134.865 16.5131 134.675 18.3683 133.287 19.4976C132.126 20.4656 130.865 20.6269 129.795 20.6269C128.933 20.6269 127.219 20.591 126.022 19.5514C125.179 18.8254 124.516 17.6603 124.516 15.3749V13.0626Z" fill="white"/>
<path d="M149.576 19.3717C149.576 19.8019 149.576 19.8199 149.367 19.9274C148.261 20.4652 146.628 20.6355 145.331 20.6355C141.277 20.6355 137.695 18.8161 137.695 14.4603C137.695 11.9329 139.064 10.1762 140.588 9.30688C142.166 8.40167 143.654 8.28516 145.041 8.28516C146.184 8.28516 147.626 8.47337 147.971 8.54507C148.306 8.59884 148.887 8.69743 149.286 8.71535C149.476 8.73328 149.513 8.78706 149.513 8.90357C149.513 9.09178 149.404 9.51301 149.404 11.5027C149.404 11.7447 149.313 11.8612 149.177 11.8612C149.059 11.8612 149.023 11.7895 149.005 11.6551C148.968 11.3055 148.869 10.8036 148.442 10.3555C147.962 9.85359 146.719 9.15452 144.86 9.15452C143.962 9.15452 142.81 9.17244 141.667 10.0777C140.742 10.8215 140.144 11.9867 140.144 13.9136C140.144 17.3104 142.357 19.7751 145.885 19.7751C146.32 19.7751 146.656 19.7751 147.046 19.6048C147.29 19.4972 147.363 19.3269 147.363 19.0491V17.6061C147.363 16.8264 147.363 16.2349 147.345 15.7509C147.327 15.2132 147.154 15.0429 146.628 14.8995C146.501 14.8636 146.211 14.8457 145.994 14.8457C145.848 14.8457 145.73 14.774 145.73 14.6754C145.73 14.5499 145.857 14.523 146.084 14.523C146.946 14.523 148.134 14.5589 148.615 14.5589C149.141 14.5589 150.002 14.523 150.547 14.523C150.773 14.523 150.882 14.541 150.882 14.6754C150.882 14.765 150.791 14.8457 150.673 14.8457C150.537 14.8457 150.41 14.8636 150.22 14.8995C149.767 14.9712 149.603 15.1952 149.585 15.7509C149.567 16.2349 149.567 16.8623 149.567 17.642V19.3717H149.576Z" fill="white"/>
<path d="M154.193 13.0626C154.193 10.6696 154.193 10.2214 154.174 9.71955C154.138 9.1818 153.984 9.01151 153.458 8.86811C153.331 8.83226 153.041 8.81433 152.805 8.81433C152.633 8.81433 152.524 8.76056 152.524 8.64405C152.524 8.5365 152.651 8.49169 152.896 8.49169C153.757 8.49169 154.809 8.52754 155.281 8.52754C155.807 8.52754 159.471 8.54546 159.78 8.52754C160.079 8.50961 160.342 8.45584 160.478 8.43791C160.569 8.41999 160.668 8.36621 160.741 8.36621C160.832 8.36621 160.859 8.43792 160.859 8.51858C160.859 8.62613 160.768 8.81434 160.723 9.5403C160.705 9.71059 160.668 10.3917 160.632 10.5799C160.614 10.6516 160.578 10.8399 160.442 10.8399C160.333 10.8399 160.315 10.7682 160.315 10.6337C160.315 10.5262 160.297 10.2394 160.206 10.0601C160.07 9.78228 159.943 9.55822 159.118 9.48652C158.836 9.45067 156.868 9.41483 156.524 9.41483C156.451 9.41483 156.415 9.4686 156.415 9.56719V13.4659C156.415 13.5555 156.433 13.6362 156.524 13.6362C156.895 13.6362 159.036 13.6362 159.417 13.6003C159.807 13.5645 160.052 13.5286 160.206 13.3583C160.342 13.2508 160.396 13.1522 160.469 13.1522C160.541 13.1522 160.596 13.2239 160.596 13.3225C160.596 13.4121 160.56 13.672 160.469 14.4697C160.433 14.7834 160.396 15.4107 160.396 15.5272C160.396 15.6617 160.378 15.8768 160.224 15.8768C160.115 15.8768 160.07 15.823 160.07 15.7423C160.052 15.572 160.052 15.3659 160.015 15.1687C159.925 14.8551 159.716 14.6131 159.099 14.5593C158.8 14.5234 156.923 14.4876 156.505 14.4876C156.433 14.4876 156.415 14.5593 156.415 14.6579V15.9216C156.415 16.4593 156.397 17.7947 156.415 18.2608C156.451 19.3363 156.959 19.5783 158.646 19.5783C159.081 19.5783 159.771 19.5604 160.206 19.3721C160.623 19.1839 160.804 18.8523 160.922 18.207C160.959 18.0367 160.995 17.965 161.113 17.965C161.24 17.965 161.267 18.1712 161.267 18.3325C161.267 18.682 161.131 19.7575 161.04 20.0802C160.931 20.4924 160.777 20.4925 160.161 20.4925C158.918 20.4925 157.929 20.4745 157.122 20.4387C156.315 20.4207 155.698 20.4028 155.208 20.4028C155.018 20.4028 154.664 20.4208 154.265 20.4208C153.875 20.4387 153.458 20.4566 153.122 20.4566C152.914 20.4566 152.805 20.4028 152.805 20.2863C152.805 20.2146 152.859 20.125 153.068 20.125C153.313 20.125 153.503 20.1071 153.648 20.0712C153.984 19.9995 154.084 19.7038 154.138 19.2377C154.211 18.5655 154.211 17.3287 154.211 15.8768V13.0626H154.193Z" fill="white"/>
<path d="M164.632 13.0626C164.632 10.6696 164.632 10.2215 164.614 9.71956C164.577 9.18181 164.423 9.01153 163.897 8.86813C163.761 8.83228 163.48 8.81435 163.244 8.81435C163.072 8.81435 162.963 8.76058 162.963 8.64407C162.963 8.52755 163.09 8.4917 163.335 8.4917C164.197 8.4917 165.249 8.52755 165.593 8.52755C166.156 8.52755 167.661 8.4917 168.16 8.4917C169.212 8.4917 170.418 8.58133 171.298 9.15493C171.77 9.46861 172.459 10.2663 172.459 11.3238C172.459 12.489 171.788 13.5286 170.173 14.8102C171.634 16.5938 172.804 18.0188 173.792 19.0047C174.708 19.9189 175.298 19.9906 175.561 20.0443C175.733 20.0802 175.824 20.0802 175.951 20.0802C176.078 20.0802 176.159 20.1698 176.159 20.2505C176.159 20.3759 176.042 20.4208 175.842 20.4208H174.264C173.348 20.4208 172.894 20.3311 172.459 20.1071C171.743 19.7575 171.126 19.0136 170.21 17.7858C169.557 16.9344 168.858 15.8768 168.65 15.6348C168.559 15.5362 168.459 15.5272 168.35 15.5272L166.872 15.4914C166.8 15.4914 166.745 15.5272 166.745 15.6169V15.8409C166.745 17.3108 166.763 18.5297 166.836 19.2019C166.89 19.6679 166.963 19.9637 167.471 20.0354C167.716 20.0712 168.069 20.0891 168.278 20.0891C168.405 20.0891 168.486 20.1788 168.486 20.2594C168.486 20.367 168.35 20.4297 168.151 20.4297C167.199 20.4297 165.82 20.3759 165.584 20.3759C165.267 20.3759 164.215 20.4297 163.553 20.4297C163.344 20.4297 163.235 20.3759 163.235 20.2594C163.235 20.1877 163.29 20.0891 163.498 20.0891C163.743 20.0891 163.933 20.0712 164.079 20.0354C164.414 19.9637 164.514 19.6679 164.568 19.2019C164.641 18.5386 164.641 17.2929 164.641 15.8409V13.0626H164.632ZM166.736 14.2904C166.736 14.4607 166.772 14.5145 166.881 14.5683C167.244 14.6758 167.725 14.7206 168.142 14.7206C168.804 14.7206 169.022 14.6668 169.303 14.4607C169.811 14.1112 170.373 13.4211 170.373 12.1215C170.373 9.89881 168.831 9.32521 167.861 9.32521C167.443 9.32521 167.053 9.34314 166.881 9.37899C166.772 9.41484 166.736 9.46861 166.736 9.60305V14.2904Z" fill="white"/>
<path d="M178.218 16.4593C178.128 16.4593 178.11 16.4772 178.064 16.5758L177.184 18.6909C177.012 19.0763 176.94 19.4707 176.94 19.6499C176.94 19.9277 177.085 20.098 177.593 20.098H177.837C178.046 20.098 178.082 20.1697 178.082 20.2683C178.082 20.3938 177.992 20.4296 177.819 20.4296C177.275 20.4296 176.504 20.3759 175.978 20.3759C175.806 20.3759 174.926 20.4296 174.064 20.4296C173.856 20.4296 173.765 20.3938 173.765 20.2683C173.765 20.1787 173.82 20.098 173.956 20.098C174.11 20.098 174.291 20.0801 174.445 20.0801C175.198 19.9726 175.479 19.4886 175.815 18.6909L180.132 8.76947C180.323 8.32134 180.45 8.14209 180.622 8.14209C180.867 8.14209 180.939 8.29446 181.112 8.64399C181.511 9.51335 184.268 15.9753 185.32 18.3683C185.955 19.7933 186.426 19.9994 186.726 20.0532C186.971 20.0891 187.161 20.107 187.343 20.107C187.497 20.107 187.569 20.1608 187.569 20.2773C187.569 20.4028 187.479 20.4386 186.853 20.4386C186.272 20.4386 185.075 20.4386 183.678 20.4028C183.379 20.3848 183.189 20.3848 183.189 20.2773C183.189 20.1877 183.225 20.1249 183.397 20.107C183.506 20.0891 183.624 19.9367 183.551 19.7575L182.273 16.5847C182.236 16.4862 182.182 16.4682 182.1 16.4682H178.218V16.4593ZM181.746 15.5899C181.819 15.5899 181.837 15.5541 181.819 15.5003L180.259 11.4941C180.232 11.4403 180.223 11.3417 180.187 11.3417C180.132 11.3417 180.114 11.4313 180.096 11.4941L178.5 15.4824C178.463 15.5541 178.5 15.5899 178.554 15.5899H181.746Z" fill="white"/>
<path d="M197.927 13.6453C197.963 13.6453 198.018 13.6273 198.018 13.5377V13.2061C198.018 10.8131 197.999 10.2395 197.981 9.73763C197.945 9.19988 197.791 9.02959 197.265 8.88619C197.138 8.85034 196.857 8.83242 196.63 8.83242C196.448 8.83242 196.349 8.77864 196.349 8.66213C196.349 8.54561 196.458 8.50977 196.702 8.50977C197.582 8.50977 198.752 8.54562 199.178 8.54562C199.568 8.54562 200.657 8.50977 201.301 8.50977C201.546 8.50977 201.654 8.54561 201.654 8.66213C201.654 8.77864 201.546 8.83242 201.355 8.83242C201.228 8.83242 201.074 8.85034 200.865 8.88619C200.43 8.95789 200.303 9.18195 200.267 9.73763C200.231 10.2395 200.231 10.6876 200.231 13.0717V15.859C200.231 17.302 200.231 18.5477 200.303 19.2379C200.358 19.686 200.457 19.9817 200.965 20.0534C201.192 20.0893 201.546 20.1072 201.809 20.1072C201.981 20.1072 202.072 20.1968 202.072 20.2775C202.072 20.3851 201.945 20.4388 201.736 20.4388C200.666 20.4388 199.578 20.3851 199.124 20.3851C198.752 20.3851 197.582 20.4388 196.947 20.4388C196.721 20.4388 196.594 20.3851 196.594 20.2775C196.594 20.2058 196.666 20.1072 196.857 20.1072C197.12 20.1072 197.31 20.0893 197.455 20.0534C197.8 19.9817 197.891 19.686 197.945 19.2199C198.018 18.5567 198.018 17.3468 198.018 15.9038V14.6939C198.018 14.6401 197.963 14.6042 197.927 14.6042H191.696C191.641 14.6042 191.587 14.6222 191.587 14.6939V15.9038C191.587 17.3468 191.605 18.5567 191.678 19.2379C191.732 19.686 191.832 19.9817 192.313 20.0534C192.539 20.0893 192.911 20.1072 193.156 20.1072C193.347 20.1072 193.419 20.1968 193.419 20.2775C193.419 20.3851 193.292 20.4388 193.084 20.4388C192.013 20.4388 190.862 20.3851 190.399 20.3851C190.018 20.3851 188.93 20.4388 188.277 20.4388C188.068 20.4388 187.959 20.3851 187.959 20.2775C187.959 20.2058 188.014 20.1072 188.222 20.1072C188.467 20.1072 188.658 20.0893 188.803 20.0534C189.138 19.9817 189.238 19.686 189.292 19.2199C189.365 18.5567 189.365 17.3109 189.365 15.859V13.0717C189.365 10.6787 189.365 10.2306 189.347 9.73763C189.311 9.19988 189.156 9.02959 188.63 8.88619C188.503 8.85034 188.213 8.83242 187.977 8.83242C187.805 8.83242 187.696 8.77864 187.696 8.66213C187.696 8.54561 187.832 8.50977 188.05 8.50977C188.93 8.50977 190.018 8.54562 190.472 8.54562C190.862 8.54562 192.013 8.50977 192.666 8.50977C192.893 8.50977 193.002 8.54561 193.002 8.66213C193.002 8.77864 192.911 8.83242 192.703 8.83242C192.576 8.83242 192.421 8.85034 192.231 8.88619C191.778 8.95789 191.651 9.18195 191.614 9.73763C191.578 10.2395 191.578 10.8131 191.578 13.2061V13.5377C191.578 13.6273 191.632 13.6453 191.687 13.6453H197.927Z" fill="white"/>
<path d="M81.3988 25.0271C81.4533 24.7134 81.5712 24.5431 81.7163 24.5431C81.8614 24.5431 81.9793 24.6328 82.2242 25.1167L87.3486 35.5759L92.4549 24.9823C92.609 24.6865 92.6997 24.5342 92.8721 24.5342C93.0444 24.5342 93.1532 24.7224 93.2076 25.1078L94.9128 36.5708C95.0851 37.7359 95.2665 38.2736 95.8288 38.4439C96.373 38.6142 96.7539 38.6321 96.9897 38.6321C97.1621 38.6321 97.289 38.6501 97.289 38.7666C97.289 38.9189 97.0623 38.9727 96.7993 38.9727C96.3276 38.9727 93.7428 38.9189 92.99 38.8652C92.5546 38.8293 92.4458 38.7755 92.4458 38.659C92.4458 38.5604 92.5183 38.5067 92.6544 38.4529C92.7632 38.417 92.8267 38.1751 92.7451 37.6552L91.6204 29.4904H91.5479L87.4574 37.9151C87.0221 38.7845 86.9314 38.9548 86.7591 38.9548C86.5867 38.9548 86.4053 38.5784 86.106 38.0227C85.6525 37.1713 84.1742 34.3302 83.9474 33.8103C83.7751 33.4249 82.6505 31.0857 81.9974 29.6966H81.9249L80.9453 37.0816C80.9091 37.4132 80.8909 37.6552 80.8909 37.951C80.8909 38.3005 81.1358 38.4708 81.4533 38.5425C81.7888 38.6142 82.0519 38.6321 82.2423 38.6321C82.3965 38.6321 82.5235 38.668 82.5235 38.7666C82.5235 38.9369 82.3512 38.9727 82.07 38.9727C81.2809 38.9727 80.4374 38.9189 80.1019 38.9189C79.7481 38.9189 78.8412 38.9727 78.2426 38.9727C78.0521 38.9727 77.907 38.9369 77.907 38.7666C77.907 38.677 78.0158 38.6321 78.2063 38.6321C78.3605 38.6321 78.4874 38.6321 78.7686 38.5784C79.2947 38.4708 79.4488 37.7449 79.5395 37.1175L81.3988 25.0271Z" fill="white"/>
<path d="M100.808 35.0117C100.717 35.0117 100.699 35.0296 100.654 35.1192L99.7742 37.2344C99.6018 37.6197 99.5293 38.0141 99.5293 38.1934C99.5293 38.4712 99.6835 38.6415 100.182 38.6415H100.427C100.636 38.6415 100.672 38.7132 100.672 38.8118C100.672 38.9372 100.581 38.982 100.409 38.982C99.8648 38.982 99.0939 38.9283 98.5679 38.9283C98.3956 38.9283 97.5158 38.982 96.6542 38.982C96.4456 38.982 96.3549 38.9462 96.3549 38.8118C96.3549 38.7221 96.4093 38.6415 96.5453 38.6415C96.6995 38.6415 96.8809 38.6235 97.0351 38.6235C97.7879 38.516 98.069 38.032 98.4046 37.2344L102.722 27.3129C102.912 26.8648 103.039 26.6855 103.212 26.6855C103.456 26.6855 103.529 26.8289 103.701 27.1874C104.091 28.0568 106.858 34.5187 107.91 36.9117C108.545 38.3368 109.016 38.5429 109.316 38.5967C109.56 38.6325 109.751 38.6504 109.932 38.6504C110.077 38.6504 110.159 38.7042 110.159 38.8207C110.159 38.9462 110.068 38.991 109.443 38.991C108.862 38.991 107.656 38.991 106.268 38.9552C105.969 38.9372 105.778 38.9372 105.778 38.8297C105.778 38.7401 105.815 38.6863 105.987 38.6594C106.105 38.6415 106.214 38.4981 106.141 38.3099L104.862 35.1371C104.826 35.0475 104.772 35.0296 104.69 35.0296H100.808V35.0117ZM104.336 34.1334C104.409 34.1334 104.427 34.0975 104.409 34.0437L102.849 30.0375C102.831 29.9837 102.813 29.8941 102.776 29.8941C102.722 29.8941 102.704 29.9837 102.686 30.0375L101.089 34.0258C101.053 34.0975 101.089 34.1334 101.144 34.1334H104.336Z" fill="white"/>
<path d="M120.517 32.1881C120.553 32.1881 120.607 32.1701 120.607 32.0805V31.7489C120.607 29.3559 120.589 28.7823 120.571 28.2804C120.535 27.7427 120.381 27.5724 119.855 27.429C119.728 27.3931 119.437 27.3752 119.22 27.3752C119.029 27.3752 118.939 27.3214 118.939 27.2139C118.939 27.1063 119.056 27.0615 119.292 27.0615C120.172 27.0615 121.342 27.0974 121.768 27.0974C122.158 27.0974 123.247 27.0615 123.891 27.0615C124.135 27.0615 124.244 27.0974 124.244 27.2139C124.244 27.3214 124.135 27.3752 123.945 27.3752C123.818 27.3752 123.664 27.3931 123.455 27.429C123.02 27.5007 122.893 27.7247 122.857 28.2804C122.82 28.7823 122.82 29.2215 122.82 31.6145V34.4018C122.82 35.8447 122.82 37.0905 122.893 37.7717C122.947 38.2198 123.047 38.5156 123.555 38.5873C123.782 38.6231 124.135 38.641 124.399 38.641C124.571 38.641 124.662 38.7307 124.662 38.8113C124.662 38.9189 124.535 38.9816 124.326 38.9816C123.256 38.9816 122.167 38.9278 121.714 38.9278C121.342 38.9278 120.172 38.9816 119.537 38.9816C119.31 38.9816 119.183 38.9278 119.183 38.8113C119.183 38.7396 119.256 38.641 119.446 38.641C119.709 38.641 119.9 38.6231 120.045 38.5873C120.381 38.5156 120.48 38.2198 120.535 37.7538C120.607 37.0816 120.607 35.8806 120.607 34.4376V33.2277C120.607 33.1739 120.553 33.1381 120.517 33.1381H114.286C114.231 33.1381 114.177 33.156 114.177 33.2277V34.4376C114.177 35.8806 114.195 37.0905 114.268 37.7717C114.322 38.2198 114.413 38.5156 114.903 38.5873C115.129 38.6231 115.501 38.641 115.746 38.641C115.936 38.641 116.009 38.7307 116.009 38.8113C116.009 38.9189 115.882 38.9816 115.673 38.9816C114.603 38.9816 113.46 38.9278 112.989 38.9278C112.608 38.9278 111.529 38.9816 110.866 38.9816C110.658 38.9816 110.549 38.9278 110.549 38.8113C110.549 38.7396 110.603 38.641 110.812 38.641C111.057 38.641 111.247 38.6231 111.393 38.5873C111.728 38.5156 111.828 38.2198 111.882 37.7538C111.955 37.0816 111.955 35.8447 111.955 34.4018V31.6145C111.955 29.2215 111.955 28.7734 111.937 28.2804C111.9 27.7427 111.746 27.5724 111.22 27.429C111.084 27.3931 110.803 27.3752 110.567 27.3752C110.395 27.3752 110.286 27.3214 110.286 27.2139C110.286 27.1063 110.413 27.0615 110.64 27.0615C111.519 27.0615 112.608 27.0974 113.061 27.0974C113.451 27.0974 114.603 27.0615 115.256 27.0615C115.483 27.0615 115.601 27.0974 115.601 27.2139C115.601 27.3214 115.51 27.3752 115.302 27.3752C115.175 27.3752 115.02 27.3931 114.83 27.429C114.376 27.5007 114.249 27.7247 114.213 28.2804C114.177 28.7823 114.177 29.3559 114.177 31.7489V32.0805C114.177 32.1701 114.231 32.1881 114.286 32.1881H120.517Z" fill="white"/>
<path d="M128.942 35.0117C128.852 35.0117 128.834 35.0296 128.788 35.1192L127.908 37.2344C127.736 37.6197 127.664 38.0141 127.664 38.1934C127.664 38.4712 127.818 38.6415 128.317 38.6415H128.561C128.77 38.6415 128.806 38.7132 128.806 38.8118C128.806 38.9372 128.716 38.982 128.543 38.982C127.999 38.982 127.228 38.9283 126.702 38.9283C126.53 38.9283 125.65 38.982 124.788 38.982C124.58 38.982 124.489 38.9462 124.489 38.8118C124.489 38.7221 124.544 38.6415 124.68 38.6415C124.834 38.6415 125.015 38.6235 125.169 38.6235C125.922 38.516 126.203 38.032 126.539 37.2344L130.856 27.3129C131.047 26.8648 131.174 26.6855 131.346 26.6855C131.591 26.6855 131.663 26.8289 131.836 27.1874C132.235 28.0568 134.992 34.5187 136.044 36.9117C136.679 38.3368 137.151 38.5429 137.45 38.5967C137.695 38.6325 137.885 38.6504 138.067 38.6504C138.221 38.6504 138.293 38.7042 138.293 38.8207C138.293 38.9462 138.203 38.991 137.577 38.991C136.996 38.991 135.799 38.991 134.402 38.9552C134.103 38.9372 133.913 38.9372 133.913 38.8297C133.913 38.7401 133.958 38.6863 134.121 38.6594C134.23 38.6415 134.348 38.4981 134.275 38.3099L132.997 35.1371C132.96 35.0475 132.906 35.0296 132.824 35.0296H128.942V35.0117ZM132.471 34.1334C132.543 34.1334 132.561 34.0975 132.543 34.0437L130.983 30.0375C130.965 29.9837 130.947 29.8941 130.911 29.8941C130.856 29.8941 130.838 29.9837 130.82 30.0375L129.224 34.0258C129.187 34.0975 129.224 34.1334 129.278 34.1334H132.471Z" fill="white"/>
<path d="M145.386 31.1488H145.477C146.12 30.4587 148.86 27.6983 149.404 27.0709C149.93 26.4614 150.338 25.9954 150.338 25.6817C150.338 25.4756 150.265 25.3501 150.075 25.3053C149.903 25.2694 149.83 25.2336 149.83 25.1171C149.83 24.9916 149.921 24.9468 150.129 24.9468C150.519 24.9468 151.553 25.0006 152.061 25.0006C152.642 25.0006 153.676 24.9468 154.256 24.9468C154.447 24.9468 154.574 24.9826 154.574 25.1171C154.574 25.2515 154.483 25.2874 154.292 25.2874C154.029 25.2874 153.558 25.3591 153.204 25.4935C152.624 25.7176 151.98 26.1029 151.172 26.8827C150.592 27.4383 147.753 30.2257 147.118 30.8889C147.789 31.7583 151.472 35.6749 152.206 36.356C153.032 37.1357 153.875 37.9693 154.891 38.3636C155.453 38.5877 155.834 38.6414 156.052 38.6414C156.188 38.6414 156.297 38.6773 156.297 38.7938C156.297 38.9282 156.206 38.982 155.843 38.982H154.211C153.648 38.982 153.304 38.982 152.914 38.9462C151.898 38.8565 151.399 38.4443 150.583 37.7452C149.757 37.0192 146.057 32.7352 145.667 32.1974L145.458 31.9196H145.368V33.6045C145.368 35.3164 145.368 36.7772 145.422 37.5749C145.458 38.0947 145.631 38.498 146.102 38.5787C146.365 38.6145 146.774 38.6504 147.018 38.6504C147.173 38.6504 147.263 38.7042 147.263 38.8028C147.263 38.9372 147.109 38.991 146.91 38.991C145.857 38.991 144.678 38.9372 144.207 38.9372C143.781 38.9372 142.592 38.991 141.84 38.991C141.595 38.991 141.459 38.9372 141.459 38.8028C141.459 38.7131 141.531 38.6504 141.758 38.6504C142.039 38.6504 142.266 38.6145 142.438 38.5787C142.81 38.507 142.91 38.0947 142.982 37.557C143.073 36.7772 143.073 35.3164 143.073 33.6045V30.3422C143.073 27.519 143.073 26.9992 143.037 26.4077C143.001 25.7803 142.846 25.4756 142.23 25.3501C142.075 25.3142 141.758 25.2963 141.495 25.2963C141.286 25.2963 141.177 25.2605 141.177 25.126C141.177 25.0006 141.304 24.9557 141.586 24.9557C142.583 24.9557 143.762 25.0095 144.216 25.0095C144.669 25.0095 145.848 24.9557 146.483 24.9557C146.746 24.9557 146.882 24.9916 146.882 25.126C146.882 25.2605 146.774 25.2963 146.619 25.2963C146.429 25.2963 146.32 25.3142 146.093 25.3501C145.585 25.4397 145.431 25.7624 145.395 26.4077C145.359 26.9992 145.359 27.519 145.359 30.3422V31.1488H145.386Z" fill="white"/>
<path d="M157.666 35.0117C157.576 35.0117 157.557 35.0296 157.521 35.1192L156.641 37.2344C156.469 37.6197 156.396 38.0141 156.396 38.1934C156.396 38.4712 156.551 38.6415 157.049 38.6415H157.294C157.503 38.6415 157.539 38.7132 157.539 38.8118C157.539 38.9372 157.449 38.982 157.276 38.982C156.732 38.982 155.961 38.9283 155.435 38.9283C155.263 38.9283 154.383 38.982 153.521 38.982C153.313 38.982 153.222 38.9462 153.222 38.8118C153.222 38.7221 153.276 38.6415 153.413 38.6415C153.567 38.6415 153.748 38.6235 153.902 38.6235C154.655 38.516 154.936 38.032 155.272 37.2344L159.589 27.3129C159.779 26.8648 159.906 26.6855 160.079 26.6855C160.324 26.6855 160.396 26.8289 160.569 27.1874C160.959 28.0568 163.725 34.5187 164.777 36.9117C165.412 38.3368 165.883 38.5429 166.183 38.5967C166.428 38.6325 166.618 38.6504 166.799 38.6504C166.954 38.6504 167.026 38.7042 167.026 38.8207C167.026 38.9462 166.936 38.991 166.31 38.991C165.729 38.991 164.523 38.991 163.135 38.9552C162.836 38.9372 162.646 38.9372 162.646 38.8297C162.646 38.7401 162.682 38.6863 162.854 38.6594C162.963 38.6415 163.081 38.4981 162.999 38.3099L161.72 35.1371C161.684 35.0475 161.63 35.0296 161.548 35.0296H157.666V35.0117ZM161.194 34.1334C161.267 34.1334 161.285 34.0975 161.267 34.0437L159.707 30.0375C159.689 29.9837 159.671 29.8941 159.634 29.8941C159.58 29.8941 159.562 29.9837 159.544 30.0375L157.947 34.0258C157.911 34.0975 157.947 34.1334 158.002 34.1334H161.194Z" fill="white"/>
<path d="M168.813 31.6146C168.813 29.2216 168.813 28.7735 168.795 28.2716C168.759 27.7339 168.604 27.5636 168.078 27.4202C167.942 27.3843 167.661 27.3664 167.425 27.3664C167.253 27.3664 167.144 27.3126 167.144 27.2051C167.144 27.0975 167.271 27.0527 167.516 27.0527C168.378 27.0527 169.43 27.0886 169.774 27.0886C170.337 27.0886 171.833 27.0527 172.341 27.0527C173.393 27.0527 174.599 27.1424 175.479 27.7249C175.951 28.0386 176.64 28.8363 176.64 29.8938C176.64 31.059 175.969 32.0986 174.346 33.3802C175.815 35.1638 176.976 36.5888 177.973 37.5747C178.889 38.4799 179.47 38.5605 179.742 38.6143C179.905 38.6502 180.005 38.6502 180.132 38.6502C180.259 38.6502 180.341 38.7398 180.341 38.8204C180.341 38.9549 180.232 38.9907 180.023 38.9907H178.445C177.529 38.9907 177.076 38.9011 176.64 38.677C175.924 38.3275 175.307 37.5836 174.391 36.3558C173.729 35.5043 173.039 34.4468 172.831 34.2048C172.74 34.1151 172.64 34.0972 172.532 34.0972L171.053 34.0614C170.981 34.0614 170.917 34.0972 170.917 34.1869V34.4109C170.917 35.8718 170.935 37.0996 171.008 37.7629C171.062 38.2289 171.144 38.5247 171.643 38.5964C171.888 38.6322 172.241 38.6502 172.45 38.6502C172.577 38.6502 172.659 38.7398 172.659 38.8204C172.659 38.928 172.532 38.9907 172.323 38.9907C171.371 38.9907 170.001 38.9369 169.756 38.9369C169.439 38.9369 168.387 38.9907 167.725 38.9907C167.516 38.9907 167.407 38.937 167.407 38.8204C167.407 38.7487 167.462 38.6502 167.67 38.6502C167.915 38.6502 168.106 38.6322 168.251 38.5964C168.586 38.5247 168.677 38.2289 168.74 37.7629C168.813 37.0907 168.813 35.8539 168.813 34.4109V31.6146ZM170.917 32.8425C170.917 33.0128 170.953 33.0665 171.071 33.1203C171.425 33.2279 171.915 33.2727 172.332 33.2727C172.985 33.2727 173.212 33.2189 173.493 33.0128C174.001 32.6632 174.563 31.9731 174.563 30.6736C174.563 28.4419 173.021 27.8683 172.051 27.8683C171.634 27.8683 171.244 27.8862 171.08 27.9221C170.972 27.9579 170.926 28.0117 170.926 28.1461V32.8425H170.917Z" fill="white"/>
<path d="M183.098 34.877C183.098 34.0255 182.953 33.685 182.726 33.2279C182.617 32.9859 180.368 29.5174 179.778 28.6839C179.361 28.1103 179.025 27.7339 178.708 27.5726C178.499 27.465 178.218 27.3664 178.01 27.3664C177.883 27.3664 177.765 27.3126 177.765 27.2051C177.765 27.0975 177.874 27.0527 178.082 27.0527C178.363 27.0527 179.606 27.0886 180.15 27.0886C180.504 27.0886 181.275 27.0527 182.028 27.0527C182.182 27.0527 182.272 27.0886 182.272 27.2051C182.272 27.3306 182.164 27.3306 181.892 27.4112C181.765 27.4471 181.665 27.5188 181.665 27.6532C181.665 27.7877 181.737 27.9669 181.873 28.191C182.173 28.6749 184.331 32.3675 184.612 32.8156C184.821 32.4392 186.825 29.0693 187.07 28.5853C187.243 28.2358 187.315 27.9579 187.315 27.7518C187.315 27.5994 187.243 27.456 186.962 27.4023C186.807 27.3664 186.662 27.3485 186.662 27.2141C186.662 27.1065 186.753 27.0617 186.943 27.0617C187.488 27.0617 188.068 27.0975 188.558 27.0975C188.912 27.0975 190 27.0617 190.326 27.0617C190.508 27.0617 190.626 27.0975 190.626 27.1872C190.626 27.2947 190.49 27.3754 190.308 27.3754C190.136 27.3754 189.837 27.4471 189.601 27.5636C189.238 27.7339 189.093 27.8773 188.739 28.3075C188.195 28.9348 185.828 32.6812 185.528 33.3533C185.284 33.9269 185.32 34.4109 185.32 34.9307V36.1944C185.32 36.4544 185.32 37.0997 185.356 37.7718C185.392 38.2379 185.547 38.5336 186.036 38.6053C186.281 38.6412 186.635 38.6591 186.862 38.6591C187.052 38.6591 187.143 38.7487 187.143 38.8294C187.143 38.937 187.016 38.9997 186.789 38.9997C185.755 38.9997 184.649 38.9459 184.195 38.9459C183.778 38.9459 182.681 38.9997 182.055 38.9997C181.828 38.9997 181.692 38.9638 181.692 38.8294C181.692 38.7577 181.765 38.6591 181.955 38.6591C182.182 38.6591 182.39 38.6412 182.535 38.6053C182.88 38.5336 183.007 38.2379 183.043 37.7718C183.098 37.0997 183.098 36.4544 183.098 36.1944V34.877Z" fill="white"/>
<path d="M192.73 35.0117C192.639 35.0117 192.621 35.0296 192.576 35.1192L191.696 37.2344C191.524 37.6197 191.451 38.0141 191.451 38.1934C191.451 38.4712 191.605 38.6415 192.113 38.6415H192.358C192.567 38.6415 192.603 38.7132 192.603 38.8118C192.603 38.9372 192.512 38.982 192.34 38.982C191.796 38.982 191.025 38.9283 190.499 38.9283C190.326 38.9283 189.447 38.982 188.585 38.982C188.376 38.982 188.286 38.9462 188.286 38.8118C188.286 38.7221 188.34 38.6415 188.476 38.6415C188.63 38.6415 188.812 38.6235 188.966 38.6235C189.719 38.516 190 38.032 190.335 37.2344L194.653 27.3129C194.843 26.8648 194.97 26.6855 195.142 26.6855C195.387 26.6855 195.46 26.8289 195.632 27.1874C196.031 28.0568 198.788 34.5187 199.841 36.9117C200.484 38.3368 200.947 38.5429 201.246 38.5967C201.491 38.6325 201.682 38.6504 201.863 38.6504C202.017 38.6504 202.09 38.7042 202.09 38.8207C202.09 38.9462 201.999 38.991 201.373 38.991C200.793 38.991 199.596 38.991 198.199 38.9552C197.9 38.9372 197.709 38.9372 197.709 38.8297C197.709 38.7401 197.745 38.6863 197.918 38.6594C198.027 38.6415 198.144 38.4981 198.063 38.3099L196.784 35.1371C196.748 35.0475 196.693 35.0296 196.612 35.0296H192.73V35.0117ZM196.258 34.1334C196.331 34.1334 196.349 34.0975 196.331 34.0437L194.771 30.0375C194.752 29.9837 194.734 29.8941 194.698 29.8941C194.644 29.8941 194.625 29.9837 194.607 30.0375L193.011 34.0258C192.975 34.0975 193.011 34.1334 193.065 34.1334H196.258Z" fill="white"/>
<path d="M78.1246 12.3279C78.1246 10.6519 78.1246 10.3471 78.1065 9.9976C78.0884 9.62118 77.9977 9.4509 77.6258 9.37023C77.5351 9.35231 77.3447 9.33438 77.1905 9.33438C77.0635 9.33438 77 9.30749 77 9.23579C77 9.15513 77.0816 9.13721 77.2449 9.13721C77.8344 9.13721 78.5419 9.17306 78.8502 9.17306C79.3037 9.17306 79.9567 9.13721 80.4646 9.13721C81.8523 9.13721 82.3602 9.60326 82.5325 9.76459C82.7774 9.99761 83.0949 10.4905 83.0949 11.0731C83.0949 12.6326 81.9339 13.735 80.3558 13.735C80.3014 13.735 80.1744 13.735 80.12 13.726C80.0656 13.717 79.9839 13.6991 79.9839 13.6274C79.9839 13.5378 80.0656 13.5019 80.2923 13.5019C80.9181 13.5019 81.7888 12.8118 81.7888 11.6915C81.7888 11.3241 81.7525 10.5891 81.1358 10.0424C80.7367 9.68392 80.2832 9.61222 80.0202 9.61222C79.857 9.61222 79.6846 9.62118 79.5849 9.65703C79.5305 9.67496 79.4942 9.74666 79.4942 9.86317V14.2637C79.4942 15.2765 79.4942 16.1459 79.5486 16.6209C79.5849 16.9256 79.6484 17.1676 79.9839 17.2124C80.1381 17.2393 80.383 17.2572 80.5553 17.2572C80.6823 17.2572 80.7367 17.2931 80.7367 17.3468C80.7367 17.4275 80.646 17.4544 80.5281 17.4544C79.7935 17.4544 79.0951 17.4185 78.8049 17.4185C78.5509 17.4185 77.8435 17.4544 77.3991 17.4544C77.254 17.4544 77.1723 17.4185 77.1723 17.3468C77.1723 17.2931 77.2177 17.2572 77.3537 17.2572C77.517 17.2572 77.653 17.2303 77.7528 17.2124C77.9795 17.1676 78.034 16.9256 78.0793 16.6119C78.1337 16.1548 78.1337 15.2855 78.1337 14.2637V12.3279H78.1246Z" fill="white"/>
<path d="M86.8951 9.74601L85.2354 9.79082C84.5914 9.80875 84.3193 9.87148 84.1561 10.1135C84.0472 10.2748 83.9837 10.4092 83.9656 10.4989C83.9475 10.5885 83.9112 10.6333 83.8477 10.6333C83.7661 10.6333 83.7479 10.5795 83.7479 10.463C83.7479 10.2838 83.9565 9.28892 83.9837 9.1993C84.02 9.0559 84.0472 8.99316 84.1198 8.99316C84.2105 8.99316 84.3193 9.10071 84.6005 9.1276C84.927 9.16345 85.3442 9.18137 85.7161 9.18137H90.1239C90.4777 9.18137 90.7226 9.14553 90.8949 9.1276C91.0581 9.09175 91.1488 9.07382 91.1942 9.07382C91.2758 9.07382 91.2849 9.13656 91.2849 9.30685C91.2849 9.53987 91.2486 10.3017 91.2486 10.5885C91.2395 10.696 91.2123 10.7588 91.1488 10.7588C91.0581 10.7588 91.04 10.705 91.0309 10.5347L91.0219 10.4182C91.0037 10.1314 90.6953 9.82667 89.7067 9.79979L88.3009 9.76394V14.2721C88.3009 15.2848 88.3009 16.1542 88.3554 16.6292C88.3916 16.9339 88.4551 17.1759 88.7907 17.2207C88.9449 17.2476 89.1898 17.2655 89.3621 17.2655C89.48 17.2655 89.5435 17.3014 89.5435 17.3551C89.5435 17.4358 89.4528 17.4627 89.3349 17.4627C88.6002 17.4627 87.9019 17.4268 87.5844 17.4268C87.3305 17.4268 86.623 17.4627 86.1786 17.4627C86.0335 17.4627 85.9519 17.4268 85.9519 17.3551C85.9519 17.3014 85.9972 17.2655 86.1333 17.2655C86.3056 17.2655 86.4326 17.2386 86.5323 17.2207C86.7591 17.1759 86.8226 16.9339 86.8498 16.6202C86.9042 16.1631 86.9042 15.2938 86.9042 14.2721V9.74601H86.8951Z" fill="white"/>
<path d="M91.3755 16.7464C91.3755 16.4686 91.575 16.0742 92.0557 16.0742C92.4367 16.0742 92.736 16.3252 92.736 16.7106C92.736 17.0959 92.4729 17.4186 92.0467 17.4186C91.575 17.4186 91.3755 17.0511 91.3755 16.7464Z" fill="white"/>
</g>
<defs>
<clipPath id="clip0">
<rect width="211" height="46" fill="white"/>
</clipPath>
</defs>
</svg>
