<svg width="168" height="38" viewBox="0 0 168 38" fill="none" xmlns="http://www.w3.org/2000/svg">
<g clip-path="url(#clip0)">
<path d="M40.9245 19.3843L50.2879 36.0221C50.238 36.84 49.6055 37.4896 48.8347 37.5563L26.8573 21.3047L29.5241 0.422584C29.8665 0.442868 30.2005 0.575768 30.4721 0.824822L40.9244 19.3842L40.9245 19.3843Z" stroke="black" stroke-opacity="0.9" stroke-width="0.840717"/>
<path d="M48.7038 37.9823C49.8096 37.9823 50.7115 37.0513 50.7115 35.9176L41.2908 19.178L30.8075 0.563726C30.3504 0.114045 29.7388 -0.0632946 29.1519 0.0190415C29.1519 0.0190415 28.3735 14.2695 29.0531 16.7269C29.7264 19.1907 48.7038 37.9823 48.7038 37.9823Z" fill="black" fill-opacity="0.9"/>
<path d="M10.0198 37.6264C9.16863 37.5843 8.47437 36.8801 8.436 35.995L17.6791 19.582L26.0313 21.7436L24.9876 29.9036L10.0198 37.6264Z" stroke="black" stroke-opacity="0.9" stroke-width="0.695652"/>
<path d="M17.4578 23.8775C14.4308 25.7776 8.08032 35.9176 8.08032 35.9176C8.08032 37.0513 8.98842 37.9823 10.0942 37.9823L25.3033 30.135L26.4091 21.4897C26.4091 21.4961 19.6385 22.5094 17.4578 23.8775Z" fill="black" fill-opacity="0.9"/>
<path d="M77.5779 12.8781C77.5057 12.8781 77.4695 12.9077 77.4407 13.004L76.6319 15.1955C76.4802 15.5805 76.408 15.9507 76.408 16.1284C76.408 16.4023 76.5452 16.6022 77.0074 16.6022H77.2312C77.4118 16.6022 77.4551 16.6318 77.4551 16.7281C77.4551 16.8539 77.3684 16.8836 77.2024 16.8836C76.7257 16.8836 76.083 16.8391 75.6209 16.8391C75.4548 16.8391 74.6315 16.8836 73.8588 16.8836C73.6639 16.8836 73.5772 16.8539 73.5772 16.7281C73.5772 16.6392 73.635 16.6022 73.7577 16.6022C73.895 16.6022 74.1044 16.5874 74.2199 16.5726C74.9059 16.4838 75.1876 15.9581 75.4909 15.1955L79.246 5.57057C79.4265 5.12634 79.5132 4.95605 79.6648 4.95605C79.8021 4.95605 79.8887 5.08933 80.0404 5.44471C80.4014 6.28874 82.7917 12.5375 83.7449 14.8697C84.3154 16.2468 84.7415 16.4615 85.0592 16.5356C85.2831 16.58 85.507 16.5948 85.6875 16.5948C85.8103 16.5948 85.8825 16.6096 85.8825 16.7207C85.8825 16.8465 85.7453 16.8762 85.1964 16.8762C84.6548 16.8762 83.5644 16.8762 82.3729 16.8465C82.1057 16.8317 81.9251 16.8317 81.9251 16.7207C81.9251 16.6318 81.9829 16.5948 82.1346 16.58C82.2357 16.5504 82.344 16.4097 82.2718 16.2246L81.073 12.9744C81.0441 12.8929 81.0008 12.8633 80.9214 12.8633H77.5779V12.8781ZM80.6253 12.1081C80.6975 12.1081 80.712 12.0637 80.6975 12.0193L79.3543 8.23593C79.3399 8.1767 79.3254 8.09526 79.2821 8.09526C79.2388 8.09526 79.2099 8.1767 79.1955 8.23593L77.8162 12.0045C77.8017 12.0637 77.8162 12.1155 77.8739 12.1155H80.6253V12.1081Z" fill="#212121" fill-opacity="0.9"/>
<path d="M87.9623 15.099C87.9912 16.1133 88.1573 16.4168 88.41 16.5057C88.6339 16.5871 88.8866 16.6019 89.0961 16.6019C89.2477 16.6019 89.3199 16.6612 89.3199 16.7426C89.3199 16.8463 89.1972 16.8759 89.0238 16.8759C88.1717 16.8759 87.5579 16.8314 87.3196 16.8314C87.1968 16.8314 86.5758 16.8759 85.897 16.8759C85.7164 16.8759 85.6009 16.8611 85.6009 16.7426C85.6009 16.6686 85.6875 16.6019 85.8103 16.6019C85.9908 16.6019 86.2292 16.5871 86.4097 16.5427C86.7563 16.4538 86.7996 16.0985 86.8141 14.9657L86.9296 7.24354C86.9296 6.98441 87.0163 6.79932 87.1535 6.79932C87.3196 6.79932 87.5001 6.99921 87.724 7.22873C87.8901 7.39902 89.8615 9.46467 91.7752 11.3823C92.6707 12.2855 94.4182 14.1291 94.6132 14.3068H94.671L94.5338 8.51699C94.5193 7.71739 94.3966 7.48787 94.086 7.36941C93.8911 7.29537 93.5805 7.29537 93.4 7.29537C93.2339 7.29537 93.1906 7.23614 93.1906 7.15469C93.1906 7.04364 93.3278 7.02883 93.5228 7.02883C94.2088 7.02883 94.9093 7.05845 95.1981 7.05845C95.3498 7.05845 95.8408 7.02883 96.4836 7.02883C96.6641 7.02883 96.7796 7.04364 96.7796 7.15469C96.7796 7.22873 96.7074 7.29537 96.5558 7.29537C96.4186 7.29537 96.3175 7.29537 96.1514 7.33979C95.7903 7.44344 95.6892 7.68037 95.6748 8.41334L95.5231 16.6241C95.5231 16.9129 95.422 17.0387 95.3137 17.0387C95.0898 17.0387 94.9093 16.8981 94.7721 16.7648C93.9488 15.98 92.3024 14.3734 90.9303 13.0111C89.4932 11.6044 88.1067 10.02 87.854 9.79044H87.8106L87.9623 15.099Z" fill="#212121" fill-opacity="0.9"/>
<path d="M99.141 10.7901C99.141 8.81328 99.1555 8.44309 99.1266 8.02848C99.0977 7.56945 98.9749 7.44358 98.5561 7.32512C98.455 7.29551 98.2311 7.2807 98.0506 7.2807C97.9062 7.2807 97.8267 7.23628 97.8267 7.14003C97.8267 7.05118 97.9134 7.01416 98.1084 7.01416C98.8088 7.01416 99.6898 7.04378 100.08 7.04378C100.412 7.04378 101.286 7.01416 101.77 7.01416C101.965 7.01416 102.051 7.04378 102.051 7.14003C102.051 7.22887 101.979 7.2807 101.842 7.2807C101.69 7.2807 101.618 7.29551 101.452 7.32512C101.105 7.38435 101.004 7.56945 100.975 8.02848C100.946 8.44309 100.946 8.81328 100.946 10.7901V12.6114C100.946 14.5068 101.307 15.2472 101.95 15.7654C102.535 16.2393 103.163 16.2837 103.611 16.2837C104.182 16.2837 104.853 16.1134 105.373 15.5951C106.11 14.8918 106.139 13.759 106.139 12.4263V10.7901C106.139 8.81328 106.124 8.44309 106.11 8.02848C106.081 7.58425 105.972 7.44358 105.554 7.32512C105.453 7.29551 105.221 7.2807 105.077 7.2807C104.933 7.2807 104.853 7.23628 104.853 7.14003C104.853 7.05118 104.94 7.01416 105.12 7.01416C105.792 7.01416 106.673 7.04378 106.687 7.04378C106.839 7.04378 107.72 7.01416 108.226 7.01416C108.406 7.01416 108.5 7.04378 108.5 7.14003C108.5 7.22887 108.428 7.2807 108.276 7.2807C108.124 7.2807 108.052 7.29551 107.886 7.32512C107.525 7.38435 107.438 7.56945 107.41 8.02848C107.395 8.44309 107.381 8.81328 107.381 10.7901V12.182C107.381 13.6405 107.229 15.1731 106.124 16.106C105.2 16.9056 104.196 17.0389 103.344 17.0389C102.658 17.0389 101.293 17.0093 100.34 16.1504C99.6682 15.5507 99.141 14.5882 99.141 12.7003V10.7901Z" fill="#212121" fill-opacity="0.9"/>
<path d="M119.094 16.0027C119.094 16.3581 119.094 16.3729 118.928 16.4618C118.047 16.906 116.747 17.0467 115.714 17.0467C112.486 17.0467 109.634 15.5437 109.634 11.9454C109.634 9.85758 110.724 8.40644 111.937 7.68827C113.194 6.94049 114.378 6.84424 115.483 6.84424C116.393 6.84424 117.541 6.99972 117.816 7.05895C118.083 7.10337 118.545 7.18481 118.863 7.19962C119.014 7.21442 119.043 7.25885 119.043 7.3551C119.043 7.51058 118.956 7.85855 118.956 9.5022C118.956 9.7021 118.884 9.79835 118.776 9.79835C118.682 9.79835 118.653 9.73912 118.639 9.62807C118.61 9.33932 118.53 8.9247 118.191 8.55451C117.808 8.1399 116.819 7.56241 115.339 7.56241C114.624 7.56241 113.707 7.57721 112.797 8.325C112.06 8.93951 111.583 9.902 111.583 11.4938C111.583 14.2999 113.345 16.3359 116.155 16.3359C116.501 16.3359 116.768 16.3359 117.079 16.1952C117.274 16.1064 117.332 15.9657 117.332 15.7362V14.5442C117.332 13.9001 117.332 13.4114 117.317 13.0116C117.303 12.5674 117.166 12.4267 116.747 12.3082C116.646 12.2786 116.415 12.2638 116.241 12.2638C116.126 12.2638 116.032 12.2046 116.032 12.1231C116.032 12.0195 116.133 11.9973 116.313 11.9973C116.999 11.9973 117.945 12.0269 118.328 12.0269C118.747 12.0269 119.433 11.9973 119.866 11.9973C120.047 11.9973 120.134 12.0121 120.134 12.1231C120.134 12.1972 120.061 12.2638 119.967 12.2638C119.859 12.2638 119.758 12.2786 119.606 12.3082C119.245 12.3675 119.115 12.5526 119.101 13.0116C119.086 13.4114 119.086 13.9297 119.086 14.5738V16.0027H119.094Z" fill="#212121" fill-opacity="0.9"/>
<path d="M122.769 10.7902C122.769 8.81342 122.769 8.44323 122.755 8.02862C122.726 7.58439 122.603 7.44372 122.185 7.32526C122.083 7.29565 121.852 7.28083 121.665 7.28083C121.527 7.28083 121.441 7.23641 121.441 7.14017C121.441 7.05132 121.542 7.0143 121.737 7.0143C122.423 7.0143 123.261 7.04391 123.636 7.04391C124.055 7.04391 126.972 7.05872 127.218 7.04391C127.456 7.02911 127.666 6.98468 127.774 6.96988C127.846 6.95507 127.926 6.91064 127.983 6.91064C128.056 6.91064 128.077 6.96988 128.077 7.03651C128.077 7.12536 128.005 7.28084 127.969 7.88054C127.954 8.02122 127.926 8.5839 127.897 8.73938C127.882 8.79861 127.853 8.95409 127.745 8.95409C127.658 8.95409 127.644 8.89486 127.644 8.78381C127.644 8.69496 127.629 8.45804 127.557 8.30996C127.449 8.08044 127.348 7.89535 126.691 7.83612C126.467 7.8065 124.9 7.77689 124.625 7.77689C124.568 7.77689 124.539 7.82131 124.539 7.90275V11.1234C124.539 11.1974 124.553 11.2641 124.625 11.2641C124.921 11.2641 126.626 11.2641 126.929 11.2345C127.24 11.2048 127.435 11.1752 127.557 11.0346C127.666 10.9457 127.709 10.8643 127.767 10.8643C127.824 10.8643 127.868 10.9235 127.868 11.0049C127.868 11.079 127.839 11.2937 127.767 11.9526C127.738 12.2118 127.709 12.73 127.709 12.8263C127.709 12.9373 127.694 13.115 127.572 13.115C127.485 13.115 127.449 13.0706 127.449 13.004C127.435 12.8633 127.435 12.693 127.406 12.5301C127.333 12.271 127.167 12.0711 126.676 12.0267C126.438 11.997 124.943 11.9674 124.611 11.9674C124.553 11.9674 124.539 12.0267 124.539 12.1081V13.152C124.539 13.5963 124.524 14.6994 124.539 15.0844C124.568 15.9729 124.972 16.1728 126.315 16.1728C126.662 16.1728 127.211 16.158 127.557 16.0025C127.889 15.847 128.034 15.5731 128.128 15.04C128.157 14.8993 128.186 14.8401 128.279 14.8401C128.381 14.8401 128.402 15.0104 128.402 15.1437C128.402 15.4324 128.294 16.3209 128.222 16.5874C128.135 16.928 128.012 16.928 127.521 16.928C126.532 16.928 125.745 16.9132 125.102 16.8835C124.459 16.8687 123.968 16.8539 123.578 16.8539C123.427 16.8539 123.145 16.8687 122.827 16.8687C122.517 16.8835 122.185 16.8984 121.917 16.8984C121.751 16.8984 121.665 16.8539 121.665 16.7577C121.665 16.6985 121.708 16.6244 121.874 16.6244C122.069 16.6244 122.221 16.6096 122.336 16.58C122.603 16.5208 122.683 16.2764 122.726 15.8914C122.784 15.3362 122.784 14.3144 122.784 13.115V10.7902H122.769Z" fill="#212121" fill-opacity="0.9"/>
<path d="M131.081 10.7901C131.081 8.81328 131.081 8.44309 131.067 8.02848C131.038 7.58425 130.915 7.44358 130.496 7.32512C130.388 7.29551 130.164 7.2807 129.976 7.2807C129.839 7.2807 129.753 7.23628 129.753 7.14003C129.753 7.04378 129.854 7.01416 130.049 7.01416C130.735 7.01416 131.572 7.04378 131.847 7.04378C132.294 7.04378 133.493 7.01416 133.89 7.01416C134.728 7.01416 135.689 7.0882 136.389 7.56204C136.765 7.82118 137.313 8.48011 137.313 9.35376C137.313 10.3163 136.779 11.1751 135.494 12.2338C136.656 13.7072 137.588 14.8844 138.375 15.6988C139.104 16.454 139.574 16.5132 139.783 16.5576C139.92 16.5873 139.992 16.5873 140.094 16.5873C140.195 16.5873 140.26 16.6613 140.26 16.7279C140.26 16.8316 140.166 16.8686 140.007 16.8686H138.75C138.021 16.8686 137.66 16.7946 137.313 16.6095C136.743 16.3207 136.252 15.7062 135.522 14.6919C135.003 13.9885 134.446 13.1149 134.28 12.915C134.208 12.8335 134.129 12.8261 134.042 12.8261L132.865 12.7965C132.807 12.7965 132.764 12.8261 132.764 12.9002V13.0853C132.764 14.2995 132.778 15.3064 132.836 15.8617C132.879 16.2467 132.937 16.491 133.342 16.5502C133.537 16.5799 133.818 16.5947 133.984 16.5947C134.085 16.5947 134.15 16.6687 134.15 16.7353C134.15 16.8242 134.042 16.876 133.883 16.876C133.125 16.876 132.027 16.8316 131.84 16.8316C131.587 16.8316 130.749 16.876 130.222 16.876C130.056 16.876 129.969 16.8316 129.969 16.7353C129.969 16.6761 130.013 16.5947 130.179 16.5947C130.374 16.5947 130.525 16.5799 130.641 16.5502C130.908 16.491 130.987 16.2467 131.031 15.8617C131.089 15.3138 131.089 14.2847 131.089 13.0853V10.7901H131.081ZM132.757 11.8044C132.757 11.9451 132.786 11.9895 132.872 12.0339C133.161 12.1228 133.544 12.1598 133.876 12.1598C134.403 12.1598 134.576 12.1154 134.8 11.9451C135.205 11.6563 135.652 11.0862 135.652 10.0127C135.652 8.17656 134.425 7.70271 133.652 7.70271C133.32 7.70271 133.009 7.71752 132.872 7.74714C132.786 7.77675 132.757 7.82118 132.757 7.93223V11.8044Z" fill="#212121" fill-opacity="0.9"/>
<path d="M141.899 13.5968C141.827 13.5968 141.812 13.6116 141.776 13.693L141.076 15.4403C140.939 15.7587 140.881 16.0845 140.881 16.2325C140.881 16.4621 140.996 16.6027 141.401 16.6027H141.596C141.762 16.6027 141.791 16.662 141.791 16.7434C141.791 16.8471 141.718 16.8767 141.581 16.8767C141.148 16.8767 140.534 16.8322 140.115 16.8322C139.978 16.8322 139.278 16.8767 138.592 16.8767C138.425 16.8767 138.353 16.8471 138.353 16.7434C138.353 16.6694 138.397 16.6027 138.505 16.6027C138.628 16.6027 138.772 16.5879 138.895 16.5879C139.494 16.4991 139.718 16.0993 139.985 15.4403L143.423 7.24434C143.574 6.87415 143.675 6.72607 143.813 6.72607C144.008 6.72607 144.065 6.85194 144.203 7.14069C144.52 7.85886 146.716 13.197 147.553 15.1738C148.059 16.351 148.434 16.5213 148.673 16.5657C148.868 16.5953 149.019 16.6101 149.164 16.6101C149.286 16.6101 149.344 16.6546 149.344 16.7508C149.344 16.8545 149.272 16.8841 148.774 16.8841C148.312 16.8841 147.358 16.8841 146.246 16.8545C146.008 16.8396 145.856 16.8396 145.856 16.7508C145.856 16.6768 145.885 16.6249 146.022 16.6101C146.109 16.5953 146.203 16.4695 146.145 16.3214L145.127 13.7004C145.098 13.619 145.055 13.6042 144.99 13.6042H141.899V13.5968ZM144.708 12.8786C144.766 12.8786 144.78 12.849 144.766 12.8046L143.524 9.49509C143.502 9.45067 143.495 9.36923 143.466 9.36923C143.423 9.36923 143.408 9.44327 143.394 9.49509L142.123 12.7898C142.094 12.849 142.123 12.8786 142.166 12.8786H144.708Z" fill="#212121" fill-opacity="0.9"/>
<path d="M157.591 11.2712C157.62 11.2712 157.663 11.2564 157.663 11.1823V10.9084C157.663 8.93158 157.649 8.45774 157.634 8.04313C157.605 7.5989 157.483 7.45823 157.064 7.33977C156.963 7.31015 156.739 7.29535 156.558 7.29535C156.414 7.29535 156.335 7.25092 156.335 7.15467C156.335 7.05842 156.421 7.02881 156.616 7.02881C157.317 7.02881 158.248 7.05842 158.588 7.05842C158.898 7.05842 159.765 7.02881 160.277 7.02881C160.472 7.02881 160.559 7.05842 160.559 7.15467C160.559 7.25092 160.472 7.29535 160.321 7.29535C160.22 7.29535 160.097 7.31015 159.931 7.33977C159.584 7.399 159.483 7.58409 159.454 8.04313C159.425 8.45774 159.425 8.82793 159.425 10.7973V13.0999C159.425 14.2919 159.425 15.3211 159.483 15.8911C159.526 16.2613 159.606 16.5057 160.01 16.5649C160.191 16.5945 160.472 16.6093 160.682 16.6093C160.819 16.6093 160.891 16.6833 160.891 16.75C160.891 16.8388 160.79 16.8832 160.624 16.8832C159.772 16.8832 158.905 16.8388 158.544 16.8388C158.248 16.8388 157.317 16.8832 156.811 16.8832C156.631 16.8832 156.529 16.8388 156.529 16.75C156.529 16.6908 156.587 16.6093 156.739 16.6093C156.948 16.6093 157.1 16.5945 157.216 16.5649C157.49 16.5057 157.562 16.2613 157.605 15.8763C157.663 15.3285 157.663 14.3289 157.663 13.1369V12.1374C157.663 12.093 157.62 12.0634 157.591 12.0634H152.63C152.587 12.0634 152.543 12.0782 152.543 12.1374V13.1369C152.543 14.3289 152.558 15.3285 152.616 15.8911C152.659 16.2613 152.738 16.5057 153.121 16.5649C153.302 16.5945 153.598 16.6093 153.793 16.6093C153.944 16.6093 154.002 16.6833 154.002 16.75C154.002 16.8388 153.901 16.8832 153.735 16.8832C152.883 16.8832 151.966 16.8388 151.597 16.8388C151.294 16.8388 150.427 16.8832 149.907 16.8832C149.741 16.8832 149.655 16.8388 149.655 16.75C149.655 16.6908 149.698 16.6093 149.864 16.6093C150.059 16.6093 150.211 16.5945 150.326 16.5649C150.594 16.5057 150.673 16.2613 150.716 15.8763C150.774 15.3285 150.774 14.2993 150.774 13.0999V10.7973C150.774 8.82052 150.774 8.45034 150.76 8.04313C150.731 7.5989 150.608 7.45823 150.189 7.33977C150.088 7.31015 149.857 7.29535 149.669 7.29535C149.532 7.29535 149.445 7.25092 149.445 7.15467C149.445 7.05842 149.554 7.02881 149.727 7.02881C150.427 7.02881 151.294 7.05842 151.655 7.05842C151.966 7.05842 152.883 7.02881 153.403 7.02881C153.583 7.02881 153.67 7.05842 153.67 7.15467C153.67 7.25092 153.598 7.29535 153.432 7.29535C153.33 7.29535 153.208 7.31015 153.056 7.33977C152.695 7.399 152.594 7.58409 152.565 8.04313C152.536 8.45774 152.536 8.93158 152.536 10.9084V11.1823C152.536 11.2564 152.579 11.2712 152.623 11.2712H157.591Z" fill="#212121" fill-opacity="0.9"/>
<path d="M64.8105 20.6743C64.8538 20.4152 64.9477 20.2745 65.0632 20.2745C65.1787 20.2745 65.2726 20.3485 65.4676 20.7483L69.5477 29.3885L73.6134 20.6373C73.7361 20.393 73.8083 20.2671 73.9455 20.2671C74.0827 20.2671 74.1694 20.4226 74.2127 20.7409L75.5704 30.2104C75.7076 31.1729 75.852 31.6171 76.2997 31.7578C76.733 31.8984 77.0363 31.9132 77.2241 31.9132C77.3613 31.9132 77.4624 31.928 77.4624 32.0243C77.4624 32.1502 77.2818 32.1946 77.0724 32.1946C76.6969 32.1946 74.6388 32.1502 74.0394 32.1057C73.6928 32.0761 73.6061 32.0317 73.6061 31.9354C73.6061 31.854 73.6639 31.8096 73.7722 31.7652C73.8589 31.7355 73.9094 31.5356 73.8444 31.1062L72.949 24.3614H72.8912L69.6344 31.3209C69.2877 32.0391 69.2155 32.1798 69.0783 32.1798C68.9411 32.1798 68.7967 31.8688 68.5584 31.4098C68.1973 30.7064 67.0202 28.3594 66.8397 27.93C66.7025 27.6116 65.807 25.6793 65.2871 24.5317H65.2293L64.4494 30.6324C64.4205 30.9063 64.4061 31.1062 64.4061 31.3505C64.4061 31.6393 64.601 31.78 64.8538 31.8392C65.121 31.8984 65.3304 31.9132 65.482 31.9132C65.6048 31.9132 65.7059 31.9429 65.7059 32.0243C65.7059 32.165 65.5687 32.1946 65.3448 32.1946C64.7166 32.1946 64.045 32.1502 63.7778 32.1502C63.4962 32.1502 62.774 32.1946 62.2974 32.1946C62.1458 32.1946 62.0302 32.165 62.0302 32.0243C62.0302 31.9503 62.1169 31.9132 62.2685 31.9132C62.3913 31.9132 62.4924 31.9132 62.7162 31.8688C63.1351 31.78 63.2579 31.1803 63.3301 30.662L64.8105 20.6743Z" fill="#212121" fill-opacity="0.9"/>
<path d="M80.2642 28.9221C80.192 28.9221 80.1776 28.9369 80.1415 29.0109L79.441 30.7582C79.3038 31.0765 79.246 31.4023 79.246 31.5504C79.246 31.7799 79.3688 31.9206 79.7659 31.9206H79.9609C80.127 31.9206 80.1559 31.9798 80.1559 32.0613C80.1559 32.1649 80.0837 32.2019 79.9465 32.2019C79.5132 32.2019 78.8994 32.1575 78.4805 32.1575C78.3433 32.1575 77.6428 32.2019 76.9568 32.2019C76.7907 32.2019 76.7185 32.1723 76.7185 32.0613C76.7185 31.9872 76.7618 31.9206 76.8702 31.9206C76.9929 31.9206 77.1373 31.9058 77.2601 31.9058C77.8595 31.8169 78.0834 31.4171 78.3505 30.7582L81.7879 22.5622C81.9396 22.192 82.0407 22.0439 82.1779 22.0439C82.3729 22.0439 82.4306 22.1624 82.5678 22.4586C82.8784 23.1767 85.0809 28.5148 85.9186 30.4917C86.4241 31.6689 86.7996 31.8391 87.0379 31.8836C87.2329 31.9132 87.3845 31.928 87.529 31.928C87.6445 31.928 87.7095 31.9724 87.7095 32.0687C87.7095 32.1723 87.6373 32.2093 87.139 32.2093C86.6768 32.2093 85.7164 32.2093 84.6115 32.1797C84.3732 32.1649 84.2215 32.1649 84.2215 32.0761C84.2215 32.002 84.2504 31.9576 84.3876 31.9354C84.4815 31.9206 84.5682 31.8021 84.5104 31.6466L83.4922 29.0257C83.4633 28.9517 83.42 28.9369 83.355 28.9369H80.2642V28.9221ZM83.0733 28.1965C83.1311 28.1965 83.1456 28.1669 83.1311 28.1224L81.889 24.813C81.8746 24.7685 81.8601 24.6945 81.8313 24.6945C81.7879 24.6945 81.7735 24.7685 81.759 24.813L80.4881 28.1076C80.4592 28.1669 80.4881 28.1965 80.5314 28.1965H83.0733Z" fill="#212121" fill-opacity="0.9"/>
<path d="M95.9564 26.5895C95.9853 26.5895 96.0286 26.5746 96.0286 26.5006V26.2267C96.0286 24.2499 96.0142 23.776 95.9997 23.3614C95.9708 22.9172 95.8481 22.7765 95.4292 22.6581C95.3281 22.6284 95.0971 22.6136 94.9237 22.6136C94.7721 22.6136 94.6999 22.5692 94.6999 22.4804C94.6999 22.3915 94.7938 22.3545 94.9815 22.3545C95.682 22.3545 96.6136 22.3841 96.953 22.3841C97.2635 22.3841 98.13 22.3545 98.6428 22.3545C98.8377 22.3545 98.9244 22.3841 98.9244 22.4804C98.9244 22.5692 98.8377 22.6136 98.6861 22.6136C98.585 22.6136 98.4622 22.6284 98.2961 22.6581C97.9495 22.7173 97.8484 22.9024 97.8195 23.3614C97.7906 23.776 97.7906 24.1388 97.7906 26.1156V28.4182C97.7906 29.6102 97.7906 30.6393 97.8484 31.202C97.8917 31.5722 97.9712 31.8165 98.3756 31.8758C98.5561 31.9054 98.8377 31.9202 99.0472 31.9202C99.1844 31.9202 99.2566 31.9942 99.2566 32.0609C99.2566 32.1497 99.1555 32.2015 98.9894 32.2015C98.1373 32.2015 97.2707 32.1571 96.9096 32.1571C96.6136 32.1571 95.682 32.2015 95.1765 32.2015C94.996 32.2015 94.8949 32.1571 94.8949 32.0609C94.8949 32.0016 94.9526 31.9202 95.1043 31.9202C95.3137 31.9202 95.4654 31.9054 95.5809 31.8758C95.8481 31.8165 95.9275 31.5722 95.9708 31.1872C96.0286 30.6319 96.0286 29.6398 96.0286 28.4478V27.4483C96.0286 27.4039 95.9853 27.3743 95.9564 27.3743H90.9953C90.952 27.3743 90.9086 27.3891 90.9086 27.4483V28.4478C90.9086 29.6398 90.9231 30.6393 90.9809 31.202C91.0242 31.5722 91.0964 31.8165 91.4864 31.8758C91.6669 31.9054 91.963 31.9202 92.158 31.9202C92.3096 31.9202 92.3674 31.9942 92.3674 32.0609C92.3674 32.1497 92.2663 32.2015 92.1002 32.2015C91.2481 32.2015 90.3382 32.1571 89.9626 32.1571C89.6593 32.1571 88.8 32.2015 88.2728 32.2015C88.1067 32.2015 88.0201 32.1571 88.0201 32.0609C88.0201 32.0016 88.0634 31.9202 88.2295 31.9202C88.4245 31.9202 88.5761 31.9054 88.6917 31.8758C88.9589 31.8165 89.0383 31.5722 89.0816 31.1872C89.1394 30.6319 89.1394 29.6102 89.1394 28.4182V26.1156C89.1394 24.1388 89.1394 23.7686 89.125 23.3614C89.0961 22.9172 88.9733 22.7765 88.5545 22.6581C88.4462 22.6284 88.2223 22.6136 88.0345 22.6136C87.8973 22.6136 87.8107 22.5692 87.8107 22.4804C87.8107 22.3915 87.9118 22.3545 88.0923 22.3545C88.7928 22.3545 89.6593 22.3841 90.0204 22.3841C90.3309 22.3841 91.2481 22.3545 91.768 22.3545C91.9485 22.3545 92.0424 22.3841 92.0424 22.4804C92.0424 22.5692 91.9702 22.6136 91.8041 22.6136C91.703 22.6136 91.5802 22.6284 91.4286 22.6581C91.0675 22.7173 90.9664 22.9024 90.9375 23.3614C90.9086 23.776 90.9086 24.2499 90.9086 26.2267V26.5006C90.9086 26.5746 90.952 26.5895 90.9953 26.5895H95.9564Z" fill="#212121" fill-opacity="0.9"/>
<path d="M102.665 28.9221C102.593 28.9221 102.578 28.9369 102.542 29.0109L101.842 30.7582C101.705 31.0765 101.647 31.4023 101.647 31.5504C101.647 31.7799 101.77 31.9206 102.167 31.9206H102.362C102.528 31.9206 102.557 31.9798 102.557 32.0613C102.557 32.1649 102.485 32.2019 102.347 32.2019C101.914 32.2019 101.3 32.1575 100.881 32.1575C100.744 32.1575 100.044 32.2019 99.3576 32.2019C99.1915 32.2019 99.1193 32.1723 99.1193 32.0613C99.1193 31.9872 99.1627 31.9206 99.271 31.9206C99.3937 31.9206 99.5382 31.9058 99.6609 31.9058C100.26 31.8169 100.484 31.4171 100.751 30.7582L104.189 22.5622C104.34 22.192 104.442 22.0439 104.579 22.0439C104.774 22.0439 104.831 22.1624 104.969 22.4586C105.286 23.1767 107.482 28.5148 108.319 30.4917C108.825 31.6689 109.2 31.8391 109.439 31.8836C109.634 31.9132 109.785 31.928 109.93 31.928C110.053 31.928 110.11 31.9724 110.11 32.0687C110.11 32.1723 110.038 32.2093 109.54 32.2093C109.078 32.2093 108.124 32.2093 107.012 32.1797C106.774 32.1649 106.622 32.1649 106.622 32.0761C106.622 32.002 106.658 31.9576 106.788 31.9354C106.875 31.9206 106.969 31.8021 106.911 31.6466L105.893 29.0257C105.864 28.9517 105.821 28.9369 105.756 28.9369H102.665V28.9221ZM105.474 28.1965C105.532 28.1965 105.546 28.1669 105.532 28.1224L104.29 24.813C104.275 24.7685 104.261 24.6945 104.232 24.6945C104.189 24.6945 104.174 24.7685 104.16 24.813L102.889 28.1076C102.86 28.1669 102.889 28.1965 102.932 28.1965H105.474Z" fill="#212121" fill-opacity="0.9"/>
<path d="M115.757 25.7313H115.83C116.342 25.1612 118.523 22.8809 118.957 22.3626C119.375 21.8592 119.7 21.4742 119.7 21.215C119.7 21.0447 119.643 20.9411 119.491 20.9041C119.354 20.8744 119.296 20.8448 119.296 20.7486C119.296 20.6449 119.368 20.6079 119.534 20.6079C119.845 20.6079 120.668 20.6523 121.072 20.6523C121.535 20.6523 122.358 20.6079 122.82 20.6079C122.972 20.6079 123.073 20.6375 123.073 20.7486C123.073 20.8596 123.001 20.8893 122.849 20.8893C122.639 20.8893 122.264 20.9485 121.982 21.0595C121.52 21.2446 121.007 21.563 120.365 22.2071C119.903 22.6662 117.642 24.9687 117.137 25.5166C117.671 26.2348 120.603 29.4702 121.188 30.0329C121.845 30.6771 122.517 31.3656 123.325 31.6914C123.773 31.8765 124.077 31.9209 124.25 31.9209C124.358 31.9209 124.445 31.9505 124.445 32.0468C124.445 32.1578 124.373 32.2022 124.084 32.2022H122.784C122.336 32.2022 122.062 32.2022 121.751 32.1726C120.942 32.0986 120.545 31.758 119.895 31.1805C119.238 30.5808 116.292 27.0418 115.981 26.5976L115.815 26.3681H115.743V27.76C115.743 29.1741 115.743 30.3809 115.786 31.0398C115.815 31.4693 115.952 31.8024 116.328 31.8691C116.537 31.8987 116.862 31.9283 117.057 31.9283C117.18 31.9283 117.252 31.9727 117.252 32.0542C117.252 32.1652 117.13 32.2096 116.971 32.2096C116.133 32.2096 115.194 32.1652 114.819 32.1652C114.479 32.1652 113.533 32.2096 112.934 32.2096C112.739 32.2096 112.631 32.1652 112.631 32.0542C112.631 31.9801 112.688 31.9283 112.869 31.9283C113.093 31.9283 113.273 31.8987 113.411 31.8691C113.707 31.8098 113.786 31.4693 113.844 31.025C113.916 30.3809 113.916 29.1741 113.916 27.76V25.065C113.916 22.7328 113.916 22.3034 113.887 21.8147C113.858 21.2965 113.735 21.0447 113.244 20.9411C113.122 20.9115 112.869 20.8967 112.659 20.8967C112.493 20.8967 112.407 20.867 112.407 20.756C112.407 20.6523 112.508 20.6153 112.732 20.6153C113.526 20.6153 114.465 20.6597 114.826 20.6597C115.187 20.6597 116.126 20.6153 116.631 20.6153C116.841 20.6153 116.949 20.6449 116.949 20.756C116.949 20.867 116.862 20.8967 116.74 20.8967C116.588 20.8967 116.501 20.9115 116.321 20.9411C115.916 21.0151 115.794 21.2817 115.765 21.8147C115.736 22.3034 115.736 22.7328 115.736 25.065V25.7313H115.757Z" fill="#212121" fill-opacity="0.9"/>
<path d="M125.535 28.9221C125.463 28.9221 125.449 28.9369 125.42 29.0109L124.719 30.7582C124.582 31.0765 124.524 31.4023 124.524 31.5504C124.524 31.7799 124.647 31.9206 125.044 31.9206H125.239C125.405 31.9206 125.434 31.9798 125.434 32.0613C125.434 32.1649 125.362 32.2019 125.225 32.2019C124.791 32.2019 124.178 32.1575 123.759 32.1575C123.622 32.1575 122.921 32.2019 122.235 32.2019C122.069 32.2019 121.997 32.1723 121.997 32.0613C121.997 31.9872 122.04 31.9206 122.148 31.9206C122.271 31.9206 122.416 31.9058 122.538 31.9058C123.138 31.8169 123.362 31.4171 123.629 30.7582L127.066 22.5622C127.218 22.192 127.319 22.0439 127.456 22.0439C127.651 22.0439 127.709 22.1624 127.846 22.4586C128.157 23.1767 130.359 28.5148 131.197 30.4917C131.702 31.6689 132.078 31.8391 132.316 31.8836C132.511 31.9132 132.663 31.928 132.807 31.928C132.93 31.928 132.988 31.9724 132.988 32.0687C132.988 32.1723 132.915 32.2093 132.417 32.2093C131.955 32.2093 130.995 32.2093 129.89 32.1797C129.651 32.1649 129.5 32.1649 129.5 32.0761C129.5 32.002 129.529 31.9576 129.666 31.9354C129.752 31.9206 129.846 31.8021 129.781 31.6466L128.763 29.0257C128.734 28.9517 128.691 28.9369 128.626 28.9369H125.535V28.9221ZM128.344 28.1965C128.402 28.1965 128.417 28.1669 128.402 28.1224L127.16 24.813C127.146 24.7685 127.131 24.6945 127.102 24.6945C127.059 24.6945 127.044 24.7685 127.03 24.813L125.759 28.1076C125.73 28.1669 125.759 28.1965 125.802 28.1965H128.344Z" fill="#212121" fill-opacity="0.9"/>
<path d="M134.41 26.1162C134.41 24.1394 134.41 23.7692 134.396 23.3546C134.367 22.9103 134.244 22.7697 133.825 22.6512C133.717 22.6216 133.493 22.6068 133.305 22.6068C133.168 22.6068 133.082 22.5624 133.082 22.4735C133.082 22.3847 133.183 22.3477 133.378 22.3477C134.064 22.3477 134.901 22.3773 135.176 22.3773C135.624 22.3773 136.815 22.3477 137.219 22.3477C138.057 22.3477 139.018 22.4217 139.718 22.9029C140.094 23.1621 140.642 23.821 140.642 24.6947C140.642 25.6571 140.108 26.516 138.815 27.5747C139.985 29.0481 140.91 30.2253 141.704 31.0397C142.433 31.7875 142.895 31.8541 143.112 31.8985C143.242 31.9281 143.322 31.9281 143.423 31.9281C143.524 31.9281 143.589 32.0022 143.589 32.0688C143.589 32.1799 143.502 32.2095 143.336 32.2095H142.079C141.35 32.2095 140.989 32.1354 140.642 31.9503C140.072 31.6616 139.581 31.0471 138.852 30.0328C138.324 29.3294 137.776 28.4558 137.609 28.2559C137.537 28.1818 137.458 28.167 137.371 28.167L136.194 28.1374C136.136 28.1374 136.086 28.167 136.086 28.2411V28.4262C136.086 29.633 136.1 30.6473 136.158 31.1952C136.201 31.5802 136.266 31.8245 136.663 31.8837C136.858 31.9133 137.14 31.9281 137.306 31.9281C137.407 31.9281 137.472 32.0022 137.472 32.0688C137.472 32.1577 137.371 32.2095 137.205 32.2095C136.447 32.2095 135.356 32.1651 135.161 32.1651C134.909 32.1651 134.071 32.2095 133.544 32.2095C133.378 32.2095 133.291 32.1651 133.291 32.0688C133.291 32.0096 133.334 31.9281 133.5 31.9281C133.695 31.9281 133.847 31.9133 133.963 31.8837C134.23 31.8245 134.302 31.5802 134.353 31.1952C134.41 30.6399 134.41 29.6182 134.41 28.4262V26.1162ZM136.086 27.1305C136.086 27.2712 136.115 27.3156 136.208 27.36C136.49 27.4489 136.88 27.4859 137.212 27.4859C137.732 27.4859 137.913 27.4414 138.137 27.2712C138.541 26.9824 138.989 26.4123 138.989 25.3388C138.989 23.4952 137.761 23.0214 136.988 23.0214C136.656 23.0214 136.346 23.0362 136.216 23.0658C136.129 23.0954 136.093 23.1399 136.093 23.2509V27.1305H136.086Z" fill="#212121" fill-opacity="0.9"/>
<path d="M145.784 28.8112C145.784 28.1078 145.668 27.8265 145.488 27.4489C145.401 27.249 143.61 24.3837 143.141 23.6951C142.809 23.2213 142.542 22.9103 142.289 22.7771C142.123 22.6882 141.899 22.6068 141.733 22.6068C141.632 22.6068 141.538 22.5624 141.538 22.4735C141.538 22.3847 141.624 22.3477 141.791 22.3477C142.014 22.3477 143.004 22.3773 143.437 22.3773C143.719 22.3773 144.333 22.3477 144.932 22.3477C145.055 22.3477 145.127 22.3773 145.127 22.4735C145.127 22.5772 145.04 22.5772 144.824 22.6438C144.722 22.6734 144.643 22.7327 144.643 22.8437C144.643 22.9548 144.701 23.1028 144.809 23.2879C145.047 23.6877 146.766 26.7381 146.99 27.1083C147.156 26.7973 148.752 24.0135 148.947 23.6137C149.084 23.325 149.142 23.0954 149.142 22.9251C149.142 22.7993 149.084 22.6808 148.86 22.6364C148.738 22.6068 148.622 22.592 148.622 22.4809C148.622 22.3921 148.694 22.3551 148.846 22.3551C149.279 22.3551 149.741 22.3847 150.131 22.3847C150.413 22.3847 151.28 22.3551 151.54 22.3551C151.684 22.3551 151.778 22.3847 151.778 22.4587C151.778 22.5476 151.669 22.6142 151.525 22.6142C151.388 22.6142 151.15 22.6734 150.962 22.7697C150.673 22.9103 150.557 23.0288 150.276 23.3842C149.842 23.9024 147.958 26.9972 147.719 27.5525C147.524 28.0264 147.553 28.4262 147.553 28.8556V29.8995C147.553 30.1142 147.553 30.6473 147.582 31.2026C147.611 31.5876 147.734 31.8319 148.124 31.8911C148.319 31.9207 148.6 31.9355 148.781 31.9355C148.933 31.9355 149.005 32.0096 149.005 32.0762C149.005 32.1651 148.904 32.2169 148.723 32.2169C147.9 32.2169 147.019 32.1725 146.658 32.1725C146.326 32.1725 145.452 32.2169 144.954 32.2169C144.773 32.2169 144.665 32.1873 144.665 32.0762C144.665 32.017 144.722 31.9355 144.874 31.9355C145.055 31.9355 145.221 31.9207 145.336 31.8911C145.611 31.8319 145.712 31.5876 145.741 31.2026C145.784 30.6473 145.784 30.1142 145.784 29.8995V28.8112Z" fill="#212121" fill-opacity="0.9"/>
<path d="M153.453 28.9221C153.381 28.9221 153.366 28.9369 153.33 29.0109L152.63 30.7582C152.493 31.0765 152.435 31.4023 152.435 31.5504C152.435 31.7799 152.558 31.9206 152.962 31.9206H153.157C153.323 31.9206 153.352 31.9798 153.352 32.0613C153.352 32.1649 153.28 32.2019 153.143 32.2019C152.709 32.2019 152.095 32.1575 151.677 32.1575C151.539 32.1575 150.839 32.2019 150.153 32.2019C149.987 32.2019 149.915 32.1723 149.915 32.0613C149.915 31.9872 149.958 31.9206 150.066 31.9206C150.189 31.9206 150.333 31.9058 150.456 31.9058C151.056 31.8169 151.279 31.4171 151.547 30.7582L154.984 22.5622C155.136 22.192 155.237 22.0439 155.374 22.0439C155.569 22.0439 155.627 22.1624 155.764 22.4586C156.082 23.1767 158.277 28.5148 159.115 30.4917C159.627 31.6689 159.996 31.8391 160.234 31.8836C160.429 31.9132 160.581 31.928 160.725 31.928C160.848 31.928 160.906 31.9724 160.906 32.0687C160.906 32.1723 160.833 32.2093 160.335 32.2093C159.873 32.2093 158.92 32.2093 157.808 32.1797C157.569 32.1649 157.418 32.1649 157.418 32.0761C157.418 32.002 157.447 31.9576 157.584 31.9354C157.67 31.9206 157.764 31.8021 157.699 31.6466L156.681 29.0257C156.652 28.9517 156.609 28.9369 156.544 28.9369H153.453V28.9221ZM156.262 28.1965C156.32 28.1965 156.334 28.1669 156.32 28.1224L155.078 24.813C155.063 24.7685 155.049 24.6945 155.02 24.6945C154.977 24.6945 154.962 24.7685 154.948 24.813L153.677 28.1076C153.648 28.1669 153.677 28.1965 153.72 28.1965H156.262Z" fill="#212121" fill-opacity="0.9"/>
<path d="M62.2035 10.1836C62.2035 8.7991 62.2035 8.54736 62.1891 8.25861C62.1746 7.94766 62.1024 7.80699 61.8063 7.74035C61.7341 7.72554 61.5825 7.71074 61.4597 7.71074C61.3586 7.71074 61.308 7.68852 61.308 7.62929C61.308 7.56266 61.373 7.54785 61.503 7.54785C61.9724 7.54785 62.5357 7.57747 62.7812 7.57747C63.1423 7.57747 63.6622 7.54785 64.0666 7.54785C65.1715 7.54785 65.5759 7.93285 65.7131 8.06612C65.9081 8.25862 66.1608 8.66583 66.1608 9.14707C66.1608 10.4353 65.2365 11.346 63.98 11.346C63.9366 11.346 63.8355 11.346 63.7922 11.3386C63.7489 11.3312 63.6839 11.3164 63.6839 11.2572C63.6839 11.1831 63.7489 11.1535 63.9294 11.1535C64.4277 11.1535 65.1209 10.5834 65.1209 9.65793C65.1209 9.35438 65.0921 8.74727 64.601 8.29564C64.2833 7.99948 63.9222 7.94025 63.7128 7.94025C63.5828 7.94025 63.4456 7.94766 63.3661 7.97727C63.3228 7.99208 63.2939 8.05131 63.2939 8.14756V11.7828C63.2939 12.6194 63.2939 13.3376 63.3373 13.73C63.3661 13.9817 63.4167 14.1816 63.6839 14.2187C63.8067 14.2409 64.0016 14.2557 64.1388 14.2557C64.2399 14.2557 64.2833 14.2853 64.2833 14.3297C64.2833 14.3964 64.2111 14.4186 64.1172 14.4186C63.5322 14.4186 62.9762 14.389 62.7451 14.389C62.5429 14.389 61.9796 14.4186 61.6258 14.4186C61.5102 14.4186 61.4453 14.389 61.4453 14.3297C61.4453 14.2853 61.4814 14.2557 61.5897 14.2557C61.7197 14.2557 61.828 14.2335 61.9074 14.2187C62.088 14.1816 62.1313 13.9817 62.1674 13.7226C62.2107 13.345 62.2107 12.6269 62.2107 11.7828V10.1836H62.2035Z" fill="#212121" fill-opacity="0.9"/>
<path d="M69.1866 8.05062L67.8651 8.08765C67.3524 8.10245 67.1357 8.15428 67.0057 8.35418C66.9191 8.48745 66.8685 8.59851 66.8541 8.67254C66.8397 8.74658 66.8108 8.7836 66.7602 8.7836C66.6952 8.7836 66.6808 8.73918 66.6808 8.64293C66.6808 8.49485 66.8469 7.67303 66.8685 7.59899C66.8974 7.48053 66.9191 7.42871 66.9769 7.42871C67.0491 7.42871 67.1357 7.51756 67.3596 7.53977C67.6196 7.56938 67.9518 7.58419 68.2478 7.58419H71.7574C72.0391 7.58419 72.2341 7.55458 72.3713 7.53977C72.5012 7.51015 72.5735 7.49534 72.6096 7.49534C72.6746 7.49534 72.6818 7.54717 72.6818 7.68784C72.6818 7.88034 72.6529 8.50966 72.6529 8.74658C72.6457 8.83543 72.624 8.88725 72.5735 8.88725C72.5012 8.88725 72.4868 8.84283 72.4796 8.70216L72.4724 8.60591C72.4579 8.36899 72.2124 8.11726 71.4253 8.09505L70.3059 8.06544V11.7895C70.3059 12.6262 70.3059 13.3443 70.3493 13.7367C70.3781 13.9884 70.4287 14.1884 70.6959 14.2254C70.8187 14.2476 71.0136 14.2624 71.1508 14.2624C71.2447 14.2624 71.2953 14.292 71.2953 14.3364C71.2953 14.4031 71.2231 14.4253 71.1292 14.4253C70.5442 14.4253 69.9882 14.3957 69.7354 14.3957C69.5332 14.3957 68.97 14.4253 68.6161 14.4253C68.5006 14.4253 68.4356 14.3957 68.4356 14.3364C68.4356 14.292 68.4717 14.2624 68.58 14.2624C68.7172 14.2624 68.8183 14.2402 68.8978 14.2254C69.0783 14.1884 69.1288 13.9884 69.1505 13.7293C69.1938 13.3517 69.1938 12.6336 69.1938 11.7895V8.05062H69.1866Z" fill="#212121" fill-opacity="0.9"/>
<path d="M72.754 13.8331C72.754 13.6036 72.9128 13.2778 73.2956 13.2778C73.5989 13.2778 73.8372 13.4851 73.8372 13.8035C73.8372 14.1219 73.6278 14.3884 73.2884 14.3884C72.9128 14.3884 72.754 14.0849 72.754 13.8331Z" fill="#212121" fill-opacity="0.9"/>
</g>
<defs>
<clipPath id="clip0">
<rect width="168" height="38" fill="white"/>
</clipPath>
</defs>
</svg>
