<svg id="twitter-svgrepo-com_1_" data-name="twitter-svgrepo-com (1)" xmlns="http://www.w3.org/2000/svg" width="20" height="20" viewBox="0 0 20 20">
  <rect id="Rectangle_3" data-name="Rectangle 3" width="20" height="20" fill="none"/>
  <g id="Group_3" data-name="Group 3">
    <path id="Path_3" data-name="Path 3" d="M18.94,4.46a7.509,7.509,0,0,1-1.83,1.9c.01.15.01.31.01.47A10.365,10.365,0,0,1,6.69,17.27a10.435,10.435,0,0,1-5.63-1.65,8.491,8.491,0,0,0,.88.05A7.352,7.352,0,0,0,6.49,14.1a3.671,3.671,0,0,1-3.42-2.55,3.841,3.841,0,0,0,.69.07,3.77,3.77,0,0,0,.96-.13,3.68,3.68,0,0,1-2.94-3.6V7.85a3.745,3.745,0,0,0,1.66.46A3.681,3.681,0,0,1,1.81,5.25a3.6,3.6,0,0,1,.5-1.84A10.4,10.4,0,0,0,9.87,7.24a3.862,3.862,0,0,1-.1-.84,3.672,3.672,0,0,1,6.35-2.5,7.555,7.555,0,0,0,2.33-.89,3.7,3.7,0,0,1-1.62,2.02A7.081,7.081,0,0,0,18.94,4.46Z" fill="#fff"/>
  </g>
</svg>
