<svg id="instagram-svgrepo-com_1_" data-name="instagram-svgrepo-com (1)" xmlns="http://www.w3.org/2000/svg" width="20" height="20" viewBox="0 0 20 20">
  <rect id="Rectangle_2" data-name="Rectangle 2" width="20" height="20" fill="none"/>
  <g id="Group_2" data-name="Group 2">
    <path id="Path_2" data-name="Path 2" d="M12.7,10A2.7,2.7,0,1,0,10,12.7,2.689,2.689,0,0,0,12.7,10Zm1.4,0A4.1,4.1,0,1,1,10,5.9,4.055,4.055,0,0,1,14.1,10Zm1.1-4.3a1,1,0,0,1-2,0,.945.945,0,0,1,1-1A1,1,0,0,1,15.2,5.7ZM10,3.4c-1.2,0-3.7-.1-4.7.3A2.631,2.631,0,0,0,3.8,5.3c-.4,1-.3,3.5-.3,4.7s-.1,3.7.3,4.7a2.254,2.254,0,0,0,1.5,1.5c1,.4,3.6.3,4.7.3s3.7.1,4.7-.3a2.758,2.758,0,0,0,1.5-1.5,18.6,18.6,0,0,0,.3-4.7c0-1.1.1-3.7-.3-4.7a2.254,2.254,0,0,0-1.5-1.5c-1-.5-3.5-.4-4.7-.4ZM18,10v3.3a5.01,5.01,0,0,1-1.3,3.4A4.675,4.675,0,0,1,13.3,18H6.7a5.01,5.01,0,0,1-3.4-1.3A5.127,5.127,0,0,1,2,13.3V6.7A5.127,5.127,0,0,1,3.3,3.3,5.546,5.546,0,0,1,6.7,2h6.6a5.01,5.01,0,0,1,3.4,1.3A5.127,5.127,0,0,1,18,6.7V10Z" fill="#fff"/>
  </g>
</svg>
