<svg id="arrows" xmlns="http://www.w3.org/2000/svg" width="25.782" height="23.154" viewBox="0 0 25.782 23.154">
  <path id="Path_44" data-name="Path 44" d="M15.884,35.317V29.994a.817.817,0,0,0-.817-.817H7.912V26.542a.818.818,0,0,0-1.388-.586L.247,32.07a.818.818,0,0,0,0,1.171l6.278,6.114a.818.818,0,0,0,1.388-.586V36.134h7.154A.817.817,0,0,0,15.884,35.317Z" transform="translate(0 -25.723)" fill="#fff"/>
  <path id="Path_45" data-name="Path 45" d="M209.409,213.949l-6.278-6.114a.818.818,0,0,0-1.388.586v2.635h-7.154a.817.817,0,0,0-.817.817V217.2a.817.817,0,0,0,.817.817h7.154v2.635a.818.818,0,0,0,1.388.586l6.278-6.114A.817.817,0,0,0,209.409,213.949Z" transform="translate(-183.874 -198.312)" fill="#fff"/>
</svg>
