<svg xmlns="http://www.w3.org/2000/svg" width="17" height="17" viewBox="0 0 17 17">
  <g id="call" transform="translate(0)">
    <g id="Group_3" data-name="Group 3" transform="translate(0)">
      <path id="Path_4" data-name="Path 4" d="M15.636,11.159a9.652,9.652,0,0,1-3.031-.483,1.385,1.385,0,0,0-1.348.284L9.346,12.4A10.564,10.564,0,0,1,4.6,7.654L6,5.793A1.374,1.374,0,0,0,6.335,4.4,9.667,9.667,0,0,1,5.85,1.364,1.366,1.366,0,0,0,4.486,0H1.364A1.366,1.366,0,0,0,0,1.364,15.653,15.653,0,0,0,15.636,17,1.366,1.366,0,0,0,17,15.636V12.523A1.366,1.366,0,0,0,15.636,11.159Z" fill="#064faf"/>
    </g>
  </g>
</svg>
