<svg id="facebook" xmlns="http://www.w3.org/2000/svg" width="23.825" height="23.825" viewBox="0 0 23.825 23.825">
  <g id="Group_4" data-name="Group 4">
    <path id="Path_5" data-name="Path 5" d="M20.847,0H2.978A2.981,2.981,0,0,0,0,2.978V20.847a2.981,2.981,0,0,0,2.978,2.978h8.934v-8.19H8.934V11.913h2.978V8.934A4.467,4.467,0,0,1,16.38,4.467h2.978V8.19H17.869c-.822,0-1.489-.077-1.489.745v2.978H20.1l-1.489,3.723H16.38v8.19h4.467a2.981,2.981,0,0,0,2.978-2.978V2.978A2.981,2.981,0,0,0,20.847,0Z" fill="#232323"/>
  </g>
</svg>
