<svg xmlns="http://www.w3.org/2000/svg" width="31.982" height="31.982" viewBox="0 0 31.982 31.982">
  <path id="facebook_1_" data-name="facebook (1)" d="M27.674,0H4.312A4.31,4.31,0,0,0,0,4.31V27.673a4.31,4.31,0,0,0,4.31,4.31H15.834l.02-11.429H12.885a.7.7,0,0,1-.7-.7l-.014-3.684a.7.7,0,0,1,.7-.7h2.964v-3.56c0-4.131,2.523-6.38,6.208-6.38h3.024a.7.7,0,0,1,.7.7V9.336a.7.7,0,0,1-.7.7H23.211c-2,0-2.392.952-2.392,2.35v3.082h4.4a.7.7,0,0,1,.7.783l-.437,3.684a.7.7,0,0,1-.7.618H20.838l-.02,11.429h6.856a4.31,4.31,0,0,0,4.31-4.31V4.31A4.31,4.31,0,0,0,27.674,0Z" transform="translate(-0.002)" fill="#475993"/>
</svg>
