<svg xmlns="http://www.w3.org/2000/svg" width="19.345" height="19.345" viewBox="0 0 19.345 19.345">
  <path id="floppy-disk" d="M18.4,2.433,16.912.945A3.22,3.22,0,0,0,14.633,0H2.217A2.216,2.216,0,0,0,0,2.217V17.128a2.216,2.216,0,0,0,2.217,2.217H17.128a2.216,2.216,0,0,0,2.217-2.217V4.712A3.22,3.22,0,0,0,18.4,2.433ZM3.224,5.038V3.023a.6.6,0,0,1,.6-.6h8.463a.6.6,0,0,1,.6.6V5.038a.6.6,0,0,1-.6.6H3.829A.6.6,0,0,1,3.224,5.038ZM9.672,16.121A3.627,3.627,0,1,1,13.3,12.493,3.627,3.627,0,0,1,9.672,16.121Zm0,0" transform="translate(0)" fill="#fff"/>
</svg>
