<svg xmlns="http://www.w3.org/2000/svg" width="14.498" height="11.78" viewBox="0 0 14.498 11.78">
  <path id="form-twitter" d="M14.5,49.395a6.2,6.2,0,0,1-1.713.469,2.956,2.956,0,0,0,1.308-1.643,5.94,5.94,0,0,1-1.885.719,2.972,2.972,0,0,0-5.141,2.032,3.061,3.061,0,0,0,.069.678,8.413,8.413,0,0,1-6.126-3.109,2.973,2.973,0,0,0,.913,3.973A2.935,2.935,0,0,1,.58,52.148v.033A2.986,2.986,0,0,0,2.961,55.1a2.966,2.966,0,0,1-.779.1,2.629,2.629,0,0,1-.563-.051A3,3,0,0,0,4.4,57.219,5.972,5.972,0,0,1,.711,58.487,5.566,5.566,0,0,1,0,58.446,8.368,8.368,0,0,0,4.56,59.78a8.4,8.4,0,0,0,8.46-8.458c0-.131,0-.258-.011-.384A5.93,5.93,0,0,0,14.5,49.395Z" transform="translate(0 -48)" fill="#7e7e7e"/>
</svg>
