<svg xmlns="http://www.w3.org/2000/svg" width="11.78" height="11.78" viewBox="0 0 11.78 11.78">
  <g id="form-ig" transform="translate(-7818.765 -1453.197)">
    <g id="Group_20" data-name="Group 20" transform="translate(7818.765 1453.197)">
      <g id="Group_19" data-name="Group 19">
        <path id="Path_14" data-name="Path 14" d="M8.1,0H3.681A3.682,3.682,0,0,0,0,3.681V8.1A3.682,3.682,0,0,0,3.681,11.78H8.1A3.682,3.682,0,0,0,11.78,8.1V3.681A3.682,3.682,0,0,0,8.1,0Zm2.577,8.1A2.58,2.58,0,0,1,8.1,10.676H3.681A2.58,2.58,0,0,1,1.1,8.1V3.681A2.58,2.58,0,0,1,3.681,1.1H8.1a2.58,2.58,0,0,1,2.577,2.577Z" fill="#7e7e7e"/>
      </g>
    </g>
    <g id="Group_22" data-name="Group 22" transform="translate(7821.71 1456.142)">
      <g id="Group_21" data-name="Group 21">
        <path id="Path_15" data-name="Path 15" d="M130.945,128a2.945,2.945,0,1,0,2.945,2.945A2.945,2.945,0,0,0,130.945,128Zm0,4.786a1.841,1.841,0,1,1,1.841-1.841A1.843,1.843,0,0,1,130.945,132.786Z" transform="translate(-128 -128)" fill="#7e7e7e"/>
      </g>
    </g>
    <g id="Group_24" data-name="Group 24" transform="translate(7827.428 1455.529)">
      <g id="Group_23" data-name="Group 23">
        <circle id="Ellipse_5" data-name="Ellipse 5" cx="0.392" cy="0.392" r="0.392" fill="#7e7e7e"/>
      </g>
    </g>
  </g>
</svg>
