<svg id="form-web" xmlns="http://www.w3.org/2000/svg" width="13.859" height="13.86" viewBox="0 0 13.859 13.86">
  <path id="Path_10" data-name="Path 10" d="M11.83,2.03a6.93,6.93,0,1,0-9.8,9.8,6.93,6.93,0,1,0,9.8-9.8ZM2.6,2.6a6.1,6.1,0,0,1,2.1-1.378,5.713,5.713,0,0,0-.58.892,7.983,7.983,0,0,0-.534,1.273,12.518,12.518,0,0,1-1.418-.314A6.237,6.237,0,0,1,2.6,2.6Zm-.92,1.174a12.556,12.556,0,0,0,1.691.4,11.8,11.8,0,0,0-.3,2.344H.827A6.062,6.062,0,0,1,1.684,3.778ZM1.64,10.006a6.063,6.063,0,0,1-.814-2.67H3.077a11.787,11.787,0,0,0,.294,2.279A13.176,13.176,0,0,0,1.64,10.006ZM2.6,11.255a6.224,6.224,0,0,1-.483-.543A13.144,13.144,0,0,1,3.589,10.4a8,8,0,0,0,.539,1.29,5.619,5.619,0,0,0,.636.961A6.1,6.1,0,0,1,2.6,11.255Zm3.919,1.687a3.03,3.03,0,0,1-1.677-1.631,7.069,7.069,0,0,1-.437-1.017c.669-.074,1.382-.117,2.114-.127Zm0-3.589A22.9,22.9,0,0,0,4.179,9.5a10.9,10.9,0,0,1-.289-2.166H6.523V9.354Zm0-2.83H3.889A10.92,10.92,0,0,1,4.182,4.3a22.57,22.57,0,0,0,2.341.164Zm0-2.874c-.735-.015-1.446-.063-2.11-.141A7.068,7.068,0,0,1,4.847,2.5,3.03,3.03,0,0,1,6.523.87Zm5.677.172a6.064,6.064,0,0,1,.832,2.7H10.784A11.813,11.813,0,0,0,10.49,4.2,13.277,13.277,0,0,0,12.2,3.822ZM11.255,2.6a6.23,6.23,0,0,1,.458.512,13.269,13.269,0,0,1-1.44.3,8,8,0,0,0-.542-1.3,5.713,5.713,0,0,0-.58-.892A6.1,6.1,0,0,1,11.255,2.6ZM7.336,7.336H9.969a10.889,10.889,0,0,1-.293,2.182,22.592,22.592,0,0,0-2.34-.163Zm0-.813V4.465a22.929,22.929,0,0,0,2.346-.148,10.931,10.931,0,0,1,.289,2.206Zm0-5.653h0A3.03,3.03,0,0,1,9.013,2.5a7.078,7.078,0,0,1,.44,1.025c-.67.073-1.383.117-2.116.127Zm0,12.072V10.169c.734.014,1.444.062,2.109.14a7.064,7.064,0,0,1-.432,1A3.03,3.03,0,0,1,7.336,12.942Zm3.919-1.687a6.1,6.1,0,0,1-2.161,1.4,5.619,5.619,0,0,0,.636-.961,7.98,7.98,0,0,0,.533-1.27,12.506,12.506,0,0,1,1.449.321A6.233,6.233,0,0,1,11.255,11.255Zm.943-1.212a12.556,12.556,0,0,0-1.714-.406,11.778,11.778,0,0,0,.3-2.3h2.251A6.064,6.064,0,0,1,12.2,10.043Z" transform="translate(0 0)" fill="#7e7e7e"/>
</svg>
