<svg id="form-phone" xmlns="http://www.w3.org/2000/svg" width="13.437" height="13.437" viewBox="0 0 13.437 13.437">
  <path id="Path_4" data-name="Path 4" d="M12.359,8.82a7.629,7.629,0,0,1-2.4-.382A1.1,1.1,0,0,0,8.9,8.663L7.387,9.8A8.35,8.35,0,0,1,3.633,6.05L4.74,4.579a1.086,1.086,0,0,0,.267-1.1,7.641,7.641,0,0,1-.383-2.4A1.079,1.079,0,0,0,3.546,0H1.078A1.079,1.079,0,0,0,0,1.078,12.373,12.373,0,0,0,12.359,13.437a1.079,1.079,0,0,0,1.078-1.078V9.9A1.079,1.079,0,0,0,12.359,8.82Z" fill="#7e7e7e"/>
</svg>
