<svg xmlns="http://www.w3.org/2000/svg" width="11.918" height="11.918" viewBox="0 0 11.918 11.918">
  <path id="form-linkedin" d="M11.058,0H.86A.859.859,0,0,0,0,.86v10.2a.859.859,0,0,0,.86.86h10.2a.859.859,0,0,0,.86-.86V.86a.859.859,0,0,0-.86-.86ZM4.227,9.008H2.776V4.642H4.227ZM3.5,4.046H3.492a.756.756,0,1,1,.019-1.509A.757.757,0,1,1,3.5,4.046ZM9.46,9.008H8.009V6.672c0-.587-.21-.987-.735-.987a.794.794,0,0,0-.745.531.994.994,0,0,0-.048.354V9.008H5.031s.019-3.957,0-4.366H6.482V5.26A1.441,1.441,0,0,1,7.79,4.54c.955,0,1.671.624,1.671,1.965Zm0,0" fill="#7e7e7e"/>
</svg>
