<svg xmlns="http://www.w3.org/2000/svg" width="13.2" height="11" viewBox="0 0 13.2 11">
  <g id="form-company" transform="translate(0 -2)">
    <path id="Path_52" data-name="Path 52" d="M11.85,4.475a.55.55,0,0,1-.55-.55V3.1H9.1v.825a.55.55,0,1,1-1.1,0V3.1A1.1,1.1,0,0,1,9.1,2h2.2a1.1,1.1,0,0,1,1.1,1.1v.825A.55.55,0,0,1,11.85,4.475Z" transform="translate(-3.6)" fill="#7e7e7e"/>
    <path id="Path_53" data-name="Path 53" d="M6.991,13.688a1.133,1.133,0,0,1-.391.066,1.205,1.205,0,0,1-.424-.077L0,11.62v4.2a1.512,1.512,0,0,0,1.513,1.513H11.688A1.512,1.512,0,0,0,13.2,15.817v-4.2Z" transform="translate(0 -4.329)" fill="#7e7e7e"/>
    <path id="Path_54" data-name="Path 54" d="M13.2,6.513v1.26L6.732,9.928a.407.407,0,0,1-.264,0L0,7.772V6.513A1.512,1.512,0,0,1,1.513,5H11.688A1.512,1.512,0,0,1,13.2,6.513Z" transform="translate(0 -1.35)" fill="#7e7e7e"/>
  </g>
</svg>
