<svg id="form-remove" xmlns="http://www.w3.org/2000/svg" width="11.377" height="11.376" viewBox="0 0 11.377 11.376">
  <path id="Path_17" data-name="Path 17" d="M6.941,5.7,11.2,1.45a.623.623,0,0,0,0-.88L10.822.2a.624.624,0,0,0-.88,0L5.689,4.451,1.435.2a.623.623,0,0,0-.88,0L.182.57a.623.623,0,0,0,0,.88L4.436,5.7.182,9.958a.624.624,0,0,0,0,.88l.373.373a.623.623,0,0,0,.88,0L5.689,6.957l4.254,4.254a.617.617,0,0,0,.44.182h0a.617.617,0,0,0,.44-.182l.373-.373a.624.624,0,0,0,0-.88Z" transform="translate(0 -0.016)" fill="#7e7e7e"/>
</svg>
