<svg id="Group_30" data-name="Group 30" xmlns="http://www.w3.org/2000/svg" width="31.982" height="31.982" viewBox="0 0 31.982 31.982">
  <g id="google" transform="translate(0 0)">
    <path id="Path_20" data-name="Path 20" d="M60.406,305.007A15.813,15.813,0,0,1,36.4,300.941l1.038-4.786,4.6-.854a8.492,8.492,0,0,0,8.077,5.978,8.312,8.312,0,0,0,4.947-1.612l4.423.675Z" transform="translate(-34.126 -276.854)" fill="#59c36a"/>
    <path id="Path_21" data-name="Path 21" d="M266.288,370.541l-.918-4.666-4.423-.675A8.312,8.312,0,0,1,256,366.812v7.558A15.967,15.967,0,0,0,266.288,370.541Z" transform="translate(-240.009 -342.388)" fill="#00a66c"/>
    <g id="Connected_Home_1_" transform="translate(0 7.896)">
      <g id="Group_29" data-name="Group 29">
        <g id="Group_28" data-name="Group 28">
          <g id="Group_27" data-name="Group 27">
            <path id="Path_22" data-name="Path 22" d="M7.558,134.5a8.733,8.733,0,0,0,.356,2.455l-5.641,5.641a15.549,15.549,0,0,1,0-16.191l4.527.779,1.114,4.862A8.732,8.732,0,0,0,7.558,134.5Z" transform="translate(0 -126.4)" fill="#ffda2d"/>
          </g>
        </g>
      </g>
    </g>
    <path id="Path_23" data-name="Path 23" d="M257.928,199.748a15.966,15.966,0,0,1-5.7,12.162l-5.341-5.341a8.292,8.292,0,0,0,2.6-3.073h-7.552a.928.928,0,0,1-.937-.937v-5.622a.928.928,0,0,1,.937-.937h14.792a.926.926,0,0,1,.918.768A15.891,15.891,0,0,1,257.928,199.748Z" transform="translate(-225.946 -183.757)" fill="#4086f4"/>
    <path id="Path_24" data-name="Path 24" d="M263.552,203.5a8.292,8.292,0,0,1-2.6,3.073l5.341,5.341a15.838,15.838,0,0,0,5.422-15.142.926.926,0,0,0-.918-.768H256v7.5Z" transform="translate(-240.009 -183.757)" fill="#4175df"/>
    <path id="Path_25" data-name="Path 25" d="M60.668,4.466a.946.946,0,0,1-.262.693L56.4,9.151a.918.918,0,0,1-1.218.094,8.382,8.382,0,0,0-5.06-1.687,8.492,8.492,0,0,0-8.077,5.978L36.4,7.9A15.8,15.8,0,0,1,60.331,3.773a.985.985,0,0,1,.337.693Z" transform="translate(-34.126 0)" fill="#ff641a"/>
    <path id="Path_26" data-name="Path 26" d="M261.06,9.245a.918.918,0,0,0,1.218-.094l4.01-3.992a.945.945,0,0,0,.262-.693.985.985,0,0,0-.337-.693A15.943,15.943,0,0,0,256,0V7.558A8.382,8.382,0,0,1,261.06,9.245Z" transform="translate(-240.009 0)" fill="#f03800"/>
  </g>
</svg>
