<svg id="instagram" xmlns="http://www.w3.org/2000/svg" width="23.825" height="23.825" viewBox="0 0 23.825 23.825">
  <g id="Group_20" data-name="Group 20">
    <g id="Group_19" data-name="Group 19">
      <path id="Path_14" data-name="Path 14" d="M16.38,0H7.445A7.446,7.446,0,0,0,0,7.445V16.38a7.446,7.446,0,0,0,7.445,7.445H16.38a7.446,7.446,0,0,0,7.445-7.445V7.445A7.446,7.446,0,0,0,16.38,0Zm5.212,16.38a5.217,5.217,0,0,1-5.212,5.212H7.445A5.217,5.217,0,0,1,2.234,16.38V7.445A5.217,5.217,0,0,1,7.445,2.234H16.38a5.217,5.217,0,0,1,5.212,5.212Z" fill="#232323"/>
    </g>
  </g>
  <g id="Group_22" data-name="Group 22" transform="translate(5.956 5.956)">
    <g id="Group_21" data-name="Group 21">
      <path id="Path_15" data-name="Path 15" d="M133.956,128a5.956,5.956,0,1,0,5.956,5.956A5.957,5.957,0,0,0,133.956,128Zm0,9.679a3.723,3.723,0,1,1,3.723-3.723A3.728,3.728,0,0,1,133.956,137.679Z" transform="translate(-128 -128)" fill="#232323"/>
    </g>
  </g>
  <g id="Group_24" data-name="Group 24" transform="translate(17.522 4.716)">
    <g id="Group_23" data-name="Group 23">
      <circle id="Ellipse_5" data-name="Ellipse 5" cx="0.794" cy="0.794" r="0.794" fill="#232323"/>
    </g>
  </g>
</svg>
