<svg xmlns="http://www.w3.org/2000/svg" width="23.825" height="23.825" viewBox="0 0 23.825 23.825">
  <path id="linkedin" d="M22.107,0H1.718A1.718,1.718,0,0,0,0,1.718V22.107a1.718,1.718,0,0,0,1.718,1.718H22.107a1.718,1.718,0,0,0,1.718-1.718V1.718A1.718,1.718,0,0,0,22.107,0ZM8.451,18.008H5.55V9.28h2.9ZM7,8.088H6.982A1.512,1.512,0,1,1,7.02,5.072,1.513,1.513,0,1,1,7,8.088Zm11.912,9.92h-2.9v-4.67c0-1.174-.42-1.974-1.47-1.974a1.588,1.588,0,0,0-1.489,1.061,1.987,1.987,0,0,0-.1.708v4.874h-2.9s.038-7.91,0-8.728h2.9v1.236a2.88,2.88,0,0,1,2.615-1.441c1.909,0,3.34,1.247,3.34,3.928Zm0,0" transform="translate(0)" fill="#232323"/>
</svg>
