<svg xmlns="http://www.w3.org/2000/svg" width="94.304" height="47.805" viewBox="0 0 94.304 47.805">
  <g id="mail-send" transform="translate(0 -85.26)">
    <path id="Path_75" data-name="Path 75" d="M127.811,133.026c.035-.007.07-.017.1-.026s.06-.014.089-.023.067-.023.1-.035.059-.02.088-.032.062-.028.092-.043.06-.027.089-.043.057-.033.085-.05.059-.034.087-.053.058-.043.088-.064.05-.035.074-.055c.044-.036.086-.075.127-.115l.023-.02.022-.024c.039-.04.077-.082.113-.125.021-.026.039-.052.059-.079s.041-.054.06-.082.038-.062.056-.093.032-.052.047-.079.031-.064.046-.1.028-.056.04-.086.023-.063.035-.1.023-.062.033-.094.017-.065.025-.1.017-.064.023-.1.012-.077.018-.116.009-.054.012-.082a2.038,2.038,0,0,0,.01-.2V87.305a2.045,2.045,0,0,0-2.045-2.045H62.99l-.053,0c-.039,0-.078,0-.116.006l-.092.01c-.035,0-.07.01-.1.016l-.1.02-.1.025-.094.029c-.032.011-.064.022-.1.035l-.088.037c-.032.014-.064.03-.1.046l-.08.043c-.032.018-.063.037-.094.057l-.075.05c-.029.02-.058.042-.086.064l-.076.063c-.025.022-.049.043-.073.066s-.053.053-.079.08-.026.026-.039.04-.013.017-.02.025c-.026.03-.05.061-.074.092s-.035.046-.052.069-.041.062-.061.094-.033.052-.047.078-.032.062-.048.093-.029.057-.042.086-.025.063-.037.094-.024.061-.034.092-.018.063-.027.1-.018.065-.025.1-.011.062-.017.093-.012.071-.016.106-.005.059-.007.089-.005.076-.006.115c0,.011,0,.022,0,.033V99.917a2.045,2.045,0,1,0,4.09,0v-8.07l18.183,16.1a2.065,2.065,0,0,0-.271.226L65.035,126.082v-13.44a2.045,2.045,0,1,0-4.09,0v2.5H50.378a2.045,2.045,0,0,0,0,4.09H60.945V131.02a2.045,2.045,0,0,0,2.045,2.045h64.422c.067,0,.135,0,.2-.01.031,0,.062-.009.092-.013S127.776,133.033,127.811,133.026Zm-2.444-6.943-17.912-17.912c-.011-.011-.024-.021-.035-.032l13.466-11.425a2.045,2.045,0,1,0-2.646-3.119L95.229,113.117,68.385,89.351h56.981v36.732ZM85.839,111.064a2.038,2.038,0,0,0,.357-.481l7.649,6.772a2.045,2.045,0,0,0,2.679.028l7.8-6.614a2.057,2.057,0,0,0,.243.295l17.912,17.912H67.928Z" transform="translate(-35.153)" fill="#707070"/>
    <path id="Path_76" data-name="Path 76" d="M2.045,159.766h34.54a2.045,2.045,0,1,0,0-4.09H2.045a2.045,2.045,0,1,0,0,4.09Z" transform="translate(0 -51.215)" fill="#707070"/>
    <path id="Path_77" data-name="Path 77" d="M15.17,118.435H30.679a2.045,2.045,0,1,0,0-4.09H15.17a2.045,2.045,0,1,0,0,4.09Z" transform="translate(-9.546 -21.154)" fill="#707070"/>
    <path id="Path_78" data-name="Path 78" d="M17.043,226.51h-15a2.045,2.045,0,0,0,0,4.09h15a2.045,2.045,0,0,0,0-4.09Z" transform="translate(0 -102.733)" fill="#707070"/>
  </g>
</svg>
