<svg xmlns="http://www.w3.org/2000/svg" width="11.25" height="8.739" viewBox="0 0 11.25 8.739">
  <g id="friends" transform="translate(0 -57.142)">
    <g id="Group_58" data-name="Group 58" transform="translate(1.36 57.142)">
      <g id="Group_57" data-name="Group 57" transform="translate(0 0)">
        <path id="Path_38" data-name="Path 38" d="M63.926,57.142a2.181,2.181,0,1,0,2.053,2.177A2.12,2.12,0,0,0,63.926,57.142Z" transform="translate(-61.873 -57.142)" fill="#c1c1c1"/>
      </g>
    </g>
    <g id="Group_60" data-name="Group 60" transform="translate(6.32 57.454)">
      <g id="Group_59" data-name="Group 59" transform="translate(0 0)">
        <path id="Path_39" data-name="Path 39" d="M289.4,71.321h-.014a1.7,1.7,0,0,0-1.25.565,1.945,1.945,0,0,0,.022,2.622,1.7,1.7,0,0,0,1.245.544h.014a1.7,1.7,0,0,0,1.25-.565,1.911,1.911,0,0,0,.5-1.315A1.819,1.819,0,0,0,289.4,71.321Z" transform="translate(-287.637 -71.321)" fill="#c1c1c1"/>
      </g>
    </g>
    <g id="Group_62" data-name="Group 62" transform="translate(5.932 61.541)">
      <g id="Group_61" data-name="Group 61" transform="translate(0 0)">
        <path id="Path_40" data-name="Path 40" d="M272.2,257.358h-.171a3.071,3.071,0,0,0-2.066.8,3.965,3.965,0,0,1,1.548,2.941h3.77v-.656A3.085,3.085,0,0,0,272.2,257.358Z" transform="translate(-269.96 -257.358)" fill="#c1c1c1"/>
      </g>
    </g>
    <g id="Group_64" data-name="Group 64" transform="translate(0 62.178)">
      <g id="Group_63" data-name="Group 63" transform="translate(0 0)">
        <path id="Path_41" data-name="Path 41" d="M6.819,289.42a3.31,3.31,0,0,0-3.3-3.1H3.31A3.31,3.31,0,0,0,0,289.628v.393H6.826v-.393Q6.826,289.523,6.819,289.42Z" transform="translate(0 -286.318)" fill="#c1c1c1"/>
      </g>
    </g>
  </g>
</svg>
