<?xml version="1.0" encoding="utf-8"?>
<!-- Generator: Adobe Illustrator 19.0.0, SVG Export Plug-In . SVG Version: 6.00 Build 0)  -->
<svg version="1.1" id="Layer_1" xmlns="http://www.w3.org/2000/svg" xmlns:xlink="http://www.w3.org/1999/xlink" x="0px" y="0px"
	 width="55px" height="52.6px" viewBox="-393 271.7 55 52.6" style="enable-background:new -393 271.7 55 52.6;"
	 xml:space="preserve">
<style type="text/css">
	.st0{fill:#232323;}
</style>
<g id="Group_100" transform="translate(-30 -30)">
	<path id="Path_1_1_" class="st0" d="M-325.4,316.7h-20.2c-1.3,0-2.4,0.9-2.4,2.2c0.1,1.3,1.1,2.3,2.4,2.2h20.2
		c1.3,0,2.4-0.9,2.4-2.2C-323.1,317.6-324.1,316.6-325.4,316.7z"/>
	<path id="Path_2_1_" class="st0" d="M-325.4,325.8h-20.2c-1.2-0.1-2.3,0.8-2.4,2c-0.1,1.2,0.8,2.3,2,2.4c0.1,0,0.3,0,0.4,0h20.2
		c1.2,0.1,2.3-0.8,2.4-2c0.1-1.2-0.8-2.3-2-2.4C-325.2,325.8-325.3,325.8-325.4,325.8z"/>
	<path id="Path_3_1_" class="st0" d="M-325.4,334.8h-20.2c-1.2-0.1-2.3,0.8-2.4,2c-0.1,1.2,0.8,2.3,2,2.4c0.1,0,0.3,0,0.4,0h20.2
		c1.2,0.1,2.3-0.8,2.4-2c0.1-1.2-0.8-2.3-2-2.4C-325.2,334.8-325.3,334.8-325.4,334.8z"/>
</g>
</svg>
