<svg xmlns="http://www.w3.org/2000/svg" width="10.25" height="12.3" viewBox="0 0 10.25 12.3">
  <g id="bell" transform="translate(-2)">
    <path id="Path_36" data-name="Path 36" d="M11.932,8.668a3.433,3.433,0,0,1-1.219-2.627V4.612A3.59,3.59,0,0,0,7.637,1.066V.512a.513.513,0,0,0-1.025,0v.554A3.59,3.59,0,0,0,3.537,4.612V6.041A3.436,3.436,0,0,1,2.314,8.672.9.9,0,0,0,2.9,10.25h8.456a.9.9,0,0,0,.579-1.582Z" fill="#c1c1c1"/>
    <path id="Path_37" data-name="Path 37" d="M10.209,22.537A1.925,1.925,0,0,0,12.092,21H8.326A1.925,1.925,0,0,0,10.209,22.537Z" transform="translate(-3.084 -10.238)" fill="#c1c1c1"/>
  </g>
</svg>
