<svg id="Group_25" data-name="Group 25" xmlns="http://www.w3.org/2000/svg" width="16.177" height="16.176" viewBox="0 0 16.177 16.176">
  <path id="Path_17" data-name="Path 17" d="M9.87,8.1l6.048-6.049a.886.886,0,0,0,0-1.251l-.53-.53a.887.887,0,0,0-1.251,0L8.089,6.322,2.04.274a.887.887,0,0,0-1.251,0L.259.8a.885.885,0,0,0,0,1.251L6.307,8.1.259,14.152a.887.887,0,0,0,0,1.251l.53.53a.887.887,0,0,0,1.251,0L8.089,9.885l6.048,6.048a.878.878,0,0,0,.626.258h0a.878.878,0,0,0,.626-.258l.53-.53a.887.887,0,0,0,0-1.251Z" transform="translate(0 -0.016)" fill="#fff"/>
</svg>
