<svg id="Group_13" data-name="Group 13" xmlns="http://www.w3.org/2000/svg" width="11.25" height="7.91" viewBox="0 0 11.25 7.91">
  <g id="mail" transform="translate(0 0)">
    <g id="Group_6" data-name="Group 6" transform="translate(7.739 0.565)">
      <g id="Group_5" data-name="Group 5" transform="translate(0 0)">
        <path id="Path_6" data-name="Path 6" d="M355.623,101.721l-3.412,3.39,3.412,3.39a.977.977,0,0,0,.1-.424v-5.933A.977.977,0,0,0,355.623,101.721Z" transform="translate(-352.211 -101.721)" fill="#c1c1c1"/>
      </g>
    </g>
    <g id="Group_8" data-name="Group 8" transform="translate(0.565)">
      <g id="Group_7" data-name="Group 7">
        <path id="Path_7" data-name="Path 7" d="M35.417,76H26.145a.977.977,0,0,0-.424.1l4.361,4.339a.99.99,0,0,0,1.4,0L35.841,76.1A.977.977,0,0,0,35.417,76Z" transform="translate(-25.721 -76)" fill="#c1c1c1"/>
      </g>
    </g>
    <g id="Group_10" data-name="Group 10" transform="translate(0 0.565)">
      <g id="Group_9" data-name="Group 9" transform="translate(0 0)">
        <path id="Path_8" data-name="Path 8" d="M.1,101.721a.977.977,0,0,0-.1.424v5.933a.977.977,0,0,0,.1.424l3.412-3.39Z" transform="translate(0 -101.721)" fill="#c1c1c1"/>
      </g>
    </g>
    <g id="Group_12" data-name="Group 12" transform="translate(0.565 4.421)">
      <g id="Group_11" data-name="Group 11">
        <path id="Path_9" data-name="Path 9" d="M32.429,277.211l-.483.483a1.65,1.65,0,0,1-2.33,0l-.483-.483-3.412,3.39a.977.977,0,0,0,.424.1h9.272a.977.977,0,0,0,.424-.1Z" transform="translate(-25.721 -277.211)" fill="#c1c1c1"/>
      </g>
    </g>
  </g>
</svg>
