<svg xmlns="http://www.w3.org/2000/svg" width="15.906" height="8.845" viewBox="0 0 15.906 8.845">
  <g id="analysis-of-business-statistics-in-a-line-graphic-with-points" transform="translate(0 -6.966)">
    <path id="Path_35" data-name="Path 35" d="M15.906,10.762l-.19-.649-2.622.771a.817.817,0,0,0-1.045-.384L10.185,8.179a.842.842,0,1,0-1.339.237L6.532,14.121h0a.781.781,0,0,0-.12.024l-2.46-3.675a.818.818,0,0,0,.158-.463.845.845,0,0,0-1.691,0,.815.815,0,0,0,.132.426L0,13.605l.527.424,2.581-3.207a.778.778,0,0,0,.157.032.821.821,0,0,0,.115-.024l2.462,3.679a.819.819,0,0,0-.154.458A.845.845,0,1,0,7.149,14.4L9.483,8.646a.87.87,0,0,0,.18-.037l1.912,2.381a.838.838,0,1,0,1.573.581Z" fill="#c1c1c1"/>
  </g>
</svg>
