<svg xmlns="http://www.w3.org/2000/svg" width="12.239" height="7.139" viewBox="0 0 12.239 7.139">
  <g id="visibility" transform="translate(0 -106.671)">
    <g id="Group_51" data-name="Group 51" transform="translate(0 106.671)">
      <path id="Path_30" data-name="Path 30" d="M12.194,110.1c-.1-.14-2.413-3.424-6.074-3.424-3.142,0-5.942,3.266-6.059,3.405a.255.255,0,0,0,0,.329c.118.139,2.917,3.405,6.059,3.405s5.942-3.266,6.059-3.405A.256.256,0,0,0,12.194,110.1ZM6.12,112.281a2.04,2.04,0,1,1,2.04-2.04A2.042,2.042,0,0,1,6.12,112.281Z" transform="translate(0 -106.671)" fill="#c1c1c1"/>
    </g>
  </g>
</svg>
