<svg xmlns="http://www.w3.org/2000/svg" width="11.25" height="11.25" viewBox="0 0 11.25 11.25">
  <path id="question" d="M5.625,0A5.625,5.625,0,1,0,11.25,5.625,5.631,5.631,0,0,0,5.625,0Zm0,8.906a.469.469,0,1,1,.469-.469A.469.469,0,0,1,5.625,8.906Zm.742-2.98a.471.471,0,0,0-.273.426v.21a.469.469,0,0,1-.937,0v-.21a1.412,1.412,0,0,1,.818-1.278A1.532,1.532,0,0,0,6.8,3.984a1.172,1.172,0,1,0-2.344,0,.469.469,0,1,1-.938,0,2.109,2.109,0,1,1,4.219,0A2.442,2.442,0,0,1,6.367,5.926Zm0,0" fill="#c1c1c1"/>
</svg>
