<svg xmlns="http://www.w3.org/2000/svg" width="12.239" height="12.239" viewBox="0 0 12.239 12.239">
  <g id="edit" transform="translate(0 -0.004)">
    <g id="Group_54" data-name="Group 54" transform="translate(0 0.878)">
      <g id="Group_53" data-name="Group 53">
        <path id="Path_33" data-name="Path 33" d="M10.054,39.382a.437.437,0,0,0-.437.437v4.371a.437.437,0,0,1-.437.437H1.311a.437.437,0,0,1-.437-.437V35.448a.437.437,0,0,1,.437-.437H6.557a.437.437,0,1,0,0-.874H1.311A1.311,1.311,0,0,0,0,35.448v8.742A1.311,1.311,0,0,0,1.311,45.5H9.179a1.311,1.311,0,0,0,1.311-1.311V39.819A.437.437,0,0,0,10.054,39.382Z" transform="translate(0 -34.137)" fill="#c1c1c1"/>
      </g>
    </g>
    <g id="Group_56" data-name="Group 56" transform="translate(2.623 0.004)">
      <g id="Group_55" data-name="Group 55" transform="translate(0 0)">
        <path id="Path_34" data-name="Path 34" d="M111.535.494a1.673,1.673,0,0,0-2.367,0l-5.758,5.757a.442.442,0,0,0-.105.171l-.874,2.623a.437.437,0,0,0,.414.575.444.444,0,0,0,.138-.022l2.623-.874a.437.437,0,0,0,.171-.106l5.758-5.758A1.673,1.673,0,0,0,111.535.494Z" transform="translate(-102.409 -0.004)" fill="#c1c1c1"/>
      </g>
    </g>
  </g>
</svg>
