<svg xmlns="http://www.w3.org/2000/svg" width="12.802" height="9.001" viewBox="0 0 12.802 9.001">
  <g id="Group_13" data-name="Group 13" transform="translate(0)">
    <g id="mail" transform="translate(0 0)">
      <g id="Group_6" data-name="Group 6" transform="translate(8.807 0.643)">
        <g id="Group_5" data-name="Group 5" transform="translate(0 0)">
          <path id="Path_6" data-name="Path 6" d="M356.094,101.721l-3.883,3.858,3.883,3.858a1.111,1.111,0,0,0,.113-.482V102.2A1.111,1.111,0,0,0,356.094,101.721Z" transform="translate(-352.211 -101.721)" fill="#7e7e7e"/>
        </g>
      </g>
      <g id="Group_8" data-name="Group 8" transform="translate(0.643)">
        <g id="Group_7" data-name="Group 7">
          <path id="Path_7" data-name="Path 7" d="M36.755,76H26.2a1.112,1.112,0,0,0-.482.113l4.962,4.937a1.126,1.126,0,0,0,1.591,0l4.962-4.937A1.112,1.112,0,0,0,36.755,76Z" transform="translate(-25.721 -76)" fill="#7e7e7e"/>
        </g>
      </g>
      <g id="Group_10" data-name="Group 10" transform="translate(0 0.643)">
        <g id="Group_9" data-name="Group 9" transform="translate(0 0)">
          <path id="Path_8" data-name="Path 8" d="M.113,101.721A1.112,1.112,0,0,0,0,102.2v6.751a1.112,1.112,0,0,0,.113.482L4,105.579Z" transform="translate(0 -101.721)" fill="#7e7e7e"/>
        </g>
      </g>
      <g id="Group_12" data-name="Group 12" transform="translate(0.643 5.031)">
        <g id="Group_11" data-name="Group 11">
          <path id="Path_9" data-name="Path 9" d="M33.354,277.211l-.549.549a1.877,1.877,0,0,1-2.652,0l-.549-.549-3.883,3.858a1.112,1.112,0,0,0,.482.113H36.755a1.112,1.112,0,0,0,.482-.113Z" transform="translate(-25.721 -277.211)" fill="#7e7e7e"/>
        </g>
      </g>
    </g>
  </g>
</svg>
