<svg xmlns="http://www.w3.org/2000/svg" width="17.069" height="12.001" viewBox="0 0 17.069 12.001">
  <g id="Group_13" data-name="Group 13" transform="translate(0)">
    <g id="mail" transform="translate(0 0)">
      <g id="Group_6" data-name="Group 6" transform="translate(11.742 0.857)">
        <g id="Group_5" data-name="Group 5" transform="translate(0 0)">
          <path id="Path_6" data-name="Path 6" d="M357.388,101.721l-5.177,5.143,5.177,5.143a1.483,1.483,0,0,0,.15-.643v-9A1.483,1.483,0,0,0,357.388,101.721Z" transform="translate(-352.211 -101.721)" fill="#064faf"/>
        </g>
      </g>
      <g id="Group_8" data-name="Group 8" transform="translate(0.857)">
        <g id="Group_7" data-name="Group 7">
          <path id="Path_7" data-name="Path 7" d="M40.432,76H26.364a1.483,1.483,0,0,0-.643.15l6.616,6.583a1.5,1.5,0,0,0,2.121,0l6.616-6.583A1.483,1.483,0,0,0,40.432,76Z" transform="translate(-25.721 -76)" fill="#064faf"/>
        </g>
      </g>
      <g id="Group_10" data-name="Group 10" transform="translate(0 0.857)">
        <g id="Group_9" data-name="Group 9" transform="translate(0 0)">
          <path id="Path_8" data-name="Path 8" d="M.15,101.721a1.483,1.483,0,0,0-.15.643v9a1.483,1.483,0,0,0,.15.643l5.177-5.143Z" transform="translate(0 -101.721)" fill="#064faf"/>
        </g>
      </g>
      <g id="Group_12" data-name="Group 12" transform="translate(0.857 6.708)">
        <g id="Group_11" data-name="Group 11">
          <path id="Path_9" data-name="Path 9" d="M35.9,277.211l-.733.733a2.5,2.5,0,0,1-3.536,0l-.732-.733-5.177,5.143a1.482,1.482,0,0,0,.643.15H40.432a1.482,1.482,0,0,0,.643-.15Z" transform="translate(-25.721 -277.211)" fill="#064faf"/>
        </g>
      </g>
    </g>
  </g>
</svg>
