<svg xmlns="http://www.w3.org/2000/svg" width="18.782" height="18" viewBox="0 0 18.782 18">
  <g id="paper-plane" transform="translate(0 0)">
    <path id="Path_48" data-name="Path 48" d="M8.75,17.612v3.63a.587.587,0,0,0,1.06.347L11.933,18.7Z" transform="translate(-1.902 -3.829)" fill="#fff"/>
    <path id="Path_49" data-name="Path 49" d="M18.536.109a.587.587,0,0,0-.612-.042L.315,9.262A.587.587,0,0,0,.4,10.338l4.9,1.673L15.717,3.1,7.65,12.817l8.2,2.8a.6.6,0,0,0,.189.031.586.586,0,0,0,.581-.5L18.776.674a.588.588,0,0,0-.24-.565Z" transform="translate(0 0)" fill="#fff"/>
  </g>
</svg>
