<svg xmlns="http://www.w3.org/2000/svg" width="12.016" height="17.475" viewBox="0 0 12.016 17.475">
  <g id="pin" transform="translate(0)">
    <path id="Path_11" data-name="Path 11" d="M91.149,2.992A5.93,5.93,0,0,0,86.11,0c-.089,0-.179,0-.269,0A5.93,5.93,0,0,0,80.8,2.992,6.084,6.084,0,0,0,80.723,9l4.333,7.932.006.011a1.053,1.053,0,0,0,1.827,0l.006-.011L91.229,9a6.084,6.084,0,0,0-.079-6.011ZM85.976,7.918a2.457,2.457,0,1,1,2.457-2.457A2.46,2.46,0,0,1,85.976,7.918Z" transform="translate(-79.968 0)" fill="#064faf"/>
  </g>
</svg>
