<svg xmlns="http://www.w3.org/2000/svg" width="12.725" height="12.725" viewBox="0 0 12.725 12.725">
  <path id="add_plus" data-name="add plus" d="M-191.138,304.5a6.361,6.361,0,0,0-6.362,6.362,6.361,6.361,0,0,0,6.362,6.362,6.361,6.361,0,0,0,6.362-6.362A6.361,6.361,0,0,0-191.138,304.5Zm3.191,7.16h-2.394v2.394a.8.8,0,0,1-.8.8.8.8,0,0,1-.8-.8V311.66h-2.394a.8.8,0,0,1-.8-.8.8.8,0,0,1,.8-.8h2.394v-2.394a.8.8,0,0,1,.8-.8.8.8,0,0,1,.8.8v2.394h2.394a.8.8,0,0,1,.8.8A.8.8,0,0,1-187.946,311.66Z" transform="translate(197.5 -304.5)" fill="#c1c1c1"/>
</svg>
