<svg xmlns="http://www.w3.org/2000/svg" width="21.282" height="21.282" viewBox="0 0 21.282 21.282">
  <g id="share" transform="translate(0)">
    <path id="Path_46" data-name="Path 46" d="M143.779,6.189,138.015.2a.665.665,0,0,0-1.144.462V3.548h-.222A8.656,8.656,0,0,0,128,12.194v1.33a.656.656,0,0,0,.518.636.594.594,0,0,0,.146.018.688.688,0,0,0,.607-.379,7.274,7.274,0,0,1,6.542-4.044h1.053v2.882a.665.665,0,0,0,1.144.461l5.764-5.986a.665.665,0,0,0,0-.923Zm0,0" transform="translate(-122.683 -0.001)" fill="#fff"/>
    <path id="Path_47" data-name="Path 47" d="M18.626,103.075H2.664A2.663,2.663,0,0,1,0,100.415V88a2.663,2.663,0,0,1,2.66-2.66h2.66a.887.887,0,1,1,0,1.773H2.664A.887.887,0,0,0,1.777,88v12.414a.887.887,0,0,0,.887.887H18.626a.887.887,0,0,0,.887-.887V93.321a.887.887,0,1,1,1.774,0v7.094a2.663,2.663,0,0,1-2.66,2.66Zm0,0" transform="translate(-0.004 -81.793)" fill="#fff"/>
  </g>
</svg>
