<svg xmlns="http://www.w3.org/2000/svg" width="29.323" height="23.825" viewBox="0 0 29.323 23.825">
  <path id="twitter" d="M29.323,50.821a12.534,12.534,0,0,1-3.464.949A5.978,5.978,0,0,0,28.5,48.447,12.014,12.014,0,0,1,24.692,49.9a6.011,6.011,0,0,0-10.4,4.111,6.19,6.19,0,0,0,.139,1.371A17.016,17.016,0,0,1,2.042,49.1a6.013,6.013,0,0,0,1.847,8.035,5.937,5.937,0,0,1-2.716-.74v.066a6.039,6.039,0,0,0,4.816,5.907,6,6,0,0,1-1.576.2,5.316,5.316,0,0,1-1.138-.1,6.069,6.069,0,0,0,5.617,4.188A12.079,12.079,0,0,1,1.439,69.21,11.26,11.26,0,0,1,0,69.127a16.924,16.924,0,0,0,9.222,2.7c11.062,0,17.11-9.164,17.11-17.106,0-.266-.009-.522-.022-.777A11.993,11.993,0,0,0,29.323,50.821Z" transform="translate(0 -48)" fill="#232323"/>
</svg>
