<svg xmlns="http://www.w3.org/2000/svg" width="10.391" height="15" viewBox="0 0 10.391 15">
  <g id="user2" transform="translate(-48 -160)">
    <path id="Path_18" data-name="Path 18" d="M99.8,167.206a3.6,3.6,0,1,0-3.6-3.6A3.608,3.608,0,0,0,99.8,167.206Z" transform="translate(-46.641)" fill="#c1c1c1"/>
    <path id="Path_19" data-name="Path 19" d="M56.137,380.5c-.01.01-.023.016-.032.026a.339.339,0,0,1-.036-.026,4.461,4.461,0,0,1-5.737,0,.338.338,0,0,0-.036.026c-.01-.01-.023-.016-.032-.026A5.155,5.155,0,0,0,48,384.766v1.818a1.787,1.787,0,0,0,1.785,1.785h6.821a1.787,1.787,0,0,0,1.785-1.785v-1.818A5.17,5.17,0,0,0,56.137,380.5Z" transform="translate(0 -213.369)" fill="#c1c1c1"/>
  </g>
</svg>
