<svg xmlns="http://www.w3.org/2000/svg" width="17.157" height="17.157" viewBox="0 0 17.157 17.157">
  <g id="world-wide-web" transform="translate(0)">
    <g id="Group_14" data-name="Group 14" transform="translate(0 0)">
      <path id="Path_10" data-name="Path 10" d="M14.644,2.513A8.578,8.578,0,1,0,2.513,14.644,8.578,8.578,0,1,0,14.644,2.513Zm-11.42.712A7.554,7.554,0,0,1,5.829,1.519a7.072,7.072,0,0,0-.718,1.1A9.882,9.882,0,0,0,4.45,4.2a15.5,15.5,0,0,1-1.756-.389A7.721,7.721,0,0,1,3.224,3.224ZM2.085,4.677a15.544,15.544,0,0,0,2.093.5,14.606,14.606,0,0,0-.371,2.9H1.023A7.5,7.5,0,0,1,2.085,4.677ZM2.03,12.386a7.506,7.506,0,0,1-1.007-3.3H3.809A14.591,14.591,0,0,0,4.173,11.9,16.31,16.31,0,0,0,2.03,12.386Zm1.194,1.546a7.7,7.7,0,0,1-.6-.672,16.271,16.271,0,0,1,1.817-.383,9.9,9.9,0,0,0,.668,1.6,6.956,6.956,0,0,0,.788,1.19A7.552,7.552,0,0,1,3.224,13.933Zm4.851,2.089A3.751,3.751,0,0,1,6,14a8.75,8.75,0,0,1-.541-1.26c.829-.091,1.71-.145,2.617-.158Zm0-4.443a28.354,28.354,0,0,0-2.9.185,13.5,13.5,0,0,1-.357-2.682H8.075v2.5Zm0-3.5H4.814a13.518,13.518,0,0,1,.363-2.755,27.94,27.94,0,0,0,2.9.2Zm0-3.558c-.91-.018-1.79-.078-2.612-.174A8.749,8.749,0,0,1,6,3.1,3.751,3.751,0,0,1,8.075,1.077Zm7.028.214a7.506,7.506,0,0,1,1.03,3.344H13.349a14.624,14.624,0,0,0-.364-2.87A16.435,16.435,0,0,0,15.1,4.731ZM13.933,3.224a7.711,7.711,0,0,1,.567.634,16.425,16.425,0,0,1-1.783.372,9.906,9.906,0,0,0-.671-1.606,7.073,7.073,0,0,0-.718-1.1A7.554,7.554,0,0,1,13.933,3.224ZM9.082,9.082h3.259a13.48,13.48,0,0,1-.362,2.7,27.967,27.967,0,0,0-2.9-.2Zm0-1.006V5.527a28.384,28.384,0,0,0,2.9-.183,13.532,13.532,0,0,1,.357,2.731Zm0-7h0A3.751,3.751,0,0,1,11.157,3.1,8.762,8.762,0,0,1,11.7,4.364c-.83.091-1.713.144-2.62.157Zm0,14.944V12.588c.909.018,1.788.077,2.61.173A8.744,8.744,0,0,1,11.157,14,3.751,3.751,0,0,1,9.082,16.021Zm4.851-2.089a7.55,7.55,0,0,1-2.675,1.732,6.956,6.956,0,0,0,.788-1.19,9.878,9.878,0,0,0,.659-1.572,15.481,15.481,0,0,1,1.793.4A7.716,7.716,0,0,1,13.933,13.933Zm1.167-1.5a15.544,15.544,0,0,0-2.122-.5,14.579,14.579,0,0,0,.37-2.848h2.786A7.506,7.506,0,0,1,15.1,12.432Z" transform="translate(0 0)" fill="#064faf"/>
    </g>
  </g>
</svg>
