<svg width="596" height="134" viewBox="0 0 596 134" fill="none" xmlns="http://www.w3.org/2000/svg">
<path d="M311.986 20.4658H293.101C292.31 20.4658 291.634 20.9416 291.319 21.6184L291.292 21.6788C291.198 21.9133 291.144 22.1613 291.144 22.4293V111.564C291.144 112.643 292.016 113.521 293.101 113.521H311.986C313.064 113.521 313.942 112.643 313.942 111.564V22.4226C313.942 21.3437 313.064 20.4658 311.986 20.4658Z" fill="white"/>
<path d="M357.233 61.3574C357.186 61.3574 357.139 61.3574 357.092 61.3507C357.065 61.3507 357.039 61.3574 357.012 61.3574H349.989C348.91 61.3574 348.032 60.4795 348.032 59.3939V29.5595C348.032 29.2915 348.086 29.0435 348.179 28.809L348.206 28.7487C348.514 28.0718 349.191 27.596 349.989 27.596H357.012C357.012 27.596 357.065 27.6027 357.092 27.6027C357.139 27.6027 357.186 27.596 357.233 27.596C366.554 27.596 374.114 35.1552 374.114 44.4767C374.114 53.7983 366.554 61.3574 357.233 61.3574ZM405.891 110.492L405.804 110.378L376.392 70.8666C376.151 70.5382 375.997 70.1361 375.997 69.7006C375.997 69.4325 376.05 69.1846 376.151 68.95L376.178 68.8897C376.412 68.3737 376.861 67.9783 377.404 67.8175C382.215 66.122 385.807 63.9843 388.468 61.726C389.145 61.1362 389.781 60.5197 390.378 59.8831C391.504 58.6769 392.475 57.3969 393.293 56.0566C395.102 52.8936 396.121 49.3888 396.121 45.7031C396.121 45.3881 396.107 45.0731 396.087 44.7582C396.027 43.4782 395.846 42.2184 395.551 40.992C393.635 33.0241 386.96 26.3764 377.927 22.952C377.283 22.7376 376.633 22.5365 375.956 22.3489C372.023 21.2499 367.506 20.6334 362.413 20.4926C361.669 20.4725 360.912 20.4658 360.141 20.4658H327.104C326.313 20.4658 325.636 20.9349 325.321 21.6117L325.294 21.6721C325.2 21.8999 325.147 22.1546 325.147 22.4226V27.9043L325.167 106.075V111.363V111.544C325.167 111.544 325.167 111.55 325.167 111.557C325.167 112.636 326.038 113.514 327.117 113.521H346.062C347.141 113.521 348.012 112.649 348.019 111.571C348.019 111.571 348.019 111.571 348.019 111.557C348.019 111.557 348.019 111.557 348.019 111.544V105.211V73.4198C348.019 73.4198 348.019 73.4198 348.019 73.4131C348.019 73.1518 348.072 72.8971 348.173 72.6626L348.199 72.6022C348.501 71.9321 349.164 71.4697 349.949 71.4563H351.094C351.758 71.4563 352.341 71.7847 352.696 72.2873L372.023 98.3153L377.786 106.082L377.799 106.102L381.914 111.644C381.914 111.644 381.914 111.651 381.921 111.658L382.758 112.783C382.758 112.783 382.819 112.837 382.845 112.871C382.879 112.911 382.919 112.951 382.959 112.991C383.033 113.065 383.113 113.132 383.201 113.192C383.201 113.192 383.207 113.192 383.214 113.192C383.422 113.333 383.65 113.44 383.904 113.48C383.904 113.48 383.918 113.48 383.924 113.48C384.025 113.501 384.132 113.521 384.246 113.521H404.256C405.342 113.521 406.213 112.643 406.213 111.557C406.213 111.168 406.099 110.8 405.898 110.498" fill="white"/>
<path d="M500.193 88.9538L500.038 88.8667L495.629 86.3202L493.364 85.0134L493.257 84.9531C492.962 84.7788 492.62 84.6716 492.258 84.6716C491.575 84.6716 490.972 85.0268 490.623 85.5562C490.616 85.5763 490.603 85.5964 490.59 85.6165C488.633 88.9873 486.16 91.9694 483.285 94.4288C479.666 97.6387 475.424 100.205 470.733 101.907C467.49 103.141 464.032 103.817 460.427 103.817C445.65 103.817 433.193 92.6127 429.272 77.2935C429.272 77.2935 429.272 77.2935 429.279 77.2935C428.689 75.0016 428.294 72.6159 428.106 70.1565C428.086 69.8751 428.066 69.5936 428.053 69.3122C428.039 69.0843 428.026 68.8565 428.019 68.6286C427.999 68.126 427.986 67.6167 427.986 67.1141C427.986 67.0806 427.986 67.0471 427.986 67.0136C427.986 61.6123 429.024 56.4925 430.867 51.8753H430.854C435.94 39.1025 447.265 30.2031 460.427 30.2031C464.032 30.2031 467.497 30.88 470.733 32.113C475.424 33.8219 479.666 36.3885 483.285 39.5917C486.16 42.0511 488.633 45.0332 490.59 48.404C490.603 48.4241 490.616 48.4442 490.623 48.4643C490.972 48.9937 491.568 49.3489 492.258 49.3489C492.62 49.3489 492.962 49.2416 493.257 49.0674L493.364 49.0071L495.629 47.7003L500.038 45.1538L500.193 45.0667C500.702 44.7182 501.037 44.1285 501.037 43.4584C501.037 43.0764 500.923 42.728 500.735 42.4264C500.722 42.3996 500.702 42.3728 500.688 42.346C500.568 42.1516 500.441 41.9573 500.313 41.7697C491.099 27.7438 474.446 18.3619 455.421 18.3619C432.14 18.3619 412.405 32.4012 405.516 51.8351C405.322 52.3846 405.141 52.9475 404.96 53.5037C404.933 53.5975 404.899 53.698 404.873 53.7919C404.705 54.3347 404.544 54.8842 404.404 55.427C404.39 55.5007 404.37 55.5744 404.35 55.6414C404.095 56.6466 403.868 57.6585 403.673 58.6838C403.633 58.8782 403.593 59.0725 403.559 59.2736C403.492 59.6488 403.439 60.0241 403.385 60.3994C403.325 60.7814 403.278 61.1633 403.224 61.5386C403.184 61.867 403.15 62.1953 403.117 62.5237C403.07 62.9928 403.03 63.4619 403.003 63.9377C402.983 64.2057 402.963 64.4671 402.949 64.7351C402.909 65.4857 402.882 66.2429 402.882 67.0002C402.882 67.7575 402.909 68.4812 402.943 69.2183C402.949 69.3859 402.956 69.5534 402.97 69.7142C403.01 70.3911 403.063 71.0612 403.137 71.7313C403.164 71.9592 403.191 72.1803 403.217 72.4082C403.278 72.9041 403.345 73.4 403.419 73.8892C403.479 74.2645 403.539 74.6464 403.606 75.0217C403.68 75.4238 403.76 75.8259 403.841 76.2279C403.914 76.5697 403.981 76.9115 404.062 77.2532C404.176 77.7625 404.303 78.2584 404.437 78.761C410.113 99.9507 430.773 115.665 455.408 115.665C474.433 115.665 491.085 106.29 500.3 92.2575C500.427 92.0699 500.554 91.8756 500.675 91.6812C500.688 91.6544 500.709 91.6276 500.722 91.6008C500.91 91.2993 501.024 90.9508 501.024 90.5688C501.024 89.8987 500.688 89.3157 500.179 88.9605" fill="white"/>
<path d="M280.57 88.9537L280.415 88.8665L276.006 86.32L273.741 85.0133L273.634 84.953C273.339 84.7787 272.997 84.6715 272.635 84.6715C271.952 84.6715 271.355 85.0267 271 85.5628C270.993 85.5829 270.98 85.5963 270.967 85.6164C269.01 88.9872 266.537 91.9693 263.662 94.4287C260.043 97.6386 255.801 100.205 251.111 101.907C247.867 103.14 244.409 103.817 240.804 103.817C226.027 103.817 213.57 92.6126 209.649 77.2933C209.649 77.2933 209.649 77.2933 209.656 77.2933C209.066 75.0015 208.671 72.6158 208.483 70.1564C208.463 69.8749 208.443 69.5935 208.43 69.312C208.416 69.0842 208.403 68.8563 208.396 68.6285C208.376 68.1259 208.363 67.6166 208.363 67.114C208.363 67.0805 208.363 67.047 208.363 67.0135C208.363 61.6122 209.401 56.4924 211.244 51.8751H211.231C216.317 39.1024 227.642 30.203 240.804 30.203C244.409 30.203 247.874 30.8798 251.111 32.1129C255.801 33.8217 260.043 36.3883 263.662 39.5916C266.537 42.051 269.01 45.0331 270.967 48.4039C270.98 48.424 270.993 48.4441 271 48.4642C271.349 48.9936 271.945 49.3487 272.635 49.3487C272.997 49.3487 273.339 49.2415 273.634 49.0673L273.741 49.0003L276.006 47.6935L280.415 45.147L280.57 45.0599C281.079 44.7114 281.414 44.1217 281.414 43.4516C281.414 43.0696 281.3 42.7211 281.112 42.4196C281.099 42.3927 281.079 42.3659 281.066 42.3391C280.945 42.1448 280.818 41.9505 280.69 41.7628C271.476 27.7369 254.823 18.355 235.798 18.355C212.517 18.355 192.782 32.3943 185.893 51.8282C185.699 52.3777 185.518 52.9407 185.337 53.4969C185.31 53.5907 185.277 53.6912 185.25 53.785C185.082 54.3278 184.921 54.8773 184.781 55.4202C184.767 55.4939 184.747 55.5676 184.727 55.6346C184.466 56.6398 184.245 57.6517 184.05 58.677C184.017 58.8713 183.97 59.0657 183.936 59.2667C183.869 59.642 183.822 60.0173 183.762 60.3926C183.702 60.7745 183.655 61.1565 183.601 61.5318C183.561 61.8601 183.528 62.1885 183.494 62.5169C183.447 62.986 183.407 63.4551 183.38 63.9309C183.36 64.1989 183.34 64.4603 183.326 64.7283C183.286 65.4789 183.259 66.2361 183.259 66.9934C183.259 67.7506 183.286 68.4744 183.32 69.2115C183.326 69.379 183.333 69.5466 183.347 69.7074C183.387 70.3842 183.44 71.0544 183.514 71.7245C183.541 71.9524 183.568 72.1735 183.595 72.4014C183.655 72.8972 183.722 73.3931 183.796 73.8823C183.856 74.2576 183.916 74.6396 183.983 75.0149C184.057 75.417 184.137 75.819 184.218 76.2211C184.291 76.5629 184.358 76.9046 184.439 77.2464C184.553 77.7557 184.68 78.2516 184.814 78.7542C190.49 99.9439 211.157 115.658 235.785 115.658C254.81 115.658 271.462 106.283 280.677 92.2507C280.804 92.0631 280.931 91.8687 281.052 91.6744C281.052 91.6744 281.086 91.6141 281.106 91.5873C281.293 91.2857 281.407 90.9373 281.407 90.5553C281.407 89.8851 281.072 89.3021 280.563 88.947" fill="white"/>
<path d="M554.648 79.4779H532.661C531.582 79.4779 530.704 78.6067 530.704 77.5211C530.704 77.2128 530.784 76.9246 530.912 76.6633L541.848 53.2354L541.882 53.1617C541.882 53.1617 541.888 53.1416 541.895 53.1349C542.21 52.4715 542.88 52.0158 543.658 52.0158C544.435 52.0158 545.058 52.4447 545.386 53.0679C545.42 53.1416 545.46 53.2086 545.487 53.2823L556.397 76.6499C556.531 76.9112 556.611 77.2061 556.611 77.5144C556.611 78.6 555.733 79.4712 554.648 79.4712M595.177 110.807L595.151 110.753L594.534 109.419L557.047 27.8842L554.185 21.6587L554.172 21.6319C553.87 20.9417 553.18 20.4525 552.376 20.4525H543.162C542.445 20.4525 541.815 20.8478 541.48 21.4241L541.332 21.7324L498.846 110.713L498.799 110.807C498.712 111.034 498.651 111.282 498.651 111.544C498.651 112.623 499.529 113.501 500.608 113.501H512.402C513.207 113.501 513.89 113.018 514.198 112.328L514.212 112.288L524.967 89.302C524.967 89.302 524.967 89.2886 524.974 89.2819C525.276 88.5984 525.959 88.1159 526.757 88.1092H560.176C560.947 88.1092 561.597 88.5582 561.919 89.2015L569.283 105.265L569.645 106.055L572.493 112.261L572.54 112.361C572.849 113.031 573.525 113.494 574.309 113.494H593.355C594.434 113.494 595.311 112.616 595.311 111.537C595.311 111.276 595.258 111.021 595.164 110.793" fill="white"/>
<path d="M146.938 19.3669C136.853 6.87558 120.448 0 100.752 0C97.2879 0 93.7094 0.221144 90.1108 0.65003C70.1207 3.04241 49.9563 11.8145 33.3236 25.3512C16.4496 39.0822 5.08415 56.2108 1.3247 73.574C-2.02597 89.0407 1.02984 103.623 9.92252 114.633C20.008 127.118 36.4062 134 56.1082 134C59.5728 134 63.1513 133.779 66.7499 133.35C86.74 130.958 106.904 122.186 123.537 108.649C140.411 94.9111 151.777 77.7825 155.536 60.4193C158.887 44.9526 155.831 30.3705 146.938 19.3602V19.3669ZM133.562 27.3348L133.549 27.3683L121.071 54.12C118.578 59.3605 113.23 62.9859 107.045 62.9859C98.4673 62.9859 91.518 56.0366 91.518 47.4589C91.518 43.6458 92.8918 40.1611 95.1703 37.4605C95.3043 37.3064 95.3847 37.1053 95.3847 36.8909C95.3847 36.4017 94.9893 36.013 94.5068 36.013C94.4465 36.013 94.3862 36.0197 94.3192 36.0331C79.583 38.8678 66.1736 52.8066 63.6405 67.2748C60.9867 82.4265 71.347 92.827 86.7869 90.5083C93.7764 89.4562 100.598 85.9782 106.227 81.0862C106.227 81.0862 106.234 81.0795 106.241 81.0728C106.402 80.9187 106.616 80.8249 106.851 80.8249C107.34 80.8249 107.729 81.2202 107.729 81.7027C107.729 81.8569 107.682 82.0043 107.615 82.1316C107.601 82.1584 107.581 82.1852 107.568 82.212C97.9513 98.0272 80.8964 110.552 63.1982 113.212C38.8321 116.878 22.4808 100.466 26.6759 76.5561C30.8709 52.6524 54.0173 30.3035 78.3834 26.6378C80.7423 26.2827 83.0207 26.1218 85.2121 26.1285H132.792C133.261 26.1486 133.636 26.5306 133.636 27.0064C133.636 27.127 133.609 27.2342 133.569 27.3348H133.562Z" fill="white"/>
</svg>
