<svg xmlns="http://www.w3.org/2000/svg" width="1192.419" height="1558.793" viewBox="0 0 1192.419 1558.793">
  <path id="Intersection_1" data-name="Intersection 1" d="M600.872,1903.058l-.019-1.017L595.7,1621a6.058,6.058,0,0,1-2.806-1.094L381.946,1825.655l.739-1.932,6.819-426.754-.208-.041.216-.452.016-1.067.327.349,51.88-108.613L333.109,1126.1a6.073,6.073,0,0,1-.876.4,6.033,6.033,0,1,1,3.942-5.683L508.622,1133.6a6.035,6.035,0,0,1,5.64-4.854L502.8,964.676a6.037,6.037,0,1,1,5.054-2.232l131.574,176.449a6.044,6.044,0,0,1,8.83,2.879l425.545-131.56a6.038,6.038,0,0,1,3.79-7,6.109,6.109,0,0,1,.614-.191l-27.687-160.857a6.038,6.038,0,1,1,4.518-9.279l301.587-162.247q-.073-.167-.138-.34a6.036,6.036,0,0,1,7.432-7.867L1484.492,356.9a6.036,6.036,0,1,1,7.958-7.68,6.106,6.106,0,0,1,.334,1.376l22.716-.3v.942l-22.676.3a6.067,6.067,0,0,1-1.064,3.207l23.739,19.889v1.231l-24.333-20.387a6.009,6.009,0,0,1-2.115,1.437L1515.5,424.29v2.587L1488.147,357.2a6.006,6.006,0,0,1-2.758-.009L1364.8,662.783a6.027,6.027,0,0,1,2.107,1.706l148.6-98.446v1.134l-148.075,98.1a6.322,6.322,0,0,1,.382.833,6.072,6.072,0,0,1,.34,1.434l120.038-3.839a6.038,6.038,0,0,1,7.887-5.333l19.428-37.446v2.05l-18.553,35.758a6.022,6.022,0,0,1,2.921,3.283,6.087,6.087,0,0,1,.326,1.3l15.305-.49v.945l-15.255.488a6.057,6.057,0,0,1-1.672,4.024l16.927,18.947v1.419l-17.632-19.735a6.044,6.044,0,0,1-6.481.533l-30.115,58.045a6.039,6.039,0,0,1,1.282,7.283l52.945,35.4v1.136l-53.449-35.74a6.047,6.047,0,0,1-6.154,2.281l-63.652,122.683a6.045,6.045,0,0,1,2.716,5.667L1515.5,876.871v.947l-120.709-10.68a6.066,6.066,0,0,1-1.487,2.648l93.058,105.652a6.038,6.038,0,0,1,9,2.09l20.134-8.339v1.022l-19.774,8.19a6.015,6.015,0,0,1,.154,3.177l19.62,6.008v.987l-19.9-6.093a6.064,6.064,0,0,1-1.282,1.992l21.18,24.047v1.427l-21.888-24.85a6.041,6.041,0,0,1-9-2.09l-71.073,29.436a6.018,6.018,0,0,1-.214,4.448l102.178,67.261v1.129l-102.634-67.562a6.026,6.026,0,0,1-.963,1.131l75.179,115.323,28.418-32.32v1.432l-27.881,31.711,27.881,42.768v1.729l-28.529-43.762-51.085,58.1a6.054,6.054,0,0,1,1.668,3.51l77.946-2.951v.943l-77.91,2.951a6.051,6.051,0,0,1-.715,2.613l78.626,50.531v1.123l-79.135-50.858a6.017,6.017,0,0,1-2.712,2.01c-.144.054-.289.1-.435.143l54.878,270.016,27.4-42.2v1.734l-26.784,41.245,26.784.788v.944l-27.384-.805-.484.745-.146-.715-369.374,36.153-67.925,177.214.526,7.147-.6-.1-2.462-.43-.555,1.448-.88-.34.488-1.273-174.257-30.47,20,229.316-135.7-128.1L600.872,1903.058Zm-2.351-282.389a6.009,6.009,0,0,1-1.871.374l5.128,279.964L756.06,1765.5l-155.146-146.46A5.987,5.987,0,0,1,598.521,1620.669Zm158.942,144.858L891.3,1891.865l-19.76-226.526Zm-373.1,56.457L592.174,1619.3a6.048,6.048,0,0,1-.841-7.533l-90.011-95.885Zm-.693-.834,116.938-306.034L390.437,1397.756Zm217.824-202.86,155.282,146.587,114.1-100.211-269.012-47.037A6.171,6.171,0,0,1,601.492,1618.289ZM1048,1694.677l1.685.294-.29-3.934Zm-175.021-30.6,174.073,30.436,2.18-5.687-12.037-163.592a6.053,6.053,0,0,1-4.181-1.714Zm170.284-145a6.045,6.045,0,0,1-5.125,6.086l11.89,161.588,67.036-174.9Zm-440.8,96.148a5.973,5.973,0,0,1-.248,1.507l269.248,47.079c-.22-1.426-.538-4.835-1.3-13.009-.806-8.659-1.951-21.032-3.316-35.881-1.512-16.416-3.3-35.861-5.2-56.657Zm260.113-57.164c4.933,53.816,9.054,98.6,9.725,105.357l160.094-140.607a5.949,5.949,0,0,1-.825-1.52c-.042-.114-.082-.229-.116-.344Zm-261.389,53.233a6.074,6.074,0,0,1,1.232,2.974l259.141-56.951c-1.517-16.535-3.107-33.906-4.7-51.277-.626-6.845-1.253-13.694-1.875-20.489l-117.946-22.085ZM501.7,1514.9l90.212,96.1a5.99,5.99,0,0,1,1.638-1.3l-56.726-178.6a6.011,6.011,0,0,1-3.06-.125Zm95.566,94.131a6.184,6.184,0,0,1,.82.176,6.056,6.056,0,0,1,2.46,1.39l135.4-147.337L613.892,1440.4Zm-59.538-178.2,56.691,178.486a6.066,6.066,0,0,1,1.9-.344l16.639-168.741-71.615-13.411A6.023,6.023,0,0,1,537.725,1430.829Zm324.758,126.282,168.761-37.089a5.968,5.968,0,0,1-.023-1.471L855.947,1485.73C858.135,1509.641,860.382,1534.18,862.483,1557.111Zm179.7-41.354a6.068,6.068,0,0,1,.981,2.38l74.271-7.268,31.425-81.991Zm-197.24-162.471a6.092,6.092,0,0,1-1.077.29c1.624,17.778,6.62,72.508,11.988,131.176l175.538,32.87a6.063,6.063,0,0,1,1-2.058l-185.347-163.6A6.025,6.025,0,0,1,844.947,1353.286Zm193.762,160.055.173.047a6.042,6.042,0,0,1,2.71,1.638l107.95-87.916,34.421-89.8-101.593-46.23a6.051,6.051,0,0,1-5.965,3.406ZM848.8,1346.6a6.038,6.038,0,0,1-1.127,4.655l185.348,163.6a6.011,6.011,0,0,1,2.1-1.324,6.152,6.152,0,0,1,.832-.243l-27.619-207.225ZM500.98,1514.135l31.906-83.5a6.037,6.037,0,0,1-3.36-6.086l-138.2-27.221Zm536.8-.955,37.7-218.854a6.026,6.026,0,0,1-4.208-3.763q-.084-.224-.149-.451l-61.858,15.717,27.634,207.334q.163-.009.324-.009Q1037.5,1513.154,1037.779,1513.18Zm112.556-85.5-31.845,83.085,367.578-35.977-252.49-114.9ZM737.79,1462.642l117.1,21.928c-5.361-58.585-10.346-113.182-11.965-130.908a6.053,6.053,0,0,1-3.8-1.287Zm496.6-103.421,252.48,114.894-110.9-230.2ZM1376.725,1243.3l109.924,228.173-54.355-267.444a6.052,6.052,0,0,1-5.107-1.828ZM617.379,1405.037l-3.395,34.423L736.7,1462.439l101.732-110.7a6.005,6.005,0,0,1-1.237-2.014q-.032-.084-.059-.167Zm-75.9,19.164a6,6,0,0,1,.046,1.692l71.527,13.394,3.354-34Zm609.534,1.711,81.606-66.462-47.8-21.749ZM390.67,1396.236,529.7,1423.622a6.056,6.056,0,0,1,2-3.091L442.346,1288.05Zm149.913,25.672a6.125,6.125,0,0,1,.6,1.2q.032.088.062.175l75.254-19,4.315-43.763Zm-2.524-2.179a6.043,6.043,0,0,1,1.947,1.43l80.941-61.921,10.324-104.681L605.377,1243.1Zm-95.241-132.667,89.665,132.932a6.106,6.106,0,0,1,2.078-.745L519.6,1205.167l-31.1-13.755ZM537.174,1419.4l67.339-176.677L520.577,1205.6,535.5,1419.17h.028A6,6,0,0,1,537.174,1419.4Zm84.672-59.661-4.369,44.3,219.423-55.4a6.008,6.008,0,0,1,.256-3.02l-124.737-55.172Zm595.454-106.77-32.138,83.848,48.274,21.968,142.116-115.742-13-26.981ZM621.973,1358.453l89.461-68.44-79.255-35.055Zm225.878-14.212a6.035,6.035,0,0,1,.661,1.288c.019.051.037.1.054.155l159.646-40.564-10.684-80.152ZM713.273,1289.8l124.265,54.962a6.078,6.078,0,0,1,.758-1.1l-79.911-81.273a6.047,6.047,0,0,1-8.58-.541Zm133.415,53.167a6.189,6.189,0,0,1,.576.541l150.121-119.626-10.162-76.246a6.037,6.037,0,0,1-3.387-.825Zm-87.311-88.437a6.14,6.14,0,0,1,.645,1.264,6.033,6.033,0,0,1-.985,5.915l79.929,81.3a6.041,6.041,0,0,1,5.051-1.3l59.374-193.863a6.056,6.056,0,0,1-2.419-1.636Zm85.549,87.431a6.018,6.018,0,0,1,.987.466l137.149-196.157a6.05,6.05,0,0,1-2.182-4.148l-69.394.483a6.038,6.038,0,0,1-7.188,5.492Zm237.89-54.816a6,6,0,0,1-.1,3.054l101.589,46.229,31.878-83.169Zm-84.423-62.859,10.742,80.6,61.8-15.7a6.039,6.039,0,0,1,6.587-6.725l23.444-136.113c-.119-.027-.238-.057-.355-.09a6.075,6.075,0,0,1-2.5-1.432Zm-366.117,29.69,80.011,35.39,36.957-28.272a6.126,6.126,0,0,1-.542-1.106,6.036,6.036,0,0,1,1.227-6.2l-103.4-105.163a6.073,6.073,0,0,1-4.005,1.414Zm446.172,28.654.136.037a6.036,6.036,0,0,1,3.951,3.573l134.059-34.062,32.712-85.347-141.28-24.567a6.045,6.045,0,0,1-6.128,4.219ZM333.894,1125.576l108.313,160.579,45.437-95.124L335.45,1123.716A6.062,6.062,0,0,1,333.894,1125.576Zm424.9,128.208L900.4,1145.453a6.082,6.082,0,0,1-.949-2.767l-250.782,1.745a6.055,6.055,0,0,1-1.464,3.53l103.418,105.186a5.959,5.959,0,0,1,1.642-.92,6.031,6.031,0,0,1,6.529,1.558Zm-153.078-11.561,25.654,11.347,10.219-103.626a5.829,5.829,0,0,1-.644-.152Zm612,9.666,144.42-36.7-15.115-31.375-96.766-16.826Zm145.77-36.064,12.818,26.606,50.288-40.955a6.156,6.156,0,0,1-.694-1.338c-.02-.051-.038-.1-.056-.156Zm-846.849-75.389a6.134,6.134,0,0,1-.6.187l4.466,63.912,84.345,37.307,35.212-92.386a6.051,6.051,0,0,1-3.453-5.432l-116.064-8.595A6.035,6.035,0,0,1,516.637,1140.436Zm476.28,1.6a6.037,6.037,0,0,1-3.927,5.229,5.9,5.9,0,0,1-.831.242l10.087,75.685,99.226-79.07a6.086,6.086,0,0,1-1.182-2.805Zm370.151,72.921,62.54-15.891a5.985,5.985,0,0,1-.062-1.59l-77.384-13.457Zm-874.156-24.394,30.616,13.541-4.424-63.316a6.052,6.052,0,0,1-2.307-.231ZM1292.6,1068.686l55.058,114.286,78.049,13.573a6.09,6.09,0,0,1,1.156-2.3l-133.176-126.3A5.919,5.919,0,0,1,1292.6,1068.686Zm2.852-7.337a6.038,6.038,0,0,1-1.1,5.926l133.159,126.28a6.057,6.057,0,0,1,2.793-1.421l-22.494-171.7a6.045,6.045,0,0,1-5.407-3.382Zm137.763,130.886a6.085,6.085,0,0,1,1.96.972l51.26-58.3-75.28-115.475a6.076,6.076,0,0,1-2.4.928l22.487,171.65q.159-.008.318-.008A6,6,0,0,1,1433.216,1192.235ZM335.831,1122.854l152.22,67.327,23.868-49.968a6.046,6.046,0,0,1-3.409-5.678l-172.4-12.769A6.036,6.036,0,0,1,335.831,1122.854Zm914.768,43.24,95.919,16.68-54.78-113.71a6,6,0,0,1-3.948,0Zm-142.488-27.151a5.97,5.97,0,0,1,.128,2.395l141.411,24.592,37.273-97.243a6,6,0,0,1-2.607-2.723Zm-459.577,3.729a6.073,6.073,0,0,1,.127.815l250.781-1.746a6.039,6.039,0,0,1,10.517-3.6l164.665-125.971a6.065,6.065,0,0,1-.543-1.054ZM505.254,964.309a6.1,6.1,0,0,1-1.511.349l11.467,164.118a6.047,6.047,0,0,1,5.362,5.708l116.106,8.6a6.056,6.056,0,0,1,1.991-3.629L507.193,963.139A6.055,6.055,0,0,1,505.254,964.309Zm405.279,174.579a6.085,6.085,0,0,1,.948,2.767l69.393-.482a6.034,6.034,0,0,1,9.086-4.772l85.9-122.857a6.2,6.2,0,0,1-.659-.628Zm80.2-1.947a6.013,6.013,0,0,1,1.823,2.565,6.1,6.1,0,0,1,.355,1.583l103.318-.719a6.033,6.033,0,0,1,3.939-5.581,5.958,5.958,0,0,1,.68-.207l-20.6-119.692a6.032,6.032,0,0,1-3.614-.807Zm115.079-1.377a5.994,5.994,0,0,1,1.991,2.484l176.171-72.967a6.038,6.038,0,0,1,1-5.4l-86.383-81.921a6.035,6.035,0,0,1-6.684,1.164Zm-.806-.494,86.073-156.6a6,6,0,0,1-2.3-2.816l-103.2,31.905a6.038,6.038,0,0,1-3.794,6.981,6.163,6.163,0,0,1-.608.19l20.6,119.7q.246-.02.491-.02A6.036,6.036,0,0,1,1105.006,1135.07Zm190.064-74.584,106.988-44.312a5.978,5.978,0,0,1-.131-3.065l-201.711-38.1a6.055,6.055,0,0,1-1,2.045l86.39,81.928a6.037,6.037,0,0,1,9.464,1.508Zm-94.972-89.03a6,6,0,0,1,.3,2.618L1402.2,1012.2a6.026,6.026,0,0,1,3.527-3.468c.175-.065.353-.122.529-.168L1388.318,871.6a6.062,6.062,0,0,1-3.917-2.039Zm209.385,37.133a6.028,6.028,0,0,1,3.679,2.985l71.086-29.443a6.036,6.036,0,0,1,1.4-6.071L1392.6,870.413a6.078,6.078,0,0,1-3.326,1.216l17.915,136.76a6.022,6.022,0,0,1,2.3.2Zm-328.138-5.517a6.03,6.03,0,0,1,3.954,3.583l103.2-31.906a6.044,6.044,0,0,1,1.335-5.291L1054,840.64a6.044,6.044,0,0,1-1.949,1.177,5.81,5.81,0,0,1-.607.189l27.687,160.858q.275-.025.549-.025A6.028,6.028,0,0,1,1081.346,1003.073Zm116.359-34.7a5.992,5.992,0,0,1,2.016,2.212L1383.835,868.8a6.1,6.1,0,0,1-.9-2.711l-117.343-10.382a6.036,6.036,0,0,1-7.611,4.805,5.879,5.879,0,0,1-.826-.3ZM1054.651,839.953,1190.512,968.8a6.044,6.044,0,0,1,6.365-.874l59.451-108.167a6.053,6.053,0,0,1-2.724-5.108l-197.691-17.492A6.053,6.053,0,0,1,1054.651,839.953Zm208.3,9.708a6.042,6.042,0,0,1,2.724,5.106l117.257,10.373a6.035,6.035,0,0,1,3.858-5.177l-24.332-185.728a5.986,5.986,0,0,1-1.972-.225,5.921,5.921,0,0,1-.825-.3Zm128.462,10.427,63.565-122.516a6.038,6.038,0,0,1-2.953-8.7l-85.14-56.93a6,6,0,0,1-2.646,1.922,5.858,5.858,0,0,1-.846.246l24.313,185.581a6.008,6.008,0,0,1,3.707.4ZM1055.482,833.72c.049.111.095.224.137.339a6.04,6.04,0,0,1,.378,2.156l197.69,17.491a6.032,6.032,0,0,1,8.438-4.5l96.709-175.954a6.043,6.043,0,0,1-1.764-1.778Zm312.7-165.233a6.054,6.054,0,0,1-.767,2.672l85.162,56.943a6.04,6.04,0,0,1,7.941-1.2l30.074-57.965a6.059,6.059,0,0,1-2.392-4.293Z" transform="translate(-323.581 -344.765)" fill="#0f7562" stroke="rgba(0,0,0,0)" stroke-miterlimit="10" stroke-width="1" opacity="0.2"/>
</svg>
