<svg xmlns="http://www.w3.org/2000/svg" xmlns:xlink="http://www.w3.org/1999/xlink" width="1202" height="919" viewBox="0 0 1202 919">
  <defs>
    <clipPath id="clip-path">
      <rect id="Rectangle_87" data-name="Rectangle 87" width="1202" height="919" transform="translate(0 1079)" fill="#0f7562"/>
    </clipPath>
    <clipPath id="clip-path-2">
      <rect id="Rectangle_86" data-name="Rectangle 86" width="1623.8" height="1841.57" fill="#fff"/>
    </clipPath>
  </defs>
  <g id="bg-space-topleft" transform="translate(0 -1079)" clip-path="url(#clip-path)">
    <g id="Group_159" data-name="Group 159" transform="translate(952.377 3920.768) rotate(-164.991)" opacity="0.38">
      <g id="Group_157" data-name="Group 157" transform="translate(530 1489)">
        <path id="Path_39" data-name="Path 39" d="M496.277,105.517,839.736,2.159,463.572,442.977Zm-.574-.812-.3.092L462.487,444.381l-.143,1.491L841.5,1.551,842.537.33Z" transform="translate(410.348 0.293)" fill="#fff"/>
        <path id="Path_40" data-name="Path 40" d="M328.692,643.617l-.661-.674,254-247.692.27.087L967.03,518.626,612.225,55.133l1.691.751L963.464,211.2l-.383.863L615.226,57.5,969.61,520.446,582.291,396.323Z" transform="translate(291.141 48.933)" fill="#fff"/>
        <path id="Path_41" data-name="Path 41" d="M794.795,727.016l-.415-.955L661.223,419.285,328.34,483.651l-.181-.925L660.838,418.4,581.616,235.884l.866-.376,79.3,182.706,307.244-59.408-.4.842ZM662.172,419.1,794.83,724.73,967.38,360.086Z" transform="translate(291.254 209.023)" fill="#fff"/>
        <path id="Path_42" data-name="Path 42" d="M462.793,646.127l-.145-.3L327.655,366.158l469.21,244.061ZM329.741,368.308,463.354,645.119l330.3-35.5Z" transform="translate(290.807 324.98)" fill="#fff"/>
        <path id="Path_43" data-name="Path 43" d="M412.713,803.063l1.27-1.788,191.691-269.24L165.925,661.451l-.266-.906L608.028,530.357l-.791,1.112L416.024,800.036,938.8,495.083l.476.817Z" transform="translate(147.029 439.406)" fill="#fff"/>
        <path id="Path_44" data-name="Path 44" d="M649.425,993.927,414.53,882.219,165.249,741.271l.649-.425L649.352,424.73l.115-.011,216.019-20.047.089.94-215.9,20.038L167.063,741.21l247.9,140.172L648.3,992.349,606.748,611.493l.936-.1Z" transform="translate(146.665 359.162)" fill="#fff"/>
        <path id="Path_45" data-name="Path 45" d="M264.521,1272.52l-.844-.421,92.72-185.3-205.3,19.387,1.857-1.08L428.42,944.983,358,1085.7l303.158-28.625,290.5-417.354.149-.049,229.315-75.258L820.145,333.327,663.419,489.7l-.666-.666L820.015,332.123l.319.2L1183.31,564.7l-.944.31L952.258,640.522,661.684,1057.98l-.217.023-303.962,28.7Zm161.64-325.135-270.873,157.46L356.9,1085.81Z" transform="translate(134.106 294.772)" fill="#fff"/>
        <path id="Path_46" data-name="Path 46" d="M132.506,1310.11l.183-2.139,36.537-425.119,25.52-299.89.94.081-25.5,299.724,110.576,166.3L678.18,834.225l61.479,167.021-.6.064L280.9,1050.129Zm37.543-425.835-36.235,421.64L280.047,1049.7Zm507.622-48.7L282.932,1048.96l455.422-48.527Z" transform="translate(117.604 517.401)" fill="#fff"/>
        <path id="Path_47" data-name="Path 47" d="M286,951.7,2.642,713.939,184.678,676.03l-61.47-168.91L311.583,650.564,185.937,676.731ZM4.741,714.465,283.91,948.711,185,676.924ZM125.2,509.818l60.414,166.017,123.757-25.771Z" transform="translate(2.345 450.088)" fill="#fff"/>
        <path id="Path_48" data-name="Path 48" d="M399,851.782l.3-1.308L518.778,324.33l.257-.083L817.672,228.18l-146.584-83.9,1.7-.036,436.909-9.015L820,228.424l258.112,147.734-172.529,72.7ZM519.579,325.064,400.513,849.371,905.092,448.035l.061-.025,170.832-71.983L818.78,228.816ZM674.512,145.155,818.888,227.79l284.38-91.48Z" transform="translate(354.126 120.024)" fill="#fff"/>
        <path id="Path_49" data-name="Path 49" d="M706.43,919.672,574.893,666.865,765.24,724.073,805.6,592.048,748.758,301.3l.925-.179L806.571,592.1l-.036.113L766.142,724.344l321.029,96.48-.272.9-321.03-96.479ZM576.762,668.413,706.2,917.19l58.761-192.216Z" transform="translate(510.24 267.258)" fill="#fff"/>
        <rect id="Rectangle_79" data-name="Rectangle 79" width="0.942" height="560.627" transform="translate(5.972 1164.756) rotate(-82.129)" fill="#fff"/>
        <g id="Group_156" data-name="Group 156">
          <g id="Group_155" data-name="Group 155" clip-path="url(#clip-path-2)">
            <path id="Path_50" data-name="Path 50" d="M694.388,1354.32,330.393,1166.04l.436-.838,361.79,187.133-81.768-213.173.106-.042c-.483-.847-1.584-3.667-5.1-12.684-3.162-8.1-7.673-19.679-13.077-33.577-10.814-27.79-25.214-64.85-39.612-101.91C524.371,916.83,495.6,842.7,495.6,842.7l-.064-.162.059-.162L628.9,454.358,222.2,1002.32,73.642,1014.94l.1-.6,48.087-286.379.929.159L74.773,1013.9l146.915-12.482L631.769,448.907l-.989,2.878L496.541,842.523c3.154,8.126,110.415,284.437,115.025,295.906h.013l.153.4Z" transform="translate(65.36 398.423)" fill="#fff"/>
            <path id="Path_51" data-name="Path 51" d="M452.9,1520.52l-.94-.083,58.889-677.023.729.817,304,340.929,379.535-96.851L914.05,859.011l306.066-42.353L857.857,568.721v-.244L848.536,0l211.718,256-.727.6-210-253.925,9.27,565.543,363.87,249.04-306.34,42.391,280.836,229.111-381.9,97.457-.191-.215L511.606,845.676Z" transform="translate(401.136 -0.001)" fill="#fff"/>
            <rect id="Rectangle_80" data-name="Rectangle 80" width="0.945" height="615.262" transform="translate(1430.716 496.244) rotate(-15.663)" fill="#fff"/>
            <path id="Path_52" data-name="Path 52" d="M966.877,383.6l-393.539-7.044.019-.944L966.9,382.656Z" transform="translate(508.86 333.37)" fill="#fff"/>
            <rect id="Rectangle_81" data-name="Rectangle 81" width="369.703" height="0.944" transform="matrix(0.198, -0.98, 0.98, 0.198, 953.135, 627.006)" fill="#fff"/>
            <rect id="Rectangle_82" data-name="Rectangle 82" width="0.945" height="307.735" transform="translate(998.87 404.782) rotate(-57.788)" fill="#fff"/>
            <path id="Path_53" data-name="Path 53" d="M800.06,872.087,535.593,643l305.255,95.4,275.87-247.164L783.3,448.448l.406-.628L985.269,135.648l.793.512L784.9,447.7l333.981,42.87-277.8,248.9-.253-.079L539.632,645.254,800.679,871.375Z" transform="translate(475.36 120.393)" fill="#fff"/>
            <rect id="Rectangle_83" data-name="Rectangle 83" width="214.781" height="0.944" transform="matrix(0.018, -1, 1, 0.018, 560.778, 1240.943)" fill="#fff"/>
            <rect id="Rectangle_84" data-name="Rectangle 84" width="0.944" height="474.43" transform="translate(312.357 1100.487) rotate(-10.366)" fill="#fff"/>
            <rect id="Rectangle_85" data-name="Rectangle 85" width="0.945" height="380.928" transform="translate(642.641 1003.4) rotate(-23.592)" fill="#fff"/>
            <path id="Path_54" data-name="Path 54" d="M416.622,1315.53l-.3-.972-83.784-273.2L75.058,887.8l110.893,411.442-.91.245L73.539,885.8l259.8,154.931.053.174,83.539,272.4L729.946,825.873l.142-.057L1149.48,659.85,704.756,593.634l.142-.932,448.2,66.734-1.635.646L730.576,826.637Z" transform="translate(65.269 526.046)" fill="#fff"/>
            <path id="Path_55" data-name="Path 55" d="M429.508,414.806a6.036,6.036,0,1,1-8.439-1.289,6.036,6.036,0,0,1,8.439,1.289" transform="translate(371.531 365.971)" fill="#fff"/>
            <path id="Path_56" data-name="Path 56" d="M335.908,365.992a6.035,6.035,0,1,1-8.439-1.291,6.035,6.035,0,0,1,8.439,1.291" transform="translate(288.458 322.646)" fill="#fff"/>
            <path id="Path_57" data-name="Path 57" d="M445.4,344.82a6.035,6.035,0,1,1-8.439-1.291,6.035,6.035,0,0,1,8.439,1.291" transform="translate(385.637 303.855)" fill="#fff"/>
            <path id="Path_58" data-name="Path 58" d="M470.369,234.872a6.033,6.033,0,1,1-3.952-2.394,6.036,6.036,0,0,1,3.952,2.394" transform="translate(407.797 206.273)" fill="#fff"/>
            <path id="Path_59" data-name="Path 59" d="M487.571,55.29A6.036,6.036,0,1,1,479.132,54a6.036,6.036,0,0,1,8.439,1.29" transform="translate(423.065 46.888)" fill="#fff"/>
            <path id="Path_60" data-name="Path 60" d="M551.758,139.522a6.036,6.036,0,1,1-8.439-1.289,6.036,6.036,0,0,1,8.439,1.289" transform="translate(480.032 121.646)" fill="#fff"/>
            <path id="Path_61" data-name="Path 61" d="M537.026,213.5a6.036,6.036,0,1,1-8.439-1.287,6.036,6.036,0,0,1,8.439,1.287" transform="translate(466.958 187.306)" fill="#fff"/>
            <path id="Path_62" data-name="Path 62" d="M674.951,300.431a6.036,6.036,0,1,1-8.439-1.287,6.036,6.036,0,0,1,8.439,1.287" transform="translate(589.372 264.46)" fill="#fff"/>
            <path id="Path_63" data-name="Path 63" d="M581.044,375.124a6.035,6.035,0,1,1-8.437-1.289,6.035,6.035,0,0,1,8.437,1.289" transform="translate(506.026 330.753)" fill="#fff"/>
            <path id="Path_64" data-name="Path 64" d="M528.094,253.457a6.036,6.036,0,1,1-8.439-1.285,6.036,6.036,0,0,1,8.439,1.285" transform="translate(459.03 222.77)" fill="#fff"/>
            <path id="Path_65" data-name="Path 65" d="M544.186,404.5a6.035,6.035,0,1,1-8.439-1.291,6.035,6.035,0,0,1,8.439,1.291" transform="translate(473.313 356.827)" fill="#fff"/>
            <path id="Path_66" data-name="Path 66" d="M491.21,446.681a6.036,6.036,0,1,1-8.439-1.289,6.036,6.036,0,0,1,8.439,1.289" transform="translate(426.294 394.262)" fill="#fff"/>
            <path id="Path_67" data-name="Path 67" d="M406.982,513.32a6.036,6.036,0,1,1-8.439-1.287,6.036,6.036,0,0,1,8.439,1.287" transform="translate(351.539 453.406)" fill="#fff"/>
            <path id="Path_68" data-name="Path 68" d="M415.694,592.4a6.036,6.036,0,1,1-8.439-1.289,6.036,6.036,0,0,1,8.439,1.289" transform="translate(359.27 523.594)" fill="#fff"/>
            <path id="Path_69" data-name="Path 69" d="M376.27,449.612a6.035,6.035,0,1,1-8.439-1.289,6.035,6.035,0,0,1,8.439,1.289" transform="translate(324.281 396.863)" fill="#fff"/>
            <path id="Path_70" data-name="Path 70" d="M348.4,530.755a6.036,6.036,0,1,1-8.439-1.291,6.036,6.036,0,0,1,8.439,1.291" transform="translate(299.541 468.88)" fill="#fff"/>
            <path id="Path_71" data-name="Path 71" d="M307.009,542.934a6.036,6.036,0,1,1-8.439-1.287,6.036,6.036,0,0,1,8.439,1.287" transform="translate(262.809 479.691)" fill="#fff"/>
            <path id="Path_72" data-name="Path 72" d="M246.956,623.93a6.036,6.036,0,1,1-8.441-1.287,6.036,6.036,0,0,1,8.441,1.287" transform="translate(209.508 551.578)" fill="#fff"/>
            <path id="Path_73" data-name="Path 73" d="M173.431,582.245a6.036,6.036,0,1,1-8.439-1.287,6.036,6.036,0,0,1,8.439,1.287" transform="translate(144.253 514.581)" fill="#fff"/>
            <path id="Path_74" data-name="Path 74" d="M218.673,828.866a6.035,6.035,0,1,1-8.439-1.289,6.035,6.035,0,0,1,8.439,1.289" transform="translate(184.407 733.466)" fill="#fff"/>
            <path id="Path_75" data-name="Path 75" d="M159.944,741.1a6.036,6.036,0,1,1-8.439-1.289,6.036,6.036,0,0,1,8.439,1.289" transform="translate(132.283 655.569)" fill="#fff"/>
            <path id="Path_76" data-name="Path 76" d="M75.327,508.221a6.036,6.036,0,1,1-8.439-1.287,6.036,6.036,0,0,1,8.439,1.287" transform="translate(57.182 448.882)" fill="#fff"/>
            <path id="Path_77" data-name="Path 77" d="M106.845,596.257a6.035,6.035,0,1,1-8.439-1.291,6.035,6.035,0,0,1,8.439,1.291" transform="translate(85.155 527.016)" fill="#fff"/>
            <path id="Path_78" data-name="Path 78" d="M10.9,616.09a6.036,6.036,0,1,1-8.439-1.29,6.036,6.036,0,0,1,8.439,1.29" transform="translate(0 544.62)" fill="#fff"/>
            <path id="Path_79" data-name="Path 79" d="M305.126,656.709a6.036,6.036,0,1,1-8.439-1.291,6.036,6.036,0,0,1,8.439,1.291" transform="translate(261.136 580.671)" fill="#fff"/>
            <path id="Path_80" data-name="Path 80" d="M429.166,715.7a6.036,6.036,0,1,1-8.439-1.289,6.036,6.036,0,0,1,8.439,1.289" transform="translate(371.228 633.027)" fill="#fff"/>
            <path id="Path_81" data-name="Path 81" d="M583.089,494.561a6.036,6.036,0,1,1-8.439-1.287,6.036,6.036,0,0,1,8.439,1.287" transform="translate(507.841 436.759)" fill="#fff"/>
            <path id="Path_82" data-name="Path 82" d="M683.57,524.88a6.036,6.036,0,1,1-8.439-1.289,6.036,6.036,0,0,1,8.439,1.289" transform="translate(597.021 463.668)" fill="#fff"/>
            <path id="Path_83" data-name="Path 83" d="M704.847,454.215a6.036,6.036,0,1,1-8.439-1.289,6.036,6.036,0,0,1,8.439,1.289" transform="translate(615.906 400.948)" fill="#fff"/>
            <path id="Path_84" data-name="Path 84" d="M789.539,378.856a6.037,6.037,0,1,1-8.441-1.287,6.037,6.037,0,0,1,8.441,1.287" transform="translate(691.071 334.066)" fill="#fff"/>
            <path id="Path_85" data-name="Path 85" d="M586.193,99.207a6.036,6.036,0,1,1-8.439-1.289,6.036,6.036,0,0,1,8.439,1.289" transform="translate(510.596 85.865)" fill="#fff"/>
            <path id="Path_86" data-name="Path 86" d="M512.847,331.483a6.036,6.036,0,1,1-8.439-1.289,6.036,6.036,0,0,1,8.439,1.289" transform="translate(445.498 292.019)" fill="#fff"/>
          </g>
        </g>
      </g>
    </g>
  </g>
</svg>
