<svg xmlns="http://www.w3.org/2000/svg" width="1354.363" height="940.213" viewBox="0 0 1354.363 940.213">
  <path id="Intersection_1" data-name="Intersection 1" d="M1688.255,1235.76a6.057,6.057,0,0,1,.8-1.365l-134.634-174.126a6.043,6.043,0,0,1-8.878-2.724l-423.185,138.968a6.036,6.036,0,0,1-3.667,7.06,6.139,6.139,0,0,1-.61.2l6.082,31.986h-.959l-6.048-31.809a6.043,6.043,0,0,1-6.232-3.684l-102.632,33.7a6,6,0,0,1,.161,1.79H996.4a5.963,5.963,0,0,1,.015-.907l-202.443-34.6a6.028,6.028,0,0,1-3.468,3.528q-.261.1-.526.178l4.731,31.8h-.954l-4.7-31.608a6.043,6.043,0,0,1-6.03-3.081l-70.561,30.678a6.009,6.009,0,0,1-.025,4.01H700.87l.182-.079a6.018,6.018,0,0,1-.209-3.173l-99.289-28.518-26.966,31.771h-1.24l27.209-32.057-84.905-24.388v-.982l85.577,24.58,37.01-43.606L523.59,1033.635a6.058,6.058,0,0,1-4.169,1.434l-3.769,54.742v-13.775l2.828-41.083c-.121-.023-.241-.052-.361-.085a6.063,6.063,0,0,1-2.467-1.332v-9q.127-.114.262-.221l-.262-.363v-1.616l1.046,1.45a6.056,6.056,0,0,1,5.228-.351L589.4,915.444a6.037,6.037,0,0,1-1.872-7.423l-71.877-44.439v-1.107L587.994,907.2a6.038,6.038,0,0,1,7.783-1.967L699.4,739.4l-183.749-2.2v-.942l184.334,2.2.471-.753.157.712L1069.3,695.825l64.822-178.373-.651-7.137.6.095,2.47.387.529-1.457.886.324-.465,1.282,174.762,27.423-24-228.931,137.916,125.715,153.464-139.605h0l.036,1.016,10.052,280.905a6.055,6.055,0,0,1,2.825,1.046l207.329-209.4-.7,1.946.63,426.807.208.038-.208.455,0,1.067-.332-.342L1749.5,908.59l111.419,159.12a6.141,6.141,0,0,1,.868-.42,6.037,6.037,0,1,1-3.841,5.752l-172.643-9.76a6.038,6.038,0,0,1-5.555,4.952l14.326,163.842a6.1,6.1,0,0,1,1.3.2,6.029,6.029,0,0,1,4,3.485Zm-894.208-39.481a5.989,5.989,0,0,1,.185,3.063l202.345,34.578a6.05,6.05,0,0,1,.965-2.063l-87.807-80.407a6.045,6.045,0,0,1-9.489-1.344Zm761.122-136.587,134.533,174a6.087,6.087,0,0,1,3.424-1.578l-14.33-163.893a6.047,6.047,0,0,1-5.46-5.612l-116.24-6.575A6.046,6.046,0,0,1,1555.169,1059.692Zm-549.516,170.6a6.01,6.01,0,0,1,2.344,2.776l102.632-33.7a6.035,6.035,0,0,1,3.672-7.046,5.717,5.717,0,0,1,.6-.2L1092.218,1072.8a6.035,6.035,0,0,1-3.239-.582Zm-403.429-27.1,98.881,28.4a6.048,6.048,0,0,1,1.247-2.013l-63.472-69.575Zm309.035-57.881a6.041,6.041,0,0,1-.905,5.418l87.8,80.4a6.035,6.035,0,0,1,6.664-1.281l83.347-158.119a6,6,0,0,1-2.034-2.449Zm-199.172,85.565,70.548-30.672a6.016,6.016,0,0,1,.137-4.45l-113.306-71.784-29.97,35.31,63.553,69.665a6.034,6.034,0,0,1,9.038,1.932Zm409.414-36.311a6.1,6.1,0,0,1,.561,1.044L1545.25,1056.65a5.936,5.936,0,0,1-.141-.813L1294.4,1061.96a6.039,6.039,0,0,1-10.453,3.785Zm-327.817.836,106.164-46.157a6.036,6.036,0,0,1,.994-5.944L765.5,1019.37a6.078,6.078,0,0,1-2.768,1.47l25.486,171.282h.089A6.043,6.043,0,0,1,793.684,1195.408Zm-123.6-72.157,113.132,71.673a5.98,5.98,0,0,1,.943-1.148l-77.18-113.994Zm450.162,69.965a6.111,6.111,0,0,1,.67.616l162.442-128.827a6.08,6.08,0,0,1-1-2.751l-69.374,1.694a6.034,6.034,0,0,1-9,4.929Zm-412.634-114.18,77.284,114.143a6.052,6.052,0,0,1,2.383-.969L761.8,1020.979a5.991,5.991,0,0,1-1.977-.191,6.063,6.063,0,0,1-1.976-.938ZM1119.46,1192.69l83.741-124.338a6.026,6.026,0,0,1-1.867-2.533,6.09,6.09,0,0,1-.383-1.577l-103.289,2.523a6.034,6.034,0,0,1-3.842,5.648,5.887,5.887,0,0,1-.675.219l22.687,119.315a6.025,6.025,0,0,1,3.627.743Zm-595.2-159.721,114.6,125.613,29.806-35.116-143.9-91.168A6.091,6.091,0,0,1,524.258,1032.969Zm383.992,108.8a6.012,6.012,0,0,1,2.654,2.678l174.9-76.045a6,6,0,0,1-.169-2.393l-141.818-22.119ZM766.138,1018.672,901.5,1142.626a5.907,5.907,0,0,1,1.074-.76l-57.044-113.308-78.275-12.208A6.078,6.078,0,0,1,766.138,1018.672Zm137.29,122.8a5.994,5.994,0,0,1,3.947-.07l35.491-97.664-96.2-15Zm-377.74-113a6.034,6.034,0,0,1-.486,2.987l144.074,91.276,37.15-43.77-39.483-58.315Zm142.354-7.882,39.019,57.629,50.063-58.984a6.054,6.054,0,0,1-1.729-3.48Zm1013.845,36.13a6.05,6.05,0,0,1,3.508,5.618L1858,1072.1a6.01,6.01,0,0,1,.255-1.093l-153.372-64.66Zm23.384-51.234,153.347,64.649a6.052,6.052,0,0,1,1.523-1.887l-111.1-158.664Zm-608.917,57.547a6.083,6.083,0,0,1,1.229,2.785l103.346-2.524a6.044,6.044,0,0,1,4.661-5.554l-11.406-75.5ZM975.365,957.079l-31.217,85.9,141.687,22.1a6.043,6.043,0,0,1,6.053-4.325l21.071-136.536-.138-.035a6.031,6.031,0,0,1-4.012-3.5ZM1210.709,1058.9a6.049,6.049,0,0,1,2.255,4.109l69.375-1.694a6.039,6.039,0,0,1,7.091-5.617l55.98-194.87a6.025,6.025,0,0,1-1-.449Zm-117.886,1.977c.121.025.239.053.357.085a6.066,6.066,0,0,1,2.528,1.388l98.311-81.185-12.147-80.405-61.514,16.779a6.04,6.04,0,0,1-6.468,6.839Zm460.779-11.154a6.051,6.051,0,0,1,3.548,5.371l116.2,6.568a6.035,6.035,0,0,1,3.819-5.074,5.772,5.772,0,0,1,.6-.2l-5.581-63.824L1587.2,956.733Zm-260.228,8.547a6.058,6.058,0,0,1,1,2.75l250.713-6.121a6.055,6.055,0,0,1,1.4-3.555L1441.25,947.975a5.975,5.975,0,0,1-1.626.949,6.037,6.037,0,0,1-6.554-1.444Zm-83.449.1,133.7-198.52a6.035,6.035,0,0,1-.585-.531l-148.01,122.228,11.491,76.057q.216-.016.431-.016A6.046,6.046,0,0,1,1209.926,1058.368Zm80.415-2.435a6.05,6.05,0,0,1,2.448,1.593l139.682-110.778a6.121,6.121,0,0,1-.667-1.252,6.037,6.037,0,0,1,.882-5.932l-81.336-79.888a6.038,6.038,0,0,1-5.027,1.388Zm390.66.464,23.009-50.415-30.847-13.005,5.527,63.23a6,6,0,0,1,2.311.19ZM1442.489,940.009a6.058,6.058,0,0,1-.558,7.313l105.218,103.343a6.075,6.075,0,0,1,3.979-1.483l8.434-104.1L1478.946,911.1Zm109.58,109.249a6.1,6.1,0,0,1,.646.14l33.61-93.031-25.848-10.9ZM830.49,996.594l15.66,31.106,97.045,15.135,31.053-85.451Zm-307.714,27.261a6.061,6.061,0,0,1,2.749,3.685l140.8-7.795L595.976,915.84a6.183,6.183,0,0,1-.789.375,6.026,6.026,0,0,1-4.985-.273Zm244.534-10.028a5.992,5.992,0,0,1,.089,1.589l77.607,12.1-15.443-30.674ZM596.758,915.31l70.668,104.376,87.917-4.868a6.045,6.045,0,0,1,.67-2.625L597.731,914.33A6,6,0,0,1,596.758,915.31Zm169.526,96.125a6.138,6.138,0,0,1,.717,1.327c.021.051.04.1.058.154l62.071-16.929-13.28-26.378Zm-169.7-105.7a6.039,6.039,0,0,1,1.676,7.808l158.253,97.845a6.005,6.005,0,0,1,2.676-2.057q.215-.084.432-.15L700.035,740.164Zm166.355,103.388a6.056,6.056,0,0,1,2.741,1.591l49.738-41.973-113.89-226.22,59.014,266.455a5.932,5.932,0,0,1,.838-.059A6.029,6.029,0,0,1,762.935,1009.123ZM1655.5,777.809a5.9,5.9,0,0,1-1.125.318l18.692,213.788,31.333,13.209,44.012-96.431-91.972-131.347A6.039,6.039,0,0,1,1655.5,777.809ZM816.59,968.982l13.467,26.75L974.644,956.3l30.669-84.4-48.65-21.121Zm770.927-13.136,84.57,35.654L1653.44,778.221a5.954,5.954,0,0,1-1.677-.2ZM1182.79,900.5l12.081,79.953L1342.445,858.59a6.042,6.042,0,0,1-.684-1.276c-.02-.051-.039-.1-.058-.154ZM816.153,968.117,955.7,850.358,701.253,739.887Zm159.608-12.126,132.752-36.209a5.987,5.987,0,0,1,.05-3.055l-102.38-44.449Zm593.292-116.355-8.5,104.845,26.089,11,64.225-177.773a6.04,6.04,0,0,1-1.971-1.395Zm-89.266,70.792,79.855,33.666,8.4-103.657Zm-37.874,28.831,36.04-28.581-125.205-52.785a6.088,6.088,0,0,1-.739,1.111l81.317,79.866a6.037,6.037,0,0,1,8.588.39ZM1115.726,912.47a6.029,6.029,0,0,1,4.273,3.69c.058.148.11.3.156.447l61.574-16.794-31.248-206.82a5.916,5.916,0,0,1-.884,0ZM1039.353,781l-32.848,90.39,102.384,44.45a6.048,6.048,0,0,1,5.9-3.509l33.87-219.484-.173-.043a6.053,6.053,0,0,1-2.739-1.59Zm313.964,73a6.026,6.026,0,0,1-.2,3.025l125.681,52.986,89.349-70.86,3.6-44.372Zm303.892-77.206,91.66,130.9,49.779-109.071-139.489-24.955A6.05,6.05,0,0,1,1657.21,776.794Zm-504.967-84.2a6.271,6.271,0,0,1-.828.258l31.232,206.71,158.806-43.314a6.038,6.038,0,0,1,1.046-4.674l-188.176-160.34A6.02,6.02,0,0,1,1152.243,692.593ZM957.469,850.1l48.168,20.912,32.266-88.789Zm394.265.832a6.008,6.008,0,0,1,1.274,1.992c.022.056.042.111.062.167l218.751-59.308,2.793-34.478L1451.519,738.47Zm-196.8-160.417,188.175,160.342a6.089,6.089,0,0,1,3.153-1.669c-1.932-17.747-7.884-72.381-14.275-130.946l-176.084-29.8A6.061,6.061,0,0,1,1154.934,690.514ZM1351.027,850.3l99.4-112.018L1332.955,718.4c6.382,58.482,12.319,112.984,14.247,130.679l.183,0A6.055,6.055,0,0,1,1351.027,850.3ZM702.046,739.2,956.5,849.68l82.047-69.236,30.39-83.628Zm870.662,55.312-3.551,43.832,79.153-62.774a6.114,6.114,0,0,1-.626-1.193c-.023-.059-.044-.116-.065-.175Zm83.146-27.8a6.036,6.036,0,0,1,3.465,6.026l138.65,24.8L1686.3,682.668Zm30.8-85.03,112.2,115.419-.621-423.446ZM1572.789,793.518l74.585-20.223a6.006,6.006,0,0,1-.076-1.69l-71.75-12.143Zm-502.8-96.825L1040,779.22l105.144-88.728a6.053,6.053,0,0,1-.72-1.327,5.98,5.98,0,0,1-.3-1.034ZM1589.317,589.51l-13.693,169.006,71.838,12.159a6.024,6.024,0,0,1,3.55-4.073l-59.8-177.469A6.06,6.06,0,0,1,1589.317,589.51Zm65.655,176.873,30.6-84.466-91.876-94.51a5.994,5.994,0,0,1-1.615,1.327l59.835,177.578a5.989,5.989,0,0,1,3.061.071Zm-202.714-28.744,122.432,20.72,13.684-168.89a6.209,6.209,0,0,1-.823-.16,6.072,6.072,0,0,1-2.484-1.346Zm-127.234-91.85c1.8,16.506,3.7,33.846,5.592,51.186.746,6.834,1.492,13.671,2.232,20.454l118.314,20.023,133.253-150.178a6.078,6.078,0,0,1-1.284-2.951Zm-169.012,40.249a5.968,5.968,0,0,1,.049,1.47l175.82,29.758c-2.6-23.869-5.279-48.365-7.781-71.256ZM1070.35,695.7l73.664-8.51a6.042,6.042,0,0,1,3.84-5.847,6.105,6.105,0,0,1,1.177-.328l-14.708-161.355Zm84.468-12.433a5.977,5.977,0,0,1,.852,1.507c.044.113.085.227.121.342L1324,645.061c-5.872-53.721-10.774-98.426-11.562-105.17Zm-.634-.7,157.558-143.329-174.578-27.394-2.081,5.725,14.89,163.358h.076A6.049,6.049,0,0,1,1154.183,682.572Zm439.1-103.458a6.046,6.046,0,0,1,.972,7.517l91.671,94.3,111.6-308.1Zm-278.492-26.648c.958,8.644,2.318,21,3.941,35.818,1.8,16.387,3.921,35.8,6.191,56.557l258.15-61.475a6.04,6.04,0,0,1,.222-1.512l-270.029-42.372C1313.51,540.9,1313.888,544.307,1314.789,552.466Zm-.956-13.849,269.792,42.334a5.925,5.925,0,0,1,.358-.667L1426.166,436.429Zm113.036-102.828,157.678,143.729a6.075,6.075,0,0,1,4.23-2.073l-10.013-279.831Zm-113.71,102.165,112.307-102.163L1289.448,311.808Zm-178.276-22.591,1.33-3.664-1.689-.264Z" transform="translate(-515.652 -295.548)" fill="#0f7562" opacity="0.2"/>
</svg>
