<svg xmlns="http://www.w3.org/2000/svg" width="23.197" height="23.195" viewBox="0 0 23.197 23.195">
  <g id="cancel" transform="translate(0 -0.016)">
    <g id="Group_259" data-name="Group 259" transform="translate(0 0.016)">
      <path id="Path_190" data-name="Path 190" d="M14.153,11.614,22.826,2.94a1.271,1.271,0,0,0,0-1.794l-.76-.76a1.272,1.272,0,0,0-1.794,0L11.6,9.059,2.925.386a1.271,1.271,0,0,0-1.794,0l-.76.76a1.27,1.27,0,0,0,0,1.794l8.673,8.673L.371,20.287a1.272,1.272,0,0,0,0,1.794l.76.76a1.271,1.271,0,0,0,1.794,0L11.6,14.168l8.673,8.673a1.259,1.259,0,0,0,.9.37h0a1.259,1.259,0,0,0,.9-.37l.76-.76a1.272,1.272,0,0,0,0-1.794Z" transform="translate(0 -0.016)" fill="#fff"/>
    </g>
  </g>
</svg>
