<svg xmlns="http://www.w3.org/2000/svg" width="25" height="22.59" viewBox="0 0 25 22.59">
  <g id="Group_222" data-name="Group 222" transform="translate(-320 -33)">
    <path id="Path_1" data-name="Path 1" d="M22.581,6H2.419A2.331,2.331,0,0,0,0,8.214a2.331,2.331,0,0,0,2.419,2.214H22.581A2.331,2.331,0,0,0,25,8.214,2.331,2.331,0,0,0,22.581,6Z" transform="translate(320 27.002)" fill="#0f7562"/>
    <path id="Path_2" data-name="Path 2" d="M22.581,50H2.419a2.223,2.223,0,1,0,0,4.429H22.581a2.223,2.223,0,1,0,0-4.429Z" transform="translate(320 -7.918)" fill="#0f7562"/>
    <path id="Path_3" data-name="Path 3" d="M22.581,94H2.419a2.223,2.223,0,1,0,0,4.429H22.581a2.223,2.223,0,1,0,0-4.429Z" transform="translate(320 -42.848)" fill="#0f7562"/>
  </g>
</svg>
