<svg width="61" height="61" viewBox="0 0 61 61" fill="none" xmlns="http://www.w3.org/2000/svg">
<g clip-path="url(#clip0_76_526)">
<path d="M4.42259 29.0405C21.5266 29.0405 38.6282 29.0381 55.7299 29.0429C58.8037 29.0429 58.6048 29.2194 58.6751 26.1795C58.7043 24.9291 58.253 24.3294 57.1394 23.8215C48.9513 20.0899 40.7996 16.2833 32.6212 12.5299C31.8012 12.1526 31.4033 11.756 31.4397 10.7596C31.5343 8.18395 31.4688 5.60107 31.4761 3.02303C31.4761 2.67961 31.5222 2.33619 31.544 2.02422H40.1154V5.84775H32.9803V7.75347C35.729 7.75347 38.3905 7.76315 41.0519 7.74864C41.8768 7.7438 42.1558 7.22867 42.1509 6.47171C42.1412 4.81992 42.1146 3.16571 42.1607 1.51393C42.1898 0.428054 41.7555 -0.00968144 40.6565 0.0024107C37.4637 0.0386871 34.2685 0.043524 31.0734 -7.72977e-06C29.9137 -0.0169367 29.494 0.442565 29.5109 1.57923C29.5546 4.60226 29.4867 7.6253 29.5498 10.6459C29.5692 11.6133 29.295 12.126 28.3804 12.542C20.4519 16.1623 12.5743 19.8916 4.61911 23.4466C2.88929 24.2205 2.12022 25.096 2.31188 27.0308C2.50597 28.9752 2.40407 29.0381 4.42259 29.0381V29.0405ZM5.20137 25.3524C13.3046 21.6401 21.3908 17.8891 29.4697 14.1212C30.1927 13.7826 30.7798 13.7633 31.5125 14.1043C39.589 17.8746 47.6752 21.6256 55.7808 25.3354C56.613 25.7151 56.875 26.165 56.5984 27.0404H4.41289C4.10962 26.1771 4.37164 25.7296 5.20137 25.35V25.3524Z" fill="black"/>
<path d="M59.7015 59.0725C59.4565 58.9323 59.0708 59.0242 58.7481 59.0242C39.9215 59.0242 21.0974 59.0242 2.27079 59.0242C1.94811 59.0242 1.54781 58.9202 1.31975 59.0701C0.965542 59.3023 0.548251 59.6892 0.499729 60.052C0.465764 60.3108 0.953411 60.7364 1.29792 60.9105C1.58905 61.0581 2.00877 60.9613 2.37268 60.9613C11.7447 60.9613 21.1168 60.9613 30.4888 60.9613C39.8609 60.9613 49.2329 60.9613 58.6049 60.9613C58.9689 60.9613 59.4031 61.0726 59.6773 60.9129C60.0363 60.7025 60.4512 60.2987 60.4973 59.9335C60.5288 59.6747 60.0412 59.266 59.6991 59.0701L59.7015 59.0725Z" fill="black"/>
<path d="M8.76318 50.1461C7.21048 51.1062 7.04065 52.5186 7.28811 54.1099H9.10284C9.19827 52.554 10.0231 51.7761 11.5775 51.7761C12.5867 51.7761 13.596 51.793 14.6052 51.7713C15.5078 51.7519 15.9736 52.134 15.9445 53.0603C15.9323 53.4086 15.9445 53.7568 15.9445 54.1172H17.8223C18.0527 52.4678 17.832 51.082 16.3351 50.1461C16.1264 50.0155 15.9663 49.6406 15.9639 49.377C15.942 44.5474 15.9396 39.7178 15.9639 34.8858C15.9639 34.5908 16.1507 34.1772 16.3836 34.0249C17.8635 33.0647 18.0479 31.6838 17.8101 30.0731H15.9833C15.9663 30.3295 15.9469 30.523 15.942 30.7164C15.8959 32.3054 15.7795 32.419 14.1807 32.4239C13.2927 32.4263 12.4048 32.4239 11.5168 32.4239C10.032 32.4239 9.23142 31.6943 9.11497 30.2352C9.11012 30.1723 9.02278 30.1143 8.98153 30.0659H7.26385C7.07462 31.6741 7.20805 33.072 8.71466 34.02C8.94999 34.1675 9.1271 34.5908 9.12953 34.8882C9.15379 39.7178 9.15379 44.5474 9.12953 49.3794C9.12953 49.6431 8.96698 50.0203 8.76076 50.1509L8.76318 50.1461ZM11.182 34.4166H13.9381V49.7785H11.182V34.4166Z" fill="#EE3124"/>
<path d="M26.6968 50.1461C25.1441 51.1062 24.9742 52.5186 25.2217 54.1099H27.0364C27.1319 52.554 27.9567 51.7761 29.5111 51.7761C30.5203 51.7761 31.5296 51.793 32.5388 51.7713C33.4413 51.7519 33.9072 52.134 33.878 53.0603C33.8659 53.4086 33.878 53.7568 33.878 54.1172H35.7559C35.9863 52.4678 35.7656 51.082 34.2687 50.1461C34.06 50.0155 33.8999 49.6406 33.8975 49.377C33.8756 44.5474 33.8732 39.7178 33.8975 34.8858C33.8975 34.5908 34.0843 34.1772 34.3172 34.0249C35.7971 33.0647 35.9815 31.6838 35.7437 30.0731H33.9169C33.8999 30.3295 33.8805 30.523 33.8756 30.7164C33.8295 32.3054 33.7131 32.419 32.1143 32.4239C31.2263 32.4263 30.3384 32.4239 29.4504 32.4239C27.9656 32.4239 27.165 31.6943 27.0486 30.2352C27.0437 30.1723 26.9564 30.1143 26.9151 30.0659H25.1974C25.0082 31.6741 25.1416 33.072 26.6483 34.02C26.8836 34.1675 27.0607 34.5908 27.0631 34.8882C27.0874 39.7178 27.0874 44.5474 27.0631 49.3794C27.0631 49.6431 26.9006 50.0203 26.6944 50.1509L26.6968 50.1461ZM29.1156 34.4166H31.8717V49.7785H29.1156V34.4166Z" fill="#EE3124"/>
<path d="M44.5649 50.1461C43.0122 51.1062 42.8424 52.5186 43.0899 54.1099H44.9046C45 52.554 45.8249 51.7761 47.3792 51.7761C48.3885 51.7761 49.3977 51.793 50.407 51.7713C51.3095 51.7519 51.7753 52.134 51.7462 53.0603C51.7341 53.4086 51.7462 53.7568 51.7462 54.1172H53.624C53.8545 52.4678 53.6337 51.082 52.1368 50.1461C51.9282 50.0155 51.768 49.6406 51.7656 49.377C51.7438 44.5474 51.7414 39.7178 51.7656 34.8858C51.7656 34.5908 51.9524 34.1772 52.1853 34.0249C53.6653 33.0647 53.8496 31.6838 53.6119 30.0731H51.785C51.768 30.3295 51.7486 30.523 51.7438 30.7164C51.6977 32.3054 51.5812 32.419 49.9824 32.4239C49.0945 32.4263 48.2065 32.4239 47.3186 32.4239C45.8338 32.4239 45.0332 31.6943 44.9167 30.2352C44.9119 30.1723 44.8245 30.1143 44.7833 30.0659H43.0656C42.8764 31.6741 43.0098 33.072 44.5164 34.02C44.7517 34.1675 44.9289 34.5908 44.9313 34.8882C44.9555 39.7178 44.9555 44.5474 44.9313 49.3794C44.9313 49.6431 44.7687 50.0203 44.5625 50.1509L44.5649 50.1461ZM46.9838 34.4166H49.7398V49.7785H46.9838V34.4166Z" fill="#EE3124"/>
<path d="M4.21898 55.203C3.86477 55.4352 3.44748 55.8221 3.40381 56.1849C3.37227 56.4437 3.85749 56.8693 4.202 57.0434C4.49313 57.191 4.91284 57.0918 5.27676 57.0918C13.642 57.0918 22.0072 57.0918 30.3724 57.0918C38.7376 57.0918 47.2654 57.0918 55.7106 57.0918C56.0745 57.0918 56.5088 57.2031 56.783 57.0434C57.142 56.833 57.5545 56.4267 57.5981 56.064C57.6297 55.8028 57.142 55.3965 56.7999 55.2006C56.5549 55.0603 56.1692 55.1547 55.8465 55.1547C38.9535 55.1547 22.063 55.1547 5.17001 55.1547C4.84734 55.1547 4.44703 55.0507 4.21898 55.2006V55.203Z" fill="black"/>
<path d="M30.4433 25.1686C32.6025 25.1976 34.3808 23.4491 34.3784 21.2967C34.3784 19.1926 32.6656 17.4635 30.5549 17.4345C28.4441 17.4054 26.6779 19.0887 26.6197 21.1854C26.5591 23.3378 28.2889 25.1396 30.4433 25.171V25.1686ZM28.5703 21.1758C28.6382 20.1383 29.5553 19.3232 30.5937 19.3765C31.6345 19.4297 32.4666 20.3293 32.4302 21.3644C32.3914 22.4503 31.4258 23.3112 30.3438 23.2217C29.303 23.1347 28.4999 22.2108 28.5679 21.1758H28.5703Z" fill="black"/>
</g>
<defs>
<clipPath id="clip0_76_526">
<rect width="60" height="61" fill="white" transform="translate(0.5)"/>
</clipPath>
</defs>
</svg>
