<svg width="24" height="24" viewBox="0 0 24 24" fill="none" xmlns="http://www.w3.org/2000/svg">
<path fill-rule="evenodd" clip-rule="evenodd" d="M3.34961 5.7367C3.34961 4.43372 4.40589 3.37744 5.70887 3.37744H8.40516C8.96359 3.37744 9.41628 3.83013 9.41628 4.38855C9.41628 4.94697 8.96359 5.39966 8.40516 5.39966H5.70887C5.52273 5.39966 5.37183 5.55056 5.37183 5.7367V8.433C5.37183 8.99142 4.91914 9.44411 4.36072 9.44411C3.8023 9.44411 3.34961 8.99142 3.34961 8.433V5.7367Z" fill="white"/>
<path fill-rule="evenodd" clip-rule="evenodd" d="M3.34961 17.8702C3.34961 19.1732 4.40589 20.2295 5.70887 20.2295H8.40516C8.96359 20.2295 9.41628 19.7768 9.41628 19.2184C9.41628 18.66 8.96359 18.2073 8.40516 18.2073H5.70887C5.52273 18.2073 5.37183 18.0564 5.37183 17.8702V15.1739C5.37183 14.6155 4.91914 14.1628 4.36072 14.1628C3.8023 14.1628 3.34961 14.6155 3.34961 15.1739V17.8702Z" fill="white"/>
<path fill-rule="evenodd" clip-rule="evenodd" d="M20.2012 5.7367C20.2012 4.43372 19.1449 3.37744 17.8419 3.37744H15.1456C14.5872 3.37744 14.1345 3.83013 14.1345 4.38855C14.1345 4.94697 14.5872 5.39966 15.1456 5.39966H17.8419C18.0281 5.39966 18.1789 5.55056 18.1789 5.7367V8.433C18.1789 8.99142 18.6316 9.44411 19.1901 9.44411C19.7485 9.44411 20.2012 8.99142 20.2012 8.433V5.7367Z" fill="white"/>
<path fill-rule="evenodd" clip-rule="evenodd" d="M20.2012 17.8702C20.2012 19.1732 19.1449 20.2295 17.8419 20.2295H15.1456C14.5872 20.2295 14.1345 19.7768 14.1345 19.2184C14.1345 18.66 14.5872 18.2073 15.1456 18.2073H17.8419C18.0281 18.2073 18.1789 18.0564 18.1789 17.8702V15.1739C18.1789 14.6155 18.6316 14.1628 19.1901 14.1628C19.7485 14.1628 20.2012 14.6155 20.2012 15.1739V17.8702Z" fill="white"/>
</svg>
