<svg width="61" height="60" viewBox="0 0 61 60" fill="none" xmlns="http://www.w3.org/2000/svg">
<g clip-path="url(#clip0_74_490)">
<path d="M53.4104 58.1235H51.1165V56.7461C51.1165 51.3181 51.1165 45.8902 51.1165 40.4623C51.1165 40.1109 51.218 39.6986 51.067 39.4245C50.89 39.1036 50.4911 38.7147 50.1843 38.71C49.8776 38.7053 49.4646 39.0825 49.2828 39.3964C49.1271 39.6634 49.2262 40.0804 49.2262 40.4318C49.2262 45.8996 49.2262 51.365 49.2262 56.8327V58.0603H43.7724V56.7531C43.7724 52.4192 43.7771 48.0829 43.7724 43.749C43.77 41.2213 42.5759 40.0523 40.0035 40.0453C37.4076 40.0383 34.8116 40.0383 32.2157 40.0453C29.7637 40.0523 28.671 41.1229 28.6663 43.5288C28.6569 47.9424 28.664 52.3536 28.664 56.7672V58.0392H5.82436V35.6388C7.06569 35.3623 8.24567 35.2874 9.23921 34.8235C10.2634 34.3456 11.1083 33.4882 12.0593 32.7761C13.3432 34.3691 14.9644 35.4162 17.1498 35.4186C19.3209 35.4209 20.9139 34.3222 22.2449 32.7456C25.8934 36.8921 30.3206 35.7372 32.6027 32.6332C32.867 32.926 33.1148 33.2165 33.3791 33.4952C35.3615 35.5732 38.3893 36.0159 40.8153 34.5916C41.4218 34.2355 42.0402 33.8185 41.6106 33.0337C41.1599 32.2138 40.5227 32.5886 39.8997 32.9377C37.4571 34.3035 34.4576 33.1485 33.7638 30.4896C33.4971 29.4682 33.6128 28.3484 33.5467 27.1349C34.6913 27.1349 35.6659 27.1443 36.6382 27.1326C37.2731 27.1256 37.856 26.985 37.8796 26.2002C37.9079 25.3288 37.2849 25.2093 36.6028 25.2069C35.5597 25.2023 34.519 25.2069 33.4617 25.2069C32.9496 21.9155 32.4635 18.8068 31.9891 15.7661C32.1284 15.6583 32.1567 15.6161 32.1897 15.6138C32.8717 15.5271 33.6246 15.4615 33.5042 14.5127C33.3862 13.5968 32.6098 13.6834 31.9396 13.6764C29.1973 13.6483 26.455 13.6014 23.7128 13.6061C19.7811 13.6108 15.8471 13.6483 11.9154 13.6834C10.5277 13.6952 9.46576 14.2668 8.61618 15.4053C6.6291 18.0736 4.66798 20.7723 2.49919 23.2907C0.995899 25.0383 0.365792 26.8468 0.549868 29.1285C0.719785 31.2112 1.40889 32.9377 3.09861 34.1676C3.70748 34.6103 3.82548 35.0765 3.82312 35.7419C3.80896 42.8096 3.81368 49.8774 3.81368 56.9452V58.0439H0.93218C0.415351 58.0439 0 58.4585 0 58.9716V59.0512C0 59.5549 0.415351 59.9625 0.922741 59.9625H0.93218C17.3362 59.9625 35.6282 60 52.0322 60H53.4128C53.9367 60 54.3615 59.576 54.3567 59.0559C54.3544 58.5405 53.9319 58.1235 53.4128 58.1235H53.4104ZM19.6914 32.6402C18.2755 33.7108 16.732 33.8888 15.1627 33.0314C12.8405 31.764 12.7036 29.6135 12.9396 27.1959H21.1876C21.4165 29.2386 21.5794 31.2135 19.6914 32.6402ZM24.8668 15.5693C26.4503 15.5693 27.9654 15.5412 29.4758 15.5997C29.6905 15.6068 30.0304 16.0027 30.0752 16.258C30.5732 19.1676 31.0239 22.0818 31.5148 25.1577H23.3942C23.8851 21.9647 24.3641 18.842 24.8668 15.5716V15.5693ZM23.347 27.2076H31.5502C31.8051 29.3956 31.7791 31.429 29.7448 32.8065C28.3123 33.7764 26.7996 33.8302 25.3057 32.9564C23.0473 31.6352 23.0827 29.5034 23.3446 27.2076H23.347ZM18.2707 15.5857C19.7504 15.5482 21.2301 15.5669 22.8632 15.5669C22.3487 18.8584 21.8579 21.9952 21.367 25.1296H13.506C14.9267 22.0069 16.2837 19.0059 17.6713 16.0144C17.7633 15.8153 18.0654 15.5904 18.2755 15.5833L18.2707 15.5857ZM8.6091 18.4671C10.1446 16.4634 12.1852 15.4951 14.7308 15.5622C14.9574 15.5693 15.1839 15.6021 15.6488 15.6466C14.2045 18.7881 12.8452 21.7632 11.4599 24.7244C11.3632 24.9282 11.0729 25.1741 10.8699 25.1788C8.48874 25.2093 6.10519 25.1999 3.46677 25.1999C5.29573 22.8057 6.95005 20.6364 8.6091 18.4695V18.4671ZM2.55819 27.1959H10.8959C11.1342 29.2574 11.1578 31.244 9.26753 32.6659C7.89875 33.6967 6.39311 33.8748 4.85914 33.0712C2.47087 31.8226 2.31039 29.651 2.56055 27.1959H2.55819ZM41.8702 58.0579H30.5519C30.5519 56.2518 30.5519 54.5088 30.5519 52.7636C30.5519 49.683 30.5448 46.6024 30.5566 43.5218C30.5614 42.2029 30.8257 41.9382 32.1472 41.9335C34.8588 41.9218 37.5681 41.9405 40.2796 41.9265C41.2118 41.9218 41.8537 42.2896 41.8584 43.2524C41.8844 48.1579 41.8702 53.0634 41.8702 58.0603V58.0579Z" fill="black"/>
<path d="M60.8232 10.4857C59.6621 4.191 53.4979 -0.501332 47.001 0.0421632C40.4687 0.590344 35.3122 6.08855 35.1328 12.5754C35.3688 13.756 35.4962 14.9695 35.8597 16.1104C38.0757 23.0376 41.6534 29.3253 45.3372 35.5474C46.6022 37.6839 49.7551 37.5808 51.0578 35.3764C54.5528 29.4518 57.9205 23.4546 60.1766 16.9233C60.9011 14.829 61.2362 12.7183 60.8232 10.4857ZM59.0721 12.826C58.9778 14.7212 58.4184 16.7078 57.5972 18.432C55.0673 23.7428 52.3321 28.9575 49.6205 34.1793C48.9338 35.5005 47.5627 35.5474 46.8311 34.3011C43.4139 28.4773 40.0155 22.637 37.8609 16.1994C37.4574 14.993 37.2804 13.7139 36.9995 12.4676C37.2591 6.56176 42.2905 1.80384 48.3061 1.89286C54.1847 1.98188 59.353 7.09355 59.0721 12.826Z" fill="#EE3124"/>
<path d="M21.9858 40.5232C20.3361 40.4998 18.6865 40.5185 17.0369 40.5185C15.3873 40.5185 13.7377 40.5021 12.0881 40.5232C10.2332 40.549 9.12874 41.6032 9.10514 43.407C9.07682 45.6677 9.07446 47.9307 9.10514 50.1913C9.12874 51.8921 10.186 53.0025 11.8922 53.0259C15.3095 53.0728 18.729 53.0728 22.1462 53.0259C23.8855 53.0025 24.9121 51.9319 24.9357 50.2077C24.9687 47.9471 24.964 45.6841 24.9357 43.4234C24.9144 41.5891 23.8454 40.5466 21.9858 40.5209V40.5232ZM23.0572 49.9805C23.0666 50.8356 22.6725 51.1705 21.8442 51.1682C18.6228 51.1565 15.4015 51.1588 12.1802 51.1682C11.3424 51.1682 10.9742 50.791 10.9813 49.9547C11.0002 47.8487 11.0049 45.7426 10.9813 43.6389C10.9719 42.737 11.3778 42.3762 12.2651 42.3926C13.8746 42.4184 15.4864 42.3997 17.0959 42.3997C18.6275 42.3997 20.1615 42.4254 21.6908 42.3879C22.6182 42.3645 23.0737 42.6808 23.0572 43.6647C23.0218 45.7707 23.0288 47.8768 23.0524 49.9805H23.0572Z" fill="black"/>
<path d="M39.5083 43.7935C37.3112 43.8076 35.1141 43.8052 32.9146 43.7935C32.0485 43.7888 31.737 44.2293 31.7512 45.0375C31.7724 46.2838 31.7866 47.5324 31.7465 48.7763C31.7158 49.7579 32.2137 50.0953 33.1176 50.0812C34.1371 50.0671 35.1589 50.0789 36.1784 50.0765C37.2782 50.0765 38.3756 50.0789 39.4753 50.0742C40.2376 50.0695 40.6435 49.6853 40.6482 48.9239C40.6553 47.6003 40.6553 46.2744 40.6482 44.9508C40.6435 44.2152 40.3225 43.7888 39.5107 43.7935H39.5083ZM36.7495 48.1977C35.7466 48.1977 34.7412 48.1977 33.6958 48.1977V45.7707H38.6139V48.2001L36.7495 48.1977Z" fill="black"/>
<path d="M48.2016 4.4932C43.6044 4.48618 39.8781 8.17351 39.8663 12.7417C39.8521 17.3028 43.5667 21.0042 48.1733 21.0206C52.7587 21.037 56.5039 17.3333 56.5133 12.7721C56.5228 8.21334 52.7964 4.50023 48.204 4.4932H48.2016ZM48.1733 19.1324C44.7254 19.1231 41.7967 16.2252 41.766 12.7932C41.7353 9.30735 44.6829 6.36498 48.1945 6.3767C51.6802 6.38841 54.6608 9.38466 54.6136 12.826C54.5664 16.2486 51.6117 19.1418 48.1709 19.1324H48.1733Z" fill="#EE3124"/>
<path d="M32.7066 53.7779C33.2371 53.7779 33.6671 53.351 33.6671 52.8245C33.6671 52.2979 33.2371 51.871 32.7066 51.871C32.1761 51.871 31.7461 52.2979 31.7461 52.8245C31.7461 53.351 32.1761 53.7779 32.7066 53.7779Z" fill="black"/>
</g>
<defs>
<clipPath id="clip0_74_490">
<rect width="61" height="60" fill="white"/>
</clipPath>
</defs>
</svg>
