<svg width="24" height="24" viewBox="0 0 24 24" fill="none" xmlns="http://www.w3.org/2000/svg">
<g clip-path="url(#clip0_191_927)">
<path d="M14.3775 0.77986L15.771 1.79986C16.0005 1.96786 16.2675 2.07886 16.548 2.12236L18.255 2.38486C19.0996 2.5147 19.8808 2.91052 20.4851 3.51477C21.0893 4.11903 21.4851 4.90024 21.615 5.74486L21.876 7.45336C21.9195 7.73386 22.0305 8.00086 22.1985 8.23036L23.2185 9.62236C23.7249 10.3116 23.998 11.1446 23.998 11.9999C23.998 12.8552 23.7249 13.6881 23.2185 14.3774L22.1985 15.7694C22.0298 15.9985 21.9191 16.2651 21.876 16.5464L21.6135 18.2534C21.4838 19.0985 21.0879 19.8802 20.4834 20.4847C19.8788 21.0893 19.0971 21.4852 18.252 21.6149L16.545 21.8774C16.2637 21.9203 15.997 22.031 15.768 22.1999L14.376 23.2199C13.6867 23.7263 12.8538 23.9994 11.9985 23.9994C11.1432 23.9994 10.3102 23.7263 9.62098 23.2199L8.22898 22.1999C7.99984 22.0312 7.73323 21.9205 7.45198 21.8774L5.74498 21.6149C4.90036 21.485 4.11915 21.0892 3.51489 20.4849C2.91064 19.8807 2.51483 19.0995 2.38498 18.2549L2.12248 16.5479C2.07957 16.2665 1.96889 15.9999 1.79998 15.7709L0.779982 14.3789C0.273581 13.6896 0.000488281 12.8567 0.000488281 12.0014C0.000488281 11.1461 0.273581 10.3131 0.779982 9.62386L1.79998 8.23186C1.96798 8.00236 2.07898 7.73536 2.12248 7.45486L2.38498 5.74486C2.51483 4.90024 2.91064 4.11903 3.51489 3.51477C4.11915 2.91052 4.90036 2.5147 5.74498 2.38486L7.45348 2.12236C7.73398 2.07886 8.00098 1.96786 8.23048 1.79986L9.62248 0.77986C10.3117 0.273459 11.1447 0.000366211 12 0.000366211C12.8553 0.000366211 13.6882 0.273459 14.3775 0.77986ZM10.9545 2.59186L9.56398 3.61186C9.04202 3.99596 8.43464 4.24767 7.79398 4.34536L6.08848 4.60636C5.71623 4.66335 5.37189 4.83768 5.1056 5.10397C4.83931 5.37026 4.66497 5.71461 4.60798 6.08686L4.34698 7.79086C4.24888 8.4314 3.99722 9.03869 3.61348 9.56086L2.59348 10.9529C2.37142 11.2562 2.25171 11.6224 2.25171 11.9984C2.25171 12.3743 2.37142 12.7405 2.59348 13.0439L3.61348 14.4344C3.99748 14.9564 4.24948 15.5639 4.34698 16.2044L4.60798 17.9099C4.72498 18.6734 5.32498 19.2734 6.08848 19.3904L7.79248 19.6514C8.43314 19.7491 9.04052 20.0008 9.56248 20.3849L10.9545 21.4049C11.5755 21.8624 12.423 21.8624 13.0455 21.4049L14.436 20.3849C14.9579 20.0008 15.5653 19.7491 16.206 19.6514L17.9115 19.3904C18.2836 19.3331 18.6279 19.1587 18.8941 18.8925C19.1604 18.6262 19.3348 18.282 19.392 17.9099L19.653 16.2059C19.7507 15.5652 20.0024 14.9578 20.3865 14.4359L21.4065 13.0439C21.6294 12.7409 21.7497 12.3745 21.7497 11.9984C21.7497 11.6222 21.6294 11.2558 21.4065 10.9529L20.3865 9.56236C20.0032 9.03992 19.7516 8.43276 19.653 7.79236L19.392 6.08686C19.335 5.71461 19.1607 5.37026 18.8944 5.10397C18.6281 4.83768 18.2837 4.66335 17.9115 4.60636L16.2075 4.34536C15.5669 4.24726 14.9597 3.9956 14.4375 3.61186L13.0455 2.59186C12.7425 2.3689 12.3762 2.24864 12 2.24864C11.6238 2.24864 11.2575 2.3689 10.9545 2.59186ZM16.92 10.1699L11.295 15.7949C11.084 16.0055 10.7981 16.1239 10.5 16.1239C10.2019 16.1239 9.91592 16.0055 9.70498 15.7949L7.07998 13.1699C6.88137 12.9565 6.77321 12.6744 6.77825 12.3829C6.78328 12.0914 6.90112 11.8133 7.10698 11.6069C7.31339 11.401 7.59156 11.2832 7.88304 11.2781C8.17451 11.2731 8.45659 11.3812 8.66998 11.5799L10.5 13.4099L15.33 8.57986C15.5434 8.38125 15.8255 8.27309 16.1169 8.27813C16.4084 8.28316 16.6866 8.401 16.893 8.60686C17.0988 8.81327 17.2167 9.09144 17.2217 9.38292C17.2267 9.67439 17.1186 9.95647 16.92 10.1699Z" fill="#EE3124"/>
</g>
<defs>
<clipPath id="clip0_191_927">
<rect width="24" height="24" fill="white"/>
</clipPath>
</defs>
</svg>
