<svg width="24" height="24" viewBox="0 0 24 24" fill="none" xmlns="http://www.w3.org/2000/svg">
<path fill-rule="evenodd" clip-rule="evenodd" d="M9.06066 5.64645C9.15443 5.55268 9.28161 5.5 9.41421 5.5H11.5H12H12.5H14.5858C14.7184 5.5 14.8456 5.55268 14.9393 5.64645L15.8536 6.56066C16.1349 6.84196 16.5164 7 16.9142 7H19.5C19.7761 7 20 7.22386 20 7.5V17.5C20 17.7761 19.7761 18 19.5 18H12H4.5C4.22386 18 4 17.7761 4 17.5V7.5C4 7.22386 4.22386 7 4.5 7H7.08579C7.48361 7 7.86514 6.84196 8.14645 6.56066L9.06066 5.64645ZM4.5 19H12H19.5C20.3284 19 21 18.3284 21 17.5V7.5C21 6.67157 20.3284 6 19.5 6H16.9142C16.7816 6 16.6544 5.94732 16.5607 5.85355L15.6464 4.93934C15.3651 4.65804 14.9836 4.5 14.5858 4.5H12.5H12H11.5H9.41421C9.01639 4.5 8.63486 4.65804 8.35355 4.93934L7.43934 5.85355C7.34557 5.94732 7.21839 6 7.08579 6H4.5C3.67157 6 3 6.67157 3 7.5V17.5C3 18.3284 3.67157 19 4.5 19ZM9.5 12C9.5 10.6193 10.6193 9.5 12 9.5C13.3807 9.5 14.5 10.6193 14.5 12C14.5 13.3807 13.3807 14.5 12 14.5C10.6193 14.5 9.5 13.3807 9.5 12ZM12 15.5C10.067 15.5 8.5 13.933 8.5 12C8.5 10.067 10.067 8.5 12 8.5C13.933 8.5 15.5 10.067 15.5 12C15.5 13.933 13.933 15.5 12 15.5Z" fill="#D0542D"/>
</svg>
