<svg width="24" height="24" viewBox="0 0 24 24" fill="none" xmlns="http://www.w3.org/2000/svg">
<path fill-rule="evenodd" clip-rule="evenodd" d="M4.5 7C4.5 6.72386 4.72386 6.5 5 6.5H19C19.2761 6.5 19.5 6.72386 19.5 7V10C19.5 10.2761 19.2761 10.5 19 10.5C18.5651 10.5 18.0559 10.5078 17.6539 10.7008C17.4668 10.7906 17.313 10.9169 17.2018 11.1016C17.0893 11.2886 17 11.5697 17 12C17 12.4303 17.0893 12.7114 17.2018 12.8984C17.313 13.0831 17.4668 13.2094 17.6539 13.2992C18.0559 13.4922 18.5651 13.5 19 13.5C19.2761 13.5 19.5 13.7239 19.5 14V17C19.5 17.2761 19.2761 17.5 19 17.5H5C4.72386 17.5 4.5 17.2761 4.5 17V14C4.5 13.7239 4.72386 13.5 5 13.5C5.43495 13.5 5.94411 13.4922 6.34613 13.2992C6.53322 13.2094 6.687 13.0831 6.79817 12.8984C6.91075 12.7114 7 12.4303 7 12C7 11.561 6.91765 11.2751 6.81292 11.0866C6.71112 10.9033 6.57198 10.7825 6.40139 10.6972C6.02585 10.5094 5.52645 10.5 5 10.5C4.72386 10.5 4.5 10.2761 4.5 10V7ZM5.5 7.50012V9.50679C5.92033 9.52425 6.41489 9.58593 6.84861 9.80279C7.17802 9.96749 7.47638 10.2217 7.68708 10.6009C7.89485 10.9749 8 11.439 8 12C8 12.5697 7.88092 13.0386 7.65496 13.4141C7.42758 13.7919 7.11261 14.0406 6.77887 14.2008C6.35388 14.4048 5.88421 14.4698 5.5 14.4904V16.5H13.5V7.5L5.5 7.50012ZM14.5 7.5V16.5H18.5V14.4904C18.1158 14.4698 17.6461 14.4048 17.2211 14.2008C16.8874 14.0406 16.5724 13.7919 16.345 13.4141C16.1191 13.0386 16 12.5697 16 12C16 11.4303 16.1191 10.9614 16.345 10.5859C16.5724 10.2081 16.8874 9.95944 17.2211 9.79924C17.6461 9.59524 18.1158 9.53023 18.5 9.50956V7.5H14.5Z" fill="#D0542D"/>
</svg>
