<svg width="24" height="24" viewBox="0 0 24 24" fill="none" xmlns="http://www.w3.org/2000/svg">
<path fill-rule="evenodd" clip-rule="evenodd" d="M12.1004 4.69995C13.6468 4.69995 14.9004 5.95355 14.9004 7.49995C14.9004 9.04635 13.6468 10.3 12.1004 10.3V11.3C14.1991 11.3 15.9004 9.59863 15.9004 7.49995C15.9004 5.40127 14.1991 3.69995 12.1004 3.69995V4.69995ZM9.2998 7.49995C9.2998 5.95355 10.5534 4.69995 12.0998 4.69995V3.69995C10.0011 3.69995 8.2998 5.40127 8.2998 7.49995C8.2998 9.59863 10.0011 11.3 12.0998 11.3V10.3C10.5534 10.3 9.2998 9.04635 9.2998 7.49995ZM12.1 12.5C10.965 12.5 9.25288 12.6685 7.80564 13.1896C6.39515 13.6973 5 14.6371 5 16.3V19.5H12.1V18.5H6V16.3C6 15.3229 6.80484 14.6127 8.14436 14.1304C9.44712 13.6615 11.035 13.5 12.1 13.5V12.5ZM12.1002 12.5C13.2352 12.5 14.9473 12.6685 16.3946 13.1896C17.805 13.6973 19.2002 14.6371 19.2002 16.3V19.5H12.1002V18.5H18.2002V16.3C18.2002 15.3229 17.3954 14.6127 16.0558 14.1304C14.7531 13.6615 13.1652 13.5 12.1002 13.5V12.5Z" fill="#296EBB"/>
</svg>
