<svg width="24" height="24" viewBox="0 0 24 24" fill="none" xmlns="http://www.w3.org/2000/svg">
<path fill-rule="evenodd" clip-rule="evenodd" d="M6.85735 5.14282H17.1431C17.5977 5.14282 18.0338 5.32343 18.3552 5.64492C18.6767 5.96642 18.8574 6.40245 18.8574 6.85711V17.1428C18.8574 17.5975 18.6767 18.0335 18.3552 18.355C18.0338 18.6765 17.5977 18.8571 17.1431 18.8571H6.85735C6.4027 18.8571 5.96666 18.6765 5.64517 18.355C5.32368 18.0335 5.14307 17.5975 5.14307 17.1428V6.85711C5.14307 6.40245 5.32368 5.96642 5.64517 5.64492C5.96666 5.32343 6.4027 5.14282 6.85735 5.14282V5.14282Z" stroke="#D0542D" stroke-linecap="round" stroke-linejoin="round"/>
<path d="M5.14307 8.57129H18.8574" stroke="#D0542D" stroke-linecap="round" stroke-linejoin="round"/>
<path d="M12.0002 12.8571C12.4736 12.8571 12.8574 12.4734 12.8574 12C12.8574 11.5266 12.4736 11.1428 12.0002 11.1428C11.5268 11.1428 11.1431 11.5266 11.1431 12C11.1431 12.4734 11.5268 12.8571 12.0002 12.8571Z" fill="#D0542D"/>
<path d="M8.5715 12.8571C9.04489 12.8571 9.42864 12.4734 9.42864 12C9.42864 11.5266 9.04489 11.1428 8.5715 11.1428C8.09811 11.1428 7.71436 11.5266 7.71436 12C7.71436 12.4734 8.09811 12.8571 8.5715 12.8571Z" fill="#D0542D"/>
<path d="M15.4284 12.8571C15.9018 12.8571 16.2856 12.4734 16.2856 12C16.2856 11.5266 15.9018 11.1428 15.4284 11.1428C14.955 11.1428 14.5713 11.5266 14.5713 12C14.5713 12.4734 14.955 12.8571 15.4284 12.8571Z" fill="#D0542D"/>
<path d="M12.0002 16.2856C12.4736 16.2856 12.8574 15.9018 12.8574 15.4284C12.8574 14.955 12.4736 14.5713 12.0002 14.5713C11.5268 14.5713 11.1431 14.955 11.1431 15.4284C11.1431 15.9018 11.5268 16.2856 12.0002 16.2856Z" fill="#D0542D"/>
<path d="M8.5715 16.2856C9.04489 16.2856 9.42864 15.9018 9.42864 15.4284C9.42864 14.955 9.04489 14.5713 8.5715 14.5713C8.09811 14.5713 7.71436 14.955 7.71436 15.4284C7.71436 15.9018 8.09811 16.2856 8.5715 16.2856Z" fill="#D0542D"/>
<path d="M15.4284 16.2856C15.9018 16.2856 16.2856 15.9018 16.2856 15.4284C16.2856 14.955 15.9018 14.5713 15.4284 14.5713C14.955 14.5713 14.5713 14.955 14.5713 15.4284C14.5713 15.9018 14.955 16.2856 15.4284 16.2856Z" fill="#D0542D"/>
<path fill-rule="evenodd" clip-rule="evenodd" d="M4.64258 6.85711V8.57129V17.1428C4.64258 17.7301 4.87587 18.2933 5.29113 18.7086C5.70639 19.1238 6.2696 19.3571 6.85686 19.3571H17.1426C17.7298 19.3571 18.2931 19.1238 18.7083 18.7086C19.1236 18.2933 19.3569 17.7301 19.3569 17.1428V8.57129V6.85711C19.3569 6.26984 19.1236 5.70663 18.7083 5.29137C18.2931 4.87611 17.7298 4.64282 17.1426 4.64282H6.85686C6.2696 4.64282 5.70639 4.87611 5.29113 5.29137C4.87587 5.70663 4.64258 6.26984 4.64258 6.85711ZM18.3569 17.1428V9.07129H5.64258V17.1428C5.64258 17.4649 5.77051 17.7737 5.99823 18.0014C6.22596 18.2292 6.53482 18.3571 6.85686 18.3571H17.1426C17.4646 18.3571 17.7735 18.2292 18.0012 18.0014C18.2289 17.7737 18.3569 17.4649 18.3569 17.1428ZM12.8569 12C12.8569 12.4734 12.4731 12.8571 11.9997 12.8571C11.5263 12.8571 11.1426 12.4734 11.1426 12C11.1426 11.5266 11.5263 11.1428 11.9997 11.1428C12.4731 11.1428 12.8569 11.5266 12.8569 12ZM8.57101 12.8571C9.0444 12.8571 9.42815 12.4734 9.42815 12C9.42815 11.5266 9.0444 11.1428 8.57101 11.1428C8.09762 11.1428 7.71387 11.5266 7.71387 12C7.71387 12.4734 8.09762 12.8571 8.57101 12.8571ZM16.2856 12C16.2856 12.4734 15.9018 12.8571 15.4284 12.8571C14.955 12.8571 14.5713 12.4734 14.5713 12C14.5713 11.5266 14.955 11.1428 15.4284 11.1428C15.9018 11.1428 16.2856 11.5266 16.2856 12ZM11.9997 16.2856C12.4731 16.2856 12.8569 15.9018 12.8569 15.4284C12.8569 14.955 12.4731 14.5713 11.9997 14.5713C11.5263 14.5713 11.1426 14.955 11.1426 15.4284C11.1426 15.9018 11.5263 16.2856 11.9997 16.2856ZM9.42815 15.4284C9.42815 15.9018 9.0444 16.2856 8.57101 16.2856C8.09762 16.2856 7.71387 15.9018 7.71387 15.4284C7.71387 14.955 8.09762 14.5713 8.57101 14.5713C9.0444 14.5713 9.42815 14.955 9.42815 15.4284ZM15.4284 16.2856C15.9018 16.2856 16.2856 15.9018 16.2856 15.4284C16.2856 14.955 15.9018 14.5713 15.4284 14.5713C14.955 14.5713 14.5713 14.955 14.5713 15.4284C14.5713 15.9018 14.955 16.2856 15.4284 16.2856Z" fill="#D0542D"/>
</svg>
