<svg width="24" height="24" viewBox="0 0 24 24" fill="none" xmlns="http://www.w3.org/2000/svg">
<path fill-rule="evenodd" clip-rule="evenodd" d="M5.15 8.78571C5.15 6.95745 6.65767 5.5 8.5 5.5C10.3445 5.5 11.8405 6.95961 11.8405 8.78571C11.8405 10.6118 10.3445 12.0714 8.5 12.0714C6.65767 12.0714 5.15 10.614 5.15 8.78571ZM8.5 6.5C7.18833 6.5 6.15 7.53112 6.15 8.78571C6.15 10.0403 7.18833 11.0714 8.5 11.0714C9.80947 11.0714 10.8405 10.0425 10.8405 8.78571C10.8405 7.52897 9.80947 6.5 8.5 6.5ZM13.8502 10.2501C13.8502 8.68181 15.1488 7.42865 16.7252 7.42865C18.3041 7.42865 19.5907 8.68439 19.5907 10.2501C19.5907 11.8158 18.3041 13.0715 16.7252 13.0715C15.1488 13.0715 13.8502 11.8183 13.8502 10.2501ZM16.7252 8.42865C15.6795 8.42865 14.8502 9.25548 14.8502 10.2501C14.8502 11.2447 15.6795 12.0715 16.7252 12.0715C17.7682 12.0715 18.5907 11.2473 18.5907 10.2501C18.5907 9.2529 17.7682 8.42865 16.7252 8.42865ZM4.93182 13.6323C6.14519 13.2045 7.5766 13 8.5 13C9.2498 13 10.4452 13.0846 11.5718 13.3215C12.1353 13.4399 12.697 13.5997 13.183 13.8141C13.5288 13.9666 13.8618 14.1579 14.1292 14.4019C15.1496 13.9896 15.8184 13.9286 16.7252 13.9286C17.6623 13.9286 18.7979 14.1562 19.716 14.6224C20.6196 15.0812 21.4502 15.8513 21.4502 16.9822V18.0715C21.4502 18.8999 20.7786 19.5715 19.9502 19.5715H13.5001C13.4833 19.5715 13.4666 19.5712 13.45 19.5707L4 19.5715C3.17157 19.5715 2.5 18.8999 2.5 18.0715V15.9822C2.5 15.3525 2.85292 14.8568 3.2973 14.4913C3.74043 14.1269 4.32579 13.846 4.93182 13.6323ZM12.0855 18.5715C12.0302 18.4151 12.0001 18.2468 12.0001 18.0715V16.9822C12.0001 16.1856 12.4368 15.4362 13.1476 14.9171C13.0407 14.8532 12.9181 14.7902 12.7793 14.729C12.3789 14.5523 11.8899 14.4102 11.366 14.3001C10.318 14.0798 9.19286 14 8.5 14C7.6849 14 6.36631 14.1869 5.26431 14.5754C4.71265 14.7699 4.24897 15.0034 3.9325 15.2637C3.61727 15.5229 3.5 15.7622 3.5 15.9822V18.0715C3.5 18.3476 3.72386 18.5715 4 18.5715H12.0855ZM16.7252 14.9286C15.832 14.9286 15.2646 14.9852 14.203 15.4569C13.3867 15.8197 13.0001 16.4526 13.0001 16.9822V18.0715C13.0001 18.3476 13.224 18.5715 13.5001 18.5715H19.9502C20.2263 18.5715 20.4502 18.3476 20.4502 18.0715V16.9822C20.4502 16.4138 20.0375 15.9072 19.2632 15.514C18.5034 15.1282 17.5265 14.9286 16.7252 14.9286Z" fill="#D0542D"/>
</svg>
